<?xml version="1.0" encoding="UTF-8" standalone="no"?>
<!DOCTYPE svg PUBLIC "-//W3C//DTD SVG 1.1//EN" "http://www.w3.org/Graphics/SVG/1.1/DTD/svg11.dtd">
<!-- Generated by Microsoft Visio, SVG Export SM[HW]_PMS_STBY_CNTRL.svg update 22.11.2021 -->
<svg xmlns="http://www.w3.org/2000/svg" xmlns:xlink="http://www.w3.org/1999/xlink" xmlns:ev="http://www.w3.org/2001/xml-events"
		xmlns:v="http://schemas.microsoft.com/visio/2003/SVGExtensions/" width="8.11024in" height="2.5in" viewBox="0 0 583.937 180"
		xml:space="preserve" color-interpolation-filters="sRGB" class="st12">
	<v:documentProperties v:langID="1031" v:metric="true" v:viewMarkup="false">
		<v:userDefs>
			<v:ud v:nameU="msvNoAutoConnect" v:val="VT0(1):26"/>
		</v:userDefs>
	</v:documentProperties>

	<style type="text/css">
	<![CDATA[
		.st1 {fill:#ffffff;stroke:#000000;stroke-linecap:round;stroke-linejoin:round;stroke-width:0.75}
		.st2 {fill:#000000;font-family:Calibri;font-size:0.833336em}
		.st3 {fill:#000000;font-family:Calibri;font-size:1.00001em}
		.st4 {stroke:#000000;stroke-linecap:round;stroke-linejoin:round;stroke-width:0.24}
		.st5 {fill:#ffffff;stroke:#000000;stroke-linecap:round;stroke-linejoin:round;stroke-width:0.24}
		.st6 {fill:#ffd965;stroke:#000000;stroke-linecap:round;stroke-linejoin:round;stroke-width:0.75}
		.st7 {stroke:#000000;stroke-linecap:round;stroke-linejoin:round;stroke-width:0.75}
		.st8 {fill:#ea700d;stroke:#000000;stroke-linecap:round;stroke-linejoin:round;stroke-width:0.75}
		.st9 {marker-end:url(#mrkr13-84);stroke:#000000;stroke-linecap:round;stroke-linejoin:round;stroke-width:0.75}
		.st10 {fill:#000000;fill-opacity:1;stroke:#000000;stroke-opacity:1;stroke-width:0.22935779816514}
		.st11 {fill:none;stroke:none;stroke-linecap:round;stroke-linejoin:round;stroke-width:0.75}
		.st12 {fill:none;fill-rule:evenodd;font-size:12px;overflow:visible;stroke-linecap:square;stroke-miterlimit:3}
	]]>
	</style>

	<defs id="Markers">
		<g id="lend13">
			<path d="M 3 1 L 0 0 L 3 -1 L 3 1 " style="stroke:none"/>
		</g>
		<marker id="mrkr13-84" class="st10" v:arrowType="13" v:arrowSize="2" v:setback="13.08" refX="-13.08" orient="auto"
				markerUnits="strokeWidth" overflow="visible">
			<use xlink:href="#lend13" transform="scale(-4.36,-4.36) "/>
		</marker>
	</defs>
	<g v:mID="8" v:index="2" v:groupContext="foregroundPage">
		<title>update 22.11.2021</title>
		<v:pageProperties v:drawingScale="0.0393701" v:pageScale="0.0393701" v:drawingUnits="24" v:shadowOffsetX="8.50394"
				v:shadowOffsetY="-8.50394"/>
		<v:layer v:name="Electrical" v:index="0"/>
		<v:layer v:name="Connector" v:index="1"/>
		<g id="shape1-1" v:mID="1" v:groupContext="shape" transform="translate(8.75757,-75.1181)">
			<title>Sheet.1</title>
			<desc>ESR1</desc>
			<v:textBlock v:margins="rect(4,4,4,4)" v:tabSpace="42.5197"/>
			<v:textRect cx="14.1732" cy="165.827" width="28.35" height="28.3465"/>
			<rect x="0" y="151.654" width="28.3465" height="28.3465" class="st1"/>
			<text x="4.19" y="168.83" class="st2" v:langID="1031"><v:paragraph v:horizAlign="1"/><v:tabList/>ESR1</text>		</g>
		<g id="shape2-4" v:mID="2" v:groupContext="shape" transform="translate(49.8898,-51.874)">
			<title>Sheet.2</title>
			<desc>SMM</desc>
			<v:textBlock v:margins="rect(4,4,4,4)" v:tabSpace="42.5197"/>
			<v:textRect cx="25.2283" cy="170.929" width="116.23" height="33.6614"/>
			<rect x="0" y="78.3779" width="249.449" height="101.622" class="st1"/>
			<text x="12.21" y="174.53" class="st3" v:langID="1031"><v:paragraph v:horizAlign="1"/><v:tabList/>SMM</text>		</g>
		<g id="group3-7" transform="translate(205.885,-130.394)" v:mID="3" v:groupContext="group" v:layerMember="0">
			<v:custProps>
				<v:cp v:nameU="Input" v:lbl="No. of Inputs" v:type="1" v:format="2;3;4;5" v:sortKey="2" v:langID="1033"
						v:val="VT4(2)"/>
				<v:cp v:nameU="Type" v:lbl="Gate Type" v:type="1" v:format="OR;AND;NOR;NAND;XOR;XNOR" v:sortKey="1" v:langID="1033"
						v:val="VT4(AND)"/>
				<v:cp v:nameU="Out" v:lbl="No. of Outputs" v:type="1" v:format="1;2;3" v:sortKey="3" v:langID="1033" v:val="VT4(1)"/>
				<v:cp v:nameU="Input" v:lbl="" v:prompt="" v:type="0" v:format="" v:sortKey="" v:invis="false" v:ask="false"
						v:langID="1031" v:cal="0" v:val="VT0(0):26"/>
			</v:custProps>
			<v:userDefs>
				<v:ud v:nameU="SubType" v:val="VT0(1):26"/>
				<v:ud v:nameU="Margin" v:val="VT0(0.059055118110236):24"/>
				<v:ud v:nameU="LimitHeight" v:val="VT0(0):26"/>
				<v:ud v:nameU="visVersion" v:val="VT0(15):26"/>
				<v:ud v:nameU="visDescription" v:val="VT4(Represents various forms of logic gates.)"/>
			</v:userDefs>
			<title>Logic gate 2</title>
			<g id="shape4-8" v:mID="4" v:groupContext="shape" v:layerMember="0" transform="translate(0,-4.25197)">
				<title>Sheet.4</title>
				<path d="M0 171.5 L17.01 171.5" class="st4"/>
				<path d="M0 180 L17.01 180" class="st4"/>
				<path d="M34.02 175.75 L17.01 175.75" class="st4"/>
			</g>
			<g id="shape5-13" v:mID="5" v:groupContext="shape" v:layerMember="0" transform="translate(5.95276,2.84217E-14)">
				<title>Sheet.5</title>
				<v:userDefs>
					<v:ud v:nameU="X" v:val="VT0(0.029527559055118):24"/>
				</v:userDefs>
				<path d="M22.11 171.5 A22.9017 14.031 0 0 1 6.63 180 L0 180 A32.8126 20.103 -180 0 0 0 162.99 L6.63 162.99 A22.5949
							 13.8431 0 0 1 22.11 171.5 Z" class="st5"/>
			</g>
			<g id="shape6-15" v:mID="6" v:groupContext="shape" v:layerMember="0" transform="translate(0,2.83465)">
				<title>Sheet.6</title>
			</g>
			<g id="shape7-17" v:mID="7" v:groupContext="shape" v:layerMember="0" transform="translate(23.0309,-2.13696)">
				<title>Sheet.7</title>
			</g>
			<g id="shape8-19" v:mID="8" v:groupContext="shape" v:layerMember="0" transform="translate(5.95276,2.84217E-14)">
				<title>Sheet.8</title>
				<path d="M13.61 180 L0 180 L0 162.99 L13.61 162.99 A8.50394 8.50394 0 0 1 13.61 180 Z" class="st5"/>
			</g>
		</g>
		<g id="shape9-21" v:mID="9" v:groupContext="shape" transform="translate(59.1732,-105.388)">
			<title>Sheet.9</title>
			<desc>PMCSRn.REQSLP</desc>
			<v:textBlock v:margins="rect(4,4,4,4)" v:tabSpace="42.5197"/>
			<v:textRect cx="51.378" cy="171.496" width="102.76" height="17.0079"/>
			<rect x="0" y="162.992" width="102.756" height="17.0079" class="st6"/>
			<text x="10.66" y="175.1" class="st3" v:langID="1031"><v:paragraph v:horizAlign="1"/><v:tabList/>PMCSRn.REQSLP</text>		</g>
		<g id="shape10-24" v:mID="10" v:groupContext="shape" transform="translate(315.577,-7.59278)">
			<title>Sheet.10</title>
			<rect x="0" y="21.766" width="206.949" height="158.234" class="st1"/>
		</g>
		<g id="shape11-26" v:mID="11" v:groupContext="shape" transform="translate(56.6929,-133.735)">
			<title>Sheet.11</title>
			<desc>PMSWCR1.PROCMODEEN</desc>
			<v:textBlock v:margins="rect(4,4,4,4)" v:tabSpace="42.5197"/>
			<v:textRect cx="68.6744" cy="171.496" width="137.35" height="17.0079"/>
			<rect x="0" y="162.992" width="137.349" height="17.0079" class="st6"/>
			<text x="5.28" y="175.1" class="st3" v:langID="1031"><v:paragraph v:horizAlign="1"/><v:tabList/>PMSWCR1.PROCMODEEN</text>		</g>
		<g id="shape12-29" v:mID="12" v:groupContext="shape" transform="translate(205.885,-143.15)">
			<title>Sheet.12</title>
		</g>
		<g id="shape13-30" v:mID="13" v:groupContext="shape" transform="translate(202.677,246.108) rotate(180)">
			<title>Sheet.13</title>
			<path d="M0 180 L40.75 180" class="st7"/>
		</g>
		<g id="shape14-33" v:mID="14" v:groupContext="shape" transform="translate(248.017,-134.646)">
			<title>Sheet.14</title>
			<path d="M0 180 L119.07 180" class="st7"/>
		</g>
		<g id="shape15-36" v:mID="15" v:groupContext="shape" transform="translate(315.577,-40.1912)">
			<title>Sheet.15</title>
			<desc>STANDBY_CON1.SWESRSBEN</desc>
			<v:textBlock v:margins="rect(4,4,4,4)" v:tabSpace="42.5197"/>
			<v:textRect cx="77.9528" cy="171.496" width="155.91" height="17.0079"/>
			<rect x="0" y="162.992" width="155.906" height="17.0079" class="st6"/>
			<text x="6.6" y="175.1" class="st3" v:langID="1031"><v:paragraph v:horizAlign="1"/><v:tabList/>STANDBY_CON1.SWESRSBEN</text>		</g>
		<g id="shape16-39" v:mID="16" v:groupContext="shape" transform="translate(315.577,-14.6794)">
			<title>Sheet.16</title>
			<desc>STANDBY_CON0.ESR2SBEN</desc>
			<v:textBlock v:margins="rect(4,4,4,4)" v:tabSpace="42.5197"/>
			<v:textRect cx="72.9263" cy="171.496" width="145.86" height="17.0079"/>
			<rect x="0" y="162.992" width="145.853" height="17.0079" class="st6"/>
			<text x="6.62" y="175.1" class="st3" v:langID="1031"><v:paragraph v:horizAlign="1"/><v:tabList/>STANDBY_CON0.ESR2SBEN</text>		</g>
		<g id="shape17-42" v:mID="17" v:groupContext="shape" transform="translate(425.197,-117.891)">
			<title>Sheet.17</title>
			<desc>STANDBY entry</desc>
			<v:textBlock v:margins="rect(4,4,4,4)" v:tabSpace="42.5197"/>
			<v:textRect cx="44.3622" cy="167.497" width="88.73" height="25.0056"/>
			<rect x="0" y="154.994" width="88.7244" height="25.0056" class="st8"/>
			<text x="7.15" y="171.1" class="st3" v:langID="1031"><v:paragraph v:horizAlign="1"/><v:tabList/>STANDBY entry</text>		</g>
		<g id="group18-45" transform="translate(367.087,-121.89)" v:mID="18" v:groupContext="group" v:layerMember="0">
			<v:custProps>
				<v:cp v:nameU="Input" v:lbl="No. of Inputs" v:type="1" v:format="2;3;4;5" v:sortKey="2" v:langID="1033"
						v:val="VT4(2)"/>
				<v:cp v:nameU="Type" v:lbl="Gate Type" v:type="1" v:format="OR;AND;NOR;NAND;XOR;XNOR" v:sortKey="1" v:langID="1033"
						v:val="VT4(AND)"/>
				<v:cp v:nameU="Out" v:lbl="No. of Outputs" v:type="1" v:format="1;2;3" v:sortKey="3" v:langID="1033" v:val="VT4(1)"/>
				<v:cp v:nameU="Input" v:lbl="" v:prompt="" v:type="0" v:format="" v:sortKey="" v:invis="false" v:ask="false"
						v:langID="1031" v:cal="0" v:val="VT0(0):26"/>
			</v:custProps>
			<v:userDefs>
				<v:ud v:nameU="SubType" v:val="VT0(1):26"/>
				<v:ud v:nameU="Margin" v:val="VT0(0.059055118110236):24"/>
				<v:ud v:nameU="LimitHeight" v:val="VT0(0):26"/>
				<v:ud v:nameU="visVersion" v:val="VT0(15):26"/>
				<v:ud v:nameU="visDescription" v:val="VT4(Represents various forms of logic gates.)"/>
			</v:userDefs>
			<title>Logic gate 2.22</title>
			<g id="shape19-46" v:mID="19" v:groupContext="shape" v:layerMember="0" transform="translate(0,-4.25197)">
				<title>Sheet.19</title>
				<path d="M0 171.5 L17.01 171.5" class="st4"/>
				<path d="M0 180 L17.01 180" class="st4"/>
				<path d="M34.02 175.75 L17.01 175.75" class="st4"/>
			</g>
			<g id="shape20-51" v:mID="20" v:groupContext="shape" v:layerMember="0" transform="translate(5.95276,2.84217E-14)">
				<title>Sheet.20</title>
				<v:userDefs>
					<v:ud v:nameU="X" v:val="VT0(0.029527559055118):24"/>
				</v:userDefs>
				<path d="M22.11 171.5 A22.9017 14.031 0 0 1 6.63 180 L0 180 A32.8126 20.103 -180 0 0 0 162.99 L6.63 162.99 A22.5949
							 13.8431 0 0 1 22.11 171.5 Z" class="st5"/>
			</g>
			<g id="shape21-53" v:mID="21" v:groupContext="shape" v:layerMember="0" transform="translate(0,2.83465)">
				<title>Sheet.21</title>
			</g>
			<g id="shape22-55" v:mID="22" v:groupContext="shape" v:layerMember="0" transform="translate(23.0309,-2.13696)">
				<title>Sheet.22</title>
			</g>
			<g id="shape23-57" v:mID="23" v:groupContext="shape" v:layerMember="0" transform="translate(5.95276,2.84217E-14)">
				<title>Sheet.23</title>
				<path d="M13.61 180 L0 180 L0 162.99 L13.61 162.99 A8.50394 8.50394 0 0 1 13.61 180 Z" class="st5"/>
			</g>
		</g>
		<g id="group24-59" transform="translate(330.236,110.298) rotate(-90)" v:mID="24" v:groupContext="group" v:layerMember="0">
			<v:custProps>
				<v:cp v:nameU="Input" v:lbl="No. of Inputs" v:type="1" v:format="2;3;4;5" v:sortKey="2" v:langID="1033"
						v:val="VT4(2)"/>
				<v:cp v:nameU="Type" v:lbl="Gate Type" v:type="1" v:format="OR;AND;NOR;NAND;XOR;XNOR" v:sortKey="1" v:langID="1033"
						v:val="VT4(AND)"/>
				<v:cp v:nameU="Out" v:lbl="No. of Outputs" v:type="1" v:format="1;2;3" v:sortKey="3" v:langID="1033" v:val="VT4(1)"/>
				<v:cp v:nameU="Input" v:lbl="" v:prompt="" v:type="0" v:format="" v:sortKey="" v:invis="false" v:ask="false"
						v:langID="1031" v:cal="0" v:val="VT0(0):26"/>
			</v:custProps>
			<v:userDefs>
				<v:ud v:nameU="SubType" v:val="VT0(1):26"/>
				<v:ud v:nameU="Margin" v:val="VT0(0.059055118110236):24"/>
				<v:ud v:nameU="LimitHeight" v:val="VT0(0):26"/>
				<v:ud v:nameU="visVersion" v:val="VT0(15):26"/>
				<v:ud v:nameU="visDescription" v:val="VT4(Represents various forms of logic gates.)"/>
			</v:userDefs>
			<title>Logic gate 2.28</title>
			<g id="shape25-60" v:mID="25" v:groupContext="shape" v:layerMember="0" transform="translate(0,-4.25197)">
				<title>Sheet.25</title>
				<path d="M0 171.5 L17.01 171.5" class="st4"/>
				<path d="M0 180 L17.01 180" class="st4"/>
				<path d="M34.02 175.75 L17.01 175.75" class="st4"/>
			</g>
			<g id="shape26-65" v:mID="26" v:groupContext="shape" v:layerMember="0" transform="translate(5.95276,2.84217E-14)">
				<title>Sheet.26</title>
				<v:userDefs>
					<v:ud v:nameU="X" v:val="VT0(0.029527559055118):24"/>
				</v:userDefs>
				<path d="M22.11 171.5 A22.9017 14.031 0 0 1 6.63 180 L0 180 A32.8126 20.103 -180 0 0 0 162.99 L6.63 162.99 A22.5949
							 13.8431 0 0 1 22.11 171.5 Z" class="st5"/>
			</g>
			<g id="shape27-67" v:mID="27" v:groupContext="shape" v:layerMember="0" transform="translate(0,2.83465)">
				<title>Sheet.27</title>
			</g>
			<g id="shape28-69" v:mID="28" v:groupContext="shape" v:layerMember="0" transform="translate(23.0309,-2.13696)">
				<title>Sheet.28</title>
			</g>
			<g id="shape29-71" v:mID="29" v:groupContext="shape" v:layerMember="0" transform="translate(5.95276,2.84217E-14)">
				<title>Sheet.29</title>
				<path d="M13.61 180 L0 180 L0 162.99 L13.61 162.99 A8.50394 8.50394 0 0 1 13.61 180 Z" class="st5"/>
			</g>
		</g>
		<g id="shape35-73" v:mID="35" v:groupContext="shape" transform="translate(497.48,337.323) rotate(180)">
			<title>Sheet.35</title>
			<path d="M0 180 L36.36 180" class="st7"/>
		</g>
		<g id="shape36-76" v:mID="36" v:groupContext="shape" transform="translate(677.48,110.298) rotate(90)">
			<title>Sheet.36</title>
			<path d="M0 180 L47.02 180" class="st7"/>
		</g>
		<g id="shape38-79" v:mID="38" v:groupContext="shape" transform="translate(401.556,-130.393) rotate(0.144521)">
			<title>Sheet.38</title>
			<path d="M0 180 L14.28 180" class="st9"/>
		</g>
		<g id="shape40-85" v:mID="40" v:groupContext="shape" transform="translate(-118.522,-43.6572) rotate(-45)">
			<title>Sheet.40</title>
			<path d="M0 180 L10.02 180" class="st7"/>
		</g>
		<g id="shape41-88" v:mID="41" v:groupContext="shape" transform="translate(-97.6099,-22.3973) rotate(-45)">
			<title>Sheet.41</title>
			<path d="M0 180 L10.02 180" class="st7"/>
		</g>
		<g id="shape42-91" v:mID="42" v:groupContext="shape" transform="translate(157.297,-50.3658) rotate(45)">
			<title>Sheet.42</title>
			<path d="M0 180 L10.02 180" class="st7"/>
		</g>
		<g id="shape43-94" v:mID="43" v:groupContext="shape" transform="translate(136.037,-29.484) rotate(45)">
			<title>Sheet.43</title>
			<path d="M0 180 L10.02 180" class="st7"/>
		</g>
		<g id="shape44-97" v:mID="44" v:groupContext="shape" transform="translate(541.417,-26.9291)">
			<title>Sheet.44</title>
			<desc>ESR2</desc>
			<v:textBlock v:margins="rect(4,4,4,4)" v:tabSpace="42.5197"/>
			<v:textRect cx="14.1732" cy="165.827" width="28.35" height="28.3465"/>
			<rect x="0" y="151.654" width="28.3465" height="28.3465" class="st1"/>
			<text x="4.19" y="168.83" class="st2" v:langID="1031"><v:paragraph v:horizAlign="1"/><v:tabList/>ESR2</text>		</g>
		<g id="shape45-100" v:mID="45" v:groupContext="shape" transform="translate(414.138,4.53181) rotate(-45)">
			<title>Sheet.45</title>
			<path d="M0 180 L10.02 180" class="st7"/>
		</g>
		<g id="shape46-103" v:mID="46" v:groupContext="shape" transform="translate(435.05,25.7917) rotate(-45)">
			<title>Sheet.46</title>
			<path d="M0 180 L10.02 180" class="st7"/>
		</g>
		<g id="shape47-106" v:mID="47" v:groupContext="shape" transform="translate(689.956,-2.17683) rotate(45)">
			<title>Sheet.47</title>
			<path d="M0 180 L10.02 180" class="st7"/>
		</g>
		<g id="shape48-109" v:mID="48" v:groupContext="shape" transform="translate(668.697,18.705) rotate(45)">
			<title>Sheet.48</title>
			<path d="M0 180 L10.02 180" class="st7"/>
		</g>
		<g id="shape53-112" v:mID="53" v:groupContext="shape" transform="translate(379.357,-151.654)">
			<title>Sheet.53</title>
			<desc>PMS</desc>
			<v:textBlock v:margins="rect(4,4,4,4)" v:tabSpace="42.5197"/>
			<v:textRect cx="21.2598" cy="174.331" width="42.52" height="11.3386"/>
			<rect x="0" y="168.661" width="42.5197" height="11.3386" class="st11"/>
			<text x="10.27" y="177.93" class="st3" v:langID="1031"><v:paragraph v:horizAlign="1"/><v:tabList/>PMS</text>		</g>
		<g id="shape64-115" v:mID="64" v:groupContext="shape" transform="translate(321.732,76.2823) rotate(-90)">
			<title>Sheet.64</title>
			<path d="M0 180 L4.11 180" class="st9"/>
		</g>
		<g id="shape65-120" v:mID="65" v:groupContext="shape" transform="translate(541.417,318.898) rotate(180)">
			<title>Sheet.65</title>
			<path d="M0 180 L35.43 180" class="st7"/>
		</g>
		<g id="shape66-123" v:mID="66" v:groupContext="shape" transform="translate(685.984,110.298) rotate(90)">
			<title>Sheet.66</title>
			<path d="M0 180 L28.6 180" class="st7"/>
		</g>
		<g id="shape68-126" v:mID="68" v:groupContext="shape" transform="translate(22.6772,66.108) rotate(-90)">
			<title>Sheet.68</title>
			<path d="M0 180 L20.75 180" class="st7"/>
		</g>
		<g id="shape69-129" v:mID="69" v:groupContext="shape" transform="translate(205.885,225.354) rotate(180)">
			<title>Sheet.69</title>
			<path d="M0 180 L3.21 180" class="st7"/>
		</g>
		<g id="shape70-132" v:mID="70" v:groupContext="shape" transform="translate(358.583,-57.1991)">
			<title>Sheet.70</title>
			<path d="M8.5 111.06 L0 111.06 L0 180" class="st7"/>
		</g>
		<g id="shape91-135" v:mID="91" v:groupContext="shape" transform="translate(37.104,-89.2913)">
			<title>Sheet.91</title>
			<path d="M0 180 L198.17 180" class="st7"/>
		</g>
		<g id="shape93-138" v:mID="93" v:groupContext="shape" transform="translate(155.906,-51.874)">
			<title>Sheet.93</title>
			<desc>PMSWCR1.STBYEV</desc>
			<v:textBlock v:margins="rect(4,4,4,4)" v:tabSpace="42.5197"/>
			<v:textRect cx="51.378" cy="171.496" width="102.76" height="17.0079"/>
			<rect x="0" y="162.992" width="102.756" height="17.0079" class="st6"/>
			<text x="5.84" y="175.1" class="st3" v:langID="1031"><v:paragraph v:horizAlign="1"/><v:tabList/>PMSWCR1.STBYEV</text>		</g>
		<g id="shape95-141" v:mID="95" v:groupContext="shape" transform="translate(415.276,51.0236) rotate(90)">
			<title>Sheet.95</title>
			<path d="M0 180 L39.69 180" class="st7"/>
		</g>
		<g id="shape99-144" v:mID="99" v:groupContext="shape" transform="translate(194.042,-143.15)">
			<title>Sheet.99</title>
			<path d="M0 180 L11.84 180" class="st7"/>
		</g>
		<g id="shape100-147" v:mID="100" v:groupContext="shape" transform="translate(425.585,52.8885) rotate(90)">
			<title>Sheet.100</title>
			<path d="M0 180 L58.23 180" class="st7"/>
		</g>
		<g id="shape101-150" v:mID="101" v:groupContext="shape" transform="translate(235.276,-128.976)">
			<title>Sheet.101</title>
			<path d="M0 180 L6.5 180" class="st7"/>
		</g>
		<g id="shape102-153" v:mID="102" v:groupContext="shape" transform="translate(239.901,-138.898)">
			<title>Sheet.102</title>
			<path d="M0 180 L1.88 180" class="st7"/>
		</g>
		<g id="shape103-156" v:mID="103" v:groupContext="shape" transform="translate(242.362,-123.307)">
			<title>Sheet.103</title>
			<path d="M6.24 173.72 L6.24 162.39 L0 156.15 L0 180 L6.24 173.72 Z" class="st1"/>
		</g>
	</g>
</svg>
