<?xml version="1.0" encoding="UTF-8" standalone="no"?>
<!DOCTYPE svg PUBLIC "-//W3C//DTD SVG 1.1//EN" "http://www.w3.org/Graphics/SVG/1.1/DTD/svg11.dtd">
<!-- Generated by Microsoft Visio, SVG Export Synchronization_monitor_HWA_FS.svg Page-1 -->
<svg xmlns="http://www.w3.org/2000/svg" xmlns:xlink="http://www.w3.org/1999/xlink" xmlns:ev="http://www.w3.org/2001/xml-events"
		xmlns:v="http://schemas.microsoft.com/visio/2003/SVGExtensions/" width="8.26772in" height="4.52756in"
		viewBox="0 0 595.276 325.984" xml:space="preserve" color-interpolation-filters="sRGB" class="st20">
	<v:documentProperties v:langID="1031" v:metric="true" v:viewMarkup="false">
		<v:userDefs>
			<v:ud v:nameU="msvNoAutoConnect" v:val="VT0(1):26"/>
		</v:userDefs>
	</v:documentProperties>

	<style type="text/css">
	<![CDATA[
		.st1 {fill:#f2f2f2;stroke:#000000;stroke-linecap:round;stroke-linejoin:round;stroke-width:0.75}
		.st2 {fill:none;stroke:none;stroke-linecap:round;stroke-linejoin:round;stroke-width:0.75}
		.st3 {fill:#000000;font-family:Calibri;font-size:1.00001em;font-weight:bold}
		.st4 {fill:#ffffff;stroke:#000000;stroke-linecap:round;stroke-linejoin:round;stroke-width:0.75}
		.st5 {stroke:#000000;stroke-linecap:round;stroke-linejoin:round;stroke-width:0.75}
		.st6 {fill:#000000;font-family:Calibri;font-size:1.00001em}
		.st7 {font-size:1em}
		.st8 {marker-end:url(#mrkr13-29);stroke:#000000;stroke-linecap:round;stroke-linejoin:round;stroke-width:0.75}
		.st9 {fill:#000000;fill-opacity:1;stroke:#000000;stroke-opacity:1;stroke-width:0.22935779816514}
		.st10 {marker-start:url(#mrkr13-41);stroke:#000000;stroke-linecap:round;stroke-linejoin:round;stroke-width:0.75}
		.st11 {fill:#92d050;stroke:#000000;stroke-linecap:round;stroke-linejoin:round;stroke-width:0.75}
		.st12 {font-size:0.83333em;font-weight:normal}
		.st13 {font-size:0.83333em}
		.st14 {fill:#fff2cc;stroke:#000000;stroke-linecap:round;stroke-linejoin:round;stroke-width:0.75}
		.st15 {fill:#ffd965;stroke:#000000;stroke-linecap:round;stroke-linejoin:round;stroke-width:0.75}
		.st16 {marker-end:url(#mrkr13-29);marker-start:url(#mrkr13-41);stroke:#000000;stroke-linecap:round;stroke-linejoin:round;stroke-width:0.75}
		.st17 {fill:#000000;font-family:Calibri;font-size:0.833336em}
		.st18 {marker-start:url(#mrkr10-188);stroke:#000000;stroke-linecap:round;stroke-linejoin:round;stroke-width:0.75}
		.st19 {fill:#7f7f7f;font-family:Calibri;font-size:0.833336em}
		.st20 {fill:none;fill-rule:evenodd;font-size:12px;overflow:visible;stroke-linecap:square;stroke-miterlimit:3}
	]]>
	</style>

	<defs id="Markers">
		<g id="lend13">
			<path d="M 3 1 L 0 0 L 3 -1 L 3 1 " style="stroke:none"/>
		</g>
		<marker id="mrkr13-29" class="st9" v:arrowType="13" v:arrowSize="2" v:setback="13.08" refX="-13.08" orient="auto"
				markerUnits="strokeWidth" overflow="visible">
			<use xlink:href="#lend13" transform="scale(-4.36,-4.36) "/>
		</marker>
		<marker id="mrkr13-41" class="st9" v:arrowType="13" v:arrowSize="2" v:setback="12.6" refX="12.6" orient="auto"
				markerUnits="strokeWidth" overflow="visible">
			<use xlink:href="#lend13" transform="scale(4.36) "/>
		</marker>
		<g id="lend10">
			<path
					d="M 0 0.75 C -0.414214 0.75 -0.75 0.414214 -0.75 0 -0.75 -0.414214 -0.414214 -0.75 0 -0.75 0.414214 -0.75 0.75 -0.414214 0.75 0 0.75 0.414214 0.414214 0.75 0 0.75 Z "
					style="stroke:none"/>
		</g>
		<marker id="mrkr10-188" class="st9" v:arrowType="10" v:arrowSize="2" v:setback="2.79" refX="2.79" orient="auto"
				markerUnits="strokeWidth" overflow="visible">
			<use xlink:href="#lend10" transform="scale(4.36) "/>
		</marker>
	</defs>
	<g v:mID="0" v:index="1" v:groupContext="foregroundPage">
		<title>Page-1</title>
		<v:pageProperties v:drawingScale="0.0393701" v:pageScale="0.0393701" v:drawingUnits="24" v:shadowOffsetX="8.50394"
				v:shadowOffsetY="-8.50394"/>
		<g id="shape1-1" v:mID="1" v:groupContext="shape" transform="translate(38.2677,-77.9528)">
			<title>Sheet.1</title>
			<rect x="0" y="106.299" width="344.409" height="219.685" class="st1"/>
		</g>
		<g id="shape2-3" v:mID="2" v:groupContext="shape" transform="translate(24.0945,-263.622)">
			<title>Sheet.2</title>
			<desc>step-down regulator (EVRC)</desc>
			<v:textBlock v:margins="rect(4,4,4,4)" v:tabSpace="42.5197"/>
			<v:textRect cx="89.2913" cy="304.016" width="178.59" height="43.937"/>
			<rect x="0" y="282.047" width="178.583" height="43.937" class="st2"/>
			<text x="20.03" y="307.62" class="st3" v:langID="1031"><v:paragraph v:horizAlign="1"/><v:tabList/>step-down regulator (EVRC)</text>		</g>
		<g id="shape3-6" v:mID="3" v:groupContext="shape" transform="translate(372.047,-255.118)">
			<title>Sheet.3</title>
			<rect x="0" y="304.724" width="21.2598" height="21.2598" class="st4"/>
		</g>
		<g id="shape4-8" v:mID="4" v:groupContext="shape" transform="translate(141.542,-174.186) rotate(-45)">
			<title>Sheet.4</title>
			<path d="M0 325.98 L9.49 325.98" class="st5"/>
		</g>
		<g id="shape5-11" v:mID="5" v:groupContext="shape" transform="translate(156.088,-159.64) rotate(-45)">
			<title>Sheet.5</title>
			<path d="M0 325.98 L9.49 325.98" class="st5"/>
		</g>
		<g id="shape6-14" v:mID="6" v:groupContext="shape" transform="translate(602.553,-166.353) rotate(45)">
			<title>Sheet.6</title>
			<path d="M0 325.98 L9.49 325.98" class="st5"/>
		</g>
		<g id="shape7-17" v:mID="7" v:groupContext="shape" transform="translate(617.099,-180.899) rotate(45)">
			<title>Sheet.7</title>
			<path d="M0 325.98 L9.49 325.98" class="st5"/>
		</g>
		<g id="shape8-20" v:mID="8" v:groupContext="shape" transform="translate(189.921,-250.866)">
			<title>Sheet.8</title>
			<desc>Synchronization Output</desc>
			<v:textBlock v:margins="rect(4,4,4,4)" v:tabSpace="42.5197"/>
			<v:textRect cx="51.8442" cy="313.228" width="103.69" height="25.5118"/>
			<rect x="0" y="300.472" width="103.688" height="25.5118" class="st4"/>
			<text x="12.8" y="309.63" class="st6" v:langID="1031"><v:paragraph v:horizAlign="1"/><v:tabList/>Synchronization <tspan
						x="34.39" dy="1.2em" class="st7">Output</tspan></text>		</g>
		<g id="shape9-24" v:mID="9" v:groupContext="shape" transform="translate(293.61,-265.039)">
			<title>Sheet.9</title>
			<path d="M0 325.98 L68.63 325.98" class="st8"/>
		</g>
		<g id="shape10-30" v:mID="10" v:groupContext="shape" transform="translate(89.0676,-181.417)">
			<title>Sheet.10</title>
			<desc>Digital Controller</desc>
			<v:textBlock v:margins="rect(4,4,4,4)" v:tabSpace="42.5197"/>
			<v:textRect cx="51.8442" cy="304.016" width="103.69" height="43.937"/>
			<rect x="0" y="282.047" width="103.688" height="43.937" class="st4"/>
			<text x="10.35" y="307.62" class="st6" v:langID="1031"><v:paragraph v:horizAlign="1"/><v:tabList/>Digital Controller</text>		</g>
		<g id="shape12-33" v:mID="12" v:groupContext="shape" transform="translate(-189.921,100.63) rotate(-90)">
			<title>Sheet.12</title>
			<path d="M0 325.98 L39.69 325.98" class="st5"/>
		</g>
		<g id="shape13-36" v:mID="13" v:groupContext="shape" transform="translate(189.921,386.929) rotate(180)">
			<title>Sheet.13</title>
			<path d="M9.45 325.98 L9.81 325.98 L53.86 325.98" class="st10"/>
		</g>
		<g id="shape14-42" v:mID="14" v:groupContext="shape" transform="translate(52.2172,-97.7953)">
			<title>Sheet.14</title>
			<desc>Synchronization Module</desc>
			<v:textBlock v:margins="rect(4,4,4,4)" v:tabSpace="42.5197"/>
			<v:textRect cx="51.8442" cy="304.016" width="103.69" height="43.937"/>
			<rect x="0" y="282.047" width="103.688" height="43.937" class="st4"/>
			<text x="12.8" y="300.42" class="st6" v:langID="1031"><v:paragraph v:horizAlign="1"/><v:tabList/>Synchronization <tspan
						x="32.88" dy="1.2em" class="st7">Module</tspan></text>		</g>
		<g id="shape15-46" v:mID="15" v:groupContext="shape" transform="translate(179.888,-97.7953)">
			<title>Sheet.15</title>
			<desc>SM[HW]:PMS:SYNC_MONITOR</desc>
			<v:textBlock v:margins="rect(4,4,4,4)" v:tabSpace="42.5197"/>
			<v:textRect cx="82.3166" cy="304.016" width="164.64" height="43.937"/>
			<rect x="0" y="282.047" width="164.633" height="43.937" class="st11"/>
			<text x="7.09" y="307.62" class="st6" v:langID="1031"><v:paragraph v:horizAlign="1"/><v:tabList/>SM[HW]:PMS:SYNC_MONITOR</text>		</g>
		<g id="shape16-49" v:mID="16" v:groupContext="shape" transform="translate(179.888,531.496) rotate(180)">
			<title>Sheet.16</title>
			<path d="M0 325.98 L14.17 325.98" class="st8"/>
		</g>
		<g id="shape17-54" v:mID="17" v:groupContext="shape" transform="translate(70.8661,-141.732)">
			<title>Sheet.17</title>
			<path d="M8.75 262.2 L8.39 262.2 L0 262.2 L0 325.98" class="st10"/>
		</g>
		<g id="shape18-59" v:mID="18" v:groupContext="shape" transform="translate(344.521,-120.472)">
			<title>Sheet.18</title>
			<path d="M9.45 325.98 L9.81 325.98 L97.68 325.98" class="st10"/>
		</g>
		<g id="shape19-64" v:mID="19" v:groupContext="shape" transform="translate(442.205,-9.92124)">
			<title>Sheet.19</title>
			<desc>GTM/eGTM/GPT12 PWM signal generated for PMIC and EVRC Or PWM ...</desc>
			<v:textBlock v:margins="rect(4,4,4,4)" v:tabSpace="42.5197" v:verticalAlign="0"/>
			<v:textRect cx="66.6701" cy="248.031" width="133.35" height="155.906"/>
			<rect x="0" y="170.079" width="133.34" height="155.906" class="st1"/>
			<text x="18.35" y="199.28" class="st3" v:langID="1031"><v:paragraph v:horizAlign="1"/><v:tabList/><v:newlineChar/>GTM/eGTM/GPT12<v:newlineChar/><v:newlineChar/><tspan
						x="13.56" dy="2.7em" class="st12">PWM signal generated for </tspan><tspan x="35.32" dy="1.2em" class="st12">PMIC and EVRC <v:newlineChar/></tspan><tspan
						x="61.51" dy="1.2em" class="st13">Or <v:newlineChar/></tspan><tspan x="12.15" dy="1.2em" class="st12">PWM signal captured from </tspan><tspan
						x="10.59" dy="1.2em" class="st12">PMIC and provided to EVRC<v:newlineChar/></tspan><tspan x="61.51"
						dy="1.2em" class="st13">Or</tspan><tspan class="st12"> </tspan><tspan x="12.15" dy="1.2em" class="st12">PWM signal captured from </tspan><tspan
						x="12.09" dy="1.38em" class="st12">PMS and provided to PMIC</tspan></text>		</g>
		<g id="shape20-76" v:mID="20" v:groupContext="shape" transform="translate(479.48,-249.449)">
			<title>Sheet.20</title>
			<desc>external PMIC</desc>
			<v:textBlock v:margins="rect(4,4,4,4)" v:tabSpace="42.5197" v:verticalAlign="0"/>
			<v:textRect cx="48.8976" cy="294.094" width="97.8" height="63.7795"/>
			<rect x="0" y="262.205" width="97.7953" height="63.7795" class="st14"/>
			<text x="28.23" y="277" class="st3" v:langID="1031"><v:paragraph v:horizAlign="1"/><v:tabList/>external<v:newlineChar/><tspan
						x="35.68" dy="1.2em" class="st7">PMIC</tspan></text>		</g>
		<g id="shape21-80" v:mID="21" v:groupContext="shape" transform="translate(479.48,-249.449)">
			<title>Sheet.21</title>
			<desc>DCDC</desc>
			<v:textBlock v:margins="rect(4,4,4,4)" v:tabSpace="42.5197"/>
			<v:textRect cx="48.0323" cy="311.811" width="96.07" height="28.3465"/>
			<rect x="0" y="297.638" width="96.0647" height="28.3465" class="st15"/>
			<text x="34.25" y="315.41" class="st6" v:langID="1031"><v:paragraph v:horizAlign="1"/><v:tabList/>DCDC</text>		</g>
		<g id="shape22-83" v:mID="22" v:groupContext="shape" transform="translate(393.307,-265.039)">
			<title>Sheet.22</title>
			<path d="M0 325.98 L76.36 325.98" class="st8"/>
		</g>
		<g id="shape23-88" v:mID="23" v:groupContext="shape" transform="translate(853.228,76.5354) rotate(90)">
			<title>Sheet.23</title>
			<path d="M9.45 325.98 L9.81 325.98 L73.81 325.98" class="st16"/>
		</g>
		<g id="shape24-95" v:mID="24" v:groupContext="shape" transform="translate(487.559,-197.008)">
			<title>Sheet.24</title>
			<desc>PWM signal</desc>
			<v:textBlock v:margins="rect(4,4,4,4)" v:tabSpace="42.5197"/>
			<v:textRect cx="22.6772" cy="314.646" width="45.36" height="22.6772"/>
			<rect x="0" y="303.307" width="45.3543" height="22.6772" class="st2"/>
			<text x="11.37" y="311.65" class="st17" v:langID="1031"><v:paragraph v:horizAlign="1"/><v:tabList/>PWM <tspan x="11.05"
						dy="1.2em" class="st7">signal</tspan></text>		</g>
		<g id="shape26-99" v:mID="26" v:groupContext="shape" transform="translate(392.315,-108.425)">
			<title>Sheet.26</title>
			<desc>PWM signal</desc>
			<v:textBlock v:margins="rect(4,4,4,4)" v:tabSpace="42.5197"/>
			<v:textRect cx="22.6772" cy="314.646" width="45.36" height="22.6772"/>
			<rect x="0" y="303.307" width="45.3543" height="22.6772" class="st2"/>
			<text x="11.37" y="311.65" class="st17" v:langID="1031"><v:paragraph v:horizAlign="1"/><v:tabList/>PWM <tspan x="11.05"
						dy="1.2em" class="st7">signal</tspan></text>		</g>
		<g id="shape27-103" v:mID="27" v:groupContext="shape" transform="translate(221.102,-181.417)">
			<title>Sheet.27</title>
			<desc>VDD Generation</desc>
			<v:textBlock v:margins="rect(4,4,4,4)" v:tabSpace="42.5197"/>
			<v:textRect cx="51.8442" cy="304.016" width="103.69" height="43.937"/>
			<rect x="0" y="282.047" width="103.688" height="43.937" class="st4"/>
			<text x="12.12" y="307.62" class="st6" v:langID="1031"><v:paragraph v:horizAlign="1"/><v:tabList/>VDD Generation  </text>		</g>
		<g id="shape28-106" v:mID="28" v:groupContext="shape" transform="translate(192.756,-202.677)">
			<title>Sheet.28</title>
			<path d="M0 325.98 L18.54 325.98" class="st8"/>
		</g>
		<g id="shape29-111" v:mID="29" v:groupContext="shape" transform="translate(369.354,-197.858)">
			<title>Sheet.29</title>
			<rect x="0" y="304.724" width="21.2598" height="21.2598" class="st4"/>
		</g>
		<g id="shape30-113" v:mID="30" v:groupContext="shape" transform="translate(138.849,-116.926) rotate(-45)">
			<title>Sheet.30</title>
			<path d="M0 325.98 L9.49 325.98" class="st5"/>
		</g>
		<g id="shape31-116" v:mID="31" v:groupContext="shape" transform="translate(153.395,-102.38) rotate(-45)">
			<title>Sheet.31</title>
			<path d="M0 325.98 L9.49 325.98" class="st5"/>
		</g>
		<g id="shape32-119" v:mID="32" v:groupContext="shape" transform="translate(599.86,-109.093) rotate(45)">
			<title>Sheet.32</title>
			<path d="M0 325.98 L9.49 325.98" class="st5"/>
		</g>
		<g id="shape33-122" v:mID="33" v:groupContext="shape" transform="translate(614.406,-123.639) rotate(45)">
			<title>Sheet.33</title>
			<path d="M0 325.98 L9.49 325.98" class="st5"/>
		</g>
		<g id="shape34-125" v:mID="34" v:groupContext="shape" transform="translate(371.339,-195.591)">
			<title>Sheet.34</title>
			<rect x="0" y="304.724" width="21.2598" height="21.2598" class="st4"/>
		</g>
		<g id="shape35-127" v:mID="35" v:groupContext="shape" transform="translate(140.833,-114.658) rotate(-45)">
			<title>Sheet.35</title>
			<path d="M0 325.98 L9.49 325.98" class="st5"/>
		</g>
		<g id="shape36-130" v:mID="36" v:groupContext="shape" transform="translate(155.379,-100.112) rotate(-45)">
			<title>Sheet.36</title>
			<path d="M0 325.98 L9.49 325.98" class="st5"/>
		</g>
		<g id="shape37-133" v:mID="37" v:groupContext="shape" transform="translate(601.844,-106.825) rotate(45)">
			<title>Sheet.37</title>
			<path d="M0 325.98 L9.49 325.98" class="st5"/>
		</g>
		<g id="shape38-136" v:mID="38" v:groupContext="shape" transform="translate(616.391,-121.372) rotate(45)">
			<title>Sheet.38</title>
			<path d="M0 325.98 L9.49 325.98" class="st5"/>
		</g>
		<g id="shape39-139" v:mID="39" v:groupContext="shape" transform="translate(373.039,-193.181)">
			<title>Sheet.39</title>
			<rect x="0" y="304.724" width="21.2598" height="21.2598" class="st4"/>
		</g>
		<g id="shape40-141" v:mID="40" v:groupContext="shape" transform="translate(142.534,-112.249) rotate(-45)">
			<title>Sheet.40</title>
			<path d="M0 325.98 L9.49 325.98" class="st5"/>
		</g>
		<g id="shape41-144" v:mID="41" v:groupContext="shape" transform="translate(157.08,-97.7027) rotate(-45)">
			<title>Sheet.41</title>
			<path d="M0 325.98 L9.49 325.98" class="st5"/>
		</g>
		<g id="shape42-147" v:mID="42" v:groupContext="shape" transform="translate(603.545,-104.416) rotate(45)">
			<title>Sheet.42</title>
			<path d="M0 325.98 L9.49 325.98" class="st5"/>
		</g>
		<g id="shape43-150" v:mID="43" v:groupContext="shape" transform="translate(618.091,-118.962) rotate(45)">
			<title>Sheet.43</title>
			<path d="M0 325.98 L9.49 325.98" class="st5"/>
		</g>
		<g id="shape44-153" v:mID="44" v:groupContext="shape" transform="translate(375.591,-191.339)">
			<title>Sheet.44</title>
			<rect x="0" y="304.724" width="21.2598" height="21.2598" class="st4"/>
		</g>
		<g id="shape45-155" v:mID="45" v:groupContext="shape" transform="translate(145.085,-110.406) rotate(-45)">
			<title>Sheet.45</title>
			<path d="M0 325.98 L9.49 325.98" class="st5"/>
		</g>
		<g id="shape46-158" v:mID="46" v:groupContext="shape" transform="translate(159.631,-95.8602) rotate(-45)">
			<title>Sheet.46</title>
			<path d="M0 325.98 L9.49 325.98" class="st5"/>
		</g>
		<g id="shape47-161" v:mID="47" v:groupContext="shape" transform="translate(606.096,-102.573) rotate(45)">
			<title>Sheet.47</title>
			<path d="M0 325.98 L9.49 325.98" class="st5"/>
		</g>
		<g id="shape48-164" v:mID="48" v:groupContext="shape" transform="translate(620.643,-117.12) rotate(45)">
			<title>Sheet.48</title>
			<path d="M0 325.98 L9.49 325.98" class="st5"/>
		</g>
		<g id="shape49-167" v:mID="49" v:groupContext="shape" transform="translate(331.665,-205.439) rotate(1.20825)">
			<title>Sheet.49</title>
			<path d="M0 325.98 L34.76 325.98" class="st8"/>
		</g>
		<g id="shape50-172" v:mID="50" v:groupContext="shape" transform="translate(297.638,-267.874)">
			<title>Sheet.50</title>
			<desc>DCDCSYNCO</desc>
			<v:textBlock v:margins="rect(4,4,4,4)" v:tabSpace="42.5197"/>
			<v:textRect cx="35.4331" cy="323.15" width="70.87" height="5.66926"/>
			<rect x="0" y="320.315" width="70.8661" height="5.66926" class="st2"/>
			<text x="10.01" y="326.15" class="st17" v:langID="1031"><v:paragraph v:horizAlign="1"/><v:tabList/>DCDCSYNCO</text>		</g>
		<g id="shape51-175" v:mID="51" v:groupContext="shape" transform="translate(334.488,-123.307)">
			<title>Sheet.51</title>
			<desc>DCDCSYNCI</desc>
			<v:textBlock v:margins="rect(4,4,4,4)" v:tabSpace="42.5197"/>
			<v:textRect cx="35.4331" cy="323.15" width="70.87" height="5.66926"/>
			<rect x="0" y="320.315" width="70.8661" height="5.66926" class="st2"/>
			<text x="12.06" y="326.15" class="st17" v:langID="1031"><v:paragraph v:horizAlign="1"/><v:tabList/>DCDCSYNCI</text>		</g>
		<g id="shape54-178" v:mID="54" v:groupContext="shape" transform="translate(793.701,89.2914) rotate(90)">
			<title>Sheet.54</title>
			<path d="M0 325.98 L61.06 325.98" class="st8"/>
		</g>
		<g id="shape55-183" v:mID="55" v:groupContext="shape" transform="translate(334.488,-236.693)">
			<title>Sheet.55</title>
			<path d="M0 299.73 L0 300.09 L0 325.98 L133.23 325.98" class="st18"/>
		</g>
		<g id="shape58-189" v:mID="58" v:groupContext="shape" transform="translate(422.362,-225.354)">
			<title>Sheet.58</title>
			<desc>PWM signal</desc>
			<v:textBlock v:margins="rect(4,4,4,4)" v:tabSpace="42.5197"/>
			<v:textRect cx="22.6772" cy="314.646" width="45.36" height="22.6772"/>
			<rect x="0" y="303.307" width="45.3543" height="22.6772" class="st2"/>
			<text x="11.37" y="311.65" class="st17" v:langID="1031"><v:paragraph v:horizAlign="1"/><v:tabList/>PWM <tspan x="11.05"
						dy="1.2em" class="st7">signal</tspan></text>		</g>
		<g id="shape59-193" v:mID="59" v:groupContext="shape" transform="translate(413.858,-255.118)">
			<title>Sheet.59</title>
			<desc>PWM signal</desc>
			<v:textBlock v:margins="rect(4,4,4,4)" v:tabSpace="42.5197"/>
			<v:textRect cx="22.6772" cy="314.646" width="45.36" height="22.6772"/>
			<rect x="0" y="303.307" width="45.3543" height="22.6772" class="st2"/>
			<text x="11.37" y="311.65" class="st17" v:langID="1031"><v:paragraph v:horizAlign="1"/><v:tabList/>PWM <tspan x="11.05"
						dy="1.2em" class="st7">signal</tspan></text>		</g>
		<g id="shape60-197" v:mID="60" v:groupContext="shape" transform="translate(525.321,-219.685)">
			<title>Sheet.60</title>
			<desc>Case: a,b,d</desc>
			<v:textBlock v:margins="rect(4,4,4,4)" v:tabSpace="42.5197"/>
			<v:textRect cx="29.5917" cy="317.48" width="59.19" height="17.0079"/>
			<rect x="0" y="308.976" width="59.1833" height="17.0079" class="st2"/>
			<text x="7.48" y="320.48" class="st19" v:langID="1031"><v:paragraph v:horizAlign="1"/><v:tabList/>Case: a,b,d</text>		</g>
		<g id="shape62-200" v:mID="62" v:groupContext="shape" transform="translate(394.583,-90.7087)">
			<title>Sheet.62</title>
			<desc>Case: a,b</desc>
			<v:textBlock v:margins="rect(4,4,4,4)" v:tabSpace="42.5197"/>
			<v:textRect cx="22.6772" cy="317.48" width="45.36" height="17.0079"/>
			<rect x="0" y="308.976" width="45.3543" height="17.0079" class="st2"/>
			<text x="4.44" y="320.48" class="st19" v:langID="1031"><v:paragraph v:horizAlign="1"/><v:tabList/>Case: a,b</text>		</g>
		<g id="shape63-203" v:mID="63" v:groupContext="shape" transform="translate(382.677,-274.961)">
			<title>Sheet.63</title>
			<desc>Case: c</desc>
			<v:textBlock v:margins="rect(4,4,4,4)" v:tabSpace="42.5197"/>
			<v:textRect cx="22.6772" cy="317.48" width="45.36" height="17.0079"/>
			<rect x="0" y="308.976" width="45.3543" height="17.0079" class="st2"/>
			<text x="8.59" y="320.48" class="st19" v:langID="1031"><v:paragraph v:horizAlign="1"/><v:tabList/>Case: c</text>		</g>
		<g id="shape64-206" v:mID="64" v:groupContext="shape" transform="translate(379.843,-222.52)">
			<title>Sheet.64</title>
			<desc>Case: d</desc>
			<v:textBlock v:margins="rect(4,4,4,4)" v:tabSpace="42.5197"/>
			<v:textRect cx="22.6772" cy="317.48" width="45.36" height="17.0079"/>
			<rect x="0" y="308.976" width="45.3543" height="17.0079" class="st2"/>
			<text x="8.08" y="320.48" class="st19" v:langID="1031"><v:paragraph v:horizAlign="1"/><v:tabList/>Case: d</text>		</g>
	</g>
</svg>
