<?xml version="1.0" encoding="UTF-8" standalone="no"?>
<!DOCTYPE svg PUBLIC "-//W3C//DTD SVG 1.1//EN" "http://www.w3.org/Graphics/SVG/1.1/DTD/svg11.dtd">
<!-- Generated by Microsoft Visio, SVG Export wdt_single_blk_dia.svg Page-1 -->
<svg xmlns="http://www.w3.org/2000/svg" xmlns:xlink="http://www.w3.org/1999/xlink" xmlns:ev="http://www.w3.org/2001/xml-events"
		xmlns:v="http://schemas.microsoft.com/visio/2003/SVGExtensions/" width="10.023in" height="3.75952in"
		viewBox="0 0 721.656 270.686" xml:space="preserve" color-interpolation-filters="sRGB" class="st41">
	<v:documentProperties v:langID="1031" v:metric="true" v:viewMarkup="false"/>

	<style type="text/css">
	<![CDATA[
		.st1 {fill:#fff9e3;stroke:#a5a5a5;stroke-linecap:round;stroke-linejoin:round;stroke-width:1.5}
		.st2 {fill:#7f7f7f;font-family:Calibri;font-size:1.5em;font-style:italic}
		.st3 {fill:none}
		.st4 {stroke:#000000;stroke-linecap:round;stroke-linejoin:round;stroke-width:3}
		.st5 {fill:#ffffff;stroke:#d8d8d8;stroke-linecap:round;stroke-linejoin:round;stroke-width:0.749999}
		.st6 {fill:#000000;font-family:Calibri;font-size:1.00001em}
		.st7 {fill:#d8d8d8;stroke:#000000;stroke-linecap:round;stroke-linejoin:round;stroke-width:1.5}
		.st8 {fill:#ffffff;stroke:#000000;stroke-linecap:round;stroke-linejoin:round;stroke-width:0.749999}
		.st9 {marker-end:url(#mrkr1-24);marker-start:url(#mrkr10-22);stroke:#000000;stroke-linecap:round;stroke-linejoin:round;stroke-width:0.749999}
		.st10 {fill:#000000;fill-opacity:1;stroke:#000000;stroke-opacity:1;stroke-width:0.22935755323873}
		.st11 {marker-end:url(#mrkr1-24);stroke:#000000;stroke-linecap:round;stroke-linejoin:round;stroke-width:0.749999}
		.st12 {marker-end:url(#mrkr13-38);stroke:#00b050;stroke-linecap:round;stroke-linejoin:round;stroke-width:0.999999}
		.st13 {fill:#00b050;fill-opacity:1;stroke:#00b050;stroke-opacity:1;stroke-width:0.28409062726264}
		.st14 {fill:#ffffff;stroke:#000000;stroke-linecap:round;stroke-linejoin:round;stroke-width:1.5}
		.st15 {marker-end:url(#mrkr13-69);stroke:#00b050;stroke-linecap:round;stroke-linejoin:round;stroke-width:1.5}
		.st16 {fill:#00b050;fill-opacity:1;stroke:#00b050;stroke-opacity:1;stroke-width:0.37313400423578}
		.st17 {marker-end:url(#mrkr13-75);stroke:#ea700d;stroke-linecap:round;stroke-linejoin:round;stroke-width:1.5}
		.st18 {fill:#ea700d;fill-opacity:1;stroke:#ea700d;stroke-opacity:1;stroke-width:0.37313400423578}
		.st19 {fill:none;stroke:none;stroke-linecap:round;stroke-linejoin:round;stroke-width:0.749999}
		.st20 {fill:#00b050;font-family:Calibri;font-size:1.00001em}
		.st21 {font-size:1em}
		.st22 {fill:#ea700d;font-family:Calibri;font-size:1.00001em}
		.st23 {fill:#ea700d;stroke:#ea700d;stroke-linecap:butt;stroke-width:0.25}
		.st24 {fill:#ffffff;stroke:none;stroke-linecap:round;stroke-linejoin:round;stroke-width:0.749999}
		.st25 {fill:#d8d8d8;stroke:#000000;stroke-linecap:round;stroke-linejoin:round;stroke-width:0.749999}
		.st26 {fill:#000000;font-family:Calibri;font-size:1.00001em;font-weight:bold}
		.st27 {marker-end:url(#mrkr11-125);stroke:#000000;stroke-linecap:round;stroke-linejoin:round;stroke-width:0.749999}
		.st28 {fill:#ea700d;stroke:#ea700d;stroke-linecap:butt;stroke-width:0.749999}
		.st29 {fill:#000000;font-family:Calibri;font-size:0.833336em}
		.st30 {marker-end:url(#mrkr13-171);stroke:#ea700d;stroke-linecap:round;stroke-linejoin:round;stroke-width:0.749999}
		.st31 {fill:#ea700d;fill-opacity:1;stroke:#ea700d;stroke-opacity:1;stroke-width:0.22935755323873}
		.st32 {marker-end:url(#mrkr1-185);stroke:#7f7f7f;stroke-linecap:round;stroke-linejoin:round;stroke-opacity:0.7;stroke-width:3}
		.st33 {fill:#7f7f7f;fill-opacity:0.7;stroke:#7f7f7f;stroke-opacity:0.7;stroke-width:0.54347791706381}
		.st34 {stroke:#000000;stroke-linecap:round;stroke-linejoin:round;stroke-width:0.749999}
		.st35 {stroke:#000000;stroke-dasharray:0.749999,1.5;stroke-linecap:round;stroke-linejoin:round;stroke-width:0.749999}
		.st36 {fill:#000000;font-family:Calibri;font-size:0.499992em}
		.st37 {baseline-shift:-32.4949%;font-size:0.649897em}
		.st38 {fill:none;stroke:none;stroke-linecap:round;stroke-linejoin:round;stroke-width:0.24}
		.st39 {fill:#000000;font-family:Calibri;font-size:0.666664em}
		.st40 {font-size:1em;font-weight:bold}
		.st41 {fill:none;fill-rule:evenodd;font-size:12px;overflow:visible;stroke-linecap:square;stroke-miterlimit:3}
	]]>
	</style>

	<defs id="Markers">
		<g id="lend10">
			<path
					d="M 0 0.75 C -0.414214 0.75 -0.75 0.414214 -0.75 0 -0.75 -0.414214 -0.414214 -0.75 0 -0.75 0.414214 -0.75 0.75 -0.414214 0.75 0 0.75 0.414214 0.414214 0.75 0 0.75 Z "
					style="stroke:none"/>
		</g>
		<marker id="mrkr10-22" class="st10" v:arrowType="10" v:arrowSize="2" v:setback="0" refX="0" orient="auto"
				markerUnits="strokeWidth" overflow="visible">
			<use xlink:href="#lend10" transform="scale(4.360004655958) "/>
		</marker>
		<g id="lend1">
			<path d="M 1 -1 L 0 0 L 1 1 " style="stroke-linecap:round;stroke-linejoin:round;fill:none"/>
		</g>
		<marker id="mrkr1-24" class="st10" v:arrowType="1" v:arrowSize="2" orient="auto" markerUnits="strokeWidth"
				overflow="visible">
			<use xlink:href="#lend1" transform="scale(-4.360004655958,-4.360004655958) "/>
		</marker>
		<g id="lend13">
			<path d="M 3 1 L 0 0 L 3 -1 L 3 1 " style="stroke:none"/>
		</g>
		<marker id="mrkr13-38" class="st13" v:arrowType="13" v:arrowSize="2" v:setback="0" refX="-0" orient="auto"
				markerUnits="strokeWidth" overflow="visible">
			<use xlink:href="#lend13" transform="scale(-3.5200034919685,-3.5200034919685) "/>
		</marker>
		<marker id="mrkr13-69" class="st16" v:arrowType="13" v:arrowSize="2" v:setback="0" refX="-0" orient="auto"
				markerUnits="strokeWidth" overflow="visible">
			<use xlink:href="#lend13" transform="scale(-2.680002327979,-2.680002327979) "/>
		</marker>
		<marker id="mrkr13-75" class="st18" v:arrowType="13" v:arrowSize="2" v:setback="0" refX="-0" orient="auto"
				markerUnits="strokeWidth" overflow="visible">
			<use xlink:href="#lend13" transform="scale(-2.680002327979,-2.680002327979) "/>
		</marker>
		<g id="lend11">
			<path d="M 0.75 -0.75 L 0.75 0.75 L -0.75 0.75 L -0.75 -0.75 L 0.75 -0.75 " style="stroke:none"/>
		</g>
		<marker id="mrkr11-125" class="st10" v:arrowType="11" v:arrowSize="2" v:setback="0" refX="-0" orient="auto"
				markerUnits="strokeWidth" overflow="visible">
			<use xlink:href="#lend11" transform="scale(-4.360004655958,-4.360004655958) "/>
		</marker>
		<marker id="mrkr13-171" class="st31" v:arrowType="13" v:arrowSize="2" v:setback="0" refX="-0" orient="auto"
				markerUnits="strokeWidth" overflow="visible">
			<use xlink:href="#lend13" transform="scale(-4.360004655958,-4.360004655958) "/>
		</marker>
		<marker id="mrkr1-185" class="st33" v:arrowType="1" v:arrowSize="2" orient="auto" markerUnits="strokeWidth"
				overflow="visible">
			<use xlink:href="#lend1" transform="scale(-1.8400011639895,-1.8400011639895) "/>
		</marker>
	</defs>
	<g v:mID="0" v:index="1" v:groupContext="foregroundPage">
		<title>Page-1</title>
		<v:pageProperties v:drawingScale="0.0393701" v:pageScale="0.0393701" v:drawingUnits="24" v:shadowOffsetX="8.50393"
				v:shadowOffsetY="-8.50393"/>
		<g id="shape1-1" v:mID="1" v:groupContext="shape" transform="translate(125.978,-0.749999)">
			<title>Sheet.1</title>
			<desc>WDTx*</desc>
			<v:userDefs/>
			<v:textBlock v:margins="rect(0,3.99999,3.99999,3.99999)" v:tabSpace="42.5196" v:verticalAlign="0"/>
			<v:textRect cx="243.213" cy="141.71" width="486.43" height="257.953"/>
			<rect x="0" y="12.7331" width="486.424" height="257.953" class="st1"/>
			<text x="429.8" y="28.93" class="st2" v:langID="1031"><v:paragraph v:horizAlign="2"/><v:tabList/>WDTx*</text>		</g>
		<g id="shape2-4" v:mID="2" v:groupContext="shape" transform="translate(98.4805,-251.195)">
			<title>Sheet.2</title>
			<path d="M0 270.69 L430.4 270.69 L0 270.69 Z" class="st3"/>
			<path d="M0 270.69 L430.4 270.69" class="st4"/>
		</g>
		<g id="shape3-7" v:mID="3" v:groupContext="shape" transform="translate(203.626,-88.0984)">
			<title>Sheet.3</title>
			<desc>BusAPU</desc>
			<v:userDefs/>
			<v:textBlock v:margins="rect(0,0,0,0)" v:tabSpace="42.5196" v:verticalAlign="2"/>
			<v:textRect cx="38.9763" cy="216.119" width="77.96" height="109.134"/>
			<rect x="0" y="161.552" width="77.9527" height="109.134" class="st5"/>
			<text x="19.79" y="267.09" class="st6" v:langID="1031"><v:paragraph v:horizAlign="1"/><v:tabList/>BusAPU</text>		</g>
		<g id="shape4-10" v:mID="4" v:groupContext="shape" transform="translate(207.241,-180.785)">
			<title>Sheet.4</title>
			<desc>ACCEN_RDA</desc>
			<v:userDefs/>
			<v:textBlock v:margins="rect(0,0,0,0)" v:tabSpace="42.5196"/>
			<v:textRect cx="35.4331" cy="263.598" width="70.87" height="14.1732"/>
			<rect x="0" y="256.513" width="70.866" height="14.1732" class="st7"/>
			<text x="5.35" y="267.2" class="st6" v:langID="1031"><v:paragraph v:horizAlign="1"/><v:tabList/>ACCEN_RDA</text>		</g>
		<g id="shape5-13" v:mID="5" v:groupContext="shape" transform="translate(225.353,-209.484)">
			<title>Sheet.5</title>
			<desc>Gate</desc>
			<v:userDefs/>
			<v:textBlock v:margins="rect(3.99999,3.99999,3.99999,3.99999)" v:tabSpace="42.5196"/>
			<v:textRect cx="17.0079" cy="263.598" width="34.02" height="14.1732"/>
			<rect x="0" y="256.513" width="34.0157" height="14.1732" class="st8"/>
			<text x="5.35" y="267.2" class="st6" v:langID="1031"><v:paragraph v:horizAlign="1"/><v:tabList/>Gate</text>		</g>
		<g id="shape6-16" v:mID="6" v:groupContext="shape" transform="translate(512.326,19.4452) rotate(90)">
			<title>Sheet.6</title>
			<path d="M0 270.69 L2.09 270.69 L2.45 270.69 L27.68 270.69" class="st9"/>
		</g>
		<g id="shape7-25" v:mID="7" v:groupContext="shape" transform="translate(512.326,61.4273) rotate(90)">
			<title>Sheet.7</title>
			<path d="M0 270.69 L13.97 270.69" class="st11"/>
		</g>
		<g id="shape8-30" v:mID="8" v:groupContext="shape" transform="translate(207.241,-166.612)">
			<title>Sheet.8</title>
			<desc>ACCEN_RDB</desc>
			<v:userDefs/>
			<v:textBlock v:margins="rect(0,0,0,0)" v:tabSpace="42.5196"/>
			<v:textRect cx="35.4331" cy="263.598" width="70.87" height="14.1732"/>
			<rect x="0" y="256.513" width="70.866" height="14.1732" class="st7"/>
			<text x="5.56" y="267.2" class="st6" v:langID="1031"><v:paragraph v:horizAlign="1"/><v:tabList/>ACCEN_RDB</text>		</g>
		<g id="shape9-33" v:mID="9" v:groupContext="shape" transform="translate(281.21,-158.96) rotate(-0.0779577)">
			<title>Sheet.9</title>
			<path d="M0 270.69 L53 270.69 L63.56 270.69" class="st12"/>
		</g>
		<g id="shape10-39" v:mID="10" v:groupContext="shape" transform="translate(282.339,-188.811)">
			<title>Sheet.10</title>
			<path d="M0 270.69 L150.28 270.69 L160.84 270.69" class="st12"/>
		</g>
		<g id="shape11-44" v:mID="11" v:groupContext="shape" transform="translate(207.241,-153.573)">
			<title>Sheet.11</title>
			<desc>ACCEN_WRA</desc>
			<v:userDefs/>
			<v:textBlock v:margins="rect(0,0,0,0)" v:tabSpace="42.5196"/>
			<v:textRect cx="35.4331" cy="263.598" width="70.87" height="14.1732"/>
			<rect x="0" y="256.513" width="70.866" height="14.1732" class="st7"/>
			<text x="3.7" y="267.2" class="st6" v:langID="1031"><v:paragraph v:horizAlign="1"/><v:tabList/>ACCEN_WRA</text>		</g>
		<g id="shape12-47" v:mID="12" v:groupContext="shape" transform="translate(207.241,-139.4)">
			<title>Sheet.12</title>
			<desc>ACCEN_WRB</desc>
			<v:userDefs/>
			<v:textBlock v:margins="rect(0,0,0,0)" v:tabSpace="42.5196"/>
			<v:textRect cx="35.4331" cy="263.598" width="70.87" height="14.1732"/>
			<rect x="0" y="256.513" width="70.866" height="14.1732" class="st7"/>
			<text x="3.91" y="267.2" class="st6" v:langID="1031"><v:paragraph v:horizAlign="1"/><v:tabList/>ACCEN_WRB</text>		</g>
		<g id="shape13-50" v:mID="13" v:groupContext="shape" transform="translate(207.241,-125.226)">
			<title>Sheet.13</title>
			<desc>ACCEN_VM</desc>
			<v:userDefs/>
			<v:textBlock v:margins="rect(0,0,0,0)" v:tabSpace="42.5196"/>
			<v:textRect cx="35.4331" cy="263.598" width="70.87" height="14.1732"/>
			<rect x="0" y="256.513" width="70.866" height="14.1732" class="st7"/>
			<text x="7.24" y="267.2" class="st6" v:langID="1031"><v:paragraph v:horizAlign="1"/><v:tabList/>ACCEN_VM</text>		</g>
		<g id="shape14-53" v:mID="14" v:groupContext="shape" transform="translate(207.241,-111.053)">
			<title>Sheet.14</title>
			<desc>ACCEN_PRS</desc>
			<v:userDefs/>
			<v:textBlock v:margins="rect(0,0,0,0)" v:tabSpace="42.5196"/>
			<v:textRect cx="35.4331" cy="263.598" width="70.87" height="14.1732"/>
			<rect x="0" y="256.513" width="70.866" height="14.1732" class="st7"/>
			<text x="6.66" y="267.2" class="st6" v:langID="1031"><v:paragraph v:horizAlign="1"/><v:tabList/>ACCEN_PRS</text>		</g>
		<g id="shape15-56" v:mID="15" v:groupContext="shape" transform="translate(129.109,-188.032)">
			<title>Sheet.15</title>
			<rect x="0" y="217.022" width="51.0235" height="53.6632" class="st5"/>
		</g>
		<g id="shape16-58" v:mID="16" v:groupContext="shape" transform="translate(133.685,-209.792)">
			<title>Sheet.16</title>
			<desc>PROT</desc>
			<v:userDefs/>
			<v:textBlock v:margins="rect(3.99999,3.99999,3.99999,3.99999)" v:tabSpace="42.5196"/>
			<v:textRect cx="21.2598" cy="263.598" width="42.52" height="14.1732"/>
			<rect x="0" y="256.513" width="42.5196" height="14.1732" class="st7"/>
			<text x="4" y="267.2" class="st6" v:langID="1031"><v:paragraph/><v:tabList/>PROT</text>		</g>
		<g id="shape17-61" v:mID="17" v:groupContext="shape" transform="translate(146.59,-224.472)">
			<title>Sheet.17</title>
			<desc>G</desc>
			<v:userDefs/>
			<v:textBlock v:margins="rect(0,0,0,0)" v:tabSpace="42.5196"/>
			<v:textRect cx="8.03149" cy="265.724" width="16.07" height="9.92125"/>
			<rect x="0" y="260.764" width="16.063" height="9.92125" class="st14"/>
			<text x="4.25" y="269.32" class="st6" v:langID="1031"><v:paragraph v:horizAlign="1"/><v:tabList/>G</text>		</g>
		<g id="shape18-64" v:mID="18" v:groupContext="shape" transform="translate(176.205,-219.284)">
			<title>Sheet.18</title>
			<path d="M0 270.69 L37.22 270.69 L49.28 270.69" class="st15"/>
		</g>
		<g id="shape19-70" v:mID="19" v:groupContext="shape" transform="translate(176.205,-214.748)">
			<title>Sheet.19</title>
			<path d="M0 270.69 L37.08 270.69 L49.14 270.69" class="st17"/>
		</g>
		<g id="shape20-76" v:mID="20" v:groupContext="shape" transform="translate(180.729,-223.837)">
			<title>Sheet.20</title>
			<desc>y* owner</desc>
			<v:userDefs/>
			<v:textBlock v:margins="rect(0,0,0,0)" v:tabSpace="42.5196"/>
			<v:textRect cx="17.0079" cy="263.315" width="34.02" height="14.7402"/>
			<rect x="0" y="255.946" width="34.0157" height="14.7402" class="st19"/>
			<text x="11.3" y="260.32" class="st20" v:langID="1031"><v:paragraph v:spLine="-1" v:horizAlign="1"/><v:tabList/>y*<v:newlineChar/><tspan
						x="1.33" dy="1em" class="st21">owner</tspan></text>		</g>
		<g id="shape21-80" v:mID="21" v:groupContext="shape" transform="translate(180.729,-204.469)">
			<title>Sheet.21</title>
			<desc>y*</desc>
			<v:userDefs/>
			<v:textBlock v:margins="rect(0,0,0,0)" v:tabSpace="42.5196"/>
			<v:textRect cx="16.986" cy="266.619" width="33.98" height="8.13385"/>
			<rect x="0" y="262.552" width="33.972" height="8.13385" class="st19"/>
			<text x="11.28" y="270.22" class="st22" v:langID="1031"><v:paragraph v:horizAlign="1"/><v:tabList/>y*</text>		</g>
		<g id="shape22-83" v:mID="22" v:groupContext="shape" transform="translate(165.638,-211.663)">
			<title>Lock.774</title>
			<v:userDefs>
				<v:ud v:nameU="msvShapeCategories" v:prompt="" v:val="VT4(Icon)"/>
				<v:ud v:nameU="visVersion" v:prompt="" v:val="VT0(15):26"/>
			</v:userDefs>
			<path d="M5.38 266.43 C5.38 266.75 5.19 267.02 4.91 267.15 L5.12 268.78 L4.06 268.78 L4.26 267.15 C3.99 267.02 3.79 266.75
						 3.79 266.43 C3.79 266 4.15 265.65 4.59 265.65 C5.02 265.65 5.38 266 5.38 266.43 ZM8.47 269.64 L8.47 264.78
						 C8.47 264.59 8.31 264.44 8.11 264.44 L1.06 264.44 C0.86 264.44 0.71 264.59 0.71 264.78 L0.71 269.64 C0.71
						 269.84 0.86 269.99 1.06 269.99 L8.11 269.99 C8.31 269.99 8.47 269.84 8.47 269.64 ZM5.64 262.47 C5.62 262.02
						 5.14 261.66 4.59 261.66 C4.02 261.66 3.56 262.04 3.53 262.54 L3.53 263.74 L5.64 263.74 L5.64 262.47 ZM2.12
						 262.43 C2.12 262.43 2.12 263.05 2.12 263.74 L2.82 263.74 C2.82 263.06 2.82 262.43 2.82 262.43 L2.83 262.5
						 C2.87 261.64 3.64 260.96 4.59 260.96 C5.53 260.96 6.3 261.63 6.35 262.43 C6.35 262.43 6.35 263.06 6.35 263.74
						 L7.06 263.74 C7.06 263.05 7.06 262.43 7.06 262.43 C6.99 261.23 5.9 260.27 4.59 260.27 C3.27 260.27 2.19
						 261.23 2.12 262.47 L2.12 262.43 ZM8.11 263.74 C8.7 263.74 9.17 264.21 9.17 264.78 L9.17 269.64 C9.17 270.22
						 8.7 270.69 8.11 270.69 L1.06 270.69 C0.47 270.69 0 270.22 0 269.64 L0 264.78 C0 264.21 0.47 263.74 1.06
						 263.74 L1.41 263.74 L1.41 262.43 L1.42 262.43 C1.5 260.84 2.88 259.57 4.59 259.57 C6.29 259.57 7.67 260.84
						 7.75 262.43 L7.76 262.43 L7.76 263.74 L8.11 263.74 Z" class="st23"/>
		</g>
		<g id="shape23-85" v:mID="23" v:groupContext="shape" transform="translate(425.303,19.4845) rotate(90)">
			<title>Sheet.23</title>
			<path d="M0 270.69 L2.09 270.69 L2.45 270.69 L9.37 270.69" class="st9"/>
		</g>
		<g id="shape24-92" v:mID="24" v:groupContext="shape" transform="translate(131.944,-190.671)">
			<title>Sheet.24</title>
			<desc>PROTy*</desc>
			<v:userDefs/>
			<v:textBlock v:margins="rect(0,0,0,0)" v:tabSpace="42.5196"/>
			<v:textRect cx="22.6772" cy="263.598" width="45.36" height="14.1732"/>
			<rect x="0" y="256.513" width="45.3542" height="14.1732" class="st24"/>
			<text x="3.72" y="267.2" class="st6" v:langID="1031"><v:paragraph v:horizAlign="1"/><v:tabList/>PROTy*</text>		</g>
		<g id="shape25-95" v:mID="25" v:groupContext="shape" transform="translate(162.653,-219.284)">
			<title>Sheet.25</title>
			<path d="M16.06 270.69 L16.06 260.54 L12.06 260.54 L0 260.54" class="st15"/>
		</g>
		<g id="shape26-100" v:mID="26" v:groupContext="shape" transform="translate(373.704,-65.4211)">
			<title>Sheet.26</title>
			<desc>SMUFSP</desc>
			<v:userDefs/>
			<v:textBlock v:margins="rect(3.99999,3.99999,3.99999,3.99999)" v:tabSpace="42.5196"/>
			<v:textRect cx="49.6062" cy="263.598" width="99.22" height="14.1732"/>
			<rect x="0" y="256.513" width="99.2125" height="14.1732" class="st25"/>
			<text x="28.83" y="267.2" class="st26" v:langID="1031"><v:paragraph v:horizAlign="1"/><v:tabList/>SMUFSP</text>		</g>
		<g id="shape27-103" v:mID="27" v:groupContext="shape" transform="translate(379.077,-35.6582)">
			<title>Sheet.27</title>
			<desc>UR enable logic</desc>
			<v:userDefs/>
			<v:textBlock v:margins="rect(0,0,0,0)" v:tabSpace="42.5196"/>
			<v:textRect cx="42.8155" cy="258.913" width="85.64" height="23.5454"/>
			<rect x="0" y="247.14" width="85.6312" height="23.5454" class="st5"/>
			<text x="5.19" y="262.51" class="st6" v:langID="1031"><v:paragraph v:horizAlign="1"/><v:tabList/>UR enable logic</text>		</g>
		<g id="shape28-106" v:mID="28" v:groupContext="shape" transform="translate(693.708,205.265) rotate(90)">
			<title>Sheet.28</title>
			<path d="M0 270.69 L6.22 270.69" class="st11"/>
		</g>
		<g id="shape29-111" v:mID="29" v:groupContext="shape" transform="translate(498.428,-10.7137)">
			<title>Sheet.29</title>
			<desc>Timer logic</desc>
			<v:userDefs/>
			<v:textBlock v:margins="rect(0,0,0,0)" v:tabSpace="42.5196" v:verticalAlign="2"/>
			<v:textRect cx="52.4408" cy="211.889" width="104.89" height="117.596"/>
			<rect x="0" y="153.09" width="104.882" height="117.596" class="st5"/>
			<text x="25.63" y="267.09" class="st6" v:langID="1031"><v:paragraph v:horizAlign="1"/><v:tabList/>Timer logic</text>		</g>
		<g id="shape30-114" v:mID="30" v:groupContext="shape" transform="translate(443.174,-183.629)">
			<title>Sheet.30</title>
			<desc>Read-access gate</desc>
			<v:userDefs/>
			<v:textBlock v:margins="rect(3.99999,3.99999,3.99999,3.99999)" v:tabSpace="42.5196"/>
			<v:textRect cx="58.8079" cy="263.276" width="117.62" height="14.8172"/>
			<rect x="0" y="255.869" width="117.616" height="14.8172" class="st8"/>
			<text x="17.02" y="266.88" class="st6" v:langID="1031"><v:paragraph v:horizAlign="1"/><v:tabList/>Read-access gate</text>		</g>
		<g id="shape31-117" v:mID="31" v:groupContext="shape" transform="translate(345.134,-153.865)">
			<title>Sheet.31</title>
			<desc>Write-access gate</desc>
			<v:userDefs/>
			<v:textBlock v:margins="rect(3.99999,3.99999,3.99999,3.99999)" v:tabSpace="42.5196"/>
			<v:textRect cx="49.6062" cy="263.276" width="99.22" height="14.8172"/>
			<rect x="0" y="255.869" width="99.2125" height="14.8172" class="st8"/>
			<text x="6.29" y="266.88" class="st6" v:langID="1031"><v:paragraph v:horizAlign="1"/><v:tabList/>Write-access gate</text>		</g>
		<g id="shape32-120" v:mID="32" v:groupContext="shape" transform="translate(799.639,28.4803) rotate(90)">
			<title>Sheet.32</title>
			<path d="M0 270.69 L0.48 270.69 L2.93 270.69" class="st27"/>
		</g>
		<g id="shape33-126" v:mID="33" v:groupContext="shape" transform="translate(225.501,72.2398) rotate(-90)">
			<title>Sheet.33</title>
			<path d="M0 270.69 L52.51 270.69" class="st11"/>
		</g>
		<g id="shape34-131" v:mID="34" v:groupContext="shape" transform="translate(666.234,19.7287) rotate(90)">
			<title>Sheet.34</title>
			<path d="M0 270.69 L2.09 270.69 L2.45 270.69 L82.15 270.69" class="st9"/>
		</g>
		<g id="shape35-138" v:mID="35" v:groupContext="shape" transform="translate(372.888,-100.854)">
			<title>Sheet.35</title>
			<desc>CTRLA</desc>
			<v:userDefs/>
			<v:textBlock v:margins="rect(3.99999,3.99999,3.99999,3.99999)" v:tabSpace="42.5196"/>
			<v:textRect cx="49.6062" cy="263.598" width="99.22" height="14.1732"/>
			<rect x="0" y="256.513" width="99.2125" height="14.1732" class="st25"/>
			<text x="33.91" y="267.2" class="st26" v:langID="1031"><v:paragraph v:horizAlign="1"/><v:tabList/>CTRLA</text>		</g>
		<g id="shape36-141" v:mID="36" v:groupContext="shape" transform="translate(372.888,-86.6809)">
			<title>Sheet.36</title>
			<desc>CTRLB</desc>
			<v:userDefs/>
			<v:textBlock v:margins="rect(3.99999,3.99999,3.99999,3.99999)" v:tabSpace="42.5196"/>
			<v:textRect cx="49.6062" cy="263.598" width="99.22" height="14.1732"/>
			<rect x="0" y="256.513" width="99.2125" height="14.1732" class="st25"/>
			<text x="34.18" y="267.2" class="st26" v:langID="1031"><v:paragraph v:horizAlign="1"/><v:tabList/>CTRLB</text>		</g>
		<g id="shape37-144" v:mID="37" v:groupContext="shape" transform="translate(375.225,-102.381)">
			<title>Lock.89</title>
			<v:userDefs>
				<v:ud v:nameU="msvShapeCategories" v:prompt="" v:val="VT4(Icon)"/>
				<v:ud v:nameU="visVersion" v:prompt="" v:val="VT0(15):26"/>
			</v:userDefs>
			<path d="M5.38 266.43 C5.38 266.75 5.19 267.02 4.91 267.15 L5.12 268.78 L4.06 268.78 L4.26 267.15 C3.99 267.02 3.79 266.75
						 3.79 266.43 C3.79 266 4.15 265.65 4.59 265.65 C5.02 265.65 5.38 266 5.38 266.43 ZM8.47 269.64 L8.47 264.78
						 C8.47 264.59 8.31 264.44 8.11 264.44 L1.06 264.44 C0.86 264.44 0.71 264.59 0.71 264.78 L0.71 269.64 C0.71
						 269.84 0.86 269.99 1.06 269.99 L8.11 269.99 C8.31 269.99 8.47 269.84 8.47 269.64 ZM5.64 262.47 C5.62 262.02
						 5.14 261.66 4.59 261.66 C4.02 261.66 3.56 262.04 3.53 262.54 L3.53 263.74 L5.64 263.74 L5.64 262.47 ZM2.12
						 262.43 C2.12 262.43 2.12 263.05 2.12 263.74 L2.82 263.74 C2.82 263.06 2.82 262.43 2.82 262.43 L2.83 262.5
						 C2.87 261.64 3.64 260.96 4.59 260.96 C5.53 260.96 6.3 261.63 6.35 262.43 C6.35 262.43 6.35 263.06 6.35 263.74
						 L7.06 263.74 C7.06 263.05 7.06 262.43 7.06 262.43 C6.99 261.23 5.9 260.27 4.59 260.27 C3.27 260.27 2.19
						 261.23 2.12 262.47 L2.12 262.43 ZM8.11 263.74 C8.7 263.74 9.17 264.21 9.17 264.78 L9.17 269.64 C9.17 270.22
						 8.7 270.69 8.11 270.69 L1.06 270.69 C0.47 270.69 0 270.22 0 269.64 L0 264.78 C0 264.21 0.47 263.74 1.06
						 263.74 L1.41 263.74 L1.41 262.43 L1.42 262.43 C1.5 260.84 2.88 259.57 4.59 259.57 C6.29 259.57 7.67 260.84
						 7.75 262.43 L7.76 262.43 L7.76 263.74 L8.11 263.74 Z" class="st28"/>
		</g>
		<g id="shape38-146" v:mID="38" v:groupContext="shape" transform="translate(180.125,155.346) rotate(-90)">
			<title>Sheet.38</title>
			<path d="M0 270.69 L2.09 270.69 L2.45 270.69 L67.89 270.69" class="st9"/>
		</g>
		<g id="shape39-153" v:mID="39" v:groupContext="shape" transform="translate(666.234,116.818) rotate(90)">
			<title>Sheet.39</title>
			<path d="M0 270.69 L13.5 270.69" class="st11"/>
		</g>
		<g id="shape40-158" v:mID="40" v:groupContext="shape" transform="translate(799.639,19.2587) rotate(90)">
			<title>Sheet.40</title>
			<path d="M0 270.69 L9.61 270.69" class="st11"/>
		</g>
		<g id="shape41-163" v:mID="41" v:groupContext="shape" transform="translate(372.296,-125.519)">
			<title>Sheet.41</title>
			<desc>PW,LCK gate</desc>
			<v:userDefs/>
			<v:textBlock v:margins="rect(3.99999,3.99999,3.99999,3.99999)" v:tabSpace="42.5196"/>
			<v:textRect cx="30.4676" cy="263.276" width="60.94" height="14.8172"/>
			<rect x="0" y="255.869" width="60.9351" height="14.8172" class="st8"/>
			<text x="4.78" y="266.28" class="st29" v:langID="1031"><v:paragraph v:horizAlign="1"/><v:tabList/>PW,LCK gate</text>		</g>
		<g id="shape42-166" v:mID="42" v:groupContext="shape" transform="translate(374.305,-107.087) scale(-1,1)">
			<title>Sheet.42</title>
			<path d="M1.32 270.69 L9.78 270.69 L18.43 270.69 L18.43 244.85 L9.81 244.85 L0 244.85" class="st30"/>
		</g>
		<g id="shape43-172" v:mID="43" v:groupContext="shape" transform="translate(660.259,145.318) rotate(90)">
			<title>Sheet.43</title>
			<path d="M0 270.69 L10.28 270.69" class="st11"/>
		</g>
		<g id="shape44-177" v:mID="44" v:groupContext="shape" transform="translate(501.178,-86.6809)">
			<title>Sheet.44</title>
			<desc>STAT</desc>
			<v:userDefs/>
			<v:textBlock v:margins="rect(3.99999,3.99999,3.99999,3.99999)" v:tabSpace="42.5196"/>
			<v:textRect cx="49.6062" cy="263.598" width="99.22" height="14.1732"/>
			<rect x="0" y="256.513" width="99.2125" height="14.1732" class="st25"/>
			<text x="37.19" y="267.2" class="st26" v:langID="1031"><v:paragraph v:horizAlign="1"/><v:tabList/>STAT</text>		</g>
		<g id="shape45-180" v:mID="45" v:groupContext="shape" transform="translate(472.1,-94.0621)">
			<title>Sheet.45</title>
			<path d="M0 270.69 L28.89 270.69" class="st32"/>
		</g>
		<g id="shape46-186" v:mID="46" v:groupContext="shape" transform="translate(521.105,-31.9311)">
			<title>Sheet.46</title>
			<rect x="0" y="224.44" width="62.929" height="46.246" class="st8"/>
		</g>
		<g id="shape47-188" v:mID="47" v:groupContext="shape" transform="translate(525.191,-35.2305)">
			<title>Sheet.47</title>
			<path d="M0 270.69 L41.21 237.93 L41.21 261.33 L52.98 251.97 L0 270.69 Z" class="st3"/>
			<path d="M0 270.69 L41.21 237.93 L41.21 261.33 L52.98 251.97" class="st34"/>
		</g>
		<g id="shape48-191" v:mID="48" v:groupContext="shape" transform="translate(472.389,-37.142) rotate(-15)">
			<title>Sheet.48</title>
			<path d="M0 265.99 L5.78 265.99 L1.49 270.69 L0 265.99 Z" class="st3"/>
			<path d="M0 265.99 L5.78 265.99 L1.49 270.69" class="st34"/>
		</g>
		<g id="shape49-194" v:mID="49" v:groupContext="shape" transform="translate(525.755,-73.2182)">
			<title>Sheet.49</title>
			<path d="M0 270.69 L52.56 270.69 L0 270.69 Z" class="st3"/>
			<path d="M0 270.69 L52.56 270.69" class="st35"/>
		</g>
		<g id="shape50-197" v:mID="50" v:groupContext="shape" transform="translate(281.605,169.698) rotate(-90)">
			<title>Sheet.50</title>
			<path d="M0 270.69 L2.09 270.69 L2.45 270.69 L82.44 270.69" class="st9"/>
		</g>
		<g id="shape51-204" v:mID="51" v:groupContext="shape" transform="translate(567.078,-64.7796)">
			<title>Sheet.51</title>
			<desc>FFFFH</desc>
			<v:userDefs/>
			<v:textBlock v:margins="rect(0,0,0,0)" v:tabSpace="42.5196"/>
			<v:textRect cx="7.60214" cy="267.455" width="15.21" height="6.46082"/>
			<rect x="0" y="264.225" width="15.2043" height="6.46082" class="st19"/>
			<text x="0.87" y="269.25" class="st36" v:langID="1031"><v:paragraph v:horizAlign="1"/><v:tabList/>FFFF<tspan
						dy="-0.284em" class="st37" v:baseFontSize="5.99999">H</tspan></text>		</g>
		<g id="shape52-208" v:mID="52" v:groupContext="shape" transform="translate(559.089,-44.4101)">
			<title>Sheet.52</title>
			<path d="M0 270.69 L19.96 270.69 L0 270.69 Z" class="st3"/>
			<path d="M0 270.69 L19.96 270.69" class="st35"/>
		</g>
		<g id="shape53-211" v:mID="53" v:groupContext="shape" transform="translate(567.078,-35.6378)">
			<title>Sheet.53</title>
			<desc>TIMR</desc>
			<v:userDefs/>
			<v:textBlock v:margins="rect(0,0,0,0)" v:tabSpace="42.5196"/>
			<v:textRect cx="7.60214" cy="267.455" width="15.21" height="6.46082"/>
			<rect x="0" y="264.225" width="15.2043" height="6.46082" class="st19"/>
			<text x="1.19" y="269.25" class="st36" v:langID="1031"><v:paragraph v:horizAlign="1"/><v:tabList/>TIMR</text>		</g>
		<g id="shape54-214" v:mID="54" v:groupContext="shape" transform="translate(502.312,-37.5964) rotate(-15)">
			<title>Sheet.54</title>
			<path d="M0 265.99 L5.78 265.99 L1.49 270.69 L0 265.99 Z" class="st3"/>
			<path d="M0 265.99 L5.78 265.99 L1.49 270.69" class="st34"/>
		</g>
		<g id="shape55-217" v:mID="55" v:groupContext="shape" transform="translate(505.515,-106.525)">
			<title>Sheet.55</title>
			<desc>PW incr</desc>
			<v:userDefs/>
			<v:textBlock v:margins="rect(0,0,0,0)" v:tabSpace="42.5196"/>
			<v:textRect cx="18.4252" cy="265.13" width="36.86" height="11.1114"/>
			<rect x="0" y="259.574" width="36.8503" height="11.1114" class="st8"/>
			<text x="2.63" y="267.63" class="st29" v:langID="1031"><v:paragraph v:spLine="-1" v:horizAlign="1"/><v:tabList/>PW incr</text>		</g>
		<g id="shape56-220" v:mID="56" v:groupContext="shape" transform="translate(498.699,437.678) rotate(180)">
			<title>Sheet.56</title>
			<path d="M0 270.69 L26.29 270.69" class="st11"/>
		</g>
		<g id="shape57-225" v:mID="57" v:groupContext="shape" transform="translate(52.8008,-241.695)">
			<title>Side brace.114</title>
			<desc>SPB i/f</desc>
			<v:userDefs/>
			<v:textBlock v:margins="rect(0,0,0,0)" v:tabSpace="42.5196"/>
			<v:textRect cx="24.9658" cy="260.68" width="49.94" height="20.0124"/>
			<rect x="0" y="250.673" width="49.9315" height="20.0124" class="st38"/>
			<text x="8.96" y="264.28" class="st6" v:langID="1031"><v:paragraph v:horizAlign="1"/><v:tabList/>SPB i/f</text>		</g>
		<g id="shape58-228" v:mID="58" v:groupContext="shape" transform="translate(0.12,-50.8825)">
			<title>Side brace.115</title>
			<desc>SMU_SAFE_RUN_STATE[3:0]</desc>
			<v:userDefs/>
			<v:textBlock v:margins="rect(0,0,0,0)" v:tabSpace="42.5196"/>
			<v:textRect cx="92.0657" cy="260.68" width="184.14" height="20.0124"/>
			<rect x="0" y="250.673" width="184.132" height="20.0124" class="st38"/>
			<text x="10.85" y="264.28" class="st6" v:langID="1031"><v:paragraph/><v:tabList/>SAFE_RUN_STATE[3:0]</text>		</g>
		<g id="shape59-231" v:mID="59" v:groupContext="shape" transform="translate(455.908,-48.0921)">
			<title>Side brace.116</title>
			<desc>UR_en</desc>
			<v:userDefs/>
			<v:textBlock v:margins="rect(0,0,0,0)" v:tabSpace="42.5196"/>
			<v:textRect cx="24.9658" cy="265.13" width="49.94" height="11.1114"/>
			<rect x="0" y="259.574" width="49.9315" height="11.1114" class="st38"/>
			<text x="11.44" y="268.13" class="st29" v:langID="1031"><v:paragraph v:horizAlign="1"/><v:tabList/>UR_en</text>		</g>
		<g id="shape60-234" v:mID="60" v:groupContext="shape" transform="translate(476.459,-112.648)">
			<title>Side brace.117</title>
			<desc>LCK</desc>
			<v:userDefs/>
			<v:textBlock v:margins="rect(0,0,0,0)" v:tabSpace="42.5196"/>
			<v:textRect cx="9.21259" cy="265.13" width="18.43" height="11.1114"/>
			<rect x="0" y="259.574" width="18.4252" height="11.1114" class="st38"/>
			<text x="1.85" y="268.13" class="st29" v:langID="1031"><v:paragraph v:horizAlign="1"/><v:tabList/>LCK</text>		</g>
		<g id="shape61-237" v:mID="61" v:groupContext="shape" transform="translate(477.168,-102.386)">
			<title>Side brace.118</title>
			<desc>PW</desc>
			<v:userDefs/>
			<v:textBlock v:margins="rect(0,0,0,0)" v:tabSpace="42.5196"/>
			<v:textRect cx="9.21259" cy="265.13" width="18.43" height="11.1114"/>
			<rect x="0" y="259.574" width="18.4252" height="11.1114" class="st38"/>
			<text x="2.18" y="268.13" class="st29" v:langID="1031"><v:paragraph v:horizAlign="1"/><v:tabList/>PW</text>		</g>
		<g id="shape62-240" v:mID="62" v:groupContext="shape" transform="translate(471.519,-92.8766)">
			<title>Side brace.119</title>
			<desc>CFG</desc>
			<v:userDefs/>
			<v:textBlock v:margins="rect(0,0,0,0)" v:tabSpace="42.5196"/>
			<v:textRect cx="14.1732" cy="265.13" width="28.35" height="11.1114"/>
			<rect x="0" y="259.574" width="28.3465" height="11.1114" class="st38"/>
			<text x="6.06" y="268.13" class="st29" v:langID="1031"><v:paragraph v:horizAlign="1"/><v:tabList/>CFG</text>		</g>
		<g id="shape63-243" v:mID="63" v:groupContext="shape" transform="translate(600.487,-87.7283)">
			<title>Sheet.63</title>
			<path d="M0 270.69 L11.92 270.69" class="st11"/>
		</g>
		<g id="shape64-248" v:mID="64" v:groupContext="shape" transform="translate(612.402,-79.2281)">
			<title>Side brace.121</title>
			<desc>Alarm to SMU</desc>
			<v:userDefs/>
			<v:textBlock v:margins="rect(0,0,0,0)" v:tabSpace="42.5196"/>
			<v:textRect cx="36.3043" cy="263.276" width="72.61" height="14.8172"/>
			<rect x="0" y="255.869" width="72.6087" height="14.8172" class="st38"/>
			<text x="2.07" y="266.88" class="st6" v:langID="1031"><v:paragraph v:horizAlign="1"/><v:tabList/>Alarm to SMU</text>		</g>
		<g id="shape65-251" v:mID="65" v:groupContext="shape" transform="translate(508.349,-259.454)">
			<title>Side brace.122</title>
			<desc>*x = CPU0, …, CPU5, SEC, SYS</desc>
			<v:userDefs/>
			<v:textBlock v:margins="rect(3.99999,3.99999,3.99999,3.99999)" v:tabSpace="42.5196"/>
			<v:textRect cx="54.5668" cy="265.13" width="109.14" height="11.1114"/>
			<rect x="0" y="259.574" width="109.134" height="11.1114" class="st38"/>
			<text x="7.54" y="267.53" class="st39" v:langID="1031"><v:paragraph v:horizAlign="1"/><v:tabList/>*x = CPU0, …, CPU5, SEC, SYS</text>		</g>
		<g id="shape66-254" v:mID="66" v:groupContext="shape" transform="translate(498.145,-213.251)">
			<title>Side brace.123</title>
			<desc>(BusError on write-access to STAT)</desc>
			<v:userDefs/>
			<v:textBlock v:margins="rect(0,0,0,0)" v:tabSpace="42.5196"/>
			<v:textRect cx="35.4331" cy="257.768" width="70.87" height="25.8366"/>
			<rect x="0" y="244.849" width="70.866" height="25.8366" class="st38"/>
			<text x="15.02" y="255.37" class="st39" v:langID="1031"><v:paragraph v:horizAlign="1"/><v:tabList/>(BusError on<v:newlineChar/><tspan
						x="0.77" dy="1.2em" class="st21">write</tspan>-access to STAT)</text>		</g>
		<g id="shape67-258" v:mID="67" v:groupContext="shape" transform="translate(125.978,-42.7401)">
			<title>Sheet.67</title>
			<path d="M0 270.69 L252.55 270.69" class="st11"/>
		</g>
		<g id="shape68-263" v:mID="68" v:groupContext="shape" transform="translate(2.67117,-36.6804)">
			<title>Side brace.125</title>
			<desc>SMU_CS_RUN_STATE</desc>
			<v:userDefs/>
			<v:textBlock v:margins="rect(0,0,0,0)" v:tabSpace="42.5196"/>
			<v:textRect cx="73.0739" cy="260.68" width="146.16" height="20.0124"/>
			<rect x="0" y="250.673" width="146.148" height="20.0124" class="st38"/>
			<text x="27.13" y="264.28" class="st6" v:langID="1031"><v:paragraph/><v:tabList/>CS_RUN_STATE</text>		</g>
		<g id="shape69-266" v:mID="69" v:groupContext="shape" transform="translate(125.978,-53.6333)">
			<title>Sheet.69</title>
			<path d="M0 270.69 L252.55 270.69" class="st11"/>
		</g>
		<g id="shape70-271" v:mID="70" v:groupContext="shape" transform="translate(711.283,116.821) rotate(90)">
			<title>Sheet.70</title>
			<path d="M0 270.69 L74.84 270.69" class="st11"/>
		</g>
		<g id="shape71-276" v:mID="71" v:groupContext="shape" transform="translate(196.566,191.093) rotate(-90)">
			<title>Sheet.71</title>
			<path d="M0 270.69 L2.09 270.69 L2.45 270.69 L103.56 270.69" class="st9"/>
		</g>
		<g id="shape72-283" v:mID="72" v:groupContext="shape" transform="translate(118.586,-259.171)">
			<title>Side brace.129</title>
			<desc>*y = CSE for WDTSEC, SE for other WDTs</desc>
			<v:userDefs/>
			<v:textBlock v:margins="rect(3.99999,3.99999,3.99999,3.99999)" v:tabSpace="42.5196"/>
			<v:textRect cx="70.866" cy="265.13" width="141.74" height="11.1114"/>
			<rect x="0" y="259.574" width="141.732" height="11.1114" class="st38"/>
			<text x="5.23" y="267.53" class="st39" v:langID="1031"><v:paragraph v:horizAlign="1"/><v:tabList/>*y = <tspan
						class="st40">CSE</tspan> for WDTSEC, <tspan class="st40">SE</tspan> for other WDTs</text>		</g>
		<g id="shape73-288" v:mID="73" v:groupContext="shape" transform="translate(464.412,-46.9921)">
			<title>Sheet.73</title>
			<path d="M0 270.69 L34.2 270.69" class="st11"/>
		</g>
		<g id="shape74-293" v:mID="74" v:groupContext="shape" transform="translate(31.7481,-26.7023)">
			<title>Side brace.130</title>
			<desc>OCDS_WDTSUS</desc>
			<v:userDefs/>
			<v:textBlock v:margins="rect(0,0,0,0)" v:tabSpace="42.5196"/>
			<v:textRect cx="60.3779" cy="266.321" width="120.76" height="8.73059"/>
			<rect x="0" y="261.955" width="120.756" height="8.73059" class="st38"/>
			<text x="-0" y="269.92" class="st6" v:langID="1031"><v:paragraph/><v:tabList/>OCDS_WDTSUS</text>		</g>
		<g id="shape75-296" v:mID="75" v:groupContext="shape" transform="translate(125.084,-27.1496)">
			<title>Sheet.75</title>
			<path d="M0 270.69 L373.34 270.69" class="st11"/>
		</g>
		<g id="shape76-301" v:mID="76" v:groupContext="shape" transform="translate(472.1,-113.606)">
			<title>Sheet.76</title>
			<path d="M0 270.69 L26.52 270.69" class="st11"/>
		</g>
		<g id="shape77-306" v:mID="77" v:groupContext="shape" transform="translate(20.9765,-7.08645)">
			<title>Side brace.133</title>
			<desc>CPUxSUSOUT</desc>
			<v:userDefs/>
			<v:textBlock v:margins="rect(0,0,0,0)" v:tabSpace="42.5196"/>
			<v:textRect cx="60.3779" cy="260.68" width="120.76" height="20.0124"/>
			<rect x="0" y="250.673" width="120.756" height="20.0124" class="st38"/>
			<text x="18.99" y="264.28" class="st6" v:langID="1031"><v:paragraph/><v:tabList/>SUSOUT</text>		</g>
		<g id="shape78-309" v:mID="78" v:groupContext="shape" transform="translate(125.978,-15.8111)">
			<title>Sheet.78</title>
			<path d="M0 270.69 L372.97 270.69" class="st11"/>
		</g>
		<g id="shape79-314" v:mID="79" v:groupContext="shape" transform="translate(559.962,-106.525)">
			<title>Sheet.79</title>
			<desc>T-check</desc>
			<v:userDefs/>
			<v:textBlock v:margins="rect(0,0,0,0)" v:tabSpace="42.5196"/>
			<v:textRect cx="18.4252" cy="265.13" width="36.86" height="11.1114"/>
			<rect x="0" y="259.574" width="36.8503" height="11.1114" class="st8"/>
			<text x="2.84" y="267.63" class="st29" v:langID="1031"><v:paragraph v:spLine="-1" v:horizAlign="1"/><v:tabList/>T-check</text>		</g>
		<g id="shape80-317" v:mID="80" v:groupContext="shape" transform="translate(444.003,-125.519)">
			<title>Sheet.80</title>
			<desc>~</desc>
			<v:userDefs/>
			<v:textBlock v:margins="rect(3.99999,3.99999,3.99999,3.99999)" v:tabSpace="42.5196" v:verticalAlign="0"/>
			<v:textRect cx="6.51968" cy="263.298" width="13.04" height="14.773"/>
			<rect x="0" y="255.913" width="13.0394" height="14.773" class="st8"/>
			<text x="4.03" y="268.91" class="st29" v:langID="1031"><v:paragraph v:horizAlign="1"/><v:tabList/>~</text>		</g>
		<g id="shape81-320" v:mID="81" v:groupContext="shape" transform="translate(672.732,145.318) rotate(90)">
			<title>Sheet.81</title>
			<path d="M0 270.69 L24.8 270.69" class="st11"/>
		</g>
		<g id="shape82-325" v:mID="82" v:groupContext="shape" transform="translate(188.062,170.117) rotate(-90)">
			<title>Sheet.82</title>
			<path d="M0 270.69 L2.09 270.69 L2.45 270.69 L82.66 270.69" class="st9"/>
		</g>
		<g id="shape83-332" v:mID="83" v:groupContext="shape" transform="translate(475.042,-113.928)">
			<title>Sheet.83</title>
			<path d="M0 270.69 L0 261.09 L23.39 261.09" class="st11"/>
		</g>
		<g id="shape84-337" v:mID="84" v:groupContext="shape" transform="translate(476.459,-122.342)">
			<title>Side brace.144</title>
			<desc>TCVI</desc>
			<v:userDefs/>
			<v:textBlock v:margins="rect(0,0,0,0)" v:tabSpace="42.5196"/>
			<v:textRect cx="9.21259" cy="265.13" width="18.43" height="11.1114"/>
			<rect x="0" y="259.574" width="18.4252" height="11.1114" class="st38"/>
			<text x="0.01" y="268.13" class="st29" v:langID="1031"><v:paragraph v:horizAlign="1"/><v:tabList/>TCVI</text>		</g>
		<g id="shape85-340" v:mID="85" v:groupContext="shape" transform="translate(600.391,-99.0669)">
			<title>Sheet.85</title>
			<path d="M0 270.69 L12.01 270.69" class="st11"/>
		</g>
		<g id="shape86-345" v:mID="86" v:groupContext="shape" transform="translate(612.402,-93.0794)">
			<title>Side brace.146</title>
			<desc>CPU-Wakeup to SMM</desc>
			<v:userDefs/>
			<v:textBlock v:margins="rect(0,0,0,0)" v:tabSpace="42.5196"/>
			<v:textRect cx="54.5668" cy="263.276" width="109.14" height="14.8172"/>
			<rect x="0" y="255.869" width="109.134" height="14.8172" class="st38"/>
			<text x="1.45" y="266.88" class="st6" v:langID="1031"><v:paragraph v:horizAlign="1"/><v:tabList/>CPU-Wakeup to SMM</text>		</g>
	</g>
</svg>
