<?xml version="1.0" encoding="UTF-8" standalone="no"?>
<!DOCTYPE svg PUBLIC "-//W3C//DTD SVG 1.1//EN" "http://www.w3.org/Graphics/SVG/1.1/DTD/svg11.dtd">
<!-- Generated by Microsoft Visio, SVG Export TC4xx_TUC_ExtDevConfig.svg ExtDevConfig -->
<svg xmlns="http://www.w3.org/2000/svg" xmlns:xlink="http://www.w3.org/1999/xlink" xmlns:ev="http://www.w3.org/2001/xml-events"
		width="7.71654in" height="4.33071in" viewBox="0 0 555.591 311.811" xml:space="preserve" color-interpolation-filters="sRGB"
		class="st23">
	<style type="text/css">
	<![CDATA[
		.st1 {fill:none;stroke:none;stroke-linecap:round;stroke-linejoin:round;stroke-width:0.75}
		.st2 {fill:#d9d9d9;stroke:none;stroke-linecap:round;stroke-linejoin:round;stroke-width:0.75}
		.st3 {fill:#ffc000;stroke:none;stroke-linecap:round;stroke-linejoin:round;stroke-width:0.75}
		.st4 {stroke:none;stroke-linecap:round;stroke-linejoin:round;stroke-width:0.75}
		.st5 {fill:#000000;font-family:Verdana;font-size:0.801842em}
		.st6 {fill:#ffcc99;stroke:none;stroke-linecap:round;stroke-linejoin:round;stroke-width:0.75}
		.st7 {fill:#ff9933;stroke:none;stroke-linecap:round;stroke-linejoin:round;stroke-width:0.75}
		.st8 {fill:#c00000;stroke:#c00000;stroke-linecap:round;stroke-linejoin:round;stroke-width:0.0205794}
		.st9 {fill:#00b050;stroke:#00b050;stroke-linecap:round;stroke-linejoin:round;stroke-width:0.00514484}
		.st10 {fill:#0070c0;stroke:#0070c0;stroke-linecap:round;stroke-linejoin:round;stroke-width:0.00514484}
		.st11 {fill:#99ccff;stroke:none;stroke-linecap:round;stroke-linejoin:round;stroke-width:0.75}
		.st12 {stroke:#99ccff;stroke-linecap:round;stroke-linejoin:round;stroke-width:0.493905}
		.st13 {stroke:#00b050;stroke-linecap:round;stroke-linejoin:round;stroke-width:0.493905}
		.st14 {stroke:#0070c0;stroke-linecap:round;stroke-linejoin:round;stroke-width:0.493905}
		.st15 {fill:#0070c0;font-family:Verdana;font-size:0.568817em}
		.st16 {fill:#00b050;font-family:Verdana;font-size:0.568817em}
		.st17 {fill:#00b050;font-family:Verdana;font-size:0.801842em}
		.st18 {fill:#0070c0;font-family:Verdana;font-size:0.801842em}
		.st19 {fill:#00b050;stroke:#00b050;stroke-linecap:round;stroke-linejoin:round;stroke-width:0.0102897}
		.st20 {fill:#0070c0;stroke:#0070c0;stroke-linecap:round;stroke-linejoin:round;stroke-width:0.0102897}
		.st21 {fill:#00b050;stroke:#00b050;stroke-linecap:round;stroke-linejoin:round;stroke-width:0.0205794}
		.st22 {fill:#0070c0;stroke:#0070c0;stroke-linecap:round;stroke-linejoin:round;stroke-width:0.0205794}
		.st23 {fill:none;fill-rule:evenodd;font-size:12px;overflow:visible;stroke-linecap:square;stroke-miterlimit:3}
	]]>
	</style>

	<g>
		<title>ExtDevConfig</title>
		<g id="shape3-1" transform="translate(18,-83.5605)">
			<title>Sheet.3</title>
			<rect x="0" y="172.167" width="519.591" height="139.644" class="st1"/>
		</g>
		<g id="shape4-3" transform="translate(465.342,-102.789)">
			<title>Sheet.4</title>
			<path d="M0 198.44 C0 194.56 3.15 191.41 7.04 191.41 L58.89 191.41 C62.79 191.41 65.92 194.56 65.92 198.44 L65.92 304.8
						 C65.92 308.69 62.79 311.81 58.89 311.81 L7.04 311.81 C3.15 311.81 0 308.69 0 304.8 L0 198.44 Z"
					class="st2"/>
		</g>
		<g id="shape5-5" transform="translate(472.84,-110.52)">
			<title>Sheet.5</title>
			<path d="M0 206.79 L0 311.81 L50.76 311.81 L50.76 206.79 L0 206.79 L0 206.79 Z" class="st3"/>
		</g>
		<g id="shape6-7" transform="translate(485.701,-155.786)">
			<title>Sheet.6</title>
			<desc>CPU</desc>
			<path d="M26.39 300.26 L0 300.26 L0 311.81 L26.39 311.81 L26.39 300.26" class="st4"/>
			<text x="3.41" y="308.92" class="st5">CPU</text>		</g>
		<g id="shape7-11" transform="translate(488.344,-87.5945)">
			<title>Sheet.7</title>
			<desc>CPU</desc>
			<path d="M26.39 300.26 L0 300.26 L0 311.81 L26.39 311.81 L26.39 300.26" class="st4"/>
			<text x="3.41" y="308.92" class="st5">CPU</text>		</g>
		<g id="shape8-15" transform="translate(260.013,-133.464)">
			<title>Sheet.8</title>
			<path d="M0 265.14 C0 259.99 4.19 255.81 9.35 255.81 L57.8 255.81 C62.97 255.81 67.15 259.99 67.15 265.14 L67.15 302.48
						 C67.15 307.64 62.97 311.81 57.8 311.81 L9.35 311.81 C4.19 311.81 0 307.64 0 302.48 L0 265.14 Z"
					class="st2"/>
		</g>
		<g id="shape9-17" transform="translate(268.417,-142.675)">
			<title>Sheet.9</title>
			<path d="M0 272.67 L0 311.81 L51.17 311.81 L51.17 272.67 L0 272.67 L0 272.67 Z" class="st6"/>
		</g>
		<g id="shape10-19" transform="translate(363.996,-133.464)">
			<title>Sheet.10</title>
			<path d="M0 265.49 C0 260.37 4.16 256.22 9.29 256.22 L57.88 256.22 C63.01 256.22 67.15 260.37 67.15 265.49 L67.15 302.56
						 C67.15 307.68 63.01 311.81 57.88 311.81 L9.29 311.81 C4.16 311.81 0 307.68 0 302.56 L0 265.49 Z"
					class="st2"/>
		</g>
		<g id="shape11-21" transform="translate(371.906,-141.606)">
			<title>Sheet.11</title>
			<path d="M0 273.65 L0 311.81 L51.5 311.81 L51.5 273.65 L0 273.65 L0 273.65 Z" class="st7"/>
		</g>
		<g id="shape12-23" transform="translate(385.512,-153.432)">
			<title>Sheet.12</title>
			<desc>SPB</desc>
			<path d="M25.72 300.26 L0 300.26 L0 311.81 L25.72 311.81 L25.72 300.26" class="st4"/>
			<text x="3.37" y="308.92" class="st5">SPB</text>		</g>
		<g id="shape13-27" transform="translate(389.53,-119.916)">
			<title>Sheet.13</title>
			<desc>FPI</desc>
			<path d="M21.58 300.26 L0 300.26 L0 311.81 L21.58 311.81 L21.58 300.26" class="st4"/>
			<text x="3.1" y="308.92" class="st5">FPI</text>		</g>
		<g id="shape14-31" transform="translate(135.019,-134.78)">
			<title>Sheet.14</title>
			<path d="M0 265.49 C0 260.37 4.16 256.22 9.29 256.22 L81.36 256.22 C86.48 256.22 90.64 260.37 90.64 265.49 L90.64 302.55
						 C90.64 307.67 86.48 311.81 81.36 311.81 L9.29 311.81 C4.16 311.81 0 307.67 0 302.55 L0 265.49 Z"
					class="st2"/>
		</g>
		<g id="shape15-33" transform="translate(143.094,-142.922)">
			<title>Sheet.15</title>
			<path d="M0 272.91 L0 311.81 L73.99 311.81 L73.99 272.91 L0 272.91 L0 272.91 Z" class="st6"/>
		</g>
		<g id="shape16-35" transform="translate(153.182,-160.877)">
			<title>Sheet.16</title>
			<desc>Pa.b (RX)</desc>
			<path d="M56.47 300.26 L0 300.26 L0 311.81 L56.47 311.81 L56.47 300.26" class="st4"/>
			<text x="5" y="308.92" class="st5">Pa.b (RX)</text>		</g>
		<g id="shape17-39" transform="translate(153.346,-149.363)">
			<title>Sheet.17</title>
			<desc>Pa.c (TX)</desc>
			<path d="M56.22 300.26 L0 300.26 L0 311.81 L56.22 311.81 L56.22 300.26" class="st4"/>
			<text x="5.74" y="308.92" class="st5">Pa.c (TX)</text>		</g>
		<g id="shape18-43" transform="translate(165.321,-118.897)">
			<title>Sheet.18</title>
			<desc>PORT</desc>
			<path d="M33.79 300.26 L0 300.26 L0 311.81 L33.79 311.81 L33.79 300.26" class="st4"/>
			<text x="3.9" y="308.92" class="st5">PORT</text>		</g>
		<g id="shape19-47" transform="translate(279.352,-154.184)">
			<title>Sheet.19</title>
			<desc>QSPI</desc>
			<path d="M31.5 300.26 L0 300.26 L0 311.81 L31.5 311.81 L31.5 300.26" class="st4"/>
			<text x="3.75" y="308.92" class="st5">QSPI</text>		</g>
		<g id="shape20-51" transform="translate(280.032,-120.291)">
			<title>Sheet.20</title>
			<desc>QSPI</desc>
			<path d="M31.5 300.26 L0 300.26 L0 311.81 L31.5 311.81 L31.5 300.26" class="st4"/>
			<text x="3.75" y="308.92" class="st5">QSPI</text>		</g>
		<g id="shape21-55" transform="translate(422.703,-160.122)">
			<title>Sheet.21</title>
			<path d="M1.07 308.31 L48.26 308.35 L48.26 309.42 L1.07 309.38 L1.07 308.31 ZM4.92 311.7 L0 308.82 L4.92 305.98 C5.17
						 305.82 5.5 305.92 5.66 306.17 C5.81 306.42 5.73 306.74 5.46 306.91 L1.34 309.29 L1.34 308.37 L5.46 310.77
						 C5.71 310.92 5.81 311.25 5.64 311.51 C5.5 311.76 5.17 311.84 4.92 311.7 ZM44.41 306.03 L49.31 308.88 L44.41
						 311.74 C44.14 311.88 43.81 311.8 43.67 311.54 C43.53 311.29 43.61 310.96 43.88 310.82 L48 308.41 L48 309.34
						 L43.88 306.95 C43.61 306.79 43.53 306.46 43.69 306.21 C43.83 305.96 44.16 305.86 44.41 306.03 Z"
					class="st8"/>
		</g>
		<g id="shape22-57" transform="translate(92.2967,-168.63)">
			<title>Sheet.22</title>
			<path d="M0.01 309.56 L3.22 309.55 L3.21 308.48 L0 308.49 L0.01 309.56 ZM4.29 309.54 L7.5 309.53 L7.5 308.46 L4.28 308.47
						 L4.29 309.54 ZM8.57 309.53 L11.79 309.52 L11.78 308.45 L8.57 308.46 L8.57 309.53 ZM12.86 309.52 L16.07 309.51
						 L16.07 308.44 L12.85 308.45 L12.86 309.52 ZM17.14 309.51 L20.36 309.5 L20.35 308.43 L17.14 308.44 L17.14
						 309.51 ZM21.43 309.49 L24.64 309.48 L24.64 308.41 L21.42 308.42 L21.43 309.49 ZM25.71 309.48 L28.93 309.47
						 L28.92 308.4 L25.71 308.41 L25.71 309.48 ZM30 309.47 L33.21 309.45 L33.21 308.39 L29.99 308.4 L30 309.47
						 ZM34.28 309.45 L37.5 309.44 L37.49 308.37 L34.28 308.38 L34.28 309.45 ZM38.57 309.43 L41.78 309.42 L41.77
						 308.35 L38.56 308.37 L38.57 309.43 ZM42.85 309.42 L46.06 309.41 L46.06 308.34 L42.85 308.35 L42.85 309.42
						 ZM47.14 309.41 L50.3 309.4 L50.29 308.33 L47.13 308.34 L47.14 309.41 ZM46.45 311.74 L51.36 308.86 L46.44
						 306.02 C46.18 305.87 45.85 305.95 45.7 306.21 C45.55 306.47 45.64 306.79 45.9 306.94 L50.02 309.33 L50.02
						 308.4 L45.91 310.82 C45.66 310.97 45.57 311.29 45.72 311.55 C45.87 311.8 46.2 311.89 46.45 311.74 Z"
					class="st9"/>
		</g>
		<g id="shape23-59" transform="translate(92.1319,-151.633)">
			<title>Sheet.23</title>
			<path d="M1.07 309.43 L4.28 309.42 L4.27 308.35 L1.06 308.36 L1.07 309.43 ZM5.35 309.41 L8.56 309.4 L8.56 308.33 L5.35
						 308.34 L5.35 309.41 ZM9.64 309.4 L12.85 309.38 L12.84 308.32 L9.63 308.33 L9.64 309.4 ZM13.92 309.38 L17.13
						 309.37 L17.13 308.3 L13.91 308.32 L13.92 309.38 ZM18.2 309.37 L21.42 309.36 L21.41 308.29 L18.2 308.3 L18.2
						 309.37 ZM22.49 309.35 L25.7 309.34 L25.7 308.27 L22.48 308.28 L22.49 309.35 ZM26.77 309.34 L29.99 309.33
						 L29.98 308.26 L26.77 308.27 L26.77 309.34 ZM31.06 309.33 L34.27 309.32 L34.27 308.25 L31.05 308.26 L31.06
						 309.33 ZM35.34 309.31 L38.56 309.3 L38.55 308.23 L35.34 308.24 L35.34 309.31 ZM39.63 309.3 L42.84 309.29
						 L42.84 308.22 L39.62 308.23 L39.63 309.3 ZM43.91 309.28 L47.13 309.27 L47.12 308.2 L43.91 308.21 L43.91
						 309.28 ZM48.2 309.27 L51.33 309.26 L51.33 308.19 L48.19 308.2 L48.2 309.27 ZM4.9 306.02 L0 308.9 L4.92 311.74
						 C5.18 311.89 5.51 311.8 5.65 311.54 C5.8 311.29 5.72 310.96 5.46 310.81 L1.33 308.43 L1.33 309.35 L5.45
						 306.94 C5.7 306.79 5.79 306.46 5.63 306.21 C5.48 305.96 5.16 305.87 4.9 306.02 Z" class="st10"/>
		</g>
		<g id="shape24-61" transform="translate(18.3467,-143.169)">
			<title>Sheet.24</title>
			<path d="M0 272.99 L0 311.81 L73.99 311.81 L73.99 272.99 L0 272.99 L0 272.99 Z" class="st11"/>
		</g>
		<g id="shape25-63" transform="translate(18.3467,-143.169)">
			<title>Sheet.25</title>
			<path d="M0 272.99 L73.99 272.99 L73.99 311.81 L0 311.81 L0 272.99" class="st12"/>
		</g>
		<g id="shape26-66" transform="translate(23.863,-155.491)">
			<title>Sheet.26</title>
			<desc>Package</desc>
			<path d="M49.66 300.26 L0 300.26 L0 311.81 L49.66 311.81 L49.66 300.26" class="st4"/>
			<text x="4.93" y="308.92" class="st5">Package</text>		</g>
		<g id="shape27-70" transform="translate(43.6422,-186.098)">
			<title>Sheet.27</title>
			<path d="M0 300.71 C-0 294.58 5.24 289.61 11.7 289.61 C18.16 289.61 23.4 294.58 23.4 300.71 C23.4 306.84 18.16 311.81
						 11.7 311.81 C5.24 311.81 0 306.84 0 300.71" class="st13"/>
		</g>
		<g id="shape28-73" transform="translate(43.9717,-115.043)">
			<title>Sheet.28</title>
			<path d="M0 300.71 C-0 294.58 5.24 289.61 11.7 289.61 C18.16 289.61 23.4 294.58 23.4 300.71 C23.4 306.84 18.16 311.81
						 11.7 311.81 C5.24 311.81 0 306.84 0 300.71" class="st14"/>
		</g>
		<g id="shape29-76" transform="translate(48.8723,-122.048)">
			<title>Sheet.29</title>
			<desc>TX</desc>
			<path d="M13.6 303.62 L0 303.62 L0 311.81 L13.6 311.81 L13.6 303.62" class="st4"/>
			<text x="2.36" y="309.76" class="st15">TX</text>		</g>
		<g id="shape30-80" transform="translate(48.8532,-193.103)">
			<title>Sheet.30</title>
			<desc>RX</desc>
			<path d="M12.98 303.62 L0 303.62 L0 311.81 L12.98 311.81 L12.98 303.62" class="st4"/>
			<text x="1.78" y="309.76" class="st16">RX</text>		</g>
		<g id="shape31-84" transform="translate(52.7768,-137.206)">
			<title>Sheet.31</title>
			<path d="M2.4 310.75 L2.4 293.51 L39.34 293.51 L39.34 294.58 L2.94 294.58 L3.47 294.05 L3.47 310.75 L2.4 310.75 ZM5.8
						 306.91 L2.94 311.81 L0.07 306.91 C-0.08 306.66 0.01 306.33 0.26 306.18 C0.52 306.03 0.85 306.12 1 306.37
						 L3.4 310.48 L2.48 310.48 L4.88 306.37 L4.88 306.37 C5.03 306.12 5.36 306.03 5.61 306.18 C5.87 306.33 5.95
						 306.66 5.8 306.91 Z" class="st10"/>
		</g>
		<g id="shape32-86" transform="translate(54.848,-167.994)">
			<title>Sheet.32</title>
			<path d="M0 293.75 L0 309.41 L36.34 309.41 L36.34 308.34 L0.54 308.34 L1.07 308.88 L1.07 293.75 L0 293.75 ZM32.49 311.74
						 L37.4 308.88 L32.49 306.02 C32.24 305.87 31.91 305.96 31.76 306.21 C31.61 306.46 31.7 306.79 31.95 306.94
						 L36.07 309.34 L36.07 308.42 L31.95 310.81 C31.7 310.96 31.61 311.29 31.76 311.55 C31.91 311.8 32.24 311.89
						 32.49 311.74 Z" class="st9"/>
		</g>
		<g id="shape33-88" transform="translate(109.508,-172.474)">
			<title>Sheet.33</title>
			<desc>RX</desc>
			<path d="M18.29 300.26 L0 300.26 L0 311.81 L18.29 311.81 L18.29 300.26" class="st4"/>
			<text x="2.51" y="308.92" class="st17">RX</text>		</g>
		<g id="shape34-92" transform="translate(110.196,-138.603)">
			<title>Sheet.34</title>
			<desc>TX</desc>
			<path d="M19.17 300.26 L0 300.26 L0 311.81 L19.17 311.81 L19.17 300.26" class="st4"/>
			<text x="3.32" y="308.92" class="st18">TX</text>		</g>
		<g id="shape35-96" transform="translate(217.291,-167.559)">
			<title>Sheet.35</title>
			<path d="M0.01 309.56 L3.22 309.55 L3.21 308.48 L0 308.49 L0.01 309.56 ZM4.29 309.55 L7.51 309.54 L7.5 308.47 L4.28 308.48
						 L4.29 309.55 ZM8.58 309.54 L11.79 309.53 L11.78 308.46 L8.57 308.47 L8.58 309.54 ZM12.86 309.52 L16.08 309.5
						 L16.07 308.44 L12.85 308.45 L12.86 309.52 ZM17.15 309.5 L20.36 309.49 L20.35 308.43 L17.14 308.44 L17.15
						 309.5 ZM21.43 309.49 L24.65 309.48 L24.64 308.42 L21.42 308.43 L21.43 309.49 ZM25.72 309.47 L28.93 309.46
						 L28.92 308.39 L25.71 308.4 L25.72 309.47 ZM30 309.46 L33.22 309.45 L33.21 308.38 L29.99 308.39 L30 309.46
						 ZM34.29 309.45 L37.5 309.44 L37.49 308.37 L34.28 308.38 L34.29 309.45 ZM38.57 309.43 L41.78 309.42 L41.77
						 308.35 L38.56 308.36 L38.57 309.43 ZM42.86 309.42 L46.07 309.41 L46.06 308.34 L42.85 308.35 L42.86 309.42
						 ZM47.14 309.41 L50.3 309.4 L50.29 308.33 L47.13 308.34 L47.14 309.41 ZM46.45 311.74 L51.36 308.86 L46.44
						 306.02 C46.18 305.87 45.85 305.96 45.71 306.22 C45.55 306.47 45.65 306.79 45.9 306.95 L50.02 309.33 L50.02
						 308.4 L45.91 310.82 C45.66 310.96 45.58 311.29 45.72 311.55 C45.87 311.8 46.2 311.89 46.45 311.74 Z"
					class="st19"/>
		</g>
		<g id="shape36-98" transform="translate(217.208,-150.644)">
			<title>Sheet.36</title>
			<path d="M1.07 309.43 L4.28 309.42 L4.27 308.35 L1.06 308.36 L1.07 309.43 ZM5.36 309.41 L8.57 309.4 L8.56 308.33 L5.35
						 308.34 L5.36 309.41 ZM9.64 309.4 L12.85 309.39 L12.84 308.32 L9.63 308.33 L9.64 309.4 ZM13.92 309.39 L17.14
						 309.38 L17.13 308.31 L13.91 308.32 L13.92 309.39 ZM18.21 309.37 L21.42 309.36 L21.41 308.29 L18.2 308.3
						 L18.21 309.37 ZM22.49 309.36 L25.71 309.35 L25.7 308.28 L22.48 308.29 L22.49 309.36 ZM26.78 309.34 L29.99
						 309.32 L29.98 308.26 L26.77 308.27 L26.78 309.34 ZM31.06 309.32 L34.28 309.31 L34.27 308.25 L31.05 308.26
						 L31.06 309.32 ZM35.35 309.31 L38.56 309.3 L38.55 308.24 L35.34 308.25 L35.35 309.31 ZM39.63 309.29 L42.85
						 309.28 L42.84 308.21 L39.62 308.22 L39.63 309.29 ZM43.92 309.28 L47.13 309.27 L47.12 308.2 L43.91 308.21
						 L43.92 309.28 ZM48.2 309.26 L51.33 309.25 L51.33 308.18 L48.19 308.19 L48.2 309.26 ZM4.9 306.01 L0 308.89
						 L4.92 311.74 C5.18 311.88 5.51 311.8 5.65 311.55 C5.81 311.29 5.72 310.96 5.46 310.82 L1.33 308.43 L1.34
						 309.36 L5.45 306.94 C5.71 306.79 5.79 306.47 5.63 306.21 C5.49 305.95 5.16 305.87 4.9 306.01 Z"
					class="st20"/>
		</g>
		<g id="shape37-100" transform="translate(320.285,-167.555)">
			<title>Sheet.37</title>
			<path d="M0.02 309.55 L3.23 309.55 L3.21 308.48 L0 308.48 L0.02 309.55 ZM4.31 309.55 L7.52 309.53 L7.5 308.46 L4.28 308.48
						 L4.31 309.55 ZM8.59 309.53 L11.8 309.53 L11.78 308.46 L8.57 308.46 L8.59 309.53 ZM12.87 309.51 L16.09 309.51
						 L16.07 308.44 L12.85 308.44 L12.87 309.51 ZM17.16 309.51 L20.37 309.49 L20.35 308.42 L17.14 308.44 L17.16
						 309.51 ZM21.44 309.49 L24.66 309.49 L24.64 308.42 L21.42 308.42 L21.44 309.49 ZM25.73 309.47 L28.94 309.47
						 L28.92 308.4 L25.71 308.4 L25.73 309.47 ZM30.01 309.47 L33.23 309.45 L33.21 308.38 L29.99 308.4 L30.01 309.47
						 ZM34.3 309.45 L37.51 309.45 L37.49 308.38 L34.28 308.38 L34.3 309.45 ZM38.58 309.43 L41.8 309.43 L41.77
						 308.36 L38.56 308.36 L38.58 309.43 ZM42.87 309.43 L46.08 309.41 L46.06 308.34 L42.85 308.36 L42.87 309.43
						 ZM47.15 309.41 L50.3 309.41 L50.3 308.34 L47.13 308.34 L47.15 309.41 ZM46.45 311.73 L51.37 308.85 L46.45
						 306.02 C46.18 305.87 45.85 305.95 45.71 306.22 C45.56 306.47 45.65 306.8 45.91 306.94 L50.03 309.33 L50.03
						 308.4 L45.91 310.83 C45.67 310.97 45.59 311.3 45.73 311.55 C45.87 311.79 46.2 311.9 46.45 311.73 Z"
					class="st21"/>
		</g>
		<g id="shape38-102" transform="translate(320.203,-150.643)">
			<title>Sheet.38</title>
			<path d="M1.07 309.44 L4.28 309.42 L4.28 308.35 L1.07 308.37 L1.07 309.44 ZM5.36 309.42 L8.57 309.4 L8.57 308.33 L5.36
						 308.35 L5.36 309.42 ZM9.64 309.4 L12.85 309.4 L12.85 308.33 L9.64 308.33 L9.64 309.4 ZM13.92 309.4 L17.14
						 309.38 L17.14 308.31 L13.92 308.33 L13.92 309.4 ZM18.21 309.38 L21.42 309.36 L21.42 308.29 L18.21 308.31
						 L18.21 309.38 ZM22.49 309.36 L25.71 309.36 L25.71 308.29 L22.49 308.29 L22.49 309.36 ZM26.78 309.33 L29.99
						 309.33 L29.99 308.27 L26.78 308.27 L26.78 309.33 ZM31.06 309.33 L34.28 309.31 L34.28 308.25 L31.06 308.27
						 L31.06 309.33 ZM35.35 309.31 L38.56 309.31 L38.56 308.25 L35.35 308.25 L35.35 309.31 ZM39.63 309.29 L42.85
						 309.29 L42.85 308.22 L39.63 308.22 L39.63 309.29 ZM43.92 309.29 L47.13 309.27 L47.13 308.2 L43.92 308.22
						 L43.92 309.29 ZM48.2 309.27 L51.33 309.25 L51.33 308.18 L48.2 308.2 L48.2 309.27 ZM4.9 306.02 L0 308.9 L4.92
						 311.74 C5.19 311.88 5.52 311.8 5.66 311.56 C5.81 311.29 5.73 310.96 5.46 310.82 L1.34 308.43 L1.34 309.36
						 L5.46 306.95 C5.71 306.79 5.79 306.46 5.64 306.21 C5.5 305.96 5.17 305.88 4.9 306.02 Z" class="st22"/>
		</g>
	</g>
</svg>
