<?xml version="1.0" encoding="UTF-8" standalone="no"?>
<!DOCTYPE svg PUBLIC "-//W3C//DTD SVG 1.1//EN" "http://www.w3.org/Graphics/SVG/1.1/DTD/svg11.dtd">
<!-- Generated by Microsoft Visio, SVG Export NVM_accs_FLASH.svg Page-1 -->
<svg xmlns="http://www.w3.org/2000/svg" xmlns:xlink="http://www.w3.org/1999/xlink" xmlns:ev="http://www.w3.org/2001/xml-events"
		width="3.41162in" height="3.10757in" viewBox="0 0 245.637 223.745" xml:space="preserve" color-interpolation-filters="sRGB"
		class="st14">
	<style type="text/css">
	<![CDATA[
		.st1 {fill:#ffc000;stroke:none;stroke-linecap:round;stroke-linejoin:round;stroke-width:0.75}
		.st2 {fill:#000000;font-family:Calibri;font-size:0.499992em}
		.st3 {fill:#9dc3e6;stroke:none;stroke-linecap:round;stroke-linejoin:round;stroke-width:0.75}
		.st4 {fill:#bfbfbf;stroke:none;stroke-linecap:round;stroke-linejoin:round;stroke-width:0.75}
		.st5 {marker-start:url(#mrkr1-33);stroke:#ff0000;stroke-linecap:round;stroke-linejoin:round;stroke-width:1}
		.st6 {fill:#ff0000;fill-opacity:1;stroke:#ff0000;stroke-opacity:1;stroke-width:0.28409090909091}
		.st7 {marker-end:url(#mrkr1-42);marker-start:url(#mrkr1-40);stroke:#000000;stroke-linecap:round;stroke-linejoin:round;stroke-width:1}
		.st8 {fill:#000000;fill-opacity:1;stroke:#000000;stroke-opacity:1;stroke-width:0.28409090909091}
		.st9 {fill:#bfbfbf;stroke:#000000;stroke-linecap:round;stroke-linejoin:round;stroke-width:0.75}
		.st10 {fill:#9dc3e6;stroke:#000000;stroke-linecap:round;stroke-linejoin:round;stroke-width:0.75}
		.st11 {stroke:#000000;stroke-dasharray:5.25,3.75;stroke-linecap:round;stroke-linejoin:round;stroke-width:0.75}
		.st12 {marker-start:url(#mrkr1-67);stroke:#ff0000;stroke-linecap:round;stroke-linejoin:round;stroke-width:0.75}
		.st13 {fill:#ff0000;fill-opacity:1;stroke:#ff0000;stroke-opacity:1;stroke-width:0.22935779816514}
		.st14 {fill:none;fill-rule:evenodd;font-size:12px;overflow:visible;stroke-linecap:square;stroke-miterlimit:3}
	]]>
	</style>

	<defs id="Markers">
		<g id="lend1">
			<path d="M 1 -1 L 0 0 L 1 1 " style="stroke-linecap:round;stroke-linejoin:round;fill:none"/>
		</g>
		<marker id="mrkr1-33" class="st6" orient="auto" markerUnits="strokeWidth" overflow="visible">
			<use xlink:href="#lend1" transform="scale(3.52) "/>
		</marker>
		<marker id="mrkr1-40" class="st8" orient="auto" markerUnits="strokeWidth" overflow="visible">
			<use xlink:href="#lend1" transform="scale(3.52) "/>
		</marker>
		<marker id="mrkr1-42" class="st8" orient="auto" markerUnits="strokeWidth" overflow="visible">
			<use xlink:href="#lend1" transform="scale(-3.52,-3.52) "/>
		</marker>
		<marker id="mrkr1-67" class="st13" orient="auto" markerUnits="strokeWidth" overflow="visible">
			<use xlink:href="#lend1" transform="scale(4.36) "/>
		</marker>
	</defs>
	<g>
		<title>Page-1</title>
		<g id="shape1-1" transform="translate(123.54,-0.375)">
			<title>Sheet.1</title>
			<desc>NVM</desc>
			<rect x="0" y="164.016" width="121.722" height="59.7292" class="st1"/>
			<text x="4" y="173.42" class="st2">NVM</text>		</g>
		<g id="shape2-4" transform="translate(24.7654,-126.801)">
			<title>Sheet.2</title>
			<desc>CPUx</desc>
			<path d="M0 126.8 L0 223.75 L194.17 223.75 L194.17 126.8 L0 126.8 L0 126.8 Z" class="st1"/>
			<text x="4" y="136.2" class="st2">CPUx</text>		</g>
		<g id="shape4-7" transform="translate(136.128,-9.06538)">
			<title>Sheet.4</title>
			<desc>PFLASH</desc>
			<path d="M0 197.65 L0 223.75 L36.5 223.75 L36.5 197.65 L0 197.65 L0 197.65 Z" class="st3"/>
			<text x="9.08" y="212.5" class="st2">PFLASH</text>		</g>
		<g id="shape5-10" transform="translate(24.7654,-85.5064)">
			<title>Sheet.5</title>
			<desc>SRI</desc>
			<path d="M0 198.98 L0 223.75 L212.6 223.75 L212.6 198.98 L0 198.98 L0 198.98 Z" class="st4"/>
			<text x="4" y="208.38" class="st2">SRI</text>		</g>
		<g id="shape12-13" transform="translate(71.701,-169.547)">
			<title>Sheet.12</title>
			<desc>CORE</desc>
			<path d="M0 223.75 L0 183.72 L102.84 183.72 L102.84 223.75 L0 223.75 Z" class="st3"/>
			<text x="44.74" y="205.53" class="st2">CORE</text>		</g>
		<g id="shape14-16" transform="translate(42.7435,-126.801)">
			<title>Sheet.14</title>
			<desc>M-SRI</desc>
			<path d="M0 223.75 L0 207.21 L28.79 207.21 L28.79 223.75 L0 223.75 Z" class="st3"/>
			<text x="7.15" y="217.28" class="st2">M-SRI</text>		</g>
		<g id="shape15-19" transform="translate(198.127,-43.3714)">
			<title>Sheet.15</title>
			<desc>S-SRI</desc>
			<path d="M0 223.75 L0 207.21 L28.79 207.21 L28.79 223.75 L0 223.75 Z" class="st3"/>
			<text x="8.34" y="217.28" class="st2">S-SRI</text>		</g>
		<g id="shape16-22" transform="translate(195.833,-9.06538)">
			<title>Sheet.16</title>
			<desc>DFLASH</desc>
			<path d="M0 197.65 L0 223.75 L36.5 223.75 L36.5 197.65 L0 197.65 L0 197.65 Z" class="st3"/>
			<text x="8.78" y="212.5" class="st2">DFLASH</text>		</g>
		<g id="shape20-25" transform="translate(27.5343,-4.42531)">
			<title>Sheet.20</title>
			<desc>IR</desc>
			<rect x="0" y="164.016" width="64.7404" height="59.7292" class="st4"/>
			<text x="4" y="173.42" class="st2">IR</text>		</g>
		<g id="shape21-28" transform="translate(92.2747,-34.2899)">
			<title>Sheet.21</title>
			<path d="M0 223.75 L31.27 223.75" class="st5"/>
		</g>
		<g id="shape22-34" transform="translate(-168.023,113.476) rotate(-90)">
			<title>Sheet.22</title>
			<path d="M0 223.75 L16.35 223.75" class="st7"/>
		</g>
		<g id="shape23-43" transform="translate(-11.8933,163.641) rotate(-90)">
			<title>Sheet.23</title>
			<path d="M0 223.75 L25.4 223.75" class="st7"/>
		</g>
		<g id="shape24-50" transform="translate(71.6448,-26.0243)">
			<title>Sheet.24</title>
			<desc>SRNi</desc>
			<rect x="0" y="207.214" width="20.6299" height="16.5312" class="st9"/>
			<text x="4" y="216.61" class="st2">SRNi</text>		</g>
		<g id="shape37-53" transform="translate(77.5883,-169.717)">
			<title>Sheet.37</title>
			<desc>DMBI</desc>
			<path d="M0 223.75 L0 207.21 L28.79 207.21 L28.79 223.75 L0 223.75 Z" class="st10"/>
			<text x="7.6" y="217.28" class="st2">DMBI</text>		</g>
		<g id="shape40-56" transform="translate(55.7227,-110.269)">
			<title>Dynamic connector</title>
			<path d="M0 223.75 L0 235.84 L156.13 235.84 L156.13 248.51" class="st11"/>
		</g>
		<g id="shape62-59" transform="translate(27.5343,-26.0243)">
			<title>Sheet.62</title>
			<desc>ICUx</desc>
			<rect x="0" y="207.214" width="20.6299" height="16.5312" class="st9"/>
			<text x="4" y="216.61" class="st2">ICUx</text>		</g>
		<g id="shape63-62" transform="translate(19.0632,-184.06)">
			<title>Dynamic connector.63</title>
			<path d="M5.7 223.75 L-14.44 223.75 L-14.44 373.52 L8.47 373.52" class="st12"/>
		</g>
	</g>
</svg>
