<?xml version="1.0" encoding="UTF-8" standalone="no"?>
<!DOCTYPE svg PUBLIC "-//W3C//DTD SVG 1.1//EN" "http://www.w3.org/Graphics/SVG/1.1/DTD/svg11.dtd">
<!-- Generated by Microsoft Visio, SVG Export ShareMemHWprot_2x_PFLASH.svg Page-1 -->
<svg xmlns="http://www.w3.org/2000/svg" xmlns:xlink="http://www.w3.org/1999/xlink" xmlns:ev="http://www.w3.org/2001/xml-events"
		width="5.87656in" height="3.36151in" viewBox="0 0 423.112 242.029" xml:space="preserve" color-interpolation-filters="sRGB"
		class="st16">
	<style type="text/css">
	<![CDATA[
		.st1 {fill:#ffc000;stroke:none;stroke-linecap:round;stroke-linejoin:round;stroke-width:0.75}
		.st2 {fill:#000000;font-family:Calibri;font-size:0.499992em}
		.st3 {fill:#9dc3e6;stroke:none;stroke-linecap:round;stroke-linejoin:round;stroke-width:0.75}
		.st4 {marker-end:url(#mrkr1-30);marker-start:url(#mrkr1-28);stroke:#000000;stroke-linecap:round;stroke-linejoin:round;stroke-width:1}
		.st5 {fill:#000000;fill-opacity:1;stroke:#000000;stroke-opacity:1;stroke-width:0.28409090909091}
		.st6 {fill:#9dc3e6;stroke:#000000;stroke-linecap:round;stroke-linejoin:round;stroke-width:0.75}
		.st7 {fill:#bfbfbf;stroke:none;stroke-linecap:round;stroke-linejoin:round;stroke-width:0.75}
		.st8 {marker-end:url(#mrkr1-82);marker-start:url(#mrkr1-80);stroke:#ff0000;stroke-linecap:round;stroke-linejoin:round;stroke-width:0.75}
		.st9 {fill:#ff0000;fill-opacity:1;stroke:#ff0000;stroke-opacity:1;stroke-width:0.22935779816514}
		.st10 {fill:#bfbfbf;stroke:#000000;stroke-linecap:round;stroke-linejoin:round;stroke-width:0.75}
		.st11 {marker-end:url(#mrkr1-82);stroke:#ff0000;stroke-linecap:round;stroke-linejoin:round;stroke-width:0.75}
		.st12 {fill:none;stroke:none;stroke-linecap:round;stroke-linejoin:round;stroke-width:0.75}
		.st13 {font-size:1em}
		.st14 {stroke:#000000;stroke-dasharray:0.75,1.5;stroke-linecap:round;stroke-linejoin:round;stroke-width:0.75}
		.st15 {marker-start:url(#mrkr1-28);stroke:#000000;stroke-linecap:round;stroke-linejoin:round;stroke-width:1}
		.st16 {fill:none;fill-rule:evenodd;font-size:12px;overflow:visible;stroke-linecap:square;stroke-miterlimit:3}
	]]>
	</style>

	<defs id="Markers">
		<g id="lend1">
			<path d="M 1 -1 L 0 0 L 1 1 " style="stroke-linecap:round;stroke-linejoin:round;fill:none"/>
		</g>
		<marker id="mrkr1-28" class="st5" orient="auto" markerUnits="strokeWidth" overflow="visible">
			<use xlink:href="#lend1" transform="scale(3.52) "/>
		</marker>
		<marker id="mrkr1-30" class="st5" orient="auto" markerUnits="strokeWidth" overflow="visible">
			<use xlink:href="#lend1" transform="scale(-3.52,-3.52) "/>
		</marker>
		<marker id="mrkr1-80" class="st9" orient="auto" markerUnits="strokeWidth" overflow="visible">
			<use xlink:href="#lend1" transform="scale(4.36) "/>
		</marker>
		<marker id="mrkr1-82" class="st9" orient="auto" markerUnits="strokeWidth" overflow="visible">
			<use xlink:href="#lend1" transform="scale(-4.36,-4.36) "/>
		</marker>
	</defs>
	<g>
		<title>Page-1</title>
		<g id="shape1-1" transform="translate(210.139,-105.966)">
			<title>Sheet.1</title>
			<desc>CPUy</desc>
			<path d="M0 105.97 L0 242.03 L121.48 242.03 L121.48 105.97 L0 105.97 L0 105.97 Z" class="st1"/>
			<text x="4" y="115.37" class="st2">CPUy</text>		</g>
		<g id="shape2-4" transform="translate(293.761,-138.802)">
			<title>Sheet.2</title>
			<desc>PSPR</desc>
			<path d="M0 242.03 L0 225.5 L28.79 225.5 L28.79 242.03 L0 242.03 Z" class="st3"/>
			<text x="8.29" y="235.56" class="st2">PSPR</text>		</g>
		<g id="shape3-7" transform="translate(219.613,-138.802)">
			<title>Sheet.3</title>
			<desc>DSPR</desc>
			<path d="M0 242.03 L0 225.5 L28.79 225.5 L28.79 242.03 L0 242.03 Z" class="st3"/>
			<text x="7.99" y="235.56" class="st2">DSPR</text>		</g>
		<g id="shape4-10" transform="translate(256.687,-138.802)">
			<title>Sheet.4</title>
			<desc>DLMU</desc>
			<path d="M0 242.03 L0 225.5 L28.79 225.5 L28.79 242.03 L0 242.03 Z" class="st3"/>
			<text x="6.8" y="235.56" class="st2">DLMU</text>		</g>
		<g id="shape5-13" transform="translate(219.263,-186.753)">
			<title>Sheet.5</title>
			<desc>CORE</desc>
			<path d="M0 242.03 L0 202 L102.84 202 L102.84 242.03 L0 242.03 Z" class="st3"/>
			<text x="44.74" y="223.82" class="st2">CORE</text>		</g>
		<g id="shape6-16" transform="translate(293.761,-105.966)">
			<title>Sheet.6</title>
			<desc>CFI</desc>
			<path d="M0 242.03 L0 225.45 L28.79 225.45 L28.79 242.03 L0 242.03 Z" class="st3"/>
			<text x="10.66" y="235.54" class="st2">CFI</text>		</g>
		<g id="shape7-19" transform="translate(239.371,-105.966)">
			<title>Sheet.7</title>
			<desc>S-SRI</desc>
			<path d="M0 242.03 L0 225.45 L28.79 225.45 L28.79 242.03 L0 242.03 Z" class="st3"/>
			<text x="8.34" y="235.54" class="st2">S-SRI</text>		</g>
		<g id="shape8-22" transform="translate(495.573,136.245) rotate(90)">
			<title>Sheet.8</title>
			<path d="M0 242.03 L25.51 242.03" class="st4"/>
		</g>
		<g id="shape9-31" transform="translate(225.15,-186.923)">
			<title>Sheet.9</title>
			<desc>DMBI</desc>
			<path d="M0 242.03 L0 225.5 L28.79 225.5 L28.79 242.03 L0 242.03 Z" class="st6"/>
			<text x="7.6" y="235.56" class="st2">DMBI</text>		</g>
		<g id="shape10-34" transform="translate(288.93,-186.923)">
			<title>Sheet.10</title>
			<desc>PMBI</desc>
			<path d="M0 242.03 L0 225.5 L28.79 225.5 L28.79 242.03 L0 242.03 Z" class="st6"/>
			<text x="7.89" y="235.56" class="st2">PMBI</text>		</g>
		<g id="shape11-37" transform="translate(75.8985,-105.966)">
			<title>Sheet.11</title>
			<desc>CPUx</desc>
			<path d="M0 105.97 L0 242.03 L121.48 242.03 L121.48 105.97 L0 105.97 L0 105.97 Z" class="st1"/>
			<text x="4" y="115.37" class="st2">CPUx</text>		</g>
		<g id="shape12-40" transform="translate(78.7331,-55.5089)">
			<title>Sheet.12</title>
			<desc>SRI</desc>
			<path d="M0 217.27 L0 242.03 L205.11 242.03 L205.11 217.27 L0 217.27 L0 217.27 Z" class="st7"/>
			<text x="4" y="226.67" class="st2">SRI</text>		</g>
		<g id="shape13-43" transform="translate(89.2192,-159.966)">
			<title>Sheet.13</title>
			<desc>DCACHE</desc>
			<path d="M0 242.03 L0 225.5 L28.79 225.5 L28.79 242.03 L0 242.03 Z" class="st3"/>
			<text x="4.28" y="235.56" class="st2">DCACHE</text>		</g>
		<g id="shape14-46" transform="translate(83.2001,-186.753)">
			<title>Sheet.14</title>
			<desc>CORE</desc>
			<path d="M0 242.03 L0 202 L102.84 202 L102.84 242.03 L0 242.03 Z" class="st3"/>
			<text x="44.74" y="223.82" class="st2">CORE</text>		</g>
		<g id="shape15-49" transform="translate(93.6585,-105.966)">
			<title>Sheet.15</title>
			<desc>M-SRI</desc>
			<path d="M0 242.03 L0 225.4 L28.79 225.4 L28.79 242.03 L0 242.03 Z" class="st3"/>
			<text x="7.15" y="235.51" class="st2">M-SRI</text>		</g>
		<g id="shape16-52" transform="translate(-133.798,161.757) rotate(-90)">
			<title>Sheet.16</title>
			<path d="M0 242.03 L25.51 242.03" class="st4"/>
		</g>
		<g id="shape17-59" transform="translate(89.0875,-186.923)">
			<title>Sheet.17</title>
			<desc>DMBI</desc>
			<path d="M0 242.03 L0 225.5 L28.79 225.5 L28.79 242.03 L0 242.03 Z" class="st6"/>
			<text x="7.6" y="235.56" class="st2">DMBI</text>		</g>
		<g id="shape18-62" transform="translate(152.867,-186.923)">
			<title>Sheet.18</title>
			<desc>PMBI</desc>
			<path d="M0 242.03 L0 225.5 L28.79 225.5 L28.79 242.03 L0 242.03 Z" class="st6"/>
			<text x="7.89" y="235.56" class="st2">PMBI</text>		</g>
		<g id="shape19-65" transform="translate(152.029,-159.966)">
			<title>Sheet.19</title>
			<desc>PCACHE</desc>
			<path d="M0 242.03 L0 225.5 L28.79 225.5 L28.79 242.03 L0 242.03 Z" class="st3"/>
			<text x="4.58" y="235.56" class="st2">PCACHE</text>		</g>
		<g id="shape20-68" transform="translate(309.351,-8.17028)">
			<title>Sheet.20</title>
			<desc>NVM</desc>
			<rect x="0" y="182.299" width="113.386" height="59.7292" class="st1"/>
			<text x="4" y="191.7" class="st2">NVM</text>		</g>
		<g id="shape21-71" transform="translate(319.005,-19.9105)">
			<title>Sheet.21</title>
			<desc>PFLASH.x0</desc>
			<path d="M0 211.25 L0 242.03 L43.06 242.03 L43.06 211.25 L0 211.25 L0 211.25 Z" class="st3"/>
			<text x="8.78" y="228.44" class="st2">PFLASH.x0</text>		</g>
		<g id="shape22-74" transform="translate(308.376,-105.966)">
			<title>Dynamic connector</title>
			<path d="M0 242.03 L0 261.87 L32.16 261.87 L32.16 297.3" class="st8"/>
		</g>
		<g id="shape23-83" transform="translate(0.512489,-164.784)">
			<title>Sheet.23</title>
			<desc>IR</desc>
			<rect x="0" y="166.627" width="43.0554" height="75.4016" class="st7"/>
			<text x="4" y="176.03" class="st2">IR</text>		</g>
		<g id="shape24-86" transform="translate(22.5722,-214.301)">
			<title>Sheet.24</title>
			<desc>SRNi</desc>
			<rect x="0" y="225.497" width="20.6299" height="16.5312" class="st10"/>
			<text x="4" y="234.9" class="st2">SRNi</text>		</g>
		<g id="shape25-89" transform="translate(22.5722,-174.706)">
			<title>Sheet.25</title>
			<desc>ICUx</desc>
			<rect x="0" y="225.497" width="20.6299" height="16.5312" class="st10"/>
			<text x="4" y="234.9" class="st2">ICUx</text>		</g>
		<g id="shape26-92" transform="translate(43.2021,-175.885)">
			<title>Dynamic connector.98</title>
			<path d="M0 234.94 L32.7 234.94" class="st11"/>
		</g>
		<g id="shape27-97" transform="translate(75.8985,-215.48)">
			<title>Dynamic connector.60</title>
			<path d="M0 234.94 L-32.7 234.94" class="st11"/>
		</g>
		<g id="shape28-102" transform="translate(0.375,-105.784)">
			<title>Sheet.28</title>
			<desc>SCU</desc>
			<rect x="0" y="202.003" width="43.0554" height="40.0252" class="st1"/>
			<text x="4" y="211.4" class="st2">SCU</text>		</g>
		<g id="shape29-105" transform="translate(43.4304,-129.224)">
			<title>Dynamic connector.68</title>
			<path d="M0 234.94 L32.47 234.94" class="st11"/>
		</g>
		<g id="shape33-110" transform="translate(38.9291,-138.691)">
			<title>Sheet.33</title>
			<desc>SOTA control</desc>
			<rect x="0" y="227.274" width="41.4706" height="14.7544" class="st12"/>
			<text x="14.17" y="232.85" class="st2">SOTA  <tspan x="11.99" dy="1.2em" class="st13">control</tspan></text>		</g>
		<g id="shape36-114" transform="translate(170.186,-0.375)">
			<title>Sheet.36</title>
			<desc>LMU</desc>
			<rect x="0" y="209.107" width="64.0474" height="32.922" class="st1"/>
			<text x="4" y="218.51" class="st2">LMU</text>		</g>
		<g id="shape37-117" transform="translate(194.697,-16.7658)">
			<title>Sheet.37</title>
			<desc>S-SRI</desc>
			<path d="M0 242.03 L0 225.5 L28.79 225.5 L28.79 242.03 L0 242.03 Z" class="st3"/>
			<text x="8.34" y="235.56" class="st2">S-SRI</text>		</g>
		<g id="shape38-120" transform="translate(368.879,-19.9105)">
			<title>Sheet.38</title>
			<desc>PFLASH.x1</desc>
			<path d="M0 211.25 L0 242.03 L43.06 242.03 L43.06 211.25 L0 211.25 L0 211.25 Z" class="st3"/>
			<text x="8.78" y="228.44" class="st2">PFLASH.x1</text>		</g>
		<g id="shape39-123" transform="translate(308.376,-105.966)">
			<title>Dynamic connector.39</title>
			<path d="M0 242.03 L0 261.87 L81.72 261.87 L81.72 297.3" class="st8"/>
		</g>
		<g id="shape40-130" transform="translate(-30.4725,208.732) rotate(-90)">
			<title>Sheet.40</title>
			<path d="M0 242.03 L22.21 242.03" class="st4"/>
		</g>
		<g id="shape41-137" transform="translate(108.23,-87.3586)">
			<title>Dynamic connector.41</title>
			<path d="M0 249.12 L0 260.98 L145.31 260.98 L145.31 249.12" class="st14"/>
		</g>
		<g id="shape42-140" transform="translate(453.585,173.622) rotate(90)">
			<title>Sheet.42</title>
			<path d="M0 242.03 L12.9 242.03" class="st14"/>
		</g>
		<g id="shape43-143" transform="translate(75.8985,369.028) rotate(180)">
			<title>Sheet.43</title>
			<path d="M0 242.03 L32.47 242.03" class="st15"/>
		</g>
		<g id="shape44-148" transform="translate(49.9813,-113.371)">
			<title>Sheet.44</title>
			<desc>NMI</desc>
			<rect x="0" y="233.085" width="20.6299" height="8.9437" class="st12"/>
			<text x="5.06" y="239.36" class="st2">NMI</text>		</g>
	</g>
</svg>
