<?xml version="1.0" encoding="UTF-8" standalone="no"?>
<!DOCTYPE svg PUBLIC "-//W3C//DTD SVG 1.1//EN" "http://www.w3.org/Graphics/SVG/1.1/DTD/svg11.dtd">
<!-- Generated by Microsoft Visio, SVG Export TC4xx_TUC_CCFTemperature.svg CCF Temperature -->
<svg xmlns="http://www.w3.org/2000/svg" xmlns:xlink="http://www.w3.org/1999/xlink" xmlns:ev="http://www.w3.org/2001/xml-events"
		width="7.71654in" height="4.33071in" viewBox="0 0 555.591 311.811" xml:space="preserve" color-interpolation-filters="sRGB"
		class="st11">
	<style type="text/css">
	<![CDATA[
		.st1 {fill:#d9d9d9;stroke:none;stroke-linecap:round;stroke-linejoin:round;stroke-width:0.75}
		.st2 {fill:#ffc000;stroke:none;stroke-linecap:round;stroke-linejoin:round;stroke-width:0.75}
		.st3 {stroke:none;stroke-linecap:round;stroke-linejoin:round;stroke-width:0.75}
		.st4 {fill:#000000;font-family:Verdana;font-size:1.17055em}
		.st5 {fill:#000000;font-family:Verdana;font-size:1.16833em}
		.st6 {fill:#ff9933;stroke:none;stroke-linecap:round;stroke-linejoin:round;stroke-width:0.75}
		.st7 {fill:#c00000;stroke:#c00000;stroke-linecap:round;stroke-linejoin:round;stroke-width:0.0149927}
		.st8 {fill:#ffcc99;stroke:none;stroke-linecap:round;stroke-linejoin:round;stroke-width:0.75}
		.st9 {fill:#00b050;stroke:#00b050;stroke-linecap:round;stroke-linejoin:round;stroke-width:0.00749637}
		.st10 {fill:#00b050;font-family:Verdana;font-size:1.16833em}
		.st11 {fill:none;fill-rule:evenodd;font-size:12px;overflow:visible;stroke-linecap:square;stroke-miterlimit:3}
	]]>
	</style>

	<g>
		<title>CCF Temperature</title>
		<g id="shape3-1" transform="translate(400.03,-74.9809)">
			<title>Sheet.3</title>
			<path d="M0 146.51 C0 140.85 4.59 136.26 10.26 136.26 L85.79 136.26 C91.47 136.26 96.04 140.85 96.04 146.51 L96.04 301.58
						 C96.04 307.24 91.47 311.81 85.79 311.81 L10.26 311.81 C4.59 311.81 0 307.24 0 301.58 L0 146.51 Z"
					class="st1"/>
		</g>
		<g id="shape4-3" transform="translate(410.955,-86.3646)">
			<title>Sheet.4</title>
			<path d="M0 158.91 L0 311.81 L73.95 311.81 L73.95 158.91 L0 158.91 L0 158.91 Z" class="st2"/>
		</g>
		<g id="shape5-5" transform="translate(445.312,-173.309)">
			<title>Sheet.5</title>
			<desc>CPU</desc>
			<path d="M0 294.95 L0 311.81 L38.53 311.81 L38.53 294.95 L0 294.95" class="st3"/>
			<text x="4.98" y="307.6" class="st4">CPU</text>		</g>
		<g id="shape6-9" transform="translate(433.546,-52.883)">
			<title>Sheet.6</title>
			<desc>CPU</desc>
			<path d="M38.45 294.98 L0 294.98 L0 311.81 L38.45 311.81 L38.45 294.98" class="st3"/>
			<text x="4.97" y="307.6" class="st5">CPU</text>		</g>
		<g id="shape7-13" transform="translate(253.442,-123.272)">
			<title>Sheet.7</title>
			<path d="M0 245.22 C-0 237.86 5.99 231.89 13.36 231.89 L84.5 231.89 C91.87 231.89 97.85 237.86 97.85 245.22 L97.85 298.5
						 C97.85 305.85 91.87 311.81 84.5 311.81 L13.36 311.81 C5.99 311.81 0 305.85 0 298.5 L0 245.22 Z"
					class="st1"/>
		</g>
		<g id="shape8-15" transform="translate(265.688,-134.536)">
			<title>Sheet.8</title>
			<path d="M0 255.25 L0 311.81 L73.71 311.81 L73.71 255.25 L0 255.25 L0 255.25 Z" class="st6"/>
		</g>
		<g id="shape9-17" transform="translate(288.735,-152.201)">
			<title>Sheet.9</title>
			<desc>SPB</desc>
			<path d="M37.47 294.98 L0 294.98 L0 311.81 L37.47 311.81 L37.47 294.98" class="st3"/>
			<text x="4.91" y="307.6" class="st5">SPB</text>		</g>
		<g id="shape10-21" transform="translate(290.664,-104.138)">
			<title>Sheet.10</title>
			<desc>FPI</desc>
			<path d="M31.45 294.98 L0 294.98 L0 311.81 L31.45 311.81 L31.45 294.98" class="st3"/>
			<text x="4.52" y="307.6" class="st5">FPI</text>		</g>
		<g id="shape11-25" transform="translate(340.062,-158.507)">
			<title>Sheet.11</title>
			<path d="M0.02 306.42 L69.47 306.78 L69.47 308.34 L0 307.98 L0.02 306.42 ZM63.88 303.37 L71.01 307.58 L63.84 311.71 C63.46
						 311.92 62.98 311.79 62.77 311.41 C62.55 311.05 62.68 310.57 63.06 310.35 L69.08 306.89 L69.08 308.24 L63.09
						 304.72 C62.71 304.49 62.59 304.01 62.8 303.64 C63.03 303.28 63.51 303.14 63.88 303.37 Z" class="st7"/>
		</g>
		<g id="shape12-27" transform="translate(61.5935,-122.673)">
			<title>Sheet.12</title>
			<path d="M0 244.45 C-0 237.58 5.58 232.01 12.46 232.01 L83.83 232.01 C90.71 232.01 96.28 237.58 96.28 244.45 L96.28 299.38
						 C96.28 306.25 90.71 311.81 83.83 311.81 L12.46 311.81 C5.58 311.81 0 306.25 0 299.38 L0 244.45 Z"
					class="st1"/>
		</g>
		<g id="shape13-29" transform="translate(72.9988,-134.296)">
			<title>Sheet.13</title>
			<path d="M0 254.77 L0 311.81 L73.47 311.81 L73.47 254.77 L0 254.77 L0 254.77 Z" class="st8"/>
		</g>
		<g id="shape14-31" transform="translate(83.9116,-151.838)">
			<title>Sheet.14</title>
			<desc>VTMON</desc>
			<path d="M64.97 294.98 L0 294.98 L0 311.81 L64.97 311.81 L64.97 294.98" class="st3"/>
			<text x="6.7" y="307.6" class="st5">VTMON</text>		</g>
		<g id="shape15-35" transform="translate(147.253,-158.814)">
			<title>Sheet.15</title>
			<path d="M0.01 308.66 L4.69 308.64 L4.68 307.08 L0 307.1 L0.01 308.66 ZM6.25 308.63 L10.93 308.62 L10.93 307.06 L6.24
						 307.08 L6.25 308.63 ZM12.49 308.62 L17.18 308.6 L17.17 307.05 L12.49 307.06 L12.49 308.62 ZM18.74 308.6
						 L23.42 308.58 L23.41 307.02 L18.73 307.04 L18.74 308.6 ZM24.98 308.58 L29.66 308.57 L29.65 307.01 L24.97
						 307.02 L24.98 308.58 ZM31.22 308.56 L35.9 308.54 L35.9 306.99 L31.21 307 L31.22 308.56 ZM37.46 308.54 L42.15
						 308.53 L42.14 306.97 L37.46 306.99 L37.46 308.54 ZM43.71 308.52 L48.39 308.51 L48.38 306.95 L43.7 306.96
						 L43.71 308.52 ZM49.95 308.5 L54.63 308.49 L54.63 306.93 L49.94 306.94 L49.95 308.5 ZM56.19 308.48 L60.88
						 308.47 L60.87 306.91 L56.19 306.93 L56.19 308.48 ZM62.44 308.46 L67.12 308.45 L67.11 306.89 L62.43 306.9
						 L62.44 308.46 ZM68.68 308.45 L73.36 308.43 L73.35 306.87 L68.67 306.89 L68.68 308.45 ZM74.92 308.42 L79.6
						 308.41 L79.6 306.85 L74.91 306.87 L74.92 308.42 ZM81.17 308.41 L85.85 308.39 L85.84 306.84 L81.16 306.85
						 L81.17 308.41 ZM87.41 308.39 L92.09 308.37 L92.08 306.81 L87.4 306.83 L87.41 308.39 ZM93.65 308.37 L98.33
						 308.36 L98.33 306.8 L93.64 306.81 L93.65 308.37 ZM99.89 308.35 L104.58 308.33 L104.57 306.78 L99.89 306.79
						 L99.89 308.35 ZM106.14 308.33 L110.82 308.31 L110.81 306.75 L106.13 306.77 L106.14 308.33 ZM112.38 308.31
						 L116.53 308.3 L116.52 306.74 L112.37 306.75 L112.38 308.31 ZM110.92 311.7 L118.07 307.51 L110.9 303.37 C110.53
						 303.15 110.05 303.28 109.84 303.65 C109.62 304.02 109.75 304.5 110.12 304.72 L116.13 308.19 L116.13 306.84
						 L110.14 310.36 C109.77 310.58 109.64 311.05 109.86 311.43 C110.08 311.79 110.56 311.92 110.92 311.7 Z"
					class="st9"/>
		</g>
		<g id="shape16-37" transform="translate(84.2989,-105.839)">
			<title>Sheet.16</title>
			<desc>VTMON</desc>
			<path d="M64.97 294.98 L0 294.98 L0 311.81 L64.97 311.81 L64.97 294.98" class="st3"/>
			<text x="6.7" y="307.6" class="st5">VTMON</text>		</g>
		<g id="shape17-41" transform="translate(171.79,-183.157)">
			<title>Sheet.17</title>
			<desc>Measured</desc>
			<path d="M89.35 294.98 L0 294.98 L0 311.81 L89.35 311.81 L89.35 294.98" class="st3"/>
			<text x="10.76" y="307.6" class="st10">Measured </text>		</g>
		<g id="shape18-45" transform="translate(161.825,-166.381)">
			<title>Sheet.18</title>
			<desc>temperature</desc>
			<path d="M106.57 294.98 L0 294.98 L0 311.81 L106.57 311.81 L106.57 294.98" class="st3"/>
			<text x="9.42" y="307.6" class="st10">temperature</text>		</g>
	</g>
</svg>
