<?xml version="1.0" encoding="UTF-8" standalone="no"?>
<!DOCTYPE svg PUBLIC "-//W3C//DTD SVG 1.1//EN" "http://www.w3.org/Graphics/SVG/1.1/DTD/svg11.dtd">
<!-- Generated by Microsoft Visio, SVG Export SingleCommCh.svg Page-1 -->
<svg xmlns="http://www.w3.org/2000/svg" xmlns:xlink="http://www.w3.org/1999/xlink" xmlns:ev="http://www.w3.org/2001/xml-events"
		width="6.85294in" height="3.84113in" viewBox="0 0 493.411 276.561" xml:space="preserve" color-interpolation-filters="sRGB"
		class="st22">
	<style type="text/css">
	<![CDATA[
		.st1 {fill:#bfbfbf;stroke:none;stroke-linecap:round;stroke-linejoin:round;stroke-width:0.75}
		.st2 {fill:#000000;font-family:Calibri;font-size:0.499992em;font-weight:bold}
		.st3 {font-size:1em}
		.st4 {fill:none;stroke:#000000;stroke-dasharray:5.25,3.75;stroke-linecap:round;stroke-linejoin:round;stroke-width:0.75}
		.st5 {fill:#000000;font-family:Calibri;font-size:0.499992em}
		.st6 {baseline-shift:32.4949%;font-size:0.649897em}
		.st7 {fill:#9dc3e6;stroke:none;stroke-linecap:round;stroke-linejoin:round;stroke-width:0.75}
		.st8 {fill:none;stroke:none;stroke-linecap:round;stroke-linejoin:round;stroke-width:0.75}
		.st9 {fill:#ffc000;stroke:none;stroke-linecap:round;stroke-linejoin:round;stroke-width:0.75}
		.st10 {marker-end:url(#mrkr1-50);marker-start:url(#mrkr1-48);stroke:#ff0000;stroke-linecap:round;stroke-linejoin:round;stroke-width:1}
		.st11 {fill:#ff0000;fill-opacity:1;stroke:#ff0000;stroke-opacity:1;stroke-width:0.28409090909091}
		.st12 {stroke:#ff0000;stroke-dasharray:1,2;stroke-linecap:round;stroke-linejoin:round;stroke-width:1}
		.st13 {marker-start:url(#mrkr1-48);stroke:#ff0000;stroke-linecap:round;stroke-linejoin:round;stroke-width:1}
		.st14 {marker-end:url(#mrkr1-89);marker-start:url(#mrkr1-87);stroke:#000000;stroke-linecap:round;stroke-linejoin:round;stroke-width:1}
		.st15 {fill:#000000;fill-opacity:1;stroke:#000000;stroke-opacity:1;stroke-width:0.28409090909091}
		.st16 {marker-end:url(#mrkr1-89);stroke:#000000;stroke-linecap:round;stroke-linejoin:round;stroke-width:1}
		.st17 {marker-start:url(#mrkr1-87);stroke:#000000;stroke-linecap:round;stroke-linejoin:round;stroke-width:1}
		.st18 {stroke:#000000;stroke-dasharray:0.75,1.5;stroke-linecap:round;stroke-linejoin:round;stroke-width:0.75}
		.st19 {marker-start:url(#mrkr1-181);stroke:#000000;stroke-linecap:round;stroke-linejoin:round;stroke-width:1}
		.st20 {fill:#000000;fill-opacity:1;stroke:#000000;stroke-opacity:1;stroke-width:0.35714285714286}
		.st21 {stroke:#000000;stroke-linecap:round;stroke-linejoin:round;stroke-width:1}
		.st22 {fill:none;fill-rule:evenodd;font-size:12px;overflow:visible;stroke-linecap:square;stroke-miterlimit:3}
	]]>
	</style>

	<defs id="Markers">
		<g id="lend1">
			<path d="M 1 -1 L 0 0 L 1 1 " style="stroke-linecap:round;stroke-linejoin:round;fill:none"/>
		</g>
		<marker id="mrkr1-48" class="st11" orient="auto" markerUnits="strokeWidth" overflow="visible">
			<use xlink:href="#lend1" transform="scale(3.52) "/>
		</marker>
		<marker id="mrkr1-50" class="st11" orient="auto" markerUnits="strokeWidth" overflow="visible">
			<use xlink:href="#lend1" transform="scale(-3.52,-3.52) "/>
		</marker>
		<marker id="mrkr1-87" class="st15" orient="auto" markerUnits="strokeWidth" overflow="visible">
			<use xlink:href="#lend1" transform="scale(3.52) "/>
		</marker>
		<marker id="mrkr1-89" class="st15" orient="auto" markerUnits="strokeWidth" overflow="visible">
			<use xlink:href="#lend1" transform="scale(-3.52,-3.52) "/>
		</marker>
		<marker id="mrkr1-181" class="st20" orient="auto" markerUnits="strokeWidth" overflow="visible">
			<use xlink:href="#lend1" transform="scale(2.8) "/>
		</marker>
	</defs>
	<g>
		<title>Page-1</title>
		<g id="shape1-1" transform="translate(428.296,-181.691)">
			<title>Sheet.1</title>
			<desc>GETH or PCIe External device</desc>
			<rect x="0" y="249.996" width="64.7404" height="26.5648" class="st1"/>
			<text x="4" y="259.4" class="st2">GETH or PCIe <tspan x="4" dy="1.2em" class="st3">External device</tspan></text>		</g>
		<g id="shape2-5" transform="translate(0.375,-0.375)">
			<title>Sheet.2</title>
			<desc>AURIXTM TC4xx MCU</desc>
			<path d="M0 276.56 L372.56 276.56 L372.56 0.75 L0 0.75 L0 276.56 Z" class="st4"/>
			<text x="4" y="10.15" class="st5">AURIX<tspan dy="-0.234em" class="st6">TM</tspan><tspan dy="0.152em" class="st3"> </tspan>TC4xx MCU</text>		</g>
		<g id="shape3-10" transform="translate(358.538,-24.8947)">
			<title>Sheet.3</title>
			<desc>Package</desc>
			<path d="M0 276.56 L0 31.65 L28.79 31.65 L28.79 276.56 L0 276.56 Z" class="st7"/>
			<text x="4.44" y="41.05" class="st5">Package</text>		</g>
		<g id="shape4-13" transform="translate(138.706,-148.772)">
			<title>Sheet.4</title>
			<desc>SRI</desc>
			<path d="M0 170.26 L0 276.56 L22.44 276.56 L22.44 170.26 L0 170.26 L0 170.26 Z" class="st1"/>
			<text x="4" y="179.66" class="st5">SRI</text>		</g>
		<g id="shape6-16" transform="translate(225.676,-14.9734)">
			<title>Sheet.6</title>
			<desc>Trigger</desc>
			<rect x="0" y="262.513" width="36.9035" height="14.0478" class="st8"/>
			<text x="9.89" y="271.34" class="st5">Trigger</text>		</g>
		<g id="shape7-19" transform="translate(428.296,-73.4076)">
			<title>Sheet.7</title>
			<desc>CAN, ERAY, QSPI, I2C or ASCLIN External device</desc>
			<rect x="0" y="249.996" width="64.7404" height="26.5648" class="st1"/>
			<text x="4" y="259.4" class="st2">CAN, ERAY, QSPI, I2C <tspan x="4" dy="1.2em" class="st3">or ASCLIN </tspan><tspan
						x="4" dy="1.2em" class="st3">External device</tspan></text>		</g>
		<g id="shape8-24" transform="translate(428.296,-141.115)">
			<title>Sheet.8</title>
			<desc>HSSL External device</desc>
			<rect x="0" y="249.996" width="64.7404" height="26.5648" class="st1"/>
			<text x="4" y="259.4" class="st2">HSSL <tspan x="4" dy="1.2em" class="st3">External device</tspan></text>		</g>
		<g id="shape10-28" transform="translate(202.485,-179.288)">
			<title>Sheet.10</title>
			<desc>GETH PCIe</desc>
			<path d="M0 240.37 L0 276.56 L53.4 276.56 L53.4 240.37 L0 240.37 L0 240.37 Z" class="st9"/>
			<text x="4" y="249.77" class="st5">GETH <tspan x="4" dy="1.2em" class="st3">PCIe</tspan></text>		</g>
		<g id="shape11-32" transform="translate(202.485,-144.884)">
			<title>Sheet.11</title>
			<desc>HSSL</desc>
			<path d="M0 250 L0 276.56 L53.4 276.56 L53.4 250 L0 250 L0 250 Z" class="st9"/>
			<text x="4" y="259.4" class="st5">HSSL</text>		</g>
		<g id="shape12-35" transform="translate(202.485,-37.556)">
			<title>Sheet.12</title>
			<desc>MCMCAN ERAY QSPI I2C ASCLIN</desc>
			<path d="M0 211.27 L0 276.56 L53.4 276.56 L53.4 211.27 L0 211.27 L0 211.27 Z" class="st9"/>
			<text x="4" y="220.67" class="st5">MCMCAN <tspan x="4" dy="1.2em" class="st3">ERAY </tspan><tspan x="4" dy="1.2em"
						class="st3">QSPI </tspan><tspan x="4" dy="1.2em" class="st3">I2C </tspan><tspan x="4" dy="1.2em"
						class="st3">ASCLIN</tspan></text>		</g>
		<g id="shape18-42" transform="translate(255.887,-155.288)">
			<title>Sheet.18</title>
			<path d="M0 276.56 L172.41 276.56" class="st10"/>
		</g>
		<g id="shape19-51" transform="translate(255.887,-194.973)">
			<title>Sheet.19</title>
			<path d="M0 276.56 L172.41 276.56" class="st10"/>
		</g>
		<g id="shape22-58" transform="translate(291.101,-179.288)">
			<title>Sheet.22</title>
			<desc>HSPHY</desc>
			<path d="M0 240.37 L0 276.56 L39.23 276.56 L39.23 240.37 L0 240.37 L0 240.37 Z" class="st9"/>
			<text x="4" y="249.77" class="st5">HSPHY</text>		</g>
		<g id="shape23-61" transform="translate(291.101,-194.973)">
			<title>Sheet.23</title>
			<path d="M0 276.56 L39.23 276.56" class="st12"/>
		</g>
		<g id="shape27-64" transform="translate(138.706,-70.2017)">
			<title>Sheet.27</title>
			<desc>FPI</desc>
			<path d="M0 205.65 L0 276.56 L22.44 276.56 L22.44 205.65 L0 205.65 L0 205.65 Z" class="st1"/>
			<text x="4" y="215.05" class="st5">FPI</text>		</g>
		<g id="shape28-67" transform="translate(271.249,-3.7647)">
			<title>Sheet.28</title>
			<desc>GTM/eGTM</desc>
			<rect x="0" y="249.996" width="46.3246" height="26.5648" class="st1"/>
			<text x="4" y="259.4" class="st5">GTM/eGTM</text>		</g>
		<g id="shape29-70" transform="translate(79.6945,-218.015)">
			<title>Sheet.29</title>
			<desc>IR</desc>
			<rect x="0" y="249.996" width="39.2286" height="26.5648" class="st1"/>
			<text x="4" y="259.4" class="st5">IR</text>		</g>
		<g id="shape30-73" transform="translate(79.6945,325.41) rotate(180)">
			<title>Sheet.30</title>
			<path d="M0 276.56 L41.96 276.56" class="st13"/>
		</g>
		<g id="shape32-78" transform="translate(28.7215,-67.4144)">
			<title>Sheet.32</title>
			<desc>CPU</desc>
			<path d="M0 145.03 L0 276.56 L64.74 276.56 L64.74 145.03 L0 145.03 L0 145.03 Z" class="st1"/>
			<text x="4" y="154.43" class="st5">CPU</text>		</g>
		<g id="shape33-81" transform="translate(160.441,-194.973)">
			<title>Sheet.33</title>
			<path d="M0 276.56 L42.04 276.56" class="st14"/>
		</g>
		<g id="shape34-90" transform="translate(161.145,-118.438)">
			<title>Sheet.34</title>
			<path d="M0 276.56 L41.34 276.56" class="st14"/>
		</g>
		<g id="shape37-97" transform="translate(93.4619,-177.966)">
			<title>Sheet.37</title>
			<path d="M0 276.56 L45.24 276.56" class="st14"/>
		</g>
		<g id="shape38-104" transform="translate(93.4619,-95.7608)">
			<title>Sheet.38</title>
			<path d="M0 276.56 L45.58 276.56" class="st14"/>
		</g>
		<g id="shape39-111" transform="translate(161.145,-84.4222)">
			<title>Sheet.39</title>
			<path d="M0 276.56 L41.34 276.56" class="st14"/>
		</g>
		<g id="shape40-118" transform="translate(223.745,-17.8081)">
			<title>Sheet.40</title>
			<path d="M0 276.56 L47.5 276.56" class="st16"/>
		</g>
		<g id="shape41-123" transform="translate(500.306,239.005) rotate(90)">
			<title>Sheet.41</title>
			<path d="M0 276.56 L19.75 276.56" class="st17"/>
		</g>
		<g id="shape43-128" transform="translate(168.232,-84.4222)">
			<title>Dynamic connector.95</title>
			<path d="M-7.09 276.56 L-17.62 276.56 L-17.62 234.04 L-7.09 234.04" class="st18"/>
		</g>
		<g id="shape44-131" transform="translate(154.059,-155.288)">
			<title>Dynamic connector.96</title>
			<path d="M7.09 276.56 L-3.54 276.56 L-3.54 187.5 L7.09 187.5" class="st18"/>
		</g>
		<g id="shape46-134" transform="translate(160.441,358.149) rotate(180)">
			<title>Sheet.46</title>
			<path d="M0 276.56 L10.4 276.56" class="st18"/>
		</g>
		<g id="shape47-137" transform="translate(138.706,-177.966)">
			<title>Sheet.47</title>
			<path d="M0 276.56 L11.34 276.56" class="st18"/>
		</g>
		<g id="shape48-140" transform="translate(7.48905,-3.7647)">
			<title>Sheet.48</title>
			<desc>Bus master and slave interfaces of each FB are not shown for ...</desc>
			<rect x="0" y="267.617" width="194.996" height="8.9437" class="st8"/>
			<text x="4" y="273.89" class="st5">Bus master and slave interfaces of each FB are not shown for simplicity</text>		</g>
		<g id="shape53-143" transform="translate(202.091,-223.32)">
			<title>Sheet.53</title>
			<desc>LETH</desc>
			<path d="M0 240.37 L0 276.56 L53.4 276.56 L53.4 240.37 L0 240.37 L0 240.37 Z" class="st9"/>
			<text x="4" y="249.77" class="st5">LETH</text>		</g>
		<g id="shape56-146" transform="translate(202.485,-110.825)">
			<title>Sheet.56</title>
			<desc>CANXL</desc>
			<path d="M0 250 L0 276.56 L53.4 276.56 L53.4 250 L0 250 L0 250 Z" class="st9"/>
			<text x="4" y="259.4" class="st5">CANXL</text>		</g>
		<g id="shape57-149" transform="translate(255.887,-87.2569)">
			<title>Sheet.57</title>
			<path d="M0 276.56 L172.41 276.56" class="st10"/>
		</g>
		<g id="shape80-156" transform="translate(255.887,-124.107)">
			<title>Sheet.80</title>
			<path d="M0 276.56 L172.41 276.56" class="st10"/>
		</g>
		<g id="shape21-163" transform="translate(291.101,-46.1545)">
			<title>Sheet.21</title>
			<desc>PORTS</desc>
			<path d="M0 150.99 L0 276.56 L39.23 276.56 L39.23 150.99 L0 150.99 L0 150.99 Z" class="st9"/>
			<text x="4" y="160.39" class="st5">PORTS</text>		</g>
		<g id="shape58-166" transform="translate(292.344,-87.2569)">
			<title>Sheet.58</title>
			<path d="M0 276.56 L39.23 276.56" class="st12"/>
		</g>
		<g id="shape59-169" transform="translate(161.145,-163.792)">
			<title>Sheet.59</title>
			<path d="M0 276.56 L41.34 276.56" class="st14"/>
		</g>
		<g id="shape60-176" transform="translate(161.145,-155.288)">
			<title>Sheet.60</title>
			<path d="M0 276.56 L9.31 276.56" class="st19"/>
		</g>
		<g id="shape62-182" transform="translate(161.145,-126.942)">
			<title>Sheet.62</title>
			<path d="M0 276.56 L9.31 276.56" class="st19"/>
		</g>
		<g id="shape63-187" transform="translate(161.145,-244.353)">
			<title>Sheet.63</title>
			<path d="M0 276.56 L42.04 276.56" class="st14"/>
		</g>
		<g id="shape64-194" transform="translate(161.145,389.33) rotate(180)">
			<title>Sheet.64</title>
			<path d="M0 276.56 L10.63 276.56" class="st18"/>
		</g>
		<g id="shape65-197" transform="translate(161.145,434.684) rotate(180)">
			<title>Sheet.65</title>
			<path d="M0 276.56 L10.53 276.56" class="st18"/>
		</g>
		<g id="shape66-200" transform="translate(139.044,-95.7608)">
			<title>Sheet.66</title>
			<path d="M0 276.56 L11.57 276.56" class="st18"/>
		</g>
		<g id="shape67-203" transform="translate(202.485,397.834) rotate(180)">
			<title>Sheet.67</title>
			<path d="M0 276.56 L9.35 276.56" class="st19"/>
		</g>
		<g id="shape68-208" transform="translate(202.485,426.18) rotate(180)">
			<title>Sheet.68</title>
			<path d="M0 276.56 L9.35 276.56" class="st19"/>
		</g>
		<g id="shape69-213" transform="translate(386.412,-51.4937) rotate(51.3402)">
			<title>Sheet.69</title>
			<path d="M0 276.56 L36.3 276.56" class="st21"/>
		</g>
		<g id="shape70-216" transform="translate(409.089,294.039) rotate(128.66)">
			<title>Sheet.70</title>
			<path d="M0 276.56 L36.3 276.56" class="st21"/>
		</g>
		<g id="shape71-219" transform="translate(255.493,-241.543)">
			<title>Sheet.71</title>
			<path d="M0 276.56 L172.41 276.56" class="st10"/>
		</g>
		<g id="shape54-226" transform="translate(291.101,-224.191)">
			<title>Sheet.54</title>
			<desc>PORTS</desc>
			<path d="M0 240.37 L0 276.56 L39.23 276.56 L39.23 240.37 L0 240.37 L0 240.37 Z" class="st9"/>
			<text x="4" y="249.77" class="st5">PORTS</text>		</g>
		<g id="shape55-229" transform="translate(290.926,-241.543)">
			<title>Sheet.55</title>
			<path d="M0 276.56 L39.23 276.56" class="st12"/>
		</g>
		<g id="shape72-232" transform="translate(290.926,-155.288)">
			<title>Sheet.72</title>
			<path d="M0 276.56 L39.23 276.56" class="st12"/>
		</g>
		<g id="shape73-235" transform="translate(428.296,-226.155)">
			<title>Sheet.73</title>
			<desc>LETH External device</desc>
			<rect x="0" y="249.996" width="64.7404" height="26.5648" class="st1"/>
			<text x="4" y="259.4" class="st2">LETH <tspan x="4" dy="1.2em" class="st3">External device</tspan></text>		</g>
		<g id="shape74-239" transform="translate(28.7215,-221.376)">
			<title>Sheet.74</title>
			<desc>From any comm. peripheral</desc>
			<rect x="0" y="263.279" width="53.4019" height="13.2824" class="st8"/>
			<text x="4" y="268.12" class="st5">From any comm.  <tspan x="4" dy="1.2em" class="st3">peripheral</tspan></text>		</g>
		<g id="shape76-243" transform="translate(118.945,-33.9682)">
			<title>Sheet.76</title>
			<desc>SCU</desc>
			<rect x="0" y="249.996" width="46.3246" height="26.5648" class="st1"/>
			<text x="4" y="259.4" class="st5">SCU</text>		</g>
		<g id="shape77-246" transform="translate(165.27,-49.1384)">
			<title>Sheet.77</title>
			<path d="M0 276.56 L37.22 276.56" class="st16"/>
		</g>
		<g id="shape78-251" transform="translate(167.172,-42.028)">
			<title>Sheet.78</title>
			<desc>STPWT (ERAY)</desc>
			<rect x="0" y="262.513" width="28.7936" height="14.0478" class="st8"/>
			<text x="5.88" y="267.74" class="st5">STPWT <tspan x="6.29" dy="1.2em" class="st3">(ERAY)</tspan></text>		</g>
		<g id="shape79-255" transform="translate(428.296,-108.314)">
			<title>Sheet.79</title>
			<desc>CANXL External device</desc>
			<rect x="0" y="249.996" width="64.7404" height="26.5648" class="st1"/>
			<text x="4" y="259.4" class="st2">CANXL <tspan x="4" dy="1.2em" class="st3">External device</tspan></text>		</g>
		<g id="shape81-259" transform="translate(290.926,-124.107)">
			<title>Sheet.81</title>
			<path d="M0 276.56 L39.23 276.56" class="st12"/>
		</g>
	</g>
</svg>
