<?xml version="1.0" encoding="UTF-8" standalone="no"?>
<!DOCTYPE svg PUBLIC "-//W3C//DTD SVG 1.1//EN" "http://www.w3.org/Graphics/SVG/1.1/DTD/svg11.dtd">
<!-- Generated by Microsoft Visio, SVG Export Alarm_LLI.svg Alarm_LLI -->
<svg xmlns="http://www.w3.org/2000/svg" xmlns:xlink="http://www.w3.org/1999/xlink" xmlns:ev="http://www.w3.org/2001/xml-events"
		xmlns:v="http://schemas.microsoft.com/visio/2003/SVGExtensions/" width="15.019in" height="6.82451in"
		viewBox="0 0 1081.37 491.365" xml:space="preserve" color-interpolation-filters="sRGB" class="st14">
	<v:documentProperties v:langID="1031" v:metric="true" v:viewMarkup="false">
		<v:userDefs>
			<v:ud v:nameU="msvNoAutoConnect" v:val="VT0(1):26"/>
		</v:userDefs>
	</v:documentProperties>

	<style type="text/css">
	<![CDATA[
		.st1 {fill:#d8d8d8;stroke:#000000;stroke-linecap:round;stroke-linejoin:round;stroke-width:0.75}
		.st2 {fill:#000000;font-family:Calibri;font-size:1.00001em}
		.st3 {fill:#789440;stroke:#000000;stroke-linecap:round;stroke-linejoin:round;stroke-width:0.75}
		.st4 {fill:#e5b9b5;stroke:#000000;stroke-linecap:round;stroke-linejoin:round;stroke-width:0.75}
		.st5 {font-size:1em}
		.st6 {fill:#ffffff;fill-opacity:0;stroke:#000000;stroke-dasharray:5.25,3.75;stroke-linecap:round;stroke-linejoin:round;stroke-width:0.75}
		.st7 {fill:#ffd965;stroke:#000000;stroke-linecap:round;stroke-linejoin:round;stroke-width:0.75}
		.st8 {fill:#f59d56;stroke:#000000;stroke-linecap:round;stroke-linejoin:round;stroke-width:0.75}
		.st9 {fill:#000000;font-family:Calibri;font-size:0.833336em}
		.st10 {fill:none;stroke:none;stroke-linecap:round;stroke-linejoin:round;stroke-width:0.75}
		.st11 {marker-end:url(#mrkr13-243);stroke:#ff0000;stroke-linecap:round;stroke-linejoin:round;stroke-width:2.25}
		.st12 {fill:#ff0000;fill-opacity:1;stroke:#ff0000;stroke-opacity:1;stroke-width:0.47169811320755}
		.st13 {stroke:#000000;stroke-linecap:round;stroke-linejoin:round;stroke-width:0.75}
		.st14 {fill:none;fill-rule:evenodd;font-size:12px;overflow:visible;stroke-linecap:square;stroke-miterlimit:3}
	]]>
	</style>

	<defs id="Markers">
		<g id="lend13">
			<path d="M 3 1 L 0 0 L 3 -1 L 3 1 " style="stroke:none"/>
		</g>
		<marker id="mrkr13-243" class="st12" v:arrowType="13" v:arrowSize="2" v:setback="6.36" refX="-6.36" orient="auto"
				markerUnits="strokeWidth" overflow="visible">
			<use xlink:href="#lend13" transform="scale(-2.12,-2.12) "/>
		</marker>
	</defs>
	<g v:mID="74" v:index="15" v:groupContext="foregroundPage">
		<title>Alarm_LLI</title>
		<v:pageProperties v:drawingScale="0.0393701" v:pageScale="0.0393701" v:drawingUnits="24" v:shadowOffsetX="8.50394"
				v:shadowOffsetY="-8.50394"/>
		<v:layer v:name="Electrical" v:index="0"/>
		<g id="shape1-1" v:mID="1" v:groupContext="shape" transform="translate(28.2963,-181.853)">
			<title>Sheet.1</title>
			<desc>LLI</desc>
			<v:textBlock v:margins="rect(4,4,4,4)" v:tabSpace="42.5197"/>
			<v:textRect cx="496.063" cy="420.499" width="992.13" height="141.732"/>
			<rect x="0" y="349.633" width="992.126" height="141.732" class="st1"/>
			<text x="489.51" y="424.1" class="st2" v:langID="1031"><v:paragraph v:horizAlign="1"/><v:tabList/>LLI</text>		</g>
		<g id="shape2-4" v:mID="2" v:groupContext="shape" transform="translate(949.556,-281.065)">
			<title>Sheet.2</title>
			<desc>M2(S2L)</desc>
			<v:textBlock v:margins="rect(4,4,4,4)" v:tabSpace="42.5197"/>
			<v:textRect cx="28.3465" cy="470.105" width="56.7" height="42.5197"/>
			<rect x="0" y="448.845" width="56.6929" height="42.5197" class="st3"/>
			<text x="8.22" y="473.71" class="st2" v:langID="1031"><v:paragraph v:horizAlign="1"/><v:tabList/>M2(S2L)</text>		</g>
		<g id="shape3-7" v:mID="3" v:groupContext="shape" transform="translate(782.312,-281.065)">
			<title>Sheet.3</title>
			<desc>M1(LBU)</desc>
			<v:textBlock v:margins="rect(4,4,4,4)" v:tabSpace="42.5197"/>
			<v:textRect cx="28.3465" cy="470.105" width="56.7" height="42.5197"/>
			<rect x="0" y="448.845" width="56.6929" height="42.5197" class="st3"/>
			<text x="6.9" y="473.71" class="st2" v:langID="1031"><v:paragraph v:horizAlign="1"/><v:tabList/>M1(LBU)</text>		</g>
		<g id="shape4-10" v:mID="4" v:groupContext="shape" transform="translate(592.391,-281.065)">
			<title>Sheet.4</title>
			<desc>S4 (STUDMI)</desc>
			<v:textBlock v:margins="rect(4,4,4,4)" v:tabSpace="42.5197"/>
			<v:textRect cx="28.3465" cy="470.105" width="56.7" height="42.5197"/>
			<rect x="0" y="448.845" width="56.6929" height="42.5197" class="st4"/>
			<text x="22.55" y="466.51" class="st2" v:langID="1031"><v:paragraph v:horizAlign="1"/><v:tabList/>S4 <tspan x="4.84"
						dy="1.2em" class="st5">(</tspan>STUDMI)</text>		</g>
		<g id="shape5-14" v:mID="5" v:groupContext="shape" transform="translate(425.147,-281.065)">
			<title>Sheet.5</title>
			<desc>S5 (Safety Monitor)</desc>
			<v:textBlock v:margins="rect(4,4,4,4)" v:tabSpace="42.5197"/>
			<v:textRect cx="28.3465" cy="470.105" width="56.7" height="42.5197"/>
			<rect x="0" y="448.845" width="56.6929" height="42.5197" class="st4"/>
			<text x="4.2" y="466.51" class="st2" v:langID="1031"><v:paragraph v:horizAlign="1"/><v:tabList/>S5 (Safety <tspan
						x="6.44" dy="1.2em" class="st5">Monitor</tspan>)</text>		</g>
		<g id="shape6-18" v:mID="6" v:groupContext="shape" transform="translate(255.068,-281.065)">
			<title>Sheet.6</title>
			<desc>S6 (Debug)</desc>
			<v:textBlock v:margins="rect(4,4,4,4)" v:tabSpace="42.5197"/>
			<v:textRect cx="28.3465" cy="470.105" width="56.7" height="42.5197"/>
			<rect x="0" y="448.845" width="56.6929" height="42.5197" class="st4"/>
			<text x="22.55" y="466.51" class="st2" v:langID="1031"><v:paragraph v:horizAlign="1"/><v:tabList/>S6 <tspan x="8.9"
						dy="1.2em" class="st5">(</tspan>Debug)</text>		</g>
		<g id="shape7-22" v:mID="7" v:groupContext="shape" transform="translate(73.6506,-281.065)">
			<title>Sheet.7</title>
			<desc>S7 (PPU SFR)</desc>
			<v:textBlock v:margins="rect(4,4,4,4)" v:tabSpace="42.5197"/>
			<v:textRect cx="28.3465" cy="470.105" width="56.7" height="42.5197"/>
			<rect x="0" y="448.845" width="56.6929" height="42.5197" class="st4"/>
			<text x="9.32" y="466.51" class="st2" v:langID="1031"><v:paragraph v:horizAlign="1"/><v:tabList/>S7 (PPU <tspan
						x="17.76" dy="1.2em" class="st5">SFR</tspan>)</text>		</g>
		<g id="shape8-26" v:mID="8" v:groupContext="shape" transform="translate(99.1624,-181.853)">
			<title>Sheet.8</title>
			<desc>S3 (eGTM)</desc>
			<v:textBlock v:margins="rect(4,4,4,4)" v:tabSpace="42.5197"/>
			<v:textRect cx="28.3465" cy="470.105" width="56.7" height="42.5197"/>
			<rect x="0" y="448.845" width="56.6929" height="42.5197" class="st4"/>
			<text x="22.55" y="466.51" class="st2" v:langID="1031"><v:paragraph v:horizAlign="1"/><v:tabList/>S3 <tspan x="9.88"
						dy="1.2em" class="st5">(</tspan>eGTM)</text>		</g>
		<g id="shape9-30" v:mID="9" v:groupContext="shape" transform="translate(269.241,-181.853)">
			<title>Sheet.9</title>
			<desc>S2 (eGTM wrapper)</desc>
			<v:textBlock v:margins="rect(4,4,4,4)" v:tabSpace="42.5197"/>
			<v:textRect cx="28.3465" cy="470.105" width="56.7" height="42.5197"/>
			<rect x="0" y="448.845" width="56.6929" height="42.5197" class="st4"/>
			<text x="4.55" y="466.51" class="st2" v:langID="1031"><v:paragraph v:horizAlign="1"/><v:tabList/>S2 (eGTM <tspan
						x="5.89" dy="1.2em" class="st5">wrapper</tspan>)</text>		</g>
		<g id="shape10-34" v:mID="10" v:groupContext="shape" transform="translate(850.344,-181.853)">
			<title>Sheet.10</title>
			<desc>S1(TMADC)</desc>
			<v:textBlock v:margins="rect(4,4,4,4)" v:tabSpace="42.5197"/>
			<v:textRect cx="28.3465" cy="470.105" width="56.7" height="42.5197"/>
			<rect x="0" y="448.845" width="56.6929" height="42.5197" class="st4"/>
			<text x="5.51" y="466.51" class="st2" v:langID="1031"><v:paragraph v:horizAlign="1"/><v:tabList/>S1(TMAD<tspan
						x="23.33" dy="1.2em" class="st5">C</tspan>)</text>		</g>
		<g id="shape17-38" v:mID="17" v:groupContext="shape" transform="translate(712.863,-349.097)">
			<title>Sheet.17</title>
			<path d="M0 491.36 L161.57 491.36 L161.57 427.59 L0 427.59 L0 491.36 Z" class="st6"/>
		</g>
		<g id="shape12-40" v:mID="12" v:groupContext="shape" transform="translate(723.139,-370.532)">
			<title>Sheet.12</title>
			<desc>En</desc>
			<v:textBlock v:margins="rect(4,4,4,4)" v:tabSpace="42.5197"/>
			<v:textRect cx="10.6299" cy="480.026" width="21.26" height="22.6772"/>
			<rect x="0" y="468.688" width="21.2598" height="22.6772" class="st7"/>
			<text x="4.55" y="483.63" class="st2" v:langID="1031"><v:paragraph v:horizAlign="1"/><v:tabList/>En</text>		</g>
		<g id="shape13-43" v:mID="13" v:groupContext="shape" transform="translate(755.029,-370.532)">
			<title>Sheet.13</title>
			<desc>En</desc>
			<v:textBlock v:margins="rect(4,4,4,4)" v:tabSpace="42.5197"/>
			<v:textRect cx="10.6299" cy="480.026" width="21.26" height="22.6772"/>
			<rect x="0" y="468.688" width="21.2598" height="22.6772" class="st7"/>
			<text x="4.55" y="483.63" class="st2" v:langID="1031"><v:paragraph v:horizAlign="1"/><v:tabList/>En</text>		</g>
		<g id="shape14-46" v:mID="14" v:groupContext="shape" transform="translate(783.375,-370.532)">
			<title>Sheet.14</title>
			<desc>En</desc>
			<v:textBlock v:margins="rect(4,4,4,4)" v:tabSpace="42.5197"/>
			<v:textRect cx="10.6299" cy="480.026" width="21.26" height="22.6772"/>
			<rect x="0" y="468.688" width="21.2598" height="22.6772" class="st7"/>
			<text x="4.55" y="483.63" class="st2" v:langID="1031"><v:paragraph v:horizAlign="1"/><v:tabList/>En</text>		</g>
		<g id="shape15-49" v:mID="15" v:groupContext="shape" transform="translate(811.721,-370.532)">
			<title>Sheet.15</title>
			<desc>De</desc>
			<v:textBlock v:margins="rect(4,4,4,4)" v:tabSpace="42.5197"/>
			<v:textRect cx="10.6299" cy="480.026" width="21.26" height="22.6772"/>
			<rect x="0" y="468.688" width="21.2598" height="22.6772" class="st8"/>
			<text x="5.07" y="483.03" class="st9" v:langID="1031"><v:paragraph v:horizAlign="1"/><v:tabList/>De</text>		</g>
		<g id="shape16-52" v:mID="16" v:groupContext="shape" transform="translate(842.903,-370.532)">
			<title>Sheet.16</title>
			<desc>De</desc>
			<v:textBlock v:margins="rect(4,4,4,4)" v:tabSpace="42.5197"/>
			<v:textRect cx="10.6299" cy="480.026" width="21.26" height="22.6772"/>
			<rect x="0" y="468.688" width="21.2598" height="22.6772" class="st8"/>
			<text x="5.07" y="483.03" class="st9" v:langID="1031"><v:paragraph v:horizAlign="1"/><v:tabList/>De</text>		</g>
		<g id="shape22-55" v:mID="22" v:groupContext="shape" transform="translate(897.115,-349.097)">
			<title>Sheet.22</title>
			<path d="M0 491.36 L161.57 491.36 L161.57 427.59 L0 427.59 L0 491.36 Z" class="st6"/>
		</g>
		<g id="shape24-57" v:mID="24" v:groupContext="shape" transform="translate(907.391,-370.532)">
			<title>Sheet.24</title>
			<desc>En</desc>
			<v:textBlock v:margins="rect(4,4,4,4)" v:tabSpace="42.5197"/>
			<v:textRect cx="10.6299" cy="480.026" width="21.26" height="22.6772"/>
			<rect x="0" y="468.688" width="21.2598" height="22.6772" class="st7"/>
			<text x="4.55" y="483.63" class="st2" v:langID="1031"><v:paragraph v:horizAlign="1"/><v:tabList/>En</text>		</g>
		<g id="shape25-60" v:mID="25" v:groupContext="shape" transform="translate(939.281,-370.532)">
			<title>Sheet.25</title>
			<desc>En</desc>
			<v:textBlock v:margins="rect(4,4,4,4)" v:tabSpace="42.5197"/>
			<v:textRect cx="10.6299" cy="480.026" width="21.26" height="22.6772"/>
			<rect x="0" y="468.688" width="21.2598" height="22.6772" class="st7"/>
			<text x="4.55" y="483.63" class="st2" v:langID="1031"><v:paragraph v:horizAlign="1"/><v:tabList/>En</text>		</g>
		<g id="shape26-63" v:mID="26" v:groupContext="shape" transform="translate(967.627,-370.532)">
			<title>Sheet.26</title>
			<desc>En</desc>
			<v:textBlock v:margins="rect(4,4,4,4)" v:tabSpace="42.5197"/>
			<v:textRect cx="10.6299" cy="480.026" width="21.26" height="22.6772"/>
			<rect x="0" y="468.688" width="21.2598" height="22.6772" class="st7"/>
			<text x="4.55" y="483.63" class="st2" v:langID="1031"><v:paragraph v:horizAlign="1"/><v:tabList/>En</text>		</g>
		<g id="shape27-66" v:mID="27" v:groupContext="shape" transform="translate(995.973,-370.532)">
			<title>Sheet.27</title>
			<desc>De</desc>
			<v:textBlock v:margins="rect(4,4,4,4)" v:tabSpace="42.5197"/>
			<v:textRect cx="10.6299" cy="480.026" width="21.26" height="22.6772"/>
			<rect x="0" y="468.688" width="21.2598" height="22.6772" class="st8"/>
			<text x="5.07" y="483.03" class="st9" v:langID="1031"><v:paragraph v:horizAlign="1"/><v:tabList/>De</text>		</g>
		<g id="shape28-69" v:mID="28" v:groupContext="shape" transform="translate(1027.15,-370.532)">
			<title>Sheet.28</title>
			<desc>De</desc>
			<v:textBlock v:margins="rect(4,4,4,4)" v:tabSpace="42.5197"/>
			<v:textRect cx="10.6299" cy="480.026" width="21.26" height="22.6772"/>
			<rect x="0" y="468.688" width="21.2598" height="22.6772" class="st8"/>
			<text x="5.07" y="483.03" class="st9" v:langID="1031"><v:paragraph v:horizAlign="1"/><v:tabList/>De</text>		</g>
		<g id="shape31-72" v:mID="31" v:groupContext="shape" transform="translate(797.903,-89.7268)">
			<title>Sheet.31</title>
			<path d="M0 491.36 L161.57 491.36 L161.57 427.59 L0 427.59 L0 491.36 Z" class="st6"/>
		</g>
		<g id="shape33-74" v:mID="33" v:groupContext="shape" transform="translate(808.178,-111.162)">
			<title>Sheet.33</title>
			<desc>De</desc>
			<v:textBlock v:margins="rect(4,4,4,4)" v:tabSpace="42.5197"/>
			<v:textRect cx="10.6299" cy="480.026" width="21.26" height="22.6772"/>
			<rect x="0" y="468.688" width="21.2598" height="22.6772" class="st8"/>
			<text x="5.07" y="483.03" class="st9" v:langID="1031"><v:paragraph v:horizAlign="1"/><v:tabList/>De</text>		</g>
		<g id="shape34-77" v:mID="34" v:groupContext="shape" transform="translate(840.068,-111.162)">
			<title>Sheet.34</title>
			<desc>De</desc>
			<v:textBlock v:margins="rect(4,4,4,4)" v:tabSpace="42.5197"/>
			<v:textRect cx="10.6299" cy="480.026" width="21.26" height="22.6772"/>
			<rect x="0" y="468.688" width="21.2598" height="22.6772" class="st8"/>
			<text x="5.07" y="483.03" class="st9" v:langID="1031"><v:paragraph v:horizAlign="1"/><v:tabList/>De</text>		</g>
		<g id="shape35-80" v:mID="35" v:groupContext="shape" transform="translate(868.414,-111.162)">
			<title>Sheet.35</title>
			<desc>De</desc>
			<v:textBlock v:margins="rect(4,4,4,4)" v:tabSpace="42.5197"/>
			<v:textRect cx="10.6299" cy="480.026" width="21.26" height="22.6772"/>
			<rect x="0" y="468.688" width="21.2598" height="22.6772" class="st8"/>
			<text x="5.07" y="483.03" class="st9" v:langID="1031"><v:paragraph v:horizAlign="1"/><v:tabList/>De</text>		</g>
		<g id="shape36-83" v:mID="36" v:groupContext="shape" transform="translate(896.761,-111.162)">
			<title>Sheet.36</title>
			<desc>En</desc>
			<v:textBlock v:margins="rect(4,4,4,4)" v:tabSpace="42.5197"/>
			<v:textRect cx="10.6299" cy="480.026" width="21.26" height="22.6772"/>
			<rect x="0" y="468.688" width="21.2598" height="22.6772" class="st7"/>
			<text x="5.56" y="483.03" class="st9" v:langID="1031"><v:paragraph v:horizAlign="1"/><v:tabList/>En</text>		</g>
		<g id="shape37-86" v:mID="37" v:groupContext="shape" transform="translate(927.942,-111.162)">
			<title>Sheet.37</title>
			<desc>En</desc>
			<v:textBlock v:margins="rect(4,4,4,4)" v:tabSpace="42.5197"/>
			<v:textRect cx="10.6299" cy="480.026" width="21.26" height="22.6772"/>
			<rect x="0" y="468.688" width="21.2598" height="22.6772" class="st7"/>
			<text x="5.56" y="483.03" class="st9" v:langID="1031"><v:paragraph v:horizAlign="1"/><v:tabList/>En</text>		</g>
		<g id="shape41-89" v:mID="41" v:groupContext="shape" transform="translate(218.218,-96.8134)">
			<title>Sheet.41</title>
			<path d="M0 491.36 L161.57 491.36 L161.57 427.59 L0 427.59 L0 491.36 Z" class="st6"/>
		</g>
		<g id="shape42-91" v:mID="42" v:groupContext="shape" transform="translate(228.493,-118.249)">
			<title>Sheet.42</title>
			<desc>De</desc>
			<v:textBlock v:margins="rect(4,4,4,4)" v:tabSpace="42.5197"/>
			<v:textRect cx="10.6299" cy="480.026" width="21.26" height="22.6772"/>
			<rect x="0" y="468.688" width="21.2598" height="22.6772" class="st8"/>
			<text x="5.07" y="483.03" class="st9" v:langID="1031"><v:paragraph v:horizAlign="1"/><v:tabList/>De</text>		</g>
		<g id="shape43-94" v:mID="43" v:groupContext="shape" transform="translate(260.383,-118.249)">
			<title>Sheet.43</title>
			<desc>De</desc>
			<v:textBlock v:margins="rect(4,4,4,4)" v:tabSpace="42.5197"/>
			<v:textRect cx="10.6299" cy="480.026" width="21.26" height="22.6772"/>
			<rect x="0" y="468.688" width="21.2598" height="22.6772" class="st8"/>
			<text x="5.07" y="483.03" class="st9" v:langID="1031"><v:paragraph v:horizAlign="1"/><v:tabList/>De</text>		</g>
		<g id="shape44-97" v:mID="44" v:groupContext="shape" transform="translate(288.729,-118.249)">
			<title>Sheet.44</title>
			<desc>De</desc>
			<v:textBlock v:margins="rect(4,4,4,4)" v:tabSpace="42.5197"/>
			<v:textRect cx="10.6299" cy="480.026" width="21.26" height="22.6772"/>
			<rect x="0" y="468.688" width="21.2598" height="22.6772" class="st8"/>
			<text x="5.07" y="483.03" class="st9" v:langID="1031"><v:paragraph v:horizAlign="1"/><v:tabList/>De</text>		</g>
		<g id="shape45-100" v:mID="45" v:groupContext="shape" transform="translate(317.076,-118.249)">
			<title>Sheet.45</title>
			<desc>De</desc>
			<v:textBlock v:margins="rect(4,4,4,4)" v:tabSpace="42.5197"/>
			<v:textRect cx="10.6299" cy="480.026" width="21.26" height="22.6772"/>
			<rect x="0" y="468.688" width="21.2598" height="22.6772" class="st8"/>
			<text x="5.07" y="483.03" class="st9" v:langID="1031"><v:paragraph v:horizAlign="1"/><v:tabList/>De</text>		</g>
		<g id="shape46-103" v:mID="46" v:groupContext="shape" transform="translate(348.257,-118.249)">
			<title>Sheet.46</title>
			<desc>En</desc>
			<v:textBlock v:margins="rect(4,4,4,4)" v:tabSpace="42.5197"/>
			<v:textRect cx="10.6299" cy="480.026" width="21.26" height="22.6772"/>
			<rect x="0" y="468.688" width="21.2598" height="22.6772" class="st7"/>
			<text x="5.56" y="483.03" class="st9" v:langID="1031"><v:paragraph v:horizAlign="1"/><v:tabList/>En</text>		</g>
		<g id="shape48-106" v:mID="48" v:groupContext="shape" transform="translate(28.2963,-96.8134)">
			<title>Sheet.48</title>
			<path d="M0 491.36 L161.57 491.36 L161.57 427.59 L0 427.59 L0 491.36 Z" class="st6"/>
		</g>
		<g id="shape49-108" v:mID="49" v:groupContext="shape" transform="translate(38.5719,-118.249)">
			<title>Sheet.49</title>
			<desc>De</desc>
			<v:textBlock v:margins="rect(4,4,4,4)" v:tabSpace="42.5197"/>
			<v:textRect cx="10.6299" cy="480.026" width="21.26" height="22.6772"/>
			<rect x="0" y="468.688" width="21.2598" height="22.6772" class="st8"/>
			<text x="5.07" y="483.03" class="st9" v:langID="1031"><v:paragraph v:horizAlign="1"/><v:tabList/>De</text>		</g>
		<g id="shape50-111" v:mID="50" v:groupContext="shape" transform="translate(70.4616,-118.249)">
			<title>Sheet.50</title>
			<desc>De</desc>
			<v:textBlock v:margins="rect(4,4,4,4)" v:tabSpace="42.5197"/>
			<v:textRect cx="10.6299" cy="480.026" width="21.26" height="22.6772"/>
			<rect x="0" y="468.688" width="21.2598" height="22.6772" class="st8"/>
			<text x="5.07" y="483.03" class="st9" v:langID="1031"><v:paragraph v:horizAlign="1"/><v:tabList/>De</text>		</g>
		<g id="shape51-114" v:mID="51" v:groupContext="shape" transform="translate(98.8081,-118.249)">
			<title>Sheet.51</title>
			<desc>De</desc>
			<v:textBlock v:margins="rect(4,4,4,4)" v:tabSpace="42.5197"/>
			<v:textRect cx="10.6299" cy="480.026" width="21.26" height="22.6772"/>
			<rect x="0" y="468.688" width="21.2598" height="22.6772" class="st8"/>
			<text x="5.07" y="483.03" class="st9" v:langID="1031"><v:paragraph v:horizAlign="1"/><v:tabList/>De</text>		</g>
		<g id="shape52-117" v:mID="52" v:groupContext="shape" transform="translate(127.155,-118.249)">
			<title>Sheet.52</title>
			<desc>En</desc>
			<v:textBlock v:margins="rect(4,4,4,4)" v:tabSpace="42.5197"/>
			<v:textRect cx="10.6299" cy="480.026" width="21.26" height="22.6772"/>
			<rect x="0" y="468.688" width="21.2598" height="22.6772" class="st7"/>
			<text x="5.56" y="483.03" class="st9" v:langID="1031"><v:paragraph v:horizAlign="1"/><v:tabList/>En</text>		</g>
		<g id="shape53-120" v:mID="53" v:groupContext="shape" transform="translate(158.336,-118.249)">
			<title>Sheet.53</title>
			<desc>En</desc>
			<v:textBlock v:margins="rect(4,4,4,4)" v:tabSpace="42.5197"/>
			<v:textRect cx="10.6299" cy="480.026" width="21.26" height="22.6772"/>
			<rect x="0" y="468.688" width="21.2598" height="22.6772" class="st7"/>
			<text x="5.56" y="483.03" class="st9" v:langID="1031"><v:paragraph v:horizAlign="1"/><v:tabList/>En</text>		</g>
		<g id="shape55-123" v:mID="55" v:groupContext="shape" transform="translate(18.375,-344.845)">
			<title>Sheet.55</title>
			<path d="M0 491.36 L161.57 491.36 L161.57 427.59 L0 427.59 L0 491.36 Z" class="st6"/>
		</g>
		<g id="shape56-125" v:mID="56" v:groupContext="shape" transform="translate(28.6506,-366.28)">
			<title>Sheet.56</title>
			<desc>De</desc>
			<v:textBlock v:margins="rect(4,4,4,4)" v:tabSpace="42.5197"/>
			<v:textRect cx="10.6299" cy="480.026" width="21.26" height="22.6772"/>
			<rect x="0" y="468.688" width="21.2598" height="22.6772" class="st8"/>
			<text x="5.07" y="483.03" class="st9" v:langID="1031"><v:paragraph v:horizAlign="1"/><v:tabList/>De</text>		</g>
		<g id="shape57-128" v:mID="57" v:groupContext="shape" transform="translate(60.5404,-366.28)">
			<title>Sheet.57</title>
			<desc>De</desc>
			<v:textBlock v:margins="rect(4,4,4,4)" v:tabSpace="42.5197"/>
			<v:textRect cx="10.6299" cy="480.026" width="21.26" height="22.6772"/>
			<rect x="0" y="468.688" width="21.2598" height="22.6772" class="st8"/>
			<text x="5.07" y="483.03" class="st9" v:langID="1031"><v:paragraph v:horizAlign="1"/><v:tabList/>De</text>		</g>
		<g id="shape58-131" v:mID="58" v:groupContext="shape" transform="translate(88.8868,-366.28)">
			<title>Sheet.58</title>
			<desc>De</desc>
			<v:textBlock v:margins="rect(4,4,4,4)" v:tabSpace="42.5197"/>
			<v:textRect cx="10.6299" cy="480.026" width="21.26" height="22.6772"/>
			<rect x="0" y="468.688" width="21.2598" height="22.6772" class="st8"/>
			<text x="5.07" y="483.03" class="st9" v:langID="1031"><v:paragraph v:horizAlign="1"/><v:tabList/>De</text>		</g>
		<g id="shape59-134" v:mID="59" v:groupContext="shape" transform="translate(117.233,-366.28)">
			<title>Sheet.59</title>
			<desc>En</desc>
			<v:textBlock v:margins="rect(4,4,4,4)" v:tabSpace="42.5197"/>
			<v:textRect cx="10.6299" cy="480.026" width="21.26" height="22.6772"/>
			<rect x="0" y="468.688" width="21.2598" height="22.6772" class="st7"/>
			<text x="5.56" y="483.03" class="st9" v:langID="1031"><v:paragraph v:horizAlign="1"/><v:tabList/>En</text>		</g>
		<g id="shape60-137" v:mID="60" v:groupContext="shape" transform="translate(148.414,-366.28)">
			<title>Sheet.60</title>
			<desc>En</desc>
			<v:textBlock v:margins="rect(4,4,4,4)" v:tabSpace="42.5197"/>
			<v:textRect cx="10.6299" cy="480.026" width="21.26" height="22.6772"/>
			<rect x="0" y="468.688" width="21.2598" height="22.6772" class="st7"/>
			<text x="5.56" y="483.03" class="st9" v:langID="1031"><v:paragraph v:horizAlign="1"/><v:tabList/>En</text>		</g>
		<g id="shape62-140" v:mID="62" v:groupContext="shape" transform="translate(218.218,-96.8134)">
			<title>Sheet.62</title>
			<path d="M0 491.36 L161.57 491.36 L161.57 427.59 L0 427.59 L0 491.36 Z" class="st6"/>
		</g>
		<g id="shape63-142" v:mID="63" v:groupContext="shape" transform="translate(228.493,-118.249)">
			<title>Sheet.63</title>
			<desc>De</desc>
			<v:textBlock v:margins="rect(4,4,4,4)" v:tabSpace="42.5197"/>
			<v:textRect cx="10.6299" cy="480.026" width="21.26" height="22.6772"/>
			<rect x="0" y="468.688" width="21.2598" height="22.6772" class="st8"/>
			<text x="5.07" y="483.03" class="st9" v:langID="1031"><v:paragraph v:horizAlign="1"/><v:tabList/>De</text>		</g>
		<g id="shape64-145" v:mID="64" v:groupContext="shape" transform="translate(260.383,-118.249)">
			<title>Sheet.64</title>
			<desc>De</desc>
			<v:textBlock v:margins="rect(4,4,4,4)" v:tabSpace="42.5197"/>
			<v:textRect cx="10.6299" cy="480.026" width="21.26" height="22.6772"/>
			<rect x="0" y="468.688" width="21.2598" height="22.6772" class="st8"/>
			<text x="5.07" y="483.03" class="st9" v:langID="1031"><v:paragraph v:horizAlign="1"/><v:tabList/>De</text>		</g>
		<g id="shape65-148" v:mID="65" v:groupContext="shape" transform="translate(288.729,-118.249)">
			<title>Sheet.65</title>
			<desc>De</desc>
			<v:textBlock v:margins="rect(4,4,4,4)" v:tabSpace="42.5197"/>
			<v:textRect cx="10.6299" cy="480.026" width="21.26" height="22.6772"/>
			<rect x="0" y="468.688" width="21.2598" height="22.6772" class="st8"/>
			<text x="5.07" y="483.03" class="st9" v:langID="1031"><v:paragraph v:horizAlign="1"/><v:tabList/>De</text>		</g>
		<g id="shape66-151" v:mID="66" v:groupContext="shape" transform="translate(317.076,-118.249)">
			<title>Sheet.66</title>
			<desc>En</desc>
			<v:textBlock v:margins="rect(4,4,4,4)" v:tabSpace="42.5197"/>
			<v:textRect cx="10.6299" cy="480.026" width="21.26" height="22.6772"/>
			<rect x="0" y="468.688" width="21.2598" height="22.6772" class="st7"/>
			<text x="5.56" y="483.03" class="st9" v:langID="1031"><v:paragraph v:horizAlign="1"/><v:tabList/>En</text>		</g>
		<g id="shape67-154" v:mID="67" v:groupContext="shape" transform="translate(348.257,-118.249)">
			<title>Sheet.67</title>
			<desc>En</desc>
			<v:textBlock v:margins="rect(4,4,4,4)" v:tabSpace="42.5197"/>
			<v:textRect cx="10.6299" cy="480.026" width="21.26" height="22.6772"/>
			<rect x="0" y="468.688" width="21.2598" height="22.6772" class="st7"/>
			<text x="5.56" y="483.03" class="st9" v:langID="1031"><v:paragraph v:horizAlign="1"/><v:tabList/>En</text>		</g>
		<g id="shape69-157" v:mID="69" v:groupContext="shape" transform="translate(192.706,-344.845)">
			<title>Sheet.69</title>
			<path d="M0 491.36 L161.57 491.36 L161.57 427.59 L0 427.59 L0 491.36 Z" class="st6"/>
		</g>
		<g id="shape70-159" v:mID="70" v:groupContext="shape" transform="translate(202.981,-366.28)">
			<title>Sheet.70</title>
			<desc>De</desc>
			<v:textBlock v:margins="rect(4,4,4,4)" v:tabSpace="42.5197"/>
			<v:textRect cx="10.6299" cy="480.026" width="21.26" height="22.6772"/>
			<rect x="0" y="468.688" width="21.2598" height="22.6772" class="st8"/>
			<text x="5.07" y="483.03" class="st9" v:langID="1031"><v:paragraph v:horizAlign="1"/><v:tabList/>De</text>		</g>
		<g id="shape71-162" v:mID="71" v:groupContext="shape" transform="translate(234.871,-366.28)">
			<title>Sheet.71</title>
			<desc>De</desc>
			<v:textBlock v:margins="rect(4,4,4,4)" v:tabSpace="42.5197"/>
			<v:textRect cx="10.6299" cy="480.026" width="21.26" height="22.6772"/>
			<rect x="0" y="468.688" width="21.2598" height="22.6772" class="st8"/>
			<text x="5.07" y="483.03" class="st9" v:langID="1031"><v:paragraph v:horizAlign="1"/><v:tabList/>De</text>		</g>
		<g id="shape72-165" v:mID="72" v:groupContext="shape" transform="translate(263.218,-366.28)">
			<title>Sheet.72</title>
			<desc>De</desc>
			<v:textBlock v:margins="rect(4,4,4,4)" v:tabSpace="42.5197"/>
			<v:textRect cx="10.6299" cy="480.026" width="21.26" height="22.6772"/>
			<rect x="0" y="468.688" width="21.2598" height="22.6772" class="st8"/>
			<text x="5.07" y="483.03" class="st9" v:langID="1031"><v:paragraph v:horizAlign="1"/><v:tabList/>De</text>		</g>
		<g id="shape73-168" v:mID="73" v:groupContext="shape" transform="translate(291.564,-366.28)">
			<title>Sheet.73</title>
			<desc>En</desc>
			<v:textBlock v:margins="rect(4,4,4,4)" v:tabSpace="42.5197"/>
			<v:textRect cx="10.6299" cy="480.026" width="21.26" height="22.6772"/>
			<rect x="0" y="468.688" width="21.2598" height="22.6772" class="st7"/>
			<text x="5.56" y="483.03" class="st9" v:langID="1031"><v:paragraph v:horizAlign="1"/><v:tabList/>En</text>		</g>
		<g id="shape74-171" v:mID="74" v:groupContext="shape" transform="translate(322.745,-366.28)">
			<title>Sheet.74</title>
			<desc>En</desc>
			<v:textBlock v:margins="rect(4,4,4,4)" v:tabSpace="42.5197"/>
			<v:textRect cx="10.6299" cy="480.026" width="21.26" height="22.6772"/>
			<rect x="0" y="468.688" width="21.2598" height="22.6772" class="st7"/>
			<text x="5.56" y="483.03" class="st9" v:langID="1031"><v:paragraph v:horizAlign="1"/><v:tabList/>En</text>		</g>
		<g id="shape76-174" v:mID="76" v:groupContext="shape" transform="translate(365.619,-344.845)">
			<title>Sheet.76</title>
			<path d="M0 491.36 L161.57 491.36 L161.57 427.59 L0 427.59 L0 491.36 Z" class="st6"/>
		</g>
		<g id="shape77-176" v:mID="77" v:groupContext="shape" transform="translate(375.895,-366.28)">
			<title>Sheet.77</title>
			<desc>De</desc>
			<v:textBlock v:margins="rect(4,4,4,4)" v:tabSpace="42.5197"/>
			<v:textRect cx="10.6299" cy="480.026" width="21.26" height="22.6772"/>
			<rect x="0" y="468.688" width="21.2598" height="22.6772" class="st8"/>
			<text x="5.07" y="483.03" class="st9" v:langID="1031"><v:paragraph v:horizAlign="1"/><v:tabList/>De</text>		</g>
		<g id="shape78-179" v:mID="78" v:groupContext="shape" transform="translate(407.784,-366.28)">
			<title>Sheet.78</title>
			<desc>De</desc>
			<v:textBlock v:margins="rect(4,4,4,4)" v:tabSpace="42.5197"/>
			<v:textRect cx="10.6299" cy="480.026" width="21.26" height="22.6772"/>
			<rect x="0" y="468.688" width="21.2598" height="22.6772" class="st8"/>
			<text x="5.07" y="483.03" class="st9" v:langID="1031"><v:paragraph v:horizAlign="1"/><v:tabList/>De</text>		</g>
		<g id="shape79-182" v:mID="79" v:groupContext="shape" transform="translate(436.131,-366.28)">
			<title>Sheet.79</title>
			<desc>De</desc>
			<v:textBlock v:margins="rect(4,4,4,4)" v:tabSpace="42.5197"/>
			<v:textRect cx="10.6299" cy="480.026" width="21.26" height="22.6772"/>
			<rect x="0" y="468.688" width="21.2598" height="22.6772" class="st8"/>
			<text x="5.07" y="483.03" class="st9" v:langID="1031"><v:paragraph v:horizAlign="1"/><v:tabList/>De</text>		</g>
		<g id="shape80-185" v:mID="80" v:groupContext="shape" transform="translate(464.477,-366.28)">
			<title>Sheet.80</title>
			<desc>En</desc>
			<v:textBlock v:margins="rect(4,4,4,4)" v:tabSpace="42.5197"/>
			<v:textRect cx="10.6299" cy="480.026" width="21.26" height="22.6772"/>
			<rect x="0" y="468.688" width="21.2598" height="22.6772" class="st7"/>
			<text x="5.56" y="483.03" class="st9" v:langID="1031"><v:paragraph v:horizAlign="1"/><v:tabList/>En</text>		</g>
		<g id="shape81-188" v:mID="81" v:groupContext="shape" transform="translate(495.658,-366.28)">
			<title>Sheet.81</title>
			<desc>En</desc>
			<v:textBlock v:margins="rect(4,4,4,4)" v:tabSpace="42.5197"/>
			<v:textRect cx="10.6299" cy="480.026" width="21.26" height="22.6772"/>
			<rect x="0" y="468.688" width="21.2598" height="22.6772" class="st7"/>
			<text x="5.56" y="483.03" class="st9" v:langID="1031"><v:paragraph v:horizAlign="1"/><v:tabList/>En</text>		</g>
		<g id="shape83-191" v:mID="83" v:groupContext="shape" transform="translate(532.863,-346.262)">
			<title>Sheet.83</title>
			<path d="M0 491.36 L161.57 491.36 L161.57 427.59 L0 427.59 L0 491.36 Z" class="st6"/>
		</g>
		<g id="shape84-193" v:mID="84" v:groupContext="shape" transform="translate(543.139,-367.698)">
			<title>Sheet.84</title>
			<desc>De</desc>
			<v:textBlock v:margins="rect(4,4,4,4)" v:tabSpace="42.5197"/>
			<v:textRect cx="10.6299" cy="480.026" width="21.26" height="22.6772"/>
			<rect x="0" y="468.688" width="21.2598" height="22.6772" class="st8"/>
			<text x="5.07" y="483.03" class="st9" v:langID="1031"><v:paragraph v:horizAlign="1"/><v:tabList/>De</text>		</g>
		<g id="shape85-196" v:mID="85" v:groupContext="shape" transform="translate(575.029,-367.698)">
			<title>Sheet.85</title>
			<desc>De</desc>
			<v:textBlock v:margins="rect(4,4,4,4)" v:tabSpace="42.5197"/>
			<v:textRect cx="10.6299" cy="480.026" width="21.26" height="22.6772"/>
			<rect x="0" y="468.688" width="21.2598" height="22.6772" class="st8"/>
			<text x="5.07" y="483.03" class="st9" v:langID="1031"><v:paragraph v:horizAlign="1"/><v:tabList/>De</text>		</g>
		<g id="shape86-199" v:mID="86" v:groupContext="shape" transform="translate(603.375,-367.698)">
			<title>Sheet.86</title>
			<desc>De</desc>
			<v:textBlock v:margins="rect(4,4,4,4)" v:tabSpace="42.5197"/>
			<v:textRect cx="10.6299" cy="480.026" width="21.26" height="22.6772"/>
			<rect x="0" y="468.688" width="21.2598" height="22.6772" class="st8"/>
			<text x="5.07" y="483.03" class="st9" v:langID="1031"><v:paragraph v:horizAlign="1"/><v:tabList/>De</text>		</g>
		<g id="shape87-202" v:mID="87" v:groupContext="shape" transform="translate(631.721,-367.698)">
			<title>Sheet.87</title>
			<desc>En</desc>
			<v:textBlock v:margins="rect(4,4,4,4)" v:tabSpace="42.5197"/>
			<v:textRect cx="10.6299" cy="480.026" width="21.26" height="22.6772"/>
			<rect x="0" y="468.688" width="21.2598" height="22.6772" class="st7"/>
			<text x="5.56" y="483.03" class="st9" v:langID="1031"><v:paragraph v:horizAlign="1"/><v:tabList/>En</text>		</g>
		<g id="shape88-205" v:mID="88" v:groupContext="shape" transform="translate(662.903,-367.698)">
			<title>Sheet.88</title>
			<desc>En</desc>
			<v:textBlock v:margins="rect(4,4,4,4)" v:tabSpace="42.5197"/>
			<v:textRect cx="10.6299" cy="480.026" width="21.26" height="22.6772"/>
			<rect x="0" y="468.688" width="21.2598" height="22.6772" class="st7"/>
			<text x="5.56" y="483.03" class="st9" v:langID="1031"><v:paragraph v:horizAlign="1"/><v:tabList/>En</text>		</g>
		<g id="shape119-208" v:mID="119" v:groupContext="shape" transform="translate(917.008,-61.4305)">
			<title>Sheet.119</title>
			<desc>LLI TMADC alarm</desc>
			<v:textBlock v:margins="rect(4,4,4,4)" v:tabSpace="42.5197"/>
			<v:textRect cx="49.6063" cy="480.026" width="99.22" height="22.6772"/>
			<rect x="0" y="468.688" width="99.2126" height="22.6772" class="st10"/>
			<text x="7.91" y="483.63" class="st2" v:langID="1031"><v:paragraph v:horizAlign="1"/><v:tabList/>LLI TMADC alarm</text>		</g>
		<g id="shape129-211" v:mID="129" v:groupContext="shape" transform="translate(289.134,-67.0998)">
			<title>Sheet.129</title>
			<desc>LLI eGTM Wrapper alarm</desc>
			<v:textBlock v:margins="rect(4,4,4,4)" v:tabSpace="42.5197"/>
			<v:textRect cx="49.6063" cy="480.026" width="99.22" height="22.6772"/>
			<rect x="0" y="468.688" width="99.2126" height="22.6772" class="st10"/>
			<text x="26.87" y="476.43" class="st2" v:langID="1031"><v:paragraph v:horizAlign="1"/><v:tabList/>LLI eGTM <tspan
						x="12.55" dy="1.2em" class="st5">Wrapper alarm</tspan></text>		</g>
		<g id="shape130-215" v:mID="130" v:groupContext="shape" transform="translate(100.63,-64.2652)">
			<title>Sheet.130</title>
			<desc>LLI eGTM alarm</desc>
			<v:textBlock v:margins="rect(4,4,4,4)" v:tabSpace="42.5197"/>
			<v:textRect cx="49.6063" cy="480.026" width="99.22" height="22.6772"/>
			<rect x="0" y="468.688" width="99.2126" height="22.6772" class="st10"/>
			<text x="11.5" y="483.63" class="st2" v:langID="1031"><v:paragraph v:horizAlign="1"/><v:tabList/>LLI eGTM alarm</text>		</g>
		<g id="shape131-218" v:mID="131" v:groupContext="shape" transform="translate(963.78,-418.596)">
			<title>Sheet.131</title>
			<desc>LLI S2L alarm</desc>
			<v:textBlock v:margins="rect(4,4,4,4)" v:tabSpace="42.5197"/>
			<v:textRect cx="49.6063" cy="480.026" width="99.22" height="22.6772"/>
			<rect x="0" y="468.688" width="99.2126" height="22.6772" class="st10"/>
			<text x="18.01" y="483.63" class="st2" v:langID="1031"><v:paragraph v:horizAlign="1"/><v:tabList/>LLI S2L alarm</text>		</g>
		<g id="shape132-221" v:mID="132" v:groupContext="shape" transform="translate(779.528,-418.596)">
			<title>Sheet.132</title>
			<desc>LLI LBU alarm</desc>
			<v:textBlock v:margins="rect(4,4,4,4)" v:tabSpace="42.5197"/>
			<v:textRect cx="49.6063" cy="480.026" width="99.22" height="22.6772"/>
			<rect x="0" y="468.688" width="99.2126" height="22.6772" class="st10"/>
			<text x="16.69" y="483.63" class="st2" v:langID="1031"><v:paragraph v:horizAlign="1"/><v:tabList/>LLI LBU alarm</text>		</g>
		<g id="shape133-224" v:mID="133" v:groupContext="shape" transform="translate(620.787,-418.596)">
			<title>Sheet.133</title>
			<desc>LLI STUDMI alarm</desc>
			<v:textBlock v:margins="rect(4,4,4,4)" v:tabSpace="42.5197"/>
			<v:textRect cx="49.6063" cy="480.026" width="99.22" height="22.6772"/>
			<rect x="0" y="468.688" width="99.2126" height="22.6772" class="st10"/>
			<text x="6.46" y="483.63" class="st2" v:langID="1031"><v:paragraph v:horizAlign="1"/><v:tabList/>LLI STUDMI alarm</text>		</g>
		<g id="shape134-227" v:mID="134" v:groupContext="shape" transform="translate(439.37,-417.157)">
			<title>Sheet.134</title>
			<desc>LLI Safety Monitor alarm</desc>
			<v:textBlock v:margins="rect(4,4,4,4)" v:tabSpace="42.5197"/>
			<v:textRect cx="47.4552" cy="480.026" width="94.92" height="22.6772"/>
			<rect x="0" y="468.688" width="94.9104" height="22.6772" class="st10"/>
			<text x="24.37" y="476.43" class="st2" v:langID="1031"><v:paragraph v:horizAlign="1"/><v:tabList/>LLI Safety <tspan
						x="12" dy="1.2em" class="st5">Monitor alarm</tspan></text>		</g>
		<g id="shape135-231" v:mID="135" v:groupContext="shape" transform="translate(255.118,-418.596)">
			<title>Sheet.135</title>
			<desc>LLI Debug alarm</desc>
			<v:textBlock v:margins="rect(4,4,4,4)" v:tabSpace="42.5197"/>
			<v:textRect cx="54.5669" cy="480.026" width="109.14" height="22.6772"/>
			<rect x="0" y="468.688" width="109.134" height="22.6772" class="st10"/>
			<text x="15.48" y="483.63" class="st2" v:langID="1031"><v:paragraph v:horizAlign="1"/><v:tabList/>LLI Debug alarm</text>		</g>
		<g id="shape136-234" v:mID="136" v:groupContext="shape" transform="translate(93.1388,-418.596)">
			<title>Sheet.136</title>
			<desc>LLI PPU SFRs alarm</desc>
			<v:textBlock v:margins="rect(4,4,4,4)" v:tabSpace="42.5197"/>
			<v:textRect cx="49.6063" cy="480.026" width="99.22" height="22.6772"/>
			<rect x="0" y="468.688" width="99.2126" height="22.6772" class="st10"/>
			<text x="19.17" y="476.43" class="st2" v:langID="1031"><v:paragraph v:horizAlign="1"/><v:tabList/>LLI PPU SFRs <tspan
						x="35.6" dy="1.2em" class="st5">alarm</tspan></text>		</g>
		<g id="shape137-238" v:mID="137" v:groupContext="shape" transform="translate(489.51,86.0675) rotate(-91.0809)">
			<title>Sheet.137</title>
			<path d="M0 491.36 L23.26 491.36" class="st11"/>
		</g>
		<g id="shape139-244" v:mID="139" v:groupContext="shape" transform="translate(298.88,86.7762) rotate(-91.0809)">
			<title>Sheet.139</title>
			<path d="M0 491.36 L23.26 491.36" class="st11"/>
		</g>
		<g id="shape140-249" v:mID="140" v:groupContext="shape" transform="translate(123.841,88.9021) rotate(-91.0809)">
			<title>Sheet.140</title>
			<path d="M0 491.36 L23.26 491.36" class="st11"/>
		</g>
		<g id="shape141-254" v:mID="141" v:groupContext="shape" transform="translate(-41.9862,91.7368) rotate(-91.0809)">
			<title>Sheet.141</title>
			<path d="M0 491.36 L23.26 491.36" class="st11"/>
		</g>
		<g id="shape142-259" v:mID="142" v:groupContext="shape" transform="translate(-223.404,89.6108) rotate(-91.0809)">
			<title>Sheet.142</title>
			<path d="M0 491.36 L23.26 491.36" class="st11"/>
		</g>
		<g id="shape143-264" v:mID="143" v:groupContext="shape" transform="translate(-392.774,89.6108) rotate(-91.0809)">
			<title>Sheet.143</title>
			<path d="M0 491.36 L23.26 491.36" class="st11"/>
		</g>
		<g id="shape144-269" v:mID="144" v:groupContext="shape" transform="translate(788.192,384.253) rotate(88.8309)">
			<title>Sheet.144</title>
			<path d="M0 491.36 L20.42 491.36" class="st11"/>
		</g>
		<g id="shape145-274" v:mID="145" v:groupContext="shape" transform="translate(597.562,385.67) rotate(88.8309)">
			<title>Sheet.145</title>
			<path d="M0 491.36 L20.42 491.36" class="st11"/>
		</g>
		<g id="shape146-279" v:mID="146" v:groupContext="shape" transform="translate(1373.55,392.757) rotate(88.8309)">
			<title>Sheet.146</title>
			<path d="M0 491.36 L20.42 491.36" class="st11"/>
		</g>
		<g id="shape147-284" v:mID="147" v:groupContext="shape" transform="translate(590.578,146.105) rotate(90)">
			<title>Sheet.147</title>
			<path d="M0 491.36 L19.28 491.36" class="st13"/>
		</g>
		<g id="shape150-287" v:mID="150" v:groupContext="shape" transform="translate(775.538,145.538) rotate(90)">
			<title>Sheet.150</title>
			<path d="M0 491.36 L19.28 491.36" class="st13"/>
		</g>
		<g id="shape151-290" v:mID="151" v:groupContext="shape" transform="translate(945.617,146.247) rotate(90)">
			<title>Sheet.151</title>
			<path d="M0 491.36 L19.28 491.36" class="st13"/>
		</g>
		<g id="shape152-293" v:mID="152" v:groupContext="shape" transform="translate(1110.74,146.247) rotate(90)">
			<title>Sheet.152</title>
			<path d="M0 491.36 L19.28 491.36" class="st13"/>
		</g>
		<g id="shape153-296" v:mID="153" v:groupContext="shape" transform="translate(1299.24,143.412) rotate(90)">
			<title>Sheet.153</title>
			<path d="M0 491.36 L19.28 491.36" class="st13"/>
		</g>
		<g id="shape154-299" v:mID="154" v:groupContext="shape" transform="translate(1467.19,144.83) rotate(90)">
			<title>Sheet.154</title>
			<path d="M0 491.36 L19.28 491.36" class="st13"/>
		</g>
		<g id="shape155-302" v:mID="155" v:groupContext="shape" transform="translate(618.924,308.53) rotate(90)">
			<title>Sheet.155</title>
			<path d="M0 491.36 L19.28 491.36" class="st13"/>
		</g>
		<g id="shape156-305" v:mID="156" v:groupContext="shape" transform="translate(793.255,308.53) rotate(90)">
			<title>Sheet.156</title>
			<path d="M0 491.36 L19.28 491.36" class="st13"/>
		</g>
		<g id="shape157-308" v:mID="157" v:groupContext="shape" transform="translate(1370.11,312.782) rotate(90)">
			<title>Sheet.157</title>
			<path d="M0 491.36 L19.28 491.36" class="st13"/>
		</g>
	</g>
</svg>
