<?xml version="1.0" encoding="UTF-8" standalone="no"?>
<!DOCTYPE svg PUBLIC "-//W3C//DTD SVG 1.1//EN" "http://www.w3.org/Graphics/SVG/1.1/DTD/svg11.dtd">
<!-- Generated by Microsoft Visio, SVG Export TC4xx_TUC_SingleInputRedADC.svg Page-1 -->
<svg xmlns="http://www.w3.org/2000/svg" xmlns:xlink="http://www.w3.org/1999/xlink" xmlns:ev="http://www.w3.org/2001/xml-events"
		width="7.09463in" height="3.7801in" viewBox="0 0 510.813 272.167" xml:space="preserve" color-interpolation-filters="sRGB"
		class="st23">
	<style type="text/css">
	<![CDATA[
		.st1 {fill:none;stroke:#000000;stroke-dasharray:5.25,3.75;stroke-linecap:round;stroke-linejoin:round;stroke-width:0.75}
		.st2 {fill:#000000;font-family:Calibri;font-size:0.499992em}
		.st3 {baseline-shift:32.4949%;font-size:0.649897em}
		.st4 {font-size:1em}
		.st5 {fill:#9dc3e6;stroke:none;stroke-linecap:round;stroke-linejoin:round;stroke-width:0.75}
		.st6 {fill:#ffc000;stroke:none;stroke-linecap:round;stroke-linejoin:round;stroke-width:0.75}
		.st7 {fill:#bfbfbf;stroke:none;stroke-linecap:round;stroke-linejoin:round;stroke-width:0.75}
		.st8 {fill:#000000;font-family:Calibri;font-size:0.499992em;font-weight:bold}
		.st9 {marker-end:url(#mrkr1-24);stroke:#ff0000;stroke-linecap:round;stroke-linejoin:round;stroke-width:1}
		.st10 {fill:#ff0000;fill-opacity:1;stroke:#ff0000;stroke-opacity:1;stroke-width:0.28409090909091}
		.st11 {stroke:#000000;stroke-dasharray:5.25,3.75;stroke-linecap:round;stroke-linejoin:round;stroke-width:0.75}
		.st12 {fill:none;stroke:none;stroke-linecap:round;stroke-linejoin:round;stroke-width:0.75}
		.st13 {marker-end:url(#mrkr1-58);marker-start:url(#mrkr1-56);stroke:#000000;stroke-linecap:round;stroke-linejoin:round;stroke-width:1}
		.st14 {fill:#000000;fill-opacity:1;stroke:#000000;stroke-opacity:1;stroke-width:0.28409090909091}
		.st15 {fill:#d8d8d8;stroke:none;stroke-linecap:round;stroke-linejoin:round;stroke-width:0.75}
		.st16 {stroke:#ff0000;stroke-linecap:round;stroke-linejoin:round;stroke-width:1}
		.st17 {baseline-shift:-32.4949%;font-size:0.649897em}
		.st18 {marker-end:url(#mrkr1-24);marker-start:url(#mrkr1-177);stroke:#ff0000;stroke-linecap:round;stroke-linejoin:round;stroke-width:1}
		.st19 {marker-end:url(#mrkr1-58);stroke:#000000;stroke-linecap:round;stroke-linejoin:round;stroke-width:1}
		.st20 {stroke:#000000;stroke-linecap:round;stroke-linejoin:round;stroke-width:1}
		.st21 {fill:none;stroke:#000000;stroke-linecap:round;stroke-linejoin:round;stroke-width:0.5}
		.st22 {stroke:#000000;stroke-linecap:round;stroke-linejoin:round;stroke-width:0.75}
		.st23 {fill:none;fill-rule:evenodd;font-size:12px;overflow:visible;stroke-linecap:square;stroke-miterlimit:3}
	]]>
	</style>

	<defs id="Markers">
		<g id="lend1">
			<path d="M 1 -1 L 0 0 L 1 1 " style="stroke-linecap:round;stroke-linejoin:round;fill:none"/>
		</g>
		<marker id="mrkr1-24" class="st10" orient="auto" markerUnits="strokeWidth" overflow="visible">
			<use xlink:href="#lend1" transform="scale(-3.52,-3.52) "/>
		</marker>
		<marker id="mrkr1-56" class="st14" orient="auto" markerUnits="strokeWidth" overflow="visible">
			<use xlink:href="#lend1" transform="scale(3.52) "/>
		</marker>
		<marker id="mrkr1-58" class="st14" orient="auto" markerUnits="strokeWidth" overflow="visible">
			<use xlink:href="#lend1" transform="scale(-3.52,-3.52) "/>
		</marker>
		<marker id="mrkr1-177" class="st10" orient="auto" markerUnits="strokeWidth" overflow="visible">
			<use xlink:href="#lend1" transform="scale(3.52) "/>
		</marker>
	</defs>
	<g>
		<title>Page-1</title>
		<g id="shape1-1" transform="translate(85.6249,-2.50098)">
			<title>Sheet.1</title>
			<desc>AURIXTM TC4xx MCU</desc>
			<path d="M0 272.17 L424.81 272.17 L424.81 2.88 L0 2.88 L0 272.17 Z" class="st1"/>
			<text x="4" y="12.28" class="st2">AURIX<tspan dy="-0.234em" class="st3">TM</tspan><tspan dy="0.152em" class="st4"> </tspan>TC4xx MCU</text>		</g>
		<g id="shape2-6" transform="translate(71.6132,-118.438)">
			<title>Sheet.2</title>
			<desc>Package</desc>
			<path d="M0 272.17 L0 157.08 L28.79 157.08 L28.79 272.17 L0 272.17 Z" class="st5"/>
			<text x="4.44" y="166.48" class="st2">Package</text>		</g>
		<g id="shape3-9" transform="translate(200.775,-71.3829)">
			<title>Sheet.3</title>
			<desc>ADC</desc>
			<path d="M0 110.03 L0 272.17 L161.23 272.17 L161.23 110.03 L0 110.03 L0 110.03 Z" class="st6"/>
			<text x="4" y="119.43" class="st2">ADC</text>		</g>
		<g id="shape4-12" transform="translate(390.349,-147.754)">
			<title>Sheet.4</title>
			<desc>FPI</desc>
			<rect x="0" y="151.65" width="22.7329" height="120.518" class="st7"/>
			<text x="4" y="161.05" class="st2">FPI</text>		</g>
		<g id="shape5-15" transform="translate(0.375,-187.405)">
			<title>Sheet.5</title>
			<desc>External analog signal source 1</desc>
			<rect x="0" y="247.308" width="49.4334" height="24.8596" class="st7"/>
			<text x="4" y="256.71" class="st8">External analog <tspan x="4" dy="1.2em" class="st4">signal source 1</tspan></text>		</g>
		<g id="shape6-19" transform="translate(49.8084,-200.926)">
			<title>Sheet.6</title>
			<path d="M0 272.17 L163.74 272.17" class="st9"/>
		</g>
		<g id="shape8-25" transform="translate(213.553,-186.753)">
			<title>Sheet.8</title>
			<desc>TMADC DSADC FCC</desc>
			<path d="M0 272.17 L0 244.63 L30.05 244.63 L30.05 272.17 L0 272.17 Z" class="st5"/>
			<text x="5.82" y="254.03" class="st2">TMADC <tspan x="6.62" dy="1.2em" class="st4">DSADC </tspan><tspan x="10.45"
						dy="1.2em" class="st4">FCC</tspan></text>		</g>
		<g id="shape9-30" transform="translate(405.996,-240.328)">
			<title>Dynamic connector.226</title>
			<path d="M7.09 272.17 L-4.24 272.17 L-4.24 351.28 L7.09 351.28" class="st11"/>
		</g>
		<g id="shape10-33" transform="translate(432.083,-210.847)">
			<title>Sheet.10</title>
			<desc>CPU</desc>
			<rect x="0" y="215.069" width="49.4334" height="57.0988" class="st7"/>
			<text x="4" y="224.47" class="st2">CPU</text>		</g>
		<g id="shape11-36" transform="translate(441.785,-57.7766)">
			<title>Sheet.11</title>
			<desc>PPU</desc>
			<rect x="0" y="229.648" width="49.4334" height="42.5197" class="st7"/>
			<text x="4" y="239.05" class="st2">PPU</text>		</g>
		<g id="shape12-39" transform="translate(432.486,-131.477)">
			<title>Sheet.12</title>
			<desc>DMA</desc>
			<rect x="0" y="215.069" width="49.4334" height="57.0988" class="st7"/>
			<text x="4" y="224.47" class="st2">DMA</text>		</g>
		<g id="shape13-42" transform="translate(365.422,-9.5876)">
			<title>Sheet.13</title>
			<desc>IR</desc>
			<rect x="0" y="229.648" width="49.4334" height="42.5197" class="st7"/>
			<text x="4" y="239.05" class="st2">IR</text>		</g>
		<g id="shape16-45" transform="translate(85.6249,-0.375)">
			<title>Sheet.16</title>
			<desc>*PPU direct access through LLI bus not available in all AURIX...</desc>
			<rect x="0" y="253.742" width="198.042" height="18.4252" class="st12"/>
			<text x="4" y="264.75" class="st2">*PPU direct access through LLI bus not available in all AURIX<tspan dy="-0.234em"
						class="st3">TM</tspan><tspan dy="0.152em" class="st4"> </tspan>TC4xx devices</text>		</g>
		<g id="shape17-50" transform="translate(390.647,357.582) rotate(180)">
			<title>Sheet.17</title>
			<path d="M0 272.17 L28.64 272.17" class="st13"/>
		</g>
		<g id="shape18-59" transform="translate(432.083,304.007) rotate(180)">
			<title>Sheet.18</title>
			<path d="M0 272.17 L19 272.17" class="st13"/>
		</g>
		<g id="shape19-66" transform="translate(432.486,-152.331)">
			<title>Sheet.19</title>
			<desc>FPI Master I/F</desc>
			<path d="M0 272.17 L0 255.64 L36.57 255.64 L36.57 272.17 L0 272.17 Z" class="st15"/>
			<text x="14.6" y="262.1" class="st2">FPI  <tspan x="5.59" dy="1.2em" class="st4">Master I/F</tspan></text>		</g>
		<g id="shape20-70" transform="translate(432.522,383.115) rotate(180)">
			<title>Sheet.20</title>
			<path d="M0 272.17 L19.44 272.17" class="st13"/>
		</g>
		<g id="shape21-77" transform="translate(440.989,467.618) rotate(180)">
			<title>Sheet.21</title>
			<path d="M0 272.17 L27.96 272.17" class="st13"/>
		</g>
		<g id="shape22-84" transform="translate(441.785,-68.7801)">
			<title>Sheet.22</title>
			<desc>M-LLI</desc>
			<path d="M0 272.17 L0 255.64 L28.79 255.64 L28.79 272.17 L0 272.17 Z" class="st15"/>
			<text x="7.64" y="265.7" class="st2">M-LLI</text>		</g>
		<g id="shape23-87" transform="translate(401.688,357.582) rotate(180)">
			<title>Sheet.23</title>
			<path d="M0 272.17 L11.04 272.17" class="st11"/>
		</g>
		<g id="shape24-90" transform="translate(243.6,-200.926)">
			<title>Sheet.24</title>
			<path d="M0 272.17 L19.76 272.17" class="st9"/>
		</g>
		<g id="shape25-95" transform="translate(313.814,343.408) rotate(180)">
			<title>Sheet.25</title>
			<path d="M0 272.17 L13.04 272.17" class="st16"/>
		</g>
		<g id="shape28-98" transform="translate(164.753,-200.643)">
			<title>Sheet.28</title>
			<desc>Mission ch.</desc>
			<rect x="0" y="263.663" width="36.5671" height="8.50394" class="st12"/>
			<text x="4" y="269.72" class="st2">Mission ch.</text>		</g>
		<g id="shape29-101" transform="translate(157.525,-101.43)">
			<title>Sheet.29</title>
			<desc>Monitoring ch.</desc>
			<rect x="0" y="263.663" width="45.3543" height="8.50394" class="st12"/>
			<text x="4" y="269.72" class="st2">Monitoring ch.</text>		</g>
		<g id="shape30-104" transform="translate(0.375,-140.024)">
			<title>Sheet.30</title>
			<desc>External reference VAREF</desc>
			<rect x="0" y="247.308" width="49.4334" height="24.8596" class="st7"/>
			<text x="4" y="256.71" class="st8">External <tspan x="4" dy="1.2em" class="st4">reference V</tspan><tspan dy="-0.284em"
						class="st17">AREF</tspan></text>		</g>
		<g id="shape32-109" transform="translate(115.856,-101.43)">
			<title>Sheet.32</title>
			<path d="M0 272.17 L96.19 272.17" class="st9"/>
		</g>
		<g id="shape33-114" transform="translate(212.05,-87.5404)">
			<title>Sheet.33</title>
			<desc>TMADC DSADC FCC</desc>
			<path d="M0 272.17 L0 244.63 L30.05 244.63 L30.05 272.17 L0 272.17 Z" class="st5"/>
			<text x="5.82" y="254.03" class="st2">TMADC <tspan x="6.62" dy="1.2em" class="st4">DSADC </tspan><tspan x="10.45"
						dy="1.2em" class="st4">FCC</tspan></text>		</g>
		<g id="shape34-119" transform="translate(264.208,-187.159)">
			<title>Sheet.34</title>
			<desc>CDSP (optional)</desc>
			<path d="M0 272.17 L0 244.63 L36.57 244.63 L36.57 272.17 L0 272.17 Z" class="st5"/>
			<text x="11.91" y="254.03" class="st2">CDSP <tspan x="6.33" dy="1.2em" class="st4">(optional)</tspan></text>		</g>
		<g id="shape35-123" transform="translate(264.208,-87.5404)">
			<title>Sheet.35</title>
			<desc>CDSP (optional)</desc>
			<path d="M0 272.17 L0 244.63 L36.57 244.63 L36.57 272.17 L0 272.17 Z" class="st5"/>
			<text x="11.91" y="254.03" class="st2">CDSP <tspan x="6.33" dy="1.2em" class="st4">(optional)</tspan></text>		</g>
		<g id="shape36-127" transform="translate(49.8084,-151.32)">
			<title>Sheet.36</title>
			<path d="M0 272.17 L177.55 272.17" class="st16"/>
		</g>
		<g id="shape37-130" transform="translate(331.956,-177.308)">
			<title>Sheet.37</title>
			<desc>FPI Slave I/F</desc>
			<path d="M0 272.17 L0 255.64 L30.05 255.64 L30.05 272.17 L0 272.17 Z" class="st5"/>
			<text x="11.34" y="262.1" class="st2">FPI  <tspan x="4.7" dy="1.2em" class="st4">Slave I/F</tspan></text>		</g>
		<g id="shape38-134" transform="translate(313.814,-185.336)">
			<title>Sheet.38</title>
			<path d="M0 272.17 L18.14 272.17" class="st9"/>
		</g>
		<g id="shape39-139" transform="translate(242.097,-101.714)">
			<title>Sheet.39</title>
			<path d="M0 272.17 L21.26 272.17" class="st9"/>
		</g>
		<g id="shape40-144" transform="translate(41.6465,171.871) rotate(-90)">
			<title>Sheet.40</title>
			<path d="M0 272.17 L100.63 272.17" class="st16"/>
		</g>
		<g id="shape41-147" transform="translate(313.814,-117.304)">
			<title>Sheet.41</title>
			<path d="M0 272.17 L18.14 272.17" class="st9"/>
		</g>
		<g id="shape42-152" transform="translate(300.775,-100.296)">
			<title>Sheet.42</title>
			<path d="M0 272.17 L13.04 272.17" class="st16"/>
		</g>
		<g id="shape43-155" transform="translate(331.956,-109.277)">
			<title>Sheet.43</title>
			<desc>S-LLI</desc>
			<path d="M0 272.17 L0 255.64 L30.05 255.64 L30.05 272.17 L0 272.17 Z" class="st5"/>
			<text x="9.45" y="265.7" class="st2">S-LLI</text>		</g>
		<g id="shape44-158" transform="translate(390.294,-69.1152)">
			<title>Sheet.44</title>
			<desc>LLI*</desc>
			<rect x="0" y="204.136" width="22.7329" height="68.0315" class="st7"/>
			<text x="4" y="213.54" class="st2">LLI*</text>		</g>
		<g id="shape45-161" transform="translate(390.294,-116.65)">
			<title>Dynamic connector.81</title>
			<path d="M0 272.17 L10.9 272.17 L10.9 312.1 L22.73 312.1" class="st11"/>
		</g>
		<g id="shape46-164" transform="translate(390.294,427.685) rotate(180)">
			<title>Sheet.46</title>
			<path d="M0 272.17 L28.64 272.17" class="st13"/>
		</g>
		<g id="shape47-171" transform="translate(-44.8102,157.092) rotate(-90)">
			<title>Sheet.47</title>
			<path d="M0 272.17 L71.68 272.17" class="st18"/>
		</g>
		<g id="shape48-179" transform="translate(88.249,-44.0505)">
			<title>Sheet.48</title>
			<desc>GTM eGTM</desc>
			<rect x="0" y="240.299" width="49.4334" height="31.8678" class="st7"/>
			<text x="4" y="249.7" class="st2">GTM <tspan x="4" dy="1.2em" class="st4">eGTM</tspan></text>		</g>
		<g id="shape49-183" transform="translate(432.202,-232.062)">
			<title>Sheet.49</title>
			<desc>FPI Master I/F</desc>
			<path d="M0 272.17 L0 255.64 L36.57 255.64 L36.57 272.17 L0 272.17 Z" class="st15"/>
			<text x="14.6" y="262.1" class="st2">FPI  <tspan x="5.59" dy="1.2em" class="st4">Master I/F</tspan></text>		</g>
		<g id="shape50-187" transform="translate(228.391,-222.186)">
			<title>Sheet.50</title>
			<path d="M0 272.17 L133.61 272.17" class="st9"/>
		</g>
		<g id="shape51-192" transform="translate(228.391,-80.4537)">
			<title>Sheet.51</title>
			<path d="M0 272.17 L133.61 272.17" class="st9"/>
		</g>
		<g id="shape52-197" transform="translate(500.558,49.9813) rotate(90)">
			<title>Sheet.52</title>
			<path d="M0 272.17 L7.9 272.17" class="st16"/>
		</g>
		<g id="shape53-200" transform="translate(-43.7763,191.714) rotate(-90)">
			<title>Sheet.53</title>
			<path d="M0 272.17 L7.09 272.17" class="st16"/>
		</g>
		<g id="shape54-203" transform="translate(10.082,191.714) rotate(-90)">
			<title>Sheet.54</title>
			<path d="M0 272.17 L7.09 272.17" class="st16"/>
		</g>
		<g id="shape55-206" transform="translate(554.417,49.9813) rotate(90)">
			<title>Sheet.55</title>
			<path d="M0 272.17 L7.49 272.17" class="st16"/>
		</g>
		<g id="shape56-209" transform="translate(326.186,-222.186)">
			<title>Sheet.56</title>
			<desc>SRCu to IR</desc>
			<rect x="0" y="263.663" width="36.5671" height="8.50394" class="st12"/>
			<text x="4" y="269.72" class="st2">SRCu to IR</text>		</g>
		<g id="shape57-212" transform="translate(326.186,-80.4537)">
			<title>Sheet.57</title>
			<desc>SRCv to IR</desc>
			<rect x="0" y="263.663" width="36.5671" height="8.50394" class="st12"/>
			<text x="4" y="269.72" class="st2">SRCv to IR</text>		</g>
		<g id="shape59-215" transform="translate(168.863,-90.0915)">
			<title>Sheet.59</title>
			<path d="M0 272.17 L31.91 272.17" class="st9"/>
		</g>
		<g id="shape61-220" transform="translate(140.517,-65.675)">
			<title>Sheet.61</title>
			<desc>Trigger</desc>
			<rect x="0" y="263.663" width="36.5671" height="8.50394" class="st12"/>
			<text x="4" y="269.72" class="st2">Trigger</text>		</g>
		<g id="shape62-223" transform="translate(200.84,-16.6742)">
			<title>Sheet.62</title>
			<desc>PMS</desc>
			<rect x="0" y="229.648" width="49.4334" height="42.5197" class="st7"/>
			<text x="4" y="239.05" class="st2">PMS</text>		</g>
		<g id="shape63-226" transform="translate(248.234,-49.2726)">
			<title>Sheet.63</title>
			<desc>POWER_STATUS</desc>
			<rect x="0" y="263.663" width="49.4334" height="8.50394" class="st12"/>
			<text x="4" y="269.72" class="st2">POWER_STATUS</text>		</g>
		<g id="shape64-229" transform="translate(24.2552,222.895) rotate(-90)">
			<title>Sheet.64</title>
			<path d="M0 272.17 L22.11 272.17" class="st9"/>
		</g>
		<g id="shape65-234" transform="translate(38.4284,234.233) rotate(-90)">
			<title>Sheet.65</title>
			<path d="M0 272.17 L33.45 272.17" class="st19"/>
		</g>
		<g id="shape66-239" transform="translate(248.234,-37.9341)">
			<title>Sheet.66</title>
			<desc>PMS_ADC_REF</desc>
			<rect x="0" y="263.663" width="49.4334" height="8.50394" class="st12"/>
			<text x="4" y="269.72" class="st2">PMS_ADC_REF</text>		</g>
		<g id="shape67-242" transform="translate(296.423,495.062) rotate(180)">
			<title>Sheet.67</title>
			<path d="M0 272.17 L46.15 272.17" class="st16"/>
		</g>
		<g id="shape68-245" transform="translate(310.596,506.401) rotate(180)">
			<title>Sheet.68</title>
			<path d="M0 272.17 L60.32 272.17" class="st20"/>
		</g>
		<g id="shape69-248" transform="translate(345.665,-37.9341)">
			<title>Sheet.69</title>
			<path d="M0 272.17 L19.76 272.17" class="st9"/>
		</g>
		<g id="shape70-253" transform="translate(345.665,-16.6742)">
			<title>Sheet.70</title>
			<path d="M0 272.17 L19.76 272.17" class="st9"/>
		</g>
		<g id="shape71-258" transform="translate(327.604,-37.9341)">
			<title>Sheet.71</title>
			<desc>ADC SRCu</desc>
			<rect x="0" y="263.663" width="36.5671" height="8.50394" class="st12"/>
			<text x="4" y="269.72" class="st2">ADC SRCu</text>		</g>
		<g id="shape72-261" transform="translate(327.604,-16.6742)">
			<title>Sheet.72</title>
			<desc>ADC SRCv</desc>
			<rect x="0" y="263.663" width="36.5671" height="8.50394" class="st12"/>
			<text x="4" y="269.72" class="st2">ADC SRCv</text>		</g>
		<g id="shape75-264" transform="translate(183.145,492.982) rotate(180)">
			<title>Sheet.75</title>
			<path d="M0 272.17 L45.46 272.17" class="st19"/>
		</g>
		<g id="shape76-269" transform="translate(140.517,-51.7852)">
			<title>Sheet.76</title>
			<desc>ADC_xGTM***</desc>
			<rect x="0" y="263.663" width="45.3543" height="8.50394" class="st12"/>
			<text x="4" y="269.72" class="st2">ADC_xGTM***</text>		</g>
		<g id="shape77-272" transform="translate(428.942,-9.5876)">
			<title>Sheet.77</title>
			<desc>***Boundary flag signal For GTM only:</desc>
			<rect x="0" y="229.648" width="77.9528" height="42.5197" class="st21"/>
			<text x="4" y="239.05" class="st2">***Boundary flag signal <tspan x="4" dy="1.2em" class="st4">For GTM only:</tspan></text>		</g>
		<g id="shape78-276" transform="translate(431.068,-17.3829)">
			<title>Sheet.78</title>
			<desc>- Direct interrupt interface - ADC result interface (ADI)</desc>
			<rect x="0" y="253.742" width="77.9528" height="18.4252" class="st12"/>
			<text x="4" y="261.15" class="st2">- Direct interrupt interface <tspan x="4" dy="1.2em" class="st4">-</tspan> ADC result interface (ADI)</text>		</g>
		<g id="shape82-280" transform="translate(307.74,310.181) rotate(135)">
			<title>Sheet.82</title>
			<path d="M0 271.37 A2.73738 2.26771 -90 0 0 3.21 271.37" class="st16"/>
		</g>
		<g id="shape83-283" transform="translate(305.452,-71.3001) rotate(45.0001)">
			<title>Sheet.83</title>
			<path d="M0 271.34 A2.83465 2.26772 -90 0 0 3.21 271.34" class="st16"/>
		</g>
		<g id="shape84-286" transform="translate(-156.312,170.454) rotate(-90)">
			<title>Sheet.84</title>
			<path d="M0 272.17 L47.62 272.17" class="st16"/>
		</g>
		<g id="shape85-289" transform="translate(-156.312,118.296) rotate(-90)">
			<title>Sheet.85</title>
			<path d="M0 272.17 L47.06 272.17" class="st16"/>
		</g>
		<g id="shape86-292" transform="translate(-103.304,207.588) rotate(-90)">
			<title>Sheet.86</title>
			<path d="M0 272.17 L25.51 272.17" class="st16"/>
		</g>
		<g id="shape87-295" transform="translate(168.863,479.755) rotate(180)">
			<title>Sheet.87</title>
			<path d="M0 272.17 L31.18 272.17" class="st16"/>
		</g>
		<g id="shape88-298" transform="translate(200.775,465.582) rotate(180)">
			<title>Sheet.88</title>
			<path d="M0 272.17 L17.63 272.17" class="st20"/>
		</g>
		<g id="shape89-301" transform="translate(-89.0225,220.815) rotate(-90)">
			<title>Sheet.89</title>
			<path d="M0 272.17 L27.4 272.17" class="st20"/>
		</g>
		<g id="shape90-304" transform="translate(129.178,-238.91)">
			<title>Sheet.90</title>
			<desc>Single AIN pin routed to multiple ADC resources</desc>
			<rect x="0" y="253.742" width="68.0315" height="18.4252" class="st21"/>
			<text x="4" y="261.15" class="st2">Single AIN pin routed to <tspan x="4" dy="1.2em" class="st4">multiple ADC resources</tspan></text>		</g>
		<g id="shape91-308" transform="translate(343.332,229.444) rotate(136.123)">
			<title>Sheet.91</title>
			<path d="M0 272.17 L51.12 272.17" class="st22"/>
		</g>
	</g>
</svg>
