<?xml version="1.0" encoding="UTF-8" standalone="no"?>
<!DOCTYPE svg PUBLIC "-//W3C//DTD SVG 1.1//EN" "http://www.w3.org/Graphics/SVG/1.1/DTD/svg11.dtd">
<!-- Generated by Microsoft Visio, SVG Export HomRedADCch.svg Page-1 -->
<svg xmlns="http://www.w3.org/2000/svg" xmlns:xlink="http://www.w3.org/1999/xlink" xmlns:ev="http://www.w3.org/2001/xml-events"
		width="7.09703in" height="3.7801in" viewBox="0 0 510.986 272.167" xml:space="preserve" color-interpolation-filters="sRGB"
		class="st22">
	<style type="text/css">
	<![CDATA[
		.st1 {fill:none;stroke:#000000;stroke-dasharray:5.25,3.75;stroke-linecap:round;stroke-linejoin:round;stroke-width:0.75}
		.st2 {fill:#000000;font-family:Calibri;font-size:0.499992em}
		.st3 {baseline-shift:32.4949%;font-size:0.649897em}
		.st4 {font-size:1em}
		.st5 {fill:#9dc3e6;stroke:none;stroke-linecap:round;stroke-linejoin:round;stroke-width:0.75}
		.st6 {fill:#ffc000;stroke:none;stroke-linecap:round;stroke-linejoin:round;stroke-width:0.75}
		.st7 {fill:#bfbfbf;stroke:none;stroke-linecap:round;stroke-linejoin:round;stroke-width:0.75}
		.st8 {fill:#000000;font-family:Calibri;font-size:0.499992em;font-weight:bold}
		.st9 {marker-end:url(#mrkr1-24);stroke:#ff0000;stroke-linecap:round;stroke-linejoin:round;stroke-width:1}
		.st10 {fill:#ff0000;fill-opacity:1;stroke:#ff0000;stroke-opacity:1;stroke-width:0.28409090909091}
		.st11 {stroke:#000000;stroke-dasharray:5.25,3.75;stroke-linecap:round;stroke-linejoin:round;stroke-width:0.75}
		.st12 {fill:none;stroke:none;stroke-linecap:round;stroke-linejoin:round;stroke-width:0.75}
		.st13 {marker-end:url(#mrkr1-69);marker-start:url(#mrkr1-67);stroke:#000000;stroke-linecap:round;stroke-linejoin:round;stroke-width:1}
		.st14 {fill:#000000;fill-opacity:1;stroke:#000000;stroke-opacity:1;stroke-width:0.28409090909091}
		.st15 {fill:#d8d8d8;stroke:none;stroke-linecap:round;stroke-linejoin:round;stroke-width:0.75}
		.st16 {stroke:#ff0000;stroke-linecap:round;stroke-linejoin:round;stroke-width:1}
		.st17 {baseline-shift:-32.4949%;font-size:0.649897em}
		.st18 {marker-end:url(#mrkr1-24);marker-start:url(#mrkr1-201);stroke:#ff0000;stroke-linecap:round;stroke-linejoin:round;stroke-width:1}
		.st19 {marker-end:url(#mrkr1-69);stroke:#000000;stroke-linecap:round;stroke-linejoin:round;stroke-width:1}
		.st20 {stroke:#000000;stroke-linecap:round;stroke-linejoin:round;stroke-width:1}
		.st21 {fill:none;stroke:#000000;stroke-linecap:round;stroke-linejoin:round;stroke-width:0.5}
		.st22 {fill:none;fill-rule:evenodd;font-size:12px;overflow:visible;stroke-linecap:square;stroke-miterlimit:3}
	]]>
	</style>

	<defs id="Markers">
		<g id="lend1">
			<path d="M 1 -1 L 0 0 L 1 1 " style="stroke-linecap:round;stroke-linejoin:round;fill:none"/>
		</g>
		<marker id="mrkr1-24" class="st10" orient="auto" markerUnits="strokeWidth" overflow="visible">
			<use xlink:href="#lend1" transform="scale(-3.52,-3.52) "/>
		</marker>
		<marker id="mrkr1-67" class="st14" orient="auto" markerUnits="strokeWidth" overflow="visible">
			<use xlink:href="#lend1" transform="scale(3.52) "/>
		</marker>
		<marker id="mrkr1-69" class="st14" orient="auto" markerUnits="strokeWidth" overflow="visible">
			<use xlink:href="#lend1" transform="scale(-3.52,-3.52) "/>
		</marker>
		<marker id="mrkr1-201" class="st10" orient="auto" markerUnits="strokeWidth" overflow="visible">
			<use xlink:href="#lend1" transform="scale(3.52) "/>
		</marker>
	</defs>
	<g>
		<title>Page-1</title>
		<g id="shape1-1" transform="translate(85.7978,-2.50098)">
			<title>Sheet.1</title>
			<desc>AURIXTM TC4xx MCU</desc>
			<path d="M0 272.17 L424.81 272.17 L424.81 2.88 L0 2.88 L0 272.17 Z" class="st1"/>
			<text x="4" y="12.28" class="st2">AURIX<tspan dy="-0.234em" class="st3">TM</tspan><tspan dy="0.152em" class="st4"> </tspan>TC4xx MCU</text>		</g>
		<g id="shape2-6" transform="translate(71.7862,-71.3829)">
			<title>Sheet.2</title>
			<desc>Package</desc>
			<path d="M0 272.17 L0 110.03 L28.79 110.03 L28.79 272.17 L0 272.17 Z" class="st5"/>
			<text x="4.44" y="119.43" class="st2">Package</text>		</g>
		<g id="shape3-9" transform="translate(200.948,-71.3829)">
			<title>Sheet.3</title>
			<desc>ADC</desc>
			<path d="M0 110.03 L0 272.17 L161.23 272.17 L161.23 110.03 L0 110.03 L0 110.03 Z" class="st6"/>
			<text x="4" y="119.43" class="st2">ADC</text>		</g>
		<g id="shape4-12" transform="translate(390.522,-147.754)">
			<title>Sheet.4</title>
			<desc>FPI</desc>
			<rect x="0" y="151.65" width="22.7329" height="120.518" class="st7"/>
			<text x="4" y="161.05" class="st2">FPI</text>		</g>
		<g id="shape5-15" transform="translate(0.547937,-187.405)">
			<title>Sheet.5</title>
			<desc>External analog signal source 1</desc>
			<rect x="0" y="247.308" width="49.4334" height="24.8596" class="st7"/>
			<text x="4" y="256.71" class="st8">External analog <tspan x="4" dy="1.2em" class="st4">signal source 1</tspan></text>		</g>
		<g id="shape6-19" transform="translate(175.089,-200.926)">
			<title>Sheet.6</title>
			<path d="M0 272.17 L38.64 272.17" class="st9"/>
		</g>
		<g id="shape7-25" transform="translate(122.793,-192.079)">
			<title>Sheet.7</title>
			<desc>PORT Pa.b*</desc>
			<path d="M0 240.3 L0 272.17 L55.13 272.17 L55.13 240.3 L0 240.3 L0 240.3 Z" class="st6"/>
			<text x="4" y="249.7" class="st2">PORT Pa.b*</text>		</g>
		<g id="shape8-28" transform="translate(213.726,-186.753)">
			<title>Sheet.8</title>
			<desc>TMADC* or DSADC*</desc>
			<path d="M0 272.17 L0 244.63 L30.05 244.63 L30.05 272.17 L0 272.17 Z" class="st5"/>
			<text x="4.32" y="254.03" class="st2">TMADC* <tspan x="12.4" dy="1.2em" class="st4">or </tspan><tspan x="5.12"
						dy="1.2em" class="st4">DSADC*</tspan></text>		</g>
		<g id="shape12-33" transform="translate(406.168,-240.328)">
			<title>Dynamic connector.226</title>
			<path d="M7.09 272.17 L-4.24 272.17 L-4.24 351.28 L7.09 351.28" class="st11"/>
		</g>
		<g id="shape13-36" transform="translate(432.256,-210.847)">
			<title>Sheet.13</title>
			<desc>CPU</desc>
			<rect x="0" y="215.069" width="49.4334" height="57.0988" class="st7"/>
			<text x="4" y="224.47" class="st2">CPU</text>		</g>
		<g id="shape14-39" transform="translate(441.958,-57.7766)">
			<title>Sheet.14</title>
			<desc>PPU</desc>
			<rect x="0" y="229.648" width="49.4334" height="42.5197" class="st7"/>
			<text x="4" y="239.05" class="st2">PPU</text>		</g>
		<g id="shape15-42" transform="translate(432.658,-131.477)">
			<title>Sheet.15</title>
			<desc>DMA</desc>
			<rect x="0" y="215.069" width="49.4334" height="57.0988" class="st7"/>
			<text x="4" y="224.47" class="st2">DMA</text>		</g>
		<g id="shape16-45" transform="translate(365.595,-9.5876)">
			<title>Sheet.16</title>
			<desc>IR</desc>
			<rect x="0" y="229.648" width="49.4334" height="42.5197" class="st7"/>
			<text x="4" y="239.05" class="st2">IR</text>		</g>
		<g id="shape19-48" transform="translate(122.62,-76.9324)">
			<title>Sheet.19</title>
			<desc>PORT Px.y*</desc>
			<path d="M0 240.3 L0 272.17 L55.13 272.17 L55.13 240.3 L0 240.3 L0 240.3 Z" class="st6"/>
			<text x="4" y="249.7" class="st2">PORT Px.y*</text>		</g>
		<g id="shape21-51" transform="translate(0.375,-87.5059)">
			<title>Sheet.21</title>
			<desc>External analog signal source 2</desc>
			<rect x="0" y="247.308" width="49.4334" height="24.8596" class="st7"/>
			<text x="4" y="256.71" class="st8">External analog <tspan x="4" dy="1.2em" class="st4">signal source 2</tspan></text>		</g>
		<g id="shape28-55" transform="translate(85.7978,-0.375)">
			<title>Sheet.28</title>
			<desc>*physical separation between redundant channels **PPU direct ...</desc>
			<rect x="0" y="253.742" width="198.042" height="18.4252" class="st12"/>
			<text x="6.71" y="261.15" class="st2">*physical separation between redundant channels <tspan x="4" dy="1.2em"
						class="st4">**PPU direct access through LLI bus not available in all AURIX</tspan><tspan dy="-0.234em"
						class="st3">TM</tspan><tspan dy="0.152em" class="st4"> </tspan>TC4xx devices</text>		</g>
		<g id="shape29-61" transform="translate(390.82,357.582) rotate(180)">
			<title>Sheet.29</title>
			<path d="M0 272.17 L28.64 272.17" class="st13"/>
		</g>
		<g id="shape30-70" transform="translate(432.256,304.007) rotate(180)">
			<title>Sheet.30</title>
			<path d="M0 272.17 L19 272.17" class="st13"/>
		</g>
		<g id="shape32-77" transform="translate(432.658,-152.331)">
			<title>Sheet.32</title>
			<desc>FPI Master I/F</desc>
			<path d="M0 272.17 L0 255.64 L36.57 255.64 L36.57 272.17 L0 272.17 Z" class="st15"/>
			<text x="14.6" y="262.1" class="st2">FPI  <tspan x="5.59" dy="1.2em" class="st4">Master I/F</tspan></text>		</g>
		<g id="shape33-81" transform="translate(432.695,383.115) rotate(180)">
			<title>Sheet.33</title>
			<path d="M0 272.17 L19.44 272.17" class="st13"/>
		</g>
		<g id="shape34-88" transform="translate(441.162,467.618) rotate(180)">
			<title>Sheet.34</title>
			<path d="M0 272.17 L27.96 272.17" class="st13"/>
		</g>
		<g id="shape35-95" transform="translate(441.958,-68.7801)">
			<title>Sheet.35</title>
			<desc>M-LLI</desc>
			<path d="M0 272.17 L0 255.64 L28.79 255.64 L28.79 272.17 L0 272.17 Z" class="st15"/>
			<text x="7.64" y="265.7" class="st2">M-LLI</text>		</g>
		<g id="shape38-98" transform="translate(401.861,357.582) rotate(180)">
			<title>Sheet.38</title>
			<path d="M0 272.17 L11.04 272.17" class="st11"/>
		</g>
		<g id="shape40-101" transform="translate(243.773,-200.926)">
			<title>Sheet.40</title>
			<path d="M0 272.17 L19.76 272.17" class="st9"/>
		</g>
		<g id="shape41-106" transform="translate(313.987,343.408) rotate(180)">
			<title>Sheet.41</title>
			<path d="M0 272.17 L13.04 272.17" class="st16"/>
		</g>
		<g id="shape54-109" transform="translate(49.9813,-200.926)">
			<title>Sheet.54</title>
			<path d="M0 272.17 L72.81 272.17" class="st9"/>
		</g>
		<g id="shape55-114" transform="translate(49.8084,-100.43)">
			<title>Sheet.55</title>
			<path d="M0 272.17 L72.81 272.17" class="st9"/>
		</g>
		<g id="shape56-119" transform="translate(67.8994,-200.926)">
			<title>Sheet.56</title>
			<desc>Mission ch.</desc>
			<rect x="0" y="263.663" width="36.5671" height="8.50394" class="st12"/>
			<text x="4" y="269.72" class="st2">Mission ch.</text>		</g>
		<g id="shape57-122" transform="translate(67.9395,-100.013)">
			<title>Sheet.57</title>
			<desc>Monitoring ch.</desc>
			<rect x="0" y="263.663" width="45.3543" height="8.50394" class="st12"/>
			<text x="4" y="269.72" class="st2">Monitoring ch.</text>		</g>
		<g id="shape58-125" transform="translate(0.547937,-140.024)">
			<title>Sheet.58</title>
			<desc>External reference VAREF</desc>
			<rect x="0" y="247.308" width="49.4334" height="24.8596" class="st7"/>
			<text x="4" y="256.71" class="st8">External <tspan x="4" dy="1.2em" class="st4">reference V</tspan><tspan dy="-0.284em"
						class="st17">AREF</tspan></text>		</g>
		<g id="shape61-130" transform="translate(106.847,-154.977)">
			<title>Sheet.61</title>
			<desc>GTM</desc>
			<rect x="0" y="240.299" width="49.4334" height="31.8678" class="st7"/>
			<text x="4" y="249.7" class="st2">GTM</text>		</g>
		<g id="shape20-133" transform="translate(177.751,-100.43)">
			<title>Sheet.20</title>
			<path d="M0 272.17 L34.47 272.17" class="st9"/>
		</g>
		<g id="shape69-138" transform="translate(212.223,-87.5404)">
			<title>Sheet.69</title>
			<desc>TMADC* or DSADC*</desc>
			<path d="M0 272.17 L0 244.63 L30.05 244.63 L30.05 272.17 L0 272.17 Z" class="st5"/>
			<text x="4.32" y="254.03" class="st2">TMADC* <tspan x="12.4" dy="1.2em" class="st4">or </tspan><tspan x="5.12"
						dy="1.2em" class="st4">DSADC*</tspan></text>		</g>
		<g id="shape70-143" transform="translate(264.38,-187.159)">
			<title>Sheet.70</title>
			<desc>CDSP* (optional)</desc>
			<path d="M0 272.17 L0 244.63 L36.57 244.63 L36.57 272.17 L0 272.17 Z" class="st5"/>
			<text x="10.42" y="254.03" class="st2">CDSP* <tspan x="6.33" dy="1.2em" class="st4">(optional)</tspan></text>		</g>
		<g id="shape71-147" transform="translate(264.38,-87.5404)">
			<title>Sheet.71</title>
			<desc>CDSP* (optional)</desc>
			<path d="M0 272.17 L0 244.63 L36.57 244.63 L36.57 272.17 L0 272.17 Z" class="st5"/>
			<text x="10.42" y="254.03" class="st2">CDSP* <tspan x="6.33" dy="1.2em" class="st4">(optional)</tspan></text>		</g>
		<g id="shape72-151" transform="translate(49.9813,-151.32)">
			<title>Sheet.72</title>
			<path d="M0 272.17 L177.55 272.17" class="st16"/>
		</g>
		<g id="shape73-154" transform="translate(332.128,-177.308)">
			<title>Sheet.73</title>
			<desc>FPI Slave I/F</desc>
			<path d="M0 272.17 L0 255.64 L30.05 255.64 L30.05 272.17 L0 272.17 Z" class="st5"/>
			<text x="11.34" y="262.1" class="st2">FPI  <tspan x="4.7" dy="1.2em" class="st4">Slave I/F</tspan></text>		</g>
		<g id="shape74-158" transform="translate(313.987,-185.336)">
			<title>Sheet.74</title>
			<path d="M0 272.17 L18.14 272.17" class="st9"/>
		</g>
		<g id="shape75-163" transform="translate(242.27,-101.714)">
			<title>Sheet.75</title>
			<path d="M0 272.17 L21.26 272.17" class="st9"/>
		</g>
		<g id="shape76-168" transform="translate(41.8194,171.871) rotate(-90)">
			<title>Sheet.76</title>
			<path d="M0 272.17 L100.63 272.17" class="st16"/>
		</g>
		<g id="shape77-171" transform="translate(313.987,-117.304)">
			<title>Sheet.77</title>
			<path d="M0 272.17 L18.14 272.17" class="st9"/>
		</g>
		<g id="shape78-176" transform="translate(300.948,-100.296)">
			<title>Sheet.78</title>
			<path d="M0 272.17 L13.04 272.17" class="st16"/>
		</g>
		<g id="shape79-179" transform="translate(332.128,-109.277)">
			<title>Sheet.79</title>
			<desc>S-LLI</desc>
			<path d="M0 272.17 L0 255.64 L30.05 255.64 L30.05 272.17 L0 272.17 Z" class="st5"/>
			<text x="9.45" y="265.7" class="st2">S-LLI</text>		</g>
		<g id="shape80-182" transform="translate(390.466,-69.1152)">
			<title>Sheet.80</title>
			<desc>LLI**</desc>
			<rect x="0" y="204.136" width="22.7329" height="68.0315" class="st7"/>
			<text x="4" y="213.54" class="st2">LLI**</text>		</g>
		<g id="shape81-185" transform="translate(390.466,-116.65)">
			<title>Dynamic connector.81</title>
			<path d="M0 272.17 L10.9 272.17 L10.9 312.1 L22.73 312.1" class="st11"/>
		</g>
		<g id="shape82-188" transform="translate(390.466,427.685) rotate(180)">
			<title>Sheet.82</title>
			<path d="M0 272.17 L28.64 272.17" class="st13"/>
		</g>
		<g id="shape83-195" transform="translate(-44.6373,157.092) rotate(-90)">
			<title>Sheet.83</title>
			<path d="M0 272.17 L71.68 272.17" class="st18"/>
		</g>
		<g id="shape84-203" transform="translate(106.847,-115.239)">
			<title>Sheet.84</title>
			<desc>eGTM</desc>
			<rect x="0" y="240.299" width="49.4334" height="31.8678" class="st7"/>
			<text x="4" y="249.7" class="st2">eGTM</text>		</g>
		<g id="shape86-206" transform="translate(432.375,-232.062)">
			<title>Sheet.86</title>
			<desc>FPI Master I/F</desc>
			<path d="M0 272.17 L0 255.64 L36.57 255.64 L36.57 272.17 L0 272.17 Z" class="st15"/>
			<text x="14.6" y="262.1" class="st2">FPI  <tspan x="5.59" dy="1.2em" class="st4">Master I/F</tspan></text>		</g>
		<g id="shape87-210" transform="translate(228.564,-222.186)">
			<title>Sheet.87</title>
			<path d="M0 272.17 L133.61 272.17" class="st9"/>
		</g>
		<g id="shape88-215" transform="translate(228.564,-80.4537)">
			<title>Sheet.88</title>
			<path d="M0 272.17 L133.61 272.17" class="st9"/>
		</g>
		<g id="shape89-220" transform="translate(500.731,49.9813) rotate(90)">
			<title>Sheet.89</title>
			<path d="M0 272.17 L7.9 272.17" class="st16"/>
		</g>
		<g id="shape90-223" transform="translate(-43.6034,191.714) rotate(-90)">
			<title>Sheet.90</title>
			<path d="M0 272.17 L7.09 272.17" class="st16"/>
		</g>
		<g id="shape91-226" transform="translate(10.2549,191.714) rotate(-90)">
			<title>Sheet.91</title>
			<path d="M0 272.17 L7.09 272.17" class="st16"/>
		</g>
		<g id="shape92-229" transform="translate(554.59,49.9813) rotate(90)">
			<title>Sheet.92</title>
			<path d="M0 272.17 L7.49 272.17" class="st16"/>
		</g>
		<g id="shape93-232" transform="translate(326.359,-222.186)">
			<title>Sheet.93</title>
			<desc>SRCu to IR</desc>
			<rect x="0" y="263.663" width="36.5671" height="8.50394" class="st12"/>
			<text x="4" y="269.72" class="st2">SRCu to IR</text>		</g>
		<g id="shape94-235" transform="translate(326.359,-80.4537)">
			<title>Sheet.94</title>
			<desc>SRCv to IR</desc>
			<rect x="0" y="263.663" width="36.5671" height="8.50394" class="st12"/>
			<text x="4" y="269.72" class="st2">SRCv to IR</text>		</g>
		<g id="shape95-238" transform="translate(156.281,-178.496)">
			<title>Sheet.95</title>
			<path d="M0 272.17 L44.67 272.17" class="st9"/>
		</g>
		<g id="shape96-243" transform="translate(156.281,-137.147)">
			<title>Sheet.96</title>
			<path d="M0 272.17 L44.67 272.17" class="st9"/>
		</g>
		<g id="shape97-248" transform="translate(169.32,-178.249)">
			<title>Sheet.97</title>
			<desc>Trigger</desc>
			<rect x="0" y="263.663" width="36.5671" height="8.50394" class="st12"/>
			<text x="4" y="269.72" class="st2">Trigger</text>		</g>
		<g id="shape98-251" transform="translate(166.343,-136.863)">
			<title>Sheet.98</title>
			<desc>Trigger</desc>
			<rect x="0" y="263.663" width="36.5671" height="8.50394" class="st12"/>
			<text x="4" y="269.72" class="st2">Trigger</text>		</g>
		<g id="shape99-254" transform="translate(201.013,-16.6742)">
			<title>Sheet.99</title>
			<desc>PMS</desc>
			<rect x="0" y="229.648" width="49.4334" height="42.5197" class="st7"/>
			<text x="4" y="239.05" class="st2">PMS</text>		</g>
		<g id="shape65-257" transform="translate(248.406,-49.2726)">
			<title>Sheet.65</title>
			<desc>POWER_STATUS</desc>
			<rect x="0" y="263.663" width="49.4334" height="8.50394" class="st12"/>
			<text x="4" y="269.72" class="st2">POWER_STATUS</text>		</g>
		<g id="shape66-260" transform="translate(24.4281,222.895) rotate(-90)">
			<title>Sheet.66</title>
			<path d="M0 272.17 L22.11 272.17" class="st9"/>
		</g>
		<g id="shape67-265" transform="translate(38.6014,234.233) rotate(-90)">
			<title>Sheet.67</title>
			<path d="M0 272.17 L33.45 272.17" class="st19"/>
		</g>
		<g id="shape68-270" transform="translate(248.406,-37.9341)">
			<title>Sheet.68</title>
			<desc>PMS_ADC_REF</desc>
			<rect x="0" y="263.663" width="49.4334" height="8.50394" class="st12"/>
			<text x="4" y="269.72" class="st2">PMS_ADC_REF</text>		</g>
		<g id="shape100-273" transform="translate(296.595,495.062) rotate(180)">
			<title>Sheet.100</title>
			<path d="M0 272.17 L46.15 272.17" class="st16"/>
		</g>
		<g id="shape101-276" transform="translate(310.769,506.401) rotate(180)">
			<title>Sheet.101</title>
			<path d="M0 272.17 L60.32 272.17" class="st20"/>
		</g>
		<g id="shape102-279" transform="translate(345.838,-37.9341)">
			<title>Sheet.102</title>
			<path d="M0 272.17 L19.76 272.17" class="st9"/>
		</g>
		<g id="shape103-284" transform="translate(345.838,-16.6742)">
			<title>Sheet.103</title>
			<path d="M0 272.17 L19.76 272.17" class="st9"/>
		</g>
		<g id="shape104-289" transform="translate(327.777,-37.9341)">
			<title>Sheet.104</title>
			<desc>ADC SRCu</desc>
			<rect x="0" y="263.663" width="36.5671" height="8.50394" class="st12"/>
			<text x="4" y="269.72" class="st2">ADC SRCu</text>		</g>
		<g id="shape105-292" transform="translate(327.777,-16.6742)">
			<title>Sheet.105</title>
			<desc>ADC SRCv</desc>
			<rect x="0" y="263.663" width="36.5671" height="8.50394" class="st12"/>
			<text x="4" y="269.72" class="st2">ADC SRCv</text>		</g>
		<g id="shape106-295" transform="translate(200.948,381.825) rotate(180)">
			<title>Sheet.106</title>
			<path d="M0 272.17 L44.67 272.17" class="st19"/>
		</g>
		<g id="shape107-300" transform="translate(159.115,-162.658)">
			<title>Sheet.107</title>
			<desc>ADC_GTM***</desc>
			<rect x="0" y="263.663" width="45.3543" height="8.50394" class="st12"/>
			<text x="4" y="269.72" class="st2">ADC_GTM***</text>		</g>
		<g id="shape108-303" transform="translate(201.743,421.794) rotate(180)">
			<title>Sheet.108</title>
			<path d="M0 272.17 L45.46 272.17" class="st19"/>
		</g>
		<g id="shape109-308" transform="translate(159.115,-122.973)">
			<title>Sheet.109</title>
			<desc>ADC_eGTM***</desc>
			<rect x="0" y="263.663" width="45.3543" height="8.50394" class="st12"/>
			<text x="4" y="269.72" class="st2">ADC_eGTM***</text>		</g>
		<g id="shape110-311" transform="translate(429.115,-9.5876)">
			<title>Sheet.110</title>
			<desc>***Boundary flag signal For GTM only:</desc>
			<rect x="0" y="229.648" width="77.9528" height="42.5197" class="st21"/>
			<text x="4" y="239.05" class="st2">***Boundary flag signal <tspan x="4" dy="1.2em" class="st4">For GTM only:</tspan></text>		</g>
		<g id="shape113-315" transform="translate(431.241,-17.3829)">
			<title>Sheet.113</title>
			<desc>- Direct interrupt interface - ADC result interface (ADI)</desc>
			<rect x="0" y="253.742" width="77.9528" height="18.4252" class="st12"/>
			<text x="4" y="261.15" class="st2">- Direct interrupt interface <tspan x="4" dy="1.2em" class="st4">-</tspan> ADC result interface (ADI)</text>		</g>
	</g>
</svg>
