<?xml version="1.0" encoding="UTF-8" standalone="no"?>
<!DOCTYPE svg PUBLIC "-//W3C//DTD SVG 1.1//EN" "http://www.w3.org/Graphics/SVG/1.1/DTD/svg11.dtd">
<!-- Generated by Microsoft Visio, SVG Export PowerMgmt.svg Page-1 -->
<svg xmlns="http://www.w3.org/2000/svg" xmlns:xlink="http://www.w3.org/1999/xlink" xmlns:ev="http://www.w3.org/2001/xml-events"
		width="6.92875in" height="3.68112in" viewBox="0 0 498.87 265.041" xml:space="preserve" color-interpolation-filters="sRGB"
		class="st19">
	<style type="text/css">
	<![CDATA[
		.st1 {fill:none;stroke:#000000;stroke-dasharray:5.25,3.75;stroke-linecap:round;stroke-linejoin:round;stroke-width:0.75}
		.st2 {fill:#000000;font-family:Calibri;font-size:0.499992em}
		.st3 {fill:#ffc000;stroke:none;stroke-linecap:round;stroke-linejoin:round;stroke-width:0.75}
		.st4 {fill:#bfbfbf;stroke:none;stroke-linecap:round;stroke-linejoin:round;stroke-width:0.75}
		.st5 {marker-end:url(#mrkr1-21);marker-start:url(#mrkr1-19);stroke:#000000;stroke-linecap:round;stroke-linejoin:round;stroke-width:1}
		.st6 {fill:#000000;fill-opacity:1;stroke:#000000;stroke-opacity:1;stroke-width:0.28409090909091}
		.st7 {fill:#000000;font-family:Calibri;font-size:0.499992em;font-weight:bold}
		.st8 {stroke:#000000;stroke-dasharray:0.75,1.5;stroke-linecap:round;stroke-linejoin:round;stroke-width:0.75}
		.st9 {fill:#d8d8d8;stroke:none;stroke-linecap:round;stroke-linejoin:round;stroke-width:0.75}
		.st10 {font-size:1em}
		.st11 {fill:none;stroke:none;stroke-linecap:round;stroke-linejoin:round;stroke-width:0.75}
		.st12 {marker-end:url(#mrkr1-21);stroke:#000000;stroke-linecap:round;stroke-linejoin:round;stroke-width:1}
		.st13 {baseline-shift:32.4949%;font-size:0.649897em}
		.st14 {marker-end:url(#mrkr1-86);stroke:#ff0000;stroke-linecap:round;stroke-linejoin:round;stroke-width:1}
		.st15 {fill:#ff0000;fill-opacity:1;stroke:#ff0000;stroke-opacity:1;stroke-width:0.28409090909091}
		.st16 {fill:#9dc3e6;stroke:none;stroke-linecap:round;stroke-linejoin:round;stroke-width:0.75}
		.st17 {stroke:#000000;stroke-linecap:round;stroke-linejoin:round;stroke-width:1}
		.st18 {stroke:#ff0000;stroke-linecap:round;stroke-linejoin:round;stroke-width:1}
		.st19 {fill:none;fill-rule:evenodd;font-size:12px;overflow:visible;stroke-linecap:square;stroke-miterlimit:3}
	]]>
	</style>

	<defs id="Markers">
		<g id="lend1">
			<path d="M 1 -1 L 0 0 L 1 1 " style="stroke-linecap:round;stroke-linejoin:round;fill:none"/>
		</g>
		<marker id="mrkr1-19" class="st6" orient="auto" markerUnits="strokeWidth" overflow="visible">
			<use xlink:href="#lend1" transform="scale(3.52) "/>
		</marker>
		<marker id="mrkr1-21" class="st6" orient="auto" markerUnits="strokeWidth" overflow="visible">
			<use xlink:href="#lend1" transform="scale(-3.52,-3.52) "/>
		</marker>
		<marker id="mrkr1-86" class="st15" orient="auto" markerUnits="strokeWidth" overflow="visible">
			<use xlink:href="#lend1" transform="scale(-3.52,-3.52) "/>
		</marker>
	</defs>
	<g>
		<title>Page-1</title>
		<g id="shape1-1" transform="translate(391.062,-32.123)">
			<title>Sheet.1</title>
			<desc>PMS0/1 domain (Standby)</desc>
			<path d="M0 265.04 L101.48 265.04 L101.48 202.58 L0 202.58 L0 265.04 Z" class="st1"/>
			<text x="33.42" y="259.24" class="st2">PMS0/1 domain (Standby)</text>		</g>
		<g id="shape4-4" transform="translate(246.834,-59.0937)">
			<title>Sheet.4</title>
			<desc>PMS</desc>
			<path d="M0 121.93 L0 265.04 L67.24 265.04 L67.24 121.93 L0 121.93 L0 121.93 Z" class="st3"/>
			<text x="4" y="131.33" class="st2">PMS</text>		</g>
		<g id="shape5-7" transform="translate(210.146,-5.59979)">
			<title>Sheet.5</title>
			<desc>FPI</desc>
			<rect x="0" y="238.476" width="80.7874" height="26.5648" class="st4"/>
			<text x="4" y="247.88" class="st2">FPI</text>		</g>
		<g id="shape6-10" transform="translate(158.338,-41.5832)">
			<title>Sheet.6</title>
			<desc>CPU</desc>
			<rect x="0" y="224.895" width="49.4334" height="40.1462" class="st4"/>
			<text x="4" y="234.29" class="st2">CPU</text>		</g>
		<g id="shape7-13" transform="translate(10.6766,232.876) rotate(-90)">
			<title>Sheet.7</title>
			<path d="M0 265.04 L26.93 265.04" class="st5"/>
		</g>
		<g id="shape9-22" transform="translate(0.375,-88.8159)">
			<title>Sheet.9</title>
			<desc>External supply sytem</desc>
			<rect x="0" y="148.69" width="69.5803" height="116.351" class="st4"/>
			<text x="4" y="158.09" class="st7">External supply sytem</text>		</g>
		<g id="shape10-25" transform="translate(224.718,-32.1646)">
			<title>Dynamic connector.61</title>
			<path d="M0 265.04 L0 239.28 L-16.95 239.28" class="st5"/>
		</g>
		<g id="shape11-32" transform="translate(224.718,-25.078)">
			<title>Dynamic connector.37</title>
			<path d="M0 257.95 L0 270.75 L51 270.75 L51 257.95" class="st8"/>
		</g>
		<g id="shape12-35" transform="translate(12.4573,-146.992)">
			<title>Sheet.12</title>
			<desc>Power supply</desc>
			<path d="M0 224.89 L0 265.04 L45.42 265.04 L45.42 224.89 L0 224.89 L0 224.89 Z" class="st9"/>
			<text x="4" y="234.29" class="st2">Power supply</text>		</g>
		<g id="shape13-38" transform="translate(12.4573,-97.6842)">
			<title>Sheet.13</title>
			<desc>Supply monitoring</desc>
			<path d="M0 238.48 L0 265.04 L45.42 265.04 L45.42 238.48 L0 238.48 L0 238.48 Z" class="st9"/>
			<text x="4" y="247.88" class="st2">Supply <tspan x="4" dy="1.2em" class="st10">monitoring</tspan></text>		</g>
		<g id="shape17-42" transform="translate(400.361,-106.367)">
			<title>Sheet.17</title>
			<desc>Any FB</desc>
			<rect x="0" y="231.869" width="49.4334" height="33.1721" class="st4"/>
			<text x="4" y="241.27" class="st2">Any FB</text>		</g>
		<g id="shape19-45" transform="translate(313.165,-124.71)">
			<title>Sheet.19</title>
			<desc>Power-on supply</desc>
			<rect x="0" y="256.076" width="49.4334" height="8.96507" class="st11"/>
			<text x="4.2" y="262.36" class="st2">Power-on supply</text>		</g>
		<g id="shape20-48" transform="translate(330.007,-225.723)">
			<title>Sheet.20</title>
			<desc>IR</desc>
			<rect x="0" y="231.869" width="49.4334" height="33.1721" class="st4"/>
			<text x="4" y="241.27" class="st2">IR</text>		</g>
		<g id="shape21-51" transform="translate(281.553,-241.064)">
			<title>Sheet.21</title>
			<path d="M0 265.04 L48.28 265.04" class="st12"/>
		</g>
		<g id="shape23-56" transform="translate(-229.233,140.792) rotate(-90)">
			<title>Sheet.23</title>
			<path d="M0 265.04 L22.74 265.04" class="st5"/>
		</g>
		<g id="shape24-63" transform="translate(158.338,-92.7136)">
			<title>Sheet.24</title>
			<desc>eGTM, GTM or GPT12</desc>
			<rect x="0" y="222.521" width="49.4334" height="42.5197" class="st4"/>
			<text x="4" y="231.92" class="st2">eGTM, GTM or <tspan x="4" dy="1.2em" class="st10">GPT12</tspan></text>		</g>
		<g id="shape25-67" transform="translate(207.771,-113.505)">
			<title>Sheet.25</title>
			<path d="M0 265.04 L39.06 265.04" class="st12"/>
		</g>
		<g id="shape26-72" transform="translate(400.361,-48.5573)">
			<title>Sheet.26</title>
			<desc>FB in PMS0/1 domain</desc>
			<rect x="0" y="231.869" width="49.4334" height="33.1721" class="st4"/>
			<text x="4" y="241.27" class="st2">FB in PMS0/1 <tspan x="4" dy="1.2em" class="st10">domain</tspan></text>		</g>
		<g id="shape27-76" transform="translate(113.683,-0.375)">
			<title>Sheet.27</title>
			<desc>AURIXTM TC4xx MCU</desc>
			<path d="M0 265.04 L384.81 265.04 L384.81 0.75 L0 0.75 L0 265.04 Z" class="st1"/>
			<text x="4" y="10.15" class="st2">AURIX<tspan dy="-0.234em" class="st13">TM</tspan><tspan dy="0.152em" class="st10"> </tspan>TC4xx MCU</text>		</g>
		<g id="shape28-81" transform="translate(314.07,-124.802)">
			<title>Sheet.28</title>
			<path d="M0 265.04 L86.29 265.04" class="st14"/>
		</g>
		<g id="shape29-87" transform="translate(314.07,-67.6515)">
			<title>Sheet.29</title>
			<path d="M0 265.04 L86.29 265.04" class="st14"/>
		</g>
		<g id="shape30-92" transform="translate(310.786,-67.5561)">
			<title>Sheet.30</title>
			<desc>Standby supply</desc>
			<rect x="0" y="256.076" width="49.4334" height="8.96507" class="st11"/>
			<text x="6.18" y="262.36" class="st2">Standby supply</text>		</g>
		<g id="shape31-95" transform="translate(335.503,-8.45039)">
			<title>Sheet.31</title>
			<desc>SCR</desc>
			<rect x="0" y="231.869" width="49.4334" height="33.1721" class="st4"/>
			<text x="4" y="241.27" class="st2">SCR</text>		</g>
		<g id="shape2-98" transform="translate(101.645,-129.918)">
			<title>Sheet.2</title>
			<desc>Package</desc>
			<path d="M0 265.04 L0 164.41 L28.79 164.41 L28.79 265.04 L0 265.04 Z" class="st16"/>
			<text x="4.44" y="173.81" class="st2">Package</text>		</g>
		<g id="shape33-101" transform="translate(38.4862,240.004) rotate(-90)">
			<title>Sheet.33</title>
			<path d="M0 265.04 L34.06 265.04" class="st12"/>
		</g>
		<g id="shape34-106" transform="translate(335.503,505.045) rotate(180)">
			<title>Sheet.34</title>
			<path d="M0 265.04 L31.98 265.04" class="st17"/>
		</g>
		<g id="shape35-109" transform="translate(276.771,-229.131)">
			<title>Sheet.35</title>
			<desc>Interrupt request</desc>
			<rect x="0" y="240.809" width="49.4334" height="24.2316" class="st11"/>
			<text x="13.64" y="251.13" class="st2">Interrupt <tspan x="15.36" dy="1.2em" class="st10">request</tspan></text>		</g>
		<g id="shape36-113" transform="translate(303.527,-25.0364)">
			<title>Sheet.36</title>
			<desc>Wakeup</desc>
			<rect x="0" y="255.583" width="28.7936" height="9.45787" class="st11"/>
			<text x="4.28" y="262.11" class="st2">Wakeup</text>		</g>
		<g id="shape37-116" transform="translate(205.732,-112.433)">
			<title>Sheet.37</title>
			<desc>DCDCSYNCI</desc>
			<rect x="0" y="255.583" width="39.1181" height="9.45787" class="st11"/>
			<text x="5.54" y="262.11" class="st2">DCDCSYNCI</text>		</g>
		<g id="shape14-119" transform="translate(57.873,-166.769)">
			<title>Sheet.14</title>
			<path d="M0 265.04 L188.96 265.04" class="st14"/>
		</g>
		<g id="shape40-124" transform="translate(314.07,-188.029)">
			<title>Sheet.40</title>
			<path d="M0 265.04 L38.81 265.04" class="st18"/>
		</g>
		<g id="shape41-127" transform="translate(546.594,23.9769) rotate(90)">
			<title>Sheet.41</title>
			<path d="M0 265.04 L38.86 265.04" class="st17"/>
		</g>
		<g id="shape42-130" transform="translate(399.456,-152.595)">
			<title>Sheet.42</title>
			<desc>ADC</desc>
			<rect x="0" y="231.869" width="49.4334" height="33.1721" class="st4"/>
			<text x="4" y="241.27" class="st2">ADC</text>		</g>
		<g id="shape43-133" transform="translate(399.456,-199.789)">
			<title>Sheet.43</title>
			<desc>SMM</desc>
			<rect x="0" y="231.869" width="49.4334" height="33.1721" class="st4"/>
			<text x="4" y="241.27" class="st2">SMM</text>		</g>
		<g id="shape44-136" transform="translate(352.877,-209.288)">
			<title>Sheet.44</title>
			<path d="M0 265.04 L46.58 265.04" class="st14"/>
		</g>
		<g id="shape45-141" transform="translate(617.918,55.7523) rotate(90)">
			<title>Sheet.45</title>
			<path d="M0 265.04 L21.26 265.04" class="st18"/>
		</g>
		<g id="shape46-144" transform="translate(342.59,-209.288)">
			<title>Sheet.46</title>
			<desc>Cold PORST</desc>
			<rect x="0" y="256.076" width="49.4334" height="8.96507" class="st11"/>
			<text x="10.59" y="262.36" class="st2">Cold PORST</text>		</g>
		<g id="shape47-147" transform="translate(314.07,-159.682)">
			<title>Sheet.47</title>
			<path d="M0 265.04 L85.39 265.04" class="st12"/>
		</g>
		<g id="shape48-152" transform="translate(310.786,-159.221)">
			<title>Sheet.48</title>
			<desc>PMS_ADC_REF</desc>
			<rect x="0" y="256.076" width="49.4334" height="8.96507" class="st11"/>
			<text x="6.58" y="262.36" class="st2">PMS_ADC_REF</text>		</g>
		<g id="shape49-155" transform="translate(314.07,-172.438)">
			<title>Sheet.49</title>
			<path d="M0 265.04 L85.39 265.04" class="st12"/>
		</g>
		<g id="shape50-160" transform="translate(312.826,-171.977)">
			<title>Sheet.50</title>
			<desc>POWER_STATUS</desc>
			<rect x="0" y="256.076" width="49.4334" height="8.96507" class="st11"/>
			<text x="4.58" y="262.36" class="st2">POWER_STATUS</text>		</g>
	</g>
</svg>
