<?xml version="1.0" encoding="UTF-8" standalone="no"?>
<!DOCTYPE svg PUBLIC "-//W3C//DTD SVG 1.1//EN" "http://www.w3.org/Graphics/SVG/1.1/DTD/svg11.dtd">
<!-- Generated by Microsoft Visio, SVG Export SDMMCextMem.svg Page-1 -->
<svg xmlns="http://www.w3.org/2000/svg" xmlns:xlink="http://www.w3.org/1999/xlink" xmlns:ev="http://www.w3.org/2001/xml-events"
		width="6.482in" height="3.2899in" viewBox="0 0 466.704 236.873" xml:space="preserve" color-interpolation-filters="sRGB"
		class="st18">
	<style type="text/css">
	<![CDATA[
		.st1 {fill:none;stroke:#000000;stroke-dasharray:5.25,3.75;stroke-linecap:round;stroke-linejoin:round;stroke-width:0.75}
		.st2 {fill:#000000;font-family:Calibri;font-size:0.499992em}
		.st3 {baseline-shift:32.4949%;font-size:0.649897em}
		.st4 {font-size:1em}
		.st5 {fill:#9dc3e6;stroke:none;stroke-linecap:round;stroke-linejoin:round;stroke-width:0.75}
		.st6 {fill:#ffc000;stroke:none;stroke-linecap:round;stroke-linejoin:round;stroke-width:0.75}
		.st7 {fill:#bfbfbf;stroke:none;stroke-linecap:round;stroke-linejoin:round;stroke-width:0.75}
		.st8 {marker-end:url(#mrkr1-35);marker-start:url(#mrkr1-33);stroke:#ff0000;stroke-linecap:round;stroke-linejoin:round;stroke-width:1}
		.st9 {fill:#ff0000;fill-opacity:1;stroke:#ff0000;stroke-opacity:1;stroke-width:0.28409090909091}
		.st10 {stroke:#000000;stroke-dasharray:0.75,1.5;stroke-linecap:round;stroke-linejoin:round;stroke-width:0.75}
		.st11 {marker-end:url(#mrkr1-69);marker-start:url(#mrkr1-67);stroke:#000000;stroke-linecap:round;stroke-linejoin:round;stroke-width:1}
		.st12 {fill:#000000;fill-opacity:1;stroke:#000000;stroke-opacity:1;stroke-width:0.28409090909091}
		.st13 {marker-end:url(#mrkr1-35);stroke:#ff0000;stroke-linecap:round;stroke-linejoin:round;stroke-width:1}
		.st14 {fill:#ffffff;stroke:none;stroke-linecap:round;stroke-linejoin:round;stroke-width:0.75}
		.st15 {stroke:#ff0000;stroke-linecap:round;stroke-linejoin:round;stroke-width:0.5}
		.st16 {fill:#ffff00;stroke:none;stroke-linecap:round;stroke-linejoin:round;stroke-width:0.75}
		.st17 {fill:#000000;font-family:Calibri;font-size:0.499992em;font-weight:bold}
		.st18 {fill:none;fill-rule:evenodd;font-size:12px;overflow:visible;stroke-linecap:square;stroke-miterlimit:3}
	]]>
	</style>

	<defs id="Markers">
		<g id="lend1">
			<path d="M 1 -1 L 0 0 L 1 1 " style="stroke-linecap:round;stroke-linejoin:round;fill:none"/>
		</g>
		<marker id="mrkr1-33" class="st9" orient="auto" markerUnits="strokeWidth" overflow="visible">
			<use xlink:href="#lend1" transform="scale(3.52) "/>
		</marker>
		<marker id="mrkr1-35" class="st9" orient="auto" markerUnits="strokeWidth" overflow="visible">
			<use xlink:href="#lend1" transform="scale(-3.52,-3.52) "/>
		</marker>
		<marker id="mrkr1-67" class="st12" orient="auto" markerUnits="strokeWidth" overflow="visible">
			<use xlink:href="#lend1" transform="scale(3.52) "/>
		</marker>
		<marker id="mrkr1-69" class="st12" orient="auto" markerUnits="strokeWidth" overflow="visible">
			<use xlink:href="#lend1" transform="scale(-3.52,-3.52) "/>
		</marker>
	</defs>
	<g>
		<title>Page-1</title>
		<g id="shape2-1" transform="translate(0.375,-0.375)">
			<title>Sheet.2</title>
			<desc>AURIXTM TC4xx MCU</desc>
			<path d="M0 236.87 L392.19 236.87 L392.19 0.75 L0 0.75 L0 236.87 Z" class="st1"/>
			<text x="4" y="10.15" class="st2">AURIX<tspan dy="-0.234em" class="st3">TM</tspan><tspan dy="0.152em" class="st4"> </tspan>TC4xx MCU</text>		</g>
		<g id="shape3-6" transform="translate(375.559,-61.6842)">
			<title>Sheet.3</title>
			<desc>Package</desc>
			<path d="M0 236.87 L0 136.24 L28.79 136.24 L28.79 236.87 L0 236.87 Z" class="st5"/>
			<text x="4.44" y="145.64" class="st2">Package</text>		</g>
		<g id="shape4-9" transform="translate(316.778,-71.6055)">
			<title>Sheet.4</title>
			<desc>PORTS</desc>
			<path d="M0 151.83 L0 236.87 L28.79 236.87 L28.79 151.83 L0 151.83 L0 151.83 Z" class="st6"/>
			<text x="4" y="161.23" class="st2">PORTS</text>		</g>
		<g id="shape5-12" transform="translate(193.061,-21.5141)">
			<title>Sheet.5</title>
			<desc>SDMMC</desc>
			<path d="M0 54.91 L0 236.87 L80.79 236.87 L80.79 54.91 L0 54.91 L0 54.91 Z" class="st6"/>
			<text x="4" y="64.31" class="st2">SDMMC</text>		</g>
		<g id="shape6-15" transform="translate(90.997,-200.641)">
			<title>Sheet.6</title>
			<desc>IR</desc>
			<rect x="0" y="210.308" width="28.7936" height="26.5648" class="st7"/>
			<text x="4" y="219.71" class="st2">IR</text>		</g>
		<g id="shape7-18" transform="translate(26.1603,-75.9169)">
			<title>Sheet.7</title>
			<desc>CPU</desc>
			<rect x="0" y="143.554" width="80.7912" height="93.3192" class="st6"/>
			<text x="4" y="152.95" class="st2">CPU</text>		</g>
		<g id="shape8-21" transform="translate(57.5182,-20.6869)">
			<title>Sheet.8</title>
			<desc>LMU</desc>
			<rect x="0" y="200.681" width="49.4334" height="36.1921" class="st6"/>
			<text x="4" y="210.08" class="st2">LMU</text>		</g>
		<g id="shape9-24" transform="translate(135.351,-18.0307)">
			<title>Sheet.9</title>
			<desc>SRI</desc>
			<path d="M0 143.55 L0 236.87 L28.79 236.87 L28.79 143.55 L0 143.55 L0 143.55 Z" class="st7"/>
			<text x="4" y="152.95" class="st2">SRI</text>		</g>
		<g id="shape10-27" transform="translate(345.198,-114.125)">
			<title>Sheet.10</title>
			<path d="M0 236.87 L75.71 236.87" class="st8"/>
		</g>
		<g id="shape12-36" transform="translate(164.145,-71.6649)">
			<title>Dynamic connector.62</title>
			<path d="M0 236.87 L-14.16 236.87 L-14.16 218.45 L-28.79 218.45" class="st10"/>
		</g>
		<g id="shape13-39" transform="translate(273.853,-114.707)">
			<title>Sheet.13</title>
			<path d="M0 236.87 L42.93 236.87" class="st8"/>
		</g>
		<g id="shape16-46" transform="translate(193.061,-64.002)">
			<title>Sheet.16</title>
			<desc>M-SRI</desc>
			<path d="M0 236.87 L0 220.34 L28.79 220.34 L28.79 236.87 L0 236.87 Z" class="st5"/>
			<text x="7.15" y="230.41" class="st2">M-SRI</text>		</g>
		<g id="shape17-49" transform="translate(193.071,-164.596)">
			<title>Sheet.17</title>
			<desc>FPI Slave I/F</desc>
			<path d="M0 236.87 L0 220.34 L45.42 220.34 L45.42 236.87 L0 236.87 Z" class="st5"/>
			<text x="8.02" y="230.41" class="st2">FPI Slave I/F</text>		</g>
		<g id="shape18-52" transform="translate(78.158,-81.3027)">
			<title>Sheet.18</title>
			<desc>S-SRI</desc>
			<path d="M0 236.87 L0 220.34 L28.79 220.34 L28.79 236.87 L0 236.87 Z" class="st5"/>
			<text x="8.34" y="230.41" class="st2">S-SRI</text>		</g>
		<g id="shape19-55" transform="translate(78.158,-24.6098)">
			<title>Sheet.19</title>
			<desc>S-SRI</desc>
			<path d="M0 236.87 L0 220.34 L28.79 220.34 L28.79 236.87 L0 236.87 Z" class="st5"/>
			<text x="8.34" y="230.41" class="st2">S-SRI</text>		</g>
		<g id="shape20-58" transform="translate(61.5437,-126.612)">
			<title>Sheet.20</title>
			<desc>FPI Master I/F</desc>
			<path d="M0 236.87 L0 220.34 L45.42 220.34 L45.42 236.87 L0 236.87 Z" class="st5"/>
			<text x="5.66" y="230.41" class="st2">FPI Master I/F</text>		</g>
		<g id="shape21-61" transform="translate(106.959,-134.812)">
			<title>Sheet.21</title>
			<path d="M0 236.87 L29.18 236.87" class="st11"/>
		</g>
		<g id="shape22-70" transform="translate(164.933,-173.22)">
			<title>Sheet.22</title>
			<path d="M0 236.87 L28.14 236.87" class="st11"/>
		</g>
		<g id="shape24-77" transform="translate(106.952,-90.0901)">
			<title>Sheet.24</title>
			<path d="M0 236.87 L28.4 236.87" class="st11"/>
		</g>
		<g id="shape25-84" transform="translate(106.952,-32.5167)">
			<title>Sheet.25</title>
			<path d="M0 236.87 L28.4 236.87" class="st11"/>
		</g>
		<g id="shape26-91" transform="translate(164.145,-71.6649)">
			<title>Sheet.26</title>
			<path d="M0 236.87 L28.92 236.87" class="st11"/>
		</g>
		<g id="shape27-98" transform="translate(233.457,-202.322)">
			<title>Dynamic connector</title>
			<path d="M0 235.72 L0 223.85 L-113.67 223.85" class="st13"/>
		</g>
		<g id="shape28-103" transform="translate(90.997,-213.924)">
			<title>Dynamic connector.57</title>
			<path d="M0 236.87 L-35.23 236.87 L-35.23 281.56" class="st13"/>
		</g>
		<g id="shape29-108" transform="translate(87.1483,-192.137)">
			<title>Sheet.29</title>
			<rect x="0" y="232.338" width="39.2286" height="4.53543" class="st14"/>
		</g>
		<g id="shape33-110" transform="translate(212.401,-87.4938)">
			<title>Sheet.33</title>
			<desc>DMA</desc>
			<path d="M0 236.87 L0 228.61 L21.54 228.61 L21.54 236.87 L0 236.87 Z" class="st5"/>
			<text x="4.62" y="234.54" class="st2">DMA</text>		</g>
		<g id="shape34-113" transform="translate(210.041,-91.1001)">
			<title>Dynamic connector.63</title>
			<path d="M7.09 240.48 L7.09 247.44" class="st15"/>
		</g>
		<g id="shape35-116" transform="translate(420.913,-88.6134)">
			<title>Sheet.35</title>
			<desc>External SD or eMMC memory</desc>
			<rect x="0" y="183.015" width="45.4157" height="53.8583" class="st16"/>
			<text x="4" y="192.42" class="st17">External  <tspan x="4" dy="1.2em" class="st4">SD or eMMC </tspan><tspan x="4"
						dy="1.2em" class="st4">memory</tspan></text>		</g>
		<g id="shape36-121" transform="translate(136.14,-124.33)">
			<title>Sheet.36</title>
			<desc>FPI</desc>
			<path d="M0 158.82 L0 236.87 L28.79 236.87 L28.79 158.82 L0 158.82 L0 158.82 Z" class="st7"/>
			<text x="4" y="168.22" class="st2">FPI</text>		</g>
		<g id="shape11-124" transform="translate(136.14,-134.812)">
			<title>Dynamic connector.61</title>
			<path d="M0 236.87 L14.7 236.87 L14.7 198.46 L28.79 198.46" class="st10"/>
		</g>
		<g id="shape37-127" transform="translate(164.145,-71.6649)">
			<title>Dynamic connector.37</title>
			<path d="M0 236.87 L-14.16 236.87 L-14.16 276.02 L-28.79 276.02" class="st10"/>
		</g>
	</g>
</svg>
