<?xml version="1.0" encoding="UTF-8" standalone="no"?>
<!DOCTYPE svg PUBLIC "-//W3C//DTD SVG 1.1//EN" "http://www.w3.org/Graphics/SVG/1.1/DTD/svg11.dtd">
<!-- Generated by Microsoft Visio, SVG Export Message_Routing_Fcn.svg Message Routing -->
<svg xmlns="http://www.w3.org/2000/svg" xmlns:xlink="http://www.w3.org/1999/xlink" xmlns:ev="http://www.w3.org/2001/xml-events"
		width="7.71654in" height="4.33071in" viewBox="0 0 555.591 311.811" xml:space="preserve" color-interpolation-filters="sRGB"
		class="st20">
	<style type="text/css">
	<![CDATA[
		.st1 {fill:#bfbfbf;stroke:none;stroke-linecap:round;stroke-linejoin:round;stroke-width:0.75}
		.st2 {fill:#000000;font-family:Calibri;font-size:0.499992em;font-weight:bold}
		.st3 {font-size:1em}
		.st4 {fill:none;stroke:#000000;stroke-dasharray:5.25,3.75;stroke-linecap:round;stroke-linejoin:round;stroke-width:0.75}
		.st5 {fill:#000000;font-family:Calibri;font-size:0.499992em}
		.st6 {baseline-shift:32.4949%;font-size:0.649897em}
		.st7 {fill:#9dc3e6;stroke:none;stroke-linecap:round;stroke-linejoin:round;stroke-width:0.75}
		.st8 {marker-start:url(#mrkr1-21);stroke:#000000;stroke-linecap:round;stroke-linejoin:round;stroke-width:1}
		.st9 {fill:#000000;fill-opacity:1;stroke:#000000;stroke-opacity:1;stroke-width:0.28409090909091}
		.st10 {fill:none;stroke:none;stroke-linecap:round;stroke-linejoin:round;stroke-width:0.75}
		.st11 {fill:#d8d8d8;stroke:none;stroke-linecap:round;stroke-linejoin:round;stroke-width:0.75}
		.st12 {marker-end:url(#mrkr1-59);marker-start:url(#mrkr1-21);stroke:#000000;stroke-linecap:round;stroke-linejoin:round;stroke-width:1}
		.st13 {stroke:#000000;stroke-linecap:round;stroke-linejoin:round;stroke-width:1}
		.st14 {fill:#ffc000;stroke:none;stroke-linecap:round;stroke-linejoin:round;stroke-width:0.75}
		.st15 {stroke:#000000;stroke-dasharray:1,2;stroke-linecap:round;stroke-linejoin:round;stroke-width:1}
		.st16 {marker-start:url(#mrkr1-117);stroke:#ff0000;stroke-linecap:round;stroke-linejoin:round;stroke-width:1}
		.st17 {fill:#ff0000;fill-opacity:1;stroke:#ff0000;stroke-opacity:1;stroke-width:0.28409090909091}
		.st18 {marker-end:url(#mrkr1-59);stroke:#000000;stroke-linecap:round;stroke-linejoin:round;stroke-width:1}
		.st19 {stroke:#000000;stroke-dasharray:0.75,1.5;stroke-linecap:round;stroke-linejoin:round;stroke-width:0.75}
		.st20 {fill:none;fill-rule:evenodd;font-size:12px;overflow:visible;stroke-linecap:square;stroke-miterlimit:3}
	]]>
	</style>

	<defs id="Markers">
		<g id="lend1">
			<path d="M 1 -1 L 0 0 L 1 1 " style="stroke-linecap:round;stroke-linejoin:round;fill:none"/>
		</g>
		<marker id="mrkr1-21" class="st9" orient="auto" markerUnits="strokeWidth" overflow="visible">
			<use xlink:href="#lend1" transform="scale(3.52) "/>
		</marker>
		<marker id="mrkr1-59" class="st9" orient="auto" markerUnits="strokeWidth" overflow="visible">
			<use xlink:href="#lend1" transform="scale(-3.52,-3.52) "/>
		</marker>
		<marker id="mrkr1-117" class="st17" orient="auto" markerUnits="strokeWidth" overflow="visible">
			<use xlink:href="#lend1" transform="scale(3.52) "/>
		</marker>
	</defs>
	<g>
		<title>Message Routing</title>
		<g id="shape2-1" transform="translate(459.669,-198.425)">
			<title>Sheet.2</title>
			<desc>External ETH endpoint 1</desc>
			<rect x="0" y="285.246" width="64.7404" height="26.5648" class="st1"/>
			<text x="4" y="294.65" class="st2">External  <tspan x="4" dy="1.2em" class="st3">ETH endpoint 1</tspan></text>		</g>
		<g id="shape6-5" transform="translate(31.748,-18)">
			<title>Sheet.6</title>
			<desc>AURIXTM TC4xx MCU</desc>
			<path d="M0 311.81 L372.56 311.81 L372.56 36 L0 36 L0 311.81 Z" class="st4"/>
			<text x="4" y="45.4" class="st5">AURIX<tspan dy="-0.234em" class="st6">TM</tspan><tspan dy="0.152em" class="st3"> </tspan>TC4xx MCU</text>		</g>
		<g id="shape7-10" transform="translate(389.911,-42.5197)">
			<title>Sheet.7</title>
			<desc>Package</desc>
			<path d="M0 311.81 L0 92.13 L28.79 92.13 L28.79 311.81 L0 311.81 Z" class="st7"/>
			<text x="4.44" y="101.53" class="st5">Package</text>		</g>
		<g id="shape13-13" transform="translate(170.079,-134.646)">
			<title>Sheet.13</title>
			<desc>SRI</desc>
			<path d="M0 173.76 L0 311.81 L22.44 311.81 L22.44 173.76 L0 173.76 L0 173.76 Z" class="st1"/>
			<text x="4" y="183.16" class="st5">SRI</text>		</g>
		<g id="shape19-16" transform="translate(459.669,501.732) rotate(180)">
			<title>Sheet.19</title>
			<path d="M0 311.81 L91.17 311.81" class="st8"/>
		</g>
		<g id="shape28-22" transform="translate(258.467,-35.4331)">
			<title>Sheet.28</title>
			<desc>Trigger</desc>
			<rect x="0" y="302.867" width="28.7936" height="8.9437" class="st10"/>
			<text x="5.84" y="309.14" class="st5">Trigger</text>		</g>
		<g id="shape56-25" transform="translate(459.669,-109.498)">
			<title>Sheet.56</title>
			<desc>External CAN endpoint 1</desc>
			<rect x="0" y="285.246" width="64.7404" height="26.5648" class="st1"/>
			<text x="4" y="294.65" class="st2">External  <tspan x="4" dy="1.2em" class="st3">CAN endpoint 1</tspan></text>		</g>
		<g id="shape57-29" transform="translate(459.669,-153.071)">
			<title>Sheet.57</title>
			<desc>External ETH endpoint 2</desc>
			<rect x="0" y="285.246" width="64.7404" height="26.5648" class="st1"/>
			<text x="4" y="294.65" class="st2">External  <tspan x="4" dy="1.2em" class="st3">ETH endpoint 2</tspan></text>		</g>
		<g id="shape58-33" transform="translate(459.669,-65.5612)">
			<title>Sheet.58</title>
			<desc>External CAN endpoint 2</desc>
			<rect x="0" y="285.246" width="64.7404" height="26.5648" class="st1"/>
			<text x="4" y="294.65" class="st2">External  <tspan x="4" dy="1.2em" class="st3">CAN endpoint 2</tspan></text>		</g>
		<g id="shape59-37" transform="translate(233.858,-196.913)">
			<title>Sheet.59</title>
			<desc>GETH</desc>
			<path d="M0 275.62 L0 311.81 L53.4 311.81 L53.4 275.62 L0 275.62 L0 275.62 Z" class="st1"/>
			<text x="4" y="285.02" class="st5">GETH</text>		</g>
		<g id="shape61-40" transform="translate(233.858,-144.896)">
			<title>Sheet.61</title>
			<desc>LETH</desc>
			<path d="M0 275.62 L0 311.81 L53.4 311.81 L53.4 275.62 L0 275.62 L0 275.62 Z" class="st1"/>
			<text x="4" y="285.02" class="st5">LETH</text>		</g>
		<g id="shape62-43" transform="translate(233.858,-63.7795)">
			<title>Sheet.62</title>
			<desc>MCMCAN</desc>
			<path d="M0 246.52 L0 311.81 L53.4 311.81 L53.4 246.52 L0 246.52 L0 246.52 Z" class="st1"/>
			<text x="4" y="255.92" class="st5">MCMCAN</text>		</g>
		<g id="shape63-46" transform="translate(240.945,-96.9478)">
			<title>Sheet.63</title>
			<desc>Node x</desc>
			<path d="M0 293.75 L0 311.81 L39.23 311.81 L39.23 293.75 L0 293.75 L0 293.75 Z" class="st11"/>
			<text x="4" y="303.15" class="st5">Node x</text>		</g>
		<g id="shape64-49" transform="translate(240.945,-70.8661)">
			<title>Sheet.64</title>
			<desc>Node y</desc>
			<path d="M0 293.75 L0 311.81 L39.23 311.81 L39.23 293.75 L0 293.75 L0 293.75 Z" class="st11"/>
			<text x="4" y="303.15" class="st5">Node y</text>		</g>
		<g id="shape65-52" transform="translate(280.174,-79.3701)">
			<title>Sheet.65</title>
			<path d="M0 311.81 L179.5 311.81" class="st12"/>
		</g>
		<g id="shape66-60" transform="translate(280.174,-104.882)">
			<title>Sheet.66</title>
			<path d="M0 311.81 L88.33 311.81" class="st8"/>
		</g>
		<g id="shape67-65" transform="translate(56.6929,206.929) rotate(-90)">
			<title>Sheet.67</title>
			<path d="M0 311.81 L17.01 311.81" class="st13"/>
		</g>
		<g id="shape68-68" transform="translate(287.26,-162.992)">
			<title>Sheet.68</title>
			<path d="M0 311.81 L172.41 311.81" class="st12"/>
		</g>
		<g id="shape69-75" transform="translate(287.26,-212.598)">
			<title>Sheet.69</title>
			<path d="M0 311.81 L172.41 311.81" class="st12"/>
		</g>
		<g id="shape70-82" transform="translate(59.7558,-84.9704)">
			<title>Sheet.70</title>
			<desc>DRE</desc>
			<path d="M0 206.26 L0 311.81 L64.74 311.81 L64.74 206.26 L0 206.26 L0 206.26 Z" class="st14"/>
			<text x="4" y="215.66" class="st5">DRE</text>		</g>
		<g id="shape60-85" transform="translate(309.718,-63.7795)">
			<title>Sheet.60</title>
			<desc>PORTS</desc>
			<path d="M0 194.5 L0 311.81 L39.23 311.81 L39.23 194.5 L0 194.5 L0 194.5 Z" class="st1"/>
			<text x="4" y="203.9" class="st5">PORTS</text>		</g>
		<g id="shape1-88" transform="translate(309.718,-196.913)">
			<title>Sheet.1</title>
			<desc>HSPHY</desc>
			<path d="M0 275.62 L0 311.81 L39.23 311.81 L39.23 275.62 L0 275.62 L0 275.62 Z" class="st1"/>
			<text x="4" y="285.02" class="st5">HSPHY</text>		</g>
		<g id="shape74-91" transform="translate(309.718,-212.598)">
			<title>Sheet.74</title>
			<path d="M0 311.81 L39.23 311.81" class="st15"/>
		</g>
		<g id="shape75-94" transform="translate(309.718,-162.992)">
			<title>Sheet.75</title>
			<path d="M0 311.81 L39.23 311.81" class="st15"/>
		</g>
		<g id="shape76-97" transform="translate(309.718,-104.882)">
			<title>Sheet.76</title>
			<path d="M0 311.81 L39.23 311.81" class="st15"/>
		</g>
		<g id="shape77-100" transform="translate(309.718,-79.3701)">
			<title>Sheet.77</title>
			<path d="M0 311.81 L39.23 311.81" class="st15"/>
		</g>
		<g id="shape78-103" transform="translate(170.079,-35.4331)">
			<title>Sheet.78</title>
			<desc>FPI</desc>
			<path d="M0 226.77 L0 311.81 L22.44 311.81 L22.44 226.77 L0 226.77 L0 226.77 Z" class="st1"/>
			<text x="4" y="236.17" class="st5">FPI</text>		</g>
		<g id="shape79-106" transform="translate(302.622,-21.3897)">
			<title>Sheet.79</title>
			<desc>GTM/eGTM</desc>
			<rect x="0" y="285.246" width="46.3246" height="26.5648" class="st1"/>
			<text x="4" y="294.65" class="st5">GTM/eGTM</text>		</g>
		<g id="shape80-109" transform="translate(72.5117,-36.2549)">
			<title>Sheet.80</title>
			<desc>IR</desc>
			<rect x="0" y="285.246" width="39.2286" height="26.5648" class="st1"/>
			<text x="4" y="294.65" class="st5">IR</text>		</g>
		<g id="shape82-112" transform="translate(-212.598,248.991) rotate(-90)">
			<title>Sheet.82</title>
			<path d="M0 311.81 L22.15 311.81" class="st16"/>
		</g>
		<g id="shape83-118" transform="translate(233.858,-248.93)">
			<title>Sheet.83</title>
			<desc>LMU</desc>
			<path d="M0 275.62 L0 311.81 L53.4 311.81 L53.4 275.62 L0 275.62 L0 275.62 Z" class="st1"/>
			<text x="4" y="285.02" class="st5">LMU</text>		</g>
		<g id="shape84-121" transform="translate(59.7558,-234.122)">
			<title>Sheet.84</title>
			<desc>CPU</desc>
			<path d="M0 267.02 L0 311.81 L64.74 311.81 L64.74 267.02 L0 267.02 L0 267.02 Z" class="st1"/>
			<text x="4" y="276.42" class="st5">CPU</text>		</g>
		<g id="shape85-124" transform="translate(191.814,-212.598)">
			<title>Sheet.85</title>
			<path d="M0 311.81 L42.04 311.81" class="st12"/>
		</g>
		<g id="shape86-131" transform="translate(191.814,-162.992)">
			<title>Sheet.86</title>
			<path d="M0 311.81 L42.04 311.81" class="st12"/>
		</g>
		<g id="shape87-138" transform="translate(192.518,-258.776)">
			<title>Sheet.87</title>
			<path d="M0 311.81 L42.04 311.81" class="st12"/>
		</g>
		<g id="shape88-145" transform="translate(124.496,-248.032)">
			<title>Sheet.88</title>
			<path d="M0 311.81 L45.58 311.81" class="st12"/>
		</g>
		<g id="shape89-152" transform="translate(124.496,-162.992)">
			<title>Sheet.89</title>
			<path d="M0 311.81 L45.58 311.81" class="st12"/>
		</g>
		<g id="shape90-159" transform="translate(124.496,-106.299)">
			<title>Sheet.90</title>
			<path d="M0 311.81 L45.58 311.81" class="st12"/>
		</g>
		<g id="shape91-166" transform="translate(192.518,-77.9528)">
			<title>Sheet.91</title>
			<path d="M0 311.81 L41.34 311.81" class="st12"/>
		</g>
		<g id="shape92-173" transform="translate(255.118,-35.4331)">
			<title>Sheet.92</title>
			<path d="M0 311.81 L47.5 311.81" class="st18"/>
		</g>
		<g id="shape93-178" transform="translate(566.929,248.031) rotate(90)">
			<title>Sheet.93</title>
			<path d="M0 311.81 L28.35 311.81" class="st8"/>
		</g>
		<g id="shape94-183" transform="translate(67.6657,-240.945)">
			<title>Sheet.94</title>
			<desc>RAM</desc>
			<path d="M0 311.81 L0 295.28 L28.79 295.28 L28.79 311.81 L0 311.81 Z" class="st11"/>
			<text x="8.47" y="304.68" class="st5">RAM</text>		</g>
		<g id="shape95-186" transform="translate(170.079,-106.299)">
			<title>Dynamic connector.95</title>
			<path d="M0 311.81 L11.34 311.81 L11.34 340.16 L22.44 340.16" class="st19"/>
		</g>
		<g id="shape96-189" transform="translate(185.08,-162.992)">
			<title>Dynamic connector.96</title>
			<path d="M6.73 311.81 L-3.66 311.81 L-3.66 216.03 L7.44 216.03" class="st19"/>
		</g>
		<g id="shape97-192" transform="translate(181.417,375.591) rotate(180)">
			<title>Sheet.97</title>
			<path d="M0 311.81 L11.34 311.81" class="st19"/>
		</g>
		<g id="shape98-195" transform="translate(191.814,411.024) rotate(180)">
			<title>Sheet.98</title>
			<path d="M0 311.81 L10.4 311.81" class="st19"/>
		</g>
		<g id="shape99-198" transform="translate(170.079,-162.992)">
			<title>Sheet.99</title>
			<path d="M0 311.81 L11.34 311.81" class="st19"/>
		</g>
		<g id="shape100-201" transform="translate(38.8621,-21.3897)">
			<title>Sheet.100</title>
			<desc>Bus master and slave interfaces of each FB are not shown for ...</desc>
			<rect x="0" y="302.867" width="194.996" height="8.9437" class="st10"/>
			<text x="4" y="309.14" class="st5">Bus master and slave interfaces of each FB are not shown for simplicity</text>		</g>
		<g id="shape101-204" transform="translate(124.496,-125.858)">
			<title>Sheet.101</title>
			<path d="M0 311.81 L79.6 311.81" class="st8"/>
		</g>
		<g id="shape102-209" transform="translate(-107.717,209.764) rotate(-90)">
			<title>Sheet.102</title>
			<path d="M0 311.81 L23.81 311.81" class="st13"/>
		</g>
		<g id="shape103-212" transform="translate(233.858,521.575) rotate(180)">
			<title>Sheet.103</title>
			<path d="M0 311.81 L29.76 311.81" class="st13"/>
		</g>
		<g id="shape104-215" transform="translate(201.916,-101.506)">
			<title>Sheet.104</title>
			<desc>CRE TRIG</desc>
			<rect x="0" y="302.867" width="35.5379" height="8.9437" class="st10"/>
			<text x="6.66" y="309.14" class="st5">CRE TRIG</text>		</g>
	</g>
</svg>
