<?xml version="1.0" encoding="UTF-8" standalone="no"?>
<!DOCTYPE svg PUBLIC "-//W3C//DTD SVG 1.1//EN" "http://www.w3.org/Graphics/SVG/1.1/DTD/svg11.dtd">
<!-- Generated by Microsoft Visio, SVG Export TC4xx_TUC_RedundantCommCh.svg RedundantChComm -->
<svg xmlns="http://www.w3.org/2000/svg" xmlns:xlink="http://www.w3.org/1999/xlink" xmlns:ev="http://www.w3.org/2001/xml-events"
		width="7.71654in" height="4.33071in" viewBox="0 0 555.591 311.811" xml:space="preserve" color-interpolation-filters="sRGB"
		class="st22">
	<style type="text/css">
	<![CDATA[
		.st1 {fill:#d9d9d9;stroke:none;stroke-linecap:round;stroke-linejoin:round;stroke-width:0.75}
		.st2 {fill:#ffc000;stroke:none;stroke-linecap:round;stroke-linejoin:round;stroke-width:0.75}
		.st3 {stroke:none;stroke-linecap:round;stroke-linejoin:round;stroke-width:0.75}
		.st4 {fill:#000000;font-family:Verdana;font-size:0.712875em}
		.st5 {fill:#ffcc99;stroke:none;stroke-linecap:round;stroke-linejoin:round;stroke-width:0.75}
		.st6 {fill:#99ccff;stroke:none;stroke-linecap:round;stroke-linejoin:round;stroke-width:0.75}
		.st7 {stroke:#99ccff;stroke-linecap:round;stroke-linejoin:round;stroke-width:0.439107}
		.st8 {fill:#00b050;stroke:#00b050;stroke-linecap:round;stroke-linejoin:round;stroke-width:0.00457403}
		.st9 {fill:#00b050;font-family:Verdana;font-size:0.505714em}
		.st10 {stroke:#00b050;stroke-linecap:round;stroke-linejoin:round;stroke-width:0.439107}
		.st11 {fill:#0070c0;stroke:#0070c0;stroke-linecap:round;stroke-linejoin:round;stroke-width:0.00457403}
		.st12 {fill:#0070c0;font-family:Verdana;font-size:0.505714em}
		.st13 {stroke:#0070c0;stroke-linecap:round;stroke-linejoin:round;stroke-width:0.439107}
		.st14 {fill:#ff9933;stroke:none;stroke-linecap:round;stroke-linejoin:round;stroke-width:0.75}
		.st15 {fill:#c00000;stroke:#c00000;stroke-linecap:round;stroke-linejoin:round;stroke-width:0.0182961}
		.st16 {fill:#0070c0;stroke:#0070c0;stroke-linecap:round;stroke-linejoin:round;stroke-width:0.00914806}
		.st17 {fill:#00b050;stroke:#00b050;stroke-linecap:round;stroke-linejoin:round;stroke-width:0.00914806}
		.st18 {fill:#00b050;stroke:#00b050;stroke-linecap:round;stroke-linejoin:round;stroke-width:0.0182961}
		.st19 {fill:#0070c0;stroke:#0070c0;stroke-linecap:round;stroke-linejoin:round;stroke-width:0.0182961}
		.st20 {fill:#00b050;font-family:Verdana;font-size:0.712875em}
		.st21 {fill:#0070c0;font-family:Verdana;font-size:0.712875em}
		.st22 {fill:none;fill-rule:evenodd;font-size:12px;overflow:visible;stroke-linecap:square;stroke-miterlimit:3}
	]]>
	</style>

	<g>
		<title>RedundantChComm</title>
		<g id="shape3-1" transform="translate(473.361,-108.061)">
			<title>Sheet.3</title>
			<path d="M0 211.02 C0 207.57 2.8 204.77 6.26 204.77 L52.36 204.77 C55.82 204.77 58.6 207.57 58.6 211.02 L58.6 305.58
						 C58.6 309.03 55.82 311.81 52.36 311.81 L6.26 311.81 C2.8 311.81 0 309.03 0 305.58 L0 211.02 Z" class="st1"/>
		</g>
		<g id="shape4-3" transform="translate(480.027,-114.934)">
			<title>Sheet.4</title>
			<path d="M0 218.44 L0 311.81 L45.12 311.81 L45.12 218.44 L0 218.44 L0 218.44 Z" class="st2"/>
		</g>
		<g id="shape5-5" transform="translate(494.266,-155.177)">
			<title>Sheet.5</title>
			<desc>CPU</desc>
			<path d="M23.46 301.54 L0 301.54 L0 311.81 L23.46 311.81 L23.46 301.54" class="st3"/>
			<text x="3.04" y="309.24" class="st4">CPU</text>		</g>
		<g id="shape6-9" transform="translate(493.817,-94.5519)">
			<title>Sheet.6</title>
			<desc>CPU</desc>
			<path d="M23.46 301.54 L0 301.54 L0 311.81 L23.46 311.81 L23.46 301.54" class="st3"/>
			<text x="3.04" y="309.24" class="st4">CPU</text>		</g>
		<g id="shape7-13" transform="translate(202.761,-107.768)">
			<title>Sheet.7</title>
			<path d="M0 214.75 C0 209.29 4.45 204.84 9.93 204.84 L149.42 204.84 C154.9 204.84 159.33 209.29 159.33 214.75 L159.33
						 301.92 C159.33 307.39 154.9 311.81 149.42 311.81 L9.93 311.81 C4.45 311.81 0 307.39 0 301.92 L0 214.75 Z"
					class="st1"/>
		</g>
		<g id="shape8-15" transform="translate(209.647,-173.645)">
			<title>Sheet.8</title>
			<path d="M0 277.45 L0 311.81 L145.04 311.81 L145.04 277.45 L0 277.45 L0 277.45 Z" class="st5"/>
		</g>
		<g id="shape9-17" transform="translate(209.647,-114.641)">
			<title>Sheet.9</title>
			<path d="M0 277.3 L0 311.81 L145.19 311.81 L145.19 277.3 L0 277.3 L0 277.3 Z" class="st5"/>
		</g>
		<g id="shape10-19" transform="translate(112.439,-106.964)">
			<title>Sheet.10</title>
			<path d="M0 213.39 C0 208.26 4.16 204.11 9.29 204.11 L49.68 204.11 C54.81 204.11 58.97 208.26 58.97 213.39 L58.97 302.54
						 C58.97 307.66 54.81 311.81 49.68 311.81 L9.29 311.81 C4.16 311.81 0 307.66 0 302.54 L0 213.39 Z"
					class="st1"/>
		</g>
		<g id="shape11-21" transform="translate(119.399,-172.621)">
			<title>Sheet.11</title>
			<path d="M0 277.08 L0 311.81 L45.05 311.81 L45.05 277.08 L0 277.08 L0 277.08 Z" class="st5"/>
		</g>
		<g id="shape12-23" transform="translate(119.472,-113.91)">
			<title>Sheet.12</title>
			<path d="M0 276.72 L0 311.81 L45.05 311.81 L45.05 276.72 L0 276.72 L0 276.72 Z" class="st5"/>
		</g>
		<g id="shape13-25" transform="translate(18.3083,-145.788)">
			<title>Sheet.13</title>
			<path d="M0 277.81 L0 311.81 L65.78 311.81 L65.78 277.81 L0 277.81 L0 277.81 Z" class="st6"/>
		</g>
		<g id="shape14-27" transform="translate(18.3083,-145.788)">
			<title>Sheet.14</title>
			<path d="M0 277.81 L65.78 277.81 L65.78 311.81 L0 311.81 L0 277.81" class="st7"/>
		</g>
		<g id="shape15-30" transform="translate(23.2125,-156.416)">
			<title>Sheet.15</title>
			<desc>Package</desc>
			<path d="M44.15 301.54 L0 301.54 L0 311.81 L44.15 311.81 L44.15 301.54" class="st3"/>
			<text x="4.38" y="309.24" class="st4">Package</text>		</g>
		<g id="shape16-34" transform="translate(36.5385,-169.272)">
			<title>Sheet.16</title>
			<path d="M2.13 296.28 L2.13 311.81 L48.05 311.81 L48.05 310.86 L2.61 310.86 L3.09 311.34 L3.09 296.28 L2.13 296.28 ZM5.16
						 299.7 L2.61 295.34 L0.06 299.7 C-0.07 299.93 0.01 300.21 0.23 300.35 C0.46 300.48 0.76 300.4 0.89 300.18
						 L3.02 296.52 L2.2 296.52 L4.34 300.18 L4.34 300.18 C4.47 300.4 4.76 300.48 4.99 300.35 C5.22 300.21 5.29
						 299.93 5.16 299.7 Z" class="st8"/>
		</g>
		<g id="shape17-36" transform="translate(52.8841,-173.987)">
			<title>Sheet.17</title>
			<path d="M0 299.83 L0 309.68 L30.33 309.68 L30.33 308.73 L0.48 308.73 L0.95 309.2 L0.95 299.83 L0 299.83 ZM26.9 311.75
						 L31.27 309.2 L26.9 306.66 C26.67 306.53 26.39 306.61 26.25 306.83 C26.12 307.06 26.2 307.35 26.42 307.48
						 L30.08 309.61 L30.08 308.79 L26.42 310.92 C26.2 311.06 26.12 311.35 26.25 311.58 C26.39 311.8 26.67 311.88
						 26.9 311.75 Z" class="st8"/>
		</g>
		<g id="shape18-38" transform="translate(45.3357,-188.317)">
			<title>Sheet.18</title>
			<desc>RX1</desc>
			<path d="M15.98 304.53 L0 304.53 L0 311.81 L15.98 311.81 L15.98 304.53" class="st3"/>
			<text x="1.87" y="309.99" class="st9">RX1</text>		</g>
		<g id="shape19-42" transform="translate(46.3645,-186.001)">
			<title>Sheet.19</title>
			<path d="M0 305.74 C0 302.39 3.12 299.67 6.96 299.67 C10.8 299.67 13.92 302.39 13.92 305.74 C13.92 309.1 10.8 311.81
						 6.96 311.81 C3.12 311.81 -0 309.1 0 305.74" class="st10"/>
		</g>
		<g id="shape20-45" transform="translate(31.1811,-188.305)">
			<title>Sheet.20</title>
			<desc>T</desc>
			<path d="M7.31 304.53 L0 304.53 L0 311.81 L7.31 311.81 L7.31 304.53" class="st3"/>
			<text x="1.79" y="309.99" class="st9">T</text>		</g>
		<g id="shape21-49" transform="translate(35.4298,-188.305)">
			<title>Sheet.21</title>
			<desc>X1</desc>
			<path d="M11.68 304.53 L0 304.53 L0 311.81 L11.68 311.81 L11.68 304.53" class="st3"/>
			<text x="1.83" y="309.99" class="st9">X1</text>		</g>
		<g id="shape22-53" transform="translate(32.1533,-185.782)">
			<title>Sheet.22</title>
			<path d="M0 305.74 C-0 302.39 3.14 299.67 7 299.67 C10.86 299.67 13.99 302.39 13.99 305.74 C13.99 309.1 10.86 311.81
						 7 311.81 C3.14 311.81 0 309.1 0 305.74" class="st10"/>
		</g>
		<g id="shape23-56" transform="translate(40.2844,-137.782)">
			<title>Sheet.23</title>
			<path d="M0 311.81 L0 293.06 L43.15 293.06 L43.15 294.01 L0.48 294.01 L0.95 293.53 L0.95 311.81 L0 311.81 ZM39.72 290.99
						 L44.09 293.53 L39.72 296.08 C39.49 296.21 39.2 296.13 39.07 295.91 C38.94 295.68 39.02 295.39 39.24 295.26
						 L42.9 293.13 L42.9 293.94 L39.24 291.81 C39.02 291.68 38.94 291.39 39.07 291.16 C39.2 290.94 39.49 290.86
						 39.72 290.99 Z" class="st11"/>
		</g>
		<g id="shape24-58" transform="translate(51.9218,-137.736)">
			<title>Sheet.24</title>
			<path d="M2.13 310.87 L2.13 299.23 L32.07 299.23 L32.07 300.18 L2.61 300.18 L3.09 299.7 L3.09 310.87 L2.13 310.87 ZM5.16
						 307.45 L2.61 311.81 L0.06 307.45 C-0.07 307.22 0.01 306.94 0.23 306.8 C0.46 306.67 0.76 306.74 0.89 306.97
						 L3.02 310.63 L2.2 310.63 L4.34 306.97 C4.47 306.74 4.76 306.67 4.99 306.8 C5.22 306.94 5.29 307.22 5.16
						 307.45 Z" class="st11"/>
		</g>
		<g id="shape25-60" transform="translate(32.831,-128.107)">
			<title>Sheet.25</title>
			<desc>RX2</desc>
			<path d="M15.98 304.53 L0 304.53 L0 311.81 L15.98 311.81 L15.98 304.53" class="st3"/>
			<text x="1.87" y="309.99" class="st12">RX2</text>		</g>
		<g id="shape26-64" transform="translate(33.7648,-125.681)">
			<title>Sheet.26</title>
			<path d="M0 305.74 C0 302.39 3.12 299.67 6.96 299.67 C10.8 299.67 13.92 302.39 13.92 305.74 C13.92 309.1 10.8 311.81
						 6.96 311.81 C3.12 311.81 0 309.1 0 305.74" class="st13"/>
		</g>
		<g id="shape27-67" transform="translate(46.1951,-128.107)">
			<title>Sheet.27</title>
			<desc>TX2</desc>
			<path d="M16.53 304.53 L0 304.53 L0 311.81 L16.53 311.81 L16.53 304.53" class="st3"/>
			<text x="2.39" y="309.99" class="st12">TX2</text>		</g>
		<g id="shape28-71" transform="translate(47.4633,-125.681)">
			<title>Sheet.28</title>
			<path d="M0 305.74 C-0 302.39 3.14 299.67 7 299.67 C10.86 299.67 13.99 302.39 13.99 305.74 C13.99 309.1 10.86 311.81
						 7 311.81 C3.14 311.81 0 309.1 0 305.74" class="st13"/>
		</g>
		<g id="shape29-74" transform="translate(118.455,-189.406)">
			<title>Sheet.29</title>
			<desc>Pa.b (RX)</desc>
			<path d="M50.21 301.54 L0 301.54 L0 311.81 L50.21 311.81 L50.21 301.54" class="st3"/>
			<text x="4.44" y="309.24" class="st4">Pa.b (RX)</text>		</g>
		<g id="shape30-78" transform="translate(118.159,-179.17)">
			<title>Sheet.30</title>
			<desc>Pa.c (TX)</desc>
			<path d="M49.98 301.54 L0 301.54 L0 311.81 L49.98 311.81 L49.98 301.54" class="st3"/>
			<text x="5.1" y="309.24" class="st4">Pa.c (TX)</text>		</g>
		<g id="shape31-82" transform="translate(119.055,-130.457)">
			<title>Sheet.31</title>
			<desc>Px.y (RX)</desc>
			<path d="M49.81 301.54 L0 301.54 L0 311.81 L49.81 311.81 L49.81 301.54" class="st3"/>
			<text x="4.42" y="309.24" class="st4">Px.y (RX)</text>		</g>
		<g id="shape32-86" transform="translate(119.055,-120.221)">
			<title>Sheet.32</title>
			<desc>Px.z (TX)</desc>
			<path d="M49.94 301.54 L0 301.54 L0 311.81 L49.94 311.81 L49.94 301.54" class="st3"/>
			<text x="5.1" y="309.24" class="st4">Px.z (TX)</text>		</g>
		<g id="shape33-90" transform="translate(383.405,-136.795)">
			<title>Sheet.33</title>
			<path d="M0 271.18 C-0 266.7 3.66 263.04 8.15 263.04 L51.57 263.04 C56.06 263.04 59.7 266.7 59.7 271.18 L59.7 303.7 C59.7
						 308.17 56.06 311.81 51.57 311.81 L8.15 311.81 C3.66 311.81 -0 308.17 0 303.7 L0 271.18 Z" class="st1"/>
		</g>
		<g id="shape34-92" transform="translate(390.877,-143.668)">
			<title>Sheet.34</title>
			<path d="M0 277.3 L0 311.81 L44.9 311.81 L44.9 277.3 L0 277.3 L0 277.3 Z" class="st14"/>
		</g>
		<g id="shape35-94" transform="translate(404.88,-154.913)">
			<title>Sheet.35</title>
			<desc>SPB</desc>
			<path d="M22.86 301.54 L0 301.54 L0 311.81 L22.86 311.81 L22.86 301.54" class="st3"/>
			<text x="3" y="309.24" class="st4">SPB</text>		</g>
		<g id="shape36-98" transform="translate(406.057,-125.115)">
			<title>Sheet.36</title>
			<desc>FPI</desc>
			<path d="M19.19 301.54 L0 301.54 L0 311.81 L19.19 311.81 L19.19 301.54" class="st3"/>
			<text x="2.76" y="309.24" class="st4">FPI</text>		</g>
		<g id="shape37-102" transform="translate(436.405,-158.831)">
			<title>Sheet.37</title>
			<path d="M0.95 308.71 L44.74 308.73 L44.74 309.68 L0.95 309.66 L0.95 308.71 ZM4.38 311.73 L0 309.17 L4.38 306.65 C4.6
						 306.5 4.89 306.58 5.02 306.81 C5.16 307.03 5.09 307.32 4.85 307.45 L1.19 309.59 L1.19 308.77 L4.85 310.91
						 L4.85 310.91 C5.07 311.04 5.16 311.33 5.02 311.55 C4.89 311.78 4.6 311.86 4.38 311.73 ZM41.32 306.67 L45.67
						 309.21 L41.32 311.75 C41.08 311.88 40.8 311.8 40.66 311.58 C40.53 311.35 40.6 311.05 40.84 310.93 L44.5
						 308.81 L44.5 309.63 L40.84 307.49 C40.6 307.36 40.53 307.07 40.66 306.83 C40.8 306.61 41.1 306.54 41.32
						 306.67 Z" class="st15"/>
		</g>
		<g id="shape38-104" transform="translate(239.19,-93.9358)">
			<title>Sheet.38</title>
			<desc>QSPI /</desc>
			<path d="M39.39 301.54 L0 301.54 L0 311.81 L39.39 311.81 L39.39 301.54" class="st3"/>
			<text x="5.58" y="309.24" class="st4">QSPI / </text>		</g>
		<g id="shape39-108" transform="translate(270.396,-93.9358)">
			<title>Sheet.39</title>
			<desc>ASCLIN / I2C</desc>
			<path d="M69.41 301.54 L0 301.54 L0 311.81 L69.41 311.81 L69.41 301.54" class="st3"/>
			<text x="6.03" y="309.24" class="st4">ASCLIN / I2C</text>		</g>
		<g id="shape40-112" transform="translate(263.71,-184.301)">
			<title>Sheet.40</title>
			<desc>Module</desc>
			<path d="M42.1 301.54 L0 301.54 L0 311.81 L42.1 311.81 L42.1 301.54" class="st3"/>
			<text x="5.75" y="309.24" class="st4">Module </text>		</g>
		<g id="shape41-116" transform="translate(297.26,-184.301)">
			<title>Sheet.41</title>
			<desc>1</desc>
			<path d="M9.72 301.54 L0 301.54 L0 311.81 L9.72 311.81 L9.72 301.54" class="st3"/>
			<text x="2.14" y="309.24" class="st4">1</text>		</g>
		<g id="shape42-120" transform="translate(264.625,-126.722)">
			<title>Sheet.42</title>
			<desc>Module</desc>
			<path d="M42.1 301.54 L0 301.54 L0 311.81 L42.1 311.81 L42.1 301.54" class="st3"/>
			<text x="5.75" y="309.24" class="st4">Module </text>		</g>
		<g id="shape43-124" transform="translate(298.176,-126.722)">
			<title>Sheet.43</title>
			<desc>2</desc>
			<path d="M9.72 301.54 L0 301.54 L0 311.81 L9.72 311.81 L9.72 301.54" class="st3"/>
			<text x="2.14" y="309.24" class="st4">2</text>		</g>
		<g id="shape44-128" transform="translate(84.2734,-176.341)">
			<title>Sheet.44</title>
			<path d="M0 311.81 L2.86 311.81 L2.86 310.86 L0 310.86 L0 311.81 ZM3.81 311.81 L6.67 311.81 L6.67 310.86 L3.81 310.86
						 L3.81 311.81 ZM7.62 311.81 L10.48 311.81 L10.48 310.86 L7.62 310.86 L7.62 311.81 ZM11.43 311.81 L14.28 311.81
						 L14.28 310.86 L11.43 310.86 L11.43 311.81 ZM15.24 311.81 L16.04 311.81 L16.04 308.81 L15.09 308.81 L15.09
						 311.34 L15.57 310.86 L15.24 310.86 L15.24 311.81 ZM16.04 307.86 L16.04 305.01 L15.09 305.01 L15.09 307.86
						 L16.04 307.86 ZM16.04 304.06 L16.04 301.21 L15.09 301.21 L15.09 304.06 L16.04 304.06 ZM16.04 300.26 L16.04
						 297.41 L15.09 297.41 L15.09 300.26 L16.04 300.26 ZM16.04 296.46 L16.04 293.61 L15.09 293.61 L15.09 296.46
						 L16.04 296.46 ZM15.74 293.3 L18.6 293.3 L18.6 292.35 L15.74 292.35 L15.74 293.3 ZM19.55 293.3 L22.41 293.3
						 L22.41 292.35 L19.55 292.35 L19.55 293.3 ZM23.36 293.3 L26.22 293.3 L26.22 292.35 L23.36 292.35 L23.36 293.3
						 ZM27.17 293.3 L30.02 293.3 L30.02 292.35 L27.17 292.35 L27.17 293.3 ZM30.98 293.3 L33.83 293.3 L33.83 292.35
						 L30.98 292.35 L30.98 293.3 ZM34.79 293.3 L35.69 293.3 L35.69 292.35 L34.79 292.35 L34.79 293.3 ZM32.26 295.37
						 L36.63 292.83 L32.26 290.29 C32.03 290.16 31.75 290.23 31.61 290.46 C31.48 290.69 31.56 290.98 31.78 291.11
						 L35.45 293.24 L35.45 292.42 L31.78 294.55 C31.56 294.68 31.48 294.98 31.61 295.2 C31.75 295.43 32.03 295.51
						 32.26 295.37 Z" class="st8"/>
		</g>
		<g id="shape45-130" transform="translate(84.4199,-167.119)">
			<title>Sheet.45</title>
			<path d="M0.94 309.68 L3.8 309.68 L3.8 308.73 L0.94 308.73 L0.94 309.68 ZM4.75 309.68 L7.61 309.68 L7.61 308.73 L4.75
						 308.73 L4.75 309.68 ZM8.56 309.68 L11.42 309.68 L11.42 308.73 L8.56 308.73 L8.56 309.68 ZM12.37 309.68 L15.23
						 309.68 L15.23 308.73 L12.37 308.73 L12.37 309.68 ZM16.18 309.68 L19.04 309.68 L19.04 308.73 L16.18 308.73
						 L16.18 309.68 ZM19.99 309.68 L22.51 309.68 L22.51 308.39 L21.56 308.39 L21.56 309.2 L22.04 308.73 L19.99
						 308.73 L19.99 309.68 ZM22.51 307.44 L22.51 304.59 L21.56 304.59 L21.56 307.44 L22.51 307.44 ZM22.51 303.64
						 L22.51 300.79 L21.56 300.79 L21.56 303.64 L22.51 303.64 ZM22.51 299.84 L22.51 296.99 L21.56 296.99 L21.56
						 299.84 L22.51 299.84 ZM22.51 296.04 L22.51 293.18 L21.56 293.18 L21.56 296.04 L22.51 296.04 ZM22.51 292.23
						 L22.51 291.72 L22.04 292.2 L24.38 292.2 L24.38 291.25 L21.56 291.25 L21.56 292.23 L22.51 292.23 ZM25.33
						 292.2 L28.19 292.2 L28.19 291.25 L25.33 291.25 L25.33 292.2 ZM29.14 292.2 L32 292.2 L32 291.25 L29.14 291.25
						 L29.14 292.2 ZM32.95 292.2 L35.81 292.2 L35.81 291.25 L32.95 291.25 L32.95 292.2 ZM4.37 306.66 L0 309.2
						 L4.37 311.75 C4.6 311.88 4.89 311.8 5.02 311.58 C5.15 311.35 5.07 311.06 4.85 310.92 L1.19 308.79 L1.19
						 309.61 L4.85 307.48 L4.85 307.48 C5.07 307.35 5.15 307.06 5.02 306.83 C4.89 306.61 4.6 306.53 4.37 306.66
						 Z" class="st8"/>
		</g>
		<g id="shape46-132" transform="translate(83.6873,-133.582)">
			<title>Sheet.46</title>
			<path d="M0 289.08 L2.86 289.08 L2.86 290.03 L0 290.03 L0 289.08 ZM3.81 289.08 L6.67 289.08 L6.67 290.03 L3.81 290.03
						 L3.81 289.08 ZM7.62 289.08 L10.48 289.08 L10.48 290.03 L7.62 290.03 L7.62 289.08 ZM11.43 289.08 L14.28 289.08
						 L14.28 290.03 L11.43 290.03 L11.43 289.08 ZM15.24 289.08 L18.09 289.08 L18.09 290.03 L15.24 290.03 L15.24
						 289.08 ZM19.05 289.08 L21.9 289.08 L21.9 290.03 L19.05 290.03 L19.05 289.08 ZM22.86 289.08 L23.77 289.08
						 L23.77 291.97 L22.82 291.97 L22.82 289.55 L23.29 290.03 L22.86 290.03 L22.86 289.08 ZM23.77 292.92 L23.77
						 295.77 L22.82 295.77 L22.82 292.92 L23.77 292.92 ZM23.77 296.72 L23.77 299.57 L22.82 299.57 L22.82 296.72
						 L23.77 296.72 ZM23.77 300.52 L23.77 303.37 L22.82 303.37 L22.82 300.52 L23.77 300.52 ZM23.77 304.33 L23.77
						 307.18 L22.82 307.18 L22.82 304.33 L23.77 304.33 ZM23.77 308.13 L23.77 309.2 L23.29 308.73 L25.07 308.73
						 L25.07 309.68 L22.82 309.68 L22.82 308.13 L23.77 308.13 ZM26.02 308.73 L28.88 308.73 L28.88 309.68 L26.02
						 309.68 L26.02 308.73 ZM29.83 308.73 L32.69 308.73 L32.69 309.68 L29.83 309.68 L29.83 308.73 ZM33.64 308.73
						 L35.8 308.73 L35.8 309.68 L33.64 309.68 L33.64 308.73 ZM32.38 306.66 L36.75 309.2 L32.38 311.75 C32.15 311.88
						 31.86 311.8 31.73 311.58 C31.6 311.35 31.67 311.06 31.9 310.92 L35.56 308.79 L35.56 309.61 L31.9 307.48
						 C31.67 307.35 31.6 307.06 31.73 306.83 C31.86 306.61 32.15 306.53 32.38 306.66 Z" class="st11"/>
		</g>
		<g id="shape47-134" transform="translate(84.1269,-128.172)">
			<title>Sheet.47</title>
			<path d="M0.94 289.95 L3.8 289.95 L3.8 290.9 L0.94 290.9 L0.94 289.95 ZM4.75 289.95 L7.61 289.95 L7.61 290.9 L4.75 290.9
						 L4.75 289.95 ZM8.56 289.95 L11.42 289.95 L11.42 290.9 L8.56 290.9 L8.56 289.95 ZM12.37 289.95 L15.23 289.95
						 L15.23 290.9 L12.37 290.9 L12.37 289.95 ZM16.18 289.95 L17.25 289.95 L17.25 292.7 L16.29 292.7 L16.29 290.43
						 L16.77 290.9 L16.18 290.9 L16.18 289.95 ZM17.25 293.65 L17.25 296.5 L16.29 296.5 L16.29 293.65 L17.25 293.65
						 ZM17.25 297.45 L17.25 300.3 L16.29 300.3 L16.29 297.45 L17.25 297.45 ZM17.25 301.25 L17.25 304.1 L16.29
						 304.1 L16.29 301.25 L17.25 301.25 ZM17.25 305.05 L17.25 307.9 L16.29 307.9 L16.29 305.05 L17.25 305.05 ZM17.25
						 308.85 L17.25 311.34 L16.77 310.86 L17.14 310.86 L17.14 311.81 L16.29 311.81 L16.29 308.85 L17.25 308.85
						 ZM18.09 310.86 L20.95 310.86 L20.95 311.81 L18.09 311.81 L18.09 310.86 ZM21.9 310.86 L24.76 310.86 L24.76
						 311.81 L21.9 311.81 L21.9 310.86 ZM25.71 310.86 L28.56 310.86 L28.56 311.81 L25.71 311.81 L25.71 310.86
						 ZM29.52 310.86 L32.37 310.86 L32.37 311.81 L29.52 311.81 L29.52 310.86 ZM33.33 310.86 L33.54 310.86 L33.54
						 311.81 L33.33 311.81 L33.33 310.86 ZM4.37 292.97 L0 290.43 L4.37 287.89 C4.6 287.76 4.89 287.83 5.02 288.06
						 C5.15 288.29 5.07 288.58 4.85 288.71 L1.19 290.84 L1.19 290.02 L4.85 292.15 L4.85 292.15 C5.07 292.28 5.15
						 292.58 5.02 292.81 C4.89 293.03 4.6 293.11 4.37 292.97 Z" class="st11"/>
		</g>
		<g id="shape48-136" transform="translate(165.585,-132.67)">
			<title>Sheet.48</title>
			<path d="M0.01 309.81 L2.87 309.8 L2.86 308.85 L0 308.86 L0.01 309.81 ZM3.82 309.8 L6.68 309.79 L6.67 308.84 L3.81 308.85
						 L3.82 309.8 ZM7.63 309.79 L10.48 309.78 L10.48 308.83 L7.62 308.84 L7.63 309.79 ZM11.44 309.77 L14.29 309.76
						 L14.28 308.81 L11.43 308.82 L11.44 309.77 ZM15.25 309.76 L18.1 309.75 L18.09 308.8 L15.24 308.81 L15.25
						 309.76 ZM19.06 309.75 L21.91 309.74 L21.9 308.79 L19.05 308.8 L19.06 309.75 ZM22.86 309.73 L25.72 309.72
						 L25.71 308.77 L22.86 308.78 L22.86 309.73 ZM26.67 309.72 L29.53 309.72 L29.52 308.76 L26.66 308.77 L26.67
						 309.72 ZM30.48 309.72 L33.34 309.71 L33.33 308.76 L30.47 308.76 L30.48 309.72 ZM34.29 309.7 L37.15 309.69
						 L37.14 308.74 L34.28 308.75 L34.29 309.7 ZM38.1 309.69 L40.96 309.68 L40.95 308.73 L38.09 308.74 L38.1 309.69
						 ZM41.91 309.68 L44.72 309.67 L44.71 308.72 L41.9 308.73 L41.91 309.68 ZM41.3 311.74 L45.66 309.18 L41.29
						 306.66 C41.06 306.53 40.77 306.61 40.64 306.84 C40.5 307.06 40.58 307.35 40.81 307.49 L44.47 309.61 L44.47
						 308.78 L40.82 310.93 C40.59 311.06 40.52 311.35 40.65 311.58 C40.78 311.8 41.08 311.88 41.3 311.74 Z"
					class="st16"/>
		</g>
		<g id="shape49-138" transform="translate(164.34,-126.112)">
			<title>Sheet.49</title>
			<path d="M0.95 309.69 L3.81 309.68 L3.8 308.73 L0.94 308.74 L0.95 309.69 ZM4.76 309.67 L7.62 309.66 L7.61 308.71 L4.75
						 308.72 L4.76 309.67 ZM8.57 309.66 L11.43 309.66 L11.42 308.7 L8.56 308.71 L8.57 309.66 ZM12.38 309.66 L15.24
						 309.65 L15.23 308.7 L12.37 308.7 L12.38 309.66 ZM16.19 309.64 L19.05 309.63 L19.04 308.68 L16.18 308.69
						 L16.19 309.64 ZM20 309.63 L22.86 309.62 L22.85 308.67 L19.99 308.68 L20 309.63 ZM23.81 309.61 L26.66 309.6
						 L26.66 308.65 L23.8 308.66 L23.81 309.61 ZM27.62 309.6 L30.47 309.59 L30.46 308.64 L27.61 308.65 L27.62
						 309.6 ZM31.43 309.59 L34.28 309.58 L34.27 308.63 L31.42 308.64 L31.43 309.59 ZM35.24 309.57 L38.09 309.56
						 L38.08 308.61 L35.23 308.62 L35.24 309.57 ZM39.04 309.56 L41.9 309.55 L41.89 308.6 L39.04 308.61 L39.04
						 309.56 ZM42.85 309.55 L45.64 309.54 L45.64 308.59 L42.84 308.6 L42.85 309.55 ZM4.36 306.66 L0 309.22 L4.38
						 311.75 C4.61 311.88 4.9 311.8 5.03 311.57 C5.16 311.35 5.08 311.05 4.85 310.93 L1.18 308.81 L1.19 309.63
						 L4.84 307.48 C5.07 307.34 5.15 307.06 5.01 306.83 C4.88 306.6 4.59 306.53 4.36 306.66 Z" class="st16"/>
		</g>
		<g id="shape50-140" transform="translate(164.486,-191.528)">
			<title>Sheet.50</title>
			<path d="M0.01 309.81 L2.87 309.8 L2.86 308.85 L0 308.86 L0.01 309.81 ZM3.82 309.8 L6.68 309.79 L6.67 308.84 L3.81 308.85
						 L3.82 309.8 ZM7.63 309.79 L10.48 309.78 L10.48 308.83 L7.62 308.84 L7.63 309.79 ZM11.44 309.77 L14.29 309.76
						 L14.28 308.81 L11.43 308.82 L11.44 309.77 ZM15.25 309.76 L18.1 309.75 L18.09 308.8 L15.24 308.81 L15.25
						 309.76 ZM19.06 309.75 L21.91 309.74 L21.9 308.79 L19.05 308.8 L19.06 309.75 ZM22.86 309.73 L25.72 309.72
						 L25.71 308.77 L22.86 308.78 L22.86 309.73 ZM26.67 309.72 L29.53 309.72 L29.52 308.76 L26.66 308.77 L26.67
						 309.72 ZM30.48 309.72 L33.34 309.71 L33.33 308.76 L30.47 308.76 L30.48 309.72 ZM34.29 309.7 L37.15 309.69
						 L37.14 308.74 L34.28 308.75 L34.29 309.7 ZM38.1 309.69 L40.96 309.68 L40.95 308.73 L38.09 308.74 L38.1 309.69
						 ZM41.91 309.68 L44.72 309.67 L44.71 308.72 L41.9 308.73 L41.91 309.68 ZM41.3 311.74 L45.66 309.18 L41.29
						 306.66 C41.06 306.53 40.77 306.61 40.64 306.84 C40.5 307.06 40.58 307.35 40.81 307.49 L44.47 309.61 L44.47
						 308.78 L40.82 310.93 C40.59 311.06 40.52 311.35 40.65 311.58 C40.78 311.8 41.08 311.88 41.3 311.74 Z"
					class="st17"/>
		</g>
		<g id="shape51-142" transform="translate(163.241,-184.97)">
			<title>Sheet.51</title>
			<path d="M0.95 309.69 L3.81 309.68 L3.8 308.73 L0.94 308.74 L0.95 309.69 ZM4.76 309.67 L7.62 309.66 L7.61 308.71 L4.75
						 308.72 L4.76 309.67 ZM8.57 309.66 L11.43 309.66 L11.42 308.7 L8.56 308.71 L8.57 309.66 ZM12.38 309.66 L15.24
						 309.65 L15.23 308.7 L12.37 308.7 L12.38 309.66 ZM16.19 309.64 L19.05 309.63 L19.04 308.68 L16.18 308.69
						 L16.19 309.64 ZM20 309.63 L22.86 309.62 L22.85 308.67 L19.99 308.68 L20 309.63 ZM23.81 309.61 L26.66 309.6
						 L26.66 308.65 L23.8 308.66 L23.81 309.61 ZM27.62 309.6 L30.47 309.59 L30.46 308.64 L27.61 308.65 L27.62
						 309.6 ZM31.43 309.59 L34.28 309.58 L34.27 308.63 L31.42 308.64 L31.43 309.59 ZM35.24 309.57 L38.09 309.56
						 L38.08 308.61 L35.23 308.62 L35.24 309.57 ZM39.04 309.56 L41.9 309.55 L41.89 308.6 L39.04 308.61 L39.04
						 309.56 ZM42.85 309.55 L45.64 309.54 L45.64 308.59 L42.84 308.6 L42.85 309.55 ZM4.36 306.66 L0 309.22 L4.38
						 311.75 C4.61 311.88 4.9 311.8 5.03 311.57 C5.16 311.35 5.08 311.05 4.85 310.93 L1.18 308.81 L1.19 309.63
						 L4.84 307.48 C5.07 307.34 5.15 307.06 5.01 306.83 C4.88 306.6 4.59 306.53 4.36 306.66 Z" class="st17"/>
		</g>
		<g id="shape52-144" transform="translate(355.679,-172.011)">
			<title>Sheet.52</title>
			<path d="M0 290.44 L2.86 290.44 L2.86 291.39 L0 291.39 L0 290.44 ZM3.81 290.44 L6.67 290.44 L6.67 291.39 L3.81 291.39
						 L3.81 290.44 ZM7.62 290.44 L10.48 290.44 L10.48 291.39 L7.62 291.39 L7.62 290.44 ZM11.43 290.44 L14.28 290.44
						 L14.28 291.39 L11.43 291.39 L11.43 290.44 ZM15.24 290.44 L18.09 290.44 L18.09 291.39 L15.24 291.39 L15.24
						 290.44 ZM19.05 290.44 L21.9 290.44 L21.9 291.39 L19.05 291.39 L19.05 290.44 ZM23.09 291.17 L23.09 294.02
						 L22.14 294.02 L22.14 291.17 L23.09 291.17 ZM23.09 294.97 L23.09 297.82 L22.14 297.82 L22.14 294.97 L23.09
						 294.97 ZM23.09 298.77 L23.09 301.62 L22.14 301.62 L22.14 298.77 L23.09 298.77 ZM23.09 302.57 L23.09 305.42
						 L22.14 305.42 L22.14 302.57 L23.09 302.57 ZM23.09 306.37 L23.09 309.19 L22.62 308.71 L22.64 308.71 L22.64
						 309.66 L22.14 309.66 L22.14 306.37 L23.09 306.37 ZM23.59 308.71 L26.44 308.71 L26.44 309.66 L23.59 309.66
						 L23.59 308.71 ZM27.4 308.71 L30.25 308.71 L30.25 309.66 L27.4 309.66 L27.4 308.71 ZM31.21 308.71 L34.06
						 308.71 L34.06 309.66 L31.21 309.66 L31.21 308.71 ZM35.02 308.71 L35.13 308.71 L35.13 309.66 L35.02 309.66
						 L35.02 308.71 ZM31.7 306.65 L36.06 309.19 L31.7 311.75 C31.46 311.88 31.19 311.8 31.04 311.57 C30.91 311.35
						 30.99 311.05 31.22 310.93 L34.89 308.79 L34.89 309.61 L31.22 307.47 C30.99 307.34 30.91 307.05 31.04 306.83
						 C31.19 306.59 31.46 306.52 31.7 306.65 Z" class="st18"/>
		</g>
		<g id="shape53-146" transform="translate(355.459,-166.425)">
			<title>Sheet.53</title>
			<path d="M0.95 292.45 L3.81 292.45 L3.81 293.4 L0.95 293.4 L0.95 292.45 ZM4.76 292.45 L7.62 292.45 L7.62 293.4 L4.76
						 293.4 L4.76 292.45 ZM8.57 292.45 L11.43 292.45 L11.43 293.4 L8.57 293.4 L8.57 292.45 ZM12.38 292.45 L15.24
						 292.45 L15.24 293.4 L12.38 293.4 L12.38 292.45 ZM16.23 293.39 L16.23 296.24 L15.27 296.24 L15.27 293.39
						 L16.23 293.39 ZM16.23 297.19 L16.23 300.04 L15.27 300.04 L15.27 297.19 L16.23 297.19 ZM16.23 300.99 L16.23
						 303.84 L15.27 303.84 L15.27 300.99 L16.23 300.99 ZM16.23 304.79 L16.23 307.64 L15.27 307.64 L15.27 304.79
						 L16.23 304.79 ZM16.23 308.59 L16.23 311.34 L15.75 310.86 L15.86 310.86 L15.86 311.81 L15.27 311.81 L15.27
						 308.59 L16.23 308.59 ZM16.81 310.86 L19.67 310.86 L19.67 311.81 L16.81 311.81 L16.81 310.86 ZM20.62 310.86
						 L23.48 310.86 L23.48 311.81 L20.62 311.81 L20.62 310.86 ZM24.43 310.86 L27.29 310.86 L27.29 311.81 L24.43
						 311.81 L24.43 310.86 ZM28.24 310.86 L31.1 310.86 L31.1 311.81 L28.24 311.81 L28.24 310.86 ZM32.05 310.86
						 L34.91 310.86 L34.91 311.81 L32.05 311.81 L32.05 310.86 ZM4.38 295.49 L0 292.93 L4.38 290.39 C4.6 290.26
						 4.89 290.33 5.02 290.57 C5.16 290.79 5.07 291.08 4.85 291.21 L1.19 293.35 L1.19 292.53 L4.85 294.67 L4.85
						 294.67 C5.07 294.79 5.16 295.09 5.02 295.31 C4.89 295.54 4.6 295.62 4.38 295.49 Z" class="st18"/>
		</g>
		<g id="shape54-148" transform="translate(355.313,-133.486)">
			<title>Sheet.54</title>
			<path d="M0 311.81 L2.86 311.81 L2.86 310.86 L0 310.86 L0 311.81 ZM3.81 311.81 L6.67 311.81 L6.67 310.86 L3.81 310.86
						 L3.81 311.81 ZM7.62 311.81 L10.48 311.81 L10.48 310.86 L7.62 310.86 L7.62 311.81 ZM11.43 311.81 L14.28 311.81
						 L14.28 310.86 L11.43 310.86 L11.43 311.81 ZM15.24 311.81 L16.5 311.81 L16.5 309.27 L15.55 309.27 L15.55
						 311.34 L16.02 310.86 L15.24 310.86 L15.24 311.81 ZM16.5 308.32 L16.5 305.47 L15.55 305.47 L15.55 308.32
						 L16.5 308.32 ZM16.5 304.52 L16.5 301.67 L15.55 301.67 L15.55 304.52 L16.5 304.52 ZM16.5 300.72 L16.5 297.86
						 L15.55 297.86 L15.55 300.72 L16.5 300.72 ZM16.5 296.91 L16.5 294.06 L15.55 294.06 L15.55 296.91 L16.5 296.91
						 ZM16.5 293.11 L16.5 292.82 L16.02 293.29 L18.61 293.29 L18.61 292.34 L15.55 292.34 L15.55 293.11 L16.5 293.11
						 ZM19.56 293.29 L22.42 293.29 L22.42 292.34 L19.56 292.34 L19.56 293.29 ZM23.37 293.29 L26.22 293.29 L26.22
						 292.34 L23.37 292.34 L23.37 293.29 ZM27.18 293.29 L30.03 293.29 L30.03 292.34 L27.18 292.34 L27.18 293.29
						 ZM30.99 293.29 L33.84 293.29 L33.84 292.34 L30.99 292.34 L30.99 293.29 ZM34.8 293.29 L35.69 293.29 L35.69
						 292.34 L34.8 292.34 L34.8 293.29 ZM32.27 295.38 L36.65 292.82 L32.27 290.28 C32.05 290.15 31.76 290.22 31.63
						 290.46 C31.48 290.68 31.55 290.97 31.79 291.1 L35.45 293.24 L35.45 292.42 L31.79 294.56 C31.55 294.68 31.48
						 294.98 31.63 295.2 C31.76 295.43 32.05 295.51 32.27 295.38 Z" class="st19"/>
		</g>
		<g id="shape55-150" transform="translate(354.287,-123.133)">
			<title>Sheet.55</title>
			<path d="M0.95 309.66 L3.81 309.66 L3.81 308.71 L0.95 308.71 L0.95 309.66 ZM4.76 309.66 L7.62 309.66 L7.62 308.71 L4.76
						 308.71 L4.76 309.66 ZM8.57 309.66 L11.43 309.66 L11.43 308.71 L8.57 308.71 L8.57 309.66 ZM12.38 309.66 L15.24
						 309.66 L15.24 308.71 L12.38 308.71 L12.38 309.66 ZM16.19 309.66 L19.05 309.66 L19.05 308.71 L16.19 308.71
						 L16.19 309.66 ZM20 309.66 L22.86 309.66 L22.86 308.71 L20 308.71 L20 309.66 ZM23.81 309.66 L25.03 309.66
						 L25.03 307.11 L24.08 307.11 L24.08 309.19 L24.56 308.71 L23.81 308.71 L23.81 309.66 ZM25.03 306.16 L25.03
						 303.3 L24.08 303.3 L24.08 306.16 L25.03 306.16 ZM25.03 302.35 L25.03 299.5 L24.08 299.5 L24.08 302.35 L25.03
						 302.35 ZM25.03 298.55 L25.03 295.7 L24.08 295.7 L24.08 298.55 L25.03 298.55 ZM25.03 294.75 L25.03 291.9
						 L24.08 291.9 L24.08 294.75 L25.03 294.75 ZM25.03 290.95 L25.03 288.17 L24.56 288.64 L24.65 288.64 L24.65
						 287.69 L24.08 287.69 L24.08 290.95 L25.03 290.95 ZM25.6 288.64 L28.46 288.64 L28.46 287.69 L25.6 287.69
						 L25.6 288.64 ZM29.41 288.64 L32.27 288.64 L32.27 287.69 L29.41 287.69 L29.41 288.64 ZM33.22 288.64 L36.08
						 288.64 L36.08 287.69 L33.22 287.69 L33.22 288.64 ZM4.38 306.65 L0 309.19 L4.38 311.75 C4.6 311.88 4.89 311.8
						 5.02 311.57 C5.16 311.35 5.07 311.05 4.85 310.93 L1.19 308.79 L1.19 309.61 L4.85 307.47 L4.85 307.47 C5.07
						 307.34 5.16 307.05 5.02 306.83 C4.89 306.59 4.6 306.52 4.38 306.65 Z" class="st19"/>
		</g>
		<g id="shape56-152" transform="translate(179.339,-194.691)">
			<title>Sheet.56</title>
			<desc>RX1</desc>
			<path d="M22.52 301.54 L0 301.54 L0 311.81 L22.52 311.81 L22.52 301.54" class="st3"/>
			<text x="2.64" y="309.24" class="st20">RX1</text>		</g>
		<g id="shape57-156" transform="translate(178.943,-174.174)">
			<title>Sheet.57</title>
			<desc>TX1</desc>
			<path d="M23.3 301.54 L0 301.54 L0 311.81 L23.3 311.81 L23.3 301.54" class="st3"/>
			<text x="3.36" y="309.24" class="st20">TX1</text>		</g>
		<g id="shape58-160" transform="translate(179.98,-135.376)">
			<title>Sheet.58</title>
			<desc>RX2</desc>
			<path d="M22.52 301.54 L0 301.54 L0 311.81 L22.52 311.81 L22.52 301.54" class="st3"/>
			<text x="2.64" y="309.24" class="st21">RX2</text>		</g>
		<g id="shape59-164" transform="translate(180.317,-115.225)">
			<title>Sheet.59</title>
			<desc>TX2</desc>
			<path d="M23.3 301.54 L0 301.54 L0 311.81 L23.3 311.81 L23.3 301.54" class="st3"/>
			<text x="3.36" y="309.24" class="st21">TX2</text>		</g>
		<g id="shape60-168" transform="translate(371.723,-195.397)">
			<title>Sheet.60</title>
			<desc>Mission</desc>
			<path d="M39.6 301.54 L0 301.54 L0 311.81 L39.6 311.81 L39.6 301.54" class="st3"/>
			<text x="4.09" y="309.24" class="st20">Mission</text>		</g>
		<g id="shape61-172" transform="translate(377.557,-109.355)">
			<title>Sheet.61</title>
			<desc>Monitor</desc>
			<path d="M40.7 301.54 L0 301.54 L0 311.81 L40.7 311.81 L40.7 301.54" class="st3"/>
			<text x="4.16" y="309.24" class="st21">Monitor</text>		</g>
		<g id="shape62-176" transform="translate(122.23,-94.0781)">
			<title>Sheet.62</title>
			<desc>PORT</desc>
			<path d="M39.39 301.54 L0 301.54 L0 311.81 L39.39 311.81 L39.39 301.54" class="st3"/>
			<text x="8.14" y="309.24" class="st4">PORT</text>		</g>
	</g>
</svg>
