<?xml version="1.0" encoding="UTF-8" standalone="no"?>
<!DOCTYPE svg PUBLIC "-//W3C//DTD SVG 1.1//EN" "http://www.w3.org/Graphics/SVG/1.1/DTD/svg11.dtd">
<!-- Generated by Microsoft Visio, SVG Export Redundant_eGTM_Ch.svg Page-1 -->
<svg xmlns="http://www.w3.org/2000/svg" xmlns:xlink="http://www.w3.org/1999/xlink" xmlns:ev="http://www.w3.org/2001/xml-events"
		width="6.89778in" height="3.75057in" viewBox="0 0 496.64 270.041" xml:space="preserve" color-interpolation-filters="sRGB"
		class="st20">
	<style type="text/css">
	<![CDATA[
		.st1 {fill:none;stroke:#000000;stroke-dasharray:5.25,3.75;stroke-linecap:round;stroke-linejoin:round;stroke-width:0.75}
		.st2 {fill:#000000;font-family:Calibri;font-size:0.499992em}
		.st3 {baseline-shift:32.4949%;font-size:0.649897em}
		.st4 {font-size:1em}
		.st5 {fill:#9dc3e6;stroke:none;stroke-linecap:round;stroke-linejoin:round;stroke-width:0.75}
		.st6 {fill:#ffc000;stroke:none;stroke-linecap:round;stroke-linejoin:round;stroke-width:0.75}
		.st7 {fill:#bfbfbf;stroke:none;stroke-linecap:round;stroke-linejoin:round;stroke-width:0.75}
		.st8 {fill:#ffff00;stroke:none;stroke-linecap:round;stroke-linejoin:round;stroke-width:0.75}
		.st9 {fill:#000000;font-family:Calibri;font-size:0.499992em;font-weight:bold}
		.st10 {marker-end:url(#mrkr1-24);stroke:#ff0000;stroke-linecap:round;stroke-linejoin:round;stroke-width:1}
		.st11 {fill:#ff0000;fill-opacity:1;stroke:#ff0000;stroke-opacity:1;stroke-width:0.28409090909091}
		.st12 {fill:#d8d8d8;stroke:none;stroke-linecap:round;stroke-linejoin:round;stroke-width:0.75}
		.st13 {stroke:#000000;stroke-dasharray:5.25,3.75;stroke-linecap:round;stroke-linejoin:round;stroke-width:0.75}
		.st14 {marker-end:url(#mrkr1-82);marker-start:url(#mrkr1-80);stroke:#000000;stroke-linecap:round;stroke-linejoin:round;stroke-width:1}
		.st15 {fill:#000000;fill-opacity:1;stroke:#000000;stroke-opacity:1;stroke-width:0.28409090909091}
		.st16 {stroke:#ff0000;stroke-linecap:round;stroke-linejoin:round;stroke-width:1}
		.st17 {fill:none;stroke:none;stroke-linecap:round;stroke-linejoin:round;stroke-width:0.75}
		.st18 {marker-end:url(#mrkr1-82);stroke:#000000;stroke-linecap:round;stroke-linejoin:round;stroke-width:1}
		.st19 {stroke:#000000;stroke-linecap:round;stroke-linejoin:round;stroke-width:1}
		.st20 {fill:none;fill-rule:evenodd;font-size:12px;overflow:visible;stroke-linecap:square;stroke-miterlimit:3}
	]]>
	</style>

	<defs id="Markers">
		<g id="lend1">
			<path d="M 1 -1 L 0 0 L 1 1 " style="stroke-linecap:round;stroke-linejoin:round;fill:none"/>
		</g>
		<marker id="mrkr1-24" class="st11" orient="auto" markerUnits="strokeWidth" overflow="visible">
			<use xlink:href="#lend1" transform="scale(-3.52,-3.52) "/>
		</marker>
		<marker id="mrkr1-80" class="st15" orient="auto" markerUnits="strokeWidth" overflow="visible">
			<use xlink:href="#lend1" transform="scale(3.52) "/>
		</marker>
		<marker id="mrkr1-82" class="st15" orient="auto" markerUnits="strokeWidth" overflow="visible">
			<use xlink:href="#lend1" transform="scale(-3.52,-3.52) "/>
		</marker>
	</defs>
	<g>
		<title>Page-1</title>
		<g id="shape52-1" transform="translate(113.364,-0.375)">
			<title>Sheet.52</title>
			<desc>AURIXTM TC4xx MCU</desc>
			<path d="M0 270.04 L382.9 270.04 L382.9 0.75 L0 0.75 L0 270.04 Z" class="st1"/>
			<text x="4" y="10.15" class="st2">AURIX<tspan dy="-0.234em" class="st3">TM</tspan><tspan dy="0.152em" class="st4"> </tspan>TC4xx MCU</text>		</g>
		<g id="shape53-6" transform="translate(98.9676,-120.727)">
			<title>Sheet.53</title>
			<desc>Package</desc>
			<path d="M0 270.04 L0 159.37 L28.79 159.37 L28.79 270.04 L0 270.04 Z" class="st5"/>
			<text x="4.44" y="168.77" class="st2">Package</text>		</g>
		<g id="shape55-9" transform="translate(234.754,-120.727)">
			<title>Sheet.55</title>
			<desc>eGTM</desc>
			<path d="M0 159.37 L0 270.04 L96.19 270.04 L96.19 159.37 L0 159.37 L0 159.37 Z" class="st6"/>
			<text x="4" y="168.77" class="st2">eGTM</text>		</g>
		<g id="shape56-12" transform="translate(348.808,-65.5718)">
			<title>Sheet.56</title>
			<desc>LLI</desc>
			<rect x="0" y="117.821" width="22.7329" height="152.22" class="st7"/>
			<text x="4" y="127.22" class="st2">LLI</text>		</g>
		<g id="shape60-15" transform="translate(0.375,-185.279)">
			<title>Sheet.60</title>
			<desc>External digital signal source 1</desc>
			<rect x="0" y="245.182" width="49.4334" height="24.8596" class="st8"/>
			<text x="4" y="254.58" class="st9">External digital <tspan x="4" dy="1.2em" class="st4">signal source 1</tspan></text>		</g>
		<g id="shape66-19" transform="translate(209.966,-198.8)">
			<title>Sheet.66</title>
			<path d="M0 270.04 L38.64 270.04" class="st10"/>
		</g>
		<g id="shape75-25" transform="translate(157.67,-183.237)">
			<title>Sheet.75</title>
			<desc>PORT module Pab*</desc>
			<path d="M0 238.17 L0 270.04 L55.13 270.04 L55.13 238.17 L0 238.17 L0 238.17 Z" class="st6"/>
			<text x="4" y="247.57" class="st2">PORT module Pab*</text>		</g>
		<g id="shape77-28" transform="translate(248.602,-187.462)">
			<title>Sheet.77</title>
			<desc>TIMu*</desc>
			<path d="M0 270.04 L0 246.62 L55.13 246.62 L55.13 270.04 L0 270.04 Z" class="st5"/>
			<text x="19.71" y="256.02" class="st2">TIMu*</text>		</g>
		<g id="shape78-31" transform="translate(248.602,-137.114)">
			<title>Sheet.78</title>
			<desc>TIMv*</desc>
			<path d="M0 270.04 L0 246.62 L55.13 246.62 L55.13 270.04 L0 270.04 Z" class="st5"/>
			<text x="19.93" y="256.02" class="st2">TIMv*</text>		</g>
		<g id="shape79-34" transform="translate(392.391,-125.505)">
			<title>Sheet.79</title>
			<desc>SRI</desc>
			<path d="M0 149.75 L0 270.04 L27.74 270.04 L27.74 149.75 L0 149.75 L0 149.75 Z" class="st7"/>
			<text x="4" y="159.15" class="st2">SRI</text>		</g>
		<g id="shape80-37" transform="translate(392.391,-125.505)">
			<title>Sheet.80</title>
			<desc>S2L bridge</desc>
			<path d="M0 270.04 L0 253.51 L27.74 253.51 L27.74 270.04 L0 270.04 Z" class="st12"/>
			<text x="9.71" y="259.98" class="st2">S2L <tspan x="6.08" dy="1.2em" class="st4">bridge</tspan></text>		</g>
		<g id="shape81-41" transform="translate(348.808,-171.931)">
			<title>Dynamic connector.226</title>
			<path d="M0 270.04 L10.9 270.04 L10.9 359.39 L22.73 359.39" class="st13"/>
		</g>
		<g id="shape83-44" transform="translate(439.572,-203.864)">
			<title>Sheet.83</title>
			<desc>CPU</desc>
			<rect x="0" y="212.943" width="49.4334" height="57.0988" class="st7"/>
			<text x="4" y="222.34" class="st2">CPU</text>		</g>
		<g id="shape84-47" transform="translate(439.572,-47.1467)">
			<title>Sheet.84</title>
			<desc>PPU**</desc>
			<rect x="0" y="212.943" width="49.4334" height="57.0988" class="st7"/>
			<text x="4" y="222.34" class="st2">PPU**</text>		</g>
		<g id="shape85-50" transform="translate(439.572,-125.505)">
			<title>Sheet.85</title>
			<desc>DMA</desc>
			<rect x="0" y="212.943" width="49.4334" height="57.0988" class="st7"/>
			<text x="4" y="222.34" class="st2">DMA</text>		</g>
		<g id="shape86-53" transform="translate(308.556,-239.297)">
			<title>Sheet.86</title>
			<desc>IR</desc>
			<rect x="0" y="242.507" width="49.4334" height="27.5347" class="st7"/>
			<text x="4" y="251.91" class="st2">IR</text>		</g>
		<g id="shape87-56" transform="translate(162.572,-78.98)">
			<title>Sheet.87</title>
			<desc>ADC</desc>
			<rect x="0" y="245.182" width="49.4334" height="24.8596" class="st7"/>
			<text x="4" y="254.58" class="st2">ADC</text>		</g>
		<g id="shape88-59" transform="translate(162.572,-39.6877)">
			<title>Sheet.88</title>
			<desc>MCMCAN</desc>
			<rect x="0" y="238.173" width="49.4334" height="31.8678" class="st7"/>
			<text x="4" y="247.57" class="st2">MCMCAN</text>		</g>
		<g id="shape90-62" transform="translate(157.67,-132.186)">
			<title>Sheet.90</title>
			<desc>PORT module Pxy*</desc>
			<path d="M0 238.17 L0 270.04 L55.13 270.04 L55.13 238.17 L0 238.17 L0 238.17 Z" class="st6"/>
			<text x="4" y="247.57" class="st2">PORT module Pxy*</text>		</g>
		<g id="shape91-65" transform="translate(212.8,-148.597)">
			<title>Sheet.91</title>
			<path d="M0 270.04 L35.8 270.04" class="st10"/>
		</g>
		<g id="shape92-70" transform="translate(0.375,-135.673)">
			<title>Sheet.92</title>
			<desc>External digital signal source 2</desc>
			<rect x="0" y="245.182" width="49.4334" height="24.8596" class="st8"/>
			<text x="4" y="254.58" class="st9">External digital <tspan x="4" dy="1.2em" class="st4">signal source 2</tspan></text>		</g>
		<g id="shape93-74" transform="translate(330.945,-171.931)">
			<title>Sheet.93</title>
			<path d="M0 270.04 L17.86 270.04" class="st14"/>
		</g>
		<g id="shape94-83" transform="translate(586.59,71.2412) rotate(90)">
			<title>Sheet.94</title>
			<path d="M0 270.04 L17.25 270.04" class="st10"/>
		</g>
		<g id="shape95-88" transform="translate(302.152,-165.023)">
			<title>Sheet.95</title>
			<desc>S-LLI</desc>
			<path d="M0 270.04 L0 253.51 L28.79 253.51 L28.79 270.04 L0 270.04 Z" class="st5"/>
			<text x="8.82" y="263.58" class="st2">S-LLI</text>		</g>
		<g id="shape96-91" transform="translate(316.549,341.283) rotate(180)">
			<title>Sheet.96</title>
			<path d="M0 270.04 L12.82 270.04" class="st16"/>
		</g>
		<g id="shape97-94" transform="translate(46.5072,121.743) rotate(-90)">
			<title>Sheet.97</title>
			<path d="M0 270.04 L16.72 270.04" class="st10"/>
		</g>
		<g id="shape98-99" transform="translate(316.549,391.784) rotate(180)">
			<title>Sheet.98</title>
			<path d="M0 270.04 L12.82 270.04" class="st16"/>
		</g>
		<g id="shape99-102" transform="translate(354.533,-0.375)">
			<title>Sheet.99</title>
			<desc>*physical separation between redundant channels **in some dev...</desc>
			<rect x="0" y="251.616" width="140.74" height="18.4252" class="st17"/>
			<text x="6.71" y="259.03" class="st2">*physical separation between redundant channels <tspan x="4" dy="1.2em"
						class="st4">**in some devices PPU accesses through SRI only</tspan></text>		</g>
		<g id="shape100-106" transform="translate(392.391,405.912) rotate(180)">
			<title>Sheet.100</title>
			<path d="M0 270.04 L20.85 270.04" class="st14"/>
		</g>
		<g id="shape101-113" transform="translate(439.572,322.857) rotate(180)">
			<title>Sheet.101</title>
			<path d="M0 270.04 L19.44 270.04" class="st14"/>
		</g>
		<g id="shape102-120" transform="translate(439.572,-210.139)">
			<title>Sheet.102</title>
			<desc>M-SRI</desc>
			<path d="M0 270.04 L0 253.51 L28.79 253.51 L28.79 270.04 L0 270.04 Z" class="st12"/>
			<text x="7.15" y="263.58" class="st2">M-SRI</text>		</g>
		<g id="shape103-123" transform="translate(439.572,-146.359)">
			<title>Sheet.103</title>
			<desc>M-SRI</desc>
			<path d="M0 270.04 L0 253.51 L28.79 253.51 L28.79 270.04 L0 270.04 Z" class="st12"/>
			<text x="7.15" y="263.58" class="st2">M-SRI</text>		</g>
		<g id="shape104-126" transform="translate(439.572,386.637) rotate(180)">
			<title>Sheet.104</title>
			<path d="M0 270.04 L19.44 270.04" class="st14"/>
		</g>
		<g id="shape105-133" transform="translate(439.572,457.503) rotate(180)">
			<title>Sheet.105</title>
			<path d="M0 270.04 L68.03 270.04" class="st14"/>
		</g>
		<g id="shape106-140" transform="translate(439.572,-72.7293)">
			<title>Sheet.106</title>
			<desc>M-LLI</desc>
			<path d="M0 270.04 L0 253.51 L28.79 253.51 L28.79 270.04 L0 270.04 Z" class="st12"/>
			<text x="7.64" y="263.58" class="st2">M-LLI</text>		</g>
		<g id="shape107-143" transform="translate(371.541,405.912) rotate(180)">
			<title>Sheet.107</title>
			<path d="M0 270.04 L11.83 270.04" class="st13"/>
		</g>
		<g id="shape108-146" transform="translate(420.132,-217.225)">
			<title>Dynamic connector.108</title>
			<path d="M0 270.04 L-14.58 270.04 L-14.58 345.23" class="st13"/>
		</g>
		<g id="shape109-149" transform="translate(420.132,386.637) rotate(180)">
			<title>Sheet.109</title>
			<path d="M0 270.04 L14.58 270.04" class="st13"/>
		</g>
		<g id="shape111-152" transform="translate(162.572,-8.11387)">
			<title>Sheet.111</title>
			<desc>GPT12</desc>
			<rect x="0" y="245.182" width="49.4334" height="24.8596" class="st7"/>
			<text x="4" y="254.58" class="st2">GPT12</text>		</g>
		<g id="shape112-155" transform="translate(283.667,-252.658)">
			<title>Sheet.112</title>
			<path d="M0 270.04 L24.89 270.04" class="st10"/>
		</g>
		<g id="shape113-160" transform="translate(553.708,17.3829) rotate(90)">
			<title>Sheet.113</title>
			<path d="M0 270.04 L21.26 270.04" class="st16"/>
		</g>
		<g id="shape114-163" transform="translate(273.608,478.763) rotate(180)">
			<title>Sheet.114</title>
			<path d="M0 270.04 L61.6 270.04" class="st18"/>
		</g>
		<g id="shape115-168" transform="translate(543.65,149.314) rotate(90)">
			<title>Sheet.115</title>
			<path d="M0 270.04 L59.41 270.04" class="st19"/>
		</g>
		<g id="shape116-171" transform="translate(212.005,-49.4144)">
			<title>Sheet.116</title>
			<path d="M0 270.04 L74.02 270.04" class="st19"/>
		</g>
		<g id="shape117-174" transform="translate(15.9875,220.627) rotate(-90)">
			<title>Sheet.117</title>
			<path d="M0 270.04 L71.31 270.04" class="st18"/>
		</g>
		<g id="shape118-179" transform="translate(219.265,-61.3199)">
			<title>Sheet.118</title>
			<desc>eGTM_Ni_TRIG</desc>
			<rect x="0" y="261.537" width="49.4334" height="8.50394" class="st17"/>
			<text x="4" y="267.59" class="st2">eGTM_Ni_TRIG</text>		</g>
		<g id="shape119-182" transform="translate(219.278,-48.564)">
			<title>Sheet.119</title>
			<desc>eGTM_SRC_CANINT</desc>
			<rect x="0" y="261.537" width="60.745" height="8.50394" class="st17"/>
			<text x="4" y="267.59" class="st2">eGTM_SRC_CANINT</text>		</g>
		<g id="shape120-185" transform="translate(212.005,-20.2175)">
			<title>Sheet.120</title>
			<path d="M0 270.04 L74.02 270.04" class="st19"/>
		</g>
		<g id="shape121-188" transform="translate(219.278,-20.2175)">
			<title>Sheet.121</title>
			<desc>eGTM_T6OFL</desc>
			<rect x="0" y="261.537" width="60.745" height="8.50394" class="st17"/>
			<text x="4" y="267.59" class="st2">eGTM_T6OFL</text>		</g>
		<g id="shape122-191" transform="translate(15.9875,249.824) rotate(-90)">
			<title>Sheet.122</title>
			<path d="M0 270.04 L29.2 270.04" class="st19"/>
		</g>
		<g id="shape123-194" transform="translate(-9.05189,178.958) rotate(-90)">
			<title>Sheet.123</title>
			<path d="M0 270.04 L29.64 270.04" class="st18"/>
		</g>
		<g id="shape124-199" transform="translate(212.005,-91.0837)">
			<title>Sheet.124</title>
			<path d="M0 270.04 L48.98 270.04" class="st19"/>
		</g>
		<g id="shape125-202" transform="translate(220.029,-91.0837)">
			<title>Sheet.125</title>
			<desc>BFL eGTM</desc>
			<rect x="0" y="261.537" width="36.5671" height="8.50394" class="st17"/>
			<text x="4" y="267.59" class="st2">BFL eGTM</text>		</g>
		<g id="shape126-205" transform="translate(49.8084,-198.8)">
			<title>Sheet.126</title>
			<path d="M0 270.04 L107.86 270.04" class="st10"/>
		</g>
		<g id="shape127-210" transform="translate(49.8084,-148.597)">
			<title>Sheet.127</title>
			<path d="M0 270.04 L107.86 270.04" class="st10"/>
		</g>
		<g id="shape128-215" transform="translate(49.5848,-198.8)">
			<title>Sheet.128</title>
			<desc>Mission ch.</desc>
			<rect x="0" y="261.537" width="49.6063" height="8.50394" class="st17"/>
			<text x="4" y="267.59" class="st2">Mission ch.</text>		</g>
		<g id="shape129-218" transform="translate(49.8084,-149.194)">
			<title>Sheet.129</title>
			<desc>Monitoring ch.</desc>
			<rect x="0" y="261.537" width="60.745" height="8.50394" class="st17"/>
			<text x="4" y="267.59" class="st2">Monitoring ch.</text>		</g>
	</g>
</svg>
