<?xml version="1.0" encoding="UTF-8" standalone="no"?>
<!DOCTYPE svg PUBLIC "-//W3C//DTD SVG 1.1//EN" "http://www.w3.org/Graphics/SVG/1.1/DTD/svg11.dtd">
<!-- Generated by Microsoft Visio, SVG Export MCUBoot.svg Page-1 -->
<svg xmlns="http://www.w3.org/2000/svg" xmlns:xlink="http://www.w3.org/1999/xlink" xmlns:ev="http://www.w3.org/2001/xml-events"
		width="5.45796in" height="3.7878in" viewBox="0 0 392.973 272.722" xml:space="preserve" color-interpolation-filters="sRGB"
		class="st15">
	<style type="text/css">
	<![CDATA[
		.st1 {fill:#bfbfbf;stroke:none;stroke-linecap:round;stroke-linejoin:round;stroke-width:0.75}
		.st2 {fill:#000000;font-family:Calibri;font-size:0.499992em}
		.st3 {fill:#ffc000;stroke:none;stroke-linecap:round;stroke-linejoin:round;stroke-width:0.75}
		.st4 {fill:#d8d8d8;stroke:none;stroke-linecap:round;stroke-linejoin:round;stroke-width:0.75}
		.st5 {font-size:1em}
		.st6 {marker-start:url(#mrkr1-29);stroke:#000000;stroke-linecap:round;stroke-linejoin:round;stroke-width:1}
		.st7 {fill:#000000;fill-opacity:1;stroke:#000000;stroke-opacity:1;stroke-width:0.28409090909091}
		.st8 {stroke:#000000;stroke-dasharray:5.25,3.75;stroke-linecap:round;stroke-linejoin:round;stroke-width:0.75}
		.st9 {marker-end:url(#mrkr1-79);stroke:#000000;stroke-linecap:round;stroke-linejoin:round;stroke-width:1}
		.st10 {stroke:#000000;stroke-linecap:round;stroke-linejoin:round;stroke-width:1}
		.st11 {fill:none;stroke:none;stroke-linecap:round;stroke-linejoin:round;stroke-width:0.75}
		.st12 {fill:#9dc3e6;stroke:none;stroke-linecap:round;stroke-linejoin:round;stroke-width:0.75}
		.st13 {stroke:#000000;stroke-dasharray:0.75,1.5;stroke-linecap:round;stroke-linejoin:round;stroke-width:0.75}
		.st14 {stroke:#000000;stroke-linecap:round;stroke-linejoin:round;stroke-width:0.5}
		.st15 {fill:none;fill-rule:evenodd;font-size:12px;overflow:visible;stroke-linecap:square;stroke-miterlimit:3}
	]]>
	</style>

	<defs id="Markers">
		<g id="lend1">
			<path d="M 1 -1 L 0 0 L 1 1 " style="stroke-linecap:round;stroke-linejoin:round;fill:none"/>
		</g>
		<marker id="mrkr1-29" class="st7" orient="auto" markerUnits="strokeWidth" overflow="visible">
			<use xlink:href="#lend1" transform="scale(3.52) "/>
		</marker>
		<marker id="mrkr1-79" class="st7" orient="auto" markerUnits="strokeWidth" overflow="visible">
			<use xlink:href="#lend1" transform="scale(-3.52,-3.52) "/>
		</marker>
	</defs>
	<g>
		<title>Page-1</title>
		<g id="shape1-1" transform="translate(-7.99361E-15,-13.5694)">
			<title>Sheet.1</title>
			<desc>LLI</desc>
			<path d="M0 196.4 L0 272.72 L24.76 272.72 L24.76 196.4 L0 196.4 L0 196.4 Z" class="st1"/>
			<text x="4" y="205.8" class="st2">LLI</text>		</g>
		<g id="shape2-4" transform="translate(188.504,-154.089)">
			<title>Sheet.2</title>
			<desc>CPU</desc>
			<rect x="0" y="188.105" width="138.189" height="84.6164" class="st1"/>
			<text x="4" y="197.51" class="st2">CPU</text>		</g>
		<g id="shape3-7" transform="translate(28.9134,-153.666)">
			<title>Sheet.3</title>
			<desc>NVM/NVMR*</desc>
			<rect x="0" y="188.105" width="114.803" height="84.6164" class="st3"/>
			<text x="4" y="197.51" class="st2">NVM/NVMR*</text>		</g>
		<g id="shape6-10" transform="translate(272.126,-154.129)">
			<title>Sheet.6</title>
			<desc>FPI Master I/F</desc>
			<path d="M0 272.72 L0 256.19 L36.37 256.19 L36.37 272.72 L0 272.72 Z" class="st4"/>
			<text x="14.5" y="262.66" class="st2">FPI  <tspan x="5.49" dy="1.2em" class="st5">Master I/F</tspan></text>		</g>
		<g id="shape7-14" transform="translate(257.598,-100.645)">
			<title>Sheet.7</title>
			<desc>FPI</desc>
			<path d="M0 247.96 L0 272.72 L95.31 272.72 L95.31 247.96 L0 247.96 L0 247.96 Z" class="st1"/>
			<text x="4" y="257.36" class="st2">FPI</text>		</g>
		<g id="shape8-17" transform="translate(285.338,-14.6767)">
			<title>Sheet.8</title>
			<desc>FPI Peripheral</desc>
			<rect x="0" y="212.992" width="64.7404" height="59.7292" class="st3"/>
			<text x="4" y="266.92" class="st2">FPI Peripheral</text>		</g>
		<g id="shape9-20" transform="translate(303.312,-57.8747)">
			<title>Sheet.9</title>
			<desc>FPI Slave I/F</desc>
			<path d="M0 272.72 L0 256.19 L28.79 256.19 L28.79 272.72 L0 272.72 Z" class="st4"/>
			<text x="10.71" y="262.66" class="st2">FPI <tspan x="4.07" dy="1.2em" class="st5">Slave I/F</tspan></text>		</g>
		<g id="shape10-24" transform="translate(44.162,198.316) rotate(-90)">
			<title>Sheet.10</title>
			<path d="M0 272.72 L26.24 272.72" class="st6"/>
		</g>
		<g id="shape11-30" transform="translate(17.8625,147.313) rotate(-90)">
			<title>Sheet.11</title>
			<path d="M0 272.72 L28.72 272.72" class="st6"/>
		</g>
		<g id="shape12-35" transform="translate(290.584,-125.408)">
			<title>Dynamic connector.50</title>
			<path d="M0 272.72 L0 285.61 L26.3 285.61 L26.3 297.48" class="st8"/>
		</g>
		<g id="shape13-38" transform="translate(0,-100.647)">
			<title>Sheet.13</title>
			<desc>SRI</desc>
			<path d="M0 247.96 L0 272.72 L240.94 272.72 L240.94 247.96 L0 247.96 L0 247.96 Z" class="st1"/>
			<text x="4" y="257.36" class="st2">SRI</text>		</g>
		<g id="shape14-41" transform="translate(207.899,-154.131)">
			<title>Sheet.14</title>
			<desc>SRI-M</desc>
			<path d="M0 272.72 L0 256.19 L28.79 256.19 L28.79 272.72 L0 272.72 Z" class="st4"/>
			<text x="7.15" y="266.26" class="st2">SRI-M</text>		</g>
		<g id="shape15-44" transform="translate(-46.1734,147.354) rotate(-90)">
			<title>Sheet.15</title>
			<path d="M0 272.72 L28.72 272.72" class="st6"/>
		</g>
		<g id="shape16-49" transform="translate(180,-14.6767)">
			<title>Sheet.16</title>
			<desc>SRI Peripheral</desc>
			<rect x="0" y="212.992" width="64.7404" height="59.7292" class="st3"/>
			<text x="4" y="266.92" class="st2">SRI Peripheral</text>		</g>
		<g id="shape17-52" transform="translate(197.973,-57.8747)">
			<title>Sheet.17</title>
			<desc>SRI-S</desc>
			<path d="M0 272.72 L0 256.19 L28.79 256.19 L28.79 272.72 L0 272.72 Z" class="st4"/>
			<text x="8.34" y="266.26" class="st2">SRI-S</text>		</g>
		<g id="shape18-55" transform="translate(-59.8194,198.316) rotate(-90)">
			<title>Sheet.18</title>
			<path d="M0 272.72 L26.24 272.72" class="st6"/>
		</g>
		<g id="shape19-60" transform="translate(17.6765,-31.776)">
			<title>Dynamic connector.215</title>
			<path d="M7.09 272.72 L-6.34 272.72 L-6.34 235.87 L7.09 235.87" class="st8"/>
		</g>
		<g id="shape20-63" transform="translate(73.7008,-14.2568)">
			<title>Sheet.20</title>
			<desc>LLI Peripheral</desc>
			<rect x="0" y="212.992" width="64.7404" height="59.7292" class="st3"/>
			<text x="4" y="222.39" class="st2">LLI Peripheral</text>		</g>
		<g id="shape21-66" transform="translate(73.7008,-23.7488)">
			<title>Sheet.21</title>
			<desc>LLI slave</desc>
			<path d="M0 272.72 L0 256.19 L28.79 256.19 L28.79 272.72 L0 272.72 Z" class="st4"/>
			<text x="11.12" y="262.66" class="st2">LLI <tspan x="8.25" dy="1.2em" class="st5">slave</tspan></text>		</g>
		<g id="shape23-70" transform="translate(27.0663,-100.647)">
			<title>Sheet.23</title>
			<desc>S2L bridge</desc>
			<path d="M0 272.72 L0 256.19 L28.79 256.19 L28.79 272.72 L0 272.72 Z" class="st4"/>
			<text x="10.24" y="262.66" class="st2">S2L <tspan x="6.61" dy="1.2em" class="st5">bridge</tspan></text>		</g>
		<g id="shape24-74" transform="translate(24.7631,-31.776)">
			<title>Sheet.24</title>
			<path d="M0 272.72 L48.94 272.72" class="st9"/>
		</g>
		<g id="shape25-80" transform="translate(-225.646,204.095) rotate(-90)">
			<title>Sheet.25</title>
			<path d="M0 272.72 L32.02 272.72" class="st10"/>
		</g>
		<g id="shape26-83" transform="translate(24.7631,-68.6264)">
			<title>Sheet.26</title>
			<path d="M0 272.72 L22.31 272.72" class="st6"/>
		</g>
		<g id="shape27-88" transform="translate(226.548,-125.368)">
			<title>Dynamic connector.226</title>
			<path d="M0 272.72 L0 288.41 L-170.69 288.41" class="st8"/>
		</g>
		<g id="shape28-91" transform="translate(226.812,-125.368)">
			<title>Dynamic connector.227</title>
			<path d="M-0.26 272.72 L-0.26 288.41 L-13.91 288.41 L-13.91 297.44" class="st8"/>
		</g>
		<g id="shape37-94" transform="translate(289.205,-0.375)">
			<title>Sheet.37</title>
			<desc>*memory type is device specific</desc>
			<rect x="0" y="263.778" width="95.3149" height="8.9437" class="st11"/>
			<text x="8.94" y="270.05" class="st2">*memory type is device specific</text>		</g>
		<g id="shape38-97" transform="translate(188.504,-188.131)">
			<title>Sheet.38</title>
			<desc>CFI</desc>
			<path d="M0 272.72 L0 249.6 L20.63 249.6 L20.63 272.72 L0 272.72 Z" class="st4"/>
			<text x="6.58" y="262.96" class="st2">CFI</text>		</g>
		<g id="shape41-100" transform="translate(71.9182,-154.131)">
			<title>Sheet.41</title>
			<desc>SRI-S</desc>
			<path d="M0 272.72 L0 256.19 L28.79 256.19 L28.79 272.72 L0 272.72 Z" class="st12"/>
			<text x="8.34" y="266.26" class="st2">SRI-S</text>		</g>
		<g id="shape42-103" transform="translate(41.3449,-188.131)">
			<title>Sheet.42</title>
			<desc>DFLASH/DRRAM*</desc>
			<path d="M0 272.72 L0 249.6 L36.37 249.6 L36.37 272.72 L0 272.72 Z" class="st12"/>
			<text x="7.56" y="259.36" class="st2">DFLASH/<tspan x="7.28" dy="1.2em" class="st5">DRRAM*</tspan></text>		</g>
		<g id="shape43-107" transform="translate(67.7276,-188.131)">
			<title>Dynamic connector.43</title>
			<path d="M7.09 272.72 L7.09 290.19" class="st13"/>
		</g>
		<g id="shape44-110" transform="translate(360.596,119.056) rotate(90)">
			<title>Sheet.44</title>
			<path d="M0 272.72 L28.26 272.72" class="st6"/>
		</g>
		<g id="shape45-115" transform="translate(360.596,147.311) rotate(90)">
			<title>Sheet.45</title>
			<path d="M0 272.72 L15.73 272.72" class="st8"/>
		</g>
		<g id="shape46-118" transform="translate(232.669,-247.583)">
			<title>Sheet.46</title>
			<desc>SYS_FW</desc>
			<rect x="0" y="247.958" width="64.7404" height="24.7631" class="st3"/>
			<text x="4" y="257.36" class="st2">SYS_FW</text>		</g>
		<g id="shape47-121" transform="translate(232.669,-188.131)">
			<title>Sheet.47</title>
			<desc>CORE</desc>
			<path d="M0 272.72 L0 238.57 L64.74 238.57 L64.74 272.72 L0 272.72 Z" class="st4"/>
			<text x="25.69" y="257.45" class="st2">CORE</text>		</g>
		<g id="shape48-124" transform="translate(-7.68213,50.4398) rotate(-90)">
			<title>Sheet.48</title>
			<path d="M0 272.72 L25.3 272.72" class="st6"/>
		</g>
		<g id="shape49-129" transform="translate(297.283,-249.604)">
			<title>Sheet.49</title>
			<desc>SYS_FW is running on the CPU</desc>
			<rect x="0" y="263.778" width="95.3149" height="8.9437" class="st11"/>
			<text x="10.89" y="270.05" class="st2">SYS_FW is running on the CPU</text>		</g>
		<g id="shape51-132" transform="translate(266.457,-232.469)">
			<title>Sheet.51</title>
			<path d="M52.44 254.58 L41.1 254.58 L0 272.72" class="st14"/>
		</g>
		<g id="shape53-135" transform="translate(99.6977,-188.131)">
			<title>Sheet.53</title>
			<desc>BROM</desc>
			<path d="M0 272.72 L0 249.6 L36.37 249.6 L36.37 272.72 L0 272.72 Z" class="st12"/>
			<text x="10.37" y="262.96" class="st2">BROM</text>		</g>
		<g id="shape54-138" transform="translate(118.387,-188.131)">
			<title>Dynamic connector.54</title>
			<path d="M0 272.72 L0 298.46 L-17.68 298.46" class="st13"/>
		</g>
	</g>
</svg>
