<?xml version="1.0" encoding="UTF-8" standalone="no"?>
<!DOCTYPE svg PUBLIC "-//W3C//DTD SVG 1.1//EN" "http://www.w3.org/Graphics/SVG/1.1/DTD/svg11.dtd">
<!-- Generated by Microsoft Visio, SVG Export GPO_Output_RdBck.svg Page-1 -->
<svg xmlns="http://www.w3.org/2000/svg" xmlns:xlink="http://www.w3.org/1999/xlink" xmlns:ev="http://www.w3.org/2001/xml-events"
		width="6.11278in" height="2.17577in" viewBox="0 0 440.12 156.656" xml:space="preserve" color-interpolation-filters="sRGB"
		class="st16">
	<style type="text/css">
	<![CDATA[
		.st1 {fill:none;stroke:#000000;stroke-dasharray:5.25,3.75;stroke-linecap:round;stroke-linejoin:round;stroke-width:0.75}
		.st2 {fill:#000000;font-family:Calibri;font-size:0.499992em}
		.st3 {baseline-shift:32.4949%;font-size:0.649897em}
		.st4 {font-size:1em}
		.st5 {fill:#9dc3e6;stroke:none;stroke-linecap:round;stroke-linejoin:round;stroke-width:0.75}
		.st6 {fill:#bfbfbf;stroke:none;stroke-linecap:round;stroke-linejoin:round;stroke-width:0.75}
		.st7 {fill:#000000;font-family:Calibri;font-size:0.499992em;font-weight:bold}
		.st8 {fill:#ffc000;stroke:none;stroke-linecap:round;stroke-linejoin:round;stroke-width:0.75}
		.st9 {marker-end:url(#mrkr1-26);stroke:#ff0000;stroke-linecap:round;stroke-linejoin:round;stroke-width:1}
		.st10 {fill:#ff0000;fill-opacity:1;stroke:#ff0000;stroke-opacity:1;stroke-width:0.28409090909091}
		.st11 {fill:none;stroke:none;stroke-linecap:round;stroke-linejoin:round;stroke-width:0.75}
		.st12 {marker-end:url(#mrkr1-55);marker-start:url(#mrkr1-53);stroke:#000000;stroke-linecap:round;stroke-linejoin:round;stroke-width:1}
		.st13 {fill:#000000;fill-opacity:1;stroke:#000000;stroke-opacity:1;stroke-width:0.28409090909091}
		.st14 {stroke:#000000;stroke-dasharray:5.25,3.75;stroke-linecap:round;stroke-linejoin:round;stroke-width:0.75}
		.st15 {fill:#d8d8d8;stroke:none;stroke-linecap:round;stroke-linejoin:round;stroke-width:0.75}
		.st16 {fill:none;fill-rule:evenodd;font-size:12px;overflow:visible;stroke-linecap:square;stroke-miterlimit:3}
	]]>
	</style>

	<defs id="Markers">
		<g id="lend1">
			<path d="M 1 -1 L 0 0 L 1 1 " style="stroke-linecap:round;stroke-linejoin:round;fill:none"/>
		</g>
		<marker id="mrkr1-26" class="st10" orient="auto" markerUnits="strokeWidth" overflow="visible">
			<use xlink:href="#lend1" transform="scale(-3.52,-3.52) "/>
		</marker>
		<marker id="mrkr1-53" class="st13" orient="auto" markerUnits="strokeWidth" overflow="visible">
			<use xlink:href="#lend1" transform="scale(3.52) "/>
		</marker>
		<marker id="mrkr1-55" class="st13" orient="auto" markerUnits="strokeWidth" overflow="visible">
			<use xlink:href="#lend1" transform="scale(-3.52,-3.52) "/>
		</marker>
	</defs>
	<g>
		<title>Page-1</title>
		<g id="shape1-1" transform="translate(119.061,-0.375)">
			<title>Sheet.1</title>
			<desc>AURIXTM TC4xx MCU</desc>
			<path d="M0 156.66 L320.68 156.66 L320.68 0.75 L0 0.75 L0 156.66 Z" class="st1"/>
			<text x="4" y="10.15" class="st2">AURIX<tspan dy="-0.234em" class="st3">TM</tspan><tspan dy="0.152em" class="st4"> </tspan>TC4xx MCU</text>		</g>
		<g id="shape2-6" transform="translate(104.665,-14.428)">
			<title>Sheet.2</title>
			<desc>Package</desc>
			<path d="M0 156.66 L0 45.98 L28.79 45.98 L28.79 156.66 L0 156.66 Z" class="st5"/>
			<text x="4.44" y="55.38" class="st2">Package</text>		</g>
		<g id="shape5-9" transform="translate(0.375,-4.91043)">
			<title>Sheet.5</title>
			<desc>External actuator</desc>
			<rect x="0" y="36.3649" width="55.1305" height="120.291" class="st6"/>
			<text x="4" y="45.77" class="st7">External actuator</text>		</g>
		<g id="shape7-12" transform="translate(163.367,-76.9379)">
			<title>Sheet.7</title>
			<desc>PORT module Pab</desc>
			<path d="M0 124.79 L0 156.66 L55.13 156.66 L55.13 124.79 L0 124.79 L0 124.79 Z" class="st8"/>
			<text x="4" y="134.19" class="st2">PORT module Pab</text>		</g>
		<g id="shape13-15" transform="translate(367.635,-49.9813)">
			<title>Sheet.13</title>
			<desc>CPU</desc>
			<rect x="0" y="101.38" width="49.4334" height="55.2756" class="st6"/>
			<text x="4" y="110.78" class="st2">CPU</text>		</g>
		<g id="shape18-18" transform="translate(163.367,-25.8868)">
			<title>Sheet.18</title>
			<desc>PORT module Pxy</desc>
			<path d="M0 124.79 L0 156.66 L55.13 156.66 L55.13 124.79 L0 124.79 L0 124.79 Z" class="st8"/>
			<text x="4" y="134.19" class="st2">PORT module Pxy</text>		</g>
		<g id="shape44-21" transform="translate(163.367,219.96) rotate(180)">
			<title>Sheet.44</title>
			<path d="M0 156.66 L108.09 156.66" class="st9"/>
		</g>
		<g id="shape45-27" transform="translate(55.5055,-42.2979)">
			<title>Sheet.45</title>
			<path d="M0 156.66 L107.86 156.66" class="st9"/>
		</g>
		<g id="shape46-32" transform="translate(66.1354,-92.501)">
			<title>Sheet.46</title>
			<desc>Mission ch.</desc>
			<rect x="0" y="148.152" width="49.6063" height="8.50394" class="st11"/>
			<text x="4" y="154.2" class="st2">Mission ch.</text>		</g>
		<g id="shape47-35" transform="translate(65.6266,-42.8947)">
			<title>Sheet.47</title>
			<desc>Monitoring ch.</desc>
			<rect x="0" y="148.152" width="60.745" height="8.50394" class="st11"/>
			<text x="4" y="154.2" class="st2">Monitoring ch.</text>		</g>
		<g id="shape48-38" transform="translate(29.7701,-89.6663)">
			<title>Sheet.48</title>
			<desc>Control</desc>
			<rect x="0" y="148.152" width="28.7936" height="8.50394" class="st11"/>
			<text x="4" y="154.2" class="st2">Control</text>		</g>
		<g id="shape49-41" transform="translate(25.7417,-38.6427)">
			<title>Sheet.49</title>
			<desc>Feedback</desc>
			<rect x="0" y="148.152" width="31.7448" height="8.50394" class="st11"/>
			<text x="4" y="154.2" class="st2">Feedback</text>		</g>
		<g id="shape56-44" transform="translate(275.28,-25.8868)">
			<title>Sheet.56</title>
			<desc>FPI</desc>
			<rect x="0" y="64.5295" width="22.7329" height="92.126" class="st6"/>
			<text x="4" y="73.93" class="st2">FPI</text>		</g>
		<g id="shape57-47" transform="translate(218.643,-92.3209)">
			<title>Sheet.57</title>
			<path d="M0 156.66 L56.64 156.66" class="st12"/>
		</g>
		<g id="shape58-56" transform="translate(218.498,-43.2275)">
			<title>Sheet.58</title>
			<path d="M0 156.66 L56.78 156.66" class="st12"/>
		</g>
		<g id="shape59-63" transform="translate(268.193,-91.7814)">
			<title>Dynamic connector.73</title>
			<path d="M7.09 156.66 L17.72 156.66 L17.72 205.21 L7.09 205.21" class="st14"/>
		</g>
		<g id="shape60-66" transform="translate(286.618,-72.4784)">
			<title>Sheet.60</title>
			<path d="M0 156.66 L11.39 156.66" class="st14"/>
		</g>
		<g id="shape61-69" transform="translate(367.462,240.833) rotate(180)">
			<title>Sheet.61</title>
			<path d="M0 156.66 L69.45 156.66" class="st12"/>
		</g>
		<g id="shape66-76" transform="translate(367.462,-64.1545)">
			<title>Sheet.66</title>
			<desc>FPI Master I/F</desc>
			<path d="M0 156.66 L0 140.12 L35.43 140.12 L35.43 156.66 L0 156.66 Z" class="st15"/>
			<text x="14.03" y="146.59" class="st2">FPI <tspan x="5.03" dy="1.2em" class="st4">Master I/F</tspan></text>		</g>
	</g>
</svg>
