<?xml version="1.0" encoding="UTF-8" standalone="no"?>
<!DOCTYPE svg PUBLIC "-//W3C//DTD SVG 1.1//EN" "http://www.w3.org/Graphics/SVG/1.1/DTD/svg11.dtd">
<!-- Generated by Microsoft Visio, SVG Export TC4xx_TUC_CCFTestDbg.svg CCF TestDbg -->
<svg xmlns="http://www.w3.org/2000/svg" xmlns:xlink="http://www.w3.org/1999/xlink" xmlns:ev="http://www.w3.org/2001/xml-events"
		width="7.71654in" height="4.33071in" viewBox="0 0 555.591 311.811" xml:space="preserve" color-interpolation-filters="sRGB"
		class="st8">
	<style type="text/css">
	<![CDATA[
		.st1 {fill:#d9d9d9;stroke:none;stroke-linecap:round;stroke-linejoin:round;stroke-width:0.75}
		.st2 {fill:#ffcc99;stroke:none;stroke-linecap:round;stroke-linejoin:round;stroke-width:0.75}
		.st3 {stroke:none;stroke-linecap:round;stroke-linejoin:round;stroke-width:0.75}
		.st4 {fill:#000000;font-family:Verdana;font-size:0.889847em}
		.st5 {fill:#c00000;stroke:#c00000;stroke-linecap:round;stroke-linejoin:round;stroke-width:0.0114191}
		.st6 {font-size:1em}
		.st7 {fill:#c00000;stroke:#c00000;stroke-linecap:round;stroke-linejoin:round;stroke-width:0.00570956}
		.st8 {fill:none;fill-rule:evenodd;font-size:12px;overflow:visible;stroke-linecap:square;stroke-miterlimit:3}
	]]>
	</style>

	<g>
		<title>CCF TestDbg</title>
		<g id="shape3-1" transform="translate(276.767,-39.98)">
			<title>Sheet.3</title>
			<path d="M0 260.41 C0 255.23 4.21 251.03 9.4 251.03 L120.09 251.03 C125.28 251.03 129.48 255.23 129.48 260.41 L129.48
						 302.44 C129.48 307.62 125.28 311.81 120.09 311.81 L9.4 311.81 C4.21 311.81 0 307.62 0 302.44 L0 260.41 Z"
					class="st1"/>
		</g>
		<g id="shape4-3" transform="translate(285.545,-48.9241)">
			<title>Sheet.4</title>
			<path d="M0 268.46 L0 311.81 L113.11 311.81 L113.11 268.46 L0 268.46 L0 268.46 Z" class="st2"/>
		</g>
		<g id="shape5-5" transform="translate(163.291,-233.008)">
			<title>Sheet.5</title>
			<path d="M0 260.5 C0 255.27 4.25 251.03 9.49 251.03 L63.85 251.03 C69.09 251.03 73.33 255.27 73.33 260.5 L73.33 302.34
						 C73.33 307.57 69.09 311.81 63.85 311.81 L9.49 311.81 C4.25 311.81 0 307.57 0 302.34 L0 260.5 Z"
					class="st1"/>
		</g>
		<g id="shape6-7" transform="translate(171.886,-241.861)">
			<title>Sheet.6</title>
			<path d="M0 268.37 L0 311.81 L55.96 311.81 L55.96 268.37 L0 268.37 L0 268.37 Z" class="st2"/>
		</g>
		<g id="shape7-9" transform="translate(163.291,-137.909)">
			<title>Sheet.7</title>
			<path d="M0 260.5 C0 255.27 4.25 251.03 9.49 251.03 L63.85 251.03 C69.09 251.03 73.33 255.27 73.33 260.5 L73.33 302.34
						 C73.33 307.57 69.09 311.81 63.85 311.81 L9.49 311.81 C4.25 311.81 0 307.57 0 302.34 L0 260.5 Z"
					class="st1"/>
		</g>
		<g id="shape8-11" transform="translate(171.886,-146.762)">
			<title>Sheet.8</title>
			<path d="M0 268.37 L0 311.81 L55.96 311.81 L55.96 268.37 L0 268.37 L0 268.37 Z" class="st2"/>
		</g>
		<g id="shape9-13" transform="translate(162.834,-39.7975)">
			<title>Sheet.9</title>
			<path d="M0 260.51 C0 255.27 4.25 251.03 9.5 251.03 L63.85 251.03 C69.09 251.03 73.33 255.27 73.33 260.51 L73.33 302.34
						 C73.33 307.58 69.09 311.81 63.85 311.81 L9.5 311.81 C4.25 311.81 0 307.58 0 302.34 L0 260.51 Z"
					class="st1"/>
		</g>
		<g id="shape10-15" transform="translate(171.429,-48.6503)">
			<title>Sheet.10</title>
			<path d="M0 268.37 L0 311.81 L55.96 311.81 L55.96 268.37 L0 268.37 L0 268.37 Z" class="st2"/>
		</g>
		<g id="shape11-17" transform="translate(180.639,-217.269)">
			<title>Sheet.11</title>
			<desc>DEBUG</desc>
			<path d="M48.48 298.99 L0 298.99 L0 311.81 L48.48 311.81 L48.48 298.99" class="st3"/>
			<text x="5.04" y="308.61" class="st4">DEBUG</text>		</g>
		<g id="shape12-21" transform="translate(180.639,-256.236)">
			<title>Sheet.12</title>
			<desc>DEBUG</desc>
			<path d="M48.48 298.99 L0 298.99 L0 311.81 L48.48 311.81 L48.48 298.99" class="st3"/>
			<text x="5.04" y="308.61" class="st4">DEBUG</text>		</g>
		<g id="shape13-25" transform="translate(189.328,-121.479)">
			<title>Sheet.13</title>
			<desc>DFT</desc>
			<path d="M28.41 298.99 L0 298.99 L0 311.81 L28.41 311.81 L28.41 298.99" class="st3"/>
			<text x="3.73" y="308.61" class="st4">DFT</text>		</g>
		<g id="shape14-29" transform="translate(189.328,-160.446)">
			<title>Sheet.14</title>
			<desc>DFT</desc>
			<path d="M28.41 298.99 L0 298.99 L0 311.81 L28.41 311.81 L28.41 298.99" class="st3"/>
			<text x="3.73" y="308.61" class="st4">DFT</text>		</g>
		<g id="shape15-33" transform="translate(187.96,-22.4152)">
			<title>Sheet.15</title>
			<desc>VMT</desc>
			<path d="M30.63 298.99 L0 298.99 L0 311.81 L30.63 311.81 L30.63 298.99" class="st3"/>
			<text x="3.88" y="308.61" class="st4">VMT</text>		</g>
		<g id="shape16-37" transform="translate(187.96,-62.0108)">
			<title>Sheet.16</title>
			<desc>VMT</desc>
			<path d="M30.63 298.99 L0 298.99 L0 311.81 L30.63 311.81 L30.63 298.99" class="st3"/>
			<text x="3.88" y="308.61" class="st4">VMT</text>		</g>
		<g id="shape21-41" transform="translate(294.52,-24.7724)">
			<title>Sheet.21</title>
			<desc>Functional Block</desc>
			<path d="M93.97 298.99 L0 298.99 L0 311.81 L93.97 311.81 L93.97 298.99" class="st3"/>
			<text x="3.34" y="308.61" class="st4">Functional Block</text>		</g>
		<g id="shape22-45" transform="translate(293.925,-165.482)">
			<title>Sheet.22</title>
			<desc>Functional Block</desc>
			<path d="M93.97 298.99 L0 298.99 L0 311.81 L93.97 311.81 L93.97 298.99" class="st3"/>
			<text x="3.34" y="308.61" class="st4">Functional Block</text>		</g>
		<g id="shape23-49" transform="translate(227.253,-67.1246)">
			<title>Sheet.23</title>
			<path d="M1.19 309.17 L57.17 308.94 L57.16 307.75 L1.18 307.98 L1.19 309.17 ZM5.44 305.38 L0 308.58 L5.46 311.74 C5.75
						 311.9 6.12 311.79 6.28 311.52 C6.45 311.23 6.34 310.87 6.06 310.71 L1.47 308.06 L1.49 309.09 L6.05 306.41
						 L6.05 306.41 C6.33 306.24 6.42 305.87 6.25 305.6 C6.09 305.31 5.73 305.22 5.44 305.38 ZM52.91 311.54 L58.35
						 308.34 L52.89 305.19 L52.89 305.19 C52.6 305.03 52.23 305.12 52.07 305.4 C51.9 305.69 52.01 306.05 52.29
						 306.21 L56.88 308.86 L56.86 307.83 L52.3 310.51 L52.3 310.51 C52.02 310.69 51.93 311.04 52.1 311.32 C52.26
						 311.61 52.62 311.7 52.91 311.54 Z" class="st5"/>
		</g>
		<g id="shape24-51" transform="translate(276.127,-183.451)">
			<title>Sheet.24</title>
			<path d="M0 260.41 C-0 255.23 4.21 251.03 9.4 251.03 L120.19 251.03 C125.38 251.03 129.57 255.23 129.57 260.41 L129.57
						 302.44 C129.57 307.62 125.38 311.81 120.19 311.81 L9.4 311.81 C4.21 311.81 0 307.62 0 302.44 L0 260.41 Z"
					class="st1"/>
		</g>
		<g id="shape25-53" transform="translate(284.905,-192.395)">
			<title>Sheet.25</title>
			<path d="M0 268.37 L0 311.81 L113.2 311.81 L113.2 268.37 L0 268.37 L0 268.37 Z" class="st2"/>
		</g>
		<g id="shape26-55" transform="translate(300.233,-194.425)">
			<title>Sheet.26</title>
			<desc>Functional Block without local RAM</desc>
			<path d="M82.55 272.98 L0 272.98 L0 311.81 L82.55 311.81 L82.55 272.98" class="st3"/>
			<text x="13.81" y="282.78" class="st4">Functional <tspan x="5.05" dy="1.2em" class="st6">Block without </tspan><tspan
						x="15.38" dy="1.2em" class="st6">local RAM</tspan></text>		</g>
		<g id="shape30-61" transform="translate(227.71,-165.482)">
			<title>Sheet.30</title>
			<path d="M1.18 309.15 L29.63 309.15 L29.63 270.52 L29.04 271.12 L56.89 271.12 L56.89 269.93 L28.44 269.93 L28.44 308.56
						 L29.04 307.97 L1.18 307.97 L1.18 309.15 ZM5.45 305.38 L0 308.56 L5.45 311.73 C5.74 311.9 6.1 311.8 6.26
						 311.52 C6.43 311.23 6.33 310.87 6.05 310.71 L1.48 308.05 L1.48 309.07 L6.05 306.41 L6.05 306.41 C6.33 306.24
						 6.43 305.88 6.26 305.6 C6.1 305.31 5.74 305.22 5.45 305.38 ZM52.62 273.7 L58.07 270.52 L52.62 267.35 C52.34
						 267.19 51.97 267.28 51.81 267.56 C51.64 267.85 51.74 268.21 52.02 268.38 L56.6 271.04 L56.6 270.02 L52.02
						 272.67 C51.74 272.84 51.64 273.2 51.81 273.49 C51.97 273.77 52.34 273.87 52.62 273.7 Z" class="st7"/>
		</g>
		<g id="shape31-63" transform="translate(227.71,-219.816)">
			<title>Sheet.31</title>
			<path d="M1.18 266.49 L29.4 266.49 L29.4 308.56 L28.81 307.96 L56.44 307.96 L56.44 309.15 L28.21 309.15 L28.21 267.09
						 L28.81 267.68 L1.18 267.68 L1.18 266.49 ZM5.45 270.26 L0 267.09 L5.45 263.91 C5.74 263.75 6.1 263.85 6.26
						 264.13 C6.43 264.41 6.33 264.78 6.05 264.94 L1.48 267.6 L1.48 266.58 L6.05 269.24 L6.05 269.24 C6.33 269.4
						 6.43 269.77 6.26 270.05 C6.1 270.33 5.74 270.43 5.45 270.26 ZM52.17 305.38 L57.62 308.56 L52.17 311.73 C51.88
						 311.89 51.52 311.8 51.35 311.52 C51.19 311.23 51.29 310.87 51.57 310.71 L56.14 308.04 L56.14 309.07 L51.57
						 306.41 C51.29 306.24 51.19 305.88 51.35 305.6 C51.52 305.31 51.88 305.22 52.17 305.38 Z" class="st7"/>
		</g>
		<g id="shape32-65" transform="translate(300.827,-51.1824)">
			<title>Sheet.32</title>
			<desc>Functional Block with local RAM</desc>
			<path d="M82.55 272.98 L0 272.98 L0 311.81 L82.55 311.81 L82.55 272.98" class="st3"/>
			<text x="13.81" y="282.78" class="st4">Functional <tspan x="13.77" dy="1.2em" class="st6">Block with </tspan><tspan
						x="15.38" dy="1.2em" class="st6">local RAM</tspan></text>		</g>
	</g>
</svg>
