<?xml version="1.0" encoding="UTF-8" standalone="no"?>
<!DOCTYPE svg PUBLIC "-//W3C//DTD SVG 1.1//EN" "http://www.w3.org/Graphics/SVG/1.1/DTD/svg11.dtd">
<!-- Generated by Microsoft Visio, SVG Export TC4xx_TUC_InternalFailureRep.svg Page-27 -->
<svg xmlns="http://www.w3.org/2000/svg" xmlns:xlink="http://www.w3.org/1999/xlink" xmlns:ev="http://www.w3.org/2001/xml-events"
		width="7.71654in" height="4.33071in" viewBox="0 0 555.591 311.811" xml:space="preserve" color-interpolation-filters="sRGB"
		class="st21">
	<style type="text/css">
	<![CDATA[
		.st1 {fill:#5b9bd5;stroke:none;stroke-linecap:round;stroke-linejoin:round;stroke-width:0.75}
		.st2 {stroke:#41719c;stroke-linecap:round;stroke-linejoin:round;stroke-width:0.539733}
		.st3 {fill:#d9d9d9;stroke:none;stroke-linecap:round;stroke-linejoin:round;stroke-width:0.75}
		.st4 {fill:#ffcc99;stroke:none;stroke-linecap:round;stroke-linejoin:round;stroke-width:0.75}
		.st5 {stroke:none;stroke-linecap:round;stroke-linejoin:round;stroke-width:0.75}
		.st6 {fill:#000000;font-family:Verdana;font-size:0.657166em}
		.st7 {fill:#ffc000;stroke:none;stroke-linecap:round;stroke-linejoin:round;stroke-width:0.75}
		.st8 {fill:#000000;font-family:Verdana;font-size:0.747047em}
		.st9 {fill:#99ccff;stroke:none;stroke-linecap:round;stroke-linejoin:round;stroke-width:0.75}
		.st10 {stroke:#99ccff;stroke-linecap:round;stroke-linejoin:round;stroke-width:0.4048}
		.st11 {fill:#5b9bd5;stroke:#5b9bd5;stroke-linecap:round;stroke-linejoin:round;stroke-width:0.0168667}
		.st12 {fill:#000000;font-family:Calibri;font-size:0.561699em}
		.st13 {fill:#000000;font-family:Calibri;font-size:0.747047em}
		.st14 {stroke:#00b050;stroke-linecap:round;stroke-linejoin:round;stroke-width:0.539733}
		.st15 {fill:#00b050;font-family:Calibri;font-size:0.494293em}
		.st16 {fill:#00b050;stroke:#00b050;stroke-linecap:round;stroke-linejoin:round;stroke-width:0.0168667}
		.st17 {fill:#7030a0;stroke:#7030a0;stroke-linecap:round;stroke-linejoin:round;stroke-width:0.0168667}
		.st18 {fill:#7f7f7f;stroke:#7f7f7f;stroke-linecap:round;stroke-linejoin:round;stroke-width:0.0168667}
		.st19 {fill:#00b050;stroke:#00b050;stroke-linecap:round;stroke-linejoin:round;stroke-width:0.00421666}
		.st20 {fill:#00b050;stroke:#00b050;stroke-linecap:round;stroke-linejoin:round;stroke-width:0.00843333}
		.st21 {fill:none;fill-rule:evenodd;font-size:12px;overflow:visible;stroke-linecap:square;stroke-miterlimit:3}
	]]>
	</style>

	<g>
		<title>InternalFailureRep</title>
		<g id="shape3-1" transform="translate(98.6456,-138.37)">
			<title>Sheet.3</title>
			<path d="M0 296.92 L0 311.81 L13.84 311.81 L13.84 296.92 L0 296.92 L0 296.92 Z" class="st1"/>
		</g>
		<g id="shape4-3" transform="translate(98.6456,-138.37)">
			<title>Sheet.4</title>
			<path d="M13.84 311.81 L0 311.81 L0 296.92 L13.84 296.92 L13.84 311.81" class="st2"/>
		</g>
		<g id="shape5-6" transform="translate(98.6456,-157.916)">
			<title>Sheet.5</title>
			<path d="M0 297.05 L0 311.81 L13.84 311.81 L13.84 297.05 L0 297.05 L0 297.05 Z" class="st1"/>
		</g>
		<g id="shape6-8" transform="translate(98.6456,-157.916)">
			<title>Sheet.6</title>
			<path d="M13.84 311.81 L0 311.81 L0 297.05 L13.84 297.05 L13.84 311.81" class="st2"/>
		</g>
		<g id="shape7-11" transform="translate(295.227,-138.302)">
			<title>Sheet.7</title>
			<path d="M0 296.51 L0 311.81 L13.91 311.81 L13.91 296.51 L0 296.51 L0 296.51 Z" class="st1"/>
		</g>
		<g id="shape8-13" transform="translate(295.227,-138.302)">
			<title>Sheet.8</title>
			<path d="M13.91 311.81 L0 311.81 L0 296.51 L13.91 296.51 L13.91 311.81" class="st2"/>
		</g>
		<g id="shape9-16" transform="translate(295.227,-157.782)">
			<title>Sheet.9</title>
			<path d="M0 296.44 L0 311.81 L13.91 311.81 L13.91 296.44 L0 296.44 L0 296.44 Z" class="st1"/>
		</g>
		<g id="shape10-18" transform="translate(295.227,-157.782)">
			<title>Sheet.10</title>
			<path d="M13.91 311.81 L0 311.81 L0 296.44 L13.91 296.44 L13.91 311.81" class="st2"/>
		</g>
		<g id="shape11-21" transform="translate(327.372,-116.868)">
			<title>Sheet.11</title>
			<path d="M15.4 297.93 L15.4 311.81 L0 311.81 L0 297.93 L15.4 297.93 Z" class="st1"/>
		</g>
		<g id="shape12-23" transform="translate(327.372,-116.868)">
			<title>Sheet.12</title>
			<path d="M15.4 297.93 L15.4 311.81 L0 311.81 L0 297.93 L15.4 297.93" class="st2"/>
		</g>
		<g id="shape13-26" transform="translate(295.092,-116.868)">
			<title>Sheet.13</title>
			<path d="M15.33 297.93 L15.33 311.81 L0 311.81 L0 297.93 L15.33 297.93 Z" class="st1"/>
		</g>
		<g id="shape14-28" transform="translate(295.092,-116.868)">
			<title>Sheet.14</title>
			<path d="M15.33 297.93 L15.33 311.81 L0 311.81 L0 297.93 L15.33 297.93" class="st2"/>
		</g>
		<g id="shape15-31" transform="translate(359.854,-117.138)">
			<title>Sheet.15</title>
			<path d="M15.33 297.93 L15.33 311.81 L0 311.81 L0 297.93 L15.33 297.93 Z" class="st1"/>
		</g>
		<g id="shape16-33" transform="translate(359.854,-117.138)">
			<title>Sheet.16</title>
			<path d="M15.33 297.93 L15.33 311.81 L0 311.81 L0 297.93 L15.33 297.93" class="st2"/>
		</g>
		<g id="shape17-36" transform="translate(326.696,-181.777)">
			<title>Sheet.17</title>
			<path d="M15.33 297.99 L15.33 311.81 L0 311.81 L0 297.99 L15.33 297.99 Z" class="st1"/>
		</g>
		<g id="shape18-38" transform="translate(326.696,-181.777)">
			<title>Sheet.18</title>
			<path d="M15.33 297.99 L15.33 311.81 L0 311.81 L0 297.99 L15.33 297.99" class="st2"/>
		</g>
		<g id="shape19-41" transform="translate(294.349,-181.777)">
			<title>Sheet.19</title>
			<path d="M15.4 297.99 L15.4 311.81 L0 311.81 L0 297.99 L15.4 297.99 Z" class="st1"/>
		</g>
		<g id="shape20-43" transform="translate(294.349,-181.777)">
			<title>Sheet.20</title>
			<path d="M15.4 297.99 L15.4 311.81 L0 311.81 L0 297.99 L15.4 297.99" class="st2"/>
		</g>
		<g id="shape21-46" transform="translate(359.111,-181.979)">
			<title>Sheet.21</title>
			<path d="M15.4 297.93 L15.4 311.81 L0 311.81 L0 297.93 L15.4 297.93 Z" class="st1"/>
		</g>
		<g id="shape22-48" transform="translate(359.111,-181.979)">
			<title>Sheet.22</title>
			<path d="M15.4 297.93 L15.4 311.81 L0 311.81 L0 297.93 L15.4 297.93" class="st2"/>
		</g>
		<g id="shape23-51" transform="translate(288.204,-109.858)">
			<title>Sheet.23</title>
			<path d="M0 231.74 C-0 223.06 7.04 216.03 15.73 216.03 L78.62 216.03 C87.3 216.03 94.34 223.06 94.34 231.74 L94.34 296.12
						 C94.34 304.78 87.3 311.81 78.62 311.81 L15.73 311.81 C7.04 311.81 0 304.78 0 296.12 L0 231.74 Z"
					class="st3"/>
		</g>
		<g id="shape24-53" transform="translate(294.889,-116.868)">
			<title>Sheet.24</title>
			<path d="M0 232.55 L0 311.81 L80.63 311.81 L80.63 232.55 L0 232.55 L0 232.55 Z" class="st4"/>
		</g>
		<g id="shape25-55" transform="translate(326.275,-150.347)">
			<title>Sheet.25</title>
			<desc>SMU</desc>
			<path d="M23.67 302.34 L0 302.34 L0 311.81 L23.67 311.81 L23.67 302.34" class="st5"/>
			<text x="2.93" y="309.44" class="st6">SMU</text>		</g>
		<g id="shape26-59" transform="translate(294.957,-267.581)">
			<title>Sheet.26</title>
			<path d="M0 304.73 L0 311.81 L13.91 311.81 L13.91 304.73 L0 304.73 L0 304.73 Z" class="st1"/>
		</g>
		<g id="shape27-61" transform="translate(294.957,-267.581)">
			<title>Sheet.27</title>
			<path d="M0 304.73 L13.91 304.73 L13.91 311.81 L0 311.81 L0 304.73" class="st2"/>
		</g>
		<g id="shape28-64" transform="translate(294.957,-247.36)">
			<title>Sheet.28</title>
			<path d="M0 304.73 L0 311.81 L13.91 311.81 L13.91 304.73 L0 304.73 L0 304.73 Z" class="st1"/>
		</g>
		<g id="shape29-66" transform="translate(294.957,-247.36)">
			<title>Sheet.29</title>
			<path d="M0 304.73 L13.91 304.73 L13.91 311.81 L0 311.81 L0 304.73" class="st2"/>
		</g>
		<g id="shape30-69" transform="translate(485.798,-185.282)">
			<title>Sheet.30</title>
			<path d="M15.33 297.99 L15.33 311.81 L0 311.81 L0 297.99 L15.33 297.99 Z" class="st1"/>
		</g>
		<g id="shape31-71" transform="translate(485.798,-185.282)">
			<title>Sheet.31</title>
			<path d="M15.33 297.99 L15.33 311.81 L0 311.81 L0 297.99 L15.33 297.99" class="st2"/>
		</g>
		<g id="shape32-74" transform="translate(513.553,-185.484)">
			<title>Sheet.32</title>
			<path d="M15.4 297.93 L15.4 311.81 L0 311.81 L0 297.93 L15.4 297.93 Z" class="st1"/>
		</g>
		<g id="shape33-76" transform="translate(513.553,-185.484)">
			<title>Sheet.33</title>
			<path d="M15.4 297.93 L15.4 311.81 L0 311.81 L0 297.93 L15.4 297.93" class="st2"/>
		</g>
		<g id="shape34-79" transform="translate(476.817,-56.2731)">
			<title>Sheet.34</title>
			<path d="M15.4 297.93 L15.4 311.81 L0 311.81 L0 297.93 L15.4 297.93 Z" class="st1"/>
		</g>
		<g id="shape35-81" transform="translate(476.817,-56.2731)">
			<title>Sheet.35</title>
			<path d="M15.4 297.93 L15.4 311.81 L0 311.81 L0 297.93 L15.4 297.93" class="st2"/>
		</g>
		<g id="shape36-84" transform="translate(444.402,-56.2731)">
			<title>Sheet.36</title>
			<path d="M15.4 297.93 L15.4 311.81 L0 311.81 L0 297.93 L15.4 297.93 Z" class="st1"/>
		</g>
		<g id="shape37-86" transform="translate(444.402,-56.2731)">
			<title>Sheet.37</title>
			<path d="M15.4 297.93 L15.4 311.81 L0 311.81 L0 297.93 L15.4 297.93" class="st2"/>
		</g>
		<g id="shape38-89" transform="translate(460.609,-56.3405)">
			<title>Sheet.38</title>
			<path d="M15.4 297.93 L15.4 311.81 L0 311.81 L0 297.93 L15.4 297.93 Z" class="st1"/>
		</g>
		<g id="shape39-91" transform="translate(460.609,-56.3405)">
			<title>Sheet.39</title>
			<path d="M15.4 297.93 L15.4 311.81 L0 311.81 L0 297.93 L15.4 297.93" class="st2"/>
		</g>
		<g id="shape40-94" transform="translate(500.182,-56.3405)">
			<title>Sheet.40</title>
			<path d="M15.4 297.93 L15.4 311.81 L0 311.81 L0 297.93 L15.4 297.93 Z" class="st1"/>
		</g>
		<g id="shape41-96" transform="translate(500.182,-56.3405)">
			<title>Sheet.41</title>
			<path d="M15.4 297.93 L15.4 311.81 L0 311.81 L0 297.93 L15.4 297.93" class="st2"/>
		</g>
		<g id="shape42-99" transform="translate(288.204,-240.282)">
			<title>Sheet.42</title>
			<path d="M0 278.73 C0 275.08 2.97 272.11 6.63 272.11 L87.72 272.11 C91.39 272.11 94.34 275.08 94.34 278.73 L94.34 305.21
						 C94.34 308.86 91.39 311.81 87.72 311.81 L6.63 311.81 C2.97 311.81 0 308.86 0 305.21 L0 278.73 Z"
					class="st3"/>
		</g>
		<g id="shape43-101" transform="translate(327.066,-278.855)">
			<title>Sheet.43</title>
			<desc>SCU</desc>
			<path d="M22.36 302.34 L0 302.34 L0 311.81 L22.36 311.81 L22.36 302.34" class="st5"/>
			<text x="2.85" y="309.44" class="st6">SCU</text>		</g>
		<g id="shape44-105" transform="translate(294.889,-247.023)">
			<title>Sheet.44</title>
			<path d="M0 284.24 L0 311.81 L80.29 311.81 L80.29 284.24 L0 284.24 L0 284.24 Z" class="st4"/>
		</g>
		<g id="shape45-107" transform="translate(326.678,-254.627)">
			<title>Sheet.45</title>
			<desc>SCU</desc>
			<path d="M22.36 302.34 L0 302.34 L0 311.81 L22.36 311.81 L22.36 302.34" class="st5"/>
			<text x="2.85" y="309.44" class="st6">SCU</text>		</g>
		<g id="shape46-111" transform="translate(138.218,-207.997)">
			<title>Sheet.46</title>
			<path d="M0 278.73 C-0 275.08 2.97 272.11 6.63 272.11 L87.71 272.11 C91.38 272.11 94.34 275.08 94.34 278.73 L94.34 305.2
						 C94.34 308.85 91.38 311.81 87.71 311.81 L6.63 311.81 C2.97 311.81 0 308.85 0 305.2 L0 278.73 Z"
					class="st3"/>
		</g>
		<g id="shape47-113" transform="translate(144.904,-214.737)">
			<title>Sheet.47</title>
			<path d="M0 284.24 L0 311.81 L80.56 311.81 L80.56 284.24 L0 284.24 L0 284.24 Z" class="st4"/>
		</g>
		<g id="shape48-115" transform="translate(158.066,-232.038)">
			<title>Sheet.48</title>
			<desc>Hardware /</desc>
			<path d="M57.61 302.34 L0 302.34 L0 311.81 L57.61 311.81 L57.61 302.34" class="st5"/>
			<text x="6.53" y="309.44" class="st6">Hardware / </text>		</g>
		<g id="shape49-119" transform="translate(148.544,-222.602)">
			<title>Sheet.49</title>
			<desc>Software Safety</desc>
			<path d="M79.35 302.34 L0 302.34 L0 311.81 L79.35 311.81 L79.35 302.34" class="st5"/>
			<text x="7.95" y="309.44" class="st6">Software Safety </text>		</g>
		<g id="shape50-123" transform="translate(157.661,-213.165)">
			<title>Sheet.50</title>
			<desc>mechanism</desc>
			<path d="M55.1 302.34 L0 302.34 L0 311.81 L55.1 311.81 L55.1 302.34" class="st5"/>
			<text x="4.98" y="309.44" class="st6">mechanism</text>		</g>
		<g id="shape51-127" transform="translate(144.871,-196.378)">
			<title>Sheet.51</title>
			<desc>MCU</desc>
			<path d="M26.99 302.34 L0 302.34 L0 311.81 L26.99 311.81 L26.99 302.34" class="st5"/>
			<text x="4.53" y="309.44" class="st6">MCU </text>		</g>
		<g id="shape52-131" transform="translate(163.848,-196.378)">
			<title>Sheet.52</title>
			<desc>functional</desc>
			<path d="M51.01 302.34 L0 302.34 L0 311.81 L51.01 311.81 L51.01 302.34" class="st5"/>
			<text x="6.1" y="309.44" class="st6">functional </text>		</g>
		<g id="shape53-135" transform="translate(206.999,-196.378)">
			<title>Sheet.53</title>
			<desc>block</desc>
			<path d="M26.93 302.34 L0 302.34 L0 311.81 L26.93 311.81 L26.93 302.34" class="st5"/>
			<text x="3.14" y="309.44" class="st6">block</text>		</g>
		<g id="shape54-139" transform="translate(479.113,-105.814)">
			<title>Sheet.54</title>
			<path d="M0 221.12 C-0 215.75 4.37 211.38 9.76 211.38 L48.74 211.38 C54.13 211.38 58.48 215.75 58.48 221.12 L58.48 302.09
						 C58.48 307.46 54.13 311.81 48.74 311.81 L9.76 311.81 C4.37 311.81 0 307.46 0 302.09 L0 221.12 Z"
					class="st3"/>
		</g>
		<g id="shape55-141" transform="translate(485.798,-113.565)">
			<title>Sheet.55</title>
			<path d="M0 226.21 L0 311.81 L43.62 311.81 L43.62 226.21 L0 226.21 L0 226.21 Z" class="st7"/>
		</g>
		<g id="shape56-143" transform="translate(498.48,-149.73)">
			<title>Sheet.56</title>
			<desc>CPU</desc>
			<path d="M24.59 301.05 L0 301.05 L0 311.81 L24.59 311.81 L24.59 301.05" class="st5"/>
			<text x="3.18" y="309.12" class="st8">CPU</text>		</g>
		<g id="shape57-147" transform="translate(64.0024,-132.438)">
			<title>Sheet.57</title>
			<path d="M0 260.58 L0 311.81 L48.69 311.81 L48.69 260.58 L0 260.58 L0 260.58 Z" class="st9"/>
		</g>
		<g id="shape58-149" transform="translate(64.0024,-132.438)">
			<title>Sheet.58</title>
			<path d="M0 260.58 L48.69 260.58 L48.69 311.81 L0 311.81 L0 260.58" class="st10"/>
		</g>
		<g id="shape59-152" transform="translate(72.0115,-170.804)">
			<title>Sheet.59</title>
			<desc>Package</desc>
			<path d="M40.7 302.34 L0 302.34 L0 311.81 L40.7 311.81 L40.7 302.34" class="st5"/>
			<text x="4.04" y="309.44" class="st6">Package</text>		</g>
		<g id="shape60-156" transform="translate(225.502,-162.99)">
			<title>Sheet.60</title>
			<path d="M0 245.91 L55 245.91 L55 309.4 L54.56 308.97 L68.86 308.97 L68.86 309.84 L54.13 309.84 L54.13 246.35 L54.56
						 246.79 L0 246.79 L0 245.91 ZM65.71 307.06 L69.74 309.4 L65.71 311.75 C65.5 311.88 65.23 311.8 65.12 311.59
						 C64.98 311.39 65.07 311.12 65.27 310.99 L68.64 309.03 L68.64 309.79 L65.27 307.82 C65.07 307.7 64.98 307.43
						 65.12 307.21 C65.23 307.01 65.5 306.94 65.71 307.06 Z" class="st11"/>
		</g>
		<g id="shape61-158" transform="translate(280.63,-211.181)">
			<title>Sheet.61</title>
			<desc>Alarms</desc>
			<path d="M20.63 303.72 L0 303.72 L0 311.81 L20.63 311.81 L20.63 303.72" class="st5"/>
			<text x="0.79" y="309.79" class="st12">Alarms</text>		</g>
		<g id="shape62-162" transform="translate(172.589,-120.813)">
			<title>Sheet.62</title>
			<desc>PORTS</desc>
			<path d="M33.89 302.34 L0 302.34 L0 311.81 L33.89 311.81 L33.89 302.34" class="st5"/>
			<text x="3.6" y="309.44" class="st6">PORTS</text>		</g>
		<g id="shape63-166" transform="translate(138.218,-132.438)">
			<title>Sheet.63</title>
			<path d="M0 273 C0 268.72 3.49 265.24 7.78 265.24 L87.65 265.24 C91.94 265.24 95.42 268.72 95.42 273 L95.42 304.05 C95.42
						 308.34 91.94 311.81 87.65 311.81 L7.78 311.81 C3.49 311.81 0 308.34 0 304.05 L0 273 Z" class="st3"/>
		</g>
		<g id="shape64-168" transform="translate(146.12,-158.051)">
			<title>Sheet.64</title>
			<path d="M0 296.92 L0 311.81 L80.56 311.81 L80.56 296.92 L0 296.92 L0 296.92 Z" class="st4"/>
		</g>
		<g id="shape65-170" transform="translate(173.43,-158.92)">
			<title>Sheet.65</title>
			<desc>ERU Rx</desc>
			<path d="M31.97 301.05 L0 301.05 L0 311.81 L31.97 311.81 L31.97 301.05" class="st5"/>
			<text x="3.1" y="309.12" class="st13">ERU Rx</text>		</g>
		<g id="shape66-174" transform="translate(146.12,-138.504)">
			<title>Sheet.66</title>
			<path d="M0 296.92 L0 311.81 L80.56 311.81 L80.56 296.92 L0 296.92 L0 296.92 Z" class="st4"/>
		</g>
		<g id="shape67-176" transform="translate(173.687,-139.373)">
			<title>Sheet.67</title>
			<desc>EMS Rx</desc>
			<path d="M33.31 301.05 L0 301.05 L0 311.81 L33.31 311.81 L33.31 301.05" class="st5"/>
			<text x="3.19" y="309.12" class="st13">EMS Rx</text>		</g>
		<g id="shape68-180" transform="translate(18.2842,-158.86)">
			<title>Sheet.68</title>
			<path d="M0 305.14 C0 301.46 3 298.47 6.69 298.47 L32.14 298.47 C35.84 298.47 38.83 301.46 38.83 305.14 C38.83 308.82
						 35.84 311.81 32.14 311.81 L6.69 311.81 C3 311.81 0 308.82 0 305.14" class="st14"/>
		</g>
		<g id="shape69-183" transform="translate(19.1439,-162.049)">
			<title>Sheet.69</title>
			<desc>ERU Request</desc>
			<path d="M37.11 304.69 L0 304.69 L0 311.81 L37.11 311.81 L37.11 304.69" class="st5"/>
			<text x="3.09" y="310.03" class="st15">ERU Request</text>		</g>
		<g id="shape70-187" transform="translate(18.2842,-139.246)">
			<title>Sheet.70</title>
			<path d="M0 305.14 C0 301.46 3 298.47 6.69 298.47 L32.14 298.47 C35.84 298.47 38.83 301.46 38.83 305.14 C38.83 308.83
						 35.84 311.81 32.14 311.81 L6.69 311.81 C3 311.81 0 308.83 0 305.14" class="st14"/>
		</g>
		<g id="shape71-190" transform="translate(18.7009,-142.358)">
			<title>Sheet.71</title>
			<desc>EMS Request</desc>
			<path d="M38 304.69 L0 304.69 L0 311.81 L38 311.81 L38 304.69" class="st5"/>
			<text x="3.15" y="310.03" class="st15">EMS Request</text>		</g>
		<g id="shape72-194" transform="translate(279.509,-162.99)">
			<title>Sheet.72</title>
			<path d="M15.48 224.41 L0.44 224.41 L0.88 223.97 L0.88 309.4 L0.44 308.97 L14.86 308.97 L14.86 309.84 L0 309.84 L0 223.53
						 L15.48 223.53 L15.48 224.41 ZM11.7 307.06 L15.72 309.4 L11.7 311.75 C11.5 311.88 11.23 311.8 11.09 311.59
						 C10.97 311.39 11.04 311.12 11.26 311 L14.64 309.03 L14.64 309.79 L11.26 307.82 C11.04 307.7 10.97 307.43
						 11.09 307.23 C11.23 307.01 11.5 306.94 11.7 307.06 Z" class="st11"/>
		</g>
		<g id="shape73-196" transform="translate(336.401,-229.073)">
			<title>Sheet.73</title>
			<desc>NMI Request</desc>
			<path d="M42.79 303.72 L0 303.72 L0 311.81 L42.79 311.81 L42.79 303.72" class="st5"/>
			<text x="3.55" y="309.79" class="st12">NMI Request</text>		</g>
		<g id="shape74-200" transform="translate(226.717,-143.468)">
			<title>Sheet.74</title>
			<path d="M67.65 308.96 L64.14 308.96 L64.14 309.83 L67.65 309.83 L67.65 308.96 ZM61.5 308.96 L57.99 308.96 L57.99 309.83
						 L61.5 309.83 L61.5 308.96 ZM55.36 308.96 L51.85 308.96 L51.85 309.83 L55.36 309.83 L55.36 308.96 ZM49.21
						 308.96 L45.7 308.96 L45.7 309.83 L49.21 309.83 L49.21 308.96 ZM43.07 308.96 L39.56 308.96 L39.56 309.83
						 L43.07 309.83 L43.07 308.96 ZM36.92 308.96 L33.83 308.96 L33.83 309.41 L34.27 308.97 L33.43 308.97 L33.43
						 309.85 L34.71 309.85 L34.71 309.39 L34.27 309.83 L36.92 309.83 L36.92 308.96 ZM30.79 308.97 L27.28 308.97
						 L27.28 309.85 L30.79 309.85 L30.79 308.97 ZM24.65 308.97 L21.14 308.97 L21.14 309.85 L24.65 309.85 L24.65
						 308.97 ZM18.5 308.97 L14.99 308.97 L14.99 309.85 L18.5 309.85 L18.5 308.97 ZM12.36 308.97 L8.85 308.97 L8.85
						 309.85 L12.36 309.85 L12.36 308.97 ZM6.21 308.97 L2.7 308.97 L2.7 309.85 L6.21 309.85 L6.21 308.97 ZM0.07
						 308.97 L0 308.97 L0 309.85 L0.07 309.85 L0.07 308.97 ZM64.49 311.75 L68.53 309.39 L64.49 307.05 C64.29 306.93
						 64.02 307 63.9 307.22 C63.77 307.42 63.85 307.69 64.05 307.81 L67.43 309.78 L67.43 309.02 L64.05 311 L64.05
						 311 C63.85 311.11 63.77 311.38 63.9 311.59 C64.02 311.8 64.29 311.87 64.49 311.75 Z" class="st16"/>
		</g>
		<g id="shape75-202" transform="translate(138.759,-35.9849)">
			<title>Sheet.75</title>
			<path d="M0 278.67 C0 275.02 2.98 272.04 6.64 272.04 L87.71 272.04 C91.37 272.04 94.34 275.02 94.34 278.67 L94.34 305.19
						 C94.34 308.85 91.37 311.81 87.71 311.81 L6.64 311.81 C2.98 311.81 0 308.85 0 305.19 L0 278.67 Z"
					class="st3"/>
		</g>
		<g id="shape76-204" transform="translate(145.444,-42.7252)">
			<title>Sheet.76</title>
			<path d="M0 284.18 L0 311.81 L80.56 311.81 L80.56 284.18 L0 284.18 L0 284.18 Z" class="st4"/>
		</g>
		<g id="shape77-206" transform="translate(176.347,-50.3842)">
			<title>Sheet.77</title>
			<desc>SMM</desc>
			<path d="M24.68 302.34 L0 302.34 L0 311.81 L24.68 311.81 L24.68 302.34" class="st5"/>
			<text x="3" y="309.44" class="st6">SMM</text>		</g>
		<g id="shape78-210" transform="translate(176.597,-22.9361)">
			<title>Sheet.78</title>
			<desc>SMM</desc>
			<path d="M24.68 302.34 L0 302.34 L0 311.81 L24.68 311.81 L24.68 302.34" class="st5"/>
			<text x="3" y="309.44" class="st6">SMM</text>		</g>
		<g id="shape79-214" transform="translate(247.324,-145.892)">
			<title>Sheet.79</title>
			<desc>EMS input</desc>
			<path d="M34.08 303.72 L0 303.72 L0 311.81 L34.08 311.81 L34.08 303.72" class="st5"/>
			<text x="2.99" y="309.79" class="st12">EMS input</text>		</g>
		<g id="shape80-218" transform="translate(226.717,-164.977)">
			<title>Sheet.80</title>
			<path d="M0 311.81 L3.51 311.81 L3.51 310.93 L0 310.93 L0 311.81 ZM6.15 311.81 L9.66 311.81 L9.66 310.93 L6.15 310.93
						 L6.15 311.81 ZM12.29 311.81 L15.8 311.81 L15.8 310.93 L12.29 310.93 L12.29 311.81 ZM18.44 311.81 L20.24
						 311.81 L20.24 309.22 L19.36 309.22 L19.36 311.37 L19.8 310.93 L18.44 310.93 L18.44 311.81 ZM20.24 306.59
						 L20.24 303.08 L19.36 303.08 L19.36 306.59 L20.24 306.59 ZM20.24 300.45 L20.24 296.95 L19.36 296.95 L19.36
						 300.45 L20.24 300.45 ZM20.24 294.32 L20.24 290.82 L19.36 290.82 L19.36 294.32 L20.24 294.32 ZM20.24 288.19
						 L20.24 284.68 L19.36 284.68 L19.36 288.19 L20.24 288.19 ZM20.24 282.05 L20.24 278.55 L19.36 278.55 L19.36
						 282.05 L20.24 282.05 ZM20.24 275.92 L20.24 272.41 L19.36 272.41 L19.36 275.92 L20.24 275.92 ZM20.24 269.79
						 L20.24 266.28 L19.36 266.28 L19.36 269.79 L20.24 269.79 ZM20.24 263.65 L20.24 260.15 L19.36 260.15 L19.36
						 263.65 L20.24 263.65 ZM20.24 257.52 L20.24 254.01 L19.36 254.01 L19.36 257.52 L20.24 257.52 ZM20.24 251.38
						 L20.24 247.88 L19.36 247.88 L19.36 251.38 L20.24 251.38 ZM20.24 245.25 L20.24 241.75 L19.36 241.75 L19.36
						 245.25 L20.24 245.25 ZM20.24 239.12 L20.24 235.61 L19.36 235.61 L19.36 239.12 L20.24 239.12 ZM20.24 232.98
						 L20.24 229.48 L19.36 229.48 L19.36 232.98 L20.24 232.98 ZM20.24 226.85 L20.24 223.35 L19.36 223.35 L19.36
						 226.85 L20.24 226.85 ZM20.24 220.72 L20.24 217.21 L19.36 217.21 L19.36 220.72 L20.24 220.72 ZM20.24 214.58
						 L20.24 211.08 L19.36 211.08 L19.36 214.58 L20.24 214.58 ZM20.24 208.45 L20.24 205.74 L19.8 206.17 L20.6
						 206.17 L20.6 205.3 L19.36 205.3 L19.36 208.45 L20.24 208.45 ZM23.23 206.17 L26.74 206.17 L26.74 205.3 L23.23
						 205.3 L23.23 206.17 ZM29.38 206.17 L32.89 206.17 L32.89 205.3 L29.38 205.3 L29.38 206.17 ZM35.52 206.17
						 L39.03 206.17 L39.03 205.3 L35.52 205.3 L35.52 206.17 ZM41.67 206.17 L45.18 206.17 L45.18 205.3 L41.67 205.3
						 L41.67 206.17 ZM47.81 206.17 L51.32 206.17 L51.32 205.3 L47.81 205.3 L47.81 206.17 ZM53.96 206.17 L57.47
						 206.17 L57.47 205.3 L53.96 205.3 L53.96 206.17 ZM60.1 206.17 L63.61 206.17 L63.61 205.3 L60.1 205.3 L60.1
						 206.17 ZM66.25 206.17 L67.41 206.17 L67.41 205.3 L66.25 205.3 L66.25 206.17 ZM64.26 208.1 L68.29 205.74
						 L64.26 203.39 C64.05 203.28 63.78 203.34 63.66 203.56 C63.53 203.76 63.61 204.03 63.82 204.15 L67.19 206.12
						 L67.19 205.37 L63.82 207.34 C63.61 207.45 63.53 207.72 63.66 207.93 C63.78 208.15 64.05 208.21 64.26 208.1
						 Z" class="st16"/>
		</g>
		<g id="shape81-220" transform="translate(253.741,-272.076)">
			<title>Sheet.81</title>
			<desc>ERU input</desc>
			<path d="M33.07 303.72 L0 303.72 L0 311.81 L33.07 311.81 L33.07 303.72" class="st5"/>
			<text x="2.92" y="309.79" class="st12">ERU input</text>		</g>
		<g id="shape82-224" transform="translate(437.717,-35.9849)">
			<title>Sheet.82</title>
			<path d="M0 278.68 C-0 275.03 2.99 272.04 6.65 272.04 L87.64 272.04 C91.3 272.04 94.27 275.03 94.27 278.68 L94.27 305.19
						 C94.27 308.85 91.3 311.81 87.64 311.81 L6.65 311.81 C2.99 311.81 0 308.85 0 305.19 L0 278.68 Z"
					class="st3"/>
		</g>
		<g id="shape83-226" transform="translate(444.335,-42.7252)">
			<title>Sheet.83</title>
			<path d="M0 284.18 L0 311.81 L80.63 311.81 L80.63 284.18 L0 284.18 L0 284.18 Z" class="st4"/>
		</g>
		<g id="shape84-228" transform="translate(480.255,-50.3842)">
			<title>Sheet.84</title>
			<desc>IR</desc>
			<path d="M13.32 302.34 L0 302.34 L0 311.81 L13.32 311.81 L13.32 302.34" class="st5"/>
			<text x="2.26" y="309.44" class="st6">IR</text>		</g>
		<g id="shape85-232" transform="translate(480.505,-22.9361)">
			<title>Sheet.85</title>
			<desc>IR</desc>
			<path d="M13.32 302.34 L0 302.34 L0 311.81 L13.32 311.81 L13.32 302.34" class="st5"/>
			<text x="2.26" y="309.44" class="st6">IR</text>		</g>
		<g id="shape86-236" transform="translate(288.204,-36.5241)">
			<title>Sheet.86</title>
			<path d="M0 278.68 C0 275.03 2.99 272.04 6.65 272.04 L87.71 272.04 C91.37 272.04 94.34 275.03 94.34 278.68 L94.34 305.19
						 C94.34 308.85 91.37 311.81 87.71 311.81 L6.65 311.81 C2.99 311.81 0 308.85 0 305.19 L0 278.68 Z"
					class="st3"/>
		</g>
		<g id="shape87-238" transform="translate(294.889,-43.2644)">
			<title>Sheet.87</title>
			<path d="M0 284.18 L0 311.81 L80.63 311.81 L80.63 284.18 L0 284.18 L0 284.18 Z" class="st4"/>
		</g>
		<g id="shape88-240" transform="translate(324.723,-50.8879)">
			<title>Sheet.88</title>
			<desc>PPUC</desc>
			<path d="M27.1 302.34 L0 302.34 L0 311.81 L27.1 311.81 L27.1 302.34" class="st5"/>
			<text x="3.16" y="309.44" class="st6">PPUC</text>		</g>
		<g id="shape89-244" transform="translate(324.971,-23.4398)">
			<title>Sheet.89</title>
			<desc>PPUC</desc>
			<path d="M27.1 302.34 L0 302.34 L0 311.81 L27.1 311.81 L27.1 302.34" class="st5"/>
			<text x="3.16" y="309.44" class="st6">PPUC</text>		</g>
		<g id="shape90-248" transform="translate(183.39,-70.2929)">
			<title>Sheet.90</title>
			<path d="M119.87 265.27 L119.87 288.98 L2.4 288.98 L2.84 288.54 L2.84 310.93 L1.97 310.93 L1.97 288.1 L119.43 288.1 L119
						 288.54 L119 265.27 L119.87 265.27 ZM4.77 307.8 L2.4 311.81 L0.06 307.8 C-0.06 307.58 0.01 307.31 0.23 307.19
						 C0.43 307.08 0.7 307.14 0.82 307.35 L2.79 310.72 L2.03 310.72 L4.01 307.35 C4.13 307.14 4.4 307.08 4.6 307.19
						 C4.82 307.31 4.89 307.58 4.77 307.8 Z" class="st17"/>
		</g>
		<g id="shape91-250" transform="translate(367.08,-70.2086)">
			<title>Sheet.91</title>
			<path d="M0 264.92 L0 288.81 L101.25 288.81 L100.81 288.37 L100.81 310.93 L101.68 310.93 L101.68 287.93 L0.44 287.93
						 L0.88 288.37 L0.88 264.92 L0 264.92 ZM98.9 307.8 L101.25 311.81 L103.59 307.8 C103.71 307.58 103.64 307.31
						 103.42 307.19 C103.22 307.08 102.95 307.14 102.83 307.35 L100.86 310.72 L101.62 310.72 L99.64 307.35 C99.52
						 307.14 99.25 307.08 99.05 307.19 C98.85 307.31 98.76 307.58 98.9 307.8 Z" class="st17"/>
		</g>
		<g id="shape92-252" transform="translate(332.8,-70.7984)">
			<title>Sheet.92</title>
			<path d="M2.74 265.77 L2.86 310.95 L1.98 310.95 L1.86 265.79 L2.74 265.77 ZM4.75 307.78 L2.42 311.81 L0.06 307.8 C-0.06
						 307.6 0.01 307.33 0.21 307.19 C0.43 307.08 0.7 307.14 0.82 307.36 L2.79 310.72 L2.03 310.73 L3.99 307.35
						 C4.13 307.14 4.4 307.08 4.6 307.19 C4.8 307.31 4.89 307.58 4.75 307.78 Z" class="st17"/>
		</g>
		<g id="shape93-254" transform="translate(375.217,-199.268)">
			<title>Sheet.93</title>
			<path d="M0 249.9 L146.49 249.9 L146.49 310.93 L145.61 310.93 L145.61 250.34 L146.05 250.78 L0 250.78 L0 249.9 ZM148.4
						 307.78 L146.05 311.81 L143.71 307.78 C143.57 307.58 143.65 307.31 143.86 307.19 C144.06 307.06 144.33 307.14
						 144.46 307.35 L146.42 310.72 L145.66 310.72 L147.64 307.35 C147.76 307.14 148.03 307.06 148.25 307.19 C148.45
						 307.31 148.52 307.58 148.4 307.78 Z" class="st18"/>
		</g>
		<g id="shape94-256" transform="translate(418.416,-261.721)">
			<title>Sheet.94</title>
			<desc>Non Maskable Interrupt</desc>
			<path d="M77.37 303.72 L0 303.72 L0 311.81 L77.37 311.81 L77.37 303.72" class="st5"/>
			<text x="5.81" y="309.79" class="st12">Non Maskable Interrupt</text>		</g>
		<g id="shape95-260" transform="translate(332.648,-195.611)">
			<title>Sheet.95</title>
			<path d="M2.22 311.81 L2.89 261.31 L2.02 261.31 L1.34 311.81 L2.22 311.81 ZM4.75 264.49 L2.46 260.43 L0.06 264.43 C-0.06
						 264.63 0.01 264.9 0.21 265.03 C0.41 265.15 0.68 265.08 0.82 264.88 L2.83 261.53 L2.07 261.53 L3.99 264.92
						 C4.11 265.13 4.38 265.2 4.6 265.08 C4.8 264.97 4.87 264.7 4.75 264.49 Z" class="st17"/>
		</g>
		<g id="shape96-262" transform="translate(213.933,-95.1628)">
			<title>Sheet.96</title>
			<desc>System Reset Request</desc>
			<path d="M71.25 303.72 L0 303.72 L0 311.81 L71.25 311.81 L71.25 303.72" class="st5"/>
			<text x="5.41" y="309.79" class="st12">System Reset Request</text>		</g>
		<g id="shape97-266" transform="translate(511.001,-85.9016)">
			<title>Sheet.97</title>
			<desc>ISR CPU</desc>
			<path d="M26.34 303.72 L0 303.72 L0 311.81 L26.34 311.81 L26.34 303.72" class="st5"/>
			<text x="2.48" y="309.79" class="st12">ISR CPU</text>		</g>
		<g id="shape98-270" transform="translate(505.273,-70.2255)">
			<title>Sheet.98</title>
			<path d="M2.22 311.81 L1.95 269.38 L2.83 269.38 L3.1 311.81 L2.22 311.81 ZM0.06 272.55 L2.37 268.5 L4.75 272.52 C4.87
						 272.72 4.8 272.99 4.6 273.12 C4.4 273.24 4.13 273.17 3.99 272.95 L2 269.6 L2.76 269.6 L0.82 272.99 C0.7
						 273.19 0.43 273.26 0.21 273.14 C0.01 273.02 -0.06 272.75 0.06 272.55 Z" class="st18"/>
		</g>
		<g id="shape99-272" transform="translate(393.873,-95.0181)">
			<title>Sheet.99</title>
			<desc>Interrupt Request</desc>
			<path d="M57.83 303.72 L0 303.72 L0 311.81 L57.83 311.81 L57.83 303.72" class="st5"/>
			<text x="4.54" y="309.79" class="st12">Interrupt Request</text>		</g>
		<g id="shape100-276" transform="translate(336.696,-78.1182)">
			<title>Sheet.100</title>
			<desc>PPUC Reset</desc>
			<path d="M38.17 303.72 L0 303.72 L0 311.81 L38.17 311.81 L38.17 303.72" class="st5"/>
			<text x="3.25" y="309.79" class="st12">PPUC Reset</text>		</g>
		<g id="shape101-280" transform="translate(366.404,-195.763)">
			<title>Sheet.101</title>
			<path d="M0 311.81 L0 297.24 L127.53 297.24 L127.53 307.65 L126.65 307.65 L126.65 297.67 L127.09 298.11 L0.44 298.11
						 L0.88 297.67 L0.88 311.81 L0 311.81 ZM129.44 304.5 L127.09 308.53 L124.75 304.5 C124.63 304.3 124.7 304.03
						 124.9 303.91 C125.12 303.77 125.37 303.84 125.51 304.06 L127.46 307.43 L126.7 307.43 L128.68 304.06 C128.8
						 303.84 129.07 303.77 129.29 303.91 C129.49 304.03 129.56 304.3 129.44 304.5 Z" class="st17"/>
		</g>
		<g id="shape102-282" transform="translate(416.365,-211.724)">
			<title>Sheet.102</title>
			<desc>CPU Reset</desc>
			<path d="M34.17 303.72 L0 303.72 L0 311.81 L34.17 311.81 L34.17 303.72" class="st5"/>
			<text x="2.99" y="309.79" class="st12">CPU Reset</text>		</g>
		<g id="shape103-286" transform="translate(57.148,-162.861)">
			<title>Sheet.103</title>
			<path d="M0 308.74 L54.55 308.98 L54.55 309.86 L0 309.61 L0 308.74 ZM51.4 307.06 L55.42 309.43 L51.38 311.75 C51.17 311.87
						 50.91 311.8 50.78 311.59 C50.66 311.38 50.73 311.12 50.94 310.99 L54.33 309.04 L54.32 309.8 L50.96 307.82
						 L50.96 307.82 C50.75 307.69 50.68 307.43 50.8 307.22 C50.93 307.01 51.2 306.94 51.4 307.06 Z" class="st19"/>
		</g>
		<g id="shape104-288" transform="translate(57.148,-143.367)">
			<title>Sheet.104</title>
			<path d="M0.01 308.85 L54.56 308.98 L54.55 309.86 L0 309.73 L0.01 308.85 ZM51.4 307.07 L55.43 309.42 L51.39 311.75 C51.18
						 311.87 50.91 311.8 50.79 311.59 C50.66 311.38 50.74 311.12 50.95 311 L54.33 309.04 L54.33 309.79 L50.96
						 307.82 C50.75 307.7 50.67 307.43 50.8 307.22 C50.93 307.01 51.19 306.94 51.4 307.07 Z" class="st20"/>
		</g>
		<g id="shape105-290" transform="translate(112.523,-162.999)">
			<title>Sheet.105</title>
			<path d="M0 310.03 L3.52 310.01 L3.51 309.13 L0 309.15 L0 310.03 ZM6.15 309.99 L9.66 309.97 L9.66 309.09 L6.15 309.11
						 L6.15 309.99 ZM12.29 309.95 L15.81 309.93 L15.8 309.05 L12.29 309.08 L12.29 309.95 ZM18.44 309.91 L21.95
						 309.89 L21.95 309.02 L18.44 309.04 L18.44 309.91 ZM24.59 309.88 L28.1 309.85 L28.09 308.98 L24.58 309 L24.59
						 309.88 ZM30.73 309.84 L32.71 309.83 L32.7 308.95 L30.73 308.96 L30.73 309.84 ZM29.56 311.75 L33.57 309.38
						 L29.53 307.06 C29.32 306.94 29.06 307.01 28.93 307.22 C28.81 307.43 28.89 307.7 29.09 307.82 L32.48 309.77
						 L32.48 309.01 L29.11 311 L29.11 311 C28.91 311.12 28.84 311.39 28.96 311.59 C29.08 311.81 29.35 311.87 29.56
						 311.75 Z" class="st19"/>
		</g>
		<g id="shape106-292" transform="translate(112.523,-143.46)">
			<title>Sheet.106</title>
			<path d="M0.01 309.97 L3.52 309.95 L3.51 309.07 L0 309.09 L0.01 309.97 ZM6.15 309.94 L9.67 309.92 L9.66 309.05 L6.15
						 309.07 L6.15 309.94 ZM12.3 309.92 L15.81 309.9 L15.8 309.02 L12.29 309.04 L12.3 309.92 ZM18.44 309.89 L21.96
						 309.87 L21.95 309 L18.44 309.02 L18.44 309.89 ZM24.59 309.87 L28.1 309.85 L28.09 308.97 L24.58 308.99 L24.59
						 309.87 ZM30.73 309.84 L32.7 309.83 L32.7 308.96 L30.73 308.96 L30.73 309.84 ZM29.56 311.75 L33.57 309.39
						 L29.54 307.06 C29.33 306.94 29.06 307.01 28.94 307.22 C28.82 307.43 28.89 307.7 29.1 307.82 L32.48 309.77
						 L32.48 309.02 L29.11 311 C28.9 311.12 28.84 311.38 28.95 311.59 C29.08 311.8 29.35 311.87 29.56 311.75 Z"
					class="st20"/>
		</g>
	</g>
</svg>
