<?xml version="1.0" encoding="UTF-8" standalone="no"?>
<!DOCTYPE svg PUBLIC "-//W3C//DTD SVG 1.1//EN" "http://www.w3.org/Graphics/SVG/1.1/DTD/svg11.dtd">
<!-- Generated by Microsoft Visio, SVG Export ModuleRedundancy.svg Page-1 -->
<svg xmlns="http://www.w3.org/2000/svg" xmlns:xlink="http://www.w3.org/1999/xlink" xmlns:ev="http://www.w3.org/2001/xml-events"
		xmlns:v="http://schemas.microsoft.com/visio/2003/SVGExtensions/" width="8.62871in" height="10.2092in"
		viewBox="0 0 621.267 735.062" xml:space="preserve" color-interpolation-filters="sRGB" class="st11">
	<v:documentProperties v:langID="1031">
		<v:userDefs>
			<v:ud v:nameU="msvNoAutoConnect" v:val="VT0(1):26"/>
		</v:userDefs>
	</v:documentProperties>

	<style type="text/css">
	<![CDATA[
		.st1 {fill:none;stroke:#000000;stroke-linecap:round;stroke-linejoin:round;stroke-width:0.749997}
		.st2 {fill:#000000;font-family:Calibri;font-size:1.00001em}
		.st3 {marker-end:url(#mrkr5-9);stroke:#000000;stroke-linecap:round;stroke-linejoin:round;stroke-width:0.749997}
		.st4 {fill:#000000;fill-opacity:1;stroke:#000000;stroke-opacity:1;stroke-width:0.22935712529367}
		.st5 {fill:#ffffff;stroke:#000000;stroke-linecap:round;stroke-linejoin:round;stroke-width:0.749997}
		.st6 {fill:none;stroke:none;stroke-linecap:round;stroke-linejoin:round;stroke-width:0.749997}
		.st7 {font-size:1em}
		.st8 {fill:none;stroke:none;stroke-width:1}
		.st9 {fill:none}
		.st10 {stroke:#000000;stroke-linecap:round;stroke-linejoin:round;stroke-width:0.749997}
		.st11 {fill:none;fill-rule:evenodd;font-size:12px;overflow:visible;stroke-linecap:square;stroke-miterlimit:3}
	]]>
	</style>

	<defs id="Markers">
		<g id="lend5">
			<path d="M 2 1 L 0 0 L 1.98117 -0.993387 C 1.67173 -0.364515 1.67301 0.372641 1.98465 1.00043 " style="stroke:none"/>
		</g>
		<marker id="mrkr5-9" class="st4" v:arrowType="5" v:arrowSize="2" v:setback="0" refX="-0" orient="auto"
				markerUnits="strokeWidth" overflow="visible">
			<use xlink:href="#lend5" transform="scale(-4.360012791055,-4.360012791055) "/>
		</marker>
	</defs>
	<g v:mID="0" v:index="1" v:groupContext="foregroundPage">
		<title>Page-1</title>
		<v:pageProperties v:drawingScale="0.0393701" v:pageScale="0.0393701" v:drawingUnits="24" v:shadowOffsetX="8.50391"
				v:shadowOffsetY="-8.50391"/>
		<g id="shape1-1" v:mID="1" v:groupContext="shape" transform="translate(18.3761,-560.782)">
			<title>Sheet.1</title>
			<desc>Independent Channel 0</desc>
			<v:userDefs/>
			<v:textBlock v:margins="rect(3.99999,3.99999,3.99999,3.99999)" v:tabSpace="42.5195"/>
			<v:textRect cx="281.362" cy="657.11" width="562.76" height="155.905"/>
			<rect x="0" y="579.157" width="562.726" height="155.905" class="st1"/>
			<text x="224.32" y="725.51" class="st2" v:langID="1031"><v:paragraph v:horizAlign="1"/><v:tabList/><v:newlineChar/><v:newlineChar/><v:newlineChar/><v:newlineChar/><v:newlineChar/><v:newlineChar/><v:newlineChar/><v:newlineChar/><v:newlineChar/>Independent Channel 0</text>		</g>
		<g id="shape2-4" v:mID="2" v:groupContext="shape" transform="translate(212.598,-624.571)">
			<title>Sheet.2</title>
			<path d="M0 735.06 L46.45 735.06 L50.21 735.06 L55.93 735.06" class="st3"/>
		</g>
		<g id="shape3-10" v:mID="3" v:groupContext="shape" transform="translate(269.291,-595.276)">
			<title>Sheet.3</title>
			<desc>Digital Result 0</desc>
			<v:userDefs/>
			<v:textBlock v:margins="rect(3.99999,3.99999,3.99999,3.99999)" v:tabSpace="42.5195"/>
			<v:textRect cx="56.6918" cy="706.601" width="113.41" height="56.9241"/>
			<rect x="0" y="678.138" width="113.386" height="56.9241" class="st5"/>
			<text x="20.28" y="710.2" class="st2" v:langID="1031"><v:paragraph v:horizAlign="1"/><v:tabList/>Digital Result 0</text>		</g>
		<g id="shape4-13" v:mID="4" v:groupContext="shape" transform="translate(426.615,-595.276)">
			<title>Sheet.4</title>
			<desc>COMP 0</desc>
			<v:userDefs/>
			<v:textBlock v:margins="rect(3.99999,3.99999,3.99999,3.99999)" v:tabSpace="42.5195"/>
			<v:textRect cx="44.6443" cy="706.716" width="89.32" height="56.6929"/>
			<rect x="0" y="678.369" width="89.291" height="56.6929" class="st5"/>
			<text x="24.85" y="710.32" class="st2" v:langID="1031"><v:paragraph v:horizAlign="1"/><v:tabList/>COMP 0</text>		</g>
		<g id="shape5-16" v:mID="5" v:groupContext="shape" transform="translate(382.677,-624.571)">
			<title>Sheet.5</title>
			<path d="M0 735.06 L39.75 735.06 L42.52 735.06" class="st3"/>
		</g>
		<g id="shape6-21" v:mID="6" v:groupContext="shape" transform="translate(515.906,-623.626)">
			<title>Sheet.6</title>
			<path d="M0 735.06 L18.95 735.06 L24.67 735.06" class="st3"/>
		</g>
		<g id="shape7-26" v:mID="7" v:groupContext="shape" transform="translate(524.409,-623.622)">
			<title>Sheet.7</title>
			<desc>BFL0</desc>
			<v:userDefs/>
			<v:textBlock v:margins="rect(3.99999,3.99999,3.99999,3.99999)" v:tabSpace="42.5195"/>
			<v:textRect cx="21.2586" cy="725.062" width="42.54" height="19.9999"/>
			<rect x="0" y="715.062" width="42.5195" height="19.9999" class="st6"/>
			<text x="9.67" y="728.66" class="st2" v:langID="1031"><v:paragraph v:horizAlign="1"/><v:tabList/>BFL0</text>		</g>
		<g id="shape8-29" v:mID="8" v:groupContext="shape" transform="translate(1211.28,57.5217) rotate(90)">
			<title>Sheet.8</title>
			<path d="M0 735.06 L19.85 735.06 L25.57 735.06" class="st3"/>
		</g>
		<g id="shape9-34" v:mID="9" v:groupContext="shape" transform="translate(28.3465,-623.626)">
			<title>Sheet.9</title>
			<path d="M0 735.06 L77.78 735.06 L79.32 735.06 L85.04 735.06" class="st3"/>
		</g>
		<g id="shape10-39" v:mID="10" v:groupContext="shape" transform="translate(317.481,-140.265)">
			<title>Sheet.10</title>
			<desc>Global Alarm Generator</desc>
			<v:userDefs/>
			<v:textBlock v:margins="rect(3.99999,3.99999,3.99999,3.99999)" v:tabSpace="42.5195"/>
			<v:textRect cx="131.809" cy="632.281" width="263.65" height="205.562"/>
			<rect x="0" y="529.5" width="263.621" height="205.562" class="st1"/>
			<text x="73.62" y="549.48" class="st2" v:langID="1031"><v:paragraph v:horizAlign="1"/><v:tabList/><v:newlineChar/><v:newlineChar/><v:newlineChar/>Global Alarm Generator<v:newlineChar/><v:newlineChar/><v:newlineChar/><v:newlineChar/><v:newlineChar/><v:newlineChar/><v:newlineChar/><v:newlineChar/><v:newlineChar/><v:newlineChar/><v:newlineChar/><v:newlineChar/><v:newlineChar/><v:newlineChar/><v:newlineChar/></text>		</g>
		<g id="shape11-42" v:mID="11" v:groupContext="shape" transform="translate(383.386,-226.721)">
			<title>Sheet.11</title>
			<desc>AND</desc>
			<v:userDefs/>
			<v:textBlock v:margins="rect(3.99999,3.99999,3.99999,3.99999)" v:tabSpace="42.5195"/>
			<v:textRect cx="29.0538" cy="705.299" width="58.14" height="59.5274"/>
			<rect x="0" y="675.535" width="58.11" height="59.5274" class="st5"/>
			<text x="18.02" y="694.5" class="st2" v:langID="1031"><v:paragraph v:horizAlign="1"/><v:tabList/>AND<v:newlineChar/><tspan
						x="10.47" dy="1.2em" class="st7">(not for<v:newlineChar/></tspan><tspan x="12.47" dy="1.2em" class="st7">safety)</tspan></text>		</g>
		<g id="shape12-47" v:mID="12" v:groupContext="shape" transform="translate(1139.71,414.799) rotate(90)">
			<title>Sheet.12</title>
			<path d="M0 735.06 L28.29 735.06 L34.01 735.06" class="st3"/>
		</g>
		<g id="shape13-52" v:mID="13" v:groupContext="shape" transform="translate(1168.06,414.799) rotate(90)">
			<title>Sheet.13</title>
			<path d="M0 735.06 L28.29 735.06 L34.01 735.06" class="st3"/>
		</g>
		<g id="shape14-57" v:mID="14" v:groupContext="shape" transform="translate(362.126,-291.917)">
			<title>Sheet.14</title>
			<desc>BFL0</desc>
			<v:userDefs/>
			<v:textBlock v:margins="rect(3.99999,3.99999,3.99999,3.99999)" v:tabSpace="42.5195"/>
			<v:textRect cx="21.2586" cy="725.142" width="42.54" height="19.8424"/>
			<rect x="0" y="715.22" width="42.5195" height="19.8424" class="st6"/>
			<text x="9.67" y="728.74" class="st2" v:langID="1031"><v:paragraph v:horizAlign="1"/><v:tabList/>BFL0</text>		</g>
		<g id="shape15-60" v:mID="15" v:groupContext="shape" transform="translate(398.268,-291.917)">
			<title>Sheet.15</title>
			<desc>BFL1</desc>
			<v:userDefs/>
			<v:textBlock v:margins="rect(3.99999,3.99999,3.99999,3.99999)" v:tabSpace="42.5195"/>
			<v:textRect cx="21.2586" cy="725.142" width="42.54" height="19.8424"/>
			<rect x="0" y="715.22" width="42.5195" height="19.8424" class="st6"/>
			<text x="9.67" y="728.74" class="st2" v:langID="1031"><v:paragraph v:horizAlign="1"/><v:tabList/>BFL1</text>		</g>
		<g id="shape16-63" v:mID="16" v:groupContext="shape" transform="translate(464.174,-226.721)">
			<title>Sheet.16</title>
			<desc>OR</desc>
			<v:userDefs/>
			<v:textBlock v:margins="rect(3.99999,3.99999,3.99999,3.99999)" v:tabSpace="42.5195"/>
			<v:textRect cx="29.0538" cy="705.299" width="58.14" height="59.5274"/>
			<rect x="0" y="675.535" width="58.11" height="59.5274" class="st5"/>
			<text x="21.82" y="708.9" class="st2" v:langID="1031"><v:paragraph v:horizAlign="1"/><v:tabList/>OR</text>		</g>
		<g id="shape17-66" v:mID="17" v:groupContext="shape" transform="translate(1220.5,414.799) rotate(90)">
			<title>Sheet.17</title>
			<path d="M0 735.06 L28.29 735.06 L34.01 735.06" class="st3"/>
		</g>
		<g id="shape18-71" v:mID="18" v:groupContext="shape" transform="translate(1248.84,414.799) rotate(90)">
			<title>Sheet.18</title>
			<path d="M0 735.06 L28.29 735.06 L34.01 735.06" class="st3"/>
		</g>
		<g id="shape19-76" v:mID="19" v:groupContext="shape" transform="translate(449.292,-291.917)">
			<title>Sheet.19</title>
			<desc>BFL0</desc>
			<v:userDefs/>
			<v:textBlock v:margins="rect(3.99999,3.99999,3.99999,3.99999)" v:tabSpace="42.5195"/>
			<v:textRect cx="18.0697" cy="725.142" width="36.17" height="19.8424"/>
			<rect x="0" y="715.22" width="36.1416" height="19.8424" class="st6"/>
			<text x="6.49" y="728.74" class="st2" v:langID="1031"><v:paragraph v:horizAlign="1"/><v:tabList/>BFL0</text>		</g>
		<g id="shape20-79" v:mID="20" v:groupContext="shape" transform="translate(483.544,-291.917)">
			<title>Sheet.20</title>
			<desc>BFL1</desc>
			<v:userDefs/>
			<v:textBlock v:margins="rect(3.99999,3.99999,3.99999,3.99999)" v:tabSpace="42.5195"/>
			<v:textRect cx="18.0697" cy="725.142" width="36.17" height="19.8424"/>
			<rect x="0" y="715.22" width="36.1416" height="19.8424" class="st6"/>
			<text x="6.49" y="728.74" class="st2" v:langID="1031"><v:paragraph v:horizAlign="1"/><v:tabList/>BFL1</text>		</g>
		<g id="shape21-82" v:mID="21" v:groupContext="shape" transform="translate(1146.15,508.341) rotate(90)">
			<title>Sheet.21</title>
			<path d="M0 735.06 L28.29 735.06 L34.01 735.06" class="st3"/>
		</g>
		<g id="shape22-87" v:mID="22" v:groupContext="shape" transform="translate(1229.26,508.341) rotate(90)">
			<title>Sheet.22</title>
			<path d="M0 735.06 L28.29 735.06 L34.01 735.06" class="st3"/>
		</g>
		<g id="shape23-92" v:mID="23" v:groupContext="shape" transform="translate(340.158,-151.602)">
			<title>Sheet.23</title>
			<desc>MUX</desc>
			<v:userDefs/>
			<v:textBlock v:margins="rect(3.99999,3.99999,3.99999,3.99999)" v:tabSpace="42.5195"/>
			<v:textRect cx="111.258" cy="714.511" width="222.54" height="41.1023"/>
			<rect x="0" y="693.96" width="222.519" height="41.1023" class="st5"/>
			<text x="99.16" y="718.11" class="st2" v:langID="1031"><v:paragraph v:horizAlign="1"/><v:tabList/>MUX</text>		</g>
		<g id="shape24-95" v:mID="24" v:groupContext="shape" transform="translate(1182.94,583.46) rotate(90)">
			<title>Sheet.24</title>
			<path d="M0 735.06 L52.39 735.06 L58.11 735.06" class="st3"/>
		</g>
		<g id="shape25-100" v:mID="25" v:groupContext="shape" transform="translate(396.85,-103.386)">
			<title>Sheet.25</title>
			<desc>Alarm</desc>
			<v:userDefs/>
			<v:textBlock v:margins="rect(3.99999,3.99999,3.99999,3.99999)" v:tabSpace="42.5195"/>
			<v:textRect cx="75.9986" cy="725.062" width="152.02" height="19.9999"/>
			<rect x="0" y="715.062" width="151.999" height="19.9999" class="st6"/>
			<text x="61.39" y="728.66" class="st2" v:langID="1031"><v:paragraph v:horizAlign="1"/><v:tabList/>Alarm</text>		</g>
		<g id="shape26-103" v:mID="26" v:groupContext="shape" transform="translate(399.685,-18.3734)">
			<title>Sheet.26</title>
			<desc>SMU</desc>
			<v:userDefs/>
			<v:textBlock v:margins="rect(3.99999,3.99999,3.99999,3.99999)" v:tabSpace="42.5195"/>
			<v:textRect cx="49.605" cy="697.501" width="99.24" height="75.1178"/>
			<rect x="0" y="659.945" width="99.2122" height="75.1178" class="st5"/>
			<text x="37.87" y="701.1" class="st2" v:langID="1031"><v:paragraph v:horizAlign="1"/><v:tabList/>SMU</text>		</g>
		<g id="group27-106" transform="translate(-0.00417884,-605.239)" v:mID="27" v:groupContext="group">
			<title>Sheet.27</title>
			<g id="shape28-107" v:mID="28" v:groupContext="shape" transform="translate(0.00724585,2.27374E-13)">
				<title>Sheet.28</title>
				<rect x="0" y="698.731" width="36.3313" height="36.3313" class="st5"/>
			</g>
			<g id="group29-109" transform="translate(519.782,178.957) rotate(45)" v:mID="29" v:groupContext="group">
				<title>Sheet.29</title>
				<g id="shape30-110" v:mID="30" v:groupContext="shape">
					<title>Sheet.30</title>
					<path d="M0 735.06 L51.38 735.06 L0 735.06 Z" class="st8"/>
				</g>
				<g id="group31-112" v:mID="31" v:groupContext="group">
					<title>Sheet.31</title>
					<g id="shape32-113" v:mID="32" v:groupContext="shape">
						<title>Sheet.32</title>
						<path d="M0 735.06 L51.38 735.06 L0 735.06 Z" class="st8"/>
					</g>
					<g id="shape33-115" v:mID="33" v:groupContext="shape">
						<title>Sheet.33</title>
						<path d="M0 735.06 L51.38 735.06 L0 735.06 Z" class="st9"/>
						<path d="M0 735.06 L51.38 735.06" class="st10"/>
					</g>
				</g>
			</g>
			<g id="group34-118" transform="translate(-519.768,215.288) rotate(-45)" v:mID="34" v:groupContext="group">
				<title>Sheet.34</title>
				<g id="shape35-119" v:mID="35" v:groupContext="shape">
					<title>Sheet.35</title>
					<path d="M0 735.06 L51.38 735.06 L0 735.06 Z" class="st8"/>
				</g>
				<g id="group36-121" v:mID="36" v:groupContext="group">
					<title>Sheet.36</title>
					<g id="shape37-122" v:mID="37" v:groupContext="shape">
						<title>Sheet.37</title>
						<path d="M0 735.06 L51.38 735.06 L0 735.06 Z" class="st8"/>
					</g>
					<g id="shape38-124" v:mID="38" v:groupContext="shape">
						<title>Sheet.38</title>
						<path d="M0 735.06 L51.38 735.06 L0 735.06 Z" class="st9"/>
						<path d="M0 735.06 L51.38 735.06" class="st10"/>
					</g>
				</g>
			</g>
		</g>
		<g id="shape39-127" v:mID="39" v:groupContext="shape" transform="translate(113.386,-595.276)">
			<title>Sheet.39</title>
			<desc>ADC 0</desc>
			<v:userDefs/>
			<v:textBlock v:margins="rect(3.99999,3.99999,3.99999,3.99999)" v:tabSpace="42.5195"/>
			<v:textRect cx="56.6916" cy="706.716" width="113.42" height="56.6929"/>
			<rect x="0" y="678.369" width="113.386" height="56.6929" class="st5"/>
			<text x="16.56" y="703.12" class="st2" v:langID="1031"><v:paragraph v:horizAlign="1"/><v:tabList/>ADC from Safety <tspan
						x="36.95" dy="1.2em" class="st7">Group 1</tspan></text>		</g>
		<g id="shape40-131" v:mID="40" v:groupContext="shape" transform="translate(425.197,-670.394)">
			<title>Sheet.40</title>
			<desc>Threshold range</desc>
			<v:userDefs/>
			<v:textBlock v:margins="rect(3.99999,3.99999,3.99999,3.99999)" v:tabSpace="42.5195"/>
			<v:textRect cx="46.7704" cy="718.763" width="93.57" height="32.5983"/>
			<rect x="0" y="702.464" width="93.543" height="32.5983" class="st5"/>
			<text x="7.14" y="722.36" class="st2" v:langID="1031"><v:paragraph v:horizAlign="1"/><v:tabList/>Threshold range</text>		</g>
		<g id="shape41-134" v:mID="41" v:groupContext="shape" transform="translate(18.3761,-377.008)">
			<title>Sheet.41</title>
			<desc>Independent Channel 0</desc>
			<v:userDefs/>
			<v:textBlock v:margins="rect(3.99999,3.99999,3.99999,3.99999)" v:tabSpace="42.5195"/>
			<v:textRect cx="281.362" cy="657.11" width="562.76" height="155.905"/>
			<rect x="0" y="579.157" width="562.726" height="155.905" class="st1"/>
			<text x="224.32" y="725.51" class="st2" v:langID="1031"><v:paragraph v:horizAlign="1"/><v:tabList/><v:newlineChar/><v:newlineChar/><v:newlineChar/><v:newlineChar/><v:newlineChar/><v:newlineChar/><v:newlineChar/><v:newlineChar/><v:newlineChar/>Independent Channel 1</text>		</g>
		<g id="shape42-137" v:mID="42" v:groupContext="shape" transform="translate(212.598,-440.797)">
			<title>Sheet.42</title>
			<path d="M0 735.06 L46.45 735.06 L50.21 735.06 L55.93 735.06" class="st3"/>
		</g>
		<g id="shape43-142" v:mID="43" v:groupContext="shape" transform="translate(269.291,-411.502)">
			<title>Sheet.43</title>
			<desc>Digital Result 0</desc>
			<v:userDefs/>
			<v:textBlock v:margins="rect(3.99999,3.99999,3.99999,3.99999)" v:tabSpace="42.5195"/>
			<v:textRect cx="56.6918" cy="706.601" width="113.41" height="56.9241"/>
			<rect x="0" y="678.138" width="113.386" height="56.9241" class="st5"/>
			<text x="20.28" y="710.2" class="st2" v:langID="1031"><v:paragraph v:horizAlign="1"/><v:tabList/>Digital Result 1</text>		</g>
		<g id="shape44-145" v:mID="44" v:groupContext="shape" transform="translate(426.615,-411.502)">
			<title>Sheet.44</title>
			<desc>COMP 0</desc>
			<v:userDefs/>
			<v:textBlock v:margins="rect(3.99999,3.99999,3.99999,3.99999)" v:tabSpace="42.5195"/>
			<v:textRect cx="44.6443" cy="706.716" width="89.32" height="56.6929"/>
			<rect x="0" y="678.369" width="89.291" height="56.6929" class="st5"/>
			<text x="24.85" y="710.32" class="st2" v:langID="1031"><v:paragraph v:horizAlign="1"/><v:tabList/>COMP 1</text>		</g>
		<g id="shape45-148" v:mID="45" v:groupContext="shape" transform="translate(382.677,-440.797)">
			<title>Sheet.45</title>
			<path d="M0 735.06 L39.75 735.06 L42.52 735.06" class="st3"/>
		</g>
		<g id="shape46-153" v:mID="46" v:groupContext="shape" transform="translate(515.906,-439.852)">
			<title>Sheet.46</title>
			<path d="M0 735.06 L18.95 735.06 L24.67 735.06" class="st3"/>
		</g>
		<g id="shape47-158" v:mID="47" v:groupContext="shape" transform="translate(524.409,-439.848)">
			<title>Sheet.47</title>
			<desc>BFL0</desc>
			<v:userDefs/>
			<v:textBlock v:margins="rect(3.99999,3.99999,3.99999,3.99999)" v:tabSpace="42.5195"/>
			<v:textRect cx="21.2586" cy="725.062" width="42.54" height="19.9999"/>
			<rect x="0" y="715.062" width="42.5195" height="19.9999" class="st6"/>
			<text x="9.67" y="728.66" class="st2" v:langID="1031"><v:paragraph v:horizAlign="1"/><v:tabList/>BFL1</text>		</g>
		<g id="shape48-161" v:mID="48" v:groupContext="shape" transform="translate(1211.28,241.296) rotate(90)">
			<title>Sheet.48</title>
			<path d="M0 735.06 L19.85 735.06 L25.57 735.06" class="st3"/>
		</g>
		<g id="shape49-166" v:mID="49" v:groupContext="shape" transform="translate(28.3465,-439.852)">
			<title>Sheet.49</title>
			<path d="M0 735.06 L77.78 735.06 L79.32 735.06 L85.04 735.06" class="st3"/>
		</g>
		<g id="group50-171" transform="translate(-0.00417884,-421.465)" v:mID="50" v:groupContext="group">
			<title>Sheet.50</title>
			<g id="shape51-172" v:mID="51" v:groupContext="shape" transform="translate(0.00724585,1.13687E-13)">
				<title>Sheet.51</title>
				<rect x="0" y="698.731" width="36.3313" height="36.3313" class="st5"/>
			</g>
			<g id="group52-174" transform="translate(519.782,178.957) rotate(45)" v:mID="52" v:groupContext="group">
				<title>Sheet.52</title>
				<g id="shape53-175" v:mID="53" v:groupContext="shape">
					<title>Sheet.53</title>
					<path d="M0 735.06 L51.38 735.06 L0 735.06 Z" class="st8"/>
				</g>
				<g id="group54-177" v:mID="54" v:groupContext="group">
					<title>Sheet.54</title>
					<g id="shape55-178" v:mID="55" v:groupContext="shape">
						<title>Sheet.55</title>
						<path d="M0 735.06 L51.38 735.06 L0 735.06 Z" class="st8"/>
					</g>
					<g id="shape56-180" v:mID="56" v:groupContext="shape">
						<title>Sheet.56</title>
						<path d="M0 735.06 L51.38 735.06 L0 735.06 Z" class="st9"/>
						<path d="M0 735.06 L51.38 735.06" class="st10"/>
					</g>
				</g>
			</g>
			<g id="group57-183" transform="translate(-519.768,215.288) rotate(-45)" v:mID="57" v:groupContext="group">
				<title>Sheet.57</title>
				<g id="shape58-184" v:mID="58" v:groupContext="shape">
					<title>Sheet.58</title>
					<path d="M0 735.06 L51.38 735.06 L0 735.06 Z" class="st8"/>
				</g>
				<g id="group59-186" v:mID="59" v:groupContext="group">
					<title>Sheet.59</title>
					<g id="shape60-187" v:mID="60" v:groupContext="shape">
						<title>Sheet.60</title>
						<path d="M0 735.06 L51.38 735.06 L0 735.06 Z" class="st8"/>
					</g>
					<g id="shape61-189" v:mID="61" v:groupContext="shape">
						<title>Sheet.61</title>
						<path d="M0 735.06 L51.38 735.06 L0 735.06 Z" class="st9"/>
						<path d="M0 735.06 L51.38 735.06" class="st10"/>
					</g>
				</g>
			</g>
		</g>
		<g id="shape62-192" v:mID="62" v:groupContext="shape" transform="translate(113.386,-411.502)">
			<title>Sheet.62</title>
			<desc>ADC 0</desc>
			<v:userDefs/>
			<v:textBlock v:margins="rect(3.99999,3.99999,3.99999,3.99999)" v:tabSpace="42.5195"/>
			<v:textRect cx="56.6916" cy="706.716" width="113.42" height="56.6929"/>
			<rect x="0" y="678.369" width="113.386" height="56.6929" class="st5"/>
			<text x="16.56" y="703.12" class="st2" v:langID="1031"><v:paragraph v:horizAlign="1"/><v:tabList/>ADC from Safety <tspan
						x="36.95" dy="1.2em" class="st7">Group 2</tspan></text>		</g>
		<g id="shape63-196" v:mID="63" v:groupContext="shape" transform="translate(425.197,-486.62)">
			<title>Sheet.63</title>
			<desc>Threshold range</desc>
			<v:userDefs/>
			<v:textBlock v:margins="rect(3.99999,3.99999,3.99999,3.99999)" v:tabSpace="42.5195"/>
			<v:textRect cx="46.7704" cy="718.763" width="93.57" height="32.5983"/>
			<rect x="0" y="702.464" width="93.543" height="32.5983" class="st5"/>
			<text x="7.14" y="722.36" class="st2" v:langID="1031"><v:paragraph v:horizAlign="1"/><v:tabList/>Threshold range</text>		</g>
	</g>
</svg>
