<?xml version="1.0" encoding="UTF-8" standalone="no"?>
<!DOCTYPE svg PUBLIC "-//W3C//DTD SVG 1.1//EN" "http://www.w3.org/Graphics/SVG/1.1/DTD/svg11.dtd">
<!-- Generated by Microsoft Visio, SVG Export TC4xx_TUC_CCFExtDevice.svg CCF Ext Device -->
<svg xmlns="http://www.w3.org/2000/svg" xmlns:xlink="http://www.w3.org/1999/xlink" xmlns:ev="http://www.w3.org/2001/xml-events"
		width="7.71654in" height="4.33071in" viewBox="0 0 555.591 311.811" xml:space="preserve" color-interpolation-filters="sRGB"
		class="st31">
	<style type="text/css">
	<![CDATA[
		.st1 {fill:#d9d9d9;stroke:none;stroke-linecap:round;stroke-linejoin:round;stroke-width:0.75}
		.st2 {fill:#ffcc99;stroke:none;stroke-linecap:round;stroke-linejoin:round;stroke-width:0.75}
		.st3 {stroke:none;stroke-linecap:round;stroke-linejoin:round;stroke-width:0.75}
		.st4 {fill:#000000;font-family:Verdana;font-size:0.716812em}
		.st5 {fill:#00b050;stroke:#00b050;stroke-linecap:round;stroke-linejoin:round;stroke-width:0.0183972}
		.st6 {fill:#99ccff;stroke:none;stroke-linecap:round;stroke-linejoin:round;stroke-width:0.75}
		.st7 {stroke:#99ccff;stroke-linecap:round;stroke-linejoin:round;stroke-width:0.441532}
		.st8 {fill:#ffff00;stroke:none;stroke-linecap:round;stroke-linejoin:round;stroke-width:0.75}
		.st9 {fill:#00b050;stroke:#00b050;stroke-linecap:round;stroke-linejoin:round;stroke-width:0.00919858}
		.st10 {fill:#00b050;font-family:Verdana;font-size:0.716812em}
		.st11 {fill:#00b050;font-family:Verdana;font-size:0.477882em}
		.st12 {fill:#00b050;font-family:Verdana;font-size:0.508507em}
		.st13 {fill:#00b050;font-family:Verdana;font-size:0.343094em}
		.st14 {fill:#00b050;stroke:#00b050;stroke-linecap:round;stroke-linejoin:round;stroke-width:0.00459929}
		.st15 {fill:#c00000;font-family:Verdana;font-size:0.563644em}
		.st16 {fill:#c00000;font-family:Verdana;font-size:0.373718em}
		.st17 {stroke:#c00000;stroke-linecap:round;stroke-linejoin:round;stroke-width:0.441532}
		.st18 {fill:#c00000;stroke:#c00000;stroke-linecap:round;stroke-linejoin:round;stroke-width:0.00459929}
		.st19 {fill:#c00000;stroke:#c00000;stroke-linecap:round;stroke-linejoin:round;stroke-width:0.00919858}
		.st20 {fill:#c00000;stroke:#c00000;stroke-linecap:round;stroke-linejoin:round;stroke-width:0.0183972}
		.st21 {fill:#0070c0;stroke:#0070c0;stroke-linecap:round;stroke-linejoin:round;stroke-width:0.0183972}
		.st22 {stroke:#0070c0;stroke-linecap:round;stroke-linejoin:round;stroke-width:0.441532}
		.st23 {stroke:#00b050;stroke-linecap:round;stroke-linejoin:round;stroke-width:0.441532}
		.st24 {fill:#0070c0;stroke:#0070c0;stroke-linecap:round;stroke-linejoin:round;stroke-width:0.00919858}
		.st25 {fill:#0070c0;font-family:Verdana;font-size:0.716812em}
		.st26 {fill:#0070c0;font-family:Verdana;font-size:0.477882em}
		.st27 {fill:#0070c0;font-family:Verdana;font-size:0.508507em}
		.st28 {fill:#0070c0;font-family:Verdana;font-size:0.343094em}
		.st29 {fill:#c00000;font-family:Verdana;font-size:0.716812em}
		.st30 {fill:#c00000;font-family:Verdana;font-size:0.477882em}
		.st31 {fill:none;fill-rule:evenodd;font-size:12px;overflow:visible;stroke-linecap:square;stroke-miterlimit:3}
	]]>
	</style>

	<g>
		<title>CCF Ext Device</title>
		<g id="shape3-1" transform="translate(457.314,-138.911)">
			<title>Sheet.3</title>
			<path d="M0 270.59 C0 266.63 3.2 263.44 7.16 263.44 L73.14 263.44 C77.08 263.44 80.29 266.63 80.29 270.59 L80.29 304.68
						 C80.29 308.61 77.08 311.81 73.14 311.81 L7.16 311.81 C3.2 311.81 0 308.61 0 304.68 L0 270.59 Z"
					class="st1"/>
		</g>
		<g id="shape4-3" transform="translate(464.533,-145.896)">
			<title>Sheet.4</title>
			<path d="M0 277.04 L0 311.81 L66.15 311.81 L66.15 277.04 L0 277.04 L0 277.04 Z" class="st2"/>
		</g>
		<g id="shape5-5" transform="translate(481.814,-156.56)">
			<title>Sheet.5</title>
			<desc>ANY FB</desc>
			<path d="M39.67 301.49 L0 301.49 L0 311.81 L39.67 311.81 L39.67 301.49" class="st3"/>
			<text x="4.1" y="309.23" class="st4">ANY FB</text>		</g>
		<g id="shape6-9" transform="translate(459.273,-125.239)">
			<title>Sheet.6</title>
			<desc>Functional</desc>
			<path d="M57.85 301.49 L0 301.49 L0 311.81 L57.85 311.81 L57.85 301.49" class="st3"/>
			<text x="6.8" y="309.23" class="st4">Functional </text>		</g>
		<g id="shape7-13" transform="translate(506.488,-125.239)">
			<title>Sheet.7</title>
			<desc>Block</desc>
			<path d="M29.99 301.49 L0 301.49 L0 311.81 L29.99 311.81 L29.99 301.49" class="st3"/>
			<text x="3.47" y="309.23" class="st4">Block</text>		</g>
		<g id="shape8-17" transform="translate(368.187,-138.47)">
			<title>Sheet.8</title>
			<path d="M0 270.49 C0 266.27 3.43 262.85 7.66 262.85 L51.43 262.85 C55.67 262.85 59.07 266.27 59.07 270.49 L59.07 304.18
						 C59.07 308.41 55.67 311.81 51.43 311.81 L7.66 311.81 C3.43 311.81 0 308.41 0 304.18 L0 270.49 Z"
					class="st1"/>
		</g>
		<g id="shape9-19" transform="translate(375.111,-145.602)">
			<title>Sheet.9</title>
			<path d="M0 276.82 L0 311.81 L45.08 311.81 L45.08 276.82 L0 276.82 L0 276.82 Z" class="st2"/>
		</g>
		<g id="shape10-21" transform="translate(368.187,-226.693)">
			<title>Sheet.10</title>
			<path d="M0 270.49 C0 266.27 3.43 262.85 7.66 262.85 L51.43 262.85 C55.67 262.85 59.07 266.27 59.07 270.49 L59.07 304.18
						 C59.07 308.41 55.67 311.81 51.43 311.81 L7.66 311.81 C3.43 311.81 0 308.41 0 304.18 L0 270.49 Z"
					class="st1"/>
		</g>
		<g id="shape11-23" transform="translate(375.111,-233.824)">
			<title>Sheet.11</title>
			<path d="M0 276.82 L0 311.81 L45.08 311.81 L45.08 276.82 L0 276.82 L0 276.82 Z" class="st2"/>
		</g>
		<g id="shape12-25" transform="translate(368.187,-50.2476)">
			<title>Sheet.12</title>
			<path d="M0 270.49 C0 266.27 3.43 262.85 7.66 262.85 L51.43 262.85 C55.67 262.85 59.07 266.27 59.07 270.49 L59.07 304.18
						 C59.07 308.41 55.67 311.81 51.43 311.81 L7.66 311.81 C3.43 311.81 0 308.41 0 304.18 L0 270.49 Z"
					class="st1"/>
		</g>
		<g id="shape13-27" transform="translate(375.111,-57.3789)">
			<title>Sheet.13</title>
			<path d="M0 276.82 L0 311.81 L45.08 311.81 L45.08 276.82 L0 276.82 L0 276.82 Z" class="st2"/>
		</g>
		<g id="shape14-29" transform="translate(420.006,-160.427)">
			<title>Sheet.14</title>
			<path d="M0 308.7 L44.45 308.7 L44.45 309.65 L0 309.65 L0 308.7 ZM41.01 306.62 L45.41 309.18 L41.01 311.75 L41.01 311.75
						 C40.79 311.88 40.49 311.8 40.36 311.56 C40.24 311.34 40.31 311.05 40.53 310.92 L44.21 308.77 L44.21 309.6
						 L40.53 307.45 L40.53 307.45 C40.31 307.32 40.24 307.02 40.36 306.8 C40.49 306.57 40.79 306.49 41.01 306.62
						 Z" class="st5"/>
		</g>
		<g id="shape15-31" transform="translate(385.378,-246.012)">
			<title>Sheet.15</title>
			<desc>PMS</desc>
			<path d="M24.55 301.49 L0 301.49 L0 311.81 L24.55 311.81 L24.55 301.49" class="st3"/>
			<text x="3.11" y="309.23" class="st4">PMS</text>		</g>
		<g id="shape16-35" transform="translate(388.436,-212.596)">
			<title>Sheet.16</title>
			<desc>PMS</desc>
			<path d="M24.55 301.49 L0 301.49 L0 311.81 L24.55 311.81 L24.55 301.49" class="st3"/>
			<text x="3.11" y="309.23" class="st4">PMS</text>		</g>
		<g id="shape17-39" transform="translate(376.435,-157.789)">
			<title>Sheet.17</title>
			<desc>CLOCK</desc>
			<path d="M37.44 301.49 L0 301.49 L0 311.81 L37.44 311.81 L37.44 301.49" class="st3"/>
			<text x="3.96" y="309.23" class="st4">CLOCK</text>		</g>
		<g id="shape18-43" transform="translate(382.712,-124.373)">
			<title>Sheet.18</title>
			<desc>CLOCK</desc>
			<path d="M37.44 301.49 L0 301.49 L0 311.81 L37.44 311.81 L37.44 301.49" class="st3"/>
			<text x="3.96" y="309.23" class="st4">CLOCK</text>		</g>
		<g id="shape19-47" transform="translate(384.192,-69.5665)">
			<title>Sheet.19</title>
			<desc>SMM</desc>
			<path d="M26.92 301.49 L0 301.49 L0 311.81 L26.92 311.81 L26.92 301.49" class="st3"/>
			<text x="3.27" y="309.23" class="st4">SMM</text>		</g>
		<g id="shape20-51" transform="translate(387.205,-36.1505)">
			<title>Sheet.20</title>
			<desc>SMM</desc>
			<path d="M26.92 301.49 L0 301.49 L0 311.81 L26.92 311.81 L26.92 301.49" class="st3"/>
			<text x="3.27" y="309.23" class="st4">SMM</text>		</g>
		<g id="shape21-55" transform="translate(256.006,-50.6152)">
			<title>Sheet.21</title>
			<path d="M0 185.3 C0 179.46 4.77 174.7 10.63 174.7 L69.53 174.7 C75.39 174.7 80.14 179.46 80.14 185.3 L80.14 301.22 C80.14
						 307.07 75.39 311.81 69.53 311.81 L10.63 311.81 C4.77 311.81 0 307.07 0 301.22 L0 185.3 Z" class="st1"/>
		</g>
		<g id="shape22-57" transform="translate(263.077,-146.116)">
			<title>Sheet.22</title>
			<path d="M0 277.04 L0 311.81 L66.07 311.81 L66.07 277.04 L0 277.04 L0 277.04 Z" class="st2"/>
		</g>
		<g id="shape23-59" transform="translate(262.782,-58.1876)">
			<title>Sheet.23</title>
			<path d="M0 276.45 L0 311.81 L66.07 311.81 L66.07 276.45 L0 276.45 L0 276.45 Z" class="st2"/>
		</g>
		<g id="shape24-61" transform="translate(274.678,-74.7579)">
			<title>Sheet.24</title>
			<desc>Px.y</desc>
			<path d="M28.23 301.49 L0 301.49 L0 311.81 L28.23 311.81 L28.23 301.49" class="st3"/>
			<text x="4.87" y="309.23" class="st4">Px.y </text>		</g>
		<g id="shape25-65" transform="translate(296.186,-74.7579)">
			<title>Sheet.25</title>
			<desc>(IN)</desc>
			<path d="M24.03 301.49 L0 301.49 L0 311.81 L24.03 311.81 L24.03 301.49" class="st3"/>
			<text x="3.08" y="309.23" class="st4">(IN)</text>		</g>
		<g id="shape26-69" transform="translate(274.678,-64.4652)">
			<title>Sheet.26</title>
			<desc>Px.z (OUT)</desc>
			<path d="M57.68 301.49 L0 301.49 L0 311.81 L57.68 311.81 L57.68 301.49" class="st3"/>
			<text x="5.28" y="309.23" class="st4">Px.z (OUT)</text>		</g>
		<g id="shape27-73" transform="translate(276.68,-161.51)">
			<title>Sheet.27</title>
			<desc>Pa.b (IN)</desc>
			<path d="M49.17 301.49 L0 301.49 L0 311.81 L49.17 311.81 L49.17 301.49" class="st3"/>
			<text x="4.72" y="309.23" class="st4">Pa.b (IN)</text>		</g>
		<g id="shape28-77" transform="translate(276.68,-151.218)">
			<title>Sheet.28</title>
			<desc>Pa.c (OUT)</desc>
			<path d="M57.72 301.49 L0 301.49 L0 311.81 L57.72 311.81 L57.72 301.49" class="st3"/>
			<text x="5.28" y="309.23" class="st4">Pa.c (OUT)</text>		</g>
		<g id="shape29-81" transform="translate(284.409,-37.6311)">
			<title>Sheet.29</title>
			<desc>PORT</desc>
			<path d="M30.21 301.49 L0 301.49 L0 311.81 L30.21 311.81 L30.21 301.49" class="st3"/>
			<text x="3.48" y="309.23" class="st4">PORT</text>		</g>
		<g id="shape30-85" transform="translate(150.159,-47.7479)">
			<title>Sheet.30</title>
			<path d="M0 74.42 L0 311.81 L66.07 311.81 L66.07 74.42 L0 74.42 L0 74.42 Z" class="st6"/>
		</g>
		<g id="shape31-87" transform="translate(150.159,-47.7479)">
			<title>Sheet.31</title>
			<path d="M0 74.42 L66.07 74.42 L66.07 311.81 L0 311.81 L0 74.42" class="st7"/>
		</g>
		<g id="shape32-90" transform="translate(31.2739,-51.2033)">
			<title>Sheet.32</title>
			<path d="M0 270.59 C0 266.63 3.2 263.44 7.16 263.44 L73.13 263.44 C77.08 263.44 80.29 266.63 80.29 270.59 L80.29 304.67
						 C80.29 308.61 77.08 311.81 73.13 311.81 L7.16 311.81 C3.2 311.81 0 308.61 0 304.67 L0 270.59 Z"
					class="st1"/>
		</g>
		<g id="shape33-92" transform="translate(38.3451,-58.1876)">
			<title>Sheet.33</title>
			<path d="M0 277.04 L0 311.81 L66.15 311.81 L66.15 277.04 L0 277.04 L0 277.04 Z" class="st8"/>
		</g>
		<g id="shape34-94" transform="translate(24.2165,-38.7208)">
			<title>Sheet.34</title>
			<desc>External reset system</desc>
			<path d="M112.11 301.49 L0 301.49 L0 311.81 L112.11 311.81 L112.11 301.49" class="st3"/>
			<text x="8.83" y="309.23" class="st4">External reset system</text>		</g>
		<g id="shape35-98" transform="translate(35.7419,-68.2483)">
			<title>Sheet.35</title>
			<desc>Reset system</desc>
			<path d="M70.25 301.49 L0 301.49 L0 311.81 L70.25 311.81 L70.25 301.49" class="st3"/>
			<text x="6.1" y="309.23" class="st4">Reset system</text>		</g>
		<g id="shape36-102" transform="translate(31.2739,-138.691)">
			<title>Sheet.36</title>
			<path d="M0 270.58 C0 266.64 3.21 263.44 7.16 263.44 L73.13 263.44 C77.08 263.44 80.29 266.64 80.29 270.58 L80.29 304.67
						 C80.29 308.61 77.08 311.81 73.13 311.81 L7.16 311.81 C3.21 311.81 0 308.61 0 304.67 L0 270.58 Z"
					class="st1"/>
		</g>
		<g id="shape37-104" transform="translate(38.3451,-145.749)">
			<title>Sheet.37</title>
			<path d="M0 277.11 L0 311.81 L66.15 311.81 L66.15 277.11 L0 277.11 L0 277.11 Z" class="st8"/>
		</g>
		<g id="shape38-106" transform="translate(25.5408,-126.241)">
			<title>Sheet.38</title>
			<desc>External clock source</desc>
			<path d="M109.04 301.49 L0 301.49 L0 311.81 L109.04 311.81 L109.04 301.49" class="st3"/>
			<text x="8.62" y="309.23" class="st4">External clock source</text>		</g>
		<g id="shape39-110" transform="translate(37.7272,-155.769)">
			<title>Sheet.39</title>
			<desc>Clock source</desc>
			<path d="M66.28 301.49 L0 301.49 L0 311.81 L66.28 311.81 L66.28 301.49" class="st3"/>
			<text x="5.84" y="309.23" class="st4">Clock source</text>		</g>
		<g id="shape40-114" transform="translate(31.2739,-226.914)">
			<title>Sheet.40</title>
			<path d="M0 270.58 C0 266.64 3.21 263.44 7.16 263.44 L73.13 263.44 C77.08 263.44 80.29 266.64 80.29 270.58 L80.29 304.67
						 C80.29 308.61 77.08 311.81 73.13 311.81 L7.16 311.81 C3.21 311.81 0 308.61 0 304.67 L0 270.58 Z"
					class="st1"/>
		</g>
		<g id="shape41-116" transform="translate(38.3451,-233.971)">
			<title>Sheet.41</title>
			<path d="M0 277.11 L0 311.81 L66.15 311.81 L66.15 277.11 L0 277.11 L0 277.11 Z" class="st8"/>
		</g>
		<g id="shape42-118" transform="translate(23.2573,-214.464)">
			<title>Sheet.42</title>
			<desc>External power supply</desc>
			<path d="M114.16 301.49 L0 301.49 L0 311.81 L114.16 311.81 L114.16 301.49" class="st3"/>
			<text x="8.96" y="309.23" class="st4">External power supply</text>		</g>
		<g id="shape43-122" transform="translate(36.143,-244.587)">
			<title>Sheet.43</title>
			<desc>Power supply</desc>
			<path d="M69.45 301.49 L0 301.49 L0 311.81 L69.45 311.81 L69.45 301.49" class="st3"/>
			<text x="6.04" y="309.23" class="st4">Power supply</text>		</g>
		<g id="shape44-126" transform="translate(216.783,-168.874)">
			<title>Sheet.44</title>
			<path d="M0.01 309.79 L2.88 309.78 L2.87 308.83 L0 308.84 L0.01 309.79 ZM3.84 309.78 L6.71 309.77 L6.7 308.82 L3.83 308.83
						 L3.84 309.78 ZM7.67 309.77 L10.54 309.77 L10.53 308.81 L7.66 308.82 L7.67 309.77 ZM11.5 309.76 L14.37 309.75
						 L14.36 308.79 L11.49 308.8 L11.5 309.76 ZM15.33 309.75 L18.2 309.74 L18.19 308.78 L15.32 308.79 L15.33 309.75
						 ZM19.16 309.74 L22.03 309.73 L22.02 308.77 L19.15 308.78 L19.16 309.74 ZM22.99 309.72 L25.86 309.71 L25.85
						 308.75 L22.98 308.76 L22.99 309.72 ZM26.82 309.71 L29.69 309.7 L29.68 308.75 L26.81 308.75 L26.82 309.71
						 ZM30.65 309.7 L33.52 309.69 L33.51 308.74 L30.64 308.75 L30.65 309.7 ZM34.48 309.68 L37.35 309.67 L37.34
						 308.72 L34.47 308.73 L34.48 309.68 ZM38.31 309.67 L41.18 309.66 L41.18 308.71 L38.3 308.72 L38.31 309.67
						 ZM42.14 309.66 L44.97 309.66 L44.96 308.7 L42.13 308.71 L42.14 309.66 ZM41.52 311.74 L45.92 309.17 L41.52
						 306.63 C41.29 306.49 40.99 306.58 40.86 306.81 C40.72 307.04 40.81 307.32 41.04 307.46 L44.72 309.59 L44.72
						 308.76 L41.05 310.92 C40.82 311.05 40.74 311.35 40.87 311.58 C41.01 311.81 41.3 311.88 41.52 311.74 Z"
					class="st9"/>
		</g>
		<g id="shape45-128" transform="translate(216.562,-152.358)">
			<title>Sheet.45</title>
			<path d="M0.96 309.68 L3.83 309.67 L3.82 308.72 L0.95 308.72 L0.96 309.68 ZM4.79 309.66 L7.66 309.65 L7.65 308.7 L4.78
						 308.71 L4.79 309.66 ZM8.62 309.65 L11.49 309.64 L11.48 308.69 L8.61 308.7 L8.62 309.65 ZM12.45 309.64 L15.32
						 309.63 L15.31 308.68 L12.44 308.69 L12.45 309.64 ZM16.28 309.63 L19.15 309.62 L19.14 308.66 L16.27 308.67
						 L16.28 309.63 ZM20.11 309.62 L22.98 309.61 L22.97 308.65 L20.1 308.66 L20.11 309.62 ZM23.94 309.6 L26.81
						 309.59 L26.8 308.63 L23.93 308.64 L23.94 309.6 ZM27.77 309.59 L30.64 309.58 L30.63 308.62 L27.76 308.63
						 L27.77 309.59 ZM31.6 309.58 L34.47 309.57 L34.46 308.61 L31.59 308.62 L31.6 309.58 ZM35.43 309.56 L38.3
						 309.55 L38.29 308.6 L35.42 308.61 L35.43 309.56 ZM39.26 309.55 L42.13 309.54 L42.12 308.59 L39.25 308.6
						 L39.26 309.55 ZM43.09 309.53 L45.89 309.52 L45.89 308.57 L43.08 308.58 L43.09 309.53 ZM4.38 306.63 L0 309.2
						 L4.4 311.75 C4.63 311.88 4.93 311.8 5.05 311.57 C5.19 311.34 5.11 311.05 4.88 310.92 L1.19 308.79 L1.2 309.62
						 L4.87 307.46 L4.87 307.46 C5.1 307.32 5.17 307.03 5.04 306.8 C4.91 306.57 4.61 306.5 4.38 306.63 Z"
					class="st9"/>
		</g>
		<g id="shape46-130" transform="translate(164.988,-31.9283)">
			<title>Sheet.46</title>
			<desc>Package</desc>
			<path d="M44.39 301.49 L0 301.49 L0 311.81 L44.39 311.81 L44.39 301.49" class="st3"/>
			<text x="4.41" y="309.23" class="st4">Package</text>		</g>
		<g id="shape47-134" transform="translate(225.282,-171.467)">
			<title>Sheet.47</title>
			<desc>CLK</desc>
			<path d="M22.75 301.49 L0 301.49 L0 311.81 L22.75 311.81 L22.75 301.49" class="st3"/>
			<text x="3" y="309.23" class="st10">CLK</text>		</g>
		<g id="shape48-138" transform="translate(243.861,-170.563)">
			<title>Sheet.48</title>
			<desc>in</desc>
			<path d="M8.31 304.93 L0 304.93 L0 311.81 L8.31 311.81 L8.31 304.93" class="st3"/>
			<text x="1.55" y="310.09" class="st11">in</text>		</g>
		<g id="shape49-142" transform="translate(223.901,-142.566)">
			<title>Sheet.49</title>
			<desc>CLK</desc>
			<path d="M22.75 301.49 L0 301.49 L0 311.81 L22.75 311.81 L22.75 301.49" class="st3"/>
			<text x="3" y="309.23" class="st10">CLK</text>		</g>
		<g id="shape50-146" transform="translate(241.905,-141.662)">
			<title>Sheet.50</title>
			<desc>out</desc>
			<path d="M13.1 304.93 L0 304.93 L0 311.81 L13.1 311.81 L13.1 304.93" class="st3"/>
			<text x="1.86" y="310.09" class="st11">out</text>		</g>
		<g id="shape51-150" transform="translate(125.55,-167.898)">
			<title>Sheet.51</title>
			<desc>CLK</desc>
			<path d="M16.14 304.48 L0 304.48 L0 311.81 L16.14 311.81 L16.14 304.48" class="st3"/>
			<text x="2.13" y="309.98" class="st12">CLK</text>		</g>
		<g id="shape52-154" transform="translate(138.9,-167.244)">
			<title>Sheet.52</title>
			<desc>in</desc>
			<path d="M5.96 306.87 L0 306.87 L0 311.81 L5.96 311.81 L5.96 306.87" class="st3"/>
			<text x="1.11" y="310.57" class="st13">in</text>		</g>
		<g id="shape53-158" transform="translate(105.043,-152.25)">
			<title>Sheet.53</title>
			<path d="M0.95 309.69 L19.16 309.56 L19.16 308.61 L0.95 308.74 L0.95 309.69 ZM4.37 306.63 L0 309.22 L4.41 311.75 C4.64
						 311.88 4.93 311.8 5.06 311.57 C5.19 311.34 5.11 311.05 4.88 310.92 L1.19 308.8 L1.19 309.63 L4.86 307.45
						 L4.86 307.45 C5.09 307.32 5.17 307.03 5.03 306.8 C4.89 306.57 4.6 306.5 4.37 306.63 Z" class="st14"/>
		</g>
		<g id="shape54-160" transform="translate(105.043,-168.892)">
			<title>Sheet.54</title>
			<path d="M0 308.71 L18.1 308.71 L18.1 309.66 L0 309.66 L0 308.71 ZM14.66 306.63 L19.05 309.19 L14.66 311.75 C14.43 311.88
						 14.14 311.8 14 311.58 C13.87 311.35 13.94 311.05 14.17 310.92 L17.86 308.78 L17.86 309.6 L14.17 307.46 C13.94
						 307.33 13.87 307.03 14 306.8 C14.14 306.58 14.43 306.5 14.66 306.63 Z" class="st14"/>
		</g>
		<g id="shape55-162" transform="translate(146.144,-152.348)">
			<title>Sheet.55</title>
			<path d="M0.95 308.71 L70.52 308.71 L70.52 309.66 L0.95 309.66 L0.95 308.71 ZM4.39 311.75 L0 309.18 L4.39 306.63 C4.62
						 306.5 4.92 306.57 5.05 306.8 C5.18 307.03 5.1 307.33 4.88 307.46 L1.2 309.6 L1.2 308.78 L4.88 310.92 C5.1
						 311.05 5.18 311.34 5.05 311.57 C4.92 311.8 4.62 311.88 4.39 311.75 Z" class="st9"/>
		</g>
		<g id="shape56-164" transform="translate(145.997,-168.675)">
			<title>Sheet.56</title>
			<path d="M0.01 308.49 L69.89 308.72 L69.89 309.68 L0 309.45 L0.01 308.49 ZM66.46 306.63 L70.84 309.21 L66.44 311.74 C66.21
						 311.88 65.92 311.8 65.79 311.57 C65.66 311.34 65.73 311.05 65.96 310.92 L69.65 308.78 L69.64 309.61 L65.97
						 307.45 L65.97 307.45 C65.74 307.32 65.67 307.03 65.8 306.8 C65.93 306.58 66.23 306.5 66.46 306.63 Z"
					class="st9"/>
		</g>
		<g id="shape57-166" transform="translate(329.48,-168.284)">
			<title>Sheet.57</title>
			<path d="M0.02 309.79 L2.89 309.79 L2.87 308.84 L0 308.84 L0.02 309.79 ZM3.85 309.79 L6.72 309.77 L6.7 308.82 L3.83 308.84
						 L3.85 309.79 ZM7.68 309.77 L10.55 309.77 L10.53 308.82 L7.66 308.82 L7.68 309.77 ZM11.51 309.75 L14.38 309.75
						 L14.36 308.8 L11.49 308.8 L11.51 309.75 ZM15.34 309.75 L18.21 309.74 L18.19 308.78 L15.32 308.8 L15.34 309.75
						 ZM19.17 309.74 L22.04 309.74 L22.02 308.78 L19.15 308.78 L19.17 309.74 ZM23 309.72 L25.87 309.72 L25.85
						 308.76 L22.98 308.76 L23 309.72 ZM26.83 309.72 L29.7 309.7 L29.68 308.74 L26.81 308.76 L26.83 309.72 ZM30.66
						 309.7 L33.53 309.7 L33.51 308.74 L30.64 308.74 L30.66 309.7 ZM34.49 309.68 L37.36 309.68 L37.34 308.73 L34.47
						 308.73 L34.49 309.68 ZM38.32 309.68 L41.19 309.66 L41.18 308.71 L38.3 308.73 L38.32 309.68 ZM42.15 309.66
						 L44.97 309.66 L44.97 308.71 L42.13 308.71 L42.15 309.66 ZM41.52 311.74 L45.93 309.17 L41.52 306.63 C41.29
						 306.5 40.99 306.57 40.86 306.81 C40.73 307.03 40.81 307.33 41.05 307.46 L44.73 309.59 L44.73 308.76 L41.05
						 310.93 C40.83 311.06 40.75 311.35 40.88 311.57 C41.01 311.79 41.3 311.89 41.52 311.74 Z" class="st5"/>
		</g>
		<g id="shape58-168" transform="translate(329.038,-153.46)">
			<title>Sheet.58</title>
			<path d="M0.96 309.69 L3.83 309.67 L3.83 308.72 L0.96 308.73 L0.96 309.69 ZM4.79 309.67 L7.66 309.65 L7.66 308.7 L4.79
						 308.72 L4.79 309.67 ZM8.62 309.65 L11.49 309.65 L11.49 308.7 L8.62 308.7 L8.62 309.65 ZM12.45 309.65 L15.32
						 309.63 L15.32 308.68 L12.45 308.7 L12.45 309.65 ZM16.28 309.63 L19.15 309.62 L19.15 308.66 L16.28 308.68
						 L16.28 309.63 ZM20.11 309.62 L22.98 309.62 L22.98 308.66 L20.11 308.66 L20.11 309.62 ZM23.94 309.6 L26.81
						 309.6 L26.81 308.64 L23.94 308.64 L23.94 309.6 ZM27.77 309.6 L30.64 309.58 L30.64 308.62 L27.77 308.64 L27.77
						 309.6 ZM31.6 309.58 L34.47 309.58 L34.47 308.62 L31.6 308.62 L31.6 309.58 ZM35.43 309.56 L38.3 309.56 L38.3
						 308.6 L35.43 308.6 L35.43 309.56 ZM39.26 309.56 L42.13 309.54 L42.13 308.59 L39.26 308.6 L39.26 309.56 ZM43.09
						 309.54 L45.89 309.52 L45.89 308.57 L43.09 308.59 L43.09 309.54 ZM4.38 306.64 L0 309.21 L4.4 311.75 C4.64
						 311.88 4.94 311.8 5.06 311.58 C5.19 311.34 5.12 311.05 4.88 310.92 L1.2 308.79 L1.2 309.62 L4.88 307.47
						 L4.88 307.47 C5.1 307.32 5.17 307.04 5.05 306.8 C4.92 306.58 4.62 306.51 4.38 306.64 Z" class="st5"/>
		</g>
		<g id="shape59-170" transform="translate(337.323,-171.59)">
			<title>Sheet.59</title>
			<desc>CLK</desc>
			<path d="M22.75 301.49 L0 301.49 L0 311.81 L22.75 311.81 L22.75 301.49" class="st3"/>
			<text x="3" y="309.23" class="st10">CLK</text>		</g>
		<g id="shape60-174" transform="translate(356.306,-170.686)">
			<title>Sheet.60</title>
			<desc>in</desc>
			<path d="M8.31 304.93 L0 304.93 L0 311.81 L8.31 311.81 L8.31 304.93" class="st3"/>
			<text x="1.55" y="310.09" class="st11">in</text>		</g>
		<g id="shape61-178" transform="translate(335.87,-143.608)">
			<title>Sheet.61</title>
			<desc>CLK</desc>
			<path d="M22.75 301.49 L0 301.49 L0 311.81 L22.75 311.81 L22.75 301.49" class="st3"/>
			<text x="3" y="309.23" class="st10">CLK</text>		</g>
		<g id="shape62-182" transform="translate(354.234,-142.703)">
			<title>Sheet.62</title>
			<desc>out</desc>
			<path d="M13.1 304.93 L0 304.93 L0 311.81 L13.1 311.81 L13.1 304.93" class="st3"/>
			<text x="1.86" y="310.09" class="st11">out</text>		</g>
		<g id="shape63-186" transform="translate(132.013,-246.998)">
			<title>Sheet.63</title>
			<desc>V</desc>
			<path d="M8.06 303.69 L0 303.69 L0 311.81 L8.06 311.81 L8.06 303.69" class="st3"/>
			<text x="1.72" y="309.78" class="st15">V</text>		</g>
		<g id="shape64-190" transform="translate(136.653,-246.285)">
			<title>Sheet.64</title>
			<desc>in</desc>
			<path d="M6.5 306.43 L0 306.43 L0 311.81 L6.5 311.81 L6.5 306.43" class="st3"/>
			<text x="1.21" y="310.46" class="st16">in</text>		</g>
		<g id="shape65-194" transform="translate(129.682,-244.999)">
			<title>Sheet.65</title>
			<path d="M0 305.71 C0 302.34 3.15 299.61 7.03 299.61 C10.92 299.61 14.07 302.34 14.07 305.71 C14.07 309.08 10.92 311.81
						 7.03 311.81 C3.15 311.81 -0 309.08 0 305.71" class="st17"/>
		</g>
		<g id="shape66-197" transform="translate(104.601,-248.478)">
			<title>Sheet.66</title>
			<path d="M0 308.53 L24.2 308.74 L24.19 309.7 L0 309.48 L0 308.53 ZM20.78 306.63 L25.15 309.23 L20.73 311.75 L20.73 311.75
						 C20.5 311.88 20.21 311.8 20.08 311.57 C19.95 311.34 20.03 311.05 20.26 310.92 L23.96 308.81 L23.95 309.63
						 L20.28 307.46 C20.06 307.32 19.98 307.03 20.12 306.8 C20.26 306.57 20.55 306.5 20.78 306.63 Z"
					class="st18"/>
		</g>
		<g id="shape67-199" transform="translate(143.787,-248.465)">
			<title>Sheet.67</title>
			<path d="M0.01 308.51 L71.46 308.72 L71.45 309.68 L0 309.47 L0.01 308.51 ZM68.01 306.63 L72.41 309.2 L68.01 311.75 L68.01
						 311.75 C67.77 311.88 67.48 311.8 67.35 311.57 C67.21 311.34 67.3 311.05 67.53 310.92 L71.21 308.79 L71.21
						 309.62 L67.54 307.46 L67.54 307.46 C67.31 307.33 67.23 307.03 67.36 306.8 C67.5 306.57 67.79 306.5 68.01
						 306.63 Z" class="st19"/>
		</g>
		<g id="shape68-201" transform="translate(216.783,-248.649)">
			<title>Sheet.68</title>
			<path d="M0 309.82 L2.87 309.82 L2.87 308.86 L0 308.86 L0 309.82 ZM3.83 309.82 L6.7 309.8 L6.7 308.84 L3.83 308.86 L3.83
						 309.82 ZM7.66 309.8 L10.53 309.8 L10.53 308.84 L7.66 308.84 L7.66 309.8 ZM11.49 309.8 L14.36 309.8 L14.36
						 308.84 L11.49 308.84 L11.49 309.8 ZM15.32 309.8 L18.19 309.8 L18.19 308.84 L15.32 308.84 L15.32 309.8 ZM19.15
						 309.8 L22.02 309.8 L22.02 308.84 L19.15 308.84 L19.15 309.8 ZM22.98 309.8 L25.85 309.78 L25.85 308.83 L22.98
						 308.84 L22.98 309.8 ZM26.81 309.78 L29.68 309.78 L29.68 308.83 L26.81 308.83 L26.81 309.78 ZM30.64 309.78
						 L33.51 309.78 L33.51 308.83 L30.64 308.83 L30.64 309.78 ZM34.47 309.78 L37.34 309.78 L37.34 308.83 L34.47
						 308.83 L34.47 309.78 ZM38.3 309.78 L41.18 309.78 L41.18 308.83 L38.3 308.83 L38.3 309.78 ZM42.13 309.78
						 L45.01 309.76 L45.01 308.81 L42.13 308.83 L42.13 309.78 ZM45.96 309.76 L48.84 309.76 L48.84 308.81 L45.96
						 308.81 L45.96 309.76 ZM49.79 309.76 L52.67 309.76 L52.67 308.81 L49.79 308.81 L49.79 309.76 ZM53.62 309.76
						 L56.5 309.76 L56.5 308.81 L53.62 308.81 L53.62 309.76 ZM57.45 309.76 L60.33 309.76 L60.33 308.81 L57.45
						 308.81 L57.45 309.76 ZM61.28 309.76 L64.16 309.74 L64.16 308.79 L61.28 308.81 L61.28 309.76 ZM65.11 309.74
						 L67.99 309.74 L67.99 308.79 L65.11 308.79 L65.11 309.74 ZM68.94 309.74 L71.82 309.74 L71.82 308.79 L68.94
						 308.79 L68.94 309.74 ZM72.77 309.74 L75.65 309.74 L75.65 308.79 L72.77 308.79 L72.77 309.74 ZM76.6 309.74
						 L79.48 309.74 L79.48 308.79 L76.6 308.79 L76.6 309.74 ZM80.43 309.74 L83.31 309.73 L83.31 308.77 L80.43
						 308.79 L80.43 309.74 ZM84.27 309.73 L87.14 309.73 L87.14 308.77 L84.27 308.77 L84.27 309.73 ZM88.1 309.73
						 L90.97 309.73 L90.97 308.77 L88.1 308.77 L88.1 309.73 ZM91.93 309.73 L94.8 309.73 L94.8 308.77 L91.93 308.77
						 L91.93 309.73 ZM95.76 309.73 L98.63 309.73 L98.63 308.77 L95.76 308.77 L95.76 309.73 ZM99.59 309.73 L102.46
						 309.71 L102.46 308.75 L99.59 308.77 L99.59 309.73 ZM103.42 309.71 L106.29 309.71 L106.29 308.75 L103.42
						 308.75 L103.42 309.71 ZM107.25 309.71 L110.12 309.71 L110.12 308.75 L107.25 308.75 L107.25 309.71 ZM111.08
						 309.71 L113.95 309.71 L113.95 308.75 L111.08 308.75 L111.08 309.71 ZM114.91 309.71 L117.78 309.71 L117.78
						 308.75 L114.91 308.75 L114.91 309.71 ZM118.74 309.71 L121.61 309.69 L121.61 308.73 L118.74 308.75 L118.74
						 309.71 ZM122.57 309.69 L125.44 309.69 L125.44 308.73 L122.57 308.73 L122.57 309.69 ZM126.4 309.69 L129.27
						 309.69 L129.27 308.73 L126.4 308.73 L126.4 309.69 ZM130.23 309.69 L133.1 309.69 L133.1 308.73 L130.23 308.73
						 L130.23 309.69 ZM134.06 309.69 L136.93 309.69 L136.93 308.73 L134.06 308.73 L134.06 309.69 ZM137.89 309.69
						 L140.76 309.67 L140.76 308.72 L137.89 308.73 L137.89 309.69 ZM141.72 309.67 L144.59 309.67 L144.59 308.72
						 L141.72 308.72 L141.72 309.67 ZM145.55 309.67 L148.42 309.67 L148.42 308.72 L145.55 308.72 L145.55 309.67
						 ZM149.38 309.67 L152.25 309.67 L152.25 308.72 L149.38 308.72 L149.38 309.67 ZM153.21 309.67 L156.08 309.67
						 L156.08 308.72 L153.21 308.72 L153.21 309.67 ZM157.04 309.67 L157.89 309.67 L157.89 308.72 L157.04 308.72
						 L157.04 309.67 ZM154.44 311.75 L158.84 309.17 L154.44 306.64 C154.22 306.49 153.93 306.58 153.78 306.8 C153.65
						 307.02 153.73 307.32 153.96 307.47 L157.65 309.6 L157.65 308.77 L153.96 310.92 C153.74 311.05 153.65 311.34
						 153.8 311.58 C153.93 311.8 154.22 311.88 154.44 311.75 Z" class="st20"/>
		</g>
		<g id="shape69-203" transform="translate(465.343,-160.747)">
			<title>Sheet.69</title>
			<path d="M0 307.11 L0 311.81 L13.18 311.81 L13.18 307.11 L0 307.11 L0 307.11 Z" class="st2"/>
		</g>
		<g id="shape70-205" transform="translate(465.343,-150.601)">
			<title>Sheet.70</title>
			<path d="M0 307.11 L0 311.81 L13.18 311.81 L13.18 307.11 L0 307.11 L0 307.11 Z" class="st2"/>
		</g>
		<g id="shape71-207" transform="translate(465.343,-170.525)">
			<title>Sheet.71</title>
			<path d="M0 307.11 L0 311.81 L13.18 311.81 L13.18 307.11 L0 307.11 L0 307.11 Z" class="st2"/>
		</g>
		<g id="shape72-209" transform="translate(420.153,-170.241)">
			<title>Sheet.72</title>
			<path d="M0 230.29 L23.09 230.29 L23.09 309.19 L22.61 308.72 L44.25 308.72 L44.25 309.67 L22.13 309.67 L22.13 230.77
						 L22.61 231.25 L0 231.25 L0 230.29 ZM40.83 306.64 L45.21 309.19 L40.83 311.75 C40.59 311.88 40.29 311.8 40.16
						 311.56 C40.03 311.34 40.11 311.05 40.33 310.92 L44.01 308.77 L44.01 309.6 L40.33 307.47 C40.11 307.32 40.03
						 307.02 40.16 306.8 C40.29 306.58 40.59 306.49 40.83 306.64 Z" class="st20"/>
		</g>
		<g id="shape73-211" transform="translate(420.006,-74.3802)">
			<title>Sheet.73</title>
			<path d="M0 311.81 L23.18 311.81 L23.18 233.27 L22.71 233.75 L44.45 233.75 L44.45 232.8 L22.23 232.8 L22.23 311.33 L22.71
						 310.86 L0 310.86 L0 311.81 ZM41.01 235.85 L45.41 233.27 L41.01 230.72 C40.79 230.59 40.49 230.66 40.36 230.9
						 C40.24 231.12 40.31 231.42 40.53 231.55 L44.21 233.7 L44.21 232.87 L40.53 235.02 C40.31 235.15 40.24 235.44
						 40.36 235.66 C40.49 235.9 40.79 235.98 41.01 235.85 Z" class="st21"/>
		</g>
		<g id="shape74-213" transform="translate(123.527,-151.414)">
			<title>Sheet.74</title>
			<desc>CLK</desc>
			<path d="M16.14 304.48 L0 304.48 L0 311.81 L16.14 311.81 L16.14 304.48" class="st3"/>
			<text x="2.13" y="309.98" class="st12">CLK</text>		</g>
		<g id="shape75-217" transform="translate(136.36,-150.76)">
			<title>Sheet.75</title>
			<desc>out</desc>
			<path d="M9.4 306.87 L0 306.87 L0 311.81 L9.4 311.81 L9.4 306.87" class="st3"/>
			<text x="1.34" y="310.57" class="st13">out</text>		</g>
		<g id="shape76-221" transform="translate(124.157,-146.631)">
			<title>Sheet.76</title>
			<path d="M0 303.43 C0 298.8 4.92 295.05 10.98 295.05 C17.04 295.05 21.95 298.8 21.95 303.43 C21.95 308.06 17.04 311.81
						 10.98 311.81 C4.92 311.81 0 308.06 0 303.43" class="st22"/>
		</g>
		<g id="shape77-224" transform="translate(124.01,-163.173)">
			<title>Sheet.77</title>
			<path d="M0 303.43 C0 298.8 4.92 295.05 10.98 295.05 C17.04 295.05 21.95 298.8 21.95 303.43 C21.95 308.06 17.04 311.81
						 10.98 311.81 C4.92 311.81 0 308.06 0 303.43" class="st23"/>
		</g>
		<g id="shape78-227" transform="translate(216.414,-81.0193)">
			<title>Sheet.78</title>
			<path d="M0.01 309.79 L2.88 309.78 L2.87 308.83 L0 308.84 L0.01 309.79 ZM3.84 309.78 L6.71 309.77 L6.7 308.82 L3.83 308.83
						 L3.84 309.78 ZM7.67 309.77 L10.54 309.77 L10.53 308.81 L7.66 308.82 L7.67 309.77 ZM11.5 309.76 L14.37 309.75
						 L14.36 308.79 L11.49 308.8 L11.5 309.76 ZM15.33 309.75 L18.2 309.74 L18.19 308.78 L15.32 308.79 L15.33 309.75
						 ZM19.16 309.74 L22.03 309.73 L22.02 308.77 L19.15 308.78 L19.16 309.74 ZM22.99 309.72 L25.86 309.71 L25.85
						 308.75 L22.98 308.76 L22.99 309.72 ZM26.82 309.71 L29.69 309.7 L29.68 308.75 L26.81 308.75 L26.82 309.71
						 ZM30.65 309.7 L33.52 309.69 L33.51 308.74 L30.64 308.75 L30.65 309.7 ZM34.48 309.68 L37.35 309.67 L37.34
						 308.72 L34.47 308.73 L34.48 309.68 ZM38.31 309.67 L41.18 309.66 L41.18 308.71 L38.3 308.72 L38.31 309.67
						 ZM42.14 309.66 L44.97 309.66 L44.96 308.7 L42.13 308.71 L42.14 309.66 ZM41.52 311.74 L45.92 309.17 L41.52
						 306.63 C41.29 306.49 40.99 306.58 40.86 306.81 C40.72 307.04 40.81 307.32 41.04 307.46 L44.72 309.59 L44.72
						 308.76 L41.05 310.92 C40.82 311.05 40.74 311.35 40.87 311.58 C41.01 311.81 41.3 311.88 41.52 311.74 Z"
					class="st24"/>
		</g>
		<g id="shape79-229" transform="translate(216.193,-64.5024)">
			<title>Sheet.79</title>
			<path d="M0.96 309.68 L3.83 309.67 L3.82 308.72 L0.95 308.72 L0.96 309.68 ZM4.79 309.66 L7.66 309.65 L7.65 308.7 L4.78
						 308.71 L4.79 309.66 ZM8.62 309.65 L11.49 309.64 L11.48 308.69 L8.61 308.7 L8.62 309.65 ZM12.45 309.64 L15.32
						 309.63 L15.31 308.68 L12.44 308.69 L12.45 309.64 ZM16.28 309.63 L19.15 309.62 L19.14 308.66 L16.27 308.67
						 L16.28 309.63 ZM20.11 309.62 L22.98 309.61 L22.97 308.65 L20.1 308.66 L20.11 309.62 ZM23.94 309.6 L26.81
						 309.59 L26.8 308.63 L23.93 308.64 L23.94 309.6 ZM27.77 309.59 L30.64 309.58 L30.63 308.62 L27.76 308.63
						 L27.77 309.59 ZM31.6 309.58 L34.47 309.57 L34.46 308.61 L31.59 308.62 L31.6 309.58 ZM35.43 309.56 L38.3
						 309.55 L38.29 308.6 L35.42 308.61 L35.43 309.56 ZM39.26 309.55 L42.13 309.54 L42.12 308.59 L39.25 308.6
						 L39.26 309.55 ZM43.09 309.53 L45.89 309.52 L45.89 308.57 L43.08 308.58 L43.09 309.53 ZM4.38 306.63 L0 309.2
						 L4.4 311.75 C4.63 311.88 4.93 311.8 5.05 311.57 C5.19 311.34 5.11 311.05 4.88 310.92 L1.19 308.79 L1.2 309.62
						 L4.87 307.46 C5.1 307.32 5.17 307.03 5.04 306.8 C4.91 306.57 4.61 306.5 4.38 306.63 Z" class="st24"/>
		</g>
		<g id="shape80-231" transform="translate(226.552,-83.6123)">
			<title>Sheet.80</title>
			<desc>RST</desc>
			<path d="M23.22 301.49 L0 301.49 L0 311.81 L23.22 311.81 L23.22 301.49" class="st3"/>
			<text x="3.03" y="309.23" class="st25">RST</text>		</g>
		<g id="shape81-235" transform="translate(243.714,-82.708)">
			<title>Sheet.81</title>
			<desc>in</desc>
			<path d="M8.31 304.93 L0 304.93 L0 311.81 L8.31 311.81 L8.31 304.93" class="st3"/>
			<text x="1.55" y="310.09" class="st26">in</text>		</g>
		<g id="shape82-239" transform="translate(224.595,-54.7111)">
			<title>Sheet.82</title>
			<desc>RST</desc>
			<path d="M23.22 301.49 L0 301.49 L0 311.81 L23.22 311.81 L23.22 301.49" class="st3"/>
			<text x="3.03" y="309.23" class="st25">RST</text>		</g>
		<g id="shape83-243" transform="translate(241.757,-53.8068)">
			<title>Sheet.83</title>
			<desc>out</desc>
			<path d="M13.1 304.93 L0 304.93 L0 311.81 L13.1 311.81 L13.1 304.93" class="st3"/>
			<text x="1.86" y="310.09" class="st26">out</text>		</g>
		<g id="shape84-247" transform="translate(124.528,-79.5583)">
			<title>Sheet.84</title>
			<desc>RST</desc>
			<path d="M16.47 304.48 L0 304.48 L0 311.81 L16.47 311.81 L16.47 304.48" class="st3"/>
			<text x="2.15" y="309.98" class="st27">RST</text>		</g>
		<g id="shape85-251" transform="translate(136.755,-78.904)">
			<title>Sheet.85</title>
			<desc>in</desc>
			<path d="M5.96 306.87 L0 306.87 L0 311.81 L5.96 311.81 L5.96 306.87" class="st3"/>
			<text x="1.11" y="310.57" class="st28">in</text>		</g>
		<g id="shape86-255" transform="translate(104.674,-64.3921)">
			<title>Sheet.86</title>
			<path d="M0.96 309.69 L19.17 309.56 L19.16 308.61 L0.95 308.73 L0.96 309.69 ZM4.37 306.63 L0 309.22 L4.41 311.75 C4.64
						 311.88 4.94 311.8 5.06 311.57 C5.19 311.34 5.12 311.05 4.89 310.92 L1.19 308.8 L1.2 309.63 L4.86 307.46
						 L4.86 307.46 C5.09 307.32 5.17 307.02 5.04 306.8 C4.9 306.57 4.6 306.5 4.37 306.63 Z" class="st24"/>
		</g>
		<g id="shape87-257" transform="translate(104.674,-81.035)">
			<title>Sheet.87</title>
			<path d="M0 308.71 L18.1 308.71 L18.1 309.66 L0 309.66 L0 308.71 ZM14.66 306.63 L19.05 309.18 L14.66 311.75 C14.43 311.88
						 14.14 311.8 14 311.57 C13.88 311.34 13.95 311.05 14.18 310.92 L17.86 308.78 L17.86 309.6 L14.18 307.46 C13.95
						 307.33 13.88 307.03 14 306.8 C14.14 306.57 14.43 306.5 14.66 306.63 Z" class="st24"/>
		</g>
		<g id="shape88-259" transform="translate(145.776,-64.4932)">
			<title>Sheet.88</title>
			<path d="M0.95 308.71 L70.52 308.71 L70.52 309.66 L0.95 309.66 L0.95 308.71 ZM4.39 311.75 L0 309.18 L4.39 306.63 C4.62
						 306.5 4.92 306.57 5.05 306.8 C5.18 307.03 5.1 307.33 4.88 307.46 L1.2 309.6 L1.2 308.78 L4.88 310.92 C5.1
						 311.05 5.18 311.34 5.05 311.57 C4.92 311.8 4.62 311.88 4.39 311.75 Z" class="st24"/>
		</g>
		<g id="shape89-261" transform="translate(145.629,-80.8195)">
			<title>Sheet.89</title>
			<path d="M0.01 308.49 L69.89 308.72 L69.89 309.68 L0 309.45 L0.01 308.49 ZM66.46 306.63 L70.84 309.21 L66.44 311.74 C66.21
						 311.88 65.92 311.8 65.79 311.57 C65.66 311.34 65.73 311.05 65.96 310.92 L69.65 308.78 L69.64 309.61 L65.97
						 307.45 L65.97 307.45 C65.74 307.32 65.67 307.03 65.8 306.8 C65.93 306.57 66.23 306.5 66.46 306.63 Z"
					class="st24"/>
		</g>
		<g id="shape90-263" transform="translate(329.112,-80.4291)">
			<title>Sheet.90</title>
			<path d="M0.02 309.79 L2.89 309.79 L2.87 308.84 L0 308.84 L0.02 309.79 ZM3.85 309.79 L6.72 309.77 L6.7 308.82 L3.83 308.84
						 L3.85 309.79 ZM7.68 309.77 L10.55 309.77 L10.53 308.82 L7.66 308.82 L7.68 309.77 ZM11.51 309.75 L14.38 309.75
						 L14.36 308.8 L11.49 308.8 L11.51 309.75 ZM15.34 309.75 L18.21 309.74 L18.19 308.78 L15.32 308.8 L15.34 309.75
						 ZM19.17 309.74 L22.04 309.74 L22.02 308.78 L19.15 308.78 L19.17 309.74 ZM23 309.72 L25.87 309.72 L25.85
						 308.76 L22.98 308.76 L23 309.72 ZM26.83 309.72 L29.7 309.7 L29.68 308.74 L26.81 308.76 L26.83 309.72 ZM30.66
						 309.7 L33.53 309.7 L33.51 308.74 L30.64 308.74 L30.66 309.7 ZM34.49 309.68 L37.36 309.68 L37.34 308.73 L34.47
						 308.73 L34.49 309.68 ZM38.32 309.68 L41.19 309.66 L41.18 308.71 L38.3 308.73 L38.32 309.68 ZM42.15 309.66
						 L44.97 309.66 L44.97 308.71 L42.13 308.71 L42.15 309.66 ZM41.52 311.74 L45.93 309.17 L41.52 306.63 C41.29
						 306.5 40.99 306.57 40.86 306.81 C40.73 307.03 40.81 307.33 41.05 307.46 L44.73 309.59 L44.73 308.76 L41.05
						 310.93 C40.83 311.06 40.75 311.35 40.88 311.57 C41.01 311.79 41.3 311.89 41.52 311.74 Z" class="st21"/>
		</g>
		<g id="shape91-265" transform="translate(328.67,-65.6049)">
			<title>Sheet.91</title>
			<path d="M0.96 309.69 L3.83 309.67 L3.83 308.72 L0.96 308.73 L0.96 309.69 ZM4.79 309.67 L7.66 309.65 L7.66 308.7 L4.79
						 308.72 L4.79 309.67 ZM8.62 309.65 L11.49 309.65 L11.49 308.7 L8.62 308.7 L8.62 309.65 ZM12.45 309.65 L15.32
						 309.63 L15.32 308.68 L12.45 308.7 L12.45 309.65 ZM16.28 309.63 L19.15 309.62 L19.15 308.66 L16.28 308.68
						 L16.28 309.63 ZM20.11 309.62 L22.98 309.62 L22.98 308.66 L20.11 308.66 L20.11 309.62 ZM23.94 309.6 L26.81
						 309.6 L26.81 308.64 L23.94 308.64 L23.94 309.6 ZM27.77 309.6 L30.64 309.58 L30.64 308.62 L27.77 308.64 L27.77
						 309.6 ZM31.6 309.58 L34.47 309.58 L34.47 308.62 L31.6 308.62 L31.6 309.58 ZM35.43 309.56 L38.3 309.56 L38.3
						 308.6 L35.43 308.6 L35.43 309.56 ZM39.26 309.56 L42.13 309.54 L42.13 308.59 L39.26 308.6 L39.26 309.56 ZM43.09
						 309.54 L45.89 309.52 L45.89 308.57 L43.09 308.59 L43.09 309.54 ZM4.38 306.64 L0 309.21 L4.4 311.75 C4.64
						 311.88 4.94 311.8 5.06 311.58 C5.19 311.34 5.12 311.05 4.88 310.92 L1.2 308.79 L1.2 309.62 L4.88 307.47
						 C5.1 307.32 5.17 307.04 5.05 306.8 C4.92 306.58 4.62 306.51 4.38 306.64 Z" class="st21"/>
		</g>
		<g id="shape92-267" transform="translate(338.996,-83.7348)">
			<title>Sheet.92</title>
			<desc>RST</desc>
			<path d="M23.22 301.49 L0 301.49 L0 311.81 L23.22 311.81 L23.22 301.49" class="st3"/>
			<text x="3.03" y="309.23" class="st25">RST</text>		</g>
		<g id="shape93-271" transform="translate(356.158,-82.8305)">
			<title>Sheet.93</title>
			<desc>in</desc>
			<path d="M8.31 304.93 L0 304.93 L0 311.81 L8.31 311.81 L8.31 304.93" class="st3"/>
			<text x="1.55" y="310.09" class="st26">in</text>		</g>
		<g id="shape94-275" transform="translate(336.924,-55.2932)">
			<title>Sheet.94</title>
			<desc>RST</desc>
			<path d="M23.22 301.49 L0 301.49 L0 311.81 L23.22 311.81 L23.22 301.49" class="st3"/>
			<text x="3.03" y="309.23" class="st25">RST</text>		</g>
		<g id="shape95-279" transform="translate(354.086,-54.3889)">
			<title>Sheet.95</title>
			<desc>out</desc>
			<path d="M13.1 304.93 L0 304.93 L0 311.81 L13.1 311.81 L13.1 304.93" class="st3"/>
			<text x="1.86" y="310.09" class="st26">out</text>		</g>
		<g id="shape96-283" transform="translate(122.935,-63.0165)">
			<title>Sheet.96</title>
			<desc>RST</desc>
			<path d="M16.47 304.48 L0 304.48 L0 311.81 L16.47 311.81 L16.47 304.48" class="st3"/>
			<text x="2.15" y="309.98" class="st27">RST</text>		</g>
		<g id="shape97-287" transform="translate(135.163,-62.3622)">
			<title>Sheet.97</title>
			<desc>out</desc>
			<path d="M9.4 306.87 L0 306.87 L0 311.81 L9.4 311.81 L9.4 306.87" class="st3"/>
			<text x="1.34" y="310.57" class="st28">out</text>		</g>
		<g id="shape98-291" transform="translate(123.789,-58.7758)">
			<title>Sheet.98</title>
			<path d="M0 303.43 C0 298.81 4.92 295.05 10.98 295.05 C17.04 295.05 21.95 298.81 21.95 303.43 C21.95 308.06 17.04 311.81
						 10.98 311.81 C4.92 311.81 0 308.06 0 303.43" class="st22"/>
		</g>
		<g id="shape99-294" transform="translate(123.642,-75.3175)">
			<title>Sheet.99</title>
			<path d="M0 303.43 C0 298.81 4.92 295.05 10.98 295.05 C17.04 295.05 21.95 298.81 21.95 303.43 C21.95 308.06 17.04 311.81
						 10.98 311.81 C4.92 311.81 0 308.06 0 303.43" class="st22"/>
		</g>
		<g id="shape100-297" transform="translate(344.578,-253.868)">
			<title>Sheet.100</title>
			<desc>V</desc>
			<path d="M10.24 301.49 L0 301.49 L0 311.81 L10.24 311.81 L10.24 301.49" class="st3"/>
			<text x="2.18" y="309.23" class="st29">V</text>		</g>
		<g id="shape101-301" transform="translate(350.471,-252.964)">
			<title>Sheet.101</title>
			<desc>in</desc>
			<path d="M8.31 304.93 L0 304.93 L0 311.81 L8.31 311.81 L8.31 304.93" class="st3"/>
			<text x="1.55" y="310.09" class="st30">in</text>		</g>
		<g id="shape102-305" transform="translate(418.11,-166.995)">
			<title>Sheet.102</title>
			<desc>CLK</desc>
			<path d="M22.75 301.49 L0 301.49 L0 311.81 L22.75 311.81 L22.75 301.49" class="st3"/>
			<text x="3" y="309.23" class="st10">CLK</text>		</g>
		<g id="shape103-309" transform="translate(436.627,-166.091)">
			<title>Sheet.103</title>
			<desc>in</desc>
			<path d="M8.31 304.93 L0 304.93 L0 311.81 L8.31 311.81 L8.31 304.93" class="st3"/>
			<text x="1.55" y="310.09" class="st11">in</text>		</g>
		<g id="shape104-313" transform="translate(416.693,-98.8981)">
			<title>Sheet.104</title>
			<desc>RST</desc>
			<path d="M23.22 301.49 L0 301.49 L0 311.81 L23.22 311.81 L23.22 301.49" class="st3"/>
			<text x="3.03" y="309.23" class="st25">RST</text>		</g>
		<g id="shape105-317" transform="translate(433.855,-97.9938)">
			<title>Sheet.105</title>
			<desc>in</desc>
			<path d="M8.31 304.93 L0 304.93 L0 311.81 L8.31 311.81 L8.31 304.93" class="st3"/>
			<text x="1.55" y="310.09" class="st26">in</text>		</g>
		<g id="shape106-321" transform="translate(425.285,-205.621)">
			<title>Sheet.106</title>
			<desc>V</desc>
			<path d="M10.24 301.49 L0 301.49 L0 311.81 L10.24 311.81 L10.24 301.49" class="st3"/>
			<text x="2.18" y="309.23" class="st29">V</text>		</g>
		<g id="shape107-325" transform="translate(431.178,-204.717)">
			<title>Sheet.107</title>
			<desc>in</desc>
			<path d="M8.31 304.93 L0 304.93 L0 311.81 L8.31 311.81 L8.31 304.93" class="st3"/>
			<text x="1.55" y="310.09" class="st30">in</text>		</g>
	</g>
</svg>
