<?xml version="1.0" encoding="UTF-8" standalone="no"?>
<!DOCTYPE svg PUBLIC "-//W3C//DTD SVG 1.1//EN" "http://www.w3.org/Graphics/SVG/1.1/DTD/svg11.dtd">
<!-- Generated by Microsoft Visio, SVG Export mca06228_64.svg svg297 -->
<svg xmlns="http://www.w3.org/2000/svg" xmlns:xlink="http://www.w3.org/1999/xlink" xmlns:ev="http://www.w3.org/2001/xml-events"
		xmlns:v="http://schemas.microsoft.com/visio/2003/SVGExtensions/" width="3.01802in" height="1.47748in"
		viewBox="0 0 217.297 106.378" xml:space="preserve" color-interpolation-filters="sRGB" class="st18">
	<v:documentProperties v:langID="1033" v:viewMarkup="false"/>

	<style type="text/css">
	<![CDATA[
		.st1 {fill:#ffffff;stroke:#000000;stroke-dasharray:0,1.25;stroke-linecap:round;stroke-linejoin:round;stroke-width:0.25}
		.st2 {fill:none;stroke:#000000;stroke-linecap:round;stroke-linejoin:round;stroke-width:0.841731}
		.st3 {fill:none;stroke:none;stroke-linecap:butt;stroke-width:0.75}
		.st4 {fill:#000000;font-family:Arial;font-size:0.527344em}
		.st5 {font-size:1em}
		.st6 {fill:#000000;font-family:Arial;font-size:0.416656em}
		.st7 {fill:none;stroke:#000000;stroke-linecap:round;stroke-linejoin:round;stroke-width:0.5}
		.st8 {fill:#000000;font-family:Arial;font-size:0.375em}
		.st9 {fill:none}
		.st10 {stroke:#000000;stroke-linecap:round;stroke-linejoin:round;stroke-width:0.258994}
		.st11 {fill:#ffffff;stroke:none;stroke-linecap:butt;stroke-width:0.75}
		.st12 {fill:#000000;stroke:none;stroke-linecap:butt;stroke-width:0.75}
		.st13 {fill:none;stroke:#000000;stroke-linecap:round;stroke-linejoin:round;stroke-width:0.323743}
		.st14 {fill:none;stroke:#000000;stroke-linecap:round;stroke-linejoin:round;stroke-width:0.25}
		.st15 {marker-end:url(#mrkr4-113);stroke:#000000;stroke-linecap:round;stroke-linejoin:round;stroke-width:0.25}
		.st16 {fill:#000000;fill-opacity:1;stroke:#000000;stroke-opacity:1;stroke-width:0.1219512195122}
		.st17 {marker-start:url(#mrkr4-144);stroke:#000000;stroke-linecap:round;stroke-linejoin:round;stroke-width:0.25}
		.st18 {fill:none;fill-rule:evenodd;font-size:12px;overflow:visible;stroke-linecap:square;stroke-miterlimit:3}
	]]>
	</style>

	<defs id="Markers">
		<g id="lend4">
			<path d="M 2 1 L 0 0 L 2 -1 L 2 1 " style="stroke:none"/>
		</g>
		<marker id="mrkr4-113" class="st16" v:arrowType="4" v:arrowSize="1" v:setback="16.4" refX="-16.4" orient="auto"
				markerUnits="strokeWidth" overflow="visible">
			<use xlink:href="#lend4" transform="scale(-8.2,-8.2) "/>
		</marker>
		<marker id="mrkr4-144" class="st16" v:arrowType="4" v:arrowSize="1" v:setback="14.96" refX="14.96" orient="auto"
				markerUnits="strokeWidth" overflow="visible">
			<use xlink:href="#lend4" transform="scale(8.2) "/>
		</marker>
	</defs>
	<g v:mID="0" v:index="1" v:groupContext="foregroundPage">
		<title>svg297</title>
		<v:pageProperties v:drawingScale="1" v:pageScale="1" v:drawingUnits="19" v:shadowOffsetX="9" v:shadowOffsetY="-9"/>
		<g id="shape76-1" v:mID="76" v:groupContext="shape" transform="translate(7.33157,-10.125)">
			<title>Sheet.76</title>
			<rect x="0" y="20.8784" width="111.375" height="85.5" rx="4.5" ry="4.5" class="st1"/>
		</g>
		<g id="shape4-3" v:mID="4" v:groupContext="shape" transform="translate(72.1773,-15.3746)">
			<title>path27</title>
			<path d="M0 106.38 L41.12 106.38 L41.12 31.75 L0 31.75 L0 106.38 Z" class="st2"/>
		</g>
		<g id="shape5-5" v:mID="5" v:groupContext="shape" transform="translate(73.0941,-80.7187)">
			<title>text33</title>
			<desc>MSC</desc>
			<v:textBlock v:margins="rect(0,0,0,0)"/>
			<v:textRect cx="9.30625" cy="102.582" width="18.62" height="7.59375"/>
			<rect x="0" y="98.7846" width="18.6125" height="7.59375" class="st3"/>
			<text x="1.76" y="104.48" class="st4" v:langID="1033"><v:paragraph/><v:tabList/>MSC</text>		</g>
		<g id="shape10-8" v:mID="10" v:groupContext="shape" transform="translate(12.375,-51.3281)">
			<title>text51</title>
			<desc>GTM + eGTM</desc>
			<v:textBlock v:margins="rect(0,0,0,0)"/>
			<v:textRect cx="15.75" cy="102.582" width="31.5" height="7.59375"/>
			<rect x="0" y="98.7846" width="31.5" height="7.59375" class="st3"/>
			<text x="8.72" y="96.89" class="st4" v:langID="1031"><v:paragraph v:horizAlign="1"/><v:tabList/>GTM <v:newlineChar/><tspan
						x="13.9" dy="1.2em" class="st5">+ <v:newlineChar/></tspan><tspan x="6.96" dy="1.2em" class="st5">eGTM</tspan> </text>		</g>
		<g id="shape12-13" v:mID="12" v:groupContext="shape" transform="translate(51.7565,-51.0661)">
			<title>text67</title>
			<desc>Data</desc>
			<v:textBlock v:margins="rect(0,0,0,0)"/>
			<v:textRect cx="7.03752" cy="102.582" width="14.08" height="7.59375"/>
			<rect x="0" y="98.7846" width="14.075" height="7.59375" class="st3"/>
			<text x="0" y="104.08" class="st6" v:langID="1033"><v:paragraph/><v:tabList/>Data</text>		</g>
		<g id="shape14-16" v:mID="14" v:groupContext="shape" transform="translate(178.43,-54.7084)">
			<title>path71</title>
			<path d="M0 106.38 L30.82 106.38 L30.82 73.96 L0 73.96 L0 106.38 Z" class="st7"/>
		</g>
		<g id="shape20-18" v:mID="20" v:groupContext="shape" transform="translate(97.0408,-52.1249)">
			<title>path95</title>
			<path d="M16.25 106.38 L16.25 73 L0 73 L0 106.38 L16.25 106.38 Z" class="st7"/>
		</g>
		<g id="shape21-20" v:mID="21" v:groupContext="shape" transform="translate(0.515688,52.3784) rotate(-90)">
			<title>text135</title>
			<desc>Downstream Channel</desc>
			<v:textBlock v:margins="rect(0,0,0,0)"/>
			<v:textRect cx="21.6562" cy="102.582" width="43.32" height="7.59375"/>
			<rect x="0" y="98.7846" width="43.3125" height="7.59375" class="st3"/>
			<text x="0" y="101.23" class="st8" v:langID="1033"><v:paragraph/><v:tabList/>Downstream<v:newlineChar/><tspan x="0"
						dy="1.2em" class="st5">Channel</tspan></text>		</g>
		<g id="shape23-24" v:mID="23" v:groupContext="shape" transform="translate(97.0408,-17.9581)">
			<title>path139</title>
			<path d="M16.25 106.38 L16.25 74.8 L0 74.8 L0 106.38 L16.25 106.38 Z" class="st7"/>
		</g>
		<g id="shape24-26" v:mID="24" v:groupContext="shape" transform="translate(0.515688,86.6909) rotate(-90)">
			<title>text175</title>
			<desc>Upstream Channel</desc>
			<v:textBlock v:margins="rect(0,0,0,0)"/>
			<v:textRect cx="13.625" cy="102.582" width="27.26" height="7.59375"/>
			<rect x="0" y="98.7846" width="27.2501" height="7.59375" class="st3"/>
			<text x="0" y="101.23" class="st8" v:langID="1033"><v:paragraph/><v:tabList/>Upstream<v:newlineChar/><tspan x="0"
						dy="1.2em" class="st5">Channel</tspan></text>		</g>
		<g id="shape26-30" v:mID="26" v:groupContext="shape" transform="translate(123.207,-59.3437)">
			<title>text191</title>
			<desc>Data Clock Select Select</desc>
			<v:textBlock v:margins="rect(0,0,0,0)"/>
			<v:textRect cx="9.5625" cy="91.4721" width="19.13" height="29.8125"/>
			<rect x="0" y="76.5659" width="19.125" height="29.8125" class="st3"/>
			<text x="0" y="80.22" class="st6" v:langID="1033"><v:paragraph v:spAfter="2.5"/><v:tabList/>Data<v:newlineChar/><tspan
						x="0" dy="1.7em" class="st5">Clock<v:newlineChar/></tspan><tspan x="0" dy="1.7em" class="st5">Select<v:newlineChar/></tspan><tspan
						x="0" dy="1.7em" class="st5">Select</tspan></text>		</g>
		<g id="shape27-36" v:mID="27" v:groupContext="shape" transform="translate(113.293,-58.1315)">
			<title>path193</title>
			<path d="M0 106.38 L34.25 106.38 L0 106.38 Z" class="st9"/>
			<path d="M0 106.38 L34.25 106.38" class="st10"/>
		</g>
		<g id="shape28-39" v:mID="28" v:groupContext="shape" transform="translate(122.875,-33.1875)">
			<title>text203</title>
			<desc>Data</desc>
			<v:textBlock v:margins="rect(0,0,0,0)"/>
			<v:textRect cx="8.04062" cy="102.582" width="16.09" height="7.59375"/>
			<rect x="0" y="98.7846" width="16.0812" height="7.59375" class="st3"/>
			<text x="0" y="104.08" class="st6" v:langID="1033"><v:paragraph/><v:tabList/>Data</text>		</g>
		<g id="shape29-42" v:mID="29" v:groupContext="shape" transform="translate(178.43,-17.1185)">
			<title>path205</title>
			<path d="M0 73.96 L0 106.38 L30.82 106.38 L30.82 73.96 L0 73.96 Z" class="st11"/>
		</g>
		<g id="shape30-44" v:mID="30" v:groupContext="shape" transform="translate(178.43,-17.1185)">
			<title>path207</title>
			<path d="M0 106.38 L30.82 106.38 L30.82 73.96 L0 73.96 L0 106.38 Z" class="st7"/>
		</g>
		<g id="shape31-46" v:mID="31" v:groupContext="shape" transform="translate(180.582,-18.5625)">
			<title>text217</title>
			<desc>Power Device 2</desc>
			<v:textBlock v:margins="rect(0,0,0,0)"/>
			<v:textRect cx="13.5" cy="91.7534" width="27" height="29.25"/>
			<rect x="0" y="77.1284" width="27" height="29.25" class="st3"/>
			<text x="6.41" y="87.25" class="st6" v:langID="1033"><v:paragraph v:horizAlign="1"/><v:tabList/>Power<v:newlineChar/><tspan
						x="5.86" dy="1.2em" class="st5">Device<v:newlineChar/></tspan><tspan x="12.11" dy="1.2em" class="st5"
						v:langID="1031">2</tspan></text>		</g>
		<g id="shape37-51" v:mID="37" v:groupContext="shape" transform="translate(163.02,-58.1315)">
			<title>path233</title>
			<path d="M15.41 106.38 L0 106.38 L15.41 106.38 Z" class="st9"/>
			<path d="M15.41 106.38 L0 106.38" class="st10"/>
		</g>
		<g id="shape44-54" v:mID="44" v:groupContext="shape" transform="translate(163.02,-20.5416)">
			<title>path247</title>
			<path d="M15.41 106.38 L0 106.38 L15.41 106.38 Z" class="st9"/>
			<path d="M15.41 106.38 L0 106.38" class="st10"/>
		</g>
		<g id="shape45-57" v:mID="45" v:groupContext="shape" transform="translate(157.84,-46.1183)">
			<title>path249</title>
			<path d="M0 70.02 L0 106.38 L0 70.02 Z" class="st9"/>
			<path d="M0 70.02 L0 106.38" class="st10"/>
		</g>
		<g id="shape46-60" v:mID="46" v:groupContext="shape" transform="translate(156.545,-82.481)">
			<title>path251</title>
			<path d="M1.29 106.38 L0.78 106.31 L0.39 106.06 L0.13 105.6 L0 105.09 L0.13 104.63 L0.39 104.18 L0.78 103.92 L1.29 103.86
						 L1.81 103.92 L2.2 104.18 L2.46 104.63 L2.59 105.09 L2.46 105.6 L2.2 106.06 L1.81 106.31 L1.29 106.38 Z"
					class="st12"/>
		</g>
		<g id="shape47-62" v:mID="47" v:groupContext="shape" transform="translate(156.545,-82.481)">
			<title>path253</title>
			<path d="M1.29 106.38 L0.78 106.31 L0.39 106.06 L0.13 105.6 L0 105.09 L0.13 104.63 L0.39 104.18 L0.78 103.92 L1.29 103.86
						 L1.81 103.92 L2.2 104.18 L2.46 104.63 L2.59 105.09 L2.46 105.6 L2.2 106.06 L1.81 106.31 L1.29 106.38 Z"
					class="st13"/>
		</g>
		<g id="shape48-64" v:mID="48" v:groupContext="shape" transform="translate(152.725,-37.5927)">
			<title>path255</title>
			<path d="M0 70.08 L0 106.38 L0 70.08 Z" class="st9"/>
			<path d="M0 70.08 L0 106.38" class="st10"/>
		</g>
		<g id="shape49-67" v:mID="49" v:groupContext="shape" transform="translate(151.43,-73.8909)">
			<title>path257</title>
			<path d="M1.29 106.38 L0.78 106.25 L0.39 105.99 L0.13 105.54 L0 105.09 L0.13 104.57 L0.39 104.18 L0.78 103.92 L1.29 103.79
						 L1.81 103.92 L2.2 104.18 L2.46 104.57 L2.59 105.09 L2.46 105.54 L2.2 105.99 L1.81 106.25 L1.29 106.38 Z"
					class="st12"/>
		</g>
		<g id="shape50-69" v:mID="50" v:groupContext="shape" transform="translate(151.43,-73.8909)">
			<title>path259</title>
			<path d="M1.29 106.38 L0.78 106.25 L0.39 105.99 L0.13 105.54 L0 105.09 L0.13 104.57 L0.39 104.18 L0.78 103.92 L1.29 103.79
						 L1.81 103.92 L2.2 104.18 L2.46 104.57 L2.59 105.09 L2.46 105.54 L2.2 105.99 L1.81 106.25 L1.29 106.38 Z"
					class="st13"/>
		</g>
		<g id="shape51-71" v:mID="51" v:groupContext="shape" transform="translate(147.545,-29.0672)">
			<title>path261</title>
			<path d="M0 77.31 L0 106.38 L0 77.31 Z" class="st9"/>
			<path d="M0 77.31 L0 106.38" class="st10"/>
		</g>
		<g id="shape52-74" v:mID="52" v:groupContext="shape" transform="translate(163.02,-20.5416)">
			<title>path263</title>
			<path d="M0 94.04 L0 106.38 L0 94.04 Z" class="st9"/>
			<path d="M0 94.04 L0 106.38" class="st10"/>
		</g>
		<g id="shape53-77" v:mID="53" v:groupContext="shape" transform="translate(161.725,-31.8958)">
			<title>path265</title>
			<path d="M1.29 106.38 L0.78 106.25 L0.39 105.99 L0.06 105.54 L0 105.09 L0.06 104.57 L0.39 104.18 L0.78 103.86 L1.29 103.79
						 L1.75 103.86 L2.2 104.18 L2.46 104.57 L2.53 105.09 L2.46 105.54 L2.2 105.99 L1.75 106.25 L1.29 106.38 Z"
					class="st12"/>
		</g>
		<g id="shape54-79" v:mID="54" v:groupContext="shape" transform="translate(161.725,-31.8958)">
			<title>path267</title>
			<path d="M1.29 106.38 L0.78 106.25 L0.39 105.99 L0.06 105.54 L0 105.09 L0.06 104.57 L0.39 104.18 L0.78 103.86 L1.29 103.79
						 L1.75 103.86 L2.2 104.18 L2.46 104.57 L2.53 105.09 L2.46 105.54 L2.2 105.99 L1.75 106.25 L1.29 106.38 Z"
					class="st14"/>
		</g>
		<g id="shape55-81" v:mID="55" v:groupContext="shape" transform="translate(163.02,-34.1696)">
			<title>path269</title>
			<path d="M0 106.38 L0 82.42 L0 106.38 Z" class="st9"/>
			<path d="M0 106.38 L0 82.42" class="st10"/>
		</g>
		<g id="shape56-84" v:mID="56" v:groupContext="shape" transform="translate(44.7887,-63.7506)">
			<title>path271</title>
			<path d="M0 101.79 L25.06 101.79 L25.06 100.57 L27.13 103.47 L25.06 106.38 L25.06 105.15 L0 105.15 L0 101.79 Z"
					class="st11"/>
		</g>
		<g id="shape57-86" v:mID="57" v:groupContext="shape" transform="translate(44.7887,-63.7506)">
			<title>path273</title>
			<path d="M0 101.79 L25.06 101.79 L25.06 100.57 L27.13 103.47 L25.06 106.38 L25.06 105.15 L0 105.15 L0 101.79 Z"
					class="st9"/>
			<path d="M0 101.79 L25.06 101.79 L25.06 100.57 L27.13 103.47 L25.06 106.38 L25.06 105.15 L0 105.15" class="st10"/>
		</g>
		<g id="shape58-89" v:mID="58" v:groupContext="shape" transform="translate(44.7887,-41.5325)">
			<title>path275</title>
			<path d="M0 101.73 L25.06 101.73 L25.06 100.57 L27.13 103.47 L25.06 106.38 L25.06 105.15 L0 105.15 L0 101.73 Z"
					class="st11"/>
		</g>
		<g id="shape59-91" v:mID="59" v:groupContext="shape" transform="translate(44.7887,-41.5325)">
			<title>path277</title>
			<path d="M0 101.73 L25.06 101.73 L25.06 100.57 L27.13 103.47 L25.06 106.38 L25.06 105.15 L0 105.15 L0 101.73 Z"
					class="st9"/>
			<path d="M0 101.73 L25.06 101.73 L25.06 100.57 L27.13 103.47 L25.06 106.38 L25.06 105.15 L0 105.15" class="st10"/>
		</g>
		<g id="shape61-94" v:mID="61" v:groupContext="shape" transform="translate(55.0837,-41.0158)">
			<title>path281</title>
			<path d="M6.86 99.53 L0 106.38 L6.86 99.53 Z" class="st9"/>
			<path d="M6.86 99.53 L0 106.38" class="st10"/>
		</g>
		<g id="shape62-97" v:mID="62" v:groupContext="shape" transform="translate(55.7062,-34.8546)">
			<title>text287</title>
			<desc>32</desc>
			<v:textBlock v:margins="rect(0,0,0,0)"/>
			<v:textRect cx="6.35312" cy="102.582" width="12.71" height="7.59375"/>
			<rect x="0" y="98.7846" width="12.7062" height="7.59375" class="st3"/>
			<text x="0" y="104.08" class="st6" v:langID="1033"><v:paragraph/><v:tabList/>32</text>		</g>
		<g id="shape63-100" v:mID="63" v:groupContext="shape" transform="translate(55.0837,-62.8464)">
			<title>path289</title>
			<path d="M6.86 99.53 L0 106.38 L6.86 99.53 Z" class="st9"/>
			<path d="M6.86 99.53 L0 106.38" class="st10"/>
		</g>
		<g id="shape64-103" v:mID="64" v:groupContext="shape" transform="translate(53.1162,-67.7297)">
			<title>text295</title>
			<desc>32</desc>
			<v:textBlock v:margins="rect(0,0,0,0)"/>
			<v:textRect cx="6.35312" cy="102.582" width="12.71" height="7.59375"/>
			<rect x="0" y="98.7846" width="12.7062" height="7.59375" class="st3"/>
			<text x="0" y="104.08" class="st6" v:langID="1033"><v:paragraph/><v:tabList/>32</text>		</g>
		<g id="shape9-106" v:mID="9" v:groupContext="shape" transform="translate(11.8316,-39.375)">
			<title>path41</title>
			<path d="M0 106.38 L32.96 106.38 L32.96 73.75 L0 73.75 L0 106.38 Z" class="st7"/>
		</g>
		<g id="shape66-108" v:mID="66" v:groupContext="shape" transform="translate(113.293,-83.25)">
			<title>Sheet.66</title>
			<path d="M0 106.38 L61.04 106.38" class="st15"/>
		</g>
		<g id="shape67-114" v:mID="67" v:groupContext="shape" transform="translate(113.293,-74.8125)">
			<title>Sheet.67</title>
			<path d="M0 106.38 L61.04 106.38" class="st15"/>
		</g>
		<g id="shape68-119" v:mID="68" v:groupContext="shape" transform="translate(113.293,-66.1875)">
			<title>Sheet.68</title>
			<path d="M0 106.38 L61.04 106.38" class="st15"/>
		</g>
		<g id="shape69-124" v:mID="69" v:groupContext="shape" transform="translate(157.894,-45.9375)">
			<title>Sheet.69</title>
			<path d="M0 106.38 L16.44 106.38" class="st15"/>
		</g>
		<g id="shape70-129" v:mID="70" v:groupContext="shape" transform="translate(152.644,-37.3125)">
			<title>Sheet.70</title>
			<path d="M0 106.38 L21.69 106.38" class="st15"/>
		</g>
		<g id="shape71-134" v:mID="71" v:groupContext="shape" transform="translate(147.769,-29.0625)">
			<title>Sheet.71</title>
			<path d="M0 106.38 L26.56 106.38" class="st15"/>
		</g>
		<g id="shape72-139" v:mID="72" v:groupContext="shape" transform="translate(113.644,-33.115)">
			<title>Sheet.72</title>
			<path d="M3.74 106.38 L4.1 106.38 L48.09 106.38" class="st17"/>
		</g>
		<g id="shape74-145" v:mID="74" v:groupContext="shape" transform="translate(180.582,-56.4375)">
			<title>text217.74</title>
			<desc>Power Device 1</desc>
			<v:textBlock v:margins="rect(0,0,0,0)"/>
			<v:textRect cx="13.5" cy="91.7534" width="27" height="29.25"/>
			<rect x="0" y="77.1284" width="27" height="29.25" class="st3"/>
			<text x="6.41" y="87.25" class="st6" v:langID="1033"><v:paragraph v:horizAlign="1"/><v:tabList/>Power<v:newlineChar/><tspan
						x="5.86" dy="1.2em" class="st5">Device<v:newlineChar/></tspan><tspan x="12.11" dy="1.2em" class="st5"
						v:langID="1031">1</tspan></text>		</g>
	</g>
</svg>
