<?xml version="1.0" encoding="UTF-8" standalone="no"?>
<!DOCTYPE svg PUBLIC "-//W3C//DTD SVG 1.1//EN" "http://www.w3.org/Graphics/SVG/1.1/DTD/svg11.dtd">
<!-- Generated by Microsoft Visio, SVG Export ShareMemSWprot.svg Page-1 -->
<svg xmlns="http://www.w3.org/2000/svg" xmlns:xlink="http://www.w3.org/1999/xlink" xmlns:ev="http://www.w3.org/2001/xml-events"
		width="5.87317in" height="2.73819in" viewBox="0 0 422.868 197.15" xml:space="preserve" color-interpolation-filters="sRGB"
		class="st11">
	<style type="text/css">
	<![CDATA[
		.st1 {fill:#d8d8d8;stroke:#7f7f7f;stroke-linecap:round;stroke-linejoin:round;stroke-width:0.75}
		.st2 {fill:#000000;font-family:Calibri;font-size:0.499992em}
		.st3 {fill:#ffc000;stroke:#7f7f7f;stroke-linecap:round;stroke-linejoin:round;stroke-width:0.75}
		.st4 {fill:#9dc3e6;stroke:none;stroke-linecap:round;stroke-linejoin:round;stroke-width:0.75}
		.st5 {marker-end:url(#mrkr1-33);marker-start:url(#mrkr1-31);stroke:#000000;stroke-linecap:round;stroke-linejoin:round;stroke-width:1}
		.st6 {fill:#000000;fill-opacity:1;stroke:#000000;stroke-opacity:1;stroke-width:0.28409090909091}
		.st7 {fill:#9dc3e6;stroke:#000000;stroke-linecap:round;stroke-linejoin:round;stroke-width:0.75}
		.st8 {fill:#bfbfbf;stroke:none;stroke-linecap:round;stroke-linejoin:round;stroke-width:0.75}
		.st9 {fill:#ffc000;stroke:none;stroke-linecap:round;stroke-linejoin:round;stroke-width:0.75}
		.st10 {stroke:#000000;stroke-dasharray:0.75,1.5;stroke-linecap:round;stroke-linejoin:round;stroke-width:0.75}
		.st11 {fill:none;fill-rule:evenodd;font-size:12px;overflow:visible;stroke-linecap:square;stroke-miterlimit:3}
	]]>
	</style>

	<defs id="Markers">
		<g id="lend1">
			<path d="M 1 -1 L 0 0 L 1 1 " style="stroke-linecap:round;stroke-linejoin:round;fill:none"/>
		</g>
		<marker id="mrkr1-31" class="st6" orient="auto" markerUnits="strokeWidth" overflow="visible">
			<use xlink:href="#lend1" transform="scale(3.52) "/>
		</marker>
		<marker id="mrkr1-33" class="st6" orient="auto" markerUnits="strokeWidth" overflow="visible">
			<use xlink:href="#lend1" transform="scale(-3.52,-3.52) "/>
		</marker>
	</defs>
	<g>
		<title>Page-1</title>
		<g id="shape44-1" transform="translate(171.496,-61.0866)">
			<title>Sheet.44</title>
			<desc>Checker Core DISABLED</desc>
			<path d="M0 61.09 L0 197.15 L121.48 197.15 L121.48 61.09 L0 61.09 L0 61.09 Z" class="st1"/>
			<text x="4" y="70.49" class="st2">Checker Core DISABLED</text>		</g>
		<g id="shape43-4" transform="translate(12.5532,-61.0866)">
			<title>Sheet.43</title>
			<desc>Checker Core ENABLED</desc>
			<path d="M0 61.09 L0 197.15 L121.48 197.15 L121.48 61.09 L0 61.09 L0 61.09 Z" class="st3"/>
			<text x="4" y="70.49" class="st2">Checker Core ENABLED</text>		</g>
		<g id="shape1-7" transform="translate(158.335,-50.4567)">
			<title>Sheet.1</title>
			<desc>DLS-CPUz</desc>
			<path d="M0 61.09 L0 197.15 L121.48 197.15 L121.48 61.09 L0 61.09 L0 61.09 Z" class="st3"/>
			<text x="4" y="70.49" class="st2">DLS-CPUz</text>		</g>
		<g id="shape2-10" transform="translate(241.957,-83.2935)">
			<title>Sheet.2</title>
			<desc>PSPR</desc>
			<path d="M0 197.15 L0 180.62 L28.79 180.62 L28.79 197.15 L0 197.15 Z" class="st4"/>
			<text x="8.29" y="190.68" class="st2">PSPR</text>		</g>
		<g id="shape3-13" transform="translate(167.809,-83.2935)">
			<title>Sheet.3</title>
			<desc>DSPR</desc>
			<path d="M0 197.15 L0 180.62 L28.79 180.62 L28.79 197.15 L0 197.15 Z" class="st4"/>
			<text x="7.99" y="190.68" class="st2">DSPR</text>		</g>
		<g id="shape4-16" transform="translate(204.883,-83.2935)">
			<title>Sheet.4</title>
			<desc>DLMU</desc>
			<path d="M0 197.15 L0 180.62 L28.79 180.62 L28.79 197.15 L0 197.15 Z" class="st4"/>
			<text x="6.8" y="190.68" class="st2">DLMU</text>		</g>
		<g id="shape5-19" transform="translate(167.459,-131.244)">
			<title>Sheet.5</title>
			<desc>CORE</desc>
			<path d="M0 197.15 L0 157.12 L102.84 157.12 L102.84 197.15 L0 197.15 Z" class="st4"/>
			<text x="44.74" y="178.94" class="st2">CORE</text>		</g>
		<g id="shape7-22" transform="translate(231.53,-50.2749)">
			<title>Sheet.7</title>
			<desc>S-SRI</desc>
			<path d="M0 197.15 L0 180.62 L28.79 180.62 L28.79 197.15 L0 197.15 Z" class="st4"/>
			<text x="8.34" y="190.68" class="st2">S-SRI</text>		</g>
		<g id="shape8-25" transform="translate(442.057,146.693) rotate(90)">
			<title>Sheet.8</title>
			<path d="M0 197.15 L25.51 197.15" class="st5"/>
		</g>
		<g id="shape9-34" transform="translate(173.346,-131.414)">
			<title>Sheet.9</title>
			<desc>DMBI</desc>
			<path d="M0 197.15 L0 180.62 L28.79 180.62 L28.79 197.15 L0 197.15 Z" class="st7"/>
			<text x="7.6" y="190.68" class="st2">DMBI</text>		</g>
		<g id="shape10-37" transform="translate(237.126,-131.414)">
			<title>Sheet.10</title>
			<desc>PMBI</desc>
			<path d="M0 197.15 L0 180.62 L28.79 180.62 L28.79 197.15 L0 197.15 Z" class="st7"/>
			<text x="7.89" y="190.68" class="st2">PMBI</text>		</g>
		<g id="shape11-40" transform="translate(-3.19744E-14,-50.4567)">
			<title>Sheet.11</title>
			<desc>LS-CPUx</desc>
			<path d="M0 61.09 L0 197.15 L121.48 197.15 L121.48 61.09 L0 61.09 L0 61.09 Z" class="st3"/>
			<text x="4" y="70.49" class="st2">LS-CPUx</text>		</g>
		<g id="shape12-43" transform="translate(2.83465,0)">
			<title>Sheet.12</title>
			<desc>SRI</desc>
			<path d="M0 172.39 L0 197.15 L420.03 197.15 L420.03 172.39 L0 172.39 L0 172.39 Z" class="st8"/>
			<text x="4" y="181.79" class="st2">SRI</text>		</g>
		<g id="shape14-46" transform="translate(7.30167,-131.244)">
			<title>Sheet.14</title>
			<desc>CORE</desc>
			<path d="M0 197.15 L0 157.12 L102.84 157.12 L102.84 197.15 L0 197.15 Z" class="st4"/>
			<text x="44.74" y="178.94" class="st2">CORE</text>		</g>
		<g id="shape15-49" transform="translate(17.7601,-50.2749)">
			<title>Sheet.15</title>
			<desc>M-SRI</desc>
			<path d="M0 197.15 L0 180.62 L28.79 180.62 L28.79 197.15 L0 197.15 Z" class="st4"/>
			<text x="7.15" y="190.68" class="st2">M-SRI</text>		</g>
		<g id="shape16-52" transform="translate(-164.818,172.387) rotate(-90)">
			<title>Sheet.16</title>
			<path d="M0 197.15 L25.51 197.15" class="st5"/>
		</g>
		<g id="shape17-59" transform="translate(13.189,-131.414)">
			<title>Sheet.17</title>
			<desc>DMBI</desc>
			<path d="M0 197.15 L0 180.62 L28.79 180.62 L28.79 197.15 L0 197.15 Z" class="st7"/>
			<text x="7.6" y="190.68" class="st2">DMBI</text>		</g>
		<g id="shape18-62" transform="translate(76.9685,-131.414)">
			<title>Sheet.18</title>
			<desc>PMBI</desc>
			<path d="M0 197.15 L0 180.62 L28.79 180.62 L28.79 197.15 L0 197.15 Z" class="st7"/>
			<text x="7.89" y="190.68" class="st2">PMBI</text>		</g>
		<g id="shape31-65" transform="translate(344.915,-62.5039)">
			<title>Sheet.31</title>
			<desc>LMU</desc>
			<rect x="0" y="135.638" width="64.0474" height="61.5118" class="st9"/>
			<text x="4" y="145.04" class="st2">LMU</text>		</g>
		<g id="shape32-68" transform="translate(369.159,-62.5039)">
			<title>Sheet.32</title>
			<desc>S-SRI</desc>
			<path d="M0 197.15 L0 180.62 L28.79 180.62 L28.79 197.15 L0 197.15 Z" class="st4"/>
			<text x="8.34" y="190.68" class="st2">S-SRI</text>		</g>
		<g id="shape35-71" transform="translate(185.437,172.387) rotate(-90)">
			<title>Sheet.35</title>
			<path d="M0 197.15 L37.74 197.15" class="st5"/>
		</g>
		<g id="shape36-78" transform="translate(32.3317,-31.8497)">
			<title>Dynamic connector.41</title>
			<path d="M0 204.24 L0 216.1 L350.25 216.1 L350.25 204.24" class="st10"/>
		</g>
		<g id="shape37-81" transform="translate(442.057,172.205) rotate(90)">
			<title>Sheet.37</title>
			<path d="M0 197.15 L12.9 197.15" class="st10"/>
		</g>
		<g id="shape40-84" transform="translate(83.6638,-83.7638)">
			<title>Sheet.40</title>
			<desc>PSPR</desc>
			<path d="M0 197.15 L0 180.62 L28.79 180.62 L28.79 197.15 L0 197.15 Z" class="st4"/>
			<text x="8.29" y="190.68" class="st2">PSPR</text>		</g>
		<g id="shape41-87" transform="translate(9.51591,-83.7638)">
			<title>Sheet.41</title>
			<desc>DSPR</desc>
			<path d="M0 197.15 L0 180.62 L28.79 180.62 L28.79 197.15 L0 197.15 Z" class="st4"/>
			<text x="7.99" y="190.68" class="st2">DSPR</text>		</g>
		<g id="shape42-90" transform="translate(46.5899,-83.7638)">
			<title>Sheet.42</title>
			<desc>DLMU</desc>
			<path d="M0 197.15 L0 180.62 L28.79 180.62 L28.79 197.15 L0 197.15 Z" class="st4"/>
			<text x="6.8" y="190.68" class="st2">DLMU</text>		</g>
		<g id="shape46-93" transform="translate(75.3406,-50.3915)">
			<title>Sheet.46</title>
			<desc>S-SRI</desc>
			<path d="M0 197.15 L0 180.62 L28.79 180.62 L28.79 197.15 L0 197.15 Z" class="st4"/>
			<text x="8.34" y="190.68" class="st2">S-SRI</text>		</g>
		<g id="shape47-96" transform="translate(285.868,146.576) rotate(90)">
			<title>Sheet.47</title>
			<path d="M0 197.15 L25.51 197.15" class="st5"/>
		</g>
		<g id="shape48-103" transform="translate(285.868,172.088) rotate(90)">
			<title>Sheet.48</title>
			<path d="M0 197.15 L12.9 197.15" class="st10"/>
		</g>
	</g>
</svg>
