<?xml version="1.0" encoding="UTF-8" standalone="no"?>
<!DOCTYPE svg PUBLIC "-//W3C//DTD SVG 1.1//EN" "http://www.w3.org/Graphics/SVG/1.1/DTD/svg11.dtd">
<!-- Generated by Microsoft Visio, SVG Export PPU_Stream.svg Page-1 -->
<svg xmlns="http://www.w3.org/2000/svg" xmlns:xlink="http://www.w3.org/1999/xlink" xmlns:ev="http://www.w3.org/2001/xml-events"
		width="5.53695in" height="3.42803in" viewBox="0 0 398.66 246.818" xml:space="preserve" color-interpolation-filters="sRGB"
		class="st16">
	<style type="text/css">
	<![CDATA[
		.st1 {fill:#bfbfbf;stroke:none;stroke-linecap:round;stroke-linejoin:round;stroke-width:0.75}
		.st2 {fill:#000000;font-family:Calibri;font-size:0.499992em}
		.st3 {fill:#ffc000;stroke:none;stroke-linecap:round;stroke-linejoin:round;stroke-width:0.75}
		.st4 {fill:#bfbfbf;stroke:#000000;stroke-linecap:round;stroke-linejoin:round;stroke-width:0.75}
		.st5 {marker-end:url(#mrkr1-30);marker-start:url(#mrkr1-28);stroke:#000000;stroke-linecap:round;stroke-linejoin:round;stroke-width:1}
		.st6 {fill:#000000;fill-opacity:1;stroke:#000000;stroke-opacity:1;stroke-width:0.28409090909091}
		.st7 {fill:#9dc3e6;stroke:none;stroke-linecap:round;stroke-linejoin:round;stroke-width:0.75}
		.st8 {fill:#d8d8d8;stroke:none;stroke-linecap:round;stroke-linejoin:round;stroke-width:0.75}
		.st9 {font-size:1em}
		.st10 {marker-end:url(#mrkr1-30);stroke:#000000;stroke-linecap:round;stroke-linejoin:round;stroke-width:1}
		.st11 {stroke:#000000;stroke-linecap:round;stroke-linejoin:round;stroke-width:1}
		.st12 {stroke:#000000;stroke-dasharray:5.25,3.75;stroke-linecap:round;stroke-linejoin:round;stroke-width:0.75}
		.st13 {marker-start:url(#mrkr1-143);stroke:#ff0000;stroke-linecap:round;stroke-linejoin:round;stroke-width:0.75}
		.st14 {fill:#ff0000;fill-opacity:1;stroke:#ff0000;stroke-opacity:1;stroke-width:0.22935779816514}
		.st15 {stroke:#000000;stroke-dasharray:0.75,1.5;stroke-linecap:round;stroke-linejoin:round;stroke-width:0.75}
		.st16 {fill:none;fill-rule:evenodd;font-size:12px;overflow:visible;stroke-linecap:square;stroke-miterlimit:3}
	]]>
	</style>

	<defs id="Markers">
		<g id="lend1">
			<path d="M 1 -1 L 0 0 L 1 1 " style="stroke-linecap:round;stroke-linejoin:round;fill:none"/>
		</g>
		<marker id="mrkr1-28" class="st6" orient="auto" markerUnits="strokeWidth" overflow="visible">
			<use xlink:href="#lend1" transform="scale(3.52) "/>
		</marker>
		<marker id="mrkr1-30" class="st6" orient="auto" markerUnits="strokeWidth" overflow="visible">
			<use xlink:href="#lend1" transform="scale(-3.52,-3.52) "/>
		</marker>
		<marker id="mrkr1-143" class="st14" orient="auto" markerUnits="strokeWidth" overflow="visible">
			<use xlink:href="#lend1" transform="scale(4.36) "/>
		</marker>
	</defs>
	<g>
		<title>Page-1</title>
		<g id="shape67-1" transform="translate(25.0487,-21.3618)">
			<title>Sheet.67</title>
			<desc>CPU</desc>
			<rect x="0" y="130.598" width="64.7404" height="116.22" class="st1"/>
			<text x="4" y="140" class="st2">CPU</text>		</g>
		<g id="shape77-4" transform="translate(137.893,-3.4113)">
			<title>Sheet.77</title>
			<desc>SRI</desc>
			<rect x="0" y="13.4345" width="28.2654" height="233.384" class="st1"/>
			<text x="4" y="22.83" class="st2">SRI</text>		</g>
		<g id="shape80-7" transform="translate(26.685,-192.757)">
			<title>Sheet.80</title>
			<desc>LMU</desc>
			<rect x="0" y="204.097" width="63.3324" height="42.7214" class="st1"/>
			<text x="4" y="213.5" class="st2">LMU</text>		</g>
		<g id="shape66-10" transform="translate(284.026,-38.8444)">
			<title>Sheet.66</title>
			<desc>PPU</desc>
			<path d="M0 103.2 L0 246.82 L92.13 246.82 L92.13 103.2 L0 103.2 L0 103.2 Z" class="st3"/>
			<text x="4" y="112.6" class="st2">PPU</text>		</g>
		<g id="shape36-13" transform="translate(301.971,-203.722)">
			<title>Sheet.36</title>
			<desc>IR</desc>
			<rect x="0" y="204.097" width="50.5672" height="42.7214" class="st1"/>
			<text x="4" y="213.5" class="st2">IR</text>		</g>
		<g id="shape38-16" transform="translate(331.908,-215.06)">
			<title>Sheet.38</title>
			<desc>SRNi</desc>
			<rect x="0" y="230.287" width="20.6299" height="16.5312" class="st4"/>
			<text x="4" y="239.69" class="st2">SRNi</text>		</g>
		<g id="shape39-19" transform="translate(302.601,-214.97)">
			<title>Sheet.39</title>
			<desc>ICUx</desc>
			<rect x="0" y="230.287" width="20.6299" height="16.5312" class="st4"/>
			<text x="4" y="239.69" class="st2">ICUx</text>		</g>
		<g id="shape45-22" transform="translate(90.0174,-208.448)">
			<title>Sheet.45</title>
			<path d="M0 246.82 L47.88 246.82" class="st5"/>
		</g>
		<g id="shape50-31" transform="translate(25.277,-145.848)">
			<title>Sheet.50</title>
			<desc>NVM</desc>
			<rect x="0" y="209.528" width="64.7404" height="37.2904" class="st1"/>
			<text x="4" y="218.93" class="st2">NVM</text>		</g>
		<g id="shape52-34" transform="translate(284.026,-126.495)">
			<title>Sheet.52</title>
			<desc>M-SRI</desc>
			<path d="M0 246.82 L0 230.29 L28.79 230.29 L28.79 246.82 L0 246.82 Z" class="st7"/>
			<text x="7.15" y="240.35" class="st2">M-SRI</text>		</g>
		<g id="shape53-37" transform="translate(284.026,-73.8028)">
			<title>Sheet.53</title>
			<desc>S-SRI</desc>
			<path d="M0 246.82 L0 230.29 L28.79 230.29 L28.79 246.82 L0 246.82 Z" class="st7"/>
			<text x="8.34" y="240.35" class="st2">S-SRI</text>		</g>
		<g id="shape55-40" transform="translate(137.893,-3.4113)">
			<title>Sheet.55</title>
			<desc>S2L bridge</desc>
			<path d="M0 246.82 L0 230.29 L28.27 230.29 L28.27 246.82 L0 246.82 Z" class="st8"/>
			<text x="9.97" y="236.75" class="st2">S2L <tspan x="6.34" dy="1.2em" class="st9">bridge</tspan></text>		</g>
		<g id="shape56-44" transform="translate(61.2239,-201.362)">
			<title>Sheet.56</title>
			<desc>S-SRI</desc>
			<path d="M0 246.82 L0 230.29 L28.79 230.29 L28.79 246.82 L0 246.82 Z" class="st8"/>
			<text x="8.34" y="240.35" class="st2">S-SRI</text>		</g>
		<g id="shape58-47" transform="translate(60.9956,-43.0984)">
			<title>Sheet.58</title>
			<desc>M-SRI</desc>
			<path d="M0 246.82 L0 230.29 L28.79 230.29 L28.79 246.82 L0 246.82 Z" class="st8"/>
			<text x="7.15" y="240.35" class="st2">M-SRI</text>		</g>
		<g id="shape60-50" transform="translate(25.277,-80.8894)">
			<title>Sheet.60</title>
			<desc>CFI</desc>
			<path d="M0 246.82 L0 230.29 L28.79 230.29 L28.79 246.82 L0 246.82 Z" class="st8"/>
			<text x="10.66" y="240.35" class="st2">CFI</text>		</g>
		<g id="shape61-53" transform="translate(43.0222,-151.756)">
			<title>Sheet.61</title>
			<desc>PFLASH</desc>
			<path d="M0 246.82 L0 230.29 L28.79 230.29 L28.79 246.82 L0 246.82 Z" class="st8"/>
			<text x="5.22" y="240.35" class="st2">PFLASH</text>		</g>
		<g id="shape63-56" transform="translate(61.2239,-80.8894)">
			<title>Sheet.63</title>
			<desc>RAM</desc>
			<path d="M0 246.82 L0 230.29 L20.63 230.29 L20.63 246.82 L0 246.82 Z" class="st8"/>
			<text x="4.39" y="240.35" class="st2">RAM</text>		</g>
		<g id="shape64-59" transform="translate(90.0174,-117.74)">
			<title>Sheet.64</title>
			<path d="M0 246.82 L47.88 246.82" class="st5"/>
		</g>
		<g id="shape65-66" transform="translate(90.0174,-52.5429)">
			<title>Sheet.65</title>
			<path d="M0 246.82 L47.88 246.82" class="st5"/>
		</g>
		<g id="shape78-73" transform="translate(265.655,-0.375)">
			<title>Sheet.78</title>
			<desc>LLI</desc>
			<rect x="0" y="222.997" width="132.63" height="23.8215" class="st1"/>
			<text x="4" y="232.4" class="st2">LLI</text>		</g>
		<g id="shape83-76" transform="translate(293.888,-38.8444)">
			<title>Sheet.83</title>
			<desc>S-LLI</desc>
			<path d="M0 246.82 L0 230.29 L28.79 230.29 L28.79 246.82 L0 246.82 Z" class="st7"/>
			<text x="8.82" y="240.35" class="st2">S-LLI</text>		</g>
		<g id="shape87-79" transform="translate(60.9956,-109.236)">
			<title>Sheet.87</title>
			<desc>S-SRI</desc>
			<path d="M0 246.82 L0 230.29 L28.79 230.29 L28.79 246.82 L0 246.82 Z" class="st8"/>
			<text x="8.34" y="240.35" class="st2">S-SRI</text>		</g>
		<g id="shape93-82" transform="translate(166.159,-134.748)">
			<title>Sheet.93</title>
			<path d="M0 246.82 L117.87 246.82" class="st5"/>
		</g>
		<g id="shape94-89" transform="translate(166.159,-80.8894)">
			<title>Sheet.94</title>
			<path d="M0 246.82 L117.87 246.82" class="st5"/>
		</g>
		<g id="shape95-96" transform="translate(555.103,207.974) rotate(90)">
			<title>Sheet.95</title>
			<path d="M0 246.82 L14.17 246.82" class="st5"/>
		</g>
		<g id="shape97-103" transform="translate(4.97803,-158.842)">
			<title>Sheet.97</title>
			<path d="M0 246.82 L38.04 246.82" class="st10"/>
		</g>
		<g id="shape98-108" transform="translate(4.97803,-87.976)">
			<title>Sheet.98</title>
			<path d="M0 246.82 L20.07 246.82" class="st10"/>
		</g>
		<g id="shape99-113" transform="translate(-241.84,158.842) rotate(-90)">
			<title>Sheet.99</title>
			<path d="M0 246.82 L70.87 246.82" class="st11"/>
		</g>
		<g id="shape104-116" transform="translate(137.893,-208.448)">
			<title>Dynamic connector.104</title>
			<path d="M0 246.82 L14.04 246.82 L14.04 320.52 L28.27 320.52" class="st12"/>
		</g>
		<g id="shape105-119" transform="translate(137.893,-117.508)">
			<title>Dynamic connector.105</title>
			<path d="M0 246.82 L14.04 246.82 L14.04 229.58 L28.27 229.58" class="st12"/>
		</g>
		<g id="shape106-122" transform="translate(137.893,-52.5429)">
			<title>Dynamic connector.106</title>
			<path d="M0 246.82 L13.07 246.82 L13.07 218.63 L28.27 218.63" class="st12"/>
		</g>
		<g id="shape107-125" transform="translate(137.341,-52.5429)">
			<title>Dynamic connector.107</title>
			<path d="M0.55 246.82 L13.62 246.82 L13.62 279.42" class="st12"/>
		</g>
		<g id="shape108-128" transform="translate(166.744,-12.4464) rotate(0.135822)">
			<title>Sheet.108</title>
			<path d="M0 246.82 L99.5 246.82" class="st5"/>
		</g>
		<g id="shape109-135" transform="translate(308.285,-25.2905)">
			<title>Dynamic connector.109</title>
			<path d="M0 247.91 L0 259.9 L-42.63 259.9" class="st12"/>
		</g>
		<g id="shape110-138" transform="translate(290.27,-182.462)">
			<title>Dynamic connector.110</title>
			<path d="M1.84 246.82 L1.84 206.04 L12.33 206.04" class="st13"/>
		</g>
		<g id="shape111-144" transform="translate(351.355,-223.564)">
			<title>Dynamic connector.111</title>
			<path d="M1.18 246.82 L12.99 246.82 L12.99 287.92" class="st13"/>
		</g>
		<g id="shape112-149" transform="translate(64.4522,-110.415)">
			<title>Dynamic connector.112</title>
			<path d="M7.09 248 L7.09 259.81" class="st15"/>
		</g>
		<g id="shape113-152" transform="translate(60.9956,-117.501)">
			<title>Dynamic connector.113</title>
			<path d="M0 246.82 L-21.32 246.82 L-21.32 266.9" class="st15"/>
		</g>
	</g>
</svg>
