<?xml version="1.0" encoding="UTF-8" standalone="no"?>
<!DOCTYPE svg PUBLIC "-//W3C//DTD SVG 1.1//EN" "http://www.w3.org/Graphics/SVG/1.1/DTD/svg11.dtd">
<!-- Generated by Microsoft Visio, SVG Export TC4xx_TUC_RedundantGPI.svg Page-1 -->
<svg xmlns="http://www.w3.org/2000/svg" xmlns:xlink="http://www.w3.org/1999/xlink" xmlns:ev="http://www.w3.org/2001/xml-events"
		width="5.22455in" height="2.90412in" viewBox="0 0 376.168 209.096" xml:space="preserve" color-interpolation-filters="sRGB"
		class="st16">
	<style type="text/css">
	<![CDATA[
		.st1 {fill:none;stroke:#000000;stroke-dasharray:5.25,3.75;stroke-linecap:round;stroke-linejoin:round;stroke-width:0.75}
		.st2 {fill:#000000;font-family:Calibri;font-size:0.499992em}
		.st3 {baseline-shift:32.4949%;font-size:0.649897em}
		.st4 {font-size:1em}
		.st5 {fill:#9dc3e6;stroke:none;stroke-linecap:round;stroke-linejoin:round;stroke-width:0.75}
		.st6 {fill:#bfbfbf;stroke:none;stroke-linecap:round;stroke-linejoin:round;stroke-width:0.75}
		.st7 {fill:#000000;font-family:Calibri;font-size:0.499992em;font-weight:bold}
		.st8 {fill:#ffc000;stroke:none;stroke-linecap:round;stroke-linejoin:round;stroke-width:0.75}
		.st9 {stroke:#000000;stroke-dasharray:5.25,3.75;stroke-linecap:round;stroke-linejoin:round;stroke-width:0.75}
		.st10 {marker-end:url(#mrkr1-40);marker-start:url(#mrkr1-38);stroke:#000000;stroke-linecap:round;stroke-linejoin:round;stroke-width:1}
		.st11 {fill:#000000;fill-opacity:1;stroke:#000000;stroke-opacity:1;stroke-width:0.28409090909091}
		.st12 {fill:none;stroke:none;stroke-linecap:round;stroke-linejoin:round;stroke-width:0.75}
		.st13 {marker-end:url(#mrkr1-59);stroke:#ff0000;stroke-linecap:round;stroke-linejoin:round;stroke-width:1}
		.st14 {fill:#ff0000;fill-opacity:1;stroke:#ff0000;stroke-opacity:1;stroke-width:0.28409090909091}
		.st15 {fill:#d8d8d8;stroke:none;stroke-linecap:round;stroke-linejoin:round;stroke-width:0.75}
		.st16 {fill:none;fill-rule:evenodd;font-size:12px;overflow:visible;stroke-linecap:square;stroke-miterlimit:3}
	]]>
	</style>

	<defs id="Markers">
		<g id="lend1">
			<path d="M 1 -1 L 0 0 L 1 1 " style="stroke-linecap:round;stroke-linejoin:round;fill:none"/>
		</g>
		<marker id="mrkr1-38" class="st11" orient="auto" markerUnits="strokeWidth" overflow="visible">
			<use xlink:href="#lend1" transform="scale(3.52) "/>
		</marker>
		<marker id="mrkr1-40" class="st11" orient="auto" markerUnits="strokeWidth" overflow="visible">
			<use xlink:href="#lend1" transform="scale(-3.52,-3.52) "/>
		</marker>
		<marker id="mrkr1-59" class="st14" orient="auto" markerUnits="strokeWidth" overflow="visible">
			<use xlink:href="#lend1" transform="scale(-3.52,-3.52) "/>
		</marker>
	</defs>
	<g>
		<title>Page-1</title>
		<g id="shape33-1" transform="translate(113.364,-0.375)">
			<title>Sheet.33</title>
			<desc>AURIXTM TC4xx MCU</desc>
			<path d="M0 209.1 L262.43 209.1 L262.43 0.75 L0 0.75 L0 209.1 Z" class="st1"/>
			<text x="4" y="10.15" class="st2">AURIX<tspan dy="-0.234em" class="st3">TM</tspan><tspan dy="0.152em" class="st4"> </tspan>TC4xx MCU</text>		</g>
		<g id="shape34-6" transform="translate(98.9676,-59.7823)">
			<title>Sheet.34</title>
			<desc>Package</desc>
			<path d="M0 209.1 L0 98.43 L28.79 98.43 L28.79 209.1 L0 209.1 Z" class="st5"/>
			<text x="4.44" y="107.83" class="st2">Package</text>		</g>
		<g id="shape36-9" transform="translate(251.04,-32.6306)">
			<title>Sheet.36</title>
			<desc>FPI</desc>
			<rect x="0" y="56.876" width="22.7329" height="152.22" class="st6"/>
			<text x="4" y="66.28" class="st2">FPI</text>		</g>
		<g id="shape37-12" transform="translate(0.375,-124.334)">
			<title>Sheet.37</title>
			<desc>External digital signal source 1</desc>
			<rect x="0" y="184.237" width="49.4334" height="24.8596" class="st6"/>
			<text x="4" y="193.64" class="st7">External digital <tspan x="4" dy="1.2em" class="st4">signal source 1</tspan></text>		</g>
		<g id="shape39-16" transform="translate(157.67,-122.292)">
			<title>Sheet.39</title>
			<desc>PORT module Pab*</desc>
			<path d="M0 160.93 L0 209.1 L55.13 209.1 L55.13 160.93 L0 160.93 L0 160.93 Z" class="st8"/>
			<text x="4" y="170.34" class="st2">PORT module Pab*</text>		</g>
		<g id="shape44-19" transform="translate(251.04,-138.99)">
			<title>Dynamic connector.226</title>
			<path d="M0 209.1 L10.9 209.1 L10.9 298.45 L22.73 298.45" class="st9"/>
		</g>
		<g id="shape45-22" transform="translate(306.344,-33.9849)">
			<title>Sheet.45</title>
			<desc>CPU</desc>
			<rect x="0" y="151.998" width="49.4334" height="57.0988" class="st6"/>
			<text x="4" y="161.4" class="st2">CPU</text>		</g>
		<g id="shape51-25" transform="translate(157.67,-54.9475)">
			<title>Sheet.51</title>
			<desc>PORT module Pxy*</desc>
			<path d="M0 160.93 L0 209.1 L55.13 209.1 L55.13 160.93 L0 160.93 L0 160.93 Z" class="st8"/>
			<text x="4" y="170.34" class="st2">PORT module Pxy*</text>		</g>
		<g id="shape53-28" transform="translate(0.375,-74.728)">
			<title>Sheet.53</title>
			<desc>External digital signal source 2</desc>
			<rect x="0" y="184.237" width="49.4334" height="24.8596" class="st6"/>
			<text x="4" y="193.64" class="st7">External digital <tspan x="4" dy="1.2em" class="st4">signal source 2</tspan></text>		</g>
		<g id="shape54-32" transform="translate(212.8,-138.99)">
			<title>Sheet.54</title>
			<path d="M0 209.1 L38.24 209.1" class="st10"/>
		</g>
		<g id="shape60-41" transform="translate(242.139,-1.79232)">
			<title>Sheet.60</title>
			<desc>*physical separation between redundant channels</desc>
			<rect x="0" y="200.593" width="133.654" height="8.50394" class="st12"/>
			<text x="6.71" y="206.64" class="st2">*physical separation between redundant channels</text>		</g>
		<g id="shape61-44" transform="translate(306.344,368.554) rotate(180)">
			<title>Sheet.61</title>
			<path d="M0 209.1 L32.57 209.1" class="st10"/>
		</g>
		<g id="shape68-51" transform="translate(261.942,344.117) rotate(180)">
			<title>Sheet.68</title>
			<path d="M0 209.1 L10.9 209.1" class="st9"/>
		</g>
		<g id="shape86-54" transform="translate(49.8084,-137.855)">
			<title>Sheet.86</title>
			<path d="M0 209.1 L107.86 209.1" class="st13"/>
		</g>
		<g id="shape87-60" transform="translate(49.8084,-87.6523)">
			<title>Sheet.87</title>
			<path d="M0 209.1 L107.86 209.1" class="st13"/>
		</g>
		<g id="shape88-65" transform="translate(49.5848,-137.855)">
			<title>Sheet.88</title>
			<desc>Mission ch.</desc>
			<rect x="0" y="200.593" width="49.6063" height="8.50394" class="st12"/>
			<text x="4" y="206.64" class="st2">Mission ch.</text>		</g>
		<g id="shape89-68" transform="translate(49.8084,-88.249)">
			<title>Sheet.89</title>
			<desc>Monitoring ch.</desc>
			<rect x="0" y="200.593" width="60.745" height="8.50394" class="st12"/>
			<text x="4" y="206.64" class="st2">Monitoring ch.</text>		</g>
		<g id="shape90-71" transform="translate(306.8,-40.5367)">
			<title>Sheet.90</title>
			<desc>FPI Master I/F</desc>
			<path d="M0 209.1 L0 192.57 L39.23 192.57 L39.23 209.1 L0 209.1 Z" class="st15"/>
			<text x="15.93" y="199.03" class="st2">FPI  <tspan x="6.92" dy="1.2em" class="st4">Master I/F</tspan></text>		</g>
		<g id="shape92-75" transform="translate(184.007,-130.769)">
			<title>Sheet.92</title>
			<desc>FPI Slave I/F</desc>
			<path d="M0 209.1 L0 192.57 L28.79 192.57 L28.79 209.1 L0 209.1 Z" class="st5"/>
			<text x="10.71" y="199.03" class="st2">FPI <tspan x="4.07" dy="1.2em" class="st4">Slave I/F</tspan></text>		</g>
		<g id="shape93-79" transform="translate(184.007,-66.076)">
			<title>Sheet.93</title>
			<desc>FPI Slave I/F</desc>
			<path d="M0 209.1 L0 192.57 L28.79 192.57 L28.79 209.1 L0 209.1 Z" class="st5"/>
			<text x="10.71" y="199.03" class="st2">FPI <tspan x="4.07" dy="1.2em" class="st4">Slave I/F</tspan></text>		</g>
		<g id="shape94-83" transform="translate(212.8,-74.0758)">
			<title>Sheet.94</title>
			<path d="M0 209.1 L38.24 209.1" class="st10"/>
		</g>
	</g>
</svg>
