<?xml version="1.0" encoding="UTF-8" standalone="no"?>
<!DOCTYPE svg PUBLIC "-//W3C//DTD SVG 1.1//EN" "http://www.w3.org/Graphics/SVG/1.1/DTD/svg11.dtd">
<!-- Generated by Microsoft Visio, SVG Export TC4xx_TUC_RedSentCh.svg Page-1 -->
<svg xmlns="http://www.w3.org/2000/svg" xmlns:xlink="http://www.w3.org/1999/xlink" xmlns:ev="http://www.w3.org/2001/xml-events"
		width="6.88417in" height="2.36278in" viewBox="0 0 495.66 170.12" xml:space="preserve" color-interpolation-filters="sRGB"
		class="st17">
	<style type="text/css">
	<![CDATA[
		.st1 {fill:#ffffff;stroke:#000000;stroke-dasharray:5.25,3.75;stroke-linecap:round;stroke-linejoin:round;stroke-width:0.75}
		.st2 {fill:#000000;font-family:Calibri;font-size:0.499992em}
		.st3 {baseline-shift:32.4949%;font-size:0.649897em}
		.st4 {font-size:1em}
		.st5 {fill:#ffc000;stroke:none;stroke-linecap:round;stroke-linejoin:round;stroke-width:0.75}
		.st6 {fill:#bfbfbf;stroke:none;stroke-linecap:round;stroke-linejoin:round;stroke-width:0.75}
		.st7 {fill:#99ccff;stroke:none;stroke-linecap:round;stroke-linejoin:round;stroke-width:0.75}
		.st8 {stroke:none;stroke-linecap:round;stroke-linejoin:round;stroke-width:0.75}
		.st9 {marker-end:url(#mrkr1-62);marker-start:url(#mrkr1-60);stroke:#ff0000;stroke-linecap:round;stroke-linejoin:round;stroke-width:1}
		.st10 {fill:#ff0000;fill-opacity:1;stroke:#ff0000;stroke-opacity:1;stroke-width:0.28409090909091}
		.st11 {marker-end:url(#mrkr1-78);marker-start:url(#mrkr1-76);stroke:#000000;stroke-linecap:round;stroke-linejoin:round;stroke-width:1}
		.st12 {fill:#000000;fill-opacity:1;stroke:#000000;stroke-opacity:1;stroke-width:0.28409090909091}
		.st13 {marker-start:url(#mrkr1-60);stroke:#ff0000;stroke-linecap:round;stroke-linejoin:round;stroke-width:1}
		.st14 {marker-end:url(#mrkr1-62);stroke:#ff0000;stroke-linecap:round;stroke-linejoin:round;stroke-width:1}
		.st15 {fill:none;stroke:none;stroke-linecap:round;stroke-linejoin:round;stroke-width:0.75}
		.st16 {stroke:#000000;stroke-dasharray:5.25,3.75;stroke-linecap:round;stroke-linejoin:round;stroke-width:0.75}
		.st17 {fill:none;fill-rule:evenodd;font-size:12px;overflow:visible;stroke-linecap:square;stroke-miterlimit:3}
	]]>
	</style>

	<defs id="Markers">
		<g id="lend1">
			<path d="M 1 -1 L 0 0 L 1 1 " style="stroke-linecap:round;stroke-linejoin:round;fill:none"/>
		</g>
		<marker id="mrkr1-60" class="st10" orient="auto" markerUnits="strokeWidth" overflow="visible">
			<use xlink:href="#lend1" transform="scale(3.52) "/>
		</marker>
		<marker id="mrkr1-62" class="st10" orient="auto" markerUnits="strokeWidth" overflow="visible">
			<use xlink:href="#lend1" transform="scale(-3.52,-3.52) "/>
		</marker>
		<marker id="mrkr1-76" class="st12" orient="auto" markerUnits="strokeWidth" overflow="visible">
			<use xlink:href="#lend1" transform="scale(3.52) "/>
		</marker>
		<marker id="mrkr1-78" class="st12" orient="auto" markerUnits="strokeWidth" overflow="visible">
			<use xlink:href="#lend1" transform="scale(-3.52,-3.52) "/>
		</marker>
	</defs>
	<g>
		<title>Page-1</title>
		<g id="shape92-1" transform="translate(83.978,-2.50098)">
			<title>Sheet.92</title>
			<desc>AURIXTM TC4xx MCU</desc>
			<path d="M0 170.12 L408.47 170.12 L408.47 2.88 L0 2.88 L0 170.12 Z" class="st1"/>
			<text x="4" y="12.28" class="st2">AURIX<tspan dy="-0.234em" class="st3">TM</tspan><tspan dy="0.152em" class="st4"> </tspan>TC4xx MCU</text>		</g>
		<g id="shape69-6" transform="translate(247.284,-31.484)">
			<title>Sheet.69</title>
			<desc>SENTy*</desc>
			<rect x="0" y="141.774" width="48.189" height="28.3465" class="st5"/>
			<text x="4" y="151.17" class="st2">SENTy*</text>		</g>
		<g id="shape6-9" transform="translate(0,-104.692)">
			<title>Sheet.6</title>
			<desc>External SENT device</desc>
			<path d="M0 143.08 C-0 140.1 1.47 137.67 3.28 137.67 L31.41 137.67 C33.22 137.67 34.69 140.1 34.69 143.08 L34.69 164.71
						 C34.69 167.7 33.22 170.12 31.41 170.12 L3.28 170.12 C1.47 170.12 0 167.7 0 164.71 L0 143.08 Z" class="st6"/>
			<text x="7.33" y="148.49" class="st2">External <tspan x="11.1" dy="1.2em" class="st4">SENT </tspan><tspan x="9.47"
						dy="1.2em" class="st4">device</tspan></text>		</g>
		<g id="shape13-14" transform="translate(69.3721,-29.4301)">
			<title>Sheet.13</title>
			<desc>Package</desc>
			<path d="M0 62.22 L0 170.12 L32 170.12 L32 62.22 L0 62.22 L0 62.22 Z" class="st7"/>
			<text x="4" y="71.62" class="st2">Package</text>		</g>
		<g id="shape18-17" transform="translate(36.029,-122.973)">
			<title>Sheet.18</title>
			<desc>Mission ch.</desc>
			<path d="M32 157.73 L0 157.73 L0 170.12 L32 170.12 L32 157.73" class="st8"/>
			<text x="2.27" y="165.72" class="st2">Mission ch.</text>		</g>
		<g id="shape19-21" transform="translate(34.6552,-46.8013)">
			<title>Sheet.19</title>
			<desc>Monitor ch.</desc>
			<path d="M37.55 157.73 L0 157.73 L0 170.12 L37.55 170.12 L37.55 157.73" class="st8"/>
			<text x="4.45" y="165.72" class="st2">Monitor ch.</text>		</g>
		<g id="shape55-25" transform="translate(0,-29.4301)">
			<title>Sheet.55</title>
			<desc>External SENT device</desc>
			<path d="M0 143.08 C-0 140.1 1.47 137.67 3.28 137.67 L31.41 137.67 C33.22 137.67 34.69 140.1 34.69 143.08 L34.69 164.71
						 C34.69 167.7 33.22 170.12 31.41 170.12 L3.28 170.12 C1.47 170.12 0 167.7 0 164.71 L0 143.08 Z" class="st6"/>
			<text x="7.33" y="148.49" class="st2">External <tspan x="11.1" dy="1.2em" class="st4">SENT </tspan><tspan x="9.47"
						dy="1.2em" class="st4">device</tspan></text>		</g>
		<g id="shape57-30" transform="translate(136.058,-104.879)">
			<title>Sheet.57</title>
			<desc>PORTS* Px.y</desc>
			<path d="M0 137.67 L0 170.12 L30.72 170.12 L30.72 137.67 L0 137.67 L0 137.67 Z" class="st5"/>
			<text x="5.86" y="152.09" class="st2">PORTS* <tspan x="10.4" dy="1.2em" class="st4">Px.y</tspan></text>		</g>
		<g id="shape58-34" transform="translate(136.058,-29.4301)">
			<title>Sheet.58</title>
			<desc>PORTS* Pa.b</desc>
			<path d="M0 137.67 L0 170.12 L30.72 170.12 L30.72 137.67 L0 137.67 L0 137.67 Z" class="st5"/>
			<text x="5.86" y="152.09" class="st2">PORTS* <tspan x="10.04" dy="1.2em" class="st4">Pa.b</tspan></text>		</g>
		<g id="shape67-38" transform="translate(366.796,-20.9262)">
			<title>Sheet.67</title>
			<desc>FPI</desc>
			<path d="M0 36.89 L0 170.12 L22.19 170.12 L22.19 36.89 L0 36.89 L0 36.89 Z" class="st6"/>
			<text x="4" y="46.29" class="st2">FPI</text>		</g>
		<g id="shape70-41" transform="translate(247.284,-106.933)">
			<title>Sheet.70</title>
			<desc>SENTx*</desc>
			<rect x="0" y="141.774" width="48.189" height="28.3465" class="st5"/>
			<text x="4" y="151.17" class="st2">SENTx*</text>		</g>
		<g id="shape71-44" transform="translate(201.469,-66.2805)">
			<title>Sheet.71</title>
			<desc>IR</desc>
			<rect x="0" y="141.774" width="30.7247" height="28.3465" class="st6"/>
			<text x="4" y="151.17" class="st2">IR</text>		</g>
		<g id="shape72-47" transform="translate(318.12,-66.2805)">
			<title>Sheet.72</title>
			<desc>GTM/eGTM</desc>
			<rect x="0" y="141.774" width="30.7247" height="28.3465" class="st6"/>
			<text x="4" y="151.17" class="st2">GTM/<tspan x="4" dy="1.2em" class="st4">eGTM</tspan></text>		</g>
		<g id="shape73-51" transform="translate(432.928,-60.9282)">
			<title>Sheet.73</title>
			<desc>CPU</desc>
			<path d="M0 125.59 L0 170.12 L50.24 170.12 L50.24 125.59 L0 125.59 L0 125.59 Z" class="st6"/>
			<text x="4" y="134.99" class="st2">CPU</text>		</g>
		<g id="shape74-54" transform="translate(34.686,-120.139)">
			<title>Sheet.74</title>
			<path d="M0 170.12 L101.37 170.12" class="st9"/>
		</g>
		<g id="shape75-63" transform="translate(166.783,-128.643)">
			<title>Sheet.75</title>
			<path d="M0 170.12 L80.5 170.12" class="st9"/>
		</g>
		<g id="shape77-70" transform="translate(295.473,-128.643)">
			<title>Sheet.77</title>
			<path d="M0 170.12 L71.32 170.12" class="st11"/>
		</g>
		<g id="shape78-79" transform="translate(388.986,-83.2884)">
			<title>Sheet.78</title>
			<path d="M0 170.12 L43.94 170.12" class="st11"/>
		</g>
		<g id="shape80-86" transform="translate(216.831,-94.627)">
			<title>Dynamic connector.80</title>
			<path d="M0 170.12 L0 143.64 L30.45 143.64" class="st13"/>
		</g>
		<g id="shape81-91" transform="translate(216.831,-66.2805)">
			<title>Dynamic connector.81</title>
			<path d="M0 170.12 L0 190.74 L30.45 190.74" class="st13"/>
		</g>
		<g id="shape84-96" transform="translate(295.473,-41.6639)">
			<title>Sheet.84</title>
			<path d="M0 170.12 L71.32 170.12" class="st11"/>
		</g>
		<g id="shape85-103" transform="translate(166.783,-37.9341)">
			<title>Sheet.85</title>
			<path d="M0 170.12 L80.5 170.12" class="st9"/>
		</g>
		<g id="shape86-110" transform="translate(34.686,-45.0207)">
			<title>Sheet.86</title>
			<path d="M0 170.12 L101.37 170.12" class="st9"/>
		</g>
		<g id="shape87-117" transform="translate(295.473,-94.9283)">
			<title>Sheet.87</title>
			<path d="M0 149.16 L36.82 149.16 L36.82 170.12" class="st13"/>
		</g>
		<g id="shape88-122" transform="translate(465.594,103.28) rotate(90)">
			<title>Sheet.88</title>
			<path d="M0 134.18 L15.98 134.18 L15.98 170.12" class="st14"/>
		</g>
		<g id="shape89-127" transform="translate(300.293,-113.416)">
			<title>Sheet.89</title>
			<desc>Trigger A</desc>
			<path d="M32 157.73 L0 157.73 L0 170.12 L32 170.12 L32 157.73" class="st8"/>
			<text x="5.03" y="165.72" class="st2">Trigger A</text>		</g>
		<g id="shape91-131" transform="translate(292.608,-48.7457)">
			<title>Sheet.91</title>
			<desc>Trigger B</desc>
			<path d="M49.11 157.73 L0 157.73 L0 170.12 L49.11 170.12 L49.11 157.73" class="st8"/>
			<text x="13.69" y="165.72" class="st2">Trigger B</text>		</g>
		<g id="shape93-135" transform="translate(354.545,-0.375)">
			<title>Sheet.93</title>
			<desc>*physical separation between redundant channels</desc>
			<rect x="0" y="151.695" width="140.74" height="18.4252" class="st15"/>
			<text x="6.71" y="162.71" class="st2">*physical separation between redundant channels</text>		</g>
		<g id="shape94-138" transform="translate(359.709,-128.643)">
			<title>Dynamic connector</title>
			<path d="M7.09 170.12 L18.09 170.12 L18.09 256.58 L7.09 256.58" class="st16"/>
		</g>
		<g id="shape95-141" transform="translate(377.796,-83.2884)">
			<title>Sheet.95</title>
			<path d="M0 170.12 L11.19 170.12" class="st16"/>
		</g>
	</g>
</svg>
