<?xml version="1.0" encoding="UTF-8" standalone="no"?>
<!DOCTYPE svg PUBLIC "-//W3C//DTD SVG 1.1//EN" "http://www.w3.org/Graphics/SVG/1.1/DTD/svg11.dtd">
<!-- Generated by Microsoft Visio, SVG Export CSS_MAC_Redirect2.svg Page-1 -->
<svg xmlns="http://www.w3.org/2000/svg" xmlns:xlink="http://www.w3.org/1999/xlink" xmlns:ev="http://www.w3.org/2001/xml-events"
		xmlns:v="http://schemas.microsoft.com/visio/2003/SVGExtensions/" width="6.68995in" height="3.18316in"
		viewBox="0 0 481.676 229.188" xml:space="preserve" color-interpolation-filters="sRGB" class="st13">
	<v:documentProperties v:langID="1033" v:metric="true" v:viewMarkup="false">
		<v:userDefs>
			<v:ud v:nameU="msvConvertTheme"/>
		</v:userDefs>
	</v:documentProperties>

	<style type="text/css">
	<![CDATA[
		.st1 {fill:#e8eef7;stroke:#000000;stroke-linecap:round;stroke-linejoin:round;stroke-width:0.24}
		.st2 {fill:#000000;font-family:Calibri;font-size:0.75em}
		.st3 {font-size:1em}
		.st4 {fill:#f2f2f2;stroke:#000000;stroke-linecap:round;stroke-linejoin:round;stroke-width:0.24}
		.st5 {fill:#000000;font-family:Calibri;font-size:0.833336em}
		.st6 {fill:#d8d8d8;stroke:#000000;stroke-linecap:round;stroke-linejoin:round;stroke-width:0.24}
		.st7 {stroke:#000000;stroke-linecap:round;stroke-linejoin:round;stroke-width:0.24}
		.st8 {marker-end:url(#mrkr5-41);stroke:#000000;stroke-linecap:round;stroke-linejoin:round;stroke-width:0.5}
		.st9 {fill:#000000;fill-opacity:1;stroke:#000000;stroke-opacity:1;stroke-width:0.16556291390728}
		.st10 {fill:none;stroke:none;stroke-linecap:round;stroke-linejoin:round;stroke-width:0.75}
		.st11 {fill:#3f3f3f;stroke:#000000;stroke-linecap:round;stroke-linejoin:round;stroke-width:0.24}
		.st12 {fill:#ffffff;font-family:Calibri;font-size:0.833336em}
		.st13 {fill:none;fill-rule:evenodd;font-size:12px;overflow:visible;stroke-linecap:square;stroke-miterlimit:3}
	]]>
	</style>

	<defs id="Markers">
		<g id="lend5">
			<path d="M 2 1 L 0 0 L 1.98117 -0.993387 C 1.67173 -0.364515 1.67301 0.372641 1.98465 1.00043 " style="stroke:none"/>
		</g>
		<marker id="mrkr5-41" class="st9" v:arrowType="5" v:arrowSize="2" v:setback="10.57" refX="-10.57" orient="auto"
				markerUnits="strokeWidth" overflow="visible">
			<use xlink:href="#lend5" transform="scale(-6.04,-6.04) "/>
		</marker>
	</defs>
	<g v:mID="0" v:index="1" v:groupContext="foregroundPage">
		<title>Page-1</title>
		<v:pageProperties v:drawingScale="0.0393701" v:pageScale="0.0393701" v:drawingUnits="24" v:shadowOffsetX="8.50394"
				v:shadowOffsetY="-8.50394"/>
		<v:layer v:name="Connector" v:index="0"/>
		<g id="group438-1" transform="translate(0.12,-0.12)" v:mID="438" v:groupContext="group">
			<title>Sheet.438</title>
			<g id="shape220-2" v:mID="220" v:groupContext="shape" transform="translate(51.0236,0)">
				<title>Rounded rectangle.167</title>
				<desc>data processing</desc>
				<v:userDefs>
					<v:ud v:nameU="visVersion" v:val="VT0(14):26"/>
				</v:userDefs>
				<v:textBlock v:margins="rect(4,4,4,4)" v:tabSpace="42.5197"/>
				<v:textRect cx="34.0157" cy="209.345" width="68.04" height="39.685"/>
				<path d="M53.86 229.19 A14.1733 14.1733 -180 0 0 68.03 215.01 L68.03 203.68 A14.1733 14.1733 -180 0 0 53.86 189.5
							 L14.17 189.5 A14.1733 14.1733 -180 0 0 -0 203.68 L0 215.01 A14.1733 14.1733 -180 0 0 14.17 229.19 L53.86
							 229.19 Z" class="st1"/>
				<text x="25.83" y="206.65" class="st2" v:langID="1031"><v:paragraph v:horizAlign="1"/><v:tabList/>data<v:newlineChar/><tspan
							x="14.53" dy="1.2em" class="st3">processing</tspan></text>			</g>
			<g id="shape221-6" v:mID="221" v:groupContext="shape" transform="translate(7.19425E-14,-65.1969)">
				<title>Sheet.221</title>
				<desc>AAD</desc>
				<v:textBlock v:margins="rect(1,1,1,1)" v:tabSpace="42.5197"/>
				<v:textRect cx="28.3465" cy="209.345" width="56.7" height="39.685"/>
				<rect x="0" y="189.503" width="56.6929" height="39.685" class="st4"/>
				<text x="19.48" y="212.35" class="st5" v:langID="1031"><v:paragraph v:horizAlign="1"/><v:tabList/>AAD</text>			</g>
			<g id="shape222-9" v:mID="222" v:groupContext="shape" transform="translate(-5.59552E-14,-104.882)">
				<title>Sheet.222</title>
				<desc>Plain text</desc>
				<v:textBlock v:margins="rect(1,1,1,1)" v:tabSpace="42.5197"/>
				<v:textRect cx="28.3465" cy="195.172" width="56.7" height="68.0315"/>
				<rect x="0" y="161.156" width="56.6929" height="68.0315" class="st6"/>
				<text x="9.31" y="198.17" class="st5" v:langID="1031"><v:paragraph v:horizAlign="1"/><v:tabList/>Plain text</text>			</g>
			<g id="shape223-12" v:mID="223" v:groupContext="shape" transform="translate(-229.188,56.2744) rotate(-90)">
				<title>Sheet.223</title>
				<path d="M0 229.19 L17.01 229.19" class="st7"/>
			</g>
			<g id="shape224-15" v:mID="224" v:groupContext="shape" transform="translate(-172.495,56.2744) rotate(-90)">
				<title>Sheet.224</title>
				<path d="M0 229.19 L17.01 229.19" class="st7"/>
			</g>
			<g id="shape225-18" v:mID="225" v:groupContext="shape" transform="translate(4.72441,-79.3701)">
				<title>Sheet.225</title>
				<path d="M0 229.19 L47.24 229.19" class="st7"/>
			</g>
			<g id="shape226-21" v:mID="226" v:groupContext="shape" transform="translate(4.72441,-93.5433)">
				<title>Sheet.226</title>
				<path d="M0 229.19 L47.24 229.19" class="st7"/>
			</g>
			<g id="shape227-24" v:mID="227" v:groupContext="shape" transform="translate(4.72441,-119.055)">
				<title>Sheet.227</title>
				<path d="M0 229.19 L47.24 229.19" class="st7"/>
			</g>
			<g id="shape228-27" v:mID="228" v:groupContext="shape" transform="translate(4.72441,-133.228)">
				<title>Sheet.228</title>
				<path d="M0 229.19 L47.24 229.19" class="st7"/>
			</g>
			<g id="shape229-30" v:mID="229" v:groupContext="shape" transform="translate(4.72441,-147.402)">
				<title>Sheet.229</title>
				<path d="M0 229.19 L47.24 229.19" class="st7"/>
			</g>
			<g id="shape230-33" v:mID="230" v:groupContext="shape" transform="translate(4.72441,-161.575)">
				<title>Sheet.230</title>
				<path d="M0 229.19 L47.24 229.19" class="st7"/>
			</g>
			<g id="shape231-36" v:mID="231" v:groupContext="shape" v:layerMember="0" transform="translate(34.0157,-65.1969)">
				<title>Dynamic connector.196</title>
				<path d="M0 229.19 L0 274.54 L11.72 274.54" class="st8"/>
			</g>
			<g id="shape243-42" v:mID="243" v:groupContext="shape" v:layerMember="0" transform="translate(119.055,-19.8425)">
				<title>Dynamic connector.243</title>
				<path d="M0 229.19 L22.68 229.19 L22.68 206.13" class="st8"/>
			</g>
			<g id="shape232-47" v:mID="232" v:groupContext="shape" v:layerMember="0" transform="translate(119.055,-19.8425)">
				<title>Dynamic connector.232</title>
				<path d="M0 229.19 L119.62 229.19 L119.62 206.13" class="st8"/>
			</g>
			<g id="shape236-52" v:mID="236" v:groupContext="shape" v:layerMember="0" transform="translate(119.055,-19.8425)">
				<title>Dynamic connector.236</title>
				<path d="M0 229.19 L208.06 229.19 L208.06 206.13" class="st8"/>
			</g>
			<g id="shape237-57" v:mID="237" v:groupContext="shape" v:layerMember="0" transform="translate(130.394,-19.8425)">
				<title>Dynamic connector.237</title>
				<path d="M0 229.19 L289.13 229.19 L289.13 206.13" class="st8"/>
			</g>
			<g id="shape242-62" v:mID="242" v:groupContext="shape" transform="translate(81.3494,-209.764)">
				<title>Sheet.242</title>
				<desc>MACREDIR = 0 DINCFG != AADforward</desc>
				<v:textBlock v:margins="rect(1,1,1,1)" v:tabSpace="42.5197"/>
				<v:textRect cx="61.6535" cy="220.684" width="123.31" height="17.0079"/>
				<rect x="0" y="212.18" width="123.307" height="17.0079" class="st10"/>
				<text x="35.26" y="217.98" class="st2" v:langID="1031"><v:paragraph v:horizAlign="1"/><v:tabList/>MACREDIR = 0<v:newlineChar/><tspan
							x="19.2" dy="1.2em" class="st3">DINCFG </tspan>!= AADforward</text>			</g>
			<g id="shape254-66" v:mID="254" v:groupContext="shape" transform="translate(174.469,-209.764)">
				<title>Sheet.254</title>
				<desc>MACREDIR = 0 DINCFG = AADforward</desc>
				<v:textBlock v:margins="rect(1,1,1,1)" v:tabSpace="42.5197"/>
				<v:textRect cx="61.6535" cy="220.684" width="123.31" height="17.0079"/>
				<rect x="0" y="212.18" width="123.307" height="17.0079" class="st10"/>
				<text x="35.26" y="217.98" class="st2" v:langID="1031"><v:paragraph v:horizAlign="1"/><v:tabList/>MACREDIR = 0<v:newlineChar/><tspan
							x="20.67" dy="1.2em" class="st3">DINCFG </tspan>= AADforward</text>			</g>
			<g id="group255-70" transform="translate(113.386,-51.0236)" v:mID="255" v:groupContext="group">
				<title>Sheet.255</title>
				<g id="shape233-71" v:mID="233" v:groupContext="shape" transform="translate(4.39648E-14,-70.8661)">
					<title>Sheet.233</title>
					<desc>Cipher text</desc>
					<v:textBlock v:margins="rect(1,1,1,1)" v:tabSpace="42.5197"/>
					<v:textRect cx="29.6172" cy="195.172" width="59.24" height="68.0315"/>
					<rect x="0" y="161.156" width="59.2343" height="68.0315" class="st6"/>
					<text x="7.19" y="198.17" class="st5" v:langID="1031"><v:paragraph v:horizAlign="1"/><v:tabList/>Cipher text</text>				</g>
				<g id="shape234-74" v:mID="234" v:groupContext="shape" transform="translate(288.422,158.322) rotate(90)">
					<title>Sheet.234</title>
					<path d="M0 229.19 L70.87 229.19" class="st7"/>
				</g>
				<g id="shape235-77" v:mID="235" v:groupContext="shape" transform="translate(229.188,158.322) rotate(90)">
					<title>Sheet.235</title>
					<path d="M0 229.19 L70.87 229.19" class="st7"/>
				</g>
				<g id="shape238-80" v:mID="238" v:groupContext="shape" transform="translate(54.2981,332.234) rotate(180)">
					<title>Sheet.238</title>
					<path d="M0 229.19 L49.36 229.19" class="st7"/>
				</g>
				<g id="shape239-83" v:mID="239" v:groupContext="shape" transform="translate(54.2981,346.407) rotate(180)">
					<title>Sheet.239</title>
					<path d="M0 229.19 L49.36 229.19" class="st7"/>
				</g>
				<g id="shape240-86" v:mID="240" v:groupContext="shape" transform="translate(54.2981,360.58) rotate(180)">
					<title>Sheet.240</title>
					<path d="M0 229.19 L49.36 229.19" class="st7"/>
				</g>
				<g id="shape241-89" v:mID="241" v:groupContext="shape" transform="translate(54.2981,374.754) rotate(180)">
					<title>Sheet.241</title>
					<path d="M0 229.19 L49.36 229.19" class="st7"/>
				</g>
			</g>
			<g id="group259-92" transform="translate(206.506,-51.0236)" v:mID="259" v:groupContext="group">
				<title>Sheet.259</title>
				<g id="shape244-93" v:mID="244" v:groupContext="shape" transform="translate(-8.79297E-14,-99.2126)">
					<title>Sheet.244</title>
					<desc>AAD</desc>
					<v:textBlock v:margins="rect(1,1,1,1)" v:tabSpace="42.5197"/>
					<v:textRect cx="29.6172" cy="209.345" width="59.24" height="39.685"/>
					<rect x="0" y="189.503" width="59.2343" height="39.685" class="st4"/>
					<text x="20.75" y="212.35" class="st5" v:langID="1031"><v:paragraph v:horizAlign="1"/><v:tabList/>AAD</text>				</g>
				<g id="shape245-96" v:mID="245" v:groupContext="shape" transform="translate(5.51559E-13,-31.1811)">
					<title>Sheet.245</title>
					<desc>Cipher text</desc>
					<v:textBlock v:margins="rect(1,1,1,1)" v:tabSpace="42.5197"/>
					<v:textRect cx="29.6172" cy="195.172" width="59.24" height="68.0315"/>
					<rect x="0" y="161.156" width="59.2343" height="68.0315" class="st6"/>
					<text x="7.19" y="198.17" class="st5" v:langID="1031"><v:paragraph v:horizAlign="1"/><v:tabList/>Cipher text</text>				</g>
				<g id="shape246-99" v:mID="246" v:groupContext="shape" transform="translate(288.422,198.007) rotate(90)">
					<title>Sheet.246</title>
					<path d="M0 229.19 L31.18 229.19" class="st7"/>
				</g>
				<g id="shape247-102" v:mID="247" v:groupContext="shape" transform="translate(229.188,198.007) rotate(90)">
					<title>Sheet.247</title>
					<path d="M0 229.19 L31.18 229.19" class="st7"/>
				</g>
				<g id="shape248-105" v:mID="248" v:groupContext="shape" transform="translate(54.2981,333.651) rotate(180)">
					<title>Sheet.248</title>
					<path d="M0 229.19 L49.36 229.19" class="st7"/>
				</g>
				<g id="shape249-108" v:mID="249" v:groupContext="shape" transform="translate(54.2981,347.824) rotate(180)">
					<title>Sheet.249</title>
					<path d="M0 229.19 L49.36 229.19" class="st7"/>
				</g>
				<g id="shape250-111" v:mID="250" v:groupContext="shape" transform="translate(54.2981,371.919) rotate(180)">
					<title>Sheet.250</title>
					<path d="M0 229.19 L49.36 229.19" class="st7"/>
				</g>
				<g id="shape251-114" v:mID="251" v:groupContext="shape" transform="translate(54.2981,386.092) rotate(180)">
					<title>Sheet.251</title>
					<path d="M0 229.19 L49.36 229.19" class="st7"/>
				</g>
				<g id="shape252-117" v:mID="252" v:groupContext="shape" transform="translate(54.2981,400.265) rotate(180)">
					<title>Sheet.252</title>
					<path d="M0 229.19 L49.36 229.19" class="st7"/>
				</g>
				<g id="shape253-120" v:mID="253" v:groupContext="shape" transform="translate(54.2981,414.439) rotate(180)">
					<title>Sheet.253</title>
					<path d="M0 229.19 L49.36 229.19" class="st7"/>
				</g>
			</g>
			<g id="group260-123" transform="translate(296.791,-51.0236)" v:mID="260" v:groupContext="group">
				<title>Sheet.260</title>
				<g id="shape256-124" v:mID="256" v:groupContext="shape" transform="translate(2.27818E-13,-70.2723)">
					<title>Sheet.256</title>
					<desc>Cipher text</desc>
					<v:textBlock v:margins="rect(1,1,1,1)" v:tabSpace="42.5197"/>
					<v:textRect cx="29.6172" cy="195.172" width="59.24" height="68.0315"/>
					<rect x="0" y="161.156" width="59.2343" height="68.0315" class="st6"/>
					<text x="7.19" y="198.17" class="st5" v:langID="1031"><v:paragraph v:horizAlign="1"/><v:tabList/>Cipher text</text>				</g>
				<g id="shape257-127" v:mID="257" v:groupContext="shape" transform="translate(288.422,175.33) rotate(90)">
					<title>Sheet.257</title>
					<path d="M0 229.19 L53.86 229.19" class="st7"/>
				</g>
				<g id="shape258-130" v:mID="258" v:groupContext="shape" transform="translate(229.188,175.33) rotate(90)">
					<title>Sheet.258</title>
					<path d="M0 229.19 L53.86 229.19" class="st7"/>
				</g>
				<g id="shape261-133" v:mID="261" v:groupContext="shape" transform="translate(54.2981,332.828) rotate(180)">
					<title>Sheet.261</title>
					<path d="M0 229.19 L49.36 229.19" class="st7"/>
				</g>
				<g id="shape262-136" v:mID="262" v:groupContext="shape" transform="translate(54.2981,347.001) rotate(180)">
					<title>Sheet.262</title>
					<path d="M0 229.19 L49.36 229.19" class="st7"/>
				</g>
				<g id="shape263-139" v:mID="263" v:groupContext="shape" transform="translate(54.2981,361.174) rotate(180)">
					<title>Sheet.263</title>
					<path d="M0 229.19 L49.36 229.19" class="st7"/>
				</g>
				<g id="shape264-142" v:mID="264" v:groupContext="shape" transform="translate(54.2981,375.347) rotate(180)">
					<title>Sheet.264</title>
					<path d="M0 229.19 L49.36 229.19" class="st7"/>
				</g>
				<g id="shape265-145" v:mID="265" v:groupContext="shape" transform="translate(-2.39808E-14,-53.8583)">
					<title>Sheet.265</title>
					<desc>MAC</desc>
					<v:textBlock v:margins="rect(1,1,1,1)" v:tabSpace="42.5197"/>
					<v:textRect cx="29.6172" cy="220.994" width="59.24" height="16.3871"/>
					<rect x="0" y="212.801" width="59.2343" height="16.3871" class="st11"/>
					<text x="19.78" y="223.99" class="st12" v:langID="1031"><v:paragraph v:horizAlign="1"/><v:tabList/>MAC</text>				</g>
			</g>
			<g id="group277-148" transform="translate(389.91,-51.0236)" v:mID="277" v:groupContext="group">
				<title>Sheet.277</title>
				<g id="shape266-149" v:mID="266" v:groupContext="shape" transform="translate(-8.79297E-14,-99.2126)">
					<title>Sheet.266</title>
					<desc>AAD</desc>
					<v:textBlock v:margins="rect(1,1,1,1)" v:tabSpace="42.5197"/>
					<v:textRect cx="29.6172" cy="209.345" width="59.24" height="39.685"/>
					<rect x="0" y="189.503" width="59.2343" height="39.685" class="st4"/>
					<text x="20.75" y="212.35" class="st5" v:langID="1031"><v:paragraph v:horizAlign="1"/><v:tabList/>AAD</text>				</g>
				<g id="shape267-152" v:mID="267" v:groupContext="shape" transform="translate(6.83453E-13,-31.1811)">
					<title>Sheet.267</title>
					<desc>Cipher text</desc>
					<v:textBlock v:margins="rect(1,1,1,1)" v:tabSpace="42.5197"/>
					<v:textRect cx="29.6172" cy="195.172" width="59.24" height="68.0315"/>
					<rect x="0" y="161.156" width="59.2343" height="68.0315" class="st6"/>
					<text x="7.19" y="198.17" class="st5" v:langID="1031"><v:paragraph v:horizAlign="1"/><v:tabList/>Cipher text</text>				</g>
				<g id="shape268-155" v:mID="268" v:groupContext="shape" transform="translate(288.422,212.18) rotate(90)">
					<title>Sheet.268</title>
					<path d="M0 229.19 L17.01 229.19" class="st7"/>
				</g>
				<g id="shape269-158" v:mID="269" v:groupContext="shape" transform="translate(229.188,212.18) rotate(90)">
					<title>Sheet.269</title>
					<path d="M0 229.19 L17.01 229.19" class="st7"/>
				</g>
				<g id="shape270-161" v:mID="270" v:groupContext="shape" transform="translate(54.2981,333.651) rotate(180)">
					<title>Sheet.270</title>
					<path d="M0 229.19 L49.36 229.19" class="st7"/>
				</g>
				<g id="shape271-164" v:mID="271" v:groupContext="shape" transform="translate(54.2981,347.824) rotate(180)">
					<title>Sheet.271</title>
					<path d="M0 229.19 L49.36 229.19" class="st7"/>
				</g>
				<g id="shape272-167" v:mID="272" v:groupContext="shape" transform="translate(54.2981,371.919) rotate(180)">
					<title>Sheet.272</title>
					<path d="M0 229.19 L49.36 229.19" class="st7"/>
				</g>
				<g id="shape273-170" v:mID="273" v:groupContext="shape" transform="translate(54.2981,386.092) rotate(180)">
					<title>Sheet.273</title>
					<path d="M0 229.19 L49.36 229.19" class="st7"/>
				</g>
				<g id="shape274-173" v:mID="274" v:groupContext="shape" transform="translate(54.2981,400.265) rotate(180)">
					<title>Sheet.274</title>
					<path d="M0 229.19 L49.36 229.19" class="st7"/>
				</g>
				<g id="shape275-176" v:mID="275" v:groupContext="shape" transform="translate(54.2981,414.439) rotate(180)">
					<title>Sheet.275</title>
					<path d="M0 229.19 L49.36 229.19" class="st7"/>
				</g>
				<g id="shape276-179" v:mID="276" v:groupContext="shape" transform="translate(4.23661E-13,-14.7671)">
					<title>Sheet.276</title>
					<desc>MAC</desc>
					<v:textBlock v:margins="rect(1,1,1,1)" v:tabSpace="42.5197"/>
					<v:textRect cx="29.6172" cy="220.994" width="59.24" height="16.3871"/>
					<rect x="0" y="212.801" width="59.2343" height="16.3871" class="st11"/>
					<text x="19.78" y="223.99" class="st12" v:langID="1031"><v:paragraph v:horizAlign="1"/><v:tabList/>MAC</text>				</g>
			</g>
			<g id="shape278-182" v:mID="278" v:groupContext="shape" transform="translate(264.754,-209.764)">
				<title>Sheet.278</title>
				<desc>MACREDIR = 1 DINCFG != AADforward</desc>
				<v:textBlock v:margins="rect(1,1,1,1)" v:tabSpace="42.5197"/>
				<v:textRect cx="61.6535" cy="220.684" width="123.31" height="17.0079"/>
				<rect x="0" y="212.18" width="123.307" height="17.0079" class="st10"/>
				<text x="35.26" y="217.98" class="st2" v:langID="1031"><v:paragraph v:horizAlign="1"/><v:tabList/>MACREDIR = 1<v:newlineChar/><tspan
							x="19.2" dy="1.2em" class="st3">DINCFG </tspan>!= AADforward</text>			</g>
			<g id="shape279-186" v:mID="279" v:groupContext="shape" transform="translate(357.874,-209.764)">
				<title>Sheet.279</title>
				<desc>MACREDIR = 1 DINCFG = AADforward</desc>
				<v:textBlock v:margins="rect(1,1,1,1)" v:tabSpace="42.5197"/>
				<v:textRect cx="61.6535" cy="220.684" width="123.31" height="17.0079"/>
				<rect x="0" y="212.18" width="123.307" height="17.0079" class="st10"/>
				<text x="35.26" y="217.98" class="st2" v:langID="1031"><v:paragraph v:horizAlign="1"/><v:tabList/>MACREDIR = 1<v:newlineChar/><tspan
							x="20.67" dy="1.2em" class="st3">DINCFG </tspan>= AADforward</text>			</g>
		</g>
	</g>
</svg>
