<?xml version="1.0" encoding="UTF-8" standalone="no"?>
<!DOCTYPE svg PUBLIC "-//W3C//DTD SVG 1.1//EN" "http://www.w3.org/Graphics/SVG/1.1/DTD/svg11.dtd">
<!-- Generated by Microsoft Visio, SVG Export ModuleRedundancy2.svg Page-1 -->
<svg xmlns="http://www.w3.org/2000/svg" xmlns:xlink="http://www.w3.org/1999/xlink" xmlns:ev="http://www.w3.org/2001/xml-events"
		xmlns:v="http://schemas.microsoft.com/visio/2003/SVGExtensions/" width="8.06947in" height="4.56553in"
		viewBox="0 0 581.002 328.718" xml:space="preserve" color-interpolation-filters="sRGB" class="st11">
	<v:documentProperties v:langID="1031">
		<v:userDefs>
			<v:ud v:nameU="msvNoAutoConnect" v:val="VT0(1):26"/>
		</v:userDefs>
	</v:documentProperties>

	<style type="text/css">
	<![CDATA[
		.st1 {fill:none;stroke:#000000;stroke-linecap:round;stroke-linejoin:round;stroke-width:1}
		.st2 {fill:#ffffff;stroke:#000000;stroke-linecap:round;stroke-linejoin:round;stroke-width:1}
		.st3 {fill:#000000;font-family:Calibri;font-size:1.00001em}
		.st4 {font-size:1em}
		.st5 {marker-end:url(#mrkr5-15);stroke:#000000;stroke-linecap:round;stroke-linejoin:round;stroke-width:1}
		.st6 {fill:#000000;fill-opacity:1;stroke:#000000;stroke-opacity:1;stroke-width:0.28409085308194}
		.st7 {fill:none;stroke:none;stroke-linecap:round;stroke-linejoin:round;stroke-width:1}
		.st8 {fill:none;stroke:none;stroke-width:1}
		.st9 {fill:none}
		.st10 {stroke:#000000;stroke-linecap:round;stroke-linejoin:round;stroke-width:1}
		.st11 {fill:none;fill-rule:evenodd;font-size:12px;overflow:visible;stroke-linecap:square;stroke-miterlimit:3}
	]]>
	</style>

	<defs id="Markers">
		<g id="lend5">
			<path d="M 2 1 L 0 0 L 1.98117 -0.993387 C 1.67173 -0.364515 1.67301 0.372641 1.98465 1.00043 " style="stroke:none"/>
		</g>
		<marker id="mrkr5-15" class="st6" v:arrowType="5" v:arrowSize="2" v:setback="0" refX="-0" orient="auto"
				markerUnits="strokeWidth" overflow="visible">
			<use xlink:href="#lend5" transform="scale(-3.5200006939737,-3.5200006939737) "/>
		</marker>
	</defs>
	<g v:mID="0" v:index="1" v:groupContext="foregroundPage">
		<title>Page-1</title>
		<v:pageProperties v:drawingScale="0.0393701" v:pageScale="0.0393701" v:drawingUnits="24" v:shadowOffsetX="8.50392"
				v:shadowOffsetY="-8.50392"/>
		<g id="shape1-1" v:mID="1" v:groupContext="shape" transform="translate(21.2598,-99.2127)">
			<title>Sheet.1</title>
			<rect x="0" y="116.12" width="541.366" height="212.598" class="st1"/>
		</g>
		<g id="shape2-3" v:mID="2" v:groupContext="shape" transform="translate(154.438,-113.384)">
			<title>Sheet.2</title>
			<path d="M0 328.72 L391.18 328.72 L391.18 144.47 L0 144.47 L0 328.72 Z" class="st1"/>
		</g>
		<g id="shape3-5" v:mID="3" v:groupContext="shape" transform="translate(191.339,-226.772)">
			<title>Sheet.3</title>
			<desc>ADC0</desc>
			<v:userDefs/>
			<v:textBlock v:margins="rect(3.99999,3.99999,3.99999,3.99999)" v:tabSpace="42.5196"/>
			<v:textRect cx="28.3458" cy="307.458" width="56.7" height="42.5197"/>
			<rect x="0" y="286.198" width="56.6928" height="42.5197" class="st2"/>
			<text x="4.75" y="296.66" class="st3" v:langID="1031"><v:paragraph v:horizAlign="1"/><v:tabList/>ADC from <tspan
						x="13.17" dy="1.2em" class="st4">Safety </tspan><tspan x="8.6" dy="1.2em" class="st4">Group 1 </tspan> </text>		</g>
		<g id="shape4-10" v:mID="4" v:groupContext="shape" transform="translate(165.777,-247.977)">
			<title>Sheet.4</title>
			<path d="M0 328.72 L23.58 328.72 L25.56 328.72" class="st5"/>
		</g>
		<g id="shape5-16" v:mID="5" v:groupContext="shape" transform="translate(109.134,-247.977)">
			<title>Sheet.5</title>
			<path d="M0 328.72 L29.07 328.72 L33.96 328.72" class="st5"/>
		</g>
		<g id="shape6-21" v:mID="6" v:groupContext="shape" transform="translate(35.4331,-233.858)">
			<title>Sheet.6</title>
			<desc>Analog Input</desc>
			<v:userDefs/>
			<v:textBlock v:margins="rect(3.99999,3.99999,3.99999,3.99999)" v:tabSpace="42.5196"/>
			<v:textRect cx="36.8496" cy="314.545" width="73.71" height="28.3465"/>
			<rect x="0" y="300.372" width="73.7006" height="28.3465" class="st1"/>
			<text x="5.79" y="318.14" class="st3" v:langID="1031"><v:paragraph v:horizAlign="1"/><v:tabList/>Analog input</text>		</g>
		<g id="shape7-24" v:mID="7" v:groupContext="shape" transform="translate(248.031,-247.977)">
			<title>Sheet.7</title>
			<path d="M0 328.72 L17.33 328.72 L21.26 328.72" class="st5"/>
		</g>
		<g id="shape8-29" v:mID="8" v:groupContext="shape" transform="translate(354.331,-226.772)">
			<title>Sheet.8</title>
			<desc>Result</desc>
			<v:userDefs/>
			<v:textBlock v:margins="rect(3.99999,3.99999,3.99999,3.99999)" v:tabSpace="42.5196"/>
			<v:textRect cx="21.2594" cy="307.459" width="42.53" height="42.5197"/>
			<rect x="0" y="286.198" width="42.5197" height="42.5197" class="st2"/>
			<text x="6.13" y="311.06" class="st3" v:langID="1031"><v:paragraph v:horizAlign="1"/><v:tabList/>Result</text>		</g>
		<g id="shape9-32" v:mID="9" v:groupContext="shape" transform="translate(415.661,-141.732)">
			<title>Sheet.9</title>
			<desc>CPB</desc>
			<v:userDefs/>
			<v:textBlock v:margins="rect(3.99999,3.99999,3.99999,3.99999)" v:tabSpace="42.5196"/>
			<v:textRect cx="15.3973" cy="264.939" width="30.8" height="127.559"/>
			<rect x="0" y="201.159" width="30.7961" height="127.559" class="st2"/>
			<text x="5.83" y="268.54" class="st3" v:langID="1031"><v:paragraph v:horizAlign="1"/><v:tabList/>CPB</text>		</g>
		<g id="shape10-35" v:mID="10" v:groupContext="shape" transform="translate(396.85,-247.98)">
			<title>Sheet.10</title>
			<path d="M0 328.72 L15.38 328.72 L18.81 328.72" class="st5"/>
		</g>
		<g id="shape11-40" v:mID="11" v:groupContext="shape" transform="translate(467.717,-141.732)">
			<title>Sheet.11</title>
			<desc>TriCore</desc>
			<v:userDefs/>
			<v:textBlock v:margins="rect(3.99999,3.99999,3.99999,3.99999)" v:tabSpace="42.5196"/>
			<v:textRect cx="28.3457" cy="264.939" width="56.71" height="127.559"/>
			<rect x="0" y="201.159" width="56.6929" height="127.559" class="st2"/>
			<text x="10.51" y="268.54" class="st3" v:langID="1031"><v:paragraph v:horizAlign="1"/><v:tabList/>TriCore</text>		</g>
		<g id="shape12-43" v:mID="12" v:groupContext="shape" transform="translate(127.559,-259.74)">
			<title>Sheet.12</title>
			<desc>Pin</desc>
			<v:userDefs/>
			<v:textBlock v:margins="rect(3.99999,3.99999,3.99999,3.99999)" v:tabSpace="42.5196"/>
			<v:textRect cx="14.1725" cy="321.632" width="28.35" height="14.1732"/>
			<rect x="0" y="314.545" width="28.3464" height="14.1732" class="st7"/>
			<text x="6.54" y="325.23" class="st3" v:langID="1031"><v:paragraph v:horizAlign="1"/><v:tabList/>Pin</text>		</g>
		<g id="shape13-46" v:mID="13" v:groupContext="shape" transform="translate(475.406,-281.996)">
			<title>Sheet.13</title>
			<desc>TC4XX</desc>
			<v:userDefs/>
			<v:textBlock v:margins="rect(3.99999,3.99999,3.99999,3.99999)" v:tabSpace="42.5196"/>
			<v:textRect cx="34.015" cy="320.214" width="68.04" height="17.0079"/>
			<rect x="0" y="311.71" width="68.0313" height="17.0079" class="st7"/>
			<text x="19.65" y="323.81" class="st3" v:langID="1031"><v:paragraph v:horizAlign="1"/><v:tabList/>TC4xx</text>		</g>
		<g id="shape14-49" v:mID="14" v:groupContext="shape" transform="translate(446.457,-205.51)">
			<title>Sheet.14</title>
			<path d="M0 328.72 L17.39 328.72 L21.26 328.72" class="st5"/>
		</g>
		<g id="group15-54" transform="translate(143.097,-236.64)" v:mID="15" v:groupContext="group">
			<title>Sheet.15</title>
			<g id="shape16-55" v:mID="16" v:groupContext="shape" transform="translate(0.00228222,-0.00329669)">
				<title>Sheet.16</title>
				<rect x="0" y="306.041" width="22.6771" height="22.6771" class="st2"/>
			</g>
			<g id="group17-57" transform="translate(-232.434,96.2793) rotate(-45)" v:mID="17" v:groupContext="group">
				<title>Sheet.17</title>
				<g id="shape18-58" v:mID="18" v:groupContext="shape">
					<title>Sheet.18</title>
					<path d="M0 328.72 L32.07 328.72 L0 328.72 Z" class="st8"/>
				</g>
				<g id="shape19-60" v:mID="19" v:groupContext="shape">
					<title>Sheet.19</title>
					<path d="M0 328.72 L32.07 328.72 L0 328.72 Z" class="st9"/>
					<path d="M0 328.72 L32.07 328.72" class="st10"/>
				</g>
			</g>
			<g id="group20-63" transform="translate(232.439,73.6024) rotate(45)" v:mID="20" v:groupContext="group">
				<title>Sheet.20</title>
				<g id="shape21-64" v:mID="21" v:groupContext="shape">
					<title>Sheet.21</title>
					<path d="M0 328.72 L32.07 328.72 L0 328.72 Z" class="st8"/>
				</g>
				<g id="shape22-66" v:mID="22" v:groupContext="shape">
					<title>Sheet.22</title>
					<path d="M0 328.72 L32.07 328.72 L0 328.72 Z" class="st9"/>
					<path d="M0 328.72 L32.07 328.72" class="st10"/>
				</g>
			</g>
		</g>
		<g id="shape23-69" v:mID="23" v:groupContext="shape" transform="translate(269.291,-226.772)">
			<title>Sheet.23</title>
			<desc>Result</desc>
			<v:userDefs/>
			<v:textBlock v:margins="rect(3.99999,3.99999,3.99999,3.99999)" v:tabSpace="42.5196"/>
			<v:textRect cx="31.8891" cy="307.459" width="63.79" height="42.5197"/>
			<rect x="0" y="286.198" width="63.7795" height="42.5197" class="st2"/>
			<text x="21.27" y="303.86" class="st3" v:langID="1031"><v:paragraph v:horizAlign="1"/><v:tabList/>Post <tspan x="5.91"
						dy="1.2em" class="st4">processing</tspan></text>		</g>
		<g id="shape24-73" v:mID="24" v:groupContext="shape" transform="translate(333.071,-247.842)">
			<title>Sheet.24</title>
			<path d="M0 328.72 L17.39 328.72 L21.26 328.72" class="st5"/>
		</g>
		<g id="shape25-78" v:mID="25" v:groupContext="shape" transform="translate(191.339,-141.732)">
			<title>Sheet.25</title>
			<desc>ADC0</desc>
			<v:userDefs/>
			<v:textBlock v:margins="rect(3.99999,3.99999,3.99999,3.99999)" v:tabSpace="42.5196"/>
			<v:textRect cx="28.3458" cy="307.458" width="56.7" height="42.5197"/>
			<rect x="0" y="286.198" width="56.6928" height="42.5197" class="st2"/>
			<text x="4.75" y="296.66" class="st3" v:langID="1031"><v:paragraph v:horizAlign="1"/><v:tabList/>ADC from <tspan
						x="13.17" dy="1.2em" class="st4">Safety </tspan><tspan x="8.6" dy="1.2em" class="st4">Group 2</tspan></text>		</g>
		<g id="shape26-83" v:mID="26" v:groupContext="shape" transform="translate(165.777,-162.938)">
			<title>Sheet.26</title>
			<path d="M0 328.72 L23.58 328.72 L25.56 328.72" class="st5"/>
		</g>
		<g id="shape27-88" v:mID="27" v:groupContext="shape" transform="translate(109.134,-162.938)">
			<title>Sheet.27</title>
			<path d="M0 328.72 L29.07 328.72 L33.96 328.72" class="st5"/>
		</g>
		<g id="shape28-93" v:mID="28" v:groupContext="shape" transform="translate(35.4331,-148.819)">
			<title>Sheet.28</title>
			<desc>Analog Input</desc>
			<v:userDefs/>
			<v:textBlock v:margins="rect(3.99999,3.99999,3.99999,3.99999)" v:tabSpace="42.5196"/>
			<v:textRect cx="36.8496" cy="314.545" width="73.71" height="28.3465"/>
			<rect x="0" y="300.372" width="73.7006" height="28.3465" class="st1"/>
			<text x="5.79" y="318.14" class="st3" v:langID="1031"><v:paragraph v:horizAlign="1"/><v:tabList/>Analog input</text>		</g>
		<g id="shape29-96" v:mID="29" v:groupContext="shape" transform="translate(248.031,-162.938)">
			<title>Sheet.29</title>
			<path d="M0 328.72 L17.33 328.72 L21.26 328.72" class="st5"/>
		</g>
		<g id="shape30-101" v:mID="30" v:groupContext="shape" transform="translate(354.331,-141.732)">
			<title>Sheet.30</title>
			<desc>Result</desc>
			<v:userDefs/>
			<v:textBlock v:margins="rect(3.99999,3.99999,3.99999,3.99999)" v:tabSpace="42.5196"/>
			<v:textRect cx="21.2594" cy="307.459" width="42.53" height="42.5197"/>
			<rect x="0" y="286.198" width="42.5197" height="42.5197" class="st2"/>
			<text x="6.13" y="311.06" class="st3" v:langID="1031"><v:paragraph v:horizAlign="1"/><v:tabList/>Result</text>		</g>
		<g id="shape31-104" v:mID="31" v:groupContext="shape" transform="translate(396.85,-162.941)">
			<title>Sheet.31</title>
			<path d="M0 328.72 L15.38 328.72 L18.81 328.72" class="st5"/>
		</g>
		<g id="shape32-109" v:mID="32" v:groupContext="shape" transform="translate(127.559,-174.7)">
			<title>Sheet.32</title>
			<desc>Pin</desc>
			<v:userDefs/>
			<v:textBlock v:margins="rect(3.99999,3.99999,3.99999,3.99999)" v:tabSpace="42.5196"/>
			<v:textRect cx="14.1725" cy="321.632" width="28.35" height="14.1732"/>
			<rect x="0" y="314.545" width="28.3464" height="14.1732" class="st7"/>
			<text x="6.54" y="325.23" class="st3" v:langID="1031"><v:paragraph v:horizAlign="1"/><v:tabList/>Pin</text>		</g>
		<g id="group33-112" transform="translate(143.097,-151.601)" v:mID="33" v:groupContext="group">
			<title>Sheet.33</title>
			<g id="shape34-113" v:mID="34" v:groupContext="shape" transform="translate(0.00228222,-0.00329669)">
				<title>Sheet.34</title>
				<rect x="0" y="306.041" width="22.6771" height="22.6771" class="st2"/>
			</g>
			<g id="group35-115" transform="translate(-232.434,96.2793) rotate(-45)" v:mID="35" v:groupContext="group">
				<title>Sheet.35</title>
				<g id="shape36-116" v:mID="36" v:groupContext="shape">
					<title>Sheet.36</title>
					<path d="M0 328.72 L32.07 328.72 L0 328.72 Z" class="st8"/>
				</g>
				<g id="shape37-118" v:mID="37" v:groupContext="shape">
					<title>Sheet.37</title>
					<path d="M0 328.72 L32.07 328.72 L0 328.72 Z" class="st9"/>
					<path d="M0 328.72 L32.07 328.72" class="st10"/>
				</g>
			</g>
			<g id="group38-121" transform="translate(232.439,73.6024) rotate(45)" v:mID="38" v:groupContext="group">
				<title>Sheet.38</title>
				<g id="shape39-122" v:mID="39" v:groupContext="shape">
					<title>Sheet.39</title>
					<path d="M0 328.72 L32.07 328.72 L0 328.72 Z" class="st8"/>
				</g>
				<g id="shape40-124" v:mID="40" v:groupContext="shape">
					<title>Sheet.40</title>
					<path d="M0 328.72 L32.07 328.72 L0 328.72 Z" class="st9"/>
					<path d="M0 328.72 L32.07 328.72" class="st10"/>
				</g>
			</g>
		</g>
		<g id="shape41-127" v:mID="41" v:groupContext="shape" transform="translate(269.291,-141.732)">
			<title>Sheet.41</title>
			<desc>Result</desc>
			<v:userDefs/>
			<v:textBlock v:margins="rect(3.99999,3.99999,3.99999,3.99999)" v:tabSpace="42.5196"/>
			<v:textRect cx="31.8891" cy="307.459" width="63.79" height="42.5197"/>
			<rect x="0" y="286.198" width="63.7795" height="42.5197" class="st2"/>
			<text x="21.27" y="303.86" class="st3" v:langID="1031"><v:paragraph v:horizAlign="1"/><v:tabList/>Post <tspan x="5.91"
						dy="1.2em" class="st4">processing</tspan></text>		</g>
		<g id="shape42-131" v:mID="42" v:groupContext="shape" transform="translate(333.071,-162.802)">
			<title>Sheet.42</title>
			<path d="M0 328.72 L17.39 328.72 L21.26 328.72" class="st5"/>
		</g>
	</g>
</svg>
