<?xml version="1.0" encoding="UTF-8" standalone="no"?>
<!DOCTYPE svg PUBLIC "-//W3C//DTD SVG 1.1//EN" "http://www.w3.org/Graphics/SVG/1.1/DTD/svg11.dtd">
<!-- Generated by Microsoft Visio, SVG Export DedicatedMemLinear_2x_PFLASH.svg Page-1 -->
<svg xmlns="http://www.w3.org/2000/svg" xmlns:xlink="http://www.w3.org/1999/xlink" xmlns:ev="http://www.w3.org/2001/xml-events"
		width="6.09798in" height="3.34692in" viewBox="0 0 439.055 240.978" xml:space="preserve" color-interpolation-filters="sRGB"
		class="st17">
	<style type="text/css">
	<![CDATA[
		.st1 {fill:#ffc000;stroke:none;stroke-linecap:round;stroke-linejoin:round;stroke-width:0.75}
		.st2 {fill:#000000;font-family:Calibri;font-size:0.499992em}
		.st3 {fill:#9dc3e6;stroke:none;stroke-linecap:round;stroke-linejoin:round;stroke-width:0.75}
		.st4 {fill:#bfbfbf;stroke:none;stroke-linecap:round;stroke-linejoin:round;stroke-width:0.75}
		.st5 {marker-end:url(#mrkr1-54);marker-start:url(#mrkr1-52);stroke:#ff0000;stroke-linecap:round;stroke-linejoin:round;stroke-width:0.75}
		.st6 {fill:#ff0000;fill-opacity:1;stroke:#ff0000;stroke-opacity:1;stroke-width:0.22935779816514}
		.st7 {marker-start:url(#mrkr1-70);stroke:#ff0000;stroke-linecap:round;stroke-linejoin:round;stroke-width:1}
		.st8 {fill:#ff0000;fill-opacity:1;stroke:#ff0000;stroke-opacity:1;stroke-width:0.28409090909091}
		.st9 {marker-start:url(#mrkr1-76);stroke:#000000;stroke-linecap:round;stroke-linejoin:round;stroke-width:1}
		.st10 {fill:#000000;fill-opacity:1;stroke:#000000;stroke-opacity:1;stroke-width:0.28409090909091}
		.st11 {fill:#bfbfbf;stroke:#000000;stroke-linecap:round;stroke-linejoin:round;stroke-width:0.75}
		.st12 {marker-end:url(#mrkr1-54);stroke:#ff0000;stroke-linecap:round;stroke-linejoin:round;stroke-width:0.75}
		.st13 {fill:none;stroke:none;stroke-linecap:round;stroke-linejoin:round;stroke-width:0.75}
		.st14 {font-size:1em}
		.st15 {stroke:#000000;stroke-dasharray:0.75,1.5;stroke-linecap:round;stroke-linejoin:round;stroke-width:0.75}
		.st16 {fill:#9dc3e6;stroke:#000000;stroke-linecap:round;stroke-linejoin:round;stroke-width:0.75}
		.st17 {fill:none;fill-rule:evenodd;font-size:12px;overflow:visible;stroke-linecap:square;stroke-miterlimit:3}
	]]>
	</style>

	<defs id="Markers">
		<g id="lend1">
			<path d="M 1 -1 L 0 0 L 1 1 " style="stroke-linecap:round;stroke-linejoin:round;fill:none"/>
		</g>
		<marker id="mrkr1-52" class="st6" orient="auto" markerUnits="strokeWidth" overflow="visible">
			<use xlink:href="#lend1" transform="scale(4.36) "/>
		</marker>
		<marker id="mrkr1-54" class="st6" orient="auto" markerUnits="strokeWidth" overflow="visible">
			<use xlink:href="#lend1" transform="scale(-4.36,-4.36) "/>
		</marker>
		<marker id="mrkr1-70" class="st8" orient="auto" markerUnits="strokeWidth" overflow="visible">
			<use xlink:href="#lend1" transform="scale(3.52) "/>
		</marker>
		<marker id="mrkr1-76" class="st10" orient="auto" markerUnits="strokeWidth" overflow="visible">
			<use xlink:href="#lend1" transform="scale(3.52) "/>
		</marker>
	</defs>
	<g>
		<title>Page-1</title>
		<g id="shape104-1" transform="translate(265.058,-0.375)">
			<title>Sheet.104</title>
			<desc>NVM</desc>
			<rect x="0" y="181.249" width="173.622" height="59.7292" class="st1"/>
			<text x="4" y="190.65" class="st2">NVM</text>		</g>
		<g id="shape61-4" transform="translate(125.097,-103.022)">
			<title>Sheet.61</title>
			<desc>CPUx</desc>
			<path d="M0 104.92 L0 240.98 L194.17 240.98 L194.17 104.92 L0 104.92 L0 104.92 Z" class="st1"/>
			<text x="4" y="114.32" class="st2">CPUx</text>		</g>
		<g id="shape17-7" transform="translate(251.24,-159.715)">
			<title>Sheet.17</title>
			<desc>PSPR</desc>
			<path d="M0 240.98 L0 224.45 L28.79 224.45 L28.79 240.98 L0 240.98 Z" class="st3"/>
			<text x="8.29" y="234.51" class="st2">PSPR</text>		</g>
		<g id="shape27-10" transform="translate(282.774,-9.06538)">
			<title>Sheet.27</title>
			<desc>PFLASH.x0</desc>
			<path d="M0 198.63 L0 240.98 L59.24 240.98 L59.24 198.63 L0 198.63 L0 198.63 Z" class="st3"/>
			<text x="16.87" y="221.6" class="st2">PFLASH.x0</text>		</g>
		<g id="shape57-13" transform="translate(46.8775,-52.7472)">
			<title>Sheet.57</title>
			<desc>SRI</desc>
			<path d="M0 216.22 L0 240.98 L194.17 240.98 L194.17 216.22 L0 216.22 L0 216.22 Z" class="st4"/>
			<text x="4" y="225.62" class="st2">SRI</text>		</g>
		<g id="shape60-16" transform="translate(355.16,-180.691)">
			<title>Sheet.60</title>
			<desc>SCU</desc>
			<rect x="0" y="181.249" width="64.7404" height="59.7292" class="st1"/>
			<text x="4" y="190.65" class="st2">SCU</text>		</g>
		<g id="shape78-19" transform="translate(137.853,-159.715)">
			<title>Sheet.78</title>
			<desc>DSPR</desc>
			<path d="M0 240.98 L0 224.45 L28.79 224.45 L28.79 240.98 L0 240.98 Z" class="st3"/>
			<text x="7.99" y="234.51" class="st2">DSPR</text>		</g>
		<g id="shape79-22" transform="translate(280.555,-159.715)">
			<title>Sheet.79</title>
			<desc>PCACHE</desc>
			<path d="M0 240.98 L0 224.45 L28.79 224.45 L28.79 240.98 L0 240.98 Z" class="st3"/>
			<text x="4.58" y="234.51" class="st2">PCACHE</text>		</g>
		<g id="shape80-25" transform="translate(167.17,-159.715)">
			<title>Sheet.80</title>
			<desc>DCACHE</desc>
			<path d="M0 240.98 L0 224.45 L28.79 224.45 L28.79 240.98 L0 240.98 Z" class="st3"/>
			<text x="4.28" y="234.51" class="st2">DCACHE</text>		</g>
		<g id="shape81-28" transform="translate(209.646,-159.715)">
			<title>Sheet.81</title>
			<desc>DLMU</desc>
			<path d="M0 240.98 L0 224.45 L28.79 224.45 L28.79 240.98 L0 240.98 Z" class="st3"/>
			<text x="6.8" y="234.51" class="st2">DLMU</text>		</g>
		<g id="shape82-31" transform="translate(172.621,-190.726)">
			<title>Sheet.82</title>
			<desc>CORE</desc>
			<path d="M0 240.98 L0 200.95 L102.84 200.95 L102.84 240.98 L0 240.98 Z" class="st3"/>
			<text x="44.74" y="222.77" class="st2">CORE</text>		</g>
		<g id="shape83-34" transform="translate(270.372,-102.84)">
			<title>Sheet.83</title>
			<desc>CFI</desc>
			<path d="M0 240.98 L0 224.45 L28.79 224.45 L28.79 240.98 L0 240.98 Z" class="st3"/>
			<text x="10.66" y="234.51" class="st2">CFI</text>		</g>
		<g id="shape84-37" transform="translate(142.857,-102.84)">
			<title>Sheet.84</title>
			<desc>M-SRI</desc>
			<path d="M0 240.98 L0 224.45 L28.79 224.45 L28.79 240.98 L0 240.98 Z" class="st3"/>
			<text x="7.15" y="234.51" class="st2">M-SRI</text>		</g>
		<g id="shape85-40" transform="translate(202.385,-102.84)">
			<title>Sheet.85</title>
			<desc>S-SRI</desc>
			<path d="M0 240.98 L0 224.45 L28.79 224.45 L28.79 240.98 L0 240.98 Z" class="st3"/>
			<text x="8.34" y="234.51" class="st2">S-SRI</text>		</g>
		<g id="shape86-43" transform="translate(363.272,-9.06538)">
			<title>Sheet.86</title>
			<desc>PFLASH.x1</desc>
			<path d="M0 198.63 L0 240.98 L59.24 240.98 L59.24 198.63 L0 198.63 L0 198.63 Z" class="st3"/>
			<text x="16.87" y="221.6" class="st2">PFLASH.x1</text>		</g>
		<g id="shape88-46" transform="translate(284.987,-102.84)">
			<title>Dynamic connector</title>
			<path d="M0 240.98 L0 260.64 L26.98 260.64 L26.98 292.4" class="st5"/>
		</g>
		<g id="shape89-55" transform="translate(392.847,-51.4138)">
			<title>Dynamic connector.89</title>
			<path d="M0 240.98 L0 209.21 L-107.86 209.21 L-107.86 189.55" class="st5"/>
		</g>
		<g id="shape91-62" transform="translate(24.9234,-180.874)">
			<title>Sheet.91</title>
			<desc>IR</desc>
			<rect x="0" y="181.249" width="64.7404" height="59.7292" class="st4"/>
			<text x="4" y="190.65" class="st2">IR</text>		</g>
		<g id="shape92-65" transform="translate(89.6893,-210.739)">
			<title>Sheet.92</title>
			<path d="M0 240.98 L35.41 240.98" class="st7"/>
		</g>
		<g id="shape93-71" transform="translate(-83.2829,163.65) rotate(-90)">
			<title>Sheet.93</title>
			<path d="M0 240.98 L25.51 240.98" class="st9"/>
		</g>
		<g id="shape94-77" transform="translate(455.366,138.138) rotate(90)">
			<title>Sheet.94</title>
			<path d="M0 240.98 L25.51 240.98" class="st9"/>
		</g>
		<g id="shape96-82" transform="translate(69.0339,-202.473)">
			<title>Sheet.96</title>
			<desc>SRNi</desc>
			<rect x="0" y="224.447" width="20.6299" height="16.5312" class="st11"/>
			<text x="4" y="233.85" class="st2">SRNi</text>		</g>
		<g id="shape97-85" transform="translate(24.9234,-202.473)">
			<title>Sheet.97</title>
			<desc>ICUx</desc>
			<rect x="0" y="224.447" width="20.6299" height="16.5312" class="st11"/>
			<text x="4" y="233.85" class="st2">ICUx</text>		</g>
		<g id="shape98-88" transform="translate(24.9234,-210.739)">
			<title>Dynamic connector.98</title>
			<path d="M0 240.98 L-20.3 240.98 L-20.3 301.79 L100.17 301.79" class="st12"/>
		</g>
		<g id="shape101-93" transform="translate(319.296,-192.203)">
			<title>Sheet.101</title>
			<path d="M0 240.98 L35.41 240.98" class="st7"/>
		</g>
		<g id="shape102-98" transform="translate(317.485,-191.784)">
			<title>Sheet.102</title>
			<desc>SOTA control</desc>
			<rect x="0" y="226.224" width="41.4706" height="14.7544" class="st13"/>
			<text x="14.17" y="231.8" class="st2">SOTA  <tspan x="11.99" dy="1.2em" class="st14">control</tspan></text>		</g>
		<g id="shape103-102" transform="translate(157.695,-66.2223)">
			<title>Sheet.103</title>
			<path d="M0 229.87 L0 240.98 L57 240.98 L56.69 229.87" class="st15"/>
		</g>
		<g id="shape110-105" transform="translate(178.508,-190.896)">
			<title>Sheet.110</title>
			<desc>DMBI</desc>
			<path d="M0 240.98 L0 224.45 L28.79 224.45 L28.79 240.98 L0 240.98 Z" class="st16"/>
			<text x="7.6" y="234.51" class="st2">DMBI</text>		</g>
		<g id="shape111-108" transform="translate(242.288,-190.896)">
			<title>Sheet.111</title>
			<desc>PMBI</desc>
			<path d="M0 240.98 L0 224.45 L28.79 224.45 L28.79 240.98 L0 240.98 Z" class="st16"/>
			<text x="7.89" y="234.51" class="st2">PMBI</text>		</g>
		<g id="shape112-111" transform="translate(319.27,-217.825)">
			<title>Sheet.112</title>
			<path d="M0 240.98 L35.41 240.98" class="st9"/>
		</g>
		<g id="shape113-116" transform="translate(327.38,-217.825)">
			<title>Sheet.113</title>
			<desc>NMI</desc>
			<rect x="0" y="232.035" width="20.6299" height="8.9437" class="st13"/>
			<text x="5.06" y="238.31" class="st2">NMI</text>		</g>
	</g>
</svg>
