<?xml version="1.0" encoding="UTF-8" standalone="no"?>
<!DOCTYPE svg PUBLIC "-//W3C//DTD SVG 1.1//EN" "http://www.w3.org/Graphics/SVG/1.1/DTD/svg11.dtd">
<!-- Generated by Microsoft Visio, SVG Export SOTA_A_PFLASH.svg Page-1 -->
<svg xmlns="http://www.w3.org/2000/svg" xmlns:xlink="http://www.w3.org/1999/xlink" xmlns:ev="http://www.w3.org/2001/xml-events"
		width="6.09798in" height="3.34692in" viewBox="0 0 439.055 240.978" xml:space="preserve" color-interpolation-filters="sRGB"
		class="st16">
	<style type="text/css">
	<![CDATA[
		.st1 {fill:#ffc000;stroke:none;stroke-linecap:round;stroke-linejoin:round;stroke-width:0.75}
		.st2 {fill:#000000;font-family:Calibri;font-size:0.499992em}
		.st3 {fill:#9dc3e6;stroke:none;stroke-linecap:round;stroke-linejoin:round;stroke-width:0.75}
		.st4 {marker-end:url(#mrkr1-27);marker-start:url(#mrkr1-25);stroke:#ff0000;stroke-linecap:round;stroke-linejoin:round;stroke-width:0.75}
		.st5 {fill:#ff0000;fill-opacity:1;stroke:#ff0000;stroke-opacity:1;stroke-width:0.22935779816514}
		.st6 {fill:#bfbfbf;stroke:none;stroke-linecap:round;stroke-linejoin:round;stroke-width:0.75}
		.st7 {marker-start:url(#mrkr1-36);stroke:#ff0000;stroke-linecap:round;stroke-linejoin:round;stroke-width:1}
		.st8 {fill:#ff0000;fill-opacity:1;stroke:#ff0000;stroke-opacity:1;stroke-width:0.28409090909091}
		.st9 {fill:#bfbfbf;stroke:#000000;stroke-linecap:round;stroke-linejoin:round;stroke-width:0.75}
		.st10 {marker-end:url(#mrkr1-27);stroke:#ff0000;stroke-linecap:round;stroke-linejoin:round;stroke-width:0.75}
		.st11 {fill:none;stroke:none;stroke-linecap:round;stroke-linejoin:round;stroke-width:0.75}
		.st12 {font-size:1em}
		.st13 {fill:#9dc3e6;stroke:#000000;stroke-linecap:round;stroke-linejoin:round;stroke-width:0.75}
		.st14 {marker-start:url(#mrkr1-68);stroke:#000000;stroke-linecap:round;stroke-linejoin:round;stroke-width:1}
		.st15 {fill:#000000;fill-opacity:1;stroke:#000000;stroke-opacity:1;stroke-width:0.28409090909091}
		.st16 {fill:none;fill-rule:evenodd;font-size:12px;overflow:visible;stroke-linecap:square;stroke-miterlimit:3}
	]]>
	</style>

	<defs id="Markers">
		<g id="lend1">
			<path d="M 1 -1 L 0 0 L 1 1 " style="stroke-linecap:round;stroke-linejoin:round;fill:none"/>
		</g>
		<marker id="mrkr1-25" class="st5" orient="auto" markerUnits="strokeWidth" overflow="visible">
			<use xlink:href="#lend1" transform="scale(4.36) "/>
		</marker>
		<marker id="mrkr1-27" class="st5" orient="auto" markerUnits="strokeWidth" overflow="visible">
			<use xlink:href="#lend1" transform="scale(-4.36,-4.36) "/>
		</marker>
		<marker id="mrkr1-36" class="st8" orient="auto" markerUnits="strokeWidth" overflow="visible">
			<use xlink:href="#lend1" transform="scale(3.52) "/>
		</marker>
		<marker id="mrkr1-68" class="st15" orient="auto" markerUnits="strokeWidth" overflow="visible">
			<use xlink:href="#lend1" transform="scale(3.52) "/>
		</marker>
	</defs>
	<g>
		<title>Page-1</title>
		<g id="shape1-1" transform="translate(265.058,-0.375)">
			<title>Sheet.1</title>
			<desc>NVM</desc>
			<rect x="0" y="181.249" width="173.622" height="59.7292" class="st1"/>
			<text x="4" y="190.65" class="st2">NVM</text>		</g>
		<g id="shape2-4" transform="translate(125.097,-103.022)">
			<title>Sheet.2</title>
			<desc>CPUx</desc>
			<path d="M0 104.92 L0 240.98 L194.17 240.98 L194.17 104.92 L0 104.92 L0 104.92 Z" class="st1"/>
			<text x="4" y="114.32" class="st2">CPUx</text>		</g>
		<g id="shape4-7" transform="translate(282.774,-9.06538)">
			<title>Sheet.4</title>
			<desc>PFLASH.x0</desc>
			<path d="M0 198.63 L0 240.98 L59.24 240.98 L59.24 198.63 L0 198.63 L0 198.63 Z" class="st3"/>
			<text x="16.87" y="221.6" class="st2">PFLASH.x0</text>		</g>
		<g id="shape6-10" transform="translate(355.16,-180.691)">
			<title>Sheet.6</title>
			<desc>SCU</desc>
			<rect x="0" y="181.249" width="64.7404" height="59.7292" class="st1"/>
			<text x="4" y="190.65" class="st2">SCU</text>		</g>
		<g id="shape12-13" transform="translate(172.621,-190.726)">
			<title>Sheet.12</title>
			<desc>CORE</desc>
			<path d="M0 240.98 L0 200.95 L102.84 200.95 L102.84 240.98 L0 240.98 Z" class="st3"/>
			<text x="44.74" y="222.77" class="st2">CORE</text>		</g>
		<g id="shape13-16" transform="translate(270.372,-103.022)">
			<title>Sheet.13</title>
			<desc>CFI</desc>
			<path d="M0 240.98 L0 224.45 L28.79 224.45 L28.79 240.98 L0 240.98 Z" class="st3"/>
			<text x="10.66" y="234.51" class="st2">CFI</text>		</g>
		<g id="shape17-19" transform="translate(284.987,-103.022)">
			<title>Dynamic connector</title>
			<path d="M0 240.98 L0 260.82 L26.98 260.82 L26.98 292.59" class="st4"/>
		</g>
		<g id="shape20-28" transform="translate(24.9234,-180.874)">
			<title>Sheet.20</title>
			<desc>IR</desc>
			<rect x="0" y="181.249" width="64.7404" height="59.7292" class="st6"/>
			<text x="4" y="190.65" class="st2">IR</text>		</g>
		<g id="shape21-31" transform="translate(89.6893,-210.739)">
			<title>Sheet.21</title>
			<path d="M0 240.98 L35.41 240.98" class="st7"/>
		</g>
		<g id="shape24-37" transform="translate(69.0339,-202.473)">
			<title>Sheet.24</title>
			<desc>SRNi</desc>
			<rect x="0" y="224.447" width="20.6299" height="16.5312" class="st9"/>
			<text x="4" y="233.85" class="st2">SRNi</text>		</g>
		<g id="shape25-40" transform="translate(24.9234,-202.473)">
			<title>Sheet.25</title>
			<desc>ICUx</desc>
			<rect x="0" y="224.447" width="20.6299" height="16.5312" class="st9"/>
			<text x="4" y="233.85" class="st2">ICUx</text>		</g>
		<g id="shape26-43" transform="translate(24.9234,-210.739)">
			<title>Dynamic connector.98</title>
			<path d="M0 240.98 L-20.3 240.98 L-20.3 301.79 L100.17 301.79" class="st10"/>
		</g>
		<g id="shape29-48" transform="translate(319.296,-192.203)">
			<title>Sheet.29</title>
			<path d="M0 240.98 L35.41 240.98" class="st7"/>
		</g>
		<g id="shape30-53" transform="translate(317.853,-195.802)">
			<title>Sheet.30</title>
			<desc>SOTA control</desc>
			<rect x="0" y="234.545" width="41.4706" height="6.43308" class="st11"/>
			<text x="14.17" y="235.96" class="st2">SOTA  <tspan x="11.99" dy="1.2em" class="st12">control</tspan></text>		</g>
		<g id="shape37-57" transform="translate(179.099,-190.896)">
			<title>Sheet.37</title>
			<desc>DMBI</desc>
			<path d="M0 240.98 L0 224.45 L28.79 224.45 L28.79 240.98 L0 240.98 Z" class="st13"/>
			<text x="7.6" y="234.51" class="st2">DMBI</text>		</g>
		<g id="shape38-60" transform="translate(242.288,-190.896)">
			<title>Sheet.38</title>
			<desc>PMBI</desc>
			<path d="M0 240.98 L0 224.45 L28.79 224.45 L28.79 240.98 L0 240.98 Z" class="st13"/>
			<text x="7.89" y="234.51" class="st2">PMBI</text>		</g>
		<g id="shape148-63" transform="translate(319.579,-218.803)">
			<title>Sheet.148</title>
			<path d="M0 240.98 L35.41 240.98" class="st14"/>
		</g>
		<g id="shape149-69" transform="translate(327.689,-218.803)">
			<title>Sheet.149</title>
			<desc>NMI</desc>
			<rect x="0" y="232.035" width="20.6299" height="8.9437" class="st11"/>
			<text x="5.06" y="238.31" class="st2">NMI</text>		</g>
	</g>
</svg>
