<?xml version="1.0" encoding="UTF-8" standalone="no"?>
<!DOCTYPE svg PUBLIC "-//W3C//DTD SVG 1.1//EN" "http://www.w3.org/Graphics/SVG/1.1/DTD/svg11.dtd">
<!-- Generated by Microsoft Visio, SVG Export LLI W.svg Page-1 -->
<svg xmlns="http://www.w3.org/2000/svg" xmlns:xlink="http://www.w3.org/1999/xlink" xmlns:ev="http://www.w3.org/2001/xml-events"
		xmlns:v="http://schemas.microsoft.com/visio/2003/SVGExtensions/" width="10.601in" height="6.96478in"
		viewBox="0 0 763.27 501.464" xml:space="preserve" color-interpolation-filters="sRGB" class="st16">
	<v:documentProperties v:langID="1031" v:metric="true" v:viewMarkup="false"/>

	<style type="text/css">
	<![CDATA[
		.st1 {fill:#f2f2f2;stroke:#000000;stroke-dasharray:5.25,3.75;stroke-linecap:round;stroke-linejoin:round;stroke-width:0.75}
		.st2 {fill:#ebf1df;stroke:#000000;stroke-linecap:round;stroke-linejoin:round;stroke-width:0.75}
		.st3 {fill:#ccc2d9;stroke:#000000;stroke-linecap:round;stroke-linejoin:round;stroke-width:0.75}
		.st4 {fill:#000000;font-family:Calibri;font-size:0.666664em}
		.st5 {fill:#ffffff;fill-opacity:0;stroke:#000000;stroke-dasharray:0.75,1.5;stroke-linecap:round;stroke-linejoin:round;stroke-width:0.75}
		.st6 {fill:none;stroke:#000000;stroke-dasharray:0.75,1.5;stroke-linecap:round;stroke-linejoin:round;stroke-width:0.75}
		.st7 {fill:none;stroke:none;stroke-linecap:round;stroke-linejoin:round;stroke-width:0.75}
		.st8 {fill:#000000;font-family:Calibri;font-size:1.00001em}
		.st9 {fill:#000000;font-family:Calibri;font-size:0.833336em}
		.st10 {marker-end:url(#mrkr13-35);stroke:#000000;stroke-linecap:round;stroke-linejoin:round;stroke-width:0.75}
		.st11 {fill:#000000;fill-opacity:1;stroke:#000000;stroke-opacity:1;stroke-width:0.22935779816514}
		.st12 {marker-start:url(#mrkr13-121);stroke:#000000;stroke-linecap:round;stroke-linejoin:round;stroke-width:0.75}
		.st13 {fill:#fee599;stroke:#000000;stroke-linecap:round;stroke-linejoin:round;stroke-width:0.75}
		.st14 {font-size:1em}
		.st15 {fill:#ffffff;stroke:#000000;stroke-linecap:round;stroke-linejoin:round;stroke-width:0.75}
		.st16 {fill:none;fill-rule:evenodd;font-size:12px;overflow:visible;stroke-linecap:square;stroke-miterlimit:3}
	]]>
	</style>

	<defs id="Markers">
		<g id="lend13">
			<path d="M 3 1 L 0 0 L 3 -1 L 3 1 " style="stroke:none"/>
		</g>
		<marker id="mrkr13-35" class="st11" v:arrowType="13" v:arrowSize="2" v:setback="13.08" refX="-13.08" orient="auto"
				markerUnits="strokeWidth" overflow="visible">
			<use xlink:href="#lend13" transform="scale(-4.36,-4.36) "/>
		</marker>
		<marker id="mrkr13-121" class="st11" v:arrowType="13" v:arrowSize="2" v:setback="12.6" refX="12.6" orient="auto"
				markerUnits="strokeWidth" overflow="visible">
			<use xlink:href="#lend13" transform="scale(4.36) "/>
		</marker>
	</defs>
	<g v:mID="0" v:index="1" v:groupContext="foregroundPage">
		<title>Page-1</title>
		<v:pageProperties v:drawingScale="0.0393701" v:pageScale="0.0393701" v:drawingUnits="24" v:shadowOffsetX="8.50394"
				v:shadowOffsetY="-8.50394"/>
		<g id="shape895-1" v:mID="895" v:groupContext="shape" transform="translate(0.375,-46.1545)">
			<title>Sheet.895</title>
			<path d="M0 501.46 L762.52 501.46 L762.52 145.72 L0 145.72 L0 501.46 Z" class="st1"/>
		</g>
		<g id="shape59-3" v:mID="59" v:groupContext="shape" transform="translate(39.685,-187.459)">
			<title>Sheet.59</title>
			<rect x="0" y="388.864" width="679.273" height="112.6" class="st2"/>
		</g>
		<g id="shape111-5" v:mID="111" v:groupContext="shape" transform="translate(52.2815,-273.715)">
			<title>Sheet.111</title>
			<desc>AXI User Sideband</desc>
			<v:textBlock v:margins="rect(4,4,4,4)" v:tabSpace="42.5197"/>
			<v:textRect cx="54.1506" cy="488.292" width="108.31" height="26.3441"/>
			<rect x="0" y="475.12" width="108.301" height="26.3441" class="st3"/>
			<text x="24.36" y="490.69" class="st4" v:langID="1031"><v:paragraph v:horizAlign="1"/><v:tabList/>AXI User Sideband</text>		</g>
		<g id="shape114-8" v:mID="114" v:groupContext="shape" transform="translate(337.614,-273.715)">
			<title>Sheet.114</title>
			<desc>AXI User Sideband</desc>
			<v:textBlock v:margins="rect(4,4,4,4)" v:tabSpace="42.5197"/>
			<v:textRect cx="36.9934" cy="488.292" width="73.99" height="26.3441"/>
			<rect x="0" y="475.12" width="73.9868" height="26.3441" class="st3"/>
			<text x="7.2" y="490.69" class="st4" v:langID="1031"><v:paragraph v:horizAlign="1"/><v:tabList/>AXI User Sideband</text>		</g>
		<g id="shape203-11" v:mID="203" v:groupContext="shape" transform="translate(46.7717,-187.459)">
			<title>Sheet.203</title>
			<path d="M0 501.46 L656.91 501.46 L656.91 456.27 L0 456.27 L0 501.46 Z" class="st5"/>
		</g>
		<g id="shape193-13" v:mID="193" v:groupContext="shape" transform="translate(590.881,-187.459)">
			<title>Sheet.193</title>
			<desc>AXI User Sideband</desc>
			<v:textBlock v:margins="rect(4,4,4,4)" v:tabSpace="42.5197"/>
			<v:textRect cx="36.9934" cy="488.292" width="73.99" height="26.3441"/>
			<rect x="0" y="475.12" width="73.9868" height="26.3441" class="st3"/>
			<text x="7.2" y="490.69" class="st4" v:langID="1031"><v:paragraph v:horizAlign="1"/><v:tabList/>AXI User Sideband</text>		</g>
		<g id="shape204-16" v:mID="204" v:groupContext="shape" transform="translate(55.6506,-258.576)">
			<title>Sheet.204</title>
			<path d="M0 501.46 L646.3 501.46 L646.3 459.98 L0 459.98 L0 501.46 Z" class="st6"/>
		</g>
		<g id="shape205-18" v:mID="205" v:groupContext="shape" transform="translate(292.446,-258.576)">
			<title>Sheet.205</title>
			<desc>LLI_AXIM0</desc>
			<v:textBlock v:margins="rect(4,4,4,4)" v:tabSpace="42.5197"/>
			<v:textRect cx="60.4797" cy="495.07" width="120.96" height="12.7871"/>
			<rect x="0" y="488.677" width="120.959" height="12.7871" class="st7"/>
			<text x="34.67" y="498.67" class="st8" v:langID="1031"><v:paragraph v:horizAlign="1"/><v:tabList/>LLI_AXIM0</text>		</g>
		<g id="shape206-21" v:mID="206" v:groupContext="shape" transform="translate(292.446,-219.869)">
			<title>Sheet.206</title>
			<desc>LLI_AXIS0</desc>
			<v:textBlock v:margins="rect(4,4,4,4)" v:tabSpace="42.5197"/>
			<v:textRect cx="60.4797" cy="495.07" width="120.96" height="12.7871"/>
			<rect x="0" y="488.677" width="120.959" height="12.7871" class="st7"/>
			<text x="37.04" y="498.67" class="st8" v:langID="1031"><v:paragraph v:horizAlign="1"/><v:tabList/>LLI_AXIS0</text>		</g>
		<g id="shape191-24" v:mID="191" v:groupContext="shape" transform="translate(335.62,-187.459)">
			<title>Sheet.191</title>
			<desc>AXI User Sideband</desc>
			<v:textBlock v:margins="rect(4,4,4,4)" v:tabSpace="42.5197"/>
			<v:textRect cx="38.8452" cy="488.292" width="77.7" height="26.3441"/>
			<rect x="0" y="475.12" width="77.6904" height="26.3441" class="st3"/>
			<text x="9.05" y="490.69" class="st4" v:langID="1031"><v:paragraph v:horizAlign="1"/><v:tabList/>AXI User Sideband</text>		</g>
		<g id="shape508-27" v:mID="508" v:groupContext="shape" transform="translate(591.13,22.2935) rotate(90)">
			<title>Sheet.508</title>
			<desc>Awlock</desc>
			<v:textBlock v:margins="rect(4,4,4,4)" v:tabSpace="42.5197"/>
			<v:textRect cx="40.2254" cy="490.472" width="80.46" height="21.9847"/>
			<rect x="0" y="479.479" width="80.4509" height="21.9847" class="st7"/>
			<text x="25.59" y="493.47" class="st9" v:langID="1031"><v:paragraph v:horizAlign="1"/><v:tabList/>Awlock</text>		</g>
		<g id="shape500-30" v:mID="500" v:groupContext="shape" transform="translate(585.457,13.209) rotate(90)">
			<title>Sheet.500</title>
			<path d="M0 501.46 L178.66 501.46" class="st10"/>
		</g>
		<g id="shape501-36" v:mID="501" v:groupContext="shape" transform="translate(597.138,13.209) rotate(90)">
			<title>Sheet.501</title>
			<path d="M0 501.46 L178.66 501.46" class="st10"/>
		</g>
		<g id="shape502-41" v:mID="502" v:groupContext="shape" transform="translate(607.446,13.209) rotate(90)">
			<title>Sheet.502</title>
			<path d="M0 501.46 L178.66 501.46" class="st10"/>
		</g>
		<g id="shape503-46" v:mID="503" v:groupContext="shape" transform="translate(572.67,13.209) rotate(90)">
			<title>Sheet.503</title>
			<path d="M0 501.46 L178.66 501.46" class="st10"/>
		</g>
		<g id="shape504-51" v:mID="504" v:groupContext="shape" transform="translate(617.68,13.209) rotate(90)">
			<title>Sheet.504</title>
			<path d="M0 501.46 L178.66 501.46" class="st10"/>
		</g>
		<g id="shape505-56" v:mID="505" v:groupContext="shape" transform="translate(557.114,23.1473) rotate(90)">
			<title>Sheet.505</title>
			<desc>Awaddr</desc>
			<v:textBlock v:margins="rect(4,4,4,4)" v:tabSpace="42.5197"/>
			<v:textRect cx="35.0683" cy="490.472" width="70.14" height="21.9847"/>
			<rect x="0" y="479.479" width="70.1367" height="21.9847" class="st7"/>
			<text x="19.21" y="493.47" class="st9" v:langID="1031"><v:paragraph v:horizAlign="1"/><v:tabList/>Awaddr</text>		</g>
		<g id="shape506-59" v:mID="506" v:groupContext="shape" transform="translate(571.288,25.1474) rotate(90)">
			<title>Sheet.506</title>
			<desc>Awburst</desc>
			<v:textBlock v:margins="rect(4,4,4,4)" v:tabSpace="42.5197"/>
			<v:textRect cx="35.0683" cy="490.472" width="70.14" height="21.9847"/>
			<rect x="0" y="479.479" width="70.1367" height="21.9847" class="st7"/>
			<text x="17.97" y="493.47" class="st9" v:langID="1031"><v:paragraph v:horizAlign="1"/><v:tabList/>Awburst</text>		</g>
		<g id="shape507-62" v:mID="507" v:groupContext="shape" transform="translate(582.28,25.1474) rotate(90)">
			<title>Sheet.507</title>
			<desc>Awsize</desc>
			<v:textBlock v:margins="rect(4,4,4,4)" v:tabSpace="42.5197"/>
			<v:textRect cx="35.0683" cy="490.472" width="70.14" height="21.9847"/>
			<rect x="0" y="479.479" width="70.1367" height="21.9847" class="st7"/>
			<text x="21.03" y="493.47" class="st9" v:langID="1031"><v:paragraph v:horizAlign="1"/><v:tabList/>Awsize</text>		</g>
		<g id="shape509-65" v:mID="509" v:groupContext="shape" transform="translate(602.741,25.1474) rotate(90)">
			<title>Sheet.509</title>
			<desc>Awlen</desc>
			<v:textBlock v:margins="rect(4,4,4,4)" v:tabSpace="42.5197"/>
			<v:textRect cx="35.0683" cy="490.472" width="70.14" height="21.9847"/>
			<rect x="0" y="479.479" width="70.1367" height="21.9847" class="st7"/>
			<text x="22.34" y="493.47" class="st9" v:langID="1031"><v:paragraph v:horizAlign="1"/><v:tabList/>Awlen</text>		</g>
		<g id="shape510-68" v:mID="510" v:groupContext="shape" transform="translate(627.417,13.209) rotate(90)">
			<title>Sheet.510</title>
			<path d="M0 501.46 L178.66 501.46" class="st10"/>
		</g>
		<g id="shape511-73" v:mID="511" v:groupContext="shape" transform="translate(636.114,13.209) rotate(90)">
			<title>Sheet.511</title>
			<path d="M0 501.46 L178.66 501.46" class="st10"/>
		</g>
		<g id="shape512-78" v:mID="512" v:groupContext="shape" transform="translate(613.807,27.1475) rotate(90)">
			<title>Sheet.512</title>
			<desc>Awcache</desc>
			<v:textBlock v:margins="rect(4,4,4,4)" v:tabSpace="42.5197"/>
			<v:textRect cx="35.0683" cy="490.472" width="70.14" height="21.9847"/>
			<rect x="0" y="479.479" width="70.1367" height="21.9847" class="st7"/>
			<text x="16.86" y="493.47" class="st9" v:langID="1031"><v:paragraph v:horizAlign="1"/><v:tabList/>Awcache</text>		</g>
		<g id="shape513-81" v:mID="513" v:groupContext="shape" transform="translate(621.619,27.1475) rotate(90)">
			<title>Sheet.513</title>
			<desc>Awprot</desc>
			<v:textBlock v:margins="rect(4,4,4,4)" v:tabSpace="42.5197"/>
			<v:textRect cx="35.0683" cy="490.472" width="70.14" height="21.9847"/>
			<rect x="0" y="479.479" width="70.1367" height="21.9847" class="st7"/>
			<text x="19.92" y="493.47" class="st9" v:langID="1031"><v:paragraph v:horizAlign="1"/><v:tabList/>Awprot</text>		</g>
		<g id="shape514-84" v:mID="514" v:groupContext="shape" transform="translate(627.288,25.1474) rotate(90)">
			<title>Sheet.514</title>
			<desc>Awid</desc>
			<v:textBlock v:margins="rect(4,4,4,4)" v:tabSpace="42.5197"/>
			<v:textRect cx="35.0683" cy="486.22" width="70.14" height="30.4886"/>
			<rect x="0" y="470.975" width="70.1367" height="30.4886" class="st7"/>
			<text x="24.83" y="489.22" class="st9" v:langID="1031"><v:paragraph v:horizAlign="1"/><v:tabList/>Awid</text>		</g>
		<g id="shape515-87" v:mID="515" v:groupContext="shape" transform="translate(646.1,13.209) rotate(90)">
			<title>Sheet.515</title>
			<path d="M0 501.46 L178.66 501.46" class="st10"/>
		</g>
		<g id="shape556-92" v:mID="556" v:groupContext="shape" transform="translate(877.123,13.9253) rotate(90)">
			<title>Sheet.556</title>
			<path d="M0 501.46 L177.67 501.46" class="st10"/>
		</g>
		<g id="shape557-97" v:mID="557" v:groupContext="shape" transform="translate(888.802,15.0236) rotate(90.1255)">
			<title>Sheet.557</title>
			<path d="M0 501.46 L177.67 501.46" class="st10"/>
		</g>
		<g id="shape559-102" v:mID="559" v:groupContext="shape" transform="translate(864.336,13.9253) rotate(90)">
			<title>Sheet.559</title>
			<path d="M0 501.46 L177.67 501.46" class="st10"/>
		</g>
		<g id="shape561-107" v:mID="561" v:groupContext="shape" transform="translate(848.78,23.9608) rotate(90)">
			<title>Sheet.561</title>
			<desc>Wid</desc>
			<v:textBlock v:margins="rect(4,4,4,4)" v:tabSpace="42.5197"/>
			<v:textRect cx="35.4114" cy="490.472" width="70.83" height="21.9847"/>
			<rect x="0" y="479.479" width="70.8228" height="21.9847" class="st7"/>
			<text x="27.19" y="493.47" class="st9" v:langID="1031"><v:paragraph v:horizAlign="1"/><v:tabList/>Wid</text>		</g>
		<g id="shape562-110" v:mID="562" v:groupContext="shape" transform="translate(862.954,25.9804) rotate(90)">
			<title>Sheet.562</title>
			<desc>wstrb</desc>
			<v:textBlock v:margins="rect(4,4,4,4)" v:tabSpace="42.5197"/>
			<v:textRect cx="35.4114" cy="490.472" width="70.83" height="21.9847"/>
			<rect x="0" y="479.479" width="70.8228" height="21.9847" class="st7"/>
			<text x="23.84" y="493.47" class="st9" v:langID="1031"><v:paragraph v:horizAlign="1"/><v:tabList/>wstrb</text>		</g>
		<g id="shape563-113" v:mID="563" v:groupContext="shape" transform="translate(873.946,25.9804) rotate(90)">
			<title>Sheet.563</title>
			<desc>wlast</desc>
			<v:textBlock v:margins="rect(4,4,4,4)" v:tabSpace="42.5197"/>
			<v:textRect cx="35.4114" cy="490.472" width="70.83" height="21.9847"/>
			<rect x="0" y="479.479" width="70.8228" height="21.9847" class="st7"/>
			<text x="24.66" y="493.47" class="st9" v:langID="1031"><v:paragraph v:horizAlign="1"/><v:tabList/>wlast</text>		</g>
		<g id="shape601-116" v:mID="601" v:groupContext="shape" transform="translate(1125.88,13.6716) rotate(90)">
			<title>Sheet.601</title>
			<path d="M9.45 501.46 L9.81 501.46 L187.48 501.46" class="st12"/>
		</g>
		<g id="shape603-122" v:mID="603" v:groupContext="shape" transform="translate(1113.09,13.6716) rotate(90)">
			<title>Sheet.603</title>
			<path d="M9.45 501.46 L9.81 501.46 L187.48 501.46" class="st12"/>
		</g>
		<g id="shape604-127" v:mID="604" v:groupContext="shape" transform="translate(1097.54,23.7071) rotate(90)">
			<title>Sheet.604</title>
			<desc>Bid</desc>
			<v:textBlock v:margins="rect(4,4,4,4)" v:tabSpace="42.5197"/>
			<v:textRect cx="35.4114" cy="490.472" width="70.83" height="21.9847"/>
			<rect x="0" y="479.479" width="70.8228" height="21.9847" class="st7"/>
			<text x="28.92" y="493.47" class="st9" v:langID="1031"><v:paragraph v:horizAlign="1"/><v:tabList/>Bid</text>		</g>
		<g id="shape605-130" v:mID="605" v:groupContext="shape" transform="translate(1110.35,27.4209) rotate(90)">
			<title>Sheet.605</title>
			<desc>Bresp</desc>
			<v:textBlock v:margins="rect(4,4,4,4)" v:tabSpace="42.5197"/>
			<v:textRect cx="35.4114" cy="490.472" width="70.83" height="21.9847"/>
			<rect x="0" y="479.479" width="70.8228" height="21.9847" class="st7"/>
			<text x="23.88" y="493.47" class="st9" v:langID="1031"><v:paragraph v:horizAlign="1"/><v:tabList/>Bresp</text>		</g>
		<g id="shape632-133" v:mID="632" v:groupContext="shape" transform="translate(557.114,323.887) rotate(90)">
			<title>Sheet.632</title>
			<desc>Awaddr</desc>
			<v:textBlock v:margins="rect(4,4,4,4)" v:tabSpace="42.5197"/>
			<v:textRect cx="35.4331" cy="490.472" width="70.87" height="21.9847"/>
			<rect x="0" y="479.479" width="70.8661" height="21.9847" class="st7"/>
			<text x="19.57" y="493.47" class="st9" v:langID="1031"><v:paragraph v:horizAlign="1"/><v:tabList/>Awaddr</text>		</g>
		<g id="shape633-136" v:mID="633" v:groupContext="shape" transform="translate(571.288,326.932) rotate(90)">
			<title>Sheet.633</title>
			<desc>Awburst</desc>
			<v:textBlock v:margins="rect(4,4,4,4)" v:tabSpace="42.5197"/>
			<v:textRect cx="31.5785" cy="490.472" width="63.16" height="21.9847"/>
			<rect x="0" y="479.479" width="63.157" height="21.9847" class="st7"/>
			<text x="14.48" y="493.47" class="st9" v:langID="1031"><v:paragraph v:horizAlign="1"/><v:tabList/>Awburst</text>		</g>
		<g id="shape634-139" v:mID="634" v:groupContext="shape" transform="translate(582.28,326.932) rotate(90)">
			<title>Sheet.634</title>
			<desc>Awsize</desc>
			<v:textBlock v:margins="rect(4,4,4,4)" v:tabSpace="42.5197"/>
			<v:textRect cx="31.5785" cy="490.472" width="63.16" height="21.9847"/>
			<rect x="0" y="479.479" width="63.157" height="21.9847" class="st7"/>
			<text x="17.55" y="493.47" class="st9" v:langID="1031"><v:paragraph v:horizAlign="1"/><v:tabList/>Awsize</text>		</g>
		<g id="shape635-142" v:mID="635" v:groupContext="shape" transform="translate(602.741,326.932) rotate(90)">
			<title>Sheet.635</title>
			<desc>Awlen</desc>
			<v:textBlock v:margins="rect(4,4,4,4)" v:tabSpace="42.5197"/>
			<v:textRect cx="31.5785" cy="490.472" width="63.16" height="21.9847"/>
			<rect x="0" y="479.479" width="63.157" height="21.9847" class="st7"/>
			<text x="18.85" y="493.47" class="st9" v:langID="1031"><v:paragraph v:horizAlign="1"/><v:tabList/>Awlen</text>		</g>
		<g id="shape638-145" v:mID="638" v:groupContext="shape" transform="translate(613.807,328.733) rotate(90)">
			<title>Sheet.638</title>
			<desc>Awcache</desc>
			<v:textBlock v:margins="rect(4,4,4,4)" v:tabSpace="42.5197"/>
			<v:textRect cx="31.5785" cy="490.472" width="63.16" height="21.9847"/>
			<rect x="0" y="479.479" width="63.157" height="21.9847" class="st7"/>
			<text x="13.37" y="493.47" class="st9" v:langID="1031"><v:paragraph v:horizAlign="1"/><v:tabList/>Awcache</text>		</g>
		<g id="shape639-148" v:mID="639" v:groupContext="shape" transform="translate(621.619,328.733) rotate(90)">
			<title>Sheet.639</title>
			<desc>Awprot</desc>
			<v:textBlock v:margins="rect(4,4,4,4)" v:tabSpace="42.5197"/>
			<v:textRect cx="31.5785" cy="490.472" width="63.16" height="21.9847"/>
			<rect x="0" y="479.479" width="63.157" height="21.9847" class="st7"/>
			<text x="16.43" y="493.47" class="st9" v:langID="1031"><v:paragraph v:horizAlign="1"/><v:tabList/>Awprot</text>		</g>
		<g id="shape640-151" v:mID="640" v:groupContext="shape" transform="translate(627.288,326.932) rotate(90)">
			<title>Sheet.640</title>
			<desc>Awid</desc>
			<v:textBlock v:margins="rect(4,4,4,4)" v:tabSpace="42.5197"/>
			<v:textRect cx="31.5785" cy="486.22" width="63.16" height="30.4886"/>
			<rect x="0" y="470.975" width="63.157" height="30.4886" class="st7"/>
			<text x="21.34" y="489.22" class="st9" v:langID="1031"><v:paragraph v:horizAlign="1"/><v:tabList/>Awid</text>		</g>
		<g id="shape668-154" v:mID="668" v:groupContext="shape" transform="translate(888.392,315.048) rotate(90.1192)">
			<title>Sheet.668</title>
			<path d="M0 501.46 L166.1 501.46" class="st10"/>
		</g>
		<g id="shape669-159" v:mID="669" v:groupContext="shape" transform="translate(902.566,314.005) rotate(90)">
			<title>Sheet.669</title>
			<path d="M0 501.46 L166.93 501.46" class="st10"/>
		</g>
		<g id="shape670-164" v:mID="670" v:groupContext="shape" transform="translate(874.22,314.005) rotate(90)">
			<title>Sheet.670</title>
			<path d="M0 501.46 L165.43 501.46" class="st10"/>
		</g>
		<g id="shape671-169" v:mID="671" v:groupContext="shape" transform="translate(860.047,326.604) rotate(90)">
			<title>Sheet.671</title>
			<desc>Wid</desc>
			<v:textBlock v:margins="rect(4,4,4,4)" v:tabSpace="42.5197"/>
			<v:textRect cx="31.5323" cy="490.472" width="63.07" height="21.9847"/>
			<rect x="0" y="479.479" width="63.0646" height="21.9847" class="st7"/>
			<text x="23.31" y="493.47" class="st9" v:langID="1031"><v:paragraph v:horizAlign="1"/><v:tabList/>Wid</text>		</g>
		<g id="shape672-172" v:mID="672" v:groupContext="shape" transform="translate(874.22,328.403) rotate(90)">
			<title>Sheet.672</title>
			<desc>Wstrb</desc>
			<v:textBlock v:margins="rect(4,4,4,4)" v:tabSpace="42.5197"/>
			<v:textRect cx="31.5323" cy="490.472" width="63.07" height="21.9847"/>
			<rect x="0" y="479.479" width="63.0646" height="21.9847" class="st7"/>
			<text x="19.08" y="493.47" class="st9" v:langID="1031"><v:paragraph v:horizAlign="1"/><v:tabList/>Wstrb</text>		</g>
		<g id="shape673-175" v:mID="673" v:groupContext="shape" transform="translate(888.393,328.403) rotate(90)">
			<title>Sheet.673</title>
			<desc>Wlast</desc>
			<v:textBlock v:margins="rect(4,4,4,4)" v:tabSpace="42.5197"/>
			<v:textRect cx="31.5323" cy="490.472" width="63.07" height="21.9847"/>
			<rect x="0" y="479.479" width="63.0646" height="21.9847" class="st7"/>
			<text x="19.91" y="493.47" class="st9" v:langID="1031"><v:paragraph v:horizAlign="1"/><v:tabList/>Wlast</text>		</g>
		<g id="shape699-178" v:mID="699" v:groupContext="shape" transform="translate(1126.15,314.296) rotate(90)">
			<title>Sheet.699</title>
			<path d="M9.45 501.46 L9.81 501.46 L173.6 501.46" class="st12"/>
		</g>
		<g id="shape700-183" v:mID="700" v:groupContext="shape" transform="translate(1113.36,314.296) rotate(90)">
			<title>Sheet.700</title>
			<path d="M9.45 501.46 L9.81 501.46 L172.92 501.46" class="st12"/>
		</g>
		<g id="shape701-188" v:mID="701" v:groupContext="shape" transform="translate(1097.81,323.41) rotate(90)">
			<title>Sheet.701</title>
			<desc>Bid</desc>
			<v:textBlock v:margins="rect(4,4,4,4)" v:tabSpace="42.5197"/>
			<v:textRect cx="32.1598" cy="490.472" width="64.32" height="21.9847"/>
			<rect x="0" y="479.479" width="64.3196" height="21.9847" class="st7"/>
			<text x="25.67" y="493.47" class="st9" v:langID="1031"><v:paragraph v:horizAlign="1"/><v:tabList/>Bid</text>		</g>
		<g id="shape702-191" v:mID="702" v:groupContext="shape" transform="translate(1109.92,326.708) rotate(90)">
			<title>Sheet.702</title>
			<desc>Bresp</desc>
			<v:textBlock v:margins="rect(4,4,4,4)" v:tabSpace="42.5197"/>
			<v:textRect cx="32.1598" cy="490.472" width="64.32" height="21.9847"/>
			<rect x="0" y="479.479" width="64.3196" height="21.9847" class="st7"/>
			<text x="20.63" y="493.47" class="st9" v:langID="1031"><v:paragraph v:horizAlign="1"/><v:tabList/>Bresp</text>		</g>
		<g id="shape627-194" v:mID="627" v:groupContext="shape" transform="translate(585.457,314.005) rotate(90)">
			<title>Sheet.627</title>
			<path d="M0 501.46 L165.9 501.46" class="st10"/>
		</g>
		<g id="shape628-199" v:mID="628" v:groupContext="shape" transform="translate(597.138,314.005) rotate(90)">
			<title>Sheet.628</title>
			<path d="M0 501.46 L165.9 501.46" class="st10"/>
		</g>
		<g id="shape629-204" v:mID="629" v:groupContext="shape" transform="translate(607.446,314.005) rotate(90)">
			<title>Sheet.629</title>
			<path d="M0 501.46 L165.9 501.46" class="st10"/>
		</g>
		<g id="shape630-209" v:mID="630" v:groupContext="shape" transform="translate(572.67,314.005) rotate(90)">
			<title>Sheet.630</title>
			<path d="M0 501.46 L165.9 501.46" class="st10"/>
		</g>
		<g id="shape631-214" v:mID="631" v:groupContext="shape" transform="translate(617.68,314.005) rotate(90)">
			<title>Sheet.631</title>
			<path d="M0 501.46 L165.9 501.46" class="st10"/>
		</g>
		<g id="shape636-219" v:mID="636" v:groupContext="shape" transform="translate(627.417,314.005) rotate(90)">
			<title>Sheet.636</title>
			<path d="M0 501.46 L165.9 501.46" class="st10"/>
		</g>
		<g id="shape637-224" v:mID="637" v:groupContext="shape" transform="translate(636.114,314.005) rotate(90)">
			<title>Sheet.637</title>
			<path d="M0 501.46 L165.9 501.46" class="st10"/>
		</g>
		<g id="shape641-229" v:mID="641" v:groupContext="shape" transform="translate(646.1,314.005) rotate(90)">
			<title>Sheet.641</title>
			<path d="M0 501.46 L165.9 501.46" class="st10"/>
		</g>
		<g id="shape872-234" v:mID="872" v:groupContext="shape" transform="translate(681.015,-351.071)">
			<title>Sheet.872</title>
			<desc>LLI</desc>
			<v:textBlock v:margins="rect(4,4,4,4)" v:tabSpace="42.5197"/>
			<v:textRect cx="39.685" cy="487.291" width="79.38" height="28.3465"/>
			<rect x="0" y="473.117" width="79.3701" height="28.3465" class="st7"/>
			<text x="33.13" y="490.89" class="st8" v:langID="1031"><v:paragraph v:horizAlign="1"/><v:tabList/>LLI</text>		</g>
		<g id="shape878-237" v:mID="878" v:groupContext="shape" transform="translate(902.566,12.0762) rotate(90)">
			<title>Sheet.878</title>
			<path d="M0 501.46 L180.5 501.46" class="st10"/>
		</g>
		<g id="shape879-242" v:mID="879" v:groupContext="shape" transform="translate(874.22,21.5243) rotate(90)">
			<title>Sheet.879</title>
			<desc>wdata</desc>
			<v:textBlock v:margins="rect(4,4,4,4)" v:tabSpace="42.5197"/>
			<v:textRect cx="40.2254" cy="478.959" width="80.46" height="45.0102"/>
			<rect x="0" y="456.454" width="80.4509" height="45.0102" class="st7"/>
			<text x="27.56" y="481.96" class="st9" v:langID="1031"><v:paragraph v:horizAlign="1"/><v:tabList/>wdata</text>		</g>
		<g id="shape880-245" v:mID="880" v:groupContext="shape" transform="translate(860.047,314.005) rotate(90)">
			<title>Sheet.880</title>
			<path d="M0 501.46 L166.1 501.46" class="st10"/>
		</g>
		<g id="shape881-250" v:mID="881" v:groupContext="shape" transform="translate(829.21,323.887) rotate(90)">
			<title>Sheet.881</title>
			<desc>Wdata</desc>
			<v:textBlock v:margins="rect(4,4,4,4)" v:tabSpace="42.5197"/>
			<v:textRect cx="33.206" cy="478.959" width="66.42" height="45.0102"/>
			<rect x="0" y="456.454" width="66.412" height="45.0102" class="st7"/>
			<text x="19.67" y="481.96" class="st9" v:langID="1031"><v:paragraph v:horizAlign="1"/><v:tabList/>Wdata</text>		</g>
		<g id="shape882-253" v:mID="882" v:groupContext="shape" transform="translate(562.409,12.9344) rotate(90)">
			<title>Sheet.882</title>
			<path d="M0 501.46 L178.66 501.46" class="st10"/>
		</g>
		<g id="shape883-258" v:mID="883" v:groupContext="shape" transform="translate(548.236,26.2495) rotate(90)">
			<title>Sheet.883</title>
			<desc>Awvalid</desc>
			<v:textBlock v:margins="rect(4,4,4,4)" v:tabSpace="42.5197"/>
			<v:textRect cx="32.8843" cy="490.472" width="65.77" height="21.9847"/>
			<rect x="0" y="479.479" width="65.7686" height="21.9847" class="st7"/>
			<text x="16.84" y="493.47" class="st9" v:langID="1031"><v:paragraph v:horizAlign="1"/><v:tabList/>Awvalid</text>		</g>
		<g id="shape884-261" v:mID="884" v:groupContext="shape" transform="translate(558.847,314.005) rotate(90)">
			<title>Sheet.884</title>
			<path d="M0 501.46 L165.9 501.46" class="st10"/>
		</g>
		<g id="shape885-266" v:mID="885" v:groupContext="shape" transform="translate(540.424,323.887) rotate(90)">
			<title>Sheet.885</title>
			<desc>Awvalid</desc>
			<v:textBlock v:margins="rect(4,4,4,4)" v:tabSpace="42.5197"/>
			<v:textRect cx="35.4331" cy="486.22" width="70.87" height="30.4886"/>
			<rect x="0" y="470.975" width="70.8661" height="30.4886" class="st7"/>
			<text x="19.39" y="489.22" class="st9" v:langID="1031"><v:paragraph v:horizAlign="1"/><v:tabList/>Awvalid</text>		</g>
		<g id="shape886-269" v:mID="886" v:groupContext="shape" transform="translate(849.083,11.0906) rotate(90)">
			<title>Sheet.886</title>
			<path d="M0 501.46 L180.5 501.46" class="st10"/>
		</g>
		<g id="shape887-274" v:mID="887" v:groupContext="shape" transform="translate(834.881,31.0868) rotate(90)">
			<title>Sheet.887</title>
			<desc>wvalid</desc>
			<v:textBlock v:margins="rect(4,4,4,4)" v:tabSpace="42.5197"/>
			<v:textRect cx="33.206" cy="490.472" width="66.42" height="21.9847"/>
			<rect x="0" y="479.479" width="66.412" height="21.9847" class="st7"/>
			<text x="20.06" y="493.47" class="st9" v:langID="1031"><v:paragraph v:horizAlign="1"/><v:tabList/>wvalid</text>		</g>
		<g id="shape572-277" v:mID="572" v:groupContext="shape" transform="translate(333.911,-342.751)">
			<title>Sheet.572</title>
			<desc>EDC Encoding</desc>
			<v:textBlock v:margins="rect(4,4,4,4)" v:tabSpace="42.5197"/>
			<v:textRect cx="38.8452" cy="484.196" width="77.7" height="34.5357"/>
			<rect x="0" y="466.928" width="77.6904" height="34.5357" class="st13"/>
			<text x="5.38" y="487.8" class="st8" v:langID="1031"><v:paragraph v:horizAlign="1"/><v:tabList/>EDC Encoding</text>		</g>
		<g id="shape888-280" v:mID="888" v:groupContext="shape" transform="translate(845.873,314.005) rotate(90)">
			<title>Sheet.888</title>
			<path d="M0 501.46 L165.43 501.46" class="st10"/>
		</g>
		<g id="shape715-285" v:mID="715" v:groupContext="shape" transform="translate(333.496,-76.5909)">
			<title>Sheet.715</title>
			<desc>EDC Decoding</desc>
			<v:textBlock v:margins="rect(4,4,4,4)" v:tabSpace="42.5197"/>
			<v:textRect cx="36.9934" cy="484.196" width="73.99" height="34.5357"/>
			<rect x="0" y="466.928" width="73.9868" height="34.5357" class="st13"/>
			<text x="27.17" y="480.6" class="st8" v:langID="1031"><v:paragraph v:horizAlign="1"/><v:tabList/>EDC <v:newlineChar/><tspan
						x="14.11" dy="1.2em" class="st14">Decoding</tspan></text>		</g>
		<g id="shape889-289" v:mID="889" v:groupContext="shape" transform="translate(823.196,323.887) rotate(90)">
			<title>Sheet.889</title>
			<desc>Wvalid</desc>
			<v:textBlock v:margins="rect(4,4,4,4)" v:tabSpace="42.5197"/>
			<v:textRect cx="32.1598" cy="486.22" width="64.32" height="30.4886"/>
			<rect x="0" y="470.975" width="64.3196" height="30.4886" class="st7"/>
			<text x="18.14" y="489.22" class="st9" v:langID="1031"><v:paragraph v:horizAlign="1"/><v:tabList/>Wvalid</text>		</g>
		<g id="shape890-292" v:mID="890" v:groupContext="shape" transform="translate(1138.69,13.5421) rotate(90)">
			<title>Sheet.890</title>
			<path d="M9.45 501.46 L9.81 501.46 L190.31 501.46" class="st12"/>
		</g>
		<g id="shape891-297" v:mID="891" v:groupContext="shape" transform="translate(1121.95,30.4499) rotate(90)">
			<title>Sheet.891</title>
			<desc>Bvalid</desc>
			<v:textBlock v:margins="rect(4,4,4,4)" v:tabSpace="42.5197"/>
			<v:textRect cx="33.206" cy="490.472" width="66.42" height="21.9847"/>
			<rect x="0" y="479.479" width="66.412" height="21.9847" class="st7"/>
			<text x="20.91" y="493.47" class="st9" v:langID="2057"><v:paragraph v:horizAlign="1"/><v:tabList/>B<tspan class="st14"
						v:langID="1031">valid</tspan></text>		</g>
		<g id="shape892-301" v:mID="892" v:groupContext="shape" transform="translate(1140.24,314.005) rotate(90)">
			<title>Sheet.892</title>
			<path d="M9.45 501.46 L9.81 501.46 L173.21 501.46" class="st12"/>
		</g>
		<g id="shape893-306" v:mID="893" v:groupContext="shape" transform="translate(1121.53,323.887) rotate(90)">
			<title>Sheet.893</title>
			<desc>Bvalid</desc>
			<v:textBlock v:margins="rect(4,4,4,4)" v:tabSpace="42.5197"/>
			<v:textRect cx="35.4331" cy="490.472" width="70.87" height="21.9847"/>
			<rect x="0" y="479.479" width="70.8661" height="21.9847" class="st7"/>
			<text x="23.14" y="493.47" class="st9" v:langID="2057"><v:paragraph v:horizAlign="1"/><v:tabList/>B<tspan class="st14"
						v:langID="1031">valid</tspan></text>		</g>
		<g id="shape894-310" v:mID="894" v:groupContext="shape" transform="translate(590.755,319.027) rotate(90)">
			<title>Sheet.894</title>
			<desc>Awlock</desc>
			<v:textBlock v:margins="rect(4,4,4,4)" v:tabSpace="42.5197"/>
			<v:textRect cx="40.2254" cy="490.472" width="80.46" height="21.9847"/>
			<rect x="0" y="479.479" width="80.4509" height="21.9847" class="st7"/>
			<text x="25.59" y="493.47" class="st9" v:langID="1031"><v:paragraph v:horizAlign="1"/><v:tabList/>Awlock</text>		</g>
		<g id="shape128-313" v:mID="128" v:groupContext="shape" transform="translate(51.6246,-187.459)">
			<title>Sheet.128</title>
			<desc>AXI User Sideband</desc>
			<v:textBlock v:margins="rect(4,4,4,4)" v:tabSpace="42.5197"/>
			<v:textRect cx="54.1506" cy="488.292" width="108.31" height="26.3441"/>
			<rect x="0" y="475.12" width="108.301" height="26.3441" class="st3"/>
			<text x="24.36" y="490.69" class="st4" v:langID="1031"><v:paragraph v:horizAlign="1"/><v:tabList/>AXI User Sideband</text>		</g>
		<g id="shape896-316" v:mID="896" v:groupContext="shape" transform="translate(49.2313,-487.668)">
			<title>Sheet.896</title>
			<desc>AW channel</desc>
			<v:textBlock v:margins="rect(4,4,4,4)" v:tabSpace="42.5197"/>
			<v:textRect cx="57.093" cy="494.941" width="114.19" height="13.0458"/>
			<rect x="0" y="488.418" width="114.186" height="13.0458" class="st15"/>
			<text x="32.6" y="497.94" class="st9" v:langID="1031"><v:paragraph v:horizAlign="1"/><v:tabList/>AW channel</text>		</g>
		<g id="shape897-319" v:mID="897" v:groupContext="shape" transform="translate(319.989,-487.668)">
			<title>Sheet.897</title>
			<desc>W channel</desc>
			<v:textBlock v:margins="rect(4,4,4,4)" v:tabSpace="42.5197"/>
			<v:textRect cx="54.5426" cy="494.941" width="109.09" height="13.0458"/>
			<rect x="0" y="488.418" width="109.085" height="13.0458" class="st15"/>
			<text x="32.94" y="497.94" class="st9" v:langID="1031"><v:paragraph v:horizAlign="1"/><v:tabList/>W channel</text>		</g>
		<g id="shape898-322" v:mID="898" v:groupContext="shape" transform="translate(575.907,-488.043)">
			<title>Sheet.898</title>
			<desc>WR channel</desc>
			<v:textBlock v:margins="rect(4,4,4,4)" v:tabSpace="42.5197"/>
			<v:textRect cx="54.5426" cy="494.941" width="109.09" height="13.0458"/>
			<rect x="0" y="488.418" width="109.085" height="13.0458" class="st15"/>
			<text x="30.22" y="497.94" class="st9" v:langID="1031"><v:paragraph v:horizAlign="1"/><v:tabList/>WR channel</text>		</g>
		<g id="shape900-325" v:mID="900" v:groupContext="shape" transform="translate(315.688,-0.375)">
			<title>Sheet.900</title>
			<desc>W channel</desc>
			<v:textBlock v:margins="rect(4,4,4,4)" v:tabSpace="42.5197"/>
			<v:textRect cx="54.5426" cy="494.941" width="109.09" height="13.0458"/>
			<rect x="0" y="488.418" width="109.085" height="13.0458" class="st15"/>
			<text x="32.94" y="497.94" class="st9" v:langID="1031"><v:paragraph v:horizAlign="1"/><v:tabList/>W channel</text>		</g>
		<g id="shape901-328" v:mID="901" v:groupContext="shape" transform="translate(575.107,-0.375)">
			<title>Sheet.901</title>
			<desc>WR channel</desc>
			<v:textBlock v:margins="rect(4,4,4,4)" v:tabSpace="42.5197"/>
			<v:textRect cx="54.5426" cy="494.941" width="109.09" height="13.0458"/>
			<rect x="0" y="488.418" width="109.085" height="13.0458" class="st15"/>
			<text x="30.22" y="497.94" class="st9" v:langID="1031"><v:paragraph v:horizAlign="1"/><v:tabList/>WR channel</text>		</g>
		<g id="shape902-331" v:mID="902" v:groupContext="shape" transform="translate(637.227,25.4513) rotate(90)">
			<title>Sheet.902</title>
			<desc>Awuser</desc>
			<v:textBlock v:margins="rect(4,4,4,4)" v:tabSpace="42.5197"/>
			<v:textRect cx="35.0683" cy="486.22" width="70.14" height="30.4886"/>
			<rect x="0" y="470.975" width="70.1367" height="30.4886" class="st7"/>
			<text x="19.79" y="489.22" class="st9" v:langID="2057"><v:paragraph v:horizAlign="1"/><v:tabList/>Awuser</text>		</g>
		<g id="shape903-334" v:mID="903" v:groupContext="shape" transform="translate(656.039,13.513) rotate(90)">
			<title>Sheet.903</title>
			<path d="M0 501.46 L178.66 501.46" class="st10"/>
		</g>
		<g id="shape543-339" v:mID="543" v:groupContext="shape" transform="translate(57.7604,-348.941)">
			<title>Sheet.543</title>
			<desc>EDC Encoding</desc>
			<v:textBlock v:margins="rect(4,4,4,4)" v:tabSpace="42.5197"/>
			<v:textRect cx="49.9938" cy="487.291" width="99.99" height="28.3465"/>
			<rect x="0" y="473.117" width="99.9876" height="28.3465" class="st13"/>
			<text x="40.17" y="483.69" class="st8" v:langID="1031"><v:paragraph v:horizAlign="1"/><v:tabList/>EDC <v:newlineChar/><tspan
						x="27.7" dy="1.2em" class="st14">Encoding</tspan></text>		</g>
		<g id="shape904-343" v:mID="904" v:groupContext="shape" transform="translate(636.535,326.918) rotate(90)">
			<title>Sheet.904</title>
			<desc>Awuser</desc>
			<v:textBlock v:margins="rect(4,4,4,4)" v:tabSpace="42.5197"/>
			<v:textRect cx="31.5785" cy="486.22" width="63.16" height="30.4886"/>
			<rect x="0" y="470.975" width="63.157" height="30.4886" class="st7"/>
			<text x="16.3" y="489.22" class="st9" v:langID="2057"><v:paragraph v:horizAlign="1"/><v:tabList/>Awuser</text>		</g>
		<g id="shape905-346" v:mID="905" v:groupContext="shape" transform="translate(655.347,313.991) rotate(90)">
			<title>Sheet.905</title>
			<path d="M0 501.46 L165.9 501.46" class="st10"/>
		</g>
		<g id="shape709-351" v:mID="709" v:groupContext="shape" transform="translate(53.0092,-78.364)">
			<title>Sheet.709</title>
			<desc>EDC Decoding</desc>
			<v:textBlock v:margins="rect(4,4,4,4)" v:tabSpace="42.5197"/>
			<v:textRect cx="52.3694" cy="484.196" width="104.74" height="34.5357"/>
			<rect x="0" y="466.928" width="104.739" height="34.5357" class="st13"/>
			<text x="42.55" y="480.6" class="st8" v:langID="1031"><v:paragraph v:horizAlign="1"/><v:tabList/>EDC <v:newlineChar/><tspan
						x="29.49" dy="1.2em" class="st14">Decoding</tspan></text>		</g>
		<g id="shape899-355" v:mID="899" v:groupContext="shape" transform="translate(51.4974,-0.375)">
			<title>Sheet.899</title>
			<desc>AW channel</desc>
			<v:textBlock v:margins="rect(4,4,4,4)" v:tabSpace="42.5197"/>
			<v:textRect cx="54.5426" cy="494.941" width="109.09" height="13.0458"/>
			<rect x="0" y="488.418" width="109.085" height="13.0458" class="st15"/>
			<text x="30.05" y="497.94" class="st9" v:langID="1031"><v:paragraph v:horizAlign="1"/><v:tabList/>AW channel</text>		</g>
		<g id="shape906-358" v:mID="906" v:groupContext="shape" transform="translate(1152,313.803) rotate(90)">
			<title>Sheet.906</title>
			<path d="M9.45 501.46 L9.81 501.46 L173.21 501.46" class="st12"/>
		</g>
		<g id="shape907-363" v:mID="907" v:groupContext="shape" transform="translate(1135.02,322.456) rotate(90)">
			<title>Sheet.907</title>
			<desc>Buser</desc>
			<v:textBlock v:margins="rect(4,4,4,4)" v:tabSpace="42.5197"/>
			<v:textRect cx="35.4331" cy="490.472" width="70.87" height="21.9847"/>
			<rect x="0" y="479.479" width="70.8661" height="21.9847" class="st7"/>
			<text x="23.9" y="493.47" class="st9" v:langID="2057"><v:paragraph v:horizAlign="1"/><v:tabList/>Buser</text>		</g>
		<g id="shape708-366" v:mID="708" v:groupContext="shape" transform="translate(602.787,-81.7796)">
			<title>Sheet.708</title>
			<desc>EDC Encoding</desc>
			<v:textBlock v:margins="rect(4,4,4,4)" v:tabSpace="42.5197"/>
			<v:textRect cx="28.3465" cy="488.038" width="56.7" height="26.8521"/>
			<rect x="0" y="474.612" width="56.6929" height="26.8521" class="st13"/>
			<text x="18.53" y="484.44" class="st8" v:langID="1031"><v:paragraph v:horizAlign="1"/><v:tabList/>EDC <tspan x="6.06"
						dy="1.2em" class="st14">Encoding</tspan></text>		</g>
		<g id="shape908-370" v:mID="908" v:groupContext="shape" transform="translate(1150.03,13.5421) rotate(90)">
			<title>Sheet.908</title>
			<path d="M9.45 501.46 L9.81 501.46 L190.31 501.46" class="st12"/>
		</g>
		<g id="shape909-375" v:mID="909" v:groupContext="shape" transform="translate(1133.72,30.436) rotate(90)">
			<title>Sheet.909</title>
			<desc>Buser</desc>
			<v:textBlock v:margins="rect(4,4,4,4)" v:tabSpace="42.5197"/>
			<v:textRect cx="33.206" cy="490.472" width="66.42" height="21.9847"/>
			<rect x="0" y="479.479" width="66.412" height="21.9847" class="st7"/>
			<text x="21.67" y="493.47" class="st9" v:langID="2057"><v:paragraph v:horizAlign="1"/><v:tabList/>Buser</text>		</g>
		<g id="shape614-378" v:mID="614" v:groupContext="shape" transform="translate(600.378,-343.005)">
			<title>Sheet.614</title>
			<desc>EDC Decoding</desc>
			<v:textBlock v:margins="rect(4,4,4,4)" v:tabSpace="42.5197"/>
			<v:textRect cx="29.7638" cy="484.196" width="59.53" height="34.5357"/>
			<rect x="0" y="466.928" width="59.5276" height="34.5357" class="st13"/>
			<text x="19.94" y="480.6" class="st8" v:langID="1031"><v:paragraph v:horizAlign="1"/><v:tabList/>EDC <tspan x="6.88"
						dy="1.2em" class="st14">Decoding</tspan></text>		</g>
		<g id="shape116-382" v:mID="116" v:groupContext="shape" transform="translate(591.306,-273.969)">
			<title>Sheet.116</title>
			<desc>AXI User Sideband</desc>
			<v:textBlock v:margins="rect(4,4,4,4)" v:tabSpace="42.5197"/>
			<v:textRect cx="36.9934" cy="488.292" width="73.99" height="26.3441"/>
			<rect x="0" y="475.12" width="73.9868" height="26.3441" class="st3"/>
			<text x="7.2" y="490.69" class="st4" v:langID="1031"><v:paragraph v:horizAlign="1"/><v:tabList/>AXI User Sideband</text>		</g>
	</g>
</svg>
