<?xml version="1.0" encoding="UTF-8" standalone="no"?>
<!DOCTYPE svg PUBLIC "-//W3C//DTD SVG 1.1//EN" "http://www.w3.org/Graphics/SVG/1.1/DTD/svg11.dtd">
<!-- Generated by Microsoft Visio, SVG Export CSS_MAC_Extract.svg Page-1 -->
<svg xmlns="http://www.w3.org/2000/svg" xmlns:xlink="http://www.w3.org/1999/xlink" xmlns:ev="http://www.w3.org/2001/xml-events"
		xmlns:v="http://schemas.microsoft.com/visio/2003/SVGExtensions/" width="5.64664in" height="3.90169in"
		viewBox="0 0 406.558 280.922" xml:space="preserve" color-interpolation-filters="sRGB" class="st13">
	<v:documentProperties v:langID="1033" v:metric="true" v:viewMarkup="false">
		<v:userDefs>
			<v:ud v:nameU="msvConvertTheme"/>
		</v:userDefs>
	</v:documentProperties>

	<style type="text/css">
	<![CDATA[
		.st1 {fill:#e8eef7;stroke:#000000;stroke-linecap:round;stroke-linejoin:round;stroke-width:0.24}
		.st2 {fill:#000000;font-family:Calibri;font-size:0.833336em}
		.st3 {font-size:1em}
		.st4 {fill:#f2f2f2;stroke:#000000;stroke-linecap:round;stroke-linejoin:round;stroke-width:0.24}
		.st5 {fill:#d8d8d8;stroke:#000000;stroke-linecap:round;stroke-linejoin:round;stroke-width:0.24}
		.st6 {stroke:#000000;stroke-linecap:round;stroke-linejoin:round;stroke-width:0.24}
		.st7 {marker-end:url(#mrkr5-42);stroke:#000000;stroke-linecap:round;stroke-linejoin:round;stroke-width:0.5}
		.st8 {fill:#000000;fill-opacity:1;stroke:#000000;stroke-opacity:1;stroke-width:0.16556291390728}
		.st9 {fill:none;stroke:none;stroke-linecap:round;stroke-linejoin:round;stroke-width:0.75}
		.st10 {fill:#bfbfbf;stroke:#000000;stroke-linecap:round;stroke-linejoin:round;stroke-width:0.24}
		.st11 {fill:#000000;font-family:Calibri;font-size:0.666664em}
		.st12 {fill:#ffffff;stroke:#000000;stroke-linecap:round;stroke-linejoin:round;stroke-width:0.24}
		.st13 {fill:none;fill-rule:evenodd;font-size:12px;overflow:visible;stroke-linecap:square;stroke-miterlimit:3}
	]]>
	</style>

	<defs id="Markers">
		<g id="lend5">
			<path d="M 2 1 L 0 0 L 1.98117 -0.993387 C 1.67173 -0.364515 1.67301 0.372641 1.98465 1.00043 " style="stroke:none"/>
		</g>
		<marker id="mrkr5-42" class="st8" v:arrowType="5" v:arrowSize="2" v:setback="10.57" refX="-10.57" orient="auto"
				markerUnits="strokeWidth" overflow="visible">
			<use xlink:href="#lend5" transform="scale(-6.04,-6.04) "/>
		</marker>
	</defs>
	<g v:mID="0" v:index="1" v:groupContext="foregroundPage">
		<title>Page-1</title>
		<v:pageProperties v:drawingScale="0.0393701" v:pageScale="0.0393701" v:drawingUnits="24" v:shadowOffsetX="8.50394"
				v:shadowOffsetY="-8.50394"/>
		<v:layer v:name="Connector" v:index="0"/>
		<g id="group621-1" transform="translate(0.12,-0.12)" v:mID="621" v:groupContext="group">
			<title>Sheet.621</title>
			<g id="group578-2" transform="translate(262.882,1.13687E-13)" v:mID="578" v:groupContext="group">
				<title>Sheet.578</title>
				<g id="shape537-3" v:mID="537" v:groupContext="shape" transform="translate(67.3914,-65.5169)">
					<title>Rounded rectangle.537</title>
					<desc>MAC generation</desc>
					<v:userDefs>
						<v:ud v:nameU="visVersion" v:val="VT0(14):26"/>
					</v:userDefs>
					<v:textBlock v:margins="rect(4,4,4,4)" v:tabSpace="42.5197"/>
					<v:textRect cx="34.0157" cy="261.079" width="68.04" height="39.685"/>
					<path d="M53.86 280.92 A14.1733 14.1733 -180 0 0 68.03 266.75 L68.03 255.41 A14.1733 14.1733 -180 0 0 53.86 241.24
								 L14.17 241.24 A14.1733 14.1733 -180 0 0 -0 255.41 L0 266.75 A14.1733 14.1733 -180 0 0 14.17 280.92
								 L53.86 280.92 Z" class="st1"/>
					<text x="24.18" y="258.08" class="st2" v:langID="1031"><v:paragraph v:horizAlign="1"/><v:tabList/>MAC <tspan
								x="11.84" dy="1.2em" class="st3">generation</tspan></text>				</g>
				<g id="shape538-7" v:mID="538" v:groupContext="shape" transform="translate(16.3678,-130.714)">
					<title>Sheet.538</title>
					<desc>AAD</desc>
					<v:textBlock v:margins="rect(1,1,1,1)" v:tabSpace="42.5197"/>
					<v:textRect cx="28.3465" cy="261.079" width="56.7" height="39.685"/>
					<rect x="0" y="241.237" width="56.6929" height="39.685" class="st4"/>
					<text x="19.48" y="264.08" class="st2" v:langID="1031"><v:paragraph v:horizAlign="1"/><v:tabList/>AAD</text>				</g>
				<g id="shape539-10" v:mID="539" v:groupContext="shape" transform="translate(16.3678,-170.399)">
					<title>Sheet.539</title>
					<desc>Cipher text</desc>
					<v:textBlock v:margins="rect(1,1,1,1)" v:tabSpace="42.5197"/>
					<v:textRect cx="28.3465" cy="252.575" width="56.7" height="56.6929"/>
					<rect x="0" y="224.229" width="56.6929" height="56.6929" class="st5"/>
					<text x="5.91" y="249.58" class="st2" v:langID="1031"><v:paragraph v:horizAlign="1"/><v:tabList/>Cipher text<v:newlineChar/></text>				</g>
				<g id="shape540-13" v:mID="540" v:groupContext="shape" transform="translate(-264.554,42.4915) rotate(-90)">
					<title>Sheet.540</title>
					<path d="M0 280.92 L17.01 280.92" class="st6"/>
				</g>
				<g id="shape541-16" v:mID="541" v:groupContext="shape" transform="translate(-207.861,42.4915) rotate(-90)">
					<title>Sheet.541</title>
					<path d="M0 280.92 L17.01 280.92" class="st6"/>
				</g>
				<g id="shape542-19" v:mID="542" v:groupContext="shape" transform="translate(21.0922,-144.887)">
					<title>Sheet.542</title>
					<path d="M0 280.92 L47.24 280.92" class="st6"/>
				</g>
				<g id="shape543-22" v:mID="543" v:groupContext="shape" transform="translate(21.0922,-159.06)">
					<title>Sheet.543</title>
					<path d="M0 280.92 L47.24 280.92" class="st6"/>
				</g>
				<g id="shape544-25" v:mID="544" v:groupContext="shape" transform="translate(21.0922,-184.572)">
					<title>Sheet.544</title>
					<path d="M0 280.92 L47.24 280.92" class="st6"/>
				</g>
				<g id="shape545-28" v:mID="545" v:groupContext="shape" transform="translate(21.0922,-198.745)">
					<title>Sheet.545</title>
					<path d="M0 280.92 L47.24 280.92" class="st6"/>
				</g>
				<g id="shape546-31" v:mID="546" v:groupContext="shape" transform="translate(21.0922,-212.918)">
					<title>Sheet.546</title>
					<path d="M0 280.92 L47.24 280.92" class="st6"/>
				</g>
				<g id="shape547-34" v:mID="547" v:groupContext="shape" transform="translate(21.0922,-227.092)">
					<title>Sheet.547</title>
					<path d="M0 280.92 L47.24 280.92" class="st6"/>
				</g>
				<g id="shape548-37" v:mID="548" v:groupContext="shape" v:layerMember="0" transform="translate(52.0371,-130.714)">
					<title>Dynamic connector.548</title>
					<path d="M0 280.92 L0 326.28 L10.07 326.28" class="st7"/>
				</g>
				<g id="shape550-43" v:mID="550" v:groupContext="shape" transform="translate(-6.39488E-14,-263.028)">
					<title>Sheet.550</title>
					<desc>DINCFG = MACextract</desc>
					<v:textBlock v:margins="rect(1,1,1,1)" v:tabSpace="42.5197"/>
					<v:textRect cx="46.8997" cy="272.418" width="93.8" height="17.0079"/>
					<rect x="0" y="263.914" width="93.7993" height="17.0079" class="st9"/>
					<text x="2.38" y="275.42" class="st2" v:langID="1031"><v:paragraph v:horizAlign="1"/><v:tabList/>DINCFG = MACextract</text>				</g>
				<g id="shape559-46" v:mID="559" v:groupContext="shape" transform="translate(16.3678,-226.889)">
					<title>Sheet.559</title>
					<desc>MAC</desc>
					<v:textBlock v:margins="rect(1,1,1,1)" v:tabSpace="42.5197"/>
					<v:textRect cx="28.3465" cy="274.686" width="56.7" height="12.4725"/>
					<rect x="0" y="268.449" width="56.6929" height="12.4725" class="st10"/>
					<text x="18.51" y="277.69" class="st2" v:langID="1031"><v:paragraph v:horizAlign="1"/><v:tabList/>MAC</text>				</g>
				<g id="shape563-49" v:mID="563" v:groupContext="shape" v:layerMember="0" transform="translate(34.2024,-130.714)">
					<title>Dynamic connector.563</title>
					<path d="M0 280.92 L0 391.79 L27.9 391.79" class="st7"/>
				</g>
				<g id="shape564-54" v:mID="564" v:groupContext="shape" transform="translate(67.3914,5.68434E-14)">
					<title>Rounded rectangle.564</title>
					<desc>MACcompare</desc>
					<v:userDefs>
						<v:ud v:nameU="visVersion" v:val="VT0(14):26"/>
					</v:userDefs>
					<v:textBlock v:margins="rect(4,4,4,4)" v:tabSpace="42.5197"/>
					<v:textRect cx="34.0157" cy="261.079" width="68.04" height="39.685"/>
					<path d="M53.86 280.92 A14.1733 14.1733 -180 0 0 68.03 266.75 L68.03 255.41 A14.1733 14.1733 -180 0 0 53.86 241.24
								 L14.17 241.24 A14.1733 14.1733 -180 0 0 -0 255.41 L0 266.75 A14.1733 14.1733 -180 0 0 14.17 280.92
								 L53.86 280.92 Z" class="st1"/>
					<text x="6.18" y="264.08" class="st2" v:langID="1031"><v:paragraph v:horizAlign="1"/><v:tabList/>MACcompare</text>				</g>
				<g id="shape565-57" v:mID="565" v:groupContext="shape" v:layerMember="0" transform="translate(94.3205,-65.5169)">
					<title>Dynamic connector.565</title>
					<path d="M7.09 280.92 L7.09 301.47" class="st7"/>
				</g>
				<g id="shape573-62" v:mID="573" v:groupContext="shape" transform="translate(101.843,-43.4671)">
					<title>Sheet.573</title>
					<desc>Generated MAC value</desc>
					<v:textBlock v:margins="rect(1,1,1,1)" v:tabSpace="42.5197"/>
					<v:textRect cx="20.6693" cy="272.186" width="41.34" height="17.4724"/>
					<rect x="0" y="263.449" width="41.3386" height="17.4724" class="st9"/>
					<text x="3.32" y="269.79" class="st11" v:langID="1031"><v:paragraph v:horizAlign="1"/><v:tabList/>Generated <v:newlineChar/><tspan
								x="3.17" dy="1.2em" class="st3">MAC value</tspan></text>				</g>
				<g id="shape575-66" v:mID="575" v:groupContext="shape" transform="translate(-247.725,259.305) rotate(-90)">
					<title>Sheet.575</title>
					<desc>Reference MAC value</desc>
					<v:textBlock v:margins="rect(1,1,1,1)" v:tabSpace="42.5197"/>
					<v:textRect cx="49.0157" cy="275.087" width="98.04" height="11.6693"/>
					<rect x="0" y="269.252" width="98.0315" height="11.6693" class="st9"/>
					<text x="14.07" y="277.49" class="st11" v:langID="1031"><v:paragraph v:horizAlign="1"/><v:tabList/>Reference MAC value</text>				</g>
				<g id="shape577-69" v:mID="577" v:groupContext="shape" transform="translate(47.512,-109.693)">
					<title>Sheet.577</title>
					<desc>AAD, cipher text</desc>
					<v:textBlock v:margins="rect(1,1,1,1)" v:tabSpace="42.5197"/>
					<v:textRect cx="23.6811" cy="272.186" width="47.37" height="17.4724"/>
					<rect x="0" y="263.449" width="47.3622" height="17.4724" class="st9"/>
					<text x="15.59" y="269.79" class="st11" v:langID="1031"><v:paragraph v:horizAlign="1"/><v:tabList/>AAD, <v:newlineChar/><tspan
								x="6.18" dy="1.2em" class="st3">cipher text</tspan></text>				</g>
			</g>
			<g id="group579-73" transform="translate(-7.99361E-14,-0.391183)" v:mID="579" v:groupContext="group">
				<title>Sheet.579</title>
				<g id="shape458-74" v:mID="458" v:groupContext="shape" transform="translate(151.116,-65.5169)">
					<title>Rounded rectangle.167</title>
					<desc>MAC generation</desc>
					<v:userDefs>
						<v:ud v:nameU="visVersion" v:val="VT0(14):26"/>
					</v:userDefs>
					<v:textBlock v:margins="rect(4,4,4,4)" v:tabSpace="42.5197"/>
					<v:textRect cx="34.0157" cy="261.079" width="68.04" height="39.685"/>
					<path d="M53.86 280.92 A14.1733 14.1733 -180 0 0 68.03 266.75 L68.03 255.41 A14.1733 14.1733 -180 0 0 53.86 241.24
								 L14.17 241.24 A14.1733 14.1733 -180 0 0 -0 255.41 L0 266.75 A14.1733 14.1733 -180 0 0 14.17 280.92
								 L53.86 280.92 Z" class="st1"/>
					<text x="24.18" y="258.08" class="st2" v:langID="1031"><v:paragraph v:horizAlign="1"/><v:tabList/>MAC <tspan
								x="11.84" dy="1.2em" class="st3">generation</tspan></text>				</g>
				<g id="shape459-78" v:mID="459" v:groupContext="shape" transform="translate(100.276,-130.714)">
					<title>Sheet.459</title>
					<desc>AAD</desc>
					<v:textBlock v:margins="rect(1,1,1,1)" v:tabSpace="42.5197"/>
					<v:textRect cx="28.3465" cy="261.079" width="56.7" height="39.685"/>
					<rect x="0" y="241.237" width="56.6929" height="39.685" class="st4"/>
					<text x="19.48" y="264.08" class="st2" v:langID="1031"><v:paragraph v:horizAlign="1"/><v:tabList/>AAD</text>				</g>
				<g id="shape460-81" v:mID="460" v:groupContext="shape" transform="translate(100.276,-170.399)">
					<title>Sheet.460</title>
					<desc>Cipher text</desc>
					<v:textBlock v:margins="rect(1,1,1,1)" v:tabSpace="42.5197"/>
					<v:textRect cx="28.3465" cy="252.575" width="56.7" height="56.6929"/>
					<rect x="0" y="224.229" width="56.6929" height="56.6929" class="st5"/>
					<text x="5.91" y="249.58" class="st2" v:langID="1031"><v:paragraph v:horizAlign="1"/><v:tabList/>Cipher text<v:newlineChar/></text>				</g>
				<g id="shape461-84" v:mID="461" v:groupContext="shape" transform="translate(-180.646,54.3025) rotate(-90)">
					<title>Sheet.461</title>
					<path d="M0 280.92 L28.35 280.92" class="st6"/>
				</g>
				<g id="shape462-87" v:mID="462" v:groupContext="shape" transform="translate(-123.953,54.3025) rotate(-90)">
					<title>Sheet.462</title>
					<path d="M0 280.92 L28.35 280.92" class="st6"/>
				</g>
				<g id="shape463-90" v:mID="463" v:groupContext="shape" transform="translate(105,-144.887)">
					<title>Sheet.463</title>
					<path d="M0 280.92 L47.24 280.92" class="st6"/>
				</g>
				<g id="shape464-93" v:mID="464" v:groupContext="shape" transform="translate(105,-159.06)">
					<title>Sheet.464</title>
					<path d="M0 280.92 L47.24 280.92" class="st6"/>
				</g>
				<g id="shape465-96" v:mID="465" v:groupContext="shape" transform="translate(105,-184.572)">
					<title>Sheet.465</title>
					<path d="M0 280.92 L47.24 280.92" class="st6"/>
				</g>
				<g id="shape466-99" v:mID="466" v:groupContext="shape" transform="translate(105,-198.745)">
					<title>Sheet.466</title>
					<path d="M0 280.92 L47.24 280.92" class="st6"/>
				</g>
				<g id="shape467-102" v:mID="467" v:groupContext="shape" transform="translate(105,-212.918)">
					<title>Sheet.467</title>
					<path d="M0 280.92 L47.24 280.92" class="st6"/>
				</g>
				<g id="shape468-105" v:mID="468" v:groupContext="shape" transform="translate(105,-227.092)">
					<title>Sheet.468</title>
					<path d="M0 280.92 L47.24 280.92" class="st6"/>
				</g>
				<g id="shape469-108" v:mID="469" v:groupContext="shape" v:layerMember="0" transform="translate(129.567,-130.714)">
					<title>Dynamic connector.196</title>
					<path d="M0 280.92 L0 326.28 L16.26 326.28" class="st7"/>
				</g>
				<g id="shape474-113" v:mID="474" v:groupContext="shape" transform="translate(78.6614,-263.028)">
					<title>Sheet.474</title>
					<desc>DINCFG != MACextract</desc>
					<v:textBlock v:margins="rect(1,1,1,1)" v:tabSpace="42.5197"/>
					<v:textRect cx="52.1803" cy="272.418" width="104.37" height="17.0079"/>
					<rect x="0" y="263.914" width="104.361" height="17.0079" class="st9"/>
					<text x="6.03" y="275.42" class="st2" v:langID="1031"><v:paragraph v:horizAlign="1"/><v:tabList/>DINCFG != MACextract</text>				</g>
				<g id="shape528-116" v:mID="528" v:groupContext="shape" v:layerMember="0" transform="translate(44.126,-131.068)">
					<title>Dynamic connector.528</title>
					<path d="M0 280.92 L0 392.15 L101.71 392.15" class="st7"/>
				</g>
				<g id="shape536-121" v:mID="536" v:groupContext="shape" transform="translate(151.116,0)">
					<title>Rounded rectangle.536</title>
					<desc>MACcompare</desc>
					<v:userDefs>
						<v:ud v:nameU="visVersion" v:val="VT0(14):26"/>
					</v:userDefs>
					<v:textBlock v:margins="rect(4,4,4,4)" v:tabSpace="42.5197"/>
					<v:textRect cx="34.0157" cy="261.079" width="68.04" height="39.685"/>
					<path d="M53.86 280.92 A14.1733 14.1733 -180 0 0 68.03 266.75 L68.03 255.41 A14.1733 14.1733 -180 0 0 53.86 241.24
								 L14.17 241.24 A14.1733 14.1733 -180 0 0 -0 255.41 L0 266.75 A14.1733 14.1733 -180 0 0 14.17 280.92
								 L53.86 280.92 Z" class="st1"/>
					<text x="6.18" y="264.08" class="st2" v:langID="1031"><v:paragraph v:horizAlign="1"/><v:tabList/>MACcompare</text>				</g>
				<g id="shape561-124" v:mID="561" v:groupContext="shape" transform="translate(104.905,-239.453)">
					<title>Sheet.561</title>
					<path d="M0 280.92 L47.24 280.92" class="st6"/>
				</g>
				<g id="shape562-127" v:mID="562" v:groupContext="shape" v:layerMember="0" transform="translate(178.045,-65.5169)">
					<title>Dynamic connector.562</title>
					<path d="M7.09 280.92 L7.09 301.47" class="st7"/>
				</g>
				<g id="group570-132" transform="translate(-6.39488E-14,-131.068)" v:mID="570" v:groupContext="group">
					<title>Sheet.570</title>
					<g id="shape567-133" v:mID="567" v:groupContext="shape">
						<title>Sheet.567</title>
						<rect x="0" y="262.618" width="88.252" height="18.3041" class="st12"/>
					</g>
					<g id="shape568-135" v:mID="568" v:groupContext="shape" transform="translate(6.34492E-14,-4.57603)">
						<title>Sheet.568</title>
						<path d="M0 271.77 L8.21 276.57 L0 280.92" class="st6"/>
					</g>
					<g id="shape566-138" v:mID="566" v:groupContext="shape">
						<title>Sheet.566</title>
						<desc>CHx_MAC_VALUEi</desc>
						<v:textBlock v:margins="rect(1,1,1,1)" v:tabSpace="42.5197"/>
						<v:textRect cx="48.378" cy="271.77" width="96.76" height="18.3041"/>
						<text x="10.99" y="274.77" class="st2" v:langID="1031"><v:paragraph v:horizAlign="1"/><v:tabList/>CHx_MAC_VALUEi</text>					</g>
				</g>
				<g id="shape571-140" v:mID="571" v:groupContext="shape" transform="translate(184.606,-44.257)">
					<title>Sheet.571</title>
					<desc>Generated MAC value</desc>
					<v:textBlock v:margins="rect(1,1,1,1)" v:tabSpace="42.5197"/>
					<v:textRect cx="20.6693" cy="272.186" width="41.34" height="17.4724"/>
					<rect x="0" y="263.449" width="41.3386" height="17.4724" class="st9"/>
					<text x="3.32" y="269.79" class="st11" v:langID="1031"><v:paragraph v:horizAlign="1"/><v:tabList/>Generated <v:newlineChar/><tspan
								x="3.17" dy="1.2em" class="st3">MAC value</tspan></text>				</g>
				<g id="shape574-144" v:mID="574" v:groupContext="shape" transform="translate(46.4173,-21.8161)">
					<title>Sheet.574</title>
					<desc>Reference MAC value</desc>
					<v:textBlock v:margins="rect(1,1,1,1)" v:tabSpace="42.5197"/>
					<v:textRect cx="49.0157" cy="275.087" width="98.04" height="11.6693"/>
					<rect x="0" y="269.252" width="98.0315" height="11.6693" class="st9"/>
					<text x="14.07" y="277.49" class="st11" v:langID="1031"><v:paragraph v:horizAlign="1"/><v:tabList/>Reference MAC value</text>				</g>
				<g id="shape576-147" v:mID="576" v:groupContext="shape" transform="translate(125.636,-110.061)">
					<title>Sheet.576</title>
					<desc>AAD, cipher text</desc>
					<v:textBlock v:margins="rect(1,1,1,1)" v:tabSpace="42.5197"/>
					<v:textRect cx="23.6811" cy="272.186" width="47.37" height="17.4724"/>
					<rect x="0" y="263.449" width="47.3622" height="17.4724" class="st9"/>
					<text x="15.59" y="269.79" class="st11" v:langID="1031"><v:paragraph v:horizAlign="1"/><v:tabList/>AAD, <v:newlineChar/><tspan
								x="6.18" dy="1.2em" class="st3">cipher text</tspan></text>				</g>
			</g>
		</g>
	</g>
</svg>
