<?xml version="1.0" encoding="UTF-8" standalone="no"?>
<!DOCTYPE svg PUBLIC "-//W3C//DTD SVG 1.1//EN" "http://www.w3.org/Graphics/SVG/1.1/DTD/svg11.dtd">
<!-- Generated by Microsoft Visio, SVG Export SENT_ChannelRedundancy.svg Page-1 -->
<svg xmlns="http://www.w3.org/2000/svg" xmlns:xlink="http://www.w3.org/1999/xlink" xmlns:ev="http://www.w3.org/2001/xml-events"
		xmlns:v="http://schemas.microsoft.com/visio/2003/SVGExtensions/" width="7.7309in" height="3.97135in"
		viewBox="0 0 556.625 285.937" xml:space="preserve" color-interpolation-filters="sRGB" class="st17">
	<v:documentProperties v:langID="1033"/>

	<style type="text/css">
	<![CDATA[
		.st1 {fill:#ffffff;stroke:#000000;stroke-linecap:round;stroke-linejoin:round;stroke-width:0.749998}
		.st2 {fill:#000000;font-family:Calibri;font-size:1.00001em}
		.st3 {font-size:1em}
		.st4 {marker-end:url(#mrkr1-10);stroke:#4bacc6;stroke-linecap:round;stroke-linejoin:round;stroke-width:1.5}
		.st5 {fill:#4bacc6;fill-opacity:1;stroke:#4bacc6;stroke-opacity:1;stroke-width:0.37313367393565}
		.st6 {fill:none;stroke:none;stroke-linecap:round;stroke-linejoin:round;stroke-width:0.749998}
		.st7 {marker-end:url(#mrkr1-22);marker-start:url(#mrkr1-20);stroke:#000000;stroke-linecap:round;stroke-linejoin:round;stroke-width:0.749998}
		.st8 {fill:#000000;fill-opacity:1;stroke:#000000;stroke-opacity:1;stroke-width:0.22935730364419}
		.st9 {fill:none;stroke:#000000;stroke-dasharray:5.24999,3.74999;stroke-linecap:round;stroke-linejoin:round;stroke-width:0.749998}
		.st10 {fill:#ffffff;stroke:#4bacc6;stroke-linecap:round;stroke-linejoin:round;stroke-width:1.5}
		.st11 {fill:none}
		.st12 {stroke:#4bacc6;stroke-linecap:round;stroke-linejoin:round;stroke-width:1.5}
		.st13 {fill:#ffffff;stroke:#00b050;stroke-linecap:round;stroke-linejoin:round;stroke-width:1.5}
		.st14 {stroke:#00b050;stroke-linecap:round;stroke-linejoin:round;stroke-width:1.5}
		.st15 {marker-end:url(#mrkr1-160);stroke:#00b050;stroke-linecap:round;stroke-linejoin:round;stroke-width:1.5}
		.st16 {fill:#00b050;fill-opacity:1;stroke:#00b050;stroke-opacity:1;stroke-width:0.37313367393565}
		.st17 {fill:none;fill-rule:evenodd;font-size:12px;overflow:visible;stroke-linecap:square;stroke-miterlimit:3}
	]]>
	</style>

	<defs id="Markers">
		<g id="lend1">
			<path d="M 1 -1 L 0 0 L 1 1 " style="stroke-linecap:round;stroke-linejoin:round;fill:none"/>
		</g>
		<marker id="mrkr1-10" class="st5" v:arrowType="1" v:arrowSize="2" orient="auto" markerUnits="strokeWidth"
				overflow="visible">
			<use xlink:href="#lend1" transform="scale(-2.6800047003328,-2.6800047003328) "/>
		</marker>
		<marker id="mrkr1-20" class="st8" v:arrowType="1" v:arrowSize="2" orient="auto" markerUnits="strokeWidth"
				overflow="visible">
			<use xlink:href="#lend1" transform="scale(4.3600094006656) "/>
		</marker>
		<marker id="mrkr1-22" class="st8" v:arrowType="1" v:arrowSize="2" orient="auto" markerUnits="strokeWidth"
				overflow="visible">
			<use xlink:href="#lend1" transform="scale(-4.3600094006656,-4.3600094006656) "/>
		</marker>
		<marker id="mrkr1-160" class="st16" v:arrowType="1" v:arrowSize="2" orient="auto" markerUnits="strokeWidth"
				overflow="visible">
			<use xlink:href="#lend1" transform="scale(-2.6800047003328,-2.6800047003328) "/>
		</marker>
	</defs>
	<g v:mID="0" v:index="1" v:groupContext="foregroundPage">
		<title>Page-1</title>
		<v:pageProperties v:drawingScale="1" v:pageScale="1" v:drawingUnits="19" v:shadowOffsetX="8.99997"
				v:shadowOffsetY="-8.99997"/>
		<g id="shape1-1" v:mID="1" v:groupContext="shape" transform="translate(368.344,-117.656)">
			<title>Sheet.1</title>
			<desc>GTM/eGTM</desc>
			<v:userDefs/>
			<v:textBlock v:margins="rect(3.99999,3.99999,3.99999,3.99999)"/>
			<v:textRect cx="26.1555" cy="259.781" width="52.32" height="52.3124"/>
			<rect x="0" y="233.625" width="52.3124" height="52.3124" class="st1"/>
			<text x="12" y="256.18" class="st2" v:langID="1031"><v:paragraph v:horizAlign="1"/><v:tabList/>GTM/<tspan x="11.33"
						dy="1.2em" class="st3">eGTM</tspan></text>		</g>
		<g id="shape2-5" v:mID="2" v:groupContext="shape" transform="translate(324.569,-161.396)">
			<title>Sheet.2</title>
			<path d="M43.71 285.94 L24.29 285.94 L24.29 249.94 L0 249.94" class="st4"/>
		</g>
		<g id="shape3-11" v:mID="3" v:groupContext="shape" transform="translate(298.312,-112.313)">
			<title>Sheet.3</title>
			<desc>TRIG b</desc>
			<v:userDefs/>
			<v:textBlock v:margins="rect(3.99999,3.99999,3.99999,3.99999)"/>
			<v:textRect cx="26.1555" cy="275.937" width="52.32" height="19.9999"/>
			<rect x="0" y="265.937" width="52.3124" height="19.9999" class="st6"/>
			<text x="10.17" y="279.54" class="st2" v:langID="1031"><v:paragraph v:horizAlign="1"/><v:tabList/>TRIG b</text>		</g>
		<g id="shape4-14" v:mID="4" v:groupContext="shape" transform="translate(407.586,-218.06)">
			<title>Sheet.4</title>
			<path d="M0 285.94 L30.79 285.94" class="st7"/>
		</g>
		<g id="shape5-23" v:mID="5" v:groupContext="shape" transform="translate(438.374,-24.5629)">
			<title>Sheet.5</title>
			<desc>TriCore CPU</desc>
			<v:userDefs/>
			<v:textBlock v:margins="rect(3.99999,3.99999,3.99999,3.99999)"/>
			<v:textRect cx="37.6867" cy="175.688" width="75.38" height="220.499"/>
			<rect x="0" y="65.4378" width="75.3748" height="220.499" class="st1"/>
			<text x="8.35" y="179.29" class="st2" v:langID="1031"><v:paragraph v:horizAlign="1"/><v:tabList/>TriCore CPU</text>		</g>
		<g id="shape6-26" v:mID="6" v:groupContext="shape" transform="translate(126.75,-0.372999)">
			<title>Sheet.6</title>
			<path d="M0 285.94 L414 285.94 L414 0.75 L0 0.75 L0 285.94 Z" class="st9"/>
		</g>
		<g id="shape7-28" v:mID="7" v:groupContext="shape" transform="translate(471.249,-265.562)">
			<title>Sheet.7</title>
			<desc>TC4XX</desc>
			<v:userDefs/>
			<v:textBlock v:margins="rect(3.99999,3.99999,3.99999,3.99999)"/>
			<v:textRect cx="42.4992" cy="275.937" width="85" height="19.9999"/>
			<rect x="0" y="265.937" width="84.9998" height="19.9999" class="st6"/>
			<text x="27.11" y="279.54" class="st2" v:langID="1031"><v:paragraph v:horizAlign="1"/><v:tabList/>TC4XX</text>		</g>
		<g id="shape8-31" v:mID="8" v:groupContext="shape" transform="translate(175.487,-200.062)">
			<title>Sheet.8</title>
			<desc>PORT</desc>
			<v:userDefs/>
			<v:textBlock v:margins="rect(3.99999,3.99999,3.99999,3.99999)"/>
			<v:textRect cx="21.8564" cy="267.937" width="43.72" height="35.9999"/>
			<rect x="0" y="249.937" width="43.7142" height="35.9999" class="st10"/>
			<text x="8.6" y="271.54" class="st2" v:langID="1031"><v:paragraph v:horizAlign="1"/><v:tabList/>PORT</text>		</g>
		<g id="shape9-34" v:mID="9" v:groupContext="shape" transform="translate(237.844,-122.272)">
			<title>Sheet.9</title>
			<desc>IR</desc>
			<v:userDefs/>
			<v:textBlock v:margins="rect(3.99999,3.99999,3.99999,3.99999)"/>
			<v:textRect cx="26.1554" cy="264.396" width="52.32" height="43.0808"/>
			<rect x="0" y="242.856" width="52.3124" height="43.0808" class="st1"/>
			<text x="21.39" y="268" class="st2" v:langID="1031"><v:paragraph v:horizAlign="1"/><v:tabList/>IR</text>		</g>
		<g id="shape10-37" v:mID="10" v:groupContext="shape" transform="translate(248.069,-186.562)">
			<title>Sheet.10</title>
			<desc>[SENT.0]</desc>
			<v:userDefs/>
			<v:textBlock v:margins="rect(3.99999,3.99999,3.99999,3.99999)"/>
			<v:textRect cx="38.2492" cy="254.437" width="76.5" height="62.9998"/>
			<rect x="0" y="222.937" width="76.4998" height="62.9998" class="st10"/>
			<text x="21.21" y="258.04" class="st2" v:langID="1031"><v:paragraph v:horizAlign="1"/><v:tabList/>SENT.0</text>		</g>
		<g id="shape11-40" v:mID="11" v:groupContext="shape" transform="translate(353.437,-196.522)">
			<title>Sheet.11</title>
			<desc>BUS</desc>
			<v:userDefs/>
			<v:textBlock v:margins="rect(3.99999,3.99999,3.99999,3.99999)"/>
			<v:textRect cx="26.1555" cy="264.396" width="52.32" height="43.0808"/>
			<rect x="0" y="242.856" width="52.3124" height="43.0808" class="st1"/>
			<text x="16.29" y="268" class="st2" v:langID="1031"><v:paragraph v:horizAlign="1"/><v:tabList/>BUS</text>		</g>
		<g id="shape12-43" v:mID="12" v:groupContext="shape" transform="translate(0.750677,-186.562)">
			<title>Sheet.12</title>
			<desc>External SENT Sensor</desc>
			<v:userDefs/>
			<v:textBlock v:margins="rect(3.99999,3.99999,3.99999,3.99999)"/>
			<v:textRect cx="38.2492" cy="254.437" width="76.5" height="62.9998"/>
			<rect x="0" y="222.937" width="76.4998" height="62.9998" class="st10"/>
			<text x="4.39" y="250.84" class="st2" v:langID="1031"><v:paragraph v:horizAlign="1"/><v:tabList/>External SENT <tspan
						x="21.75" dy="1.2em" class="st3">Sensor</tspan></text>		</g>
		<g id="group13-47" transform="translate(106.116,-200.06)" v:mID="13" v:groupContext="group">
			<title>Sheet.13</title>
			<g id="shape14-48" v:mID="14" v:groupContext="shape" transform="translate(0.00211301,-0.00278233)">
				<title>Sheet.14</title>
				<desc>PAD</desc>
				<v:userDefs/>
				<v:textBlock v:margins="rect(3.99999,3.99999,3.99999,3.99999)"/>
				<v:textRect cx="20.2493" cy="267.937" width="40.5" height="35.9999"/>
				<rect x="0" y="249.937" width="40.4999" height="35.9999" class="st10"/>
				<text x="9.99" y="271.54" class="st2" v:langID="1031"><v:paragraph v:horizAlign="1"/><v:tabList/>PAD</text>			</g>
			<g id="shape15-51" v:mID="15" v:groupContext="shape" transform="translate(233.688,47.7477) rotate(45)">
				<title>Sheet.15</title>
				<path d="M0 285.94 L12.73 285.94 L0 285.94 Z" class="st11"/>
				<path d="M0 285.94 L12.73 285.94" class="st12"/>
			</g>
			<g id="shape16-54" v:mID="16" v:groupContext="shape" transform="translate(202.188,74.7476) rotate(45)">
				<title>Sheet.16</title>
				<path d="M0 285.94 L12.73 285.94 L0 285.94 Z" class="st11"/>
				<path d="M0 285.94 L12.73 285.94" class="st12"/>
			</g>
			<g id="shape17-57" v:mID="17" v:groupContext="shape" transform="translate(-162.184,74.7476) rotate(-45) scale(-1,1)">
				<title>Sheet.17</title>
				<path d="M0 285.94 L12.73 285.94 L0 285.94 Z" class="st11"/>
				<path d="M0 285.94 L12.73 285.94" class="st12"/>
			</g>
			<g id="shape18-60" v:mID="18" v:groupContext="shape" transform="translate(-193.184,47.7477) rotate(-45) scale(-1,1)">
				<title>Sheet.18</title>
				<path d="M0 285.94 L12.73 285.94 L0 285.94 Z" class="st11"/>
				<path d="M0 285.94 L12.73 285.94" class="st12"/>
			</g>
		</g>
		<g id="shape19-63" v:mID="19" v:groupContext="shape" transform="translate(324.569,-218.06)">
			<title>Sheet.19</title>
			<path d="M0 285.94 L28.87 285.94" class="st7"/>
		</g>
		<g id="shape20-70" v:mID="20" v:groupContext="shape" transform="translate(219.201,-218.06)">
			<title>Sheet.20</title>
			<path d="M0 285.94 L28.87 285.94" class="st7"/>
		</g>
		<g id="shape21-77" v:mID="21" v:groupContext="shape" transform="translate(146.618,-218.06)">
			<title>Sheet.21</title>
			<path d="M0 285.94 L28.87 285.94" class="st7"/>
		</g>
		<g id="shape22-84" v:mID="22" v:groupContext="shape" transform="translate(77.2505,-218.06)">
			<title>Sheet.22</title>
			<path d="M0 285.94 L28.87 285.94" class="st7"/>
		</g>
		<g id="shape23-91" v:mID="23" v:groupContext="shape" transform="translate(407.586,-69.5603)">
			<title>Sheet.23</title>
			<path d="M0 285.94 L30.79 285.94" class="st7"/>
		</g>
		<g id="shape24-98" v:mID="24" v:groupContext="shape" transform="translate(175.487,-51.5624)">
			<title>Sheet.24</title>
			<desc>PORT</desc>
			<v:userDefs/>
			<v:textBlock v:margins="rect(3.99999,3.99999,3.99999,3.99999)"/>
			<v:textRect cx="21.8564" cy="267.937" width="43.72" height="35.9999"/>
			<rect x="0" y="249.937" width="43.7142" height="35.9999" class="st13"/>
			<text x="8.6" y="271.54" class="st2" v:langID="1031"><v:paragraph v:horizAlign="1"/><v:tabList/>PORT</text>		</g>
		<g id="shape25-101" v:mID="25" v:groupContext="shape" transform="translate(248.069,-38.0624)">
			<title>Sheet.25</title>
			<desc>[SENT.1]</desc>
			<v:userDefs/>
			<v:textBlock v:margins="rect(3.99999,3.99999,3.99999,3.99999)"/>
			<v:textRect cx="38.2492" cy="254.437" width="76.5" height="62.9998"/>
			<rect x="0" y="222.937" width="76.4998" height="62.9998" class="st13"/>
			<text x="21.21" y="258.04" class="st2" v:langID="1031"><v:paragraph v:horizAlign="1"/><v:tabList/>SENT.1</text>		</g>
		<g id="shape26-104" v:mID="26" v:groupContext="shape" transform="translate(353.437,-48.0221)">
			<title>Sheet.26</title>
			<desc>BUS</desc>
			<v:userDefs/>
			<v:textBlock v:margins="rect(3.99999,3.99999,3.99999,3.99999)"/>
			<v:textRect cx="26.1555" cy="264.396" width="52.32" height="43.0808"/>
			<rect x="0" y="242.856" width="52.3124" height="43.0808" class="st1"/>
			<text x="16.29" y="268" class="st2" v:langID="1031"><v:paragraph v:horizAlign="1"/><v:tabList/>BUS</text>		</g>
		<g id="shape27-107" v:mID="27" v:groupContext="shape" transform="translate(0.750677,-38.0624)">
			<title>Sheet.27</title>
			<desc>External SENT Sensor</desc>
			<v:userDefs/>
			<v:textBlock v:margins="rect(3.99999,3.99999,3.99999,3.99999)"/>
			<v:textRect cx="38.2492" cy="254.437" width="76.5" height="62.9998"/>
			<rect x="0" y="222.937" width="76.4998" height="62.9998" class="st13"/>
			<text x="4.39" y="250.84" class="st2" v:langID="1031"><v:paragraph v:horizAlign="1"/><v:tabList/>External SENT <tspan
						x="21.75" dy="1.2em" class="st3">Sensor</tspan></text>		</g>
		<g id="group28-111" transform="translate(106.116,-51.5596)" v:mID="28" v:groupContext="group">
			<title>Sheet.28</title>
			<g id="shape29-112" v:mID="29" v:groupContext="shape" transform="translate(0.00211301,-0.00278233)">
				<title>Sheet.29</title>
				<desc>PAD</desc>
				<v:userDefs/>
				<v:textBlock v:margins="rect(3.99999,3.99999,3.99999,3.99999)"/>
				<v:textRect cx="20.2493" cy="267.937" width="40.5" height="35.9999"/>
				<rect x="0" y="249.937" width="40.4999" height="35.9999" class="st13"/>
				<text x="9.99" y="271.54" class="st2" v:langID="1031"><v:paragraph v:horizAlign="1"/><v:tabList/>PAD</text>			</g>
			<g id="shape30-115" v:mID="30" v:groupContext="shape" transform="translate(233.688,47.7477) rotate(45)">
				<title>Sheet.30</title>
				<path d="M0 285.94 L12.73 285.94 L0 285.94 Z" class="st11"/>
				<path d="M0 285.94 L12.73 285.94" class="st14"/>
			</g>
			<g id="shape31-118" v:mID="31" v:groupContext="shape" transform="translate(202.188,74.7476) rotate(45)">
				<title>Sheet.31</title>
				<path d="M0 285.94 L12.73 285.94 L0 285.94 Z" class="st11"/>
				<path d="M0 285.94 L12.73 285.94" class="st14"/>
			</g>
			<g id="shape32-121" v:mID="32" v:groupContext="shape" transform="translate(-162.184,74.7476) rotate(-45) scale(-1,1)">
				<title>Sheet.32</title>
				<path d="M0 285.94 L12.73 285.94 L0 285.94 Z" class="st11"/>
				<path d="M0 285.94 L12.73 285.94" class="st14"/>
			</g>
			<g id="shape33-124" v:mID="33" v:groupContext="shape" transform="translate(-193.184,47.7477) rotate(-45) scale(-1,1)">
				<title>Sheet.33</title>
				<path d="M0 285.94 L12.73 285.94 L0 285.94 Z" class="st11"/>
				<path d="M0 285.94 L12.73 285.94" class="st14"/>
			</g>
		</g>
		<g id="shape34-127" v:mID="34" v:groupContext="shape" transform="translate(324.569,-69.5603)">
			<title>Sheet.34</title>
			<path d="M0 285.94 L28.87 285.94" class="st7"/>
		</g>
		<g id="shape35-134" v:mID="35" v:groupContext="shape" transform="translate(219.201,-69.5603)">
			<title>Sheet.35</title>
			<path d="M0 285.94 L28.87 285.94" class="st7"/>
		</g>
		<g id="shape36-141" v:mID="36" v:groupContext="shape" transform="translate(146.618,-69.5603)">
			<title>Sheet.36</title>
			<path d="M0 285.94 L28.87 285.94" class="st7"/>
		</g>
		<g id="shape37-148" v:mID="37" v:groupContext="shape" transform="translate(77.2505,-69.5603)">
			<title>Sheet.37</title>
			<path d="M0 285.94 L28.87 285.94" class="st7"/>
		</g>
		<g id="shape38-155" v:mID="38" v:groupContext="shape" transform="translate(324.75,444.935) scale(1,-1)">
			<title>Sheet.38</title>
			<path d="M43.71 285.94 L24.29 285.94 L24.29 249.94 L0 249.94" class="st15"/>
		</g>
		<g id="shape39-161" v:mID="39" v:groupContext="shape" transform="translate(298.594,-155.063)">
			<title>Sheet.39</title>
			<desc>TRIG a</desc>
			<v:userDefs/>
			<v:textBlock v:margins="rect(3.99999,3.99999,3.99999,3.99999)"/>
			<v:textRect cx="26.1555" cy="275.937" width="52.32" height="19.9999"/>
			<rect x="0" y="265.937" width="52.3124" height="19.9999" class="st6"/>
			<text x="10.45" y="279.54" class="st2" v:langID="1031"><v:paragraph v:horizAlign="1"/><v:tabList/>TRIG a</text>		</g>
		<g id="shape40-164" v:mID="40" v:groupContext="shape" transform="translate(549.935,99.3747) rotate(90)">
			<title>Sheet.40</title>
			<path d="M0 285.94 L21.21 285.94" class="st7"/>
		</g>
		<g id="shape41-171" v:mID="41" v:groupContext="shape" transform="translate(549.935,163.665) rotate(90)">
			<title>Sheet.41</title>
			<path d="M0 285.94 L21.21 285.94" class="st7"/>
		</g>
	</g>
</svg>
