<?xml version="1.0" encoding="UTF-8" standalone="no"?>
<!DOCTYPE svg PUBLIC "-//W3C//DTD SVG 1.1//EN" "http://www.w3.org/Graphics/SVG/1.1/DTD/svg11.dtd">
<!-- Generated by Microsoft Visio, SVG Export CSS_ILSEQ.svg Page-1 -->
<svg xmlns="http://www.w3.org/2000/svg" xmlns:xlink="http://www.w3.org/1999/xlink" xmlns:ev="http://www.w3.org/2001/xml-events"
		xmlns:v="http://schemas.microsoft.com/visio/2003/SVGExtensions/" width="10.0154in" height="6.94592in"
		viewBox="0 0 721.11 500.106" xml:space="preserve" color-interpolation-filters="sRGB" class="st18">
	<v:documentProperties v:langID="1033" v:metric="true" v:viewMarkup="false"/>

	<style type="text/css">
	<![CDATA[
		.st1 {fill:#ffffff;stroke:#41719c;stroke-width:0.75}
		.st2 {fill:#41719c;font-family:Calibri;font-size:0.666664em}
		.st3 {font-size:1em}
		.st4 {fill:#ffffff;stroke:#41719c;stroke-width:1.5}
		.st5 {fill:#ffffff;stroke:#ed7d31;stroke-dasharray:5.25,3.75,0.01,3.75;stroke-width:0.75}
		.st6 {fill:#ed7d31;font-family:Calibri;font-size:0.666664em}
		.st7 {stroke:#5b9bd5;stroke-linecap:round;stroke-linejoin:round;stroke-width:1}
		.st8 {fill:#ffffff;stroke:#ed7d31;stroke-dasharray:11.25,6.75;stroke-width:0.75}
		.st9 {fill:#ffffff;stroke:#ed7d31;stroke-width:0.75}
		.st10 {fill:#ffffff;stroke:#ed7d31;stroke-width:1.5}
		.st11 {fill:none;stroke:none;stroke-width:0.25}
		.st12 {fill:#5b9bd5;font-family:Calibri;font-size:0.666664em}
		.st13 {fill:#70ad47;font-family:Calibri;font-size:0.666664em}
		.st14 {fill:#ed7d31;font-family:Calibri;font-size:1.00001em}
		.st15 {fill:#000000;font-size:1em}
		.st16 {fill:#000000;font-family:Calibri;font-size:1.00001em}
		.st17 {fill:#4672c4;font-size:1em}
		.st18 {fill:none;fill-rule:evenodd;font-size:12px;overflow:visible;stroke-linecap:square;stroke-miterlimit:3}
	]]>
	</style>

	<g v:mID="0" v:index="1" v:groupContext="foregroundPage">
		<title>Page-1</title>
		<v:pageProperties v:drawingScale="0.0393701" v:pageScale="0.0393701" v:drawingUnits="24" v:shadowOffsetX="8.50394"
				v:shadowOffsetY="-8.50394"/>
		<v:layer v:name="Connector" v:index="0"/>
		<v:layer v:name="Flowchart" v:index="1"/>
		<g id="shape2954-1" v:mID="2954" v:groupContext="shape" v:layerMember="0;1" transform="translate(211.234,-300.722)">
			<title>On-page reference</title>
			<desc>1. CFG</desc>
			<v:userDefs>
				<v:ud v:nameU="visVersion" v:prompt="" v:val="VT0(15):26"/>
			</v:userDefs>
			<v:textBlock v:margins="rect(2,2,2,2)" v:tabSpace="42.5197"/>
			<v:textRect cx="12.7559" cy="487.35" width="25.52" height="25.5118"/>
			<path d="M0 487.35 A12.7559 12.7559 0 0 1 25.51 487.35 A12.7559 12.7559 0 1 1 0 487.35 Z" class="st1"/>
			<text x="2.32" y="489.75" class="st2" v:langID="1031"><v:paragraph v:horizAlign="1"/><v:tabList/>1. CFG</text>		</g>
		<g id="shape2956-4" v:mID="2956" v:groupContext="shape" v:layerMember="0;1" transform="translate(440.132,-300.722)">
			<title>On-page reference.2956</title>
			<desc>1. DATA</desc>
			<v:userDefs>
				<v:ud v:nameU="visVersion" v:prompt="" v:val="VT0(15):26"/>
			</v:userDefs>
			<v:textBlock v:margins="rect(2,2,2,2)" v:tabSpace="42.5197"/>
			<v:textRect cx="12.7559" cy="487.35" width="25.52" height="25.5118"/>
			<path d="M0 487.35 A12.7559 12.7559 0 0 1 25.51 487.35 A12.7559 12.7559 0 1 1 0 487.35 Z" class="st1"/>
			<text x="9.72" y="484.95" class="st2" v:langID="1031"><v:paragraph v:horizAlign="1"/><v:tabList/>1. <tspan x="3.72"
						dy="1.2em" class="st3">DATA</tspan></text>		</g>
		<g id="shape2957-8" v:mID="2957" v:groupContext="shape" v:layerMember="0;1" transform="translate(411.785,-258.203)">
			<title>On-page reference.2957</title>
			<desc>A</desc>
			<v:userDefs>
				<v:ud v:nameU="visVersion" v:prompt="" v:val="VT0(15):26"/>
			</v:userDefs>
			<v:textBlock v:margins="rect(2,2,2,2)" v:tabSpace="42.5197"/>
			<v:textRect cx="12.7559" cy="487.35" width="25.52" height="25.5118"/>
			<path d="M0 487.35 A12.7559 12.7559 0 0 1 25.51 487.35 A12.7559 12.7559 0 1 1 0 487.35 Z" class="st1"/>
			<text x="10.44" y="489.75" class="st2" v:langID="1031"><v:paragraph v:horizAlign="1"/><v:tabList/>A</text>		</g>
		<g id="shape2958-11" v:mID="2958" v:groupContext="shape" v:layerMember="0;1" transform="translate(574.069,-258.203)">
			<title>On-page reference.2958</title>
			<desc>B</desc>
			<v:userDefs>
				<v:ud v:nameU="visVersion" v:prompt="" v:val="VT0(15):26"/>
			</v:userDefs>
			<v:textBlock v:margins="rect(2,2,2,2)" v:tabSpace="42.5197"/>
			<v:textRect cx="12.7559" cy="487.35" width="25.52" height="25.5118"/>
			<path d="M0 487.35 A12.7559 12.7559 0 0 1 25.51 487.35 A12.7559 12.7559 0 1 1 0 487.35 Z" class="st4"/>
			<text x="10.58" y="489.75" class="st2" v:langID="1031"><v:paragraph v:horizAlign="1"/><v:tabList/>B</text>		</g>
		<g id="shape2959-14" v:mID="2959" v:groupContext="shape" v:layerMember="0;1" transform="translate(72.1398,-258.203)">
			<title>On-page reference.2959</title>
			<desc>AAD</desc>
			<v:userDefs>
				<v:ud v:nameU="visVersion" v:prompt="" v:val="VT0(15):26"/>
			</v:userDefs>
			<v:textBlock v:margins="rect(2,2,2,2)" v:tabSpace="42.5197"/>
			<v:textRect cx="12.7559" cy="487.35" width="25.52" height="25.5118"/>
			<path d="M0 487.35 A12.7559 12.7559 0 0 1 25.51 487.35 A12.7559 12.7559 0 1 1 0 487.35 Z" class="st1"/>
			<text x="5.67" y="489.75" class="st2" v:langID="1031"><v:paragraph v:horizAlign="1"/><v:tabList/>AAD</text>		</g>
		<g id="shape2960-17" v:mID="2960" v:groupContext="shape" v:layerMember="0;1" transform="translate(157.179,-258.203)">
			<title>On-page reference.2960</title>
			<desc>PC</desc>
			<v:userDefs>
				<v:ud v:nameU="visVersion" v:prompt="" v:val="VT0(15):26"/>
			</v:userDefs>
			<v:textBlock v:margins="rect(2,2,2,2)" v:tabSpace="42.5197"/>
			<v:textRect cx="12.7559" cy="487.35" width="25.52" height="25.5118"/>
			<path d="M0 487.35 A12.7559 12.7559 0 0 1 25.51 487.35 A12.7559 12.7559 0 1 1 0 487.35 Z" class="st1"/>
			<text x="8.56" y="489.75" class="st2" v:langID="1031"><v:paragraph v:horizAlign="1"/><v:tabList/>PC</text>		</g>
		<g id="shape2961-20" v:mID="2961" v:groupContext="shape" v:layerMember="0;1" transform="translate(284.935,-258.203)">
			<title>On-page reference.2961</title>
			<desc>AAD/PC</desc>
			<v:userDefs>
				<v:ud v:nameU="visVersion" v:prompt="" v:val="VT0(15):26"/>
			</v:userDefs>
			<v:textBlock v:margins="rect(2,2,2,2)" v:tabSpace="42.5197"/>
			<v:textRect cx="12.7559" cy="487.35" width="25.52" height="25.5118"/>
			<path d="M0 487.35 A12.7559 12.7559 0 0 1 25.51 487.35 A12.7559 12.7559 0 1 1 0 487.35 Z" class="st1"/>
			<text x="4.12" y="484.95" class="st2" v:langID="1031"><v:paragraph v:horizAlign="1"/><v:tabList/>AAD/<tspan x="8.56"
						dy="1.2em" class="st3">PC</tspan></text>		</g>
		<g id="shape2962-24" v:mID="2962" v:groupContext="shape" v:layerMember="0;1" transform="translate(50.8799,-214.974)">
			<title>On-page reference.2962</title>
			<desc>A</desc>
			<v:userDefs>
				<v:ud v:nameU="visVersion" v:prompt="" v:val="VT0(15):26"/>
			</v:userDefs>
			<v:textBlock v:margins="rect(2,2,2,2)" v:tabSpace="42.5197"/>
			<v:textRect cx="12.7559" cy="487.35" width="25.52" height="25.5118"/>
			<path d="M0 487.35 A12.7559 12.7559 0 0 1 25.51 487.35 A12.7559 12.7559 0 1 1 0 487.35 Z" class="st1"/>
			<text x="10.44" y="489.75" class="st2" v:langID="1031"><v:paragraph v:horizAlign="1"/><v:tabList/>A</text>		</g>
		<g id="shape2963-27" v:mID="2963" v:groupContext="shape" v:layerMember="0;1" transform="translate(86.313,-214.974)">
			<title>On-page reference.2963</title>
			<desc>B</desc>
			<v:userDefs>
				<v:ud v:nameU="visVersion" v:prompt="" v:val="VT0(15):26"/>
			</v:userDefs>
			<v:textBlock v:margins="rect(2,2,2,2)" v:tabSpace="42.5197"/>
			<v:textRect cx="12.7559" cy="487.35" width="25.52" height="25.5118"/>
			<path d="M0 487.35 A12.7559 12.7559 0 0 1 25.51 487.35 A12.7559 12.7559 0 1 1 0 487.35 Z" class="st5"/>
			<text x="10.58" y="489.75" class="st6" v:langID="1031"><v:paragraph v:horizAlign="1"/><v:tabList/>B</text>		</g>
		<g id="shape2964-30" v:mID="2964" v:groupContext="shape" transform="translate(374.089,676.434) rotate(162.534)">
			<title>Sheet.2964</title>
			<path d="M0 500.11 L56.67 500.11" class="st7"/>
		</g>
		<g id="shape2965-33" v:mID="2965" v:groupContext="shape" transform="translate(24.1969,-280.017) rotate(-6.97128)">
			<title>Sheet.2965</title>
			<path d="M0 500.11 L140.13 500.11" class="st7"/>
		</g>
		<g id="shape2966-36" v:mID="2966" v:groupContext="shape" transform="translate(185.237,703.691) rotate(-167.005)">
			<title>Sheet.2966</title>
			<path d="M0 500.11 L75.64 500.11" class="st7"/>
		</g>
		<g id="shape2967-39" v:mID="2967" v:groupContext="shape" transform="translate(-291.448,572.034) rotate(-128.66)">
			<title>Sheet.2967</title>
			<path d="M0 500.11 L22.69 500.11" class="st7"/>
		</g>
		<g id="shape2968-42" v:mID="2968" v:groupContext="shape" transform="translate(-256.524,-124.572) rotate(-39.8056)">
			<title>Sheet.2968</title>
			<path d="M0 500.11 L27.67 500.11" class="st7"/>
		</g>
		<g id="shape2969-45" v:mID="2969" v:groupContext="shape" v:layerMember="0;1" transform="translate(135.919,-214.974)">
			<title>On-page reference.2969</title>
			<desc>A</desc>
			<v:userDefs>
				<v:ud v:nameU="visVersion" v:prompt="" v:val="VT0(15):26"/>
			</v:userDefs>
			<v:textBlock v:margins="rect(2,2,2,2)" v:tabSpace="42.5197"/>
			<v:textRect cx="12.7559" cy="487.35" width="25.52" height="25.5118"/>
			<path d="M0 487.35 A12.7559 12.7559 0 0 1 25.51 487.35 A12.7559 12.7559 0 1 1 0 487.35 Z" class="st8"/>
			<text x="10.44" y="489.75" class="st6" v:langID="1031"><v:paragraph v:horizAlign="1"/><v:tabList/>A</text>		</g>
		<g id="shape2970-48" v:mID="2970" v:groupContext="shape" v:layerMember="0;1" transform="translate(171.352,-214.974)">
			<title>On-page reference.2970</title>
			<desc>B</desc>
			<v:userDefs>
				<v:ud v:nameU="visVersion" v:prompt="" v:val="VT0(15):26"/>
			</v:userDefs>
			<v:textBlock v:margins="rect(2,2,2,2)" v:tabSpace="42.5197"/>
			<v:textRect cx="12.7559" cy="487.35" width="25.52" height="25.5118"/>
			<path d="M0 487.35 A12.7559 12.7559 0 0 1 25.51 487.35 A12.7559 12.7559 0 1 1 0 487.35 Z" class="st4"/>
			<text x="10.58" y="489.75" class="st2" v:langID="1031"><v:paragraph v:horizAlign="1"/><v:tabList/>B</text>		</g>
		<g id="shape2971-51" v:mID="2971" v:groupContext="shape" transform="translate(-206.409,572.034) rotate(-128.66)">
			<title>Sheet.2971</title>
			<path d="M0 500.11 L22.69 500.11" class="st7"/>
		</g>
		<g id="shape2972-54" v:mID="2972" v:groupContext="shape" transform="translate(-171.485,-124.572) rotate(-39.8056)">
			<title>Sheet.2972</title>
			<path d="M0 500.11 L27.67 500.11" class="st7"/>
		</g>
		<g id="shape2973-57" v:mID="2973" v:groupContext="shape" v:layerMember="0;1" transform="translate(263.675,-214.974)">
			<title>On-page reference.2973</title>
			<desc>A</desc>
			<v:userDefs>
				<v:ud v:nameU="visVersion" v:prompt="" v:val="VT0(15):26"/>
			</v:userDefs>
			<v:textBlock v:margins="rect(2,2,2,2)" v:tabSpace="42.5197"/>
			<v:textRect cx="12.7559" cy="487.35" width="25.52" height="25.5118"/>
			<path d="M0 487.35 A12.7559 12.7559 0 0 1 25.51 487.35 A12.7559 12.7559 0 1 1 0 487.35 Z" class="st1"/>
			<text x="10.44" y="489.75" class="st2" v:langID="1031"><v:paragraph v:horizAlign="1"/><v:tabList/>A</text>		</g>
		<g id="shape2974-60" v:mID="2974" v:groupContext="shape" v:layerMember="0;1" transform="translate(330.289,-214.974)">
			<title>On-page reference.2974</title>
			<desc>B</desc>
			<v:userDefs>
				<v:ud v:nameU="visVersion" v:prompt="" v:val="VT0(15):26"/>
			</v:userDefs>
			<v:textBlock v:margins="rect(2,2,2,2)" v:tabSpace="42.5197"/>
			<v:textRect cx="12.7559" cy="487.35" width="25.52" height="25.5118"/>
			<path d="M0 487.35 A12.7559 12.7559 0 0 1 25.51 487.35 A12.7559 12.7559 0 1 1 0 487.35 Z" class="st9"/>
			<text x="10.58" y="489.75" class="st6" v:langID="1031"><v:paragraph v:horizAlign="1"/><v:tabList/>B</text>		</g>
		<g id="shape2975-63" v:mID="2975" v:groupContext="shape" transform="translate(161.081,725.448) rotate(-158.663)">
			<title>Sheet.2975</title>
			<path d="M0 500.11 L48.69 500.11" class="st7"/>
		</g>
		<g id="shape2976-66" v:mID="2976" v:groupContext="shape" transform="translate(-43.7291,-124.572) rotate(-39.8056)">
			<title>Sheet.2976</title>
			<path d="M0 500.11 L27.67 500.11" class="st7"/>
		</g>
		<g id="shape2977-69" v:mID="2977" v:groupContext="shape" v:layerMember="0;1" transform="translate(395.486,-214.974)">
			<title>On-page reference.2977</title>
			<desc>A</desc>
			<v:userDefs>
				<v:ud v:nameU="visVersion" v:prompt="" v:val="VT0(15):26"/>
			</v:userDefs>
			<v:textBlock v:margins="rect(2,2,2,2)" v:tabSpace="42.5197"/>
			<v:textRect cx="12.7559" cy="487.35" width="25.52" height="25.5118"/>
			<path d="M0 487.35 A12.7559 12.7559 0 0 1 25.51 487.35 A12.7559 12.7559 0 1 1 0 487.35 Z" class="st1"/>
			<text x="10.44" y="489.75" class="st2" v:langID="1031"><v:paragraph v:horizAlign="1"/><v:tabList/>A</text>		</g>
		<g id="shape2978-72" v:mID="2978" v:groupContext="shape" v:layerMember="0;1" transform="translate(490.447,-214.974)">
			<title>On-page reference.2978</title>
			<desc>B</desc>
			<v:userDefs>
				<v:ud v:nameU="visVersion" v:prompt="" v:val="VT0(15):26"/>
			</v:userDefs>
			<v:textBlock v:margins="rect(2,2,2,2)" v:tabSpace="42.5197"/>
			<v:textRect cx="12.7559" cy="487.35" width="25.52" height="25.5118"/>
			<path d="M0 487.35 A12.7559 12.7559 0 0 1 25.51 487.35 A12.7559 12.7559 0 1 1 0 487.35 Z" class="st4"/>
			<text x="10.58" y="489.75" class="st2" v:langID="1031"><v:paragraph v:horizAlign="1"/><v:tabList/>B</text>		</g>
		<g id="shape2979-75" v:mID="2979" v:groupContext="shape" transform="translate(393.319,747.505) rotate(-167.307)">
			<title>Sheet.2979</title>
			<path d="M0 500.11 L80.63 500.11" class="st7"/>
		</g>
		<g id="shape2980-78" v:mID="2980" v:groupContext="shape" transform="translate(40.1984,-78.9802) rotate(-47.3859)">
			<title>Sheet.2980</title>
			<path d="M0 500.11 L24.07 500.11" class="st7"/>
		</g>
		<g id="shape2981-81" v:mID="2981" v:groupContext="shape" v:layerMember="0;1" transform="translate(559.896,-214.974)">
			<title>On-page reference.2981</title>
			<desc>A</desc>
			<v:userDefs>
				<v:ud v:nameU="visVersion" v:prompt="" v:val="VT0(15):26"/>
			</v:userDefs>
			<v:textBlock v:margins="rect(2,2,2,2)" v:tabSpace="42.5197"/>
			<v:textRect cx="12.7559" cy="487.35" width="25.52" height="25.5118"/>
			<path d="M0 487.35 A12.7559 12.7559 0 0 1 25.51 487.35 A12.7559 12.7559 0 1 1 0 487.35 Z" class="st10"/>
			<text x="10.44" y="489.75" class="st6" v:langID="1031"><v:paragraph v:horizAlign="1"/><v:tabList/>A</text>		</g>
		<g id="shape2982-84" v:mID="2982" v:groupContext="shape" v:layerMember="0;1" transform="translate(595.329,-214.974)">
			<title>On-page reference.2982</title>
			<desc>B</desc>
			<v:userDefs>
				<v:ud v:nameU="visVersion" v:prompt="" v:val="VT0(15):26"/>
			</v:userDefs>
			<v:textBlock v:margins="rect(2,2,2,2)" v:tabSpace="42.5197"/>
			<v:textRect cx="12.7559" cy="487.35" width="25.52" height="25.5118"/>
			<path d="M0 487.35 A12.7559 12.7559 0 0 1 25.51 487.35 A12.7559 12.7559 0 1 1 0 487.35 Z" class="st1"/>
			<text x="10.58" y="489.75" class="st2" v:langID="1031"><v:paragraph v:horizAlign="1"/><v:tabList/>B</text>		</g>
		<g id="shape2983-87" v:mID="2983" v:groupContext="shape" transform="translate(287.924,643.812) rotate(-140.194)">
			<title>Sheet.2983</title>
			<path d="M0 500.11 L27.67 500.11" class="st7"/>
		</g>
		<g id="shape2984-90" v:mID="2984" v:groupContext="shape" transform="translate(182.134,-52.7939) rotate(-51.3402)">
			<title>Sheet.2984</title>
			<path d="M0 500.11 L22.69 500.11" class="st7"/>
		</g>
		<g id="shape2987-93" v:mID="2987" v:groupContext="shape" transform="translate(710.19,628.221) rotate(149.036)">
			<title>Sheet.2987</title>
			<path d="M0 500.11 L33.06 500.11" class="st7"/>
		</g>
		<g id="shape2988-96" v:mID="2988" v:groupContext="shape" transform="translate(523.825,712.514) rotate(-172.763)">
			<title>Sheet.2988</title>
			<path d="M0 500.11 L135.01 500.11" class="st7"/>
		</g>
		<g id="shape2990-99" v:mID="2990" v:groupContext="shape" v:layerMember="0;1" transform="translate(27.4941,-171.037)">
			<title>On-page reference.2990</title>
			<desc>A</desc>
			<v:userDefs>
				<v:ud v:nameU="visVersion" v:prompt="" v:val="VT0(15):26"/>
			</v:userDefs>
			<v:textBlock v:margins="rect(2,2,2,2)" v:tabSpace="42.5197"/>
			<v:textRect cx="12.7559" cy="487.35" width="25.52" height="25.5118"/>
			<path d="M0 487.35 A12.7559 12.7559 0 0 1 25.51 487.35 A12.7559 12.7559 0 1 1 0 487.35 Z" class="st1"/>
			<text x="10.44" y="489.75" class="st2" v:langID="1031"><v:paragraph v:horizAlign="1"/><v:tabList/>A</text>		</g>
		<g id="shape2991-102" v:mID="2991" v:groupContext="shape" v:layerMember="0;1" transform="translate(62.9272,-171.037)">
			<title>On-page reference.2991</title>
			<desc>B</desc>
			<v:userDefs>
				<v:ud v:nameU="visVersion" v:prompt="" v:val="VT0(15):26"/>
			</v:userDefs>
			<v:textBlock v:margins="rect(2,2,2,2)" v:tabSpace="42.5197"/>
			<v:textRect cx="12.7559" cy="487.35" width="25.52" height="25.5118"/>
			<path d="M0 487.35 A12.7559 12.7559 0 0 1 25.51 487.35 A12.7559 12.7559 0 1 1 0 487.35 Z" class="st10"/>
			<text x="10.58" y="489.75" class="st6" v:langID="1031"><v:paragraph v:horizAlign="1"/><v:tabList/>B</text>		</g>
		<g id="shape2992-105" v:mID="2992" v:groupContext="shape" transform="translate(-342.891,577.24) rotate(-123.179)">
			<title>Sheet.2992</title>
			<path d="M0 500.11 L22.01 500.11" class="st7"/>
		</g>
		<g id="shape2993-108" v:mID="2993" v:groupContext="shape" transform="translate(-269.252,-89.2723) rotate(-38.2338)">
			<title>Sheet.2993</title>
			<path d="M0 500.11 L29.77 500.11" class="st7"/>
		</g>
		<g id="shape2995-111" v:mID="2995" v:groupContext="shape" v:layerMember="0;1" transform="translate(147.967,-171.037)">
			<title>On-page reference.2995</title>
			<desc>A</desc>
			<v:userDefs>
				<v:ud v:nameU="visVersion" v:prompt="" v:val="VT0(15):26"/>
			</v:userDefs>
			<v:textBlock v:margins="rect(2,2,2,2)" v:tabSpace="42.5197"/>
			<v:textRect cx="12.7559" cy="487.35" width="25.52" height="25.5118"/>
			<path d="M0 487.35 A12.7559 12.7559 0 0 1 25.51 487.35 A12.7559 12.7559 0 1 1 0 487.35 Z" class="st10"/>
			<text x="10.44" y="489.75" class="st6" v:langID="1031"><v:paragraph v:horizAlign="1"/><v:tabList/>A</text>		</g>
		<g id="shape2996-114" v:mID="2996" v:groupContext="shape" v:layerMember="0;1" transform="translate(183.4,-171.037)">
			<title>On-page reference.2996</title>
			<desc>B</desc>
			<v:userDefs>
				<v:ud v:nameU="visVersion" v:prompt="" v:val="VT0(15):26"/>
			</v:userDefs>
			<v:textBlock v:margins="rect(2,2,2,2)" v:tabSpace="42.5197"/>
			<v:textRect cx="12.7559" cy="487.35" width="25.52" height="25.5118"/>
			<path d="M0 487.35 A12.7559 12.7559 0 0 1 25.51 487.35 A12.7559 12.7559 0 1 1 0 487.35 Z" class="st1"/>
			<text x="10.58" y="489.75" class="st2" v:langID="1031"><v:paragraph v:horizAlign="1"/><v:tabList/>B</text>		</g>
		<g id="shape2997-117" v:mID="2997" v:groupContext="shape" transform="translate(-222.418,577.24) rotate(-123.179)">
			<title>Sheet.2997</title>
			<path d="M0 500.11 L22.01 500.11" class="st7"/>
		</g>
		<g id="shape2998-120" v:mID="2998" v:groupContext="shape" transform="translate(-148.779,-89.2723) rotate(-38.2338)">
			<title>Sheet.2998</title>
			<path d="M0 500.11 L29.77 500.11" class="st7"/>
		</g>
		<g id="shape2999-123" v:mID="2999" v:groupContext="shape" transform="translate(0.25,-146.156)">
			<title>Sheet.2999</title>
			<desc>If LEN is reached -&#62; assumed as dummy data</desc>
			<v:textBlock v:margins="rect(4,4,4,4)" v:tabSpace="42.5197"/>
			<v:textRect cx="35.9449" cy="490.106" width="71.89" height="20"/>
			<rect x="0" y="480.106" width="71.8898" height="20" class="st11"/>
			<text x="9.12" y="482.91" class="st12" v:langID="1031"><v:paragraph v:horizAlign="1"/><v:tabList/>If LEN is reached <v:newlineChar/><tspan
						x="13.01" dy="1.2em" class="st3">-</tspan>&#62; assumed as <tspan x="15.36" dy="1.2em" class="st3">dummy data</tspan></text>		</g>
		<g id="shape3000-128" v:mID="3000" v:groupContext="shape" transform="translate(163.242,-143.242)">
			<title>Sheet.3000</title>
			<desc>If LEN is reached -&#62; assumed as dummy data</desc>
			<v:textBlock v:margins="rect(4,4,4,4)" v:tabSpace="42.5197"/>
			<v:textRect cx="35.9449" cy="490.106" width="71.89" height="20"/>
			<rect x="0" y="480.106" width="71.8898" height="20" class="st11"/>
			<text x="9.12" y="482.91" class="st12" v:langID="1031"><v:paragraph v:horizAlign="1"/><v:tabList/>If LEN is reached <v:newlineChar/><tspan
						x="13.01" dy="1.2em" class="st3">-</tspan>&#62; assumed as <tspan x="15.36" dy="1.2em" class="st3">dummy data</tspan></text>		</g>
		<g id="shape3001-133" v:mID="3001" v:groupContext="shape" v:layerMember="0;1" transform="translate(246.667,-171.037)">
			<title>On-page reference.3001</title>
			<desc>A</desc>
			<v:userDefs>
				<v:ud v:nameU="visVersion" v:prompt="" v:val="VT0(15):26"/>
			</v:userDefs>
			<v:textBlock v:margins="rect(2,2,2,2)" v:tabSpace="42.5197"/>
			<v:textRect cx="12.7559" cy="487.35" width="25.52" height="25.5118"/>
			<path d="M0 487.35 A12.7559 12.7559 0 0 1 25.51 487.35 A12.7559 12.7559 0 1 1 0 487.35 Z" class="st1"/>
			<text x="10.44" y="489.75" class="st2" v:langID="1031"><v:paragraph v:horizAlign="1"/><v:tabList/>A</text>		</g>
		<g id="shape3002-136" v:mID="3002" v:groupContext="shape" v:layerMember="0;1" transform="translate(294.856,-171.037)">
			<title>On-page reference.3002</title>
			<desc>B</desc>
			<v:userDefs>
				<v:ud v:nameU="visVersion" v:prompt="" v:val="VT0(15):26"/>
			</v:userDefs>
			<v:textBlock v:margins="rect(2,2,2,2)" v:tabSpace="42.5197"/>
			<v:textRect cx="12.7559" cy="487.35" width="25.52" height="25.5118"/>
			<path d="M0 487.35 A12.7559 12.7559 0 0 1 25.51 487.35 A12.7559 12.7559 0 1 1 0 487.35 Z" class="st4"/>
			<text x="10.58" y="489.75" class="st2" v:langID="1031"><v:paragraph v:horizAlign="1"/><v:tabList/>B</text>		</g>
		<g id="shape3003-139" v:mID="3003" v:groupContext="shape" transform="translate(53.1935,734.112) rotate(-149.421)">
			<title>Sheet.3003</title>
			<path d="M0 500.11 L36.22 500.11" class="st7"/>
		</g>
		<g id="shape3004-142" v:mID="3004" v:groupContext="shape" transform="translate(-108.057,-35.6551) rotate(-47.2906)">
			<title>Sheet.3004</title>
			<path d="M0 500.11 L25.07 500.11" class="st7"/>
		</g>
		<g id="shape3005-145" v:mID="3005" v:groupContext="shape" transform="translate(221.549,-143.242)">
			<title>Sheet.3005</title>
			<desc>If LEN is reached -&#62; assumed as dummy data</desc>
			<v:textBlock v:margins="rect(4,4,4,4)" v:tabSpace="42.5197"/>
			<v:textRect cx="35.9449" cy="490.106" width="71.89" height="20"/>
			<rect x="0" y="480.106" width="71.8898" height="20" class="st11"/>
			<text x="9.12" y="482.91" class="st12" v:langID="1031"><v:paragraph v:horizAlign="1"/><v:tabList/>If LEN is reached <v:newlineChar/><tspan
						x="13.01" dy="1.2em" class="st3">-</tspan>&#62; assumed as <tspan x="15.36" dy="1.2em" class="st3">dummy data</tspan></text>		</g>
		<g id="shape3006-150" v:mID="3006" v:groupContext="shape" v:layerMember="0;1" transform="translate(284.935,-125.683)">
			<title>On-page reference.3006</title>
			<desc>A</desc>
			<v:userDefs>
				<v:ud v:nameU="visVersion" v:prompt="" v:val="VT0(15):26"/>
			</v:userDefs>
			<v:textBlock v:margins="rect(2,2,2,2)" v:tabSpace="42.5197"/>
			<v:textRect cx="12.7559" cy="487.35" width="25.52" height="25.5118"/>
			<path d="M0 487.35 A12.7559 12.7559 0 0 1 25.51 487.35 A12.7559 12.7559 0 1 1 0 487.35 Z" class="st10"/>
			<text x="10.44" y="489.75" class="st6" v:langID="1031"><v:paragraph v:horizAlign="1"/><v:tabList/>A</text>		</g>
		<g id="shape3007-153" v:mID="3007" v:groupContext="shape" v:layerMember="0;1" transform="translate(320.368,-125.683)">
			<title>On-page reference.3007</title>
			<desc>B</desc>
			<v:userDefs>
				<v:ud v:nameU="visVersion" v:prompt="" v:val="VT0(15):26"/>
			</v:userDefs>
			<v:textBlock v:margins="rect(2,2,2,2)" v:tabSpace="42.5197"/>
			<v:textRect cx="12.7559" cy="487.35" width="25.52" height="25.5118"/>
			<path d="M0 487.35 A12.7559 12.7559 0 0 1 25.51 487.35 A12.7559 12.7559 0 1 1 0 487.35 Z" class="st1"/>
			<text x="10.58" y="489.75" class="st2" v:langID="1031"><v:paragraph v:horizAlign="1"/><v:tabList/>B</text>		</g>
		<g id="shape3008-156" v:mID="3008" v:groupContext="shape" transform="translate(26.0885,743.671) rotate(-142.125)">
			<title>Sheet.3008</title>
			<path d="M0 500.11 L32.32 500.11" class="st7"/>
		</g>
		<g id="shape3009-159" v:mID="3009" v:groupContext="shape" transform="translate(-149.618,125.257) rotate(-63.435)">
			<title>Sheet.3009</title>
			<path d="M0 500.11 L22.18 500.11" class="st7"/>
		</g>
		<g id="shape3010-162" v:mID="3010" v:groupContext="shape" transform="translate(300.211,-98.5965)">
			<title>Sheet.3010</title>
			<desc>If LEN is reached -&#62; assumed as dummy data</desc>
			<v:textBlock v:margins="rect(4,4,4,4)" v:tabSpace="42.5197"/>
			<v:textRect cx="35.9449" cy="490.106" width="71.89" height="20"/>
			<rect x="0" y="480.106" width="71.8898" height="20" class="st11"/>
			<text x="9.12" y="482.91" class="st12" v:langID="1031"><v:paragraph v:horizAlign="1"/><v:tabList/>If LEN is reached <v:newlineChar/><tspan
						x="13.01" dy="1.2em" class="st3">-</tspan>&#62; assumed as <tspan x="15.36" dy="1.2em" class="st3">dummy data</tspan></text>		</g>
		<g id="shape3011-167" v:mID="3011" v:groupContext="shape" v:layerMember="0;1" transform="translate(362.888,-171.037)">
			<title>On-page reference.3011</title>
			<desc>AAD</desc>
			<v:userDefs>
				<v:ud v:nameU="visVersion" v:prompt="" v:val="VT0(15):26"/>
			</v:userDefs>
			<v:textBlock v:margins="rect(2,2,2,2)" v:tabSpace="42.5197"/>
			<v:textRect cx="12.7559" cy="487.35" width="25.52" height="25.5118"/>
			<path d="M0 487.35 A12.7559 12.7559 0 0 1 25.51 487.35 A12.7559 12.7559 0 1 1 0 487.35 Z" class="st1"/>
			<text x="5.67" y="489.75" class="st2" v:langID="1031"><v:paragraph v:horizAlign="1"/><v:tabList/>AAD</text>		</g>
		<g id="shape3012-170" v:mID="3012" v:groupContext="shape" v:layerMember="0;1" transform="translate(396.904,-171.037)">
			<title>On-page reference.3012</title>
			<desc>PC</desc>
			<v:userDefs>
				<v:ud v:nameU="visVersion" v:prompt="" v:val="VT0(15):26"/>
			</v:userDefs>
			<v:textBlock v:margins="rect(2,2,2,2)" v:tabSpace="42.5197"/>
			<v:textRect cx="12.7559" cy="487.35" width="25.52" height="25.5118"/>
			<path d="M0 487.35 A12.7559 12.7559 0 0 1 25.51 487.35 A12.7559 12.7559 0 1 1 0 487.35 Z" class="st8"/>
			<text x="8.56" y="489.75" class="st6" v:langID="1031"><v:paragraph v:horizAlign="1"/><v:tabList/>PC</text>		</g>
		<g id="shape3013-173" v:mID="3013" v:groupContext="shape" v:layerMember="0;1" transform="translate(432.337,-171.037)">
			<title>On-page reference.3013</title>
			<desc>AAD/PC</desc>
			<v:userDefs>
				<v:ud v:nameU="visVersion" v:prompt="" v:val="VT0(15):26"/>
			</v:userDefs>
			<v:textBlock v:margins="rect(2,2,2,2)" v:tabSpace="42.5197"/>
			<v:textRect cx="12.7559" cy="487.35" width="25.52" height="25.5118"/>
			<path d="M0 487.35 A12.7559 12.7559 0 0 1 25.51 487.35 A12.7559 12.7559 0 1 1 0 487.35 Z" class="st1"/>
			<text x="4.12" y="484.95" class="st2" v:langID="1031"><v:paragraph v:horizAlign="1"/><v:tabList/>AAD/<tspan x="8.56"
						dy="1.2em" class="st3">PC</tspan></text>		</g>
		<g id="shape3014-177" v:mID="3014" v:groupContext="shape" transform="translate(906.875,246.775) rotate(85.6013)">
			<title>Sheet.3014</title>
			<path d="M0 500.11 L18.48 500.11" class="st7"/>
		</g>
		<g id="shape3015-180" v:mID="3015" v:groupContext="shape" transform="translate(129.563,-131.817) rotate(-29.4759)">
			<title>Sheet.3015</title>
			<path d="M0 500.11 L37.45 500.11" class="st7"/>
		</g>
		<g id="shape3016-183" v:mID="3016" v:groupContext="shape" transform="translate(221.438,750.866) rotate(-153.435)">
			<title>Sheet.3016</title>
			<path d="M0 500.11 L41.2 500.11" class="st7"/>
		</g>
		<g id="shape3017-186" v:mID="3017" v:groupContext="shape" v:layerMember="0;1" transform="translate(467.77,-171.037)">
			<title>On-page reference.3017</title>
			<desc>AAD</desc>
			<v:userDefs>
				<v:ud v:nameU="visVersion" v:prompt="" v:val="VT0(15):26"/>
			</v:userDefs>
			<v:textBlock v:margins="rect(2,2,2,2)" v:tabSpace="42.5197"/>
			<v:textRect cx="12.7559" cy="487.35" width="25.52" height="25.5118"/>
			<path d="M0 487.35 A12.7559 12.7559 0 0 1 25.51 487.35 A12.7559 12.7559 0 1 1 0 487.35 Z" class="st5"/>
			<text x="5.67" y="489.75" class="st6" v:langID="1031"><v:paragraph v:horizAlign="1"/><v:tabList/>AAD</text>		</g>
		<g id="shape3018-189" v:mID="3018" v:groupContext="shape" v:layerMember="0;1" transform="translate(501.785,-171.037)">
			<title>On-page reference.3018</title>
			<desc>PC</desc>
			<v:userDefs>
				<v:ud v:nameU="visVersion" v:prompt="" v:val="VT0(15):26"/>
			</v:userDefs>
			<v:textBlock v:margins="rect(2,2,2,2)" v:tabSpace="42.5197"/>
			<v:textRect cx="12.7559" cy="487.35" width="25.52" height="25.5118"/>
			<path d="M0 487.35 A12.7559 12.7559 0 0 1 25.51 487.35 A12.7559 12.7559 0 1 1 0 487.35 Z" class="st8"/>
			<text x="8.56" y="489.75" class="st6" v:langID="1031"><v:paragraph v:horizAlign="1"/><v:tabList/>PC</text>		</g>
		<g id="shape3019-192" v:mID="3019" v:groupContext="shape" v:layerMember="0;1" transform="translate(538.636,-171.037)">
			<title>On-page reference.3019</title>
			<desc>AAD/PC</desc>
			<v:userDefs>
				<v:ud v:nameU="visVersion" v:prompt="" v:val="VT0(15):26"/>
			</v:userDefs>
			<v:textBlock v:margins="rect(2,2,2,2)" v:tabSpace="42.5197"/>
			<v:textRect cx="12.7559" cy="487.35" width="25.52" height="25.5118"/>
			<path d="M0 487.35 A12.7559 12.7559 0 0 1 25.51 487.35 A12.7559 12.7559 0 1 1 0 487.35 Z" class="st1"/>
			<text x="4.12" y="484.95" class="st2" v:langID="1031"><v:paragraph v:horizAlign="1"/><v:tabList/>AAD/<tspan x="8.56"
						dy="1.2em" class="st3">PC</tspan></text>		</g>
		<g id="shape3020-196" v:mID="3020" v:groupContext="shape" transform="translate(929.122,23.0274) rotate(58.3925)">
			<title>Sheet.3020</title>
			<path d="M0 500.11 L21.63 500.11" class="st7"/>
		</g>
		<g id="shape3021-199" v:mID="3021" v:groupContext="shape" transform="translate(165.162,-84.5824) rotate(-39.0939)">
			<title>Sheet.3021</title>
			<path d="M0 500.11 L29.22 500.11" class="st7"/>
		</g>
		<g id="shape3022-202" v:mID="3022" v:groupContext="shape" transform="translate(372.785,770.682) rotate(-159.075)">
			<title>Sheet.3022</title>
			<path d="M0 500.11 L51.59 500.11" class="st7"/>
		</g>
		<g id="shape3023-205" v:mID="3023" v:groupContext="shape" v:layerMember="0;1" transform="translate(579.738,-171.037)">
			<title>On-page reference.3023</title>
			<desc>AAD</desc>
			<v:userDefs>
				<v:ud v:nameU="visVersion" v:prompt="" v:val="VT0(15):26"/>
			</v:userDefs>
			<v:textBlock v:margins="rect(2,2,2,2)" v:tabSpace="42.5197"/>
			<v:textRect cx="12.7559" cy="487.35" width="25.52" height="25.5118"/>
			<path d="M0 487.35 A12.7559 12.7559 0 0 1 25.51 487.35 A12.7559 12.7559 0 1 1 0 487.35 Z" class="st5"/>
			<text x="5.67" y="489.75" class="st6" v:langID="1031"><v:paragraph v:horizAlign="1"/><v:tabList/>AAD</text>		</g>
		<g id="shape3024-208" v:mID="3024" v:groupContext="shape" v:layerMember="0;1" transform="translate(613.754,-171.037)">
			<title>On-page reference.3024</title>
			<desc>PC</desc>
			<v:userDefs>
				<v:ud v:nameU="visVersion" v:prompt="" v:val="VT0(15):26"/>
			</v:userDefs>
			<v:textBlock v:margins="rect(2,2,2,2)" v:tabSpace="42.5197"/>
			<v:textRect cx="12.7559" cy="487.35" width="25.52" height="25.5118"/>
			<path d="M0 487.35 A12.7559 12.7559 0 0 1 25.51 487.35 A12.7559 12.7559 0 1 1 0 487.35 Z" class="st1"/>
			<text x="8.56" y="489.75" class="st2" v:langID="1031"><v:paragraph v:horizAlign="1"/><v:tabList/>PC</text>		</g>
		<g id="shape3025-211" v:mID="3025" v:groupContext="shape" v:layerMember="0;1" transform="translate(650.604,-171.037)">
			<title>On-page reference.3025</title>
			<desc>AAD/PC</desc>
			<v:userDefs>
				<v:ud v:nameU="visVersion" v:prompt="" v:val="VT0(15):26"/>
			</v:userDefs>
			<v:textBlock v:margins="rect(2,2,2,2)" v:tabSpace="42.5197"/>
			<v:textRect cx="12.7559" cy="487.35" width="25.52" height="25.5118"/>
			<path d="M0 487.35 A12.7559 12.7559 0 0 1 25.51 487.35 A12.7559 12.7559 0 1 1 0 487.35 Z" class="st9"/>
			<text x="4.12" y="484.95" class="st6" v:langID="1031"><v:paragraph v:horizAlign="1"/><v:tabList/>AAD/<tspan x="8.56"
						dy="1.2em" class="st3">PC</tspan></text>		</g>
		<g id="shape3026-215" v:mID="3026" v:groupContext="shape" transform="translate(961.713,-68.4967) rotate(45)">
			<title>Sheet.3026</title>
			<path d="M0 500.11 L26.06 500.11" class="st7"/>
		</g>
		<g id="shape3027-218" v:mID="3027" v:groupContext="shape" transform="translate(210.72,-19.4827) rotate(-49.7636)">
			<title>Sheet.3027</title>
			<path d="M0 500.11 L24.14 500.11" class="st7"/>
		</g>
		<g id="shape3028-221" v:mID="3028" v:groupContext="shape" transform="translate(505.213,778) rotate(-161.565)">
			<title>Sheet.3028</title>
			<path d="M0 500.11 L58.27 500.11" class="st7"/>
		</g>
		<g id="shape3029-224" v:mID="3029" v:groupContext="shape" transform="translate(338.281,-150.329)">
			<title>Sheet.3029</title>
			<desc>Jump to 1</desc>
			<v:textBlock v:margins="rect(4,4,4,4)" v:tabSpace="42.5197"/>
			<v:textRect cx="35.9449" cy="490.106" width="71.89" height="20"/>
			<rect x="0" y="480.106" width="71.8898" height="20" class="st11"/>
			<text x="19.99" y="492.51" class="st13" v:langID="1031"><v:paragraph v:horizAlign="1"/><v:tabList/>Jump to 1</text>		</g>
		<g id="shape3030-227" v:mID="3030" v:groupContext="shape" transform="translate(51.5664,-192.848)">
			<title>Sheet.3030</title>
			<desc>1</desc>
			<v:textBlock v:margins="rect(4,4,4,4)" v:tabSpace="42.5197"/>
			<v:textRect cx="10.849" cy="490.106" width="21.7" height="20"/>
			<rect x="0" y="480.106" width="21.698" height="20" class="st11"/>
			<text x="8.82" y="492.51" class="st13" v:langID="1031"><v:paragraph v:horizAlign="1"/><v:tabList/>1</text>		</g>
		<g id="shape3031-230" v:mID="3031" v:groupContext="shape" transform="translate(409.148,-150.329)">
			<title>Sheet.3031</title>
			<desc>Jump to 2</desc>
			<v:textBlock v:margins="rect(4,4,4,4)" v:tabSpace="42.5197"/>
			<v:textRect cx="35.9449" cy="490.106" width="71.89" height="20"/>
			<rect x="0" y="480.106" width="71.8898" height="20" class="st11"/>
			<text x="19.99" y="492.51" class="st13" v:langID="1031"><v:paragraph v:horizAlign="1"/><v:tabList/>Jump to 2</text>		</g>
		<g id="shape3032-233" v:mID="3032" v:groupContext="shape" transform="translate(514.935,-150.329)">
			<title>Sheet.3032</title>
			<desc>Jump to 3</desc>
			<v:textBlock v:margins="rect(4,4,4,4)" v:tabSpace="42.5197"/>
			<v:textRect cx="35.9449" cy="490.106" width="71.89" height="20"/>
			<rect x="0" y="480.106" width="71.8898" height="20" class="st11"/>
			<text x="19.99" y="492.51" class="st13" v:langID="1031"><v:paragraph v:horizAlign="1"/><v:tabList/>Jump to 3</text>		</g>
		<g id="shape3033-236" v:mID="3033" v:groupContext="shape" transform="translate(593.4,-150.329)">
			<title>Sheet.3033</title>
			<desc>Jump to 4</desc>
			<v:textBlock v:margins="rect(4,4,4,4)" v:tabSpace="42.5197"/>
			<v:textRect cx="35.9449" cy="490.106" width="71.89" height="20"/>
			<rect x="0" y="480.106" width="71.8898" height="20" class="st11"/>
			<text x="19.99" y="492.51" class="st13" v:langID="1031"><v:paragraph v:horizAlign="1"/><v:tabList/>Jump to 4</text>		</g>
		<g id="shape3034-239" v:mID="3034" v:groupContext="shape" transform="translate(267.489,-192.848)">
			<title>Sheet.3034</title>
			<desc>2</desc>
			<v:textBlock v:margins="rect(4,4,4,4)" v:tabSpace="42.5197"/>
			<v:textRect cx="10.849" cy="490.106" width="21.7" height="20"/>
			<rect x="0" y="480.106" width="21.698" height="20" class="st11"/>
			<text x="8.82" y="492.51" class="st13" v:langID="1031"><v:paragraph v:horizAlign="1"/><v:tabList/>2</text>		</g>
		<g id="shape3035-242" v:mID="3035" v:groupContext="shape" transform="translate(299.439,-146.156)">
			<title>Sheet.3035</title>
			<desc>3</desc>
			<v:textBlock v:margins="rect(4,4,4,4)" v:tabSpace="42.5197"/>
			<v:textRect cx="10.849" cy="490.106" width="21.7" height="20"/>
			<rect x="0" y="480.106" width="21.698" height="20" class="st11"/>
			<text x="8.82" y="492.51" class="st13" v:langID="1031"><v:paragraph v:horizAlign="1"/><v:tabList/>3</text>		</g>
		<g id="shape3037-245" v:mID="3037" v:groupContext="shape" transform="translate(168.276,-188.675)">
			<title>Sheet.3037</title>
			<desc>4</desc>
			<v:textBlock v:margins="rect(4,4,4,4)" v:tabSpace="42.5197"/>
			<v:textRect cx="10.849" cy="490.106" width="21.7" height="20"/>
			<rect x="0" y="480.106" width="21.698" height="20" class="st11"/>
			<text x="8.82" y="492.51" class="st13" v:langID="1031"><v:paragraph v:horizAlign="1"/><v:tabList/>4</text>		</g>
		<g id="shape3038-248" v:mID="3038" v:groupContext="shape" transform="translate(136.427,-0.25)">
			<title>Sheet.3038</title>
			<desc>ORANGE: Abort with CHx_STAT_OPERR.ILSEQ because of the follow...</desc>
			<v:textBlock v:margins="rect(4,4,4,4)" v:tabSpace="42.5197"/>
			<v:textRect cx="242.61" cy="454.673" width="485.23" height="90.8661"/>
			<rect x="0" y="409.24" width="485.221" height="90.8661" class="st11"/>
			<text x="4" y="429.47" class="st14" v:langID="1031"><v:paragraph/><v:tabList/>ORANGE: <tspan class="st15">Abort with CHx_STAT_OPERR.ILSEQ because of the following reason:<v:newlineChar/></tspan><tspan
						x="4" dy="1.2em" class="st3">* Bold </tspan><tspan class="st15">-</tspan><tspan class="st15"> </tspan><tspan
						class="st15">No write to CHx_DATA_A after CHx_DATA_B allowed.<v:newlineChar/></tspan><tspan x="4"
						dy="1.2em" class="st3">* Dashed </tspan><tspan class="st15">-</tspan><tspan class="st15"> </tspan><tspan
						class="st15">No write to CHx_DATA_A for PC modes.<v:newlineChar/></tspan><tspan x="4" dy="1.2em"
						class="st3">* Dashed/Dotted</tspan><tspan class="st15"> </tspan><tspan class="st15">-</tspan><tspan
						class="st15"> </tspan><tspan class="st15">No write to CHx_DATA_B for AAD modes.<v:newlineChar/></tspan><tspan
						x="4" dy="1.2em" class="st3">* Normal </tspan><tspan class="st15">–</tspan><tspan class="st15"> </tspan><tspan
						class="st15">First write is not allowed to CHx_DATA_B for AAD/PC modes.</tspan></text>		</g>
		<g id="shape3040-269" v:mID="3040" v:groupContext="shape" transform="translate(541.787,579.757) rotate(155.976)">
			<title>Sheet.3040</title>
			<path d="M0 500.11 L125.02 500.11" class="st7"/>
		</g>
		<g id="shape3041-272" v:mID="3041" v:groupContext="shape" transform="translate(250.043,630.994) rotate(-156.071)">
			<title>Sheet.3041</title>
			<path d="M0 500.11 L125.49 500.11" class="st7"/>
		</g>
		<g id="shape3044-275" v:mID="3044" v:groupContext="shape" transform="translate(104.325,-333.203)">
			<title>Sheet.3044</title>
			<desc>Everything is allowed no abortion due to CHx_STAT_OPERR.ILSEQ.</desc>
			<v:textBlock v:margins="rect(4,4,4,4)" v:tabSpace="42.5197"/>
			<v:textRect cx="92.126" cy="473.327" width="184.26" height="53.5584"/>
			<rect x="0" y="446.548" width="184.252" height="53.5584" class="st11"/>
			<text x="4" y="469.73" class="st16" v:langID="1031"><v:paragraph/><v:tabList/>Everything is allowed no abortion <tspan
						x="4" dy="1.2em" class="st3">due to CHx_STAT_OPERR.ILSEQ.</tspan></text>		</g>
		<g id="shape3056-279" v:mID="3056" v:groupContext="shape" transform="translate(362.494,-464.423)">
			<title>Sheet.3056</title>
			<desc>AAD, PC, AAD/PC: modes configured by OPCTRL A,B: writes to CH...</desc>
			<v:textBlock v:margins="rect(4,4,4,4)" v:tabSpace="42.5197"/>
			<v:textRect cx="129.577" cy="482.39" width="259.16" height="35.4331"/>
			<rect x="0" y="464.673" width="259.154" height="35.4331" class="st11"/>
			<text x="4" y="478.79" class="st16" v:langID="1031"><v:paragraph/><v:tabList/>AAD, PC, AAD/PC: modes configured by OPCTRL<v:newlineChar/><tspan
						x="4" dy="1.2em" class="st3">A,B: writes to CHx_DATA_A or _B</tspan></text>		</g>
		<g id="shape3067-283" v:mID="3067" v:groupContext="shape" transform="translate(494.089,-304.974)">
			<title>Sheet.3067</title>
			<desc>Same as NO streaming tree but add for states in Bold Blue: Bl...</desc>
			<v:textBlock v:margins="rect(4,4,4,4)" v:tabSpace="42.5197"/>
			<v:textRect cx="113.386" cy="464.673" width="226.78" height="70.8661"/>
			<rect x="0" y="429.24" width="226.772" height="70.8661" class="st11"/>
			<text x="4" y="439.47" class="st16" v:langID="1031"><v:paragraph/><v:tabList/>Same as NO streaming tree but add for <tspan
						x="4" dy="1.2em" class="st3">states in Bold Blue:<v:newlineChar/></tspan><tspan x="4" dy="1.2em"
						class="st17">Blue </tspan><tspan class="st17">–</tspan><tspan class="st17"> </tspan><tspan class="st17">Bold:</tspan> CHx_CFG.DINCFG either equals <tspan
						x="4" dy="1.2em" class="st3">to 01B or 10B is set and data is written to </tspan><tspan x="4" dy="1.2em"
						class="st3">CHx_DATA_B while CHx_LEN_AAD.FINAL=0.</tspan></text>		</g>
		<g id="shape3070-293" v:mID="3070" v:groupContext="shape" v:layerMember="0;1" transform="translate(326.597,-428.033)">
			<title>On-page reference.3070</title>
			<desc>Split Input FIFO mode</desc>
			<v:userDefs>
				<v:ud v:nameU="visVersion" v:prompt="" v:val="VT0(15):26"/>
			</v:userDefs>
			<v:textBlock v:margins="rect(2,2,2,2)" v:tabSpace="42.5197"/>
			<v:textRect cx="19.9665" cy="480.14" width="39.94" height="39.9331"/>
			<path d="M0 480.14 A19.9665 19.9665 0 0 1 39.93 480.14 A19.9665 19.9665 0 1 1 0 480.14 Z" class="st1"/>
			<text x="3.29" y="477.74" class="st2" v:langID="1031"><v:paragraph v:horizAlign="1"/><v:tabList/>Split Input <tspan
						x="2.33" dy="1.2em" class="st3">FIFO mode</tspan></text>		</g>
		<g id="shape3071-297" v:mID="3071" v:groupContext="shape" v:layerMember="0;1" transform="translate(176.484,-428.033)">
			<title>On-page reference.3071</title>
			<desc>NO Split Input FIFO mode</desc>
			<v:userDefs>
				<v:ud v:nameU="visVersion" v:prompt="" v:val="VT0(15):26"/>
			</v:userDefs>
			<v:textBlock v:margins="rect(2,2,2,2)" v:tabSpace="42.5197"/>
			<v:textRect cx="19.9665" cy="480.14" width="39.94" height="39.9331"/>
			<path d="M0 480.14 A19.9665 19.9665 0 0 1 39.93 480.14 A19.9665 19.9665 0 1 1 0 480.14 Z" class="st1"/>
			<text x="6.72" y="472.94" class="st2" v:langID="1031"><v:paragraph v:horizAlign="1"/><v:tabList/>NO Split <tspan
						x="3.08" dy="1.2em" class="st3">Input FIFO </tspan><tspan x="10.57" dy="1.2em" class="st3">mode</tspan></text>		</g>
		<g id="shape3072-302" v:mID="3072" v:groupContext="shape" transform="translate(456.831,465.43) rotate(157.38)">
			<title>Sheet.3072</title>
			<path d="M0 500.11 L73.7 500.11" class="st7"/>
		</g>
		<g id="shape3073-305" v:mID="3073" v:groupContext="shape" transform="translate(183.313,504.851) rotate(-160.948)">
			<title>Sheet.3073</title>
			<path d="M0 500.11 L86.84 500.11" class="st7"/>
		</g>
		<g id="shape3074-308" v:mID="3074" v:groupContext="shape" v:layerMember="0;1" transform="translate(196.451,-377.134)">
			<title>On-page reference.3074</title>
			<desc>streaming</desc>
			<v:userDefs>
				<v:ud v:nameU="visVersion" v:prompt="" v:val="VT0(15):26"/>
			</v:userDefs>
			<v:textBlock v:margins="rect(2,2,2,2)" v:tabSpace="42.5197"/>
			<v:textRect cx="19.9665" cy="480.14" width="39.94" height="39.9331"/>
			<path d="M0 480.14 A19.9665 19.9665 0 0 1 39.93 480.14 A19.9665 19.9665 0 1 1 0 480.14 Z" class="st1"/>
			<text x="3.66" y="482.54" class="st2" v:langID="1031"><v:paragraph v:horizAlign="1"/><v:tabList/>streaming</text>		</g>
		<g id="shape3075-311" v:mID="3075" v:groupContext="shape" v:layerMember="0;1" transform="translate(148.138,-377.134)">
			<title>On-page reference.3075</title>
			<desc>NO streaming</desc>
			<v:userDefs>
				<v:ud v:nameU="visVersion" v:prompt="" v:val="VT0(15):26"/>
			</v:userDefs>
			<v:textBlock v:margins="rect(2,2,2,2)" v:tabSpace="42.5197"/>
			<v:textRect cx="19.9665" cy="480.14" width="39.94" height="39.9331"/>
			<path d="M0 480.14 A19.9665 19.9665 0 0 1 39.93 480.14 A19.9665 19.9665 0 1 1 0 480.14 Z" class="st1"/>
			<text x="14.74" y="477.74" class="st2" v:langID="1031"><v:paragraph v:horizAlign="1"/><v:tabList/>NO <tspan x="3.66"
						dy="1.2em" class="st3">streaming</tspan></text>		</g>
		<g id="shape3078-315" v:mID="3078" v:groupContext="shape" transform="translate(-12.3397,-383.379) rotate(-21.15)">
			<title>Sheet.3078</title>
			<path d="M0 500.11 L30.39 500.11" class="st7"/>
		</g>
		<g id="shape3079-318" v:mID="3079" v:groupContext="shape" transform="translate(-24.3389,521.38) rotate(-151.222)">
			<title>Sheet.3079</title>
			<path d="M0 500.11 L22.78 500.11" class="st7"/>
		</g>
		<g id="shape3080-321" v:mID="3080" v:groupContext="shape" v:layerMember="0;1" transform="translate(502.468,-377.134)">
			<title>On-page reference.3080</title>
			<desc>streaming</desc>
			<v:userDefs>
				<v:ud v:nameU="visVersion" v:prompt="" v:val="VT0(15):26"/>
			</v:userDefs>
			<v:textBlock v:margins="rect(2,2,2,2)" v:tabSpace="42.5197"/>
			<v:textRect cx="19.9665" cy="480.14" width="39.94" height="39.9331"/>
			<path d="M0 480.14 A19.9665 19.9665 0 0 1 39.93 480.14 A19.9665 19.9665 0 1 1 0 480.14 Z" class="st1"/>
			<text x="3.66" y="482.54" class="st2" v:langID="1031"><v:paragraph v:horizAlign="1"/><v:tabList/>streaming</text>		</g>
		<g id="shape3081-324" v:mID="3081" v:groupContext="shape" v:layerMember="0;1" transform="translate(318.217,-377.134)">
			<title>On-page reference.3081</title>
			<desc>NO streaming</desc>
			<v:userDefs>
				<v:ud v:nameU="visVersion" v:prompt="" v:val="VT0(15):26"/>
			</v:userDefs>
			<v:textBlock v:margins="rect(2,2,2,2)" v:tabSpace="42.5197"/>
			<v:textRect cx="19.9665" cy="480.14" width="39.94" height="39.9331"/>
			<path d="M0 480.14 A19.9665 19.9665 0 0 1 39.93 480.14 A19.9665 19.9665 0 1 1 0 480.14 Z" class="st1"/>
			<text x="14.74" y="477.74" class="st2" v:langID="1031"><v:paragraph v:horizAlign="1"/><v:tabList/>NO <tspan x="3.66"
						dy="1.2em" class="st3">streaming</tspan></text>		</g>
		<g id="shape3082-328" v:mID="3082" v:groupContext="shape" transform="translate(-59.1873,-220.61) rotate(-52.6148)">
			<title>Sheet.3082</title>
			<path d="M0 500.11 L13.8 500.11" class="st7"/>
		</g>
		<g id="shape3083-331" v:mID="3083" v:groupContext="shape" transform="translate(491.311,582.176) rotate(-176.432)">
			<title>Sheet.3083</title>
			<path d="M0 500.11 L176.21 500.11" class="st7"/>
		</g>
	</g>
</svg>
