<?xml version="1.0" encoding="UTF-8" standalone="no"?>
<!DOCTYPE svg PUBLIC "-//W3C//DTD SVG 1.1//EN" "http://www.w3.org/Graphics/SVG/1.1/DTD/svg11.dtd">
<!-- Generated by Microsoft Visio, SVG Export TC4xx_TUC_AltFailureRep.svg Page-29 -->
<svg xmlns="http://www.w3.org/2000/svg" xmlns:xlink="http://www.w3.org/1999/xlink" xmlns:ev="http://www.w3.org/2001/xml-events"
		width="7.71654in" height="4.33071in" viewBox="0 0 555.591 311.811" xml:space="preserve" color-interpolation-filters="sRGB"
		class="st14">
	<style type="text/css">
	<![CDATA[
		.st1 {fill:#d9d9d9;stroke:none;stroke-linecap:round;stroke-linejoin:round;stroke-width:0.75}
		.st2 {fill:#ffcc99;stroke:none;stroke-linecap:round;stroke-linejoin:round;stroke-width:0.75}
		.st3 {stroke:none;stroke-linecap:round;stroke-linejoin:round;stroke-width:0.75}
		.st4 {fill:#000000;font-family:Verdana;font-size:0.722351em}
		.st5 {fill:#000000;font-family:Calibri;font-size:0.821136em}
		.st6 {fill:#99ccff;stroke:none;stroke-linecap:round;stroke-linejoin:round;stroke-width:0.75}
		.st7 {stroke:#99ccff;stroke-linecap:round;stroke-linejoin:round;stroke-width:0.444942}
		.st8 {stroke:#00b050;stroke-linecap:round;stroke-linejoin:round;stroke-width:0.593257}
		.st9 {fill:#00b050;font-family:Calibri;font-size:0.543297em}
		.st10 {fill:#00b050;stroke:#00b050;stroke-linecap:round;stroke-linejoin:round;stroke-width:0.00926963}
		.st11 {fill:#00b050;stroke:#00b050;stroke-linecap:round;stroke-linejoin:round;stroke-width:0.00463482}
		.st12 {fill:#000000;font-family:Calibri;font-size:0.617386em}
		.st13 {fill:#5b9bd5;stroke:#5b9bd5;stroke-linecap:round;stroke-linejoin:round;stroke-width:0.0185393}
		.st14 {fill:none;fill-rule:evenodd;font-size:12px;overflow:visible;stroke-linecap:square;stroke-miterlimit:3}
	]]>
	</style>

	<g>
		<title>AltFailReport</title>
		<g id="shape3-1" transform="translate(271.576,-132.348)">
			<title>Sheet.3</title>
			<path d="M0 262.99 C0 257.6 4.4 253.21 9.8 253.21 L93.84 253.21 C99.24 253.21 103.62 257.6 103.62 262.99 L103.62 302.05
						 C103.62 307.44 99.24 311.81 93.84 311.81 L9.8 311.81 C4.4 311.81 -0 307.44 0 302.05 L0 262.99 Z"
					class="st1"/>
		</g>
		<g id="shape4-3" transform="translate(279.296,-145.313)">
			<title>Sheet.4</title>
			<path d="M0 276.84 L0 311.81 L87.74 311.81 L87.74 276.84 L0 276.84 L0 276.84 Z" class="st2"/>
		</g>
		<g id="shape5-5" transform="translate(313.317,-156.014)">
			<title>Sheet.5</title>
			<desc>SMU</desc>
			<path d="M26.02 301.41 L0 301.41 L0 311.81 L26.02 311.81 L26.02 301.41" class="st3"/>
			<text x="3.22" y="309.21" class="st4">SMU</text>		</g>
		<g id="shape6-9" transform="translate(313.573,-119.518)">
			<title>Sheet.6</title>
			<desc>SMU</desc>
			<path d="M26.02 301.41 L0 301.41 L0 311.81 L26.02 311.81 L26.02 301.41" class="st3"/>
			<text x="3.22" y="309.21" class="st4">SMU</text>		</g>
		<g id="shape7-13" transform="translate(164.392,-131.533)">
			<title>Sheet.7</title>
			<path d="M0 262.3 C0 256.83 4.44 252.39 9.93 252.39 L53.69 252.39 C59.18 252.39 63.61 256.83 63.61 262.3 L63.61 301.91
						 C63.61 307.38 59.18 311.81 53.69 311.81 L9.93 311.81 C4.44 311.81 0 307.38 0 301.91 L0 262.3 Z"
					class="st1"/>
		</g>
		<g id="shape8-15" transform="translate(182.538,-118.379)">
			<title>Sheet.8</title>
			<desc>PORTS</desc>
			<path d="M37.25 301.41 L0 301.41 L0 311.81 L37.25 311.81 L37.25 301.41" class="st3"/>
			<text x="3.96" y="309.21" class="st4">PORTS</text>		</g>
		<g id="shape9-19" transform="translate(172.705,-144.869)">
			<title>Sheet.9</title>
			<path d="M0 276.84 L0 311.81 L45.65 311.81 L45.65 276.84 L0 276.84 L0 276.84 Z" class="st2"/>
		</g>
		<g id="shape10-21" transform="translate(183.075,-155.121)">
			<title>Sheet.10</title>
			<desc>FSP Tx</desc>
			<path d="M31.83 299.98 L0 299.98 L0 311.81 L31.83 311.81 L31.83 299.98" class="st3"/>
			<text x="3.19" y="308.85" class="st5">FSP Tx</text>		</g>
		<g id="shape11-25" transform="translate(72.7953,-145.387)">
			<title>Sheet.11</title>
			<path d="M0 277.73 L0 311.81 L53.59 311.81 L53.59 277.73 L0 277.73 L0 277.73 Z" class="st6"/>
		</g>
		<g id="shape12-27" transform="translate(72.7953,-145.387)">
			<title>Sheet.12</title>
			<path d="M0 277.73 L53.59 277.73 L53.59 311.81 L0 311.81 L0 277.73" class="st7"/>
		</g>
		<g id="shape13-30" transform="translate(81.6366,-165.375)">
			<title>Sheet.13</title>
			<desc>Package</desc>
			<path d="M44.74 301.41 L0 301.41 L0 311.81 L44.74 311.81 L44.74 301.41" class="st3"/>
			<text x="4.44" y="309.21" class="st4">Package</text>		</g>
		<g id="shape14-34" transform="translate(18.3124,-154.796)">
			<title>Sheet.14</title>
			<path d="M0 304.48 C0 300.43 3.29 297.14 7.35 297.14 L35.26 297.14 C39.32 297.14 42.61 300.43 42.61 304.48 C42.61 308.53
						 39.32 311.81 35.26 311.81 L7.35 311.81 C3.29 311.81 0 308.53 0 304.48" class="st8"/>
		</g>
		<g id="shape15-37" transform="translate(23.3262,-157.382)">
			<title>Sheet.15</title>
			<desc>FSP Monitor</desc>
			<path d="M39.26 303.98 L0 303.98 L0 311.81 L39.26 311.81 L39.26 303.98" class="st3"/>
			<text x="3.3" y="309.85" class="st9">FSP Monitor</text>		</g>
		<g id="shape16-41" transform="translate(126.425,-159.743)">
			<title>Sheet.16</title>
			<path d="M46.34 309.77 L42.48 309.77 L42.48 308.8 L46.34 308.8 L46.34 309.77 ZM39.58 309.77 L35.72 309.77 L35.72 308.8
						 L39.58 308.8 L39.58 309.77 ZM32.83 309.77 L28.97 309.77 L28.97 308.8 L32.83 308.8 L32.83 309.77 ZM26.07
						 309.77 L22.69 309.77 L22.69 309.16 L23.17 309.65 L22.33 309.65 L22.33 308.68 L23.65 308.68 L23.65 309.28
						 L23.17 308.8 L26.07 308.8 L26.07 309.77 ZM19.44 309.65 L15.58 309.65 L15.58 308.68 L19.44 308.68 L19.44
						 309.65 ZM12.68 309.65 L8.82 309.65 L8.82 308.68 L12.68 308.68 L12.68 309.65 ZM5.93 309.65 L2.07 309.65 L2.07
						 308.68 L5.93 308.68 L5.93 309.65 ZM4.43 311.75 L0 309.16 L4.43 306.59 C4.66 306.46 4.95 306.53 5.08 306.77
						 C5.22 307 5.14 307.29 4.92 307.42 L1.21 309.58 L1.21 308.76 L4.92 310.91 L4.92 310.91 C5.14 311.04 5.22
						 311.34 5.08 311.57 C4.95 311.8 4.66 311.88 4.43 311.75 Z" class="st10"/>
		</g>
		<g id="shape17-43" transform="translate(60.956,-159.469)">
			<title>Sheet.17</title>
			<path d="M0.96 309.67 L65.45 309.37 L65.44 308.41 L0.96 308.7 L0.96 309.67 ZM4.41 306.59 L0 309.19 L4.44 311.75 C4.67
						 311.88 4.96 311.8 5.1 311.57 C5.23 311.34 5.15 311.04 4.92 310.91 L1.2 308.77 L1.2 309.6 L4.9 307.42 C5.14
						 307.29 5.21 306.99 5.08 306.76 C4.94 306.53 4.64 306.46 4.41 306.59 Z" class="st11"/>
		</g>
		<g id="shape18-45" transform="translate(218.392,-159.687)">
			<title>Sheet.18</title>
			<path d="M60.95 308.26 L57.09 308.29 L57.09 309.26 L60.95 309.22 L60.95 308.26 ZM54.2 308.31 L50.34 308.34 L50.34 309.3
						 L54.2 309.27 L54.2 308.31 ZM47.44 308.37 L43.58 308.4 L43.59 309.36 L47.44 309.33 L47.44 308.37 ZM40.69
						 308.41 L36.83 308.44 L36.84 309.4 L40.7 309.38 L40.69 308.41 ZM33.93 308.47 L30.07 308.5 L30.08 309.46 L33.94
						 309.43 L33.93 308.47 ZM27.18 308.52 L23.32 308.54 L23.33 309.51 L27.19 309.48 L27.18 308.52 ZM20.42 308.57
						 L16.56 308.6 L16.57 309.56 L20.43 309.53 L20.42 308.57 ZM13.67 308.62 L9.81 308.65 L9.82 309.61 L13.68 309.58
						 L13.67 308.62 ZM6.91 308.67 L3.05 308.7 L3.06 309.66 L6.92 309.64 L6.91 308.67 ZM4.41 306.6 L0 309.2 L4.44
						 311.75 L4.44 311.75 C4.68 311.88 4.97 311.8 5.1 311.57 C5.24 311.34 5.16 311.04 4.93 310.91 L1.2 308.78
						 L1.21 309.61 L4.9 307.42 L4.9 307.42 C5.13 307.28 5.21 306.99 5.07 306.77 C4.94 306.53 4.64 306.46 4.41
						 306.6 Z" class="st10"/>
		</g>
		<g id="shape19-47" transform="translate(432.946,-132.793)">
			<title>Sheet.19</title>
			<path d="M0 262.99 C0 257.6 4.4 253.21 9.8 253.21 L93.92 253.21 C99.32 253.21 103.7 257.6 103.7 262.99 L103.7 302.05
						 C103.7 307.44 99.32 311.81 93.92 311.81 L9.8 311.81 C4.4 311.81 0 307.44 0 302.05 L0 262.99 Z" class="st1"/>
		</g>
		<g id="shape20-49" transform="translate(440.295,-145.239)">
			<title>Sheet.20</title>
			<path d="M0 276.32 L0 311.81 L88.55 311.81 L88.55 276.32 L0 276.32 L0 276.32 Z" class="st2"/>
		</g>
		<g id="shape21-51" transform="translate(440.504,-161.404)">
			<title>Sheet.21</title>
			<desc>Hardware Safety</desc>
			<path d="M90.87 301.41 L0 301.41 L0 311.81 L90.87 311.81 L90.87 301.41" class="st3"/>
			<text x="8.98" y="309.21" class="st4">Hardware Safety </text>		</g>
		<g id="shape22-55" transform="translate(452.083,-151.032)">
			<title>Sheet.22</title>
			<desc>mechanism</desc>
			<path d="M60.56 301.41 L0 301.41 L0 311.81 L60.56 311.81 L60.56 301.41" class="st3"/>
			<text x="5.48" y="309.21" class="st4">mechanism</text>		</g>
		<g id="shape23-59" transform="translate(440.262,-117.956)">
			<title>Sheet.23</title>
			<desc>MCU</desc>
			<path d="M29.67 301.41 L0 301.41 L0 311.81 L29.67 311.81 L29.67 301.41" class="st3"/>
			<text x="4.98" y="309.21" class="st4">MCU </text>		</g>
		<g id="shape24-63" transform="translate(460.913,-117.956)">
			<title>Sheet.24</title>
			<desc>functional</desc>
			<path d="M56.07 301.41 L0 301.41 L0 311.81 L56.07 311.81 L56.07 301.41" class="st3"/>
			<text x="6.71" y="309.21" class="st4">functional </text>		</g>
		<g id="shape25-67" transform="translate(508.551,-117.956)">
			<title>Sheet.25</title>
			<desc>block</desc>
			<path d="M29.6 301.41 L0 301.41 L0 311.81 L29.6 311.81 L29.6 301.41" class="st3"/>
			<text x="3.46" y="309.21" class="st4">block</text>		</g>
		<g id="shape26-71" transform="translate(385.929,-164.421)">
			<title>Sheet.26</title>
			<desc>CCF Alarm</desc>
			<path d="M31.83 302.92 L0 302.92 L0 311.81 L31.83 311.81 L31.83 302.92" class="st3"/>
			<text x="0.4" y="309.59" class="st12">CCF Alarm</text>		</g>
		<g id="shape27-75" transform="translate(233.273,-165.285)">
			<title>Sheet.27</title>
			<desc>FSP output</desc>
			<path d="M39.72 302.92 L0 302.92 L0 311.81 L39.72 311.81 L39.72 302.92" class="st3"/>
			<text x="3.43" y="309.59" class="st12">FSP output</text>		</g>
		<g id="shape28-79" transform="translate(367.07,-160.401)">
			<title>Sheet.28</title>
			<path d="M73.26 309.71 L0.96 309.65 L0.96 308.69 L73.26 308.75 L73.26 309.71 ZM4.44 311.75 L0 309.15 L4.44 306.6 C4.66
						 306.45 4.95 306.54 5.1 306.77 C5.23 306.99 5.16 307.28 4.92 307.41 L1.21 309.58 L1.21 308.75 L4.92 310.91
						 C5.14 311.04 5.23 311.34 5.08 311.56 C4.95 311.8 4.66 311.88 4.44 311.75 Z" class="st13"/>
		</g>
	</g>
</svg>
