<?xml version="1.0" encoding="UTF-8" standalone="no"?>
<!DOCTYPE svg PUBLIC "-//W3C//DTD SVG 1.1//EN" "http://www.w3.org/Graphics/SVG/1.1/DTD/svg11.dtd">
<!-- Generated by Microsoft Visio, SVG Export CS_Msg_Auth.svg Page-1 -->
<svg xmlns="http://www.w3.org/2000/svg" xmlns:xlink="http://www.w3.org/1999/xlink" xmlns:ev="http://www.w3.org/2001/xml-events"
		width="6.85294in" height="3.84113in" viewBox="0 0 493.411 276.561" xml:space="preserve" color-interpolation-filters="sRGB"
		class="st18">
	<style type="text/css">
	<![CDATA[
		.st1 {fill:#bfbfbf;stroke:none;stroke-linecap:round;stroke-linejoin:round;stroke-width:0.75}
		.st2 {fill:#000000;font-family:Calibri;font-size:0.499992em;font-weight:bold}
		.st3 {fill:none;stroke:#000000;stroke-dasharray:5.25,3.75;stroke-linecap:round;stroke-linejoin:round;stroke-width:0.75}
		.st4 {fill:#000000;font-family:Calibri;font-size:0.499992em}
		.st5 {baseline-shift:32.4949%;font-size:0.649897em}
		.st6 {font-size:1em}
		.st7 {fill:#9dc3e6;stroke:none;stroke-linecap:round;stroke-linejoin:round;stroke-width:0.75}
		.st8 {marker-end:url(#mrkr1-32);marker-start:url(#mrkr1-30);stroke:#000000;stroke-linecap:round;stroke-linejoin:round;stroke-width:1}
		.st9 {fill:#000000;fill-opacity:1;stroke:#000000;stroke-opacity:1;stroke-width:0.28409090909091}
		.st10 {marker-end:url(#mrkr1-32);stroke:#000000;stroke-linecap:round;stroke-linejoin:round;stroke-width:1}
		.st11 {stroke:#000000;stroke-dasharray:1,2;stroke-linecap:round;stroke-linejoin:round;stroke-width:1}
		.st12 {marker-start:url(#mrkr1-72);stroke:#ff0000;stroke-linecap:round;stroke-linejoin:round;stroke-width:1}
		.st13 {fill:#ff0000;fill-opacity:1;stroke:#ff0000;stroke-opacity:1;stroke-width:0.28409090909091}
		.st14 {fill:#ffc000;stroke:none;stroke-linecap:round;stroke-linejoin:round;stroke-width:0.75}
		.st15 {stroke:#000000;stroke-dasharray:0.75,1.5;stroke-linecap:round;stroke-linejoin:round;stroke-width:0.75}
		.st16 {fill:none;stroke:none;stroke-linecap:round;stroke-linejoin:round;stroke-width:0.75}
		.st17 {stroke:#000000;stroke-linecap:round;stroke-linejoin:round;stroke-width:1}
		.st18 {fill:none;fill-rule:evenodd;font-size:12px;overflow:visible;stroke-linecap:square;stroke-miterlimit:3}
	]]>
	</style>

	<defs id="Markers">
		<g id="lend1">
			<path d="M 1 -1 L 0 0 L 1 1 " style="stroke-linecap:round;stroke-linejoin:round;fill:none"/>
		</g>
		<marker id="mrkr1-30" class="st9" orient="auto" markerUnits="strokeWidth" overflow="visible">
			<use xlink:href="#lend1" transform="scale(3.52) "/>
		</marker>
		<marker id="mrkr1-32" class="st9" orient="auto" markerUnits="strokeWidth" overflow="visible">
			<use xlink:href="#lend1" transform="scale(-3.52,-3.52) "/>
		</marker>
		<marker id="mrkr1-72" class="st13" orient="auto" markerUnits="strokeWidth" overflow="visible">
			<use xlink:href="#lend1" transform="scale(3.52) "/>
		</marker>
	</defs>
	<g>
		<title>Page-1</title>
		<g id="shape109-1" transform="translate(428.296,-46.1545)">
			<title>Sheet.109</title>
			<desc>External device</desc>
			<rect x="0" y="102.23" width="64.7404" height="174.331" class="st1"/>
			<text x="4" y="111.63" class="st2">External device</text>		</g>
		<g id="shape110-4" transform="translate(0.375,-0.375)">
			<title>Sheet.110</title>
			<desc>AURIXTM TC4xx MCU</desc>
			<path d="M0 276.56 L372.56 276.56 L372.56 0.75 L0 0.75 L0 276.56 Z" class="st3"/>
			<text x="4" y="10.15" class="st4">AURIX<tspan dy="-0.234em" class="st5">TM</tspan><tspan dy="0.152em" class="st6"> </tspan>TC4xx MCU</text>		</g>
		<g id="shape111-9" transform="translate(358.538,-24.8947)">
			<title>Sheet.111</title>
			<desc>Package</desc>
			<path d="M0 276.56 L0 56.88 L28.79 56.88 L28.79 276.56 L0 276.56 Z" class="st7"/>
			<text x="4.44" y="66.28" class="st4">Package</text>		</g>
		<g id="shape112-12" transform="translate(138.706,-117.021)">
			<title>Sheet.112</title>
			<desc>SRI</desc>
			<path d="M0 138.51 L0 276.56 L22.44 276.56 L22.44 138.51 L0 138.51 L0 138.51 Z" class="st1"/>
			<text x="4" y="147.91" class="st4">SRI</text>		</g>
		<g id="shape118-15" transform="translate(204.186,-222.561)">
			<title>Sheet.118</title>
			<desc>GETH</desc>
			<path d="M0 240.37 L0 276.56 L53.4 276.56 L53.4 240.37 L0 240.37 L0 240.37 Z" class="st1"/>
			<text x="4" y="249.77" class="st4">GETH</text>		</g>
		<g id="shape119-18" transform="translate(204.186,-179.288)">
			<title>Sheet.119</title>
			<desc>LETH</desc>
			<path d="M0 240.37 L0 276.56 L53.4 276.56 L53.4 240.37 L0 240.37 L0 240.37 Z" class="st1"/>
			<text x="4" y="249.77" class="st4">LETH</text>		</g>
		<g id="shape120-21" transform="translate(202.485,-31.2222)">
			<title>Sheet.120</title>
			<desc>MCMCAN</desc>
			<path d="M0 240.37 L0 276.56 L53.4 276.56 L53.4 240.37 L0 240.37 L0 240.37 Z" class="st1"/>
			<text x="4" y="249.77" class="st4">MCMCAN</text>		</g>
		<g id="shape123-24" transform="translate(255.887,-61.7451)">
			<title>Sheet.123</title>
			<path d="M0 276.56 L172.41 276.56" class="st8"/>
		</g>
		<g id="shape126-33" transform="translate(246.706,-145.367)">
			<title>Sheet.126</title>
			<path d="M0 276.56 L181.59 276.56" class="st10"/>
		</g>
		<g id="shape127-38" transform="translate(296.312,-194.973)">
			<title>Sheet.127</title>
			<path d="M0 276.56 L131.98 276.56" class="st10"/>
		</g>
		<g id="shape128-43" transform="translate(5.76083,-53.2411)">
			<title>Sheet.128</title>
			<desc>CPU</desc>
			<path d="M0 178.17 L0 276.56 L64.74 276.56 L64.74 178.17 L0 178.17 L0 178.17 Z" class="st1"/>
			<text x="4" y="187.57" class="st4">CPU</text>		</g>
		<g id="shape129-46" transform="translate(278.345,-46.1545)">
			<title>Sheet.129</title>
			<desc>PORTS</desc>
			<path d="M0 159.25 L0 276.56 L39.23 276.56 L39.23 159.25 L0 159.25 L0 159.25 Z" class="st1"/>
			<text x="4" y="168.65" class="st4">PORTS</text>		</g>
		<g id="shape130-49" transform="translate(275.052,-222.561)">
			<title>Sheet.130</title>
			<desc>HSPHY</desc>
			<path d="M0 240.37 L0 276.56 L39.23 276.56 L39.23 240.37 L0 240.37 L0 240.37 Z" class="st1"/>
			<text x="4" y="249.77" class="st4">HSPHY</text>		</g>
		<g id="shape131-52" transform="translate(572.873,36.2333) rotate(90)">
			<title>Sheet.131</title>
			<path d="M0 276.56 L17.77 276.56" class="st11"/>
		</g>
		<g id="shape132-55" transform="translate(278.345,-145.367)">
			<title>Sheet.132</title>
			<path d="M0 276.56 L39.23 276.56" class="st11"/>
		</g>
		<g id="shape134-58" transform="translate(278.345,-61.7451)">
			<title>Sheet.134</title>
			<path d="M0 276.56 L39.23 276.56" class="st11"/>
		</g>
		<g id="shape135-61" transform="translate(138.706,-17.8081)">
			<title>Sheet.135</title>
			<desc>FPI</desc>
			<path d="M0 191.52 L0 276.56 L22.44 276.56 L22.44 191.52 L0 191.52 L0 191.52 Z" class="st1"/>
			<text x="4" y="200.92" class="st4">FPI</text>		</g>
		<g id="shape137-64" transform="translate(77.0834,-240.328)">
			<title>Sheet.137</title>
			<desc>IR</desc>
			<rect x="0" y="249.996" width="39.2286" height="26.5648" class="st1"/>
			<text x="4" y="259.4" class="st4">IR</text>		</g>
		<g id="shape138-67" transform="translate(364.527,36.2333) rotate(90)">
			<title>Sheet.138</title>
			<path d="M0 276.56 L24.09 276.56" class="st12"/>
		</g>
		<g id="shape140-73" transform="translate(22.9969,-165.522)">
			<title>Sheet.140</title>
			<desc>CSS</desc>
			<path d="M0 225.85 L0 276.56 L73.3 276.56 L73.3 225.85 L0 225.85 L0 225.85 Z" class="st14"/>
			<text x="4" y="235.25" class="st4">CSS</text>		</g>
		<g id="shape141-76" transform="translate(161.145,-241.151)">
			<title>Sheet.141</title>
			<path d="M0 276.56 L42.04 276.56" class="st8"/>
		</g>
		<g id="shape142-83" transform="translate(160.441,-194.973)">
			<title>Sheet.142</title>
			<path d="M0 276.56 L42.04 276.56" class="st8"/>
		</g>
		<g id="shape144-90" transform="translate(96.3001,-184.903)">
			<title>Sheet.144</title>
			<path d="M0 276.56 L42.41 276.56" class="st8"/>
		</g>
		<g id="shape145-97" transform="translate(70.5013,-145.367)">
			<title>Sheet.145</title>
			<path d="M0 276.56 L68.2 276.56" class="st8"/>
		</g>
		<g id="shape146-104" transform="translate(70.5013,-60.3278)">
			<title>Sheet.146</title>
			<path d="M0 276.56 L68.2 276.56" class="st8"/>
		</g>
		<g id="shape147-111" transform="translate(161.145,-60.3278)">
			<title>Sheet.147</title>
			<path d="M0 276.56 L41.34 276.56" class="st8"/>
		</g>
		<g id="shape151-118" transform="translate(138.706,-88.6742)">
			<title>Dynamic connector.95</title>
			<path d="M0 276.56 L11.34 276.56 L11.34 304.91 L22.44 304.91" class="st15"/>
		</g>
		<g id="shape152-121" transform="translate(138.706,-125.525)">
			<title>Dynamic connector.96</title>
			<path d="M0 276.56 L11.34 276.56 L11.34 160.93 L22.44 160.93" class="st15"/>
		</g>
		<g id="shape153-124" transform="translate(150.044,368.219) rotate(180)">
			<title>Sheet.153</title>
			<path d="M0 276.56 L11.34 276.56" class="st15"/>
		</g>
		<g id="shape154-127" transform="translate(160.441,358.149) rotate(180)">
			<title>Sheet.154</title>
			<path d="M0 276.56 L10.4 276.56" class="st15"/>
		</g>
		<g id="shape155-130" transform="translate(138.706,-145.367)">
			<title>Sheet.155</title>
			<path d="M0 276.56 L11.34 276.56" class="st15"/>
		</g>
		<g id="shape156-133" transform="translate(190.013,-0.375)">
			<title>Sheet.156</title>
			<desc>Bus master and slave interfaces of each FB are not shown for ...</desc>
			<rect x="0" y="267.617" width="194.996" height="8.9437" class="st16"/>
			<text x="4" y="273.89" class="st4">Bus master and slave interfaces of each FB are not shown for simplicity</text>		</g>
		<g id="shape161-136" transform="translate(572.873,54.0002) rotate(90)">
			<title>Sheet.161</title>
			<path d="M0 276.56 L27.59 276.56" class="st17"/>
		</g>
		<g id="shape163-139" transform="translate(84.9074,-78.753)">
			<title>Sheet.163</title>
			<desc>DMA</desc>
			<path d="M0 219.87 L0 276.56 L28.79 276.56 L28.79 219.87 L0 219.87 L0 219.87 Z" class="st1"/>
			<text x="4" y="229.27" class="st4">DMA</text>		</g>
		<g id="shape164-142" transform="translate(138.706,-60.3278)">
			<title>Sheet.164</title>
			<path d="M0 276.56 L11.34 276.56" class="st15"/>
		</g>
		<g id="shape165-145" transform="translate(138.706,427.597) rotate(180)">
			<title>Sheet.165</title>
			<path d="M0 276.56 L25 276.56" class="st8"/>
		</g>
		<g id="shape166-152" transform="translate(138.706,464.448) rotate(180)">
			<title>Sheet.166</title>
			<path d="M0 276.56 L25 276.56" class="st8"/>
		</g>
		<g id="shape167-159" transform="translate(275.052,312.794) rotate(180)">
			<title>Sheet.167</title>
			<path d="M0 276.56 L17.46 276.56" class="st10"/>
		</g>
		<g id="shape168-164" transform="translate(275.052,-240.328)">
			<title>Sheet.168</title>
			<path d="M0 276.56 L21.26 276.56" class="st11"/>
		</g>
		<g id="shape169-167" transform="translate(-29.8553,131.194) rotate(-90)">
			<title>Sheet.169</title>
			<path d="M0 276.56 L33.92 276.56" class="st10"/>
		</g>
	</g>
</svg>
