<?xml version="1.0" encoding="UTF-8" standalone="no"?>
<!DOCTYPE svg PUBLIC "-//W3C//DTD SVG 1.1//EN" "http://www.w3.org/Graphics/SVG/1.1/DTD/svg11.dtd">
<!-- Generated by Microsoft Visio, SVG Export Alarm_aggregation.svg Page-1 -->
<svg xmlns="http://www.w3.org/2000/svg" xmlns:xlink="http://www.w3.org/1999/xlink" xmlns:ev="http://www.w3.org/2001/xml-events"
		xmlns:v="http://schemas.microsoft.com/visio/2003/SVGExtensions/" width="4.6364in" height="4.60801in"
		viewBox="0 0 333.821 331.777" xml:space="preserve" color-interpolation-filters="sRGB" class="st9">
	<v:documentProperties v:langID="1031" v:viewMarkup="false"/>

	<style type="text/css">
	<![CDATA[
		.st1 {stroke:#000000;stroke-linecap:round;stroke-linejoin:round;stroke-width:0.25}
		.st2 {fill:#ffffff;stroke:#000000;stroke-linecap:round;stroke-linejoin:round;stroke-width:0.25}
		.st3 {stroke:#000000;stroke-linecap:round;stroke-linejoin:round;stroke-width:1}
		.st4 {fill:none;stroke:none;stroke-linecap:round;stroke-linejoin:round;stroke-width:0.75}
		.st5 {fill:#000000;font-family:Source Sans Pro;font-size:0.833336em}
		.st6 {stroke:#000000;stroke-linecap:round;stroke-linejoin:round;stroke-width:0.75}
		.st7 {fill:#ffffff;stroke:#a5a5a5;stroke-dasharray:1.75,1.25;stroke-linecap:round;stroke-linejoin:round;stroke-width:0.25}
		.st8 {font-size:1em}
		.st9 {fill:none;fill-rule:evenodd;font-size:12px;overflow:visible;stroke-linecap:square;stroke-miterlimit:3}
	]]>
	</style>

	<g v:mID="0" v:index="1" v:groupContext="foregroundPage">
		<title>Page-1</title>
		<v:pageProperties v:drawingScale="0.0393701" v:pageScale="0.0393701" v:drawingUnits="24" v:shadowOffsetX="8.50394"
				v:shadowOffsetY="-8.50394"/>
		<v:layer v:name="Electrical" v:index="0"/>
		<v:layer v:name="Diagram" v:index="1"/>
		<g id="group249-1" transform="translate(163.367,-181.542)" v:mID="249" v:groupContext="group" v:layerMember="0">
			<v:custProps>
				<v:cp v:nameU="Input" v:lbl="No. of Inputs" v:type="1" v:format="2;3;4;5" v:sortKey="2" v:langID="1033"
						v:val="VT4(2)"/>
				<v:cp v:nameU="Type" v:lbl="Gate Type" v:type="1" v:format="OR;AND;NOR;NAND;XOR;XNOR" v:sortKey="1" v:langID="1033"
						v:val="VT4(AND)"/>
				<v:cp v:nameU="Out" v:lbl="No. of Outputs" v:type="1" v:format="1;2;3" v:sortKey="3" v:langID="1033" v:val="VT4(1)"/>
				<v:cp v:nameU="Type" v:lbl="" v:prompt="" v:type="0" v:format="" v:sortKey="" v:invis="false" v:ask="false"
						v:langID="2057" v:cal="0" v:val="VT4(OR)"/>
			</v:custProps>
			<v:userDefs>
				<v:ud v:nameU="SubType" v:val="VT0(1):26"/>
				<v:ud v:nameU="Margin" v:val="VT0(0.059055118110236):24"/>
				<v:ud v:nameU="LimitHeight" v:val="VT0(0):26"/>
				<v:ud v:nameU="visVersion" v:val="VT0(15):26"/>
				<v:ud v:nameU="visDescription" v:val="VT4(Represents various forms of logic gates.)"/>
				<v:ud v:nameU="SubType" v:prompt="" v:val="VT0(0):26"/>
			</v:userDefs>
			<title>Logic gate 2</title>
			<g id="shape250-2" v:mID="250" v:groupContext="shape" v:layerMember="0" transform="translate(0,-4.25197)">
				<title>Sheet.250</title>
				<path d="M0 323.27 L17.01 323.27" class="st1"/>
				<path d="M0 331.78 L17.01 331.78" class="st1"/>
				<path d="M34.02 327.52 L17.01 327.52" class="st1"/>
			</g>
			<g id="shape251-7" v:mID="251" v:groupContext="shape" v:layerMember="0" transform="translate(5.95276,0)">
				<title>Sheet.251</title>
				<v:userDefs>
					<v:ud v:nameU="X" v:val="VT0(0.029527559055118):24"/>
				</v:userDefs>
				<path d="M22.11 323.27 A22.9017 14.031 0 0 1 6.63 331.78 L0 331.78 A32.8126 20.103 -180 0 0 0 314.77 L6.63 314.77
							 A22.5949 13.8431 0 0 1 22.11 323.27 Z" class="st2"/>
			</g>
			<g id="shape252-9" v:mID="252" v:groupContext="shape" v:layerMember="0" transform="translate(0,2.83465)">
				<title>Sheet.252</title>
			</g>
			<g id="shape253-11" v:mID="253" v:groupContext="shape" v:layerMember="0" transform="translate(23.0309,-2.13696)">
				<title>Sheet.253</title>
			</g>
			<g id="shape254-13" v:mID="254" v:groupContext="shape" v:layerMember="0" transform="translate(5.95276,0)">
				<title>Sheet.254</title>
			</g>
		</g>
		<g id="shape255-15" v:mID="255" v:groupContext="shape" transform="translate(495.144,5.66749) rotate(90)">
			<title>Sheet.255</title>
			<path d="M0 331.78 L255.12 331.78" class="st3"/>
		</g>
		<g id="group256-18" transform="translate(14.5482,-322.212)" v:mID="256" v:groupContext="group">
			<title>SigIn</title>
			<g id="shape257-19" v:mID="257" v:groupContext="shape" v:layerMember="1" transform="translate(-5.59552E-14,-0.0440162)">
				<title>Sheet.257</title>
				<desc>LLI S2L alarm</desc>
				<v:textBlock v:margins="rect(4,4,4,4)" v:tabSpace="42.5197"/>
				<v:textRect cx="49.6063" cy="328.255" width="99.22" height="7.0426"/>
				<rect x="0" y="324.734" width="99.2126" height="7.0426" class="st4"/>
				<text x="39.3" y="331.26" class="st5" v:langID="1031"><v:paragraph v:horizAlign="2"/><v:tabList/>LLI S2L alarm</text>			</g>
			<g id="group258-22" transform="translate(99.0354,-5.68434E-14)" v:mID="258" v:groupContext="group" v:layerMember="1">
				<title>Sheet.258</title>
				<g id="shape259-23" v:mID="259" v:groupContext="shape" v:layerMember="1">
					<title>Sheet.259</title>
					<path d="M0.06 324.69 L4.86 328.21 L0 331.78" class="st6"/>
				</g>
				<g id="shape260-26" v:mID="260" v:groupContext="shape" v:layerMember="1" transform="translate(2.40125,0)">
					<title>Sheet.260</title>
					<path d="M0.06 324.69 L4.86 328.21 L0 331.78" class="st6"/>
				</g>
			</g>
		</g>
		<g id="group263-29" transform="translate(14.5482,-308.038)" v:mID="263" v:groupContext="group">
			<title>SigIn.263</title>
			<g id="shape264-30" v:mID="264" v:groupContext="shape" v:layerMember="1" transform="translate(-5.59552E-14,-0.0440162)">
				<title>Sheet.264</title>
				<desc>LLI PPU LBU alarm</desc>
				<v:textBlock v:margins="rect(4,4,4,4)" v:tabSpace="42.5197"/>
				<v:textRect cx="49.6063" cy="328.255" width="99.22" height="7.0426"/>
				<rect x="0" y="324.734" width="99.2126" height="7.0426" class="st4"/>
				<text x="17.51" y="331.26" class="st5" v:langID="1031"><v:paragraph v:horizAlign="2"/><v:tabList/>LLI PPU LBU alarm</text>			</g>
			<g id="group265-33" transform="translate(99.0354,-5.68434E-14)" v:mID="265" v:groupContext="group" v:layerMember="1">
				<title>Sheet.265</title>
				<g id="shape266-34" v:mID="266" v:groupContext="shape" v:layerMember="1">
					<title>Sheet.266</title>
					<path d="M0.06 324.69 L4.86 328.21 L0 331.78" class="st6"/>
				</g>
				<g id="shape267-37" v:mID="267" v:groupContext="shape" v:layerMember="1" transform="translate(2.40125,0)">
					<title>Sheet.267</title>
					<path d="M0.06 324.69 L4.86 328.21 L0 331.78" class="st6"/>
				</g>
			</g>
		</g>
		<g id="group268-40" transform="translate(14.5482,-67.4478)" v:mID="268" v:groupContext="group">
			<title>SigIn.268</title>
			<g id="shape269-41" v:mID="269" v:groupContext="shape" v:layerMember="1" transform="translate(-5.59552E-14,-0.0440162)">
				<title>Sheet.269</title>
				<desc>TMADC alarm</desc>
				<v:textBlock v:margins="rect(4,4,4,4)" v:tabSpace="42.5197"/>
				<v:textRect cx="49.6063" cy="328.255" width="99.22" height="7.0426"/>
				<rect x="0" y="324.734" width="99.2126" height="7.0426" class="st4"/>
				<text x="38.89" y="331.26" class="st5" v:langID="1031"><v:paragraph v:horizAlign="2"/><v:tabList/>TMADC alarm</text>			</g>
			<g id="group270-44" transform="translate(99.0354,-5.68434E-14)" v:mID="270" v:groupContext="group" v:layerMember="1">
				<title>Sheet.270</title>
				<g id="shape271-45" v:mID="271" v:groupContext="shape" v:layerMember="1">
					<title>Sheet.271</title>
					<path d="M0.06 324.69 L4.86 328.21 L0 331.78" class="st6"/>
				</g>
				<g id="shape272-48" v:mID="272" v:groupContext="shape" v:layerMember="1" transform="translate(2.40125,0)">
					<title>Sheet.272</title>
					<path d="M0.06 324.69 L4.86 328.21 L0 331.78" class="st6"/>
				</g>
			</g>
		</g>
		<g id="group273-51" transform="translate(14.5482,-81.6211)" v:mID="273" v:groupContext="group">
			<title>SigIn.273</title>
			<g id="shape274-52" v:mID="274" v:groupContext="shape" v:layerMember="1" transform="translate(-5.59552E-14,-0.0440162)">
				<title>Sheet.274</title>
				<desc>eGTM wrapper alarm</desc>
				<v:textBlock v:margins="rect(4,4,4,4)" v:tabSpace="42.5197"/>
				<v:textRect cx="49.6063" cy="328.255" width="99.22" height="7.0426"/>
				<rect x="0" y="324.734" width="99.2126" height="7.0426" class="st4"/>
				<text x="7.84" y="331.26" class="st5" v:langID="1031"><v:paragraph v:horizAlign="2"/><v:tabList/>eGTM wrapper alarm</text>			</g>
			<g id="group275-55" transform="translate(99.0354,-5.68434E-14)" v:mID="275" v:groupContext="group" v:layerMember="1">
				<title>Sheet.275</title>
				<g id="shape276-56" v:mID="276" v:groupContext="shape" v:layerMember="1">
					<title>Sheet.276</title>
					<path d="M0.06 324.69 L4.86 328.21 L0 331.78" class="st6"/>
				</g>
				<g id="shape277-59" v:mID="277" v:groupContext="shape" v:layerMember="1" transform="translate(2.40125,0)">
					<title>Sheet.277</title>
					<path d="M0.06 324.69 L4.86 328.21 L0 331.78" class="st6"/>
				</g>
			</g>
		</g>
		<g id="group278-62" transform="translate(14.5482,-95.7943)" v:mID="278" v:groupContext="group">
			<title>SigIn.278</title>
			<g id="shape279-63" v:mID="279" v:groupContext="shape" v:layerMember="1" transform="translate(-5.59552E-14,-0.0440162)">
				<title>Sheet.279</title>
				<desc>eGTM alarm</desc>
				<v:textBlock v:margins="rect(4,4,4,4)" v:tabSpace="42.5197"/>
				<v:textRect cx="49.6063" cy="328.255" width="99.22" height="7.0426"/>
				<rect x="0" y="324.734" width="99.2126" height="7.0426" class="st4"/>
				<text x="45.06" y="331.26" class="st5" v:langID="1031"><v:paragraph v:horizAlign="2"/><v:tabList/>eGTM alarm</text>			</g>
			<g id="group280-66" transform="translate(99.0354,-5.68434E-14)" v:mID="280" v:groupContext="group" v:layerMember="1">
				<title>Sheet.280</title>
				<g id="shape281-67" v:mID="281" v:groupContext="shape" v:layerMember="1">
					<title>Sheet.281</title>
					<path d="M0.06 324.69 L4.86 328.21 L0 331.78" class="st6"/>
				</g>
				<g id="shape282-70" v:mID="282" v:groupContext="shape" v:layerMember="1" transform="translate(2.40125,0)">
					<title>Sheet.282</title>
					<path d="M0.06 324.69 L4.86 328.21 L0 331.78" class="st6"/>
				</g>
			</g>
		</g>
		<g id="group283-73" transform="translate(14.5482,-109.968)" v:mID="283" v:groupContext="group">
			<title>SigIn.283</title>
			<g id="shape284-74" v:mID="284" v:groupContext="shape" v:layerMember="1" transform="translate(-5.59552E-14,-0.0440162)">
				<title>Sheet.284</title>
				<desc>PPU SFRs alarm</desc>
				<v:textBlock v:margins="rect(4,4,4,4)" v:tabSpace="42.5197"/>
				<v:textRect cx="49.6063" cy="328.255" width="99.22" height="7.0426"/>
				<rect x="0" y="324.734" width="99.2126" height="7.0426" class="st4"/>
				<text x="28.89" y="331.26" class="st5" v:langID="1031"><v:paragraph v:horizAlign="2"/><v:tabList/>PPU SFRs alarm</text>			</g>
			<g id="group285-77" transform="translate(99.0354,-5.68434E-14)" v:mID="285" v:groupContext="group" v:layerMember="1">
				<title>Sheet.285</title>
				<g id="shape286-78" v:mID="286" v:groupContext="shape" v:layerMember="1">
					<title>Sheet.286</title>
					<path d="M0.06 324.69 L4.86 328.21 L0 331.78" class="st6"/>
				</g>
				<g id="shape287-81" v:mID="287" v:groupContext="shape" v:layerMember="1" transform="translate(2.40125,0)">
					<title>Sheet.287</title>
					<path d="M0.06 324.69 L4.86 328.21 L0 331.78" class="st6"/>
				</g>
			</g>
		</g>
		<g id="group288-84" transform="translate(14.5482,-124.141)" v:mID="288" v:groupContext="group">
			<title>SigIn.288</title>
			<g id="shape289-85" v:mID="289" v:groupContext="shape" v:layerMember="1" transform="translate(-5.59552E-14,-0.0440162)">
				<title>Sheet.289</title>
				<desc>Debug alarm</desc>
				<v:textBlock v:margins="rect(4,4,4,4)" v:tabSpace="42.5197"/>
				<v:textRect cx="49.6063" cy="328.255" width="99.22" height="7.0426"/>
				<rect x="0" y="324.734" width="99.2126" height="7.0426" class="st4"/>
				<text x="41.7" y="331.26" class="st5" v:langID="1031"><v:paragraph v:horizAlign="2"/><v:tabList/>Debug alarm</text>			</g>
			<g id="group290-88" transform="translate(99.0354,-5.68434E-14)" v:mID="290" v:groupContext="group" v:layerMember="1">
				<title>Sheet.290</title>
				<g id="shape291-89" v:mID="291" v:groupContext="shape" v:layerMember="1">
					<title>Sheet.291</title>
					<path d="M0.06 324.69 L4.86 328.21 L0 331.78" class="st6"/>
				</g>
				<g id="shape292-92" v:mID="292" v:groupContext="shape" v:layerMember="1" transform="translate(2.40125,0)">
					<title>Sheet.292</title>
					<path d="M0.06 324.69 L4.86 328.21 L0 331.78" class="st6"/>
				</g>
			</g>
		</g>
		<g id="group293-95" transform="translate(14.5482,-138.314)" v:mID="293" v:groupContext="group">
			<title>SigIn.293</title>
			<g id="shape294-96" v:mID="294" v:groupContext="shape" v:layerMember="1" transform="translate(-5.59552E-14,-0.0440162)">
				<title>Sheet.294</title>
				<desc>Safety Monitor alarm</desc>
				<v:textBlock v:margins="rect(4,4,4,4)" v:tabSpace="42.5197"/>
				<v:textRect cx="49.6063" cy="328.255" width="99.22" height="7.0426"/>
				<rect x="0" y="324.734" width="99.2126" height="7.0426" class="st4"/>
				<text x="7.62" y="331.26" class="st5" v:langID="1031"><v:paragraph v:horizAlign="2"/><v:tabList/>Safety Monitor alarm</text>			</g>
			<g id="group295-99" transform="translate(99.0354,-5.68434E-14)" v:mID="295" v:groupContext="group" v:layerMember="1">
				<title>Sheet.295</title>
				<g id="shape296-100" v:mID="296" v:groupContext="shape" v:layerMember="1">
					<title>Sheet.296</title>
					<path d="M0.06 324.69 L4.86 328.21 L0 331.78" class="st6"/>
				</g>
				<g id="shape297-103" v:mID="297" v:groupContext="shape" v:layerMember="1" transform="translate(2.40125,0)">
					<title>Sheet.297</title>
					<path d="M0.06 324.69 L4.86 328.21 L0 331.78" class="st6"/>
				</g>
			</g>
		</g>
		<g id="group298-106" transform="translate(14.5482,-10.0463)" v:mID="298" v:groupContext="group">
			<title>SigIn.298</title>
			<g id="shape299-107" v:mID="299" v:groupContext="shape" v:layerMember="1"
					transform="translate(-5.59552E-14,-0.0440162)">
				<title>Sheet.299</title>
				<desc>Slave STUDMI alarm</desc>
				<v:textBlock v:margins="rect(4,4,4,4)" v:tabSpace="42.5197"/>
				<v:textRect cx="49.6063" cy="328.255" width="99.22" height="7.0426"/>
				<rect x="0" y="324.734" width="99.2126" height="7.0426" class="st4"/>
				<text x="11.06" y="331.26" class="st5" v:langID="1031"><v:paragraph v:horizAlign="2"/><v:tabList/>Slave STUDMI alarm</text>			</g>
			<g id="group300-110" transform="translate(99.0354,-5.68434E-14)" v:mID="300" v:groupContext="group" v:layerMember="1">
				<title>Sheet.300</title>
				<g id="shape301-111" v:mID="301" v:groupContext="shape" v:layerMember="1">
					<title>Sheet.301</title>
					<path d="M0.06 324.69 L4.86 328.21 L0 331.78" class="st6"/>
				</g>
				<g id="shape302-114" v:mID="302" v:groupContext="shape" v:layerMember="1" transform="translate(2.40125,0)">
					<title>Sheet.302</title>
					<path d="M0.06 324.69 L4.86 328.21 L0 331.78" class="st6"/>
				</g>
			</g>
		</g>
		<g id="group303-117" transform="translate(14.5482,-166.66)" v:mID="303" v:groupContext="group">
			<title>SigIn.303</title>
			<g id="shape304-118" v:mID="304" v:groupContext="shape" v:layerMember="1"
					transform="translate(-5.59552E-14,-0.0440162)">
				<title>Sheet.304</title>
				<desc>Master S2L alarm</desc>
				<v:textBlock v:margins="rect(4,4,4,4)" v:tabSpace="42.5197"/>
				<v:textRect cx="49.6063" cy="328.255" width="99.22" height="7.0426"/>
				<rect x="0" y="324.734" width="99.2126" height="7.0426" class="st4"/>
				<text x="23.34" y="331.26" class="st5" v:langID="1031"><v:paragraph v:horizAlign="2"/><v:tabList/>Master S2L alarm</text>			</g>
			<g id="group305-121" transform="translate(99.0354,-5.68434E-14)" v:mID="305" v:groupContext="group" v:layerMember="1">
				<title>Sheet.305</title>
				<g id="shape306-122" v:mID="306" v:groupContext="shape" v:layerMember="1">
					<title>Sheet.306</title>
					<path d="M0.06 324.69 L4.86 328.21 L0 331.78" class="st6"/>
				</g>
				<g id="shape307-125" v:mID="307" v:groupContext="shape" v:layerMember="1" transform="translate(2.40125,0)">
					<title>Sheet.307</title>
					<path d="M0.06 324.69 L4.86 328.21 L0 331.78" class="st6"/>
				</g>
			</g>
		</g>
		<g id="group308-128" transform="translate(14.5482,-24.2195)" v:mID="308" v:groupContext="group">
			<title>SigIn.308</title>
			<g id="shape309-129" v:mID="309" v:groupContext="shape" v:layerMember="1"
					transform="translate(-5.59552E-14,-0.0440162)">
				<title>Sheet.309</title>
				<desc>PPU LBU alarm</desc>
				<v:textBlock v:margins="rect(4,4,4,4)" v:tabSpace="42.5197"/>
				<v:textRect cx="49.6063" cy="328.255" width="99.22" height="7.0426"/>
				<rect x="0" y="324.734" width="99.2126" height="7.0426" class="st4"/>
				<text x="31.86" y="331.26" class="st5" v:langID="1031"><v:paragraph v:horizAlign="2"/><v:tabList/>PPU LBU alarm</text>			</g>
			<g id="group310-132" transform="translate(99.0354,-5.68434E-14)" v:mID="310" v:groupContext="group" v:layerMember="1">
				<title>Sheet.310</title>
				<g id="shape311-133" v:mID="311" v:groupContext="shape" v:layerMember="1">
					<title>Sheet.311</title>
					<path d="M0.06 324.69 L4.86 328.21 L0 331.78" class="st6"/>
				</g>
				<g id="shape312-136" v:mID="312" v:groupContext="shape" v:layerMember="1" transform="translate(2.40125,0)">
					<title>Sheet.312</title>
					<path d="M0.06 324.69 L4.86 328.21 L0 331.78" class="st6"/>
				</g>
			</g>
		</g>
		<g id="group313-139" transform="translate(14.5482,-209.534)" v:mID="313" v:groupContext="group">
			<title>SigIn.313</title>
			<g id="shape314-140" v:mID="314" v:groupContext="shape" v:layerMember="1"
					transform="translate(-5.59552E-14,-0.0440162)">
				<title>Sheet.314</title>
				<desc>LLI TMADC</desc>
				<v:textBlock v:margins="rect(4,4,4,4)" v:tabSpace="42.5197"/>
				<v:textRect cx="49.6063" cy="328.255" width="99.22" height="7.0426"/>
				<rect x="0" y="324.734" width="99.2126" height="7.0426" class="st4"/>
				<text x="50.93" y="331.26" class="st5" v:langID="1031"><v:paragraph v:horizAlign="2"/><v:tabList/>LLI TMADC</text>			</g>
			<g id="group315-143" transform="translate(99.0354,-5.68434E-14)" v:mID="315" v:groupContext="group" v:layerMember="1">
				<title>Sheet.315</title>
				<g id="shape316-144" v:mID="316" v:groupContext="shape" v:layerMember="1">
					<title>Sheet.316</title>
					<path d="M0.06 324.69 L4.86 328.21 L0 331.78" class="st6"/>
				</g>
				<g id="shape317-147" v:mID="317" v:groupContext="shape" v:layerMember="1" transform="translate(2.40125,0)">
					<title>Sheet.317</title>
					<path d="M0.06 324.69 L4.86 328.21 L0 331.78" class="st6"/>
				</g>
			</g>
		</g>
		<g id="group318-150" transform="translate(14.5482,-223.708)" v:mID="318" v:groupContext="group">
			<title>SigIn.318</title>
			<g id="shape319-151" v:mID="319" v:groupContext="shape" v:layerMember="1"
					transform="translate(-5.59552E-14,-0.0440162)">
				<title>Sheet.319</title>
				<desc>LLI eGTM wrapper</desc>
				<v:textBlock v:margins="rect(4,4,4,4)" v:tabSpace="42.5197"/>
				<v:textRect cx="49.6063" cy="328.255" width="99.22" height="7.0426"/>
				<rect x="0" y="324.734" width="99.2126" height="7.0426" class="st4"/>
				<text x="19.88" y="331.26" class="st5" v:langID="1031"><v:paragraph v:horizAlign="2"/><v:tabList/>LLI eGTM wrapper</text>			</g>
			<g id="group320-154" transform="translate(99.0354,-5.68434E-14)" v:mID="320" v:groupContext="group" v:layerMember="1">
				<title>Sheet.320</title>
				<g id="shape321-155" v:mID="321" v:groupContext="shape" v:layerMember="1">
					<title>Sheet.321</title>
					<path d="M0.06 324.69 L4.86 328.21 L0 331.78" class="st6"/>
				</g>
				<g id="shape322-158" v:mID="322" v:groupContext="shape" v:layerMember="1" transform="translate(2.40125,0)">
					<title>Sheet.322</title>
					<path d="M0.06 324.69 L4.86 328.21 L0 331.78" class="st6"/>
				</g>
			</g>
		</g>
		<g id="group323-161" transform="translate(14.5482,-237.881)" v:mID="323" v:groupContext="group">
			<title>SigIn.323</title>
			<g id="shape324-162" v:mID="324" v:groupContext="shape" v:layerMember="1"
					transform="translate(-5.59552E-14,-0.0440162)">
				<title>Sheet.324</title>
				<desc>LLI eGTM</desc>
				<v:textBlock v:margins="rect(4,4,4,4)" v:tabSpace="42.5197"/>
				<v:textRect cx="49.6063" cy="328.255" width="99.22" height="7.0426"/>
				<rect x="0" y="324.734" width="99.2126" height="7.0426" class="st4"/>
				<text x="57.1" y="331.26" class="st5" v:langID="1031"><v:paragraph v:horizAlign="2"/><v:tabList/>LLI eGTM</text>			</g>
			<g id="group325-165" transform="translate(99.0354,-5.68434E-14)" v:mID="325" v:groupContext="group" v:layerMember="1">
				<title>Sheet.325</title>
				<g id="shape326-166" v:mID="326" v:groupContext="shape" v:layerMember="1">
					<title>Sheet.326</title>
					<path d="M0.06 324.69 L4.86 328.21 L0 331.78" class="st6"/>
				</g>
				<g id="shape327-169" v:mID="327" v:groupContext="shape" v:layerMember="1" transform="translate(2.40125,0)">
					<title>Sheet.327</title>
					<path d="M0.06 324.69 L4.86 328.21 L0 331.78" class="st6"/>
				</g>
			</g>
		</g>
		<g id="group328-172" transform="translate(14.5482,-252.054)" v:mID="328" v:groupContext="group">
			<title>SigIn.328</title>
			<g id="shape329-173" v:mID="329" v:groupContext="shape" v:layerMember="1"
					transform="translate(-5.59552E-14,-0.0440162)">
				<title>Sheet.329</title>
				<desc>LLI PPU SFRs</desc>
				<v:textBlock v:margins="rect(4,4,4,4)" v:tabSpace="42.5197"/>
				<v:textRect cx="49.6063" cy="328.255" width="99.22" height="7.0426"/>
				<rect x="0" y="324.734" width="99.2126" height="7.0426" class="st4"/>
				<text x="40.93" y="331.26" class="st5" v:langID="1031"><v:paragraph v:horizAlign="2"/><v:tabList/>LLI PPU SFRs</text>			</g>
			<g id="group330-176" transform="translate(99.0354,-5.68434E-14)" v:mID="330" v:groupContext="group" v:layerMember="1">
				<title>Sheet.330</title>
				<g id="shape331-177" v:mID="331" v:groupContext="shape" v:layerMember="1">
					<title>Sheet.331</title>
					<path d="M0.06 324.69 L4.86 328.21 L0 331.78" class="st6"/>
				</g>
				<g id="shape332-180" v:mID="332" v:groupContext="shape" v:layerMember="1" transform="translate(2.40125,0)">
					<title>Sheet.332</title>
					<path d="M0.06 324.69 L4.86 328.21 L0 331.78" class="st6"/>
				</g>
			</g>
		</g>
		<g id="group333-183" transform="translate(14.5482,-266.227)" v:mID="333" v:groupContext="group">
			<title>SigIn.333</title>
			<g id="shape334-184" v:mID="334" v:groupContext="shape" v:layerMember="1"
					transform="translate(-5.59552E-14,-0.0440162)">
				<title>Sheet.334</title>
				<desc>LLI Debug</desc>
				<v:textBlock v:margins="rect(4,4,4,4)" v:tabSpace="42.5197"/>
				<v:textRect cx="49.6063" cy="328.255" width="99.22" height="7.0426"/>
				<rect x="0" y="324.734" width="99.2126" height="7.0426" class="st4"/>
				<text x="53.74" y="331.26" class="st5" v:langID="1031"><v:paragraph v:horizAlign="2"/><v:tabList/>LLI Debug  </text>			</g>
			<g id="group335-187" transform="translate(99.0354,-5.68434E-14)" v:mID="335" v:groupContext="group" v:layerMember="1">
				<title>Sheet.335</title>
				<g id="shape336-188" v:mID="336" v:groupContext="shape" v:layerMember="1">
					<title>Sheet.336</title>
					<path d="M0.06 324.69 L4.86 328.21 L0 331.78" class="st6"/>
				</g>
				<g id="shape337-191" v:mID="337" v:groupContext="shape" v:layerMember="1" transform="translate(2.40125,0)">
					<title>Sheet.337</title>
					<path d="M0.06 324.69 L4.86 328.21 L0 331.78" class="st6"/>
				</g>
			</g>
		</g>
		<g id="group338-194" transform="translate(14.5482,-280.401)" v:mID="338" v:groupContext="group">
			<title>SigIn.338</title>
			<g id="shape339-195" v:mID="339" v:groupContext="shape" v:layerMember="1"
					transform="translate(-5.59552E-14,-0.0440162)">
				<title>Sheet.339</title>
				<desc>LLI Safety Monitors</desc>
				<v:textBlock v:margins="rect(4,4,4,4)" v:tabSpace="42.5197"/>
				<v:textRect cx="49.6063" cy="328.255" width="99.22" height="7.0426"/>
				<rect x="0" y="324.734" width="99.2126" height="7.0426" class="st4"/>
				<text x="15.47" y="331.26" class="st5" v:langID="1031"><v:paragraph v:horizAlign="2"/><v:tabList/>LLI Safety Monitors</text>			</g>
			<g id="group340-198" transform="translate(99.0354,-5.68434E-14)" v:mID="340" v:groupContext="group" v:layerMember="1">
				<title>Sheet.340</title>
				<g id="shape341-199" v:mID="341" v:groupContext="shape" v:layerMember="1">
					<title>Sheet.341</title>
					<path d="M0.06 324.69 L4.86 328.21 L0 331.78" class="st6"/>
				</g>
				<g id="shape342-202" v:mID="342" v:groupContext="shape" v:layerMember="1" transform="translate(2.40125,0)">
					<title>Sheet.342</title>
					<path d="M0.06 324.69 L4.86 328.21 L0 331.78" class="st6"/>
				</g>
			</g>
		</g>
		<g id="group343-205" transform="translate(14.5482,-294.574)" v:mID="343" v:groupContext="group">
			<title>SigIn.343</title>
			<g id="shape344-206" v:mID="344" v:groupContext="shape" v:layerMember="1"
					transform="translate(-5.59552E-14,-0.0440162)">
				<title>Sheet.344</title>
				<desc>LLI STUDMI</desc>
				<v:textBlock v:margins="rect(4,4,4,4)" v:tabSpace="42.5197"/>
				<v:textRect cx="49.6063" cy="328.255" width="99.22" height="7.0426"/>
				<rect x="0" y="324.734" width="99.2126" height="7.0426" class="st4"/>
				<text x="47.66" y="331.26" class="st5" v:langID="1031"><v:paragraph v:horizAlign="2"/><v:tabList/>LLI STUDMI</text>			</g>
			<g id="group345-209" transform="translate(99.0354,-5.68434E-14)" v:mID="345" v:groupContext="group" v:layerMember="1">
				<title>Sheet.345</title>
				<g id="shape346-210" v:mID="346" v:groupContext="shape" v:layerMember="1">
					<title>Sheet.346</title>
					<path d="M0.06 324.69 L4.86 328.21 L0 331.78" class="st6"/>
				</g>
				<g id="shape347-213" v:mID="347" v:groupContext="shape" v:layerMember="1" transform="translate(2.40125,0)">
					<title>Sheet.347</title>
					<path d="M0.06 324.69 L4.86 328.21 L0 331.78" class="st6"/>
				</g>
			</g>
		</g>
		<g id="group365-216" transform="translate(227.212,-186.503)" v:mID="365" v:groupContext="group">
			<title>SigOut</title>
			<g id="shape366-217" v:mID="366" v:groupContext="shape" v:layerMember="1">
				<title>Sheet.366</title>
				<path d="M0.06 324.69 L4.7 328.21 L0 331.78" class="st6"/>
			</g>
			<g id="shape367-220" v:mID="367" v:groupContext="shape" v:layerMember="1" transform="translate(2.32121,0)">
				<title>Sheet.367</title>
				<path d="M0.06 324.69 L4.7 328.21 L0 331.78" class="st6"/>
			</g>
			<g id="shape368-223" v:mID="368" v:groupContext="shape" v:layerMember="1" transform="translate(7.02165,-0.0440162)">
				<title>Sheet.368</title>
				<desc>Alarm to SMU</desc>
				<v:textBlock v:margins="rect(4,4,4,4)" v:tabSpace="42.5197"/>
				<v:textRect cx="49.6063" cy="328.255" width="99.22" height="7.0426"/>
				<rect x="0" y="324.734" width="99.2126" height="7.0426" class="st4"/>
				<text x="4" y="331.26" class="st5" v:langID="1031"><v:paragraph/><v:tabList/>Alarm to SMU</text>			</g>
		</g>
		<g id="shape370-226" v:mID="370" v:groupContext="shape" transform="translate(121.019,-71.0131) rotate(0.0296562)">
			<title>Sheet.370</title>
			<path d="M0 331.78 L42.52 331.78" class="st1"/>
		</g>
		<g id="shape371-229" v:mID="371" v:groupContext="shape" transform="translate(120.847,-85.1864)">
			<title>Sheet.371</title>
			<path d="M0 331.78 L42.52 331.78" class="st1"/>
		</g>
		<g id="shape372-232" v:mID="372" v:groupContext="shape" transform="translate(120.847,-99.3596)">
			<title>Sheet.372</title>
			<path d="M0 331.78 L42.52 331.78" class="st1"/>
		</g>
		<g id="shape373-235" v:mID="373" v:groupContext="shape" transform="translate(120.847,-113.533)">
			<title>Sheet.373</title>
			<path d="M0 331.78 L42.52 331.78" class="st1"/>
		</g>
		<g id="shape374-238" v:mID="374" v:groupContext="shape" transform="translate(121.019,-127.706) rotate(0.0296562)">
			<title>Sheet.374</title>
			<path d="M0 331.78 L42.52 331.78" class="st1"/>
		</g>
		<g id="shape375-241" v:mID="375" v:groupContext="shape" transform="translate(120.847,-141.879)">
			<title>Sheet.375</title>
			<path d="M0 331.78 L42.52 331.78" class="st1"/>
		</g>
		<g id="shape376-244" v:mID="376" v:groupContext="shape" transform="translate(120.847,-170.226)">
			<title>Sheet.376</title>
			<path d="M0 331.78 L42.52 331.78" class="st1"/>
		</g>
		<g id="shape377-247" v:mID="377" v:groupContext="shape" transform="translate(123.784,-213.087) rotate(0.507108)">
			<title>Sheet.377</title>
			<path d="M0 331.78 L42.52 331.78" class="st1"/>
		</g>
		<g id="shape378-250" v:mID="378" v:groupContext="shape" transform="translate(123.784,-227.26) rotate(0.507108)">
			<title>Sheet.378</title>
			<path d="M0 331.78 L42.52 331.78" class="st1"/>
		</g>
		<g id="shape379-253" v:mID="379" v:groupContext="shape" transform="translate(123.784,-241.433) rotate(0.507108)">
			<title>Sheet.379</title>
			<path d="M0 331.78 L42.52 331.78" class="st1"/>
		</g>
		<g id="shape380-256" v:mID="380" v:groupContext="shape" transform="translate(123.784,-255.606) rotate(0.507108)">
			<title>Sheet.380</title>
			<path d="M0 331.78 L42.52 331.78" class="st1"/>
		</g>
		<g id="shape381-259" v:mID="381" v:groupContext="shape" transform="translate(123.784,-269.78) rotate(0.507108)">
			<title>Sheet.381</title>
			<path d="M0 331.78 L42.52 331.78" class="st1"/>
		</g>
		<g id="shape382-262" v:mID="382" v:groupContext="shape" transform="translate(123.784,-283.953) rotate(0.507108)">
			<title>Sheet.382</title>
			<path d="M0 331.78 L42.52 331.78" class="st1"/>
		</g>
		<g id="shape383-265" v:mID="383" v:groupContext="shape" transform="translate(123.784,-298.126) rotate(0.507108)">
			<title>Sheet.383</title>
			<path d="M0 331.78 L42.52 331.78" class="st1"/>
		</g>
		<g id="shape384-268" v:mID="384" v:groupContext="shape" transform="translate(123.784,-311.591) rotate(0.507108)">
			<title>Sheet.384</title>
			<path d="M0 331.78 L42.52 331.78" class="st1"/>
		</g>
		<g id="shape385-271" v:mID="385" v:groupContext="shape" transform="translate(123.784,-325.764) rotate(0.507108)">
			<title>Sheet.385</title>
			<path d="M0 331.78 L42.52 331.78" class="st1"/>
		</g>
		<g id="shape386-274" v:mID="386" v:groupContext="shape" transform="translate(149.194,-0.125)">
			<title>Sheet.386</title>
			<desc>PPU</desc>
			<v:textBlock v:margins="rect(4,4,4,4)" v:tabSpace="42.5197"/>
			<v:textRect cx="14.1732" cy="310.517" width="28.35" height="42.5197"/>
			<path d="M0 331.78 L28.35 331.78 L28.35 289.26 L0 289.26 L0 331.78 Z" class="st7"/>
			<text x="5.29" y="313.52" class="st5" v:langID="2057"><v:paragraph v:horizAlign="1"/><v:tabList/>PPU</text>		</g>
		<g id="shape387-277" v:mID="387" v:groupContext="shape" transform="translate(112.813,-27.6875) rotate(-1.38764)">
			<title>Sheet.387</title>
			<path d="M0 331.78 L28.35 331.78" class="st1"/>
		</g>
		<g id="shape388-280" v:mID="388" v:groupContext="shape" transform="translate(120.847,-13.6116)">
			<title>Sheet.388</title>
			<path d="M0 331.78 L28.35 331.78" class="st1"/>
		</g>
		<g id="shape389-283" v:mID="389" v:groupContext="shape" transform="translate(197.171,-190.046) rotate(-0.036519)">
			<title>Sheet.389</title>
			<path d="M0 331.78 L34.53 331.78" class="st1"/>
		</g>
		<g id="group390-286" transform="translate(14.5482,-195.007)" v:mID="390" v:groupContext="group">
			<title>SigIn.390</title>
			<g id="shape391-287" v:mID="391" v:groupContext="shape" v:layerMember="1" transform="translate(-14.1732,-0.0440162)">
				<title>Sheet.391</title>
				<desc>LLI Default slave alarm</desc>
				<v:textBlock v:margins="rect(4,4,4,4)" v:tabSpace="42.5197"/>
				<v:textRect cx="56.6929" cy="328.255" width="113.39" height="7.0426"/>
				<rect x="0" y="324.734" width="113.386" height="7.0426" class="st4"/>
				<text x="14.8" y="331.26" class="st5" v:langID="2057"><v:paragraph v:horizAlign="2"/><v:tabList/>LLI Default slave <tspan
							class="st8" v:langID="1031">alarm</tspan></text>			</g>
			<g id="group392-291" transform="translate(99.0354,-5.68434E-14)" v:mID="392" v:groupContext="group" v:layerMember="1">
				<title>Sheet.392</title>
				<g id="shape393-292" v:mID="393" v:groupContext="shape" v:layerMember="1">
					<title>Sheet.393</title>
					<path d="M0.06 324.69 L4.86 328.21 L0 331.78" class="st6"/>
				</g>
				<g id="shape394-295" v:mID="394" v:groupContext="shape" v:layerMember="1" transform="translate(2.40125,0)">
					<title>Sheet.394</title>
					<path d="M0.06 324.69 L4.86 328.21 L0 331.78" class="st6"/>
				</g>
			</g>
		</g>
		<g id="shape395-298" v:mID="395" v:groupContext="shape" transform="translate(120.847,-198.572)">
			<title>Sheet.395</title>
			<path d="M0 331.78 L42.52 331.78" class="st1"/>
		</g>
	</g>
</svg>
