<?xml version="1.0" encoding="UTF-8" standalone="no"?>
<!DOCTYPE svg PUBLIC "-//W3C//DTD SVG 1.1//EN" "http://www.w3.org/Graphics/SVG/1.1/DTD/svg11.dtd">
<!-- Generated by Microsoft Visio, SVG Export PPU_RealTime.svg Page-1 -->
<svg xmlns="http://www.w3.org/2000/svg" xmlns:xlink="http://www.w3.org/1999/xlink" xmlns:ev="http://www.w3.org/2001/xml-events"
		width="6.55175in" height="3.73679in" viewBox="0 0 471.726 269.049" xml:space="preserve" color-interpolation-filters="sRGB"
		class="st18">
	<style type="text/css">
	<![CDATA[
		.st1 {fill:#bfbfbf;stroke:none;stroke-linecap:round;stroke-linejoin:round;stroke-width:0.75}
		.st2 {fill:#000000;font-family:Calibri;font-size:0.499992em}
		.st3 {fill:#ffc000;stroke:none;stroke-linecap:round;stroke-linejoin:round;stroke-width:0.75}
		.st4 {fill:#bfbfbf;stroke:#000000;stroke-linecap:round;stroke-linejoin:round;stroke-width:0.75}
		.st5 {marker-end:url(#mrkr1-30);marker-start:url(#mrkr1-28);stroke:#000000;stroke-linecap:round;stroke-linejoin:round;stroke-width:1}
		.st6 {fill:#000000;fill-opacity:1;stroke:#000000;stroke-opacity:1;stroke-width:0.28409090909091}
		.st7 {fill:#9dc3e6;stroke:none;stroke-linecap:round;stroke-linejoin:round;stroke-width:0.75}
		.st8 {fill:#d8d8d8;stroke:none;stroke-linecap:round;stroke-linejoin:round;stroke-width:0.75}
		.st9 {font-size:1em}
		.st10 {marker-end:url(#mrkr1-30);stroke:#000000;stroke-linecap:round;stroke-linejoin:round;stroke-width:1}
		.st11 {stroke:#000000;stroke-linecap:round;stroke-linejoin:round;stroke-width:1}
		.st12 {stroke:#000000;stroke-dasharray:5.25,3.75;stroke-linecap:round;stroke-linejoin:round;stroke-width:0.75}
		.st13 {marker-start:url(#mrkr1-143);stroke:#ff0000;stroke-linecap:round;stroke-linejoin:round;stroke-width:0.75}
		.st14 {fill:#ff0000;fill-opacity:1;stroke:#ff0000;stroke-opacity:1;stroke-width:0.22935779816514}
		.st15 {stroke:#000000;stroke-dasharray:0.75,1.5;stroke-linecap:round;stroke-linejoin:round;stroke-width:0.75}
		.st16 {fill:none;stroke:none;stroke-linecap:round;stroke-linejoin:round;stroke-width:0.75}
		.st17 {baseline-shift:32.4949%;font-size:0.649897em}
		.st18 {fill:none;fill-rule:evenodd;font-size:12px;overflow:visible;stroke-linecap:square;stroke-miterlimit:3}
	]]>
	</style>

	<defs id="Markers">
		<g id="lend1">
			<path d="M 1 -1 L 0 0 L 1 1 " style="stroke-linecap:round;stroke-linejoin:round;fill:none"/>
		</g>
		<marker id="mrkr1-28" class="st6" orient="auto" markerUnits="strokeWidth" overflow="visible">
			<use xlink:href="#lend1" transform="scale(3.52) "/>
		</marker>
		<marker id="mrkr1-30" class="st6" orient="auto" markerUnits="strokeWidth" overflow="visible">
			<use xlink:href="#lend1" transform="scale(-3.52,-3.52) "/>
		</marker>
		<marker id="mrkr1-143" class="st14" orient="auto" markerUnits="strokeWidth" overflow="visible">
			<use xlink:href="#lend1" transform="scale(4.36) "/>
		</marker>
	</defs>
	<g>
		<title>Page-1</title>
		<g id="shape1-1" transform="translate(30.0835,-36.2333)">
			<title>Sheet.1</title>
			<desc>CPU</desc>
			<rect x="0" y="152.829" width="64.7404" height="116.22" class="st1"/>
			<text x="4" y="162.23" class="st2">CPU</text>		</g>
		<g id="shape2-4" transform="translate(142.928,-18.2828)">
			<title>Sheet.2</title>
			<desc>SRI</desc>
			<rect x="0" y="18.6578" width="28.2654" height="250.391" class="st1"/>
			<text x="4" y="28.06" class="st2">SRI</text>		</g>
		<g id="shape3-7" transform="translate(31.7197,-207.629)">
			<title>Sheet.3</title>
			<desc>LMU</desc>
			<rect x="0" y="226.328" width="63.3324" height="42.7214" class="st1"/>
			<text x="4" y="235.73" class="st2">LMU</text>		</g>
		<g id="shape4-10" transform="translate(289.061,-53.7158)">
			<title>Sheet.4</title>
			<desc>PPU</desc>
			<path d="M0 125.43 L0 269.05 L92.13 269.05 L92.13 125.43 L0 125.43 L0 125.43 Z" class="st3"/>
			<text x="4" y="134.83" class="st2">PPU</text>		</g>
		<g id="shape5-13" transform="translate(307.006,-218.593)">
			<title>Sheet.5</title>
			<desc>IR</desc>
			<rect x="0" y="226.328" width="50.5672" height="42.7214" class="st1"/>
			<text x="4" y="235.73" class="st2">IR</text>		</g>
		<g id="shape6-16" transform="translate(336.943,-229.932)">
			<title>Sheet.6</title>
			<desc>SRNi</desc>
			<rect x="0" y="252.518" width="20.6299" height="16.5312" class="st4"/>
			<text x="4" y="261.92" class="st2">SRNi</text>		</g>
		<g id="shape7-19" transform="translate(307.635,-229.842)">
			<title>Sheet.7</title>
			<desc>ICUx</desc>
			<rect x="0" y="252.518" width="20.6299" height="16.5312" class="st4"/>
			<text x="4" y="261.92" class="st2">ICUx</text>		</g>
		<g id="shape8-22" transform="translate(95.0522,-223.32)">
			<title>Sheet.8</title>
			<path d="M0 269.05 L47.88 269.05" class="st5"/>
		</g>
		<g id="shape9-31" transform="translate(30.3117,-160.719)">
			<title>Sheet.9</title>
			<desc>NVM</desc>
			<rect x="0" y="231.759" width="64.7404" height="37.2904" class="st1"/>
			<text x="4" y="241.16" class="st2">NVM</text>		</g>
		<g id="shape10-34" transform="translate(289.061,-141.366)">
			<title>Sheet.10</title>
			<desc>M-SRI</desc>
			<path d="M0 269.05 L0 252.52 L28.79 252.52 L28.79 269.05 L0 269.05 Z" class="st7"/>
			<text x="7.15" y="262.58" class="st2">M-SRI</text>		</g>
		<g id="shape11-37" transform="translate(289.061,-88.6742)">
			<title>Sheet.11</title>
			<desc>S-SRI</desc>
			<path d="M0 269.05 L0 252.52 L28.79 252.52 L28.79 269.05 L0 269.05 Z" class="st7"/>
			<text x="8.34" y="262.58" class="st2">S-SRI</text>		</g>
		<g id="shape12-40" transform="translate(142.928,-18.2828)">
			<title>Sheet.12</title>
			<desc>S2L bridge</desc>
			<path d="M0 269.05 L0 252.52 L28.27 252.52 L28.27 269.05 L0 269.05 Z" class="st8"/>
			<text x="9.97" y="258.98" class="st2">S2L <tspan x="6.34" dy="1.2em" class="st9">bridge</tspan></text>		</g>
		<g id="shape13-44" transform="translate(66.2586,-216.233)">
			<title>Sheet.13</title>
			<desc>S-SRI</desc>
			<path d="M0 269.05 L0 252.52 L28.79 252.52 L28.79 269.05 L0 269.05 Z" class="st8"/>
			<text x="8.34" y="262.58" class="st2">S-SRI</text>		</g>
		<g id="shape14-47" transform="translate(66.0304,-57.9698)">
			<title>Sheet.14</title>
			<desc>M-SRI</desc>
			<path d="M0 269.05 L0 252.52 L28.79 252.52 L28.79 269.05 L0 269.05 Z" class="st8"/>
			<text x="7.15" y="262.58" class="st2">M-SRI</text>		</g>
		<g id="shape15-50" transform="translate(30.3117,-95.7608)">
			<title>Sheet.15</title>
			<desc>CFI</desc>
			<path d="M0 269.05 L0 252.52 L28.79 252.52 L28.79 269.05 L0 269.05 Z" class="st8"/>
			<text x="10.66" y="262.58" class="st2">CFI</text>		</g>
		<g id="shape16-53" transform="translate(48.0569,-166.627)">
			<title>Sheet.16</title>
			<desc>PFLASH</desc>
			<path d="M0 269.05 L0 252.52 L28.79 252.52 L28.79 269.05 L0 269.05 Z" class="st8"/>
			<text x="5.22" y="262.58" class="st2">PFLASH</text>		</g>
		<g id="shape17-56" transform="translate(66.2586,-95.7608)">
			<title>Sheet.17</title>
			<desc>RAM</desc>
			<path d="M0 269.05 L0 252.52 L20.63 252.52 L20.63 269.05 L0 269.05 Z" class="st8"/>
			<text x="4.39" y="262.58" class="st2">RAM</text>		</g>
		<g id="shape18-59" transform="translate(95.0522,-132.611)">
			<title>Sheet.18</title>
			<path d="M0 269.05 L47.88 269.05" class="st5"/>
		</g>
		<g id="shape19-66" transform="translate(95.0522,-67.4144)">
			<title>Sheet.19</title>
			<path d="M0 269.05 L47.88 269.05" class="st5"/>
		</g>
		<g id="shape20-73" transform="translate(270.69,-15.2465)">
			<title>Sheet.20</title>
			<desc>LLI</desc>
			<rect x="0" y="245.228" width="192.158" height="23.8215" class="st1"/>
			<text x="4" y="254.63" class="st2">LLI</text>		</g>
		<g id="shape21-76" transform="translate(298.923,-53.7158)">
			<title>Sheet.21</title>
			<desc>S-LLI</desc>
			<path d="M0 269.05 L0 252.52 L28.79 252.52 L28.79 269.05 L0 269.05 Z" class="st7"/>
			<text x="8.82" y="262.58" class="st2">S-LLI</text>		</g>
		<g id="shape22-79" transform="translate(66.0304,-124.107)">
			<title>Sheet.22</title>
			<desc>S-SRI</desc>
			<path d="M0 269.05 L0 252.52 L28.79 252.52 L28.79 269.05 L0 269.05 Z" class="st8"/>
			<text x="8.34" y="262.58" class="st2">S-SRI</text>		</g>
		<g id="shape23-82" transform="translate(171.193,-149.619)">
			<title>Sheet.23</title>
			<path d="M0 269.05 L117.87 269.05" class="st5"/>
		</g>
		<g id="shape24-89" transform="translate(171.193,-95.7608)">
			<title>Sheet.24</title>
			<path d="M0 269.05 L117.87 269.05" class="st5"/>
		</g>
		<g id="shape25-96" transform="translate(582.369,215.333) rotate(90)">
			<title>Sheet.25</title>
			<path d="M0 269.05 L14.17 269.05" class="st5"/>
		</g>
		<g id="shape26-103" transform="translate(10.0128,-173.714)">
			<title>Sheet.26</title>
			<path d="M0 269.05 L38.04 269.05" class="st10"/>
		</g>
		<g id="shape27-108" transform="translate(10.0128,-102.847)">
			<title>Sheet.27</title>
			<path d="M0 269.05 L20.07 269.05" class="st10"/>
		</g>
		<g id="shape28-113" transform="translate(-259.036,166.202) rotate(-90)">
			<title>Sheet.28</title>
			<path d="M0 269.05 L70.87 269.05" class="st11"/>
		</g>
		<g id="shape29-116" transform="translate(142.928,-223.32)">
			<title>Dynamic connector.104</title>
			<path d="M0 269.05 L14.04 269.05 L14.04 342.75 L28.27 342.75" class="st12"/>
		</g>
		<g id="shape30-119" transform="translate(142.928,-132.611)">
			<title>Dynamic connector.105</title>
			<path d="M0 269.05 L14.04 269.05 L14.04 252.04 L28.27 252.04" class="st12"/>
		</g>
		<g id="shape31-122" transform="translate(142.928,-67.4144)">
			<title>Dynamic connector.106</title>
			<path d="M0 269.05 L13.07 269.05 L13.07 240.7 L28.27 240.7" class="st12"/>
		</g>
		<g id="shape32-125" transform="translate(142.376,-67.4144)">
			<title>Dynamic connector.107</title>
			<path d="M0.55 269.05 L13.62 269.05 L13.62 301.65" class="st12"/>
		</g>
		<g id="shape33-128" transform="translate(171.831,-27.3178) rotate(0.135822)">
			<title>Sheet.33</title>
			<path d="M0 269.05 L99.5 269.05" class="st5"/>
		</g>
		<g id="shape34-135" transform="translate(452.926,-31.9813)">
			<title>Dynamic connector.109</title>
			<path d="M0 261.96 L0 274.72 L-93.54 274.72 L-93.54 261.96" class="st12"/>
		</g>
		<g id="shape35-138" transform="translate(295.305,-197.333)">
			<title>Dynamic connector.110</title>
			<path d="M1.84 269.05 L1.84 228.28 L12.33 228.28" class="st13"/>
		</g>
		<g id="shape36-144" transform="translate(356.39,-238.436)">
			<title>Dynamic connector.111</title>
			<path d="M1.18 269.05 L12.99 269.05 L12.99 310.15" class="st13"/>
		</g>
		<g id="shape37-149" transform="translate(69.4869,-125.286)">
			<title>Dynamic connector.112</title>
			<path d="M7.09 270.23 L7.09 282.04" class="st15"/>
		</g>
		<g id="shape38-152" transform="translate(66.0304,-132.373)">
			<title>Dynamic connector.113</title>
			<path d="M0 269.05 L-21.32 269.05 L-21.32 289.13" class="st15"/>
		</g>
		<g id="shape39-155" transform="translate(211.981,-168.785)">
			<title>Sheet.39</title>
			<desc>GTM*</desc>
			<rect x="0" y="235.098" width="55.8194" height="33.9513" class="st1"/>
			<text x="4" y="244.5" class="st2">GTM*</text>		</g>
		<g id="shape40-158" transform="translate(197.808,-237.493)">
			<title>Sheet.40</title>
			<desc>FPI</desc>
			<rect x="0" y="245.228" width="77.9528" height="23.8215" class="st1"/>
			<text x="4" y="254.63" class="st2">FPI</text>		</g>
		<g id="shape41-161" transform="translate(142.928,-237.493)">
			<title>Sheet.41</title>
			<desc>S2F bridge</desc>
			<path d="M0 269.05 L0 252.52 L28.27 252.52 L28.27 269.05 L0 269.05 Z" class="st8"/>
			<text x="9.86" y="258.98" class="st2">S2F <tspan x="6.34" dy="1.2em" class="st9">bridge</tspan></text>		</g>
		<g id="shape42-165" transform="translate(197.808,-248.832)">
			<title>Dynamic connector.42</title>
			<path d="M0 271.88 L49.61 271.88 L49.61 280.39" class="st12"/>
		</g>
		<g id="shape43-168" transform="translate(171.193,-245.997)">
			<title>Sheet.43</title>
			<path d="M0 269.05 L26.61 269.05" class="st5"/>
		</g>
		<g id="shape44-175" transform="translate(-21.6349,66.3126) rotate(-90)">
			<title>Sheet.44</title>
			<path d="M0 269.05 L34.76 269.05" class="st5"/>
		</g>
		<g id="shape45-182" transform="translate(-112.082,45.7293) rotate(-90)">
			<title>Sheet.45</title>
			<path d="M0 269.05 L14.17 269.05" class="st12"/>
		</g>
		<g id="shape46-185" transform="translate(420.784,-112.769)">
			<title>Sheet.46</title>
			<desc>ADC</desc>
			<rect x="0" y="235.098" width="50.5672" height="33.9513" class="st1"/>
			<text x="4" y="244.5" class="st2">ADC</text>		</g>
		<g id="shape47-188" transform="translate(420.784,-57.5575)">
			<title>Sheet.47</title>
			<desc>eGTM*</desc>
			<rect x="0" y="235.098" width="50.5672" height="33.9513" class="st1"/>
			<text x="4" y="244.5" class="st2">eGTM*</text>		</g>
		<g id="shape48-191" transform="translate(343.792,-53.7158)">
			<title>Sheet.48</title>
			<desc>M-LLI</desc>
			<path d="M0 269.05 L0 252.52 L28.79 252.52 L28.79 269.05 L0 269.05 Z" class="st7"/>
			<text x="7.64" y="262.58" class="st2">M-LLI</text>		</g>
		<g id="shape49-194" transform="translate(237.271,-186.205)">
			<title>Sheet.49</title>
			<desc>FPI Slave I/F</desc>
			<path d="M0 269.05 L0 252.52 L28.79 252.52 L28.79 269.05 L0 269.05 Z" class="st8"/>
			<text x="10.71" y="258.98" class="st2">FPI <tspan x="4.07" dy="1.2em" class="st9">Slave I/F</tspan></text>		</g>
		<g id="shape50-198" transform="translate(438.306,-57.5575)">
			<title>Sheet.50</title>
			<desc>S-LLI**</desc>
			<path d="M0 269.05 L0 252.52 L28.79 252.52 L28.79 269.05 L0 269.05 Z" class="st8"/>
			<text x="5.83" y="262.58" class="st2">S-LLI**</text>		</g>
		<g id="shape51-201" transform="translate(420.784,-117.259)">
			<title>Sheet.51</title>
			<desc>S-LLI**</desc>
			<path d="M0 269.05 L0 252.52 L28.79 252.52 L28.79 269.05 L0 269.05 Z" class="st8"/>
			<text x="5.83" y="262.58" class="st2">S-LLI**</text>		</g>
		<g id="shape54-204" transform="translate(134.271,241.32) rotate(-90)">
			<title>Sheet.54</title>
			<path d="M0 269.05 L11.34 269.05" class="st12"/>
		</g>
		<g id="shape55-207" transform="translate(721.975,211.492) rotate(90)">
			<title>Sheet.55</title>
			<path d="M0 269.05 L18.49 269.05" class="st5"/>
		</g>
		<g id="shape56-214" transform="translate(420.784,-125.525)">
			<title>Dynamic connector.56</title>
			<path d="M0 269.05 L-17.46 269.05 L-17.46 355.51" class="st5"/>
		</g>
		<g id="shape57-221" transform="translate(628.432,215.808) rotate(90)">
			<title>Sheet.57</title>
			<path d="M0 269.05 L14.17 269.05" class="st5"/>
		</g>
		<g id="shape58-228" transform="translate(313.32,-40.3993)">
			<title>Dynamic connector.58</title>
			<path d="M0 269.91 L0 282.37 L-42.63 282.37" class="st12"/>
		</g>
		<g id="shape59-231" transform="translate(0.375,-0.375)">
			<title>Sheet.59</title>
			<desc>*not available in all AURIXTM TC4xx devices **direct PPU acce...</desc>
			<rect x="0" y="250.624" width="208.772" height="18.4252" class="st16"/>
			<text x="8.07" y="258.04" class="st2">*not available in all AURIX<tspan dy="-0.234em" class="st17">TM</tspan><tspan
						dy="0.152em" class="st9"> </tspan>TC4xx devices <tspan x="4" dy="1.2em" class="st9">**direct PPU access through LLI not available in all AURIX</tspan><tspan
						dy="-0.234em" class="st17">TM</tspan><tspan dy="0.152em" class="st9"> </tspan>TC4xx devices</text>		</g>
	</g>
</svg>
