<?xml version="1.0" encoding="UTF-8" standalone="no"?>
<!DOCTYPE svg PUBLIC "-//W3C//DTD SVG 1.1//EN" "http://www.w3.org/Graphics/SVG/1.1/DTD/svg11.dtd">
<!-- Generated by Microsoft Visio, SVG Export LLI R.svg Page-1 -->
<svg xmlns="http://www.w3.org/2000/svg" xmlns:xlink="http://www.w3.org/1999/xlink" xmlns:ev="http://www.w3.org/2001/xml-events"
		xmlns:v="http://schemas.microsoft.com/visio/2003/SVGExtensions/" width="8.00032in" height="7.32049in"
		viewBox="0 0 576.023 527.075" xml:space="preserve" color-interpolation-filters="sRGB" class="st16">
	<v:documentProperties v:langID="1031" v:metric="true" v:viewMarkup="false"/>

	<style type="text/css">
	<![CDATA[
		.st1 {fill:#d8d8d8;stroke:#000000;stroke-dasharray:5.25,3.75;stroke-linecap:round;stroke-linejoin:round;stroke-width:0.75}
		.st2 {fill:#ebf1df;stroke:#000000;stroke-linecap:round;stroke-linejoin:round;stroke-width:0.75}
		.st3 {fill:#ccc2d9;stroke:#000000;stroke-linecap:round;stroke-linejoin:round;stroke-width:0.75}
		.st4 {fill:#000000;font-family:Calibri;font-size:0.666664em}
		.st5 {fill:#ffffff;fill-opacity:0;stroke:#000000;stroke-dasharray:0.75,1.5;stroke-linecap:round;stroke-linejoin:round;stroke-width:0.75}
		.st6 {fill:none;stroke:#000000;stroke-dasharray:0.75,1.5;stroke-linecap:round;stroke-linejoin:round;stroke-width:0.75}
		.st7 {fill:none;stroke:none;stroke-linecap:round;stroke-linejoin:round;stroke-width:0.75}
		.st8 {fill:#000000;font-family:Calibri;font-size:1.00001em}
		.st9 {marker-end:url(#mrkr13-32);stroke:#000000;stroke-linecap:round;stroke-linejoin:round;stroke-width:0.75}
		.st10 {fill:#000000;fill-opacity:1;stroke:#000000;stroke-opacity:1;stroke-width:0.22935779816514}
		.st11 {fill:#000000;font-family:Calibri;font-size:0.833336em}
		.st12 {marker-start:url(#mrkr13-97);stroke:#000000;stroke-linecap:round;stroke-linejoin:round;stroke-width:0.75}
		.st13 {fill:#fee599;stroke:#000000;stroke-linecap:round;stroke-linejoin:round;stroke-width:0.75}
		.st14 {fill:#ffffff;stroke:#000000;stroke-linecap:round;stroke-linejoin:round;stroke-width:0.75}
		.st15 {font-size:1em}
		.st16 {fill:none;fill-rule:evenodd;font-size:12px;overflow:visible;stroke-linecap:square;stroke-miterlimit:3}
	]]>
	</style>

	<defs id="Markers">
		<g id="lend13">
			<path d="M 3 1 L 0 0 L 3 -1 L 3 1 " style="stroke:none"/>
		</g>
		<marker id="mrkr13-32" class="st10" v:arrowType="13" v:arrowSize="2" v:setback="13.08" refX="-13.08" orient="auto"
				markerUnits="strokeWidth" overflow="visible">
			<use xlink:href="#lend13" transform="scale(-4.36,-4.36) "/>
		</marker>
		<marker id="mrkr13-97" class="st10" v:arrowType="13" v:arrowSize="2" v:setback="12.6" refX="12.6" orient="auto"
				markerUnits="strokeWidth" overflow="visible">
			<use xlink:href="#lend13" transform="scale(4.36) "/>
		</marker>
	</defs>
	<g v:mID="0" v:index="1" v:groupContext="foregroundPage">
		<title>Page-1</title>
		<v:pageProperties v:drawingScale="0.0393701" v:pageScale="0.0393701" v:drawingUnits="24" v:shadowOffsetX="8.50394"
				v:shadowOffsetY="-8.50394"/>
		<g id="shape763-1" v:mID="763" v:groupContext="shape" transform="translate(0.375,-87.4931)">
			<title>Sheet.763</title>
			<path d="M0 527.08 L575.27 527.08 L575.27 184.75 L0 184.75 L0 527.08 Z" class="st1"/>
		</g>
		<g id="shape59-3" v:mID="59" v:groupContext="shape" transform="translate(31.2454,-213.434)">
			<title>Sheet.59</title>
			<rect x="0" y="414.476" width="505.984" height="112.6" class="st2"/>
		</g>
		<g id="shape113-5" v:mID="113" v:groupContext="shape" transform="translate(71.0309,-299.689)">
			<title>Sheet.113</title>
			<desc>AXI User Sideband</desc>
			<v:textBlock v:margins="rect(4,4,4,4)" v:tabSpace="42.5197"/>
			<v:textRect cx="57.3407" cy="513.903" width="114.69" height="26.3441"/>
			<rect x="0" y="500.731" width="114.681" height="26.3441" class="st3"/>
			<text x="27.55" y="516.3" class="st4" v:langID="1031"><v:paragraph v:horizAlign="1"/><v:tabList/>AXI User Sideband</text>		</g>
		<g id="shape115-8" v:mID="115" v:groupContext="shape" transform="translate(358.615,-299.689)">
			<title>Sheet.115</title>
			<desc>AXI User Sideband</desc>
			<v:textBlock v:margins="rect(4,4,4,4)" v:tabSpace="42.5197"/>
			<v:textRect cx="39.685" cy="513.903" width="79.38" height="26.3441"/>
			<rect x="0" y="500.731" width="79.3701" height="26.3441" class="st3"/>
			<text x="9.89" y="516.3" class="st4" v:langID="1031"><v:paragraph v:horizAlign="1"/><v:tabList/>AXI User Sideband</text>		</g>
		<g id="shape203-11" v:mID="203" v:groupContext="shape" transform="translate(57.0679,-213.434)">
			<title>Sheet.203</title>
			<path d="M0 527.08 L467.72 527.08 L467.72 481.88 L0 481.88 L0 527.08 Z" class="st5"/>
		</g>
		<g id="shape192-13" v:mID="192" v:groupContext="shape" transform="translate(360.11,-213.434)">
			<title>Sheet.192</title>
			<desc>AXI User Sideband</desc>
			<v:textBlock v:margins="rect(4,4,4,4)" v:tabSpace="42.5197"/>
			<v:textRect cx="39.685" cy="513.903" width="79.38" height="26.3441"/>
			<rect x="0" y="500.731" width="79.3701" height="26.3441" class="st3"/>
			<text x="9.89" y="516.3" class="st4" v:langID="1031"><v:paragraph v:horizAlign="1"/><v:tabList/>AXI User Sideband</text>		</g>
		<g id="shape204-16" v:mID="204" v:groupContext="shape" transform="translate(55.3399,-284.55)">
			<title>Sheet.204</title>
			<path d="M0 527.08 L467.72 527.08 L467.72 485.59 L0 485.59 L0 527.08 Z" class="st6"/>
		</g>
		<g id="shape205-18" v:mID="205" v:groupContext="shape" transform="translate(187.253,-292.006)">
			<title>Sheet.205</title>
			<desc>LLI_AXIM0</desc>
			<v:textBlock v:margins="rect(4,4,4,4)" v:tabSpace="42.5197"/>
			<v:textRect cx="60.4797" cy="520.682" width="120.96" height="12.7871"/>
			<rect x="0" y="514.288" width="120.959" height="12.7871" class="st7"/>
			<text x="34.67" y="524.28" class="st8" v:langID="1031"><v:paragraph v:horizAlign="1"/><v:tabList/>LLI_AXIM0</text>		</g>
		<g id="shape206-21" v:mID="206" v:groupContext="shape" transform="translate(187.253,-236.699)">
			<title>Sheet.206</title>
			<desc>LLI_AXIS0</desc>
			<v:textBlock v:margins="rect(4,4,4,4)" v:tabSpace="42.5197"/>
			<v:textRect cx="60.4797" cy="520.682" width="120.96" height="12.7871"/>
			<rect x="0" y="514.288" width="120.959" height="12.7871" class="st7"/>
			<text x="37.04" y="524.28" class="st8" v:langID="1031"><v:paragraph v:horizAlign="1"/><v:tabList/>LLI_AXIS0</text>		</g>
		<g id="shape187-24" v:mID="187" v:groupContext="shape" transform="translate(71.3143,-213.434)">
			<title>Sheet.187</title>
			<desc>AXI User Sideband</desc>
			<v:textBlock v:margins="rect(4,4,4,4)" v:tabSpace="42.5197"/>
			<v:textRect cx="57.3407" cy="513.903" width="114.69" height="26.3441"/>
			<rect x="0" y="500.731" width="114.681" height="26.3441" class="st3"/>
			<text x="27.55" y="516.3" class="st4" v:langID="1031"><v:paragraph v:horizAlign="1"/><v:tabList/>AXI User Sideband</text>		</g>
		<g id="shape527-27" v:mID="527" v:groupContext="shape" transform="translate(631.714,9.58763) rotate(89.8774)">
			<title>Sheet.527</title>
			<path d="M0 527.08 L180.52 527.08" class="st9"/>
		</g>
		<g id="shape528-33" v:mID="528" v:groupContext="shape" transform="translate(643.396,10.7156) rotate(90)">
			<title>Sheet.528</title>
			<path d="M0 527.08 L180.52 527.08" class="st9"/>
		</g>
		<g id="shape529-38" v:mID="529" v:groupContext="shape" transform="translate(653.704,13.4516) rotate(90)">
			<title>Sheet.529</title>
			<path d="M0 527.08 L177.78 527.08" class="st9"/>
		</g>
		<g id="shape530-43" v:mID="530" v:groupContext="shape" transform="translate(618.921,13.4265) rotate(90.2947)">
			<title>Sheet.530</title>
			<path d="M0 527.08 L180.52 527.08" class="st9"/>
		</g>
		<g id="shape531-48" v:mID="531" v:groupContext="shape" transform="translate(663.938,13.4516) rotate(90)">
			<title>Sheet.531</title>
			<path d="M0 527.08 L177.78 527.08" class="st9"/>
		</g>
		<g id="shape532-53" v:mID="532" v:groupContext="shape" transform="translate(603.373,29.9223) rotate(90)">
			<title>Sheet.532</title>
			<desc>Araddr</desc>
			<v:textBlock v:margins="rect(4,4,4,4)" v:tabSpace="42.5197"/>
			<v:textRect cx="35.0683" cy="516.083" width="70.14" height="21.9847"/>
			<rect x="0" y="505.091" width="70.1367" height="21.9847" class="st7"/>
			<text x="21.04" y="519.08" class="st11" v:langID="1031"><v:paragraph v:horizAlign="1"/><v:tabList/>Araddr</text>		</g>
		<g id="shape533-56" v:mID="533" v:groupContext="shape" transform="translate(617.546,34.2903) rotate(90)">
			<title>Sheet.533</title>
			<desc>Arburst</desc>
			<v:textBlock v:margins="rect(4,4,4,4)" v:tabSpace="42.5197"/>
			<v:textRect cx="32.8843" cy="516.083" width="65.77" height="21.9847"/>
			<rect x="0" y="505.091" width="65.7686" height="21.9847" class="st7"/>
			<text x="17.62" y="519.08" class="st11" v:langID="1031"><v:paragraph v:horizAlign="1"/><v:tabList/>Arburst</text>		</g>
		<g id="shape534-59" v:mID="534" v:groupContext="shape" transform="translate(628.538,29.9223) rotate(90)">
			<title>Sheet.534</title>
			<desc>Arsize</desc>
			<v:textBlock v:margins="rect(4,4,4,4)" v:tabSpace="42.5197"/>
			<v:textRect cx="35.0683" cy="516.083" width="70.14" height="21.9847"/>
			<rect x="0" y="505.091" width="70.1367" height="21.9847" class="st7"/>
			<text x="22.87" y="519.08" class="st11" v:langID="1031"><v:paragraph v:horizAlign="1"/><v:tabList/>Arsize</text>		</g>
		<g id="shape535-62" v:mID="535" v:groupContext="shape" transform="translate(648.999,29.9223) rotate(90)">
			<title>Sheet.535</title>
			<desc>Arlen</desc>
			<v:textBlock v:margins="rect(4,4,4,4)" v:tabSpace="42.5197"/>
			<v:textRect cx="35.0683" cy="516.083" width="70.14" height="21.9847"/>
			<rect x="0" y="505.091" width="70.1367" height="21.9847" class="st7"/>
			<text x="24.17" y="519.08" class="st11" v:langID="1031"><v:paragraph v:horizAlign="1"/><v:tabList/>Arlen</text>		</g>
		<g id="shape536-65" v:mID="536" v:groupContext="shape" transform="translate(674.642,14.0959) rotate(90)">
			<title>Sheet.536</title>
			<path d="M0 527.08 L177.14 527.08" class="st9"/>
		</g>
		<g id="shape537-70" v:mID="537" v:groupContext="shape" transform="translate(684.95,12.5715) rotate(90)">
			<title>Sheet.537</title>
			<path d="M0 527.08 L178.66 527.08" class="st9"/>
		</g>
		<g id="shape538-75" v:mID="538" v:groupContext="shape" transform="translate(660.065,36.6442) rotate(90)">
			<title>Sheet.538</title>
			<desc>Arcache</desc>
			<v:textBlock v:margins="rect(4,4,4,4)" v:tabSpace="42.5197"/>
			<v:textRect cx="35.0683" cy="516.083" width="70.14" height="21.9847"/>
			<rect x="0" y="505.091" width="70.1367" height="21.9847" class="st7"/>
			<text x="18.69" y="519.08" class="st11" v:langID="1031"><v:paragraph v:horizAlign="1"/><v:tabList/>Arcache</text>		</g>
		<g id="shape539-78" v:mID="539" v:groupContext="shape" transform="translate(666.83,29.9223) rotate(90)">
			<title>Sheet.539</title>
			<desc>Arprot</desc>
			<v:textBlock v:margins="rect(4,4,4,4)" v:tabSpace="42.5197"/>
			<v:textRect cx="40.2254" cy="512.902" width="80.46" height="28.3465"/>
			<rect x="0" y="498.729" width="80.4509" height="28.3465" class="st7"/>
			<text x="26.91" y="515.9" class="st11" v:langID="1031"><v:paragraph v:horizAlign="1"/><v:tabList/>Arprot</text>		</g>
		<g id="shape540-81" v:mID="540" v:groupContext="shape" transform="translate(674.642,29.9223) rotate(90)">
			<title>Sheet.540</title>
			<desc>Arid</desc>
			<v:textBlock v:margins="rect(4,4,4,4)" v:tabSpace="42.5197"/>
			<v:textRect cx="35.0683" cy="512.902" width="70.14" height="28.3465"/>
			<rect x="0" y="498.729" width="70.1367" height="28.3465" class="st7"/>
			<text x="26.66" y="515.9" class="st11" v:langID="1031"><v:paragraph v:horizAlign="1"/><v:tabList/>Arid</text>		</g>
		<g id="shape541-84" v:mID="541" v:groupContext="shape" transform="translate(695.902,12.5715) rotate(90)">
			<title>Sheet.541</title>
			<path d="M0 527.08 L178.66 527.08" class="st9"/>
		</g>
		<g id="shape542-89" v:mID="542" v:groupContext="shape" transform="translate(638.081,24.6014) rotate(90)">
			<title>Sheet.542</title>
			<desc>Arlock</desc>
			<v:textBlock v:margins="rect(4,4,4,4)" v:tabSpace="42.5197"/>
			<v:textRect cx="40.2254" cy="516.083" width="80.46" height="21.9847"/>
			<rect x="0" y="505.091" width="80.4509" height="21.9847" class="st7"/>
			<text x="27.42" y="519.08" class="st11" v:langID="1031"><v:paragraph v:horizAlign="1"/><v:tabList/>Arlock</text>		</g>
		<g id="shape576-92" v:mID="576" v:groupContext="shape" transform="translate(942.776,13.4208) rotate(90)">
			<title>Sheet.576</title>
			<path d="M9.45 527.08 L9.81 527.08 L187.41 527.08" class="st12"/>
		</g>
		<g id="shape577-98" v:mID="577" v:groupContext="shape" transform="translate(925.768,13.4516) rotate(90)">
			<title>Sheet.577</title>
			<path d="M9.45 527.08 L9.81 527.08 L187.59 527.08" class="st12"/>
		</g>
		<g id="shape578-103" v:mID="578" v:groupContext="shape" transform="translate(908.76,27.7842) rotate(90)">
			<title>Sheet.578</title>
			<desc>Rid</desc>
			<v:textBlock v:margins="rect(4,4,4,4)" v:tabSpace="42.5197"/>
			<v:textRect cx="35.4015" cy="516.083" width="70.81" height="21.9847"/>
			<rect x="0" y="505.091" width="70.803" height="21.9847" class="st7"/>
			<text x="28.91" y="519.08" class="st11" v:langID="1031"><v:paragraph v:horizAlign="1"/><v:tabList/>Rid</text>		</g>
		<g id="shape580-106" v:mID="580" v:groupContext="shape" transform="translate(925.768,27.7842) rotate(90)">
			<title>Sheet.580</title>
			<desc>Rlast</desc>
			<v:textBlock v:margins="rect(4,4,4,4)" v:tabSpace="42.5197"/>
			<v:textRect cx="35.4015" cy="516.083" width="70.81" height="21.9847"/>
			<rect x="0" y="505.091" width="70.803" height="21.9847" class="st7"/>
			<text x="25.51" y="519.08" class="st11" v:langID="1031"><v:paragraph v:horizAlign="1"/><v:tabList/>Rlast</text>		</g>
		<g id="shape589-109" v:mID="589" v:groupContext="shape" transform="translate(957.703,12.8074) rotate(90)">
			<title>Sheet.589</title>
			<path d="M9.45 527.08 L9.81 527.08 L188.59 527.08" class="st12"/>
		</g>
		<g id="shape590-114" v:mID="590" v:groupContext="shape" transform="translate(940.634,29.2331) rotate(90)">
			<title>Sheet.590</title>
			<desc>Rresp</desc>
			<v:textBlock v:margins="rect(4,4,4,4)" v:tabSpace="42.5197"/>
			<v:textRect cx="35.4015" cy="516.083" width="70.81" height="21.9847"/>
			<rect x="0" y="505.091" width="70.803" height="21.9847" class="st7"/>
			<text x="23.87" y="519.08" class="st11" v:langID="1031"><v:paragraph v:horizAlign="1"/><v:tabList/>Rresp</text>		</g>
		<g id="shape664-117" v:mID="664" v:groupContext="shape" transform="translate(652.657,331.05) rotate(90)">
			<title>Sheet.664</title>
			<desc>Arprot</desc>
			<v:textBlock v:margins="rect(4,4,4,4)" v:tabSpace="42.5197"/>
			<v:textRect cx="31.5785" cy="516.083" width="63.16" height="21.9847"/>
			<rect x="0" y="505.091" width="63.157" height="21.9847" class="st7"/>
			<text x="18.26" y="519.08" class="st11" v:langID="1031"><v:paragraph v:horizAlign="1"/><v:tabList/>Arprot</text>		</g>
		<g id="shape684-120" v:mID="684" v:groupContext="shape" transform="translate(942.776,313.642) rotate(90)">
			<title>Sheet.684</title>
			<path d="M9.45 527.08 L9.81 527.08 L201.92 527.08" class="st12"/>
		</g>
		<g id="shape685-125" v:mID="685" v:groupContext="shape" transform="translate(925.768,313.642) rotate(90)">
			<title>Sheet.685</title>
			<path d="M9.45 527.08 L9.81 527.08 L201.92 527.08" class="st12"/>
		</g>
		<g id="shape686-130" v:mID="686" v:groupContext="shape" transform="translate(908.76,328.897) rotate(90)">
			<title>Sheet.686</title>
			<desc>Rid</desc>
			<v:textBlock v:margins="rect(4,4,4,4)" v:tabSpace="42.5197"/>
			<v:textRect cx="31.5537" cy="516.083" width="63.11" height="21.9847"/>
			<rect x="0" y="505.091" width="63.1074" height="21.9847" class="st7"/>
			<text x="25.06" y="519.08" class="st11" v:langID="1031"><v:paragraph v:horizAlign="1"/><v:tabList/>Rid</text>		</g>
		<g id="shape688-133" v:mID="688" v:groupContext="shape" transform="translate(925.768,329.642) rotate(90)">
			<title>Sheet.688</title>
			<desc>Rlast</desc>
			<v:textBlock v:margins="rect(4,4,4,4)" v:tabSpace="42.5197"/>
			<v:textRect cx="31.5537" cy="516.083" width="63.11" height="21.9847"/>
			<rect x="0" y="505.091" width="63.1074" height="21.9847" class="st7"/>
			<text x="21.67" y="519.08" class="st11" v:langID="1031"><v:paragraph v:horizAlign="1"/><v:tabList/>Rlast</text>		</g>
		<g id="shape689-136" v:mID="689" v:groupContext="shape" transform="translate(958.042,307.01) rotate(89.2791)">
			<title>Sheet.689</title>
			<path d="M9.45 527.08 L9.81 527.08 L201.49 527.08" class="st12"/>
		</g>
		<g id="shape691-141" v:mID="691" v:groupContext="shape" transform="translate(940.995,330.725) rotate(90)">
			<title>Sheet.691</title>
			<desc>Rresp</desc>
			<v:textBlock v:margins="rect(4,4,4,4)" v:tabSpace="42.5197"/>
			<v:textRect cx="31.5537" cy="516.083" width="63.11" height="21.9847"/>
			<rect x="0" y="505.091" width="63.1074" height="21.9847" class="st7"/>
			<text x="20.03" y="519.08" class="st11" v:langID="1031"><v:paragraph v:horizAlign="1"/><v:tabList/>Rresp</text>		</g>
		<g id="shape652-144" v:mID="652" v:groupContext="shape" transform="translate(634.48,312.984) rotate(90)">
			<title>Sheet.652</title>
			<path d="M0 527.08 L192.9 527.08" class="st9"/>
		</g>
		<g id="shape653-149" v:mID="653" v:groupContext="shape" transform="translate(646.161,312.984) rotate(90)">
			<title>Sheet.653</title>
			<path d="M0 527.08 L192.9 527.08" class="st9"/>
		</g>
		<g id="shape654-154" v:mID="654" v:groupContext="shape" transform="translate(656.469,312.984) rotate(90)">
			<title>Sheet.654</title>
			<path d="M0 527.08 L192.9 527.08" class="st9"/>
		</g>
		<g id="shape655-159" v:mID="655" v:groupContext="shape" transform="translate(621.693,312.984) rotate(90)">
			<title>Sheet.655</title>
			<path d="M0 527.08 L192.9 527.08" class="st9"/>
		</g>
		<g id="shape656-164" v:mID="656" v:groupContext="shape" transform="translate(666.703,312.984) rotate(90)">
			<title>Sheet.656</title>
			<path d="M0 527.08 L192.9 527.08" class="st9"/>
		</g>
		<g id="shape657-169" v:mID="657" v:groupContext="shape" transform="translate(606.138,324.91) rotate(90)">
			<title>Sheet.657</title>
			<desc>Araddr</desc>
			<v:textBlock v:margins="rect(4,4,4,4)" v:tabSpace="42.5197"/>
			<v:textRect cx="37.7187" cy="516.083" width="75.44" height="21.9847"/>
			<rect x="0" y="505.091" width="75.4375" height="21.9847" class="st7"/>
			<text x="23.69" y="519.08" class="st11" v:langID="1031"><v:paragraph v:horizAlign="1"/><v:tabList/>Araddr</text>		</g>
		<g id="shape658-172" v:mID="658" v:groupContext="shape" transform="translate(620.311,325.825) rotate(90)">
			<title>Sheet.658</title>
			<desc>Arburst</desc>
			<v:textBlock v:margins="rect(4,4,4,4)" v:tabSpace="42.5197"/>
			<v:textRect cx="37.7187" cy="516.083" width="75.44" height="21.9847"/>
			<rect x="0" y="505.091" width="75.4375" height="21.9847" class="st7"/>
			<text x="22.45" y="519.08" class="st11" v:langID="1031"><v:paragraph v:horizAlign="1"/><v:tabList/>Arburst</text>		</g>
		<g id="shape659-175" v:mID="659" v:groupContext="shape" transform="translate(631.303,325.825) rotate(90)">
			<title>Sheet.659</title>
			<desc>Arsize</desc>
			<v:textBlock v:margins="rect(4,4,4,4)" v:tabSpace="42.5197"/>
			<v:textRect cx="37.7187" cy="516.083" width="75.44" height="21.9847"/>
			<rect x="0" y="505.091" width="75.4375" height="21.9847" class="st7"/>
			<text x="25.52" y="519.08" class="st11" v:langID="1031"><v:paragraph v:horizAlign="1"/><v:tabList/>Arsize</text>		</g>
		<g id="shape660-178" v:mID="660" v:groupContext="shape" transform="translate(666.83,325.825) rotate(90)">
			<title>Sheet.660</title>
			<desc>Arlen</desc>
			<v:textBlock v:margins="rect(4,4,4,4)" v:tabSpace="42.5197"/>
			<v:textRect cx="37.7187" cy="512.902" width="75.44" height="28.3465"/>
			<rect x="0" y="498.729" width="75.4375" height="28.3465" class="st7"/>
			<text x="26.82" y="515.9" class="st11" v:langID="1031"><v:paragraph v:horizAlign="1"/><v:tabList/>Arlen</text>		</g>
		<g id="shape661-181" v:mID="661" v:groupContext="shape" transform="translate(676.44,312.984) rotate(90)">
			<title>Sheet.661</title>
			<path d="M0 527.08 L192.9 527.08" class="st9"/>
		</g>
		<g id="shape662-186" v:mID="662" v:groupContext="shape" transform="translate(685.138,312.984) rotate(90)">
			<title>Sheet.662</title>
			<path d="M0 527.08 L192.9 527.08" class="st9"/>
		</g>
		<g id="shape663-191" v:mID="663" v:groupContext="shape" transform="translate(662.831,327.976) rotate(90)">
			<title>Sheet.663</title>
			<desc>Arcache</desc>
			<v:textBlock v:margins="rect(4,4,4,4)" v:tabSpace="42.5197"/>
			<v:textRect cx="37.7187" cy="516.083" width="75.44" height="21.9847"/>
			<rect x="0" y="505.091" width="75.4375" height="21.9847" class="st7"/>
			<text x="21.34" y="519.08" class="st11" v:langID="1031"><v:paragraph v:horizAlign="1"/><v:tabList/>Arcache</text>		</g>
		<g id="shape665-194" v:mID="665" v:groupContext="shape" transform="translate(633.319,325.825) rotate(90)">
			<title>Sheet.665</title>
			<desc>Arlock</desc>
			<v:textBlock v:margins="rect(4,4,4,4)" v:tabSpace="42.5197"/>
			<v:textRect cx="37.7187" cy="506.761" width="75.44" height="40.6299"/>
			<rect x="0" y="486.446" width="75.4375" height="40.6299" class="st7"/>
			<text x="24.91" y="509.76" class="st11" v:langID="1031"><v:paragraph v:horizAlign="1"/><v:tabList/>Arlock</text>		</g>
		<g id="shape666-197" v:mID="666" v:groupContext="shape" transform="translate(695.123,312.984) rotate(90)">
			<title>Sheet.666</title>
			<path d="M0 527.08 L192.9 527.08" class="st9"/>
		</g>
		<g id="shape738-202" v:mID="738" v:groupContext="shape" transform="translate(476.385,-362.872)">
			<title>Sheet.738</title>
			<desc>LLI</desc>
			<v:textBlock v:margins="rect(4,4,4,4)" v:tabSpace="42.5197"/>
			<v:textRect cx="39.685" cy="512.902" width="79.38" height="28.3465"/>
			<rect x="0" y="498.729" width="79.3701" height="28.3465" class="st7"/>
			<text x="33.13" y="516.5" class="st8" v:langID="1031"><v:paragraph v:horizAlign="1"/><v:tabList/>LLI</text>		</g>
		<g id="shape749-205" v:mID="749" v:groupContext="shape" transform="translate(908.76,13.4208) rotate(90)">
			<title>Sheet.749</title>
			<path d="M9.45 527.08 L9.81 527.08 L188.25 527.08" class="st12"/>
		</g>
		<g id="shape750-210" v:mID="750" v:groupContext="shape" transform="translate(891.753,29.2331) rotate(90)">
			<title>Sheet.750</title>
			<desc>Rdata</desc>
			<v:textBlock v:margins="rect(4,4,4,4)" v:tabSpace="42.5197"/>
			<v:textRect cx="35.4015" cy="516.083" width="70.81" height="21.9847"/>
			<rect x="0" y="505.091" width="70.803" height="21.9847" class="st7"/>
			<text x="23.59" y="519.08" class="st11" v:langID="1031"><v:paragraph v:horizAlign="1"/><v:tabList/>Rdata</text>		</g>
		<g id="shape751-213" v:mID="751" v:groupContext="shape" transform="translate(908.76,313.642) rotate(90)">
			<title>Sheet.751</title>
			<path d="M9.45 527.08 L9.81 527.08 L201.92 527.08" class="st12"/>
		</g>
		<g id="shape752-218" v:mID="752" v:groupContext="shape" transform="translate(890.421,330.702) rotate(90)">
			<title>Sheet.752</title>
			<desc>Rdata</desc>
			<v:textBlock v:margins="rect(4,4,4,4)" v:tabSpace="42.5197"/>
			<v:textRect cx="31.5537" cy="516.083" width="63.11" height="21.9847"/>
			<rect x="0" y="505.091" width="63.1074" height="21.9847" class="st7"/>
			<text x="19.75" y="519.08" class="st11" v:langID="1031"><v:paragraph v:horizAlign="1"/><v:tabList/>Rdata</text>		</g>
		<g id="shape753-221" v:mID="753" v:groupContext="shape" transform="translate(681.01,325.778) rotate(90)">
			<title>Sheet.753</title>
			<desc>Arid</desc>
			<v:textBlock v:margins="rect(4,4,4,4)" v:tabSpace="42.5197"/>
			<v:textRect cx="37.7187" cy="516.083" width="75.44" height="21.9847"/>
			<rect x="0" y="505.091" width="75.4375" height="21.9847" class="st7"/>
			<text x="29.31" y="519.08" class="st11" v:langID="1031"><v:paragraph v:horizAlign="1"/><v:tabList/>Arid</text>		</g>
		<g id="shape754-224" v:mID="754" v:groupContext="shape" transform="translate(603.776,12.5715) rotate(90)">
			<title>Sheet.754</title>
			<path d="M0 527.08 L178.66 527.08" class="st9"/>
		</g>
		<g id="shape755-229" v:mID="755" v:groupContext="shape" transform="translate(589.602,32.1063) rotate(90)">
			<title>Sheet.755</title>
			<desc>Arvalid</desc>
			<v:textBlock v:margins="rect(4,4,4,4)" v:tabSpace="42.5197"/>
			<v:textRect cx="32.8843" cy="516.083" width="65.77" height="21.9847"/>
			<rect x="0" y="505.091" width="65.7686" height="21.9847" class="st7"/>
			<text x="18.67" y="519.08" class="st11" v:langID="1031"><v:paragraph v:horizAlign="1"/><v:tabList/>Arvalid</text>		</g>
		<g id="shape756-232" v:mID="756" v:groupContext="shape" transform="translate(609.798,312.984) rotate(90)">
			<title>Sheet.756</title>
			<path d="M0 527.08 L192.9 527.08" class="st9"/>
		</g>
		<g id="shape757-237" v:mID="757" v:groupContext="shape" transform="translate(592.783,333.017) rotate(90)">
			<title>Sheet.757</title>
			<desc>Arvalid</desc>
			<v:textBlock v:margins="rect(4,4,4,4)" v:tabSpace="42.5197"/>
			<v:textRect cx="29.6119" cy="516.083" width="59.23" height="21.9847"/>
			<rect x="0" y="505.091" width="59.2237" height="21.9847" class="st7"/>
			<text x="15.4" y="519.08" class="st11" v:langID="1031"><v:paragraph v:horizAlign="1"/><v:tabList/>Arvalid</text>		</g>
		<g id="shape759-240" v:mID="759" v:groupContext="shape" transform="translate(891.753,313.642) rotate(90)">
			<title>Sheet.759</title>
			<path d="M9.45 527.08 L9.81 527.08 L201.92 527.08" class="st12"/>
		</g>
		<g id="shape760-245" v:mID="760" v:groupContext="shape" transform="translate(873.536,333.04) rotate(90)">
			<title>Sheet.760</title>
			<desc>Rvalid</desc>
			<v:textBlock v:margins="rect(4,4,4,4)" v:tabSpace="42.5197"/>
			<v:textRect cx="29.5886" cy="516.083" width="59.18" height="21.9847"/>
			<rect x="0" y="505.091" width="59.1772" height="21.9847" class="st7"/>
			<text x="17.3" y="519.08" class="st11" v:langID="1031"><v:paragraph v:horizAlign="1"/><v:tabList/>Rvalid</text>		</g>
		<g id="shape690-248" v:mID="690" v:groupContext="shape" transform="translate(359.008,-107.754)">
			<title>Sheet.690</title>
			<desc>EDC Encoding</desc>
			<v:textBlock v:margins="rect(4,4,4,4)" v:tabSpace="42.5197"/>
			<v:textRect cx="39.685" cy="512.902" width="79.38" height="28.3465"/>
			<rect x="0" y="498.729" width="79.3701" height="28.3465" class="st13"/>
			<text x="6.22" y="516.5" class="st8" v:langID="1031"><v:paragraph v:horizAlign="1"/><v:tabList/>EDC Encoding</text>		</g>
		<g id="shape761-251" v:mID="761" v:groupContext="shape" transform="translate(891.753,13.4208) rotate(90)">
			<title>Sheet.761</title>
			<path d="M9.45 527.08 L9.81 527.08 L186.95 527.08" class="st12"/>
		</g>
		<g id="shape762-256" v:mID="762" v:groupContext="shape" transform="translate(875.091,32.0046) rotate(90)">
			<title>Sheet.762</title>
			<desc>Rvalid</desc>
			<v:textBlock v:margins="rect(4,4,4,4)" v:tabSpace="42.5197"/>
			<v:textRect cx="33.1967" cy="516.083" width="66.4" height="21.9847"/>
			<rect x="0" y="505.091" width="66.3935" height="21.9847" class="st7"/>
			<text x="20.91" y="519.08" class="st11" v:langID="1031"><v:paragraph v:horizAlign="1"/><v:tabList/>Rvalid</text>		</g>
		<g id="shape588-259" v:mID="588" v:groupContext="shape" transform="translate(357.03,-365.052)">
			<title>Sheet.588</title>
			<desc>EDC Decoding</desc>
			<v:textBlock v:margins="rect(4,4,4,4)" v:tabSpace="42.5197"/>
			<v:textRect cx="40.4772" cy="512.902" width="80.96" height="28.3465"/>
			<rect x="0" y="498.729" width="80.9544" height="28.3465" class="st13"/>
			<text x="6.42" y="516.5" class="st8" v:langID="1031"><v:paragraph v:horizAlign="1"/><v:tabList/>EDC Decoding</text>		</g>
		<g id="shape765-262" v:mID="765" v:groupContext="shape" transform="translate(344.835,-0.375)">
			<title>Sheet.765</title>
			<desc>R channel</desc>
			<v:textBlock v:margins="rect(4,4,4,4)" v:tabSpace="42.5197"/>
			<v:textRect cx="51.6271" cy="520.553" width="103.26" height="13.0458"/>
			<rect x="0" y="514.03" width="103.254" height="13.0458" class="st14"/>
			<text x="31.76" y="523.55" class="st11" v:langID="1031"><v:paragraph v:horizAlign="1"/><v:tabList/>R channel</text>		</g>
		<g id="shape766-265" v:mID="766" v:groupContext="shape" transform="translate(69.7123,-513.655)">
			<title>Sheet.766</title>
			<desc>AR channel</desc>
			<v:textBlock v:margins="rect(4,4,4,4)" v:tabSpace="42.5197"/>
			<v:textRect cx="57.3407" cy="520.553" width="114.69" height="13.0458"/>
			<rect x="0" y="514.03" width="114.681" height="13.0458" class="st14"/>
			<text x="34.58" y="523.55" class="st11" v:langID="1031"><v:paragraph v:horizAlign="1"/><v:tabList/>AR channel</text>		</g>
		<g id="shape767-268" v:mID="767" v:groupContext="shape" transform="translate(345.333,-513.655)">
			<title>Sheet.767</title>
			<desc>R channel</desc>
			<v:textBlock v:margins="rect(4,4,4,4)" v:tabSpace="42.5197"/>
			<v:textRect cx="54.5426" cy="520.553" width="109.09" height="13.0458"/>
			<rect x="0" y="514.03" width="109.085" height="13.0458" class="st14"/>
			<text x="34.67" y="523.55" class="st11" v:langID="1031"><v:paragraph v:horizAlign="1"/><v:tabList/>R channel</text>		</g>
		<g id="shape768-271" v:mID="768" v:groupContext="shape" transform="translate(705.873,13.4208) rotate(90)">
			<title>Sheet.768</title>
			<path d="M0 527.08 L178.66 527.08" class="st9"/>
		</g>
		<g id="shape544-276" v:mID="544" v:groupContext="shape" transform="translate(71.0309,-365.052)">
			<title>Sheet.544</title>
			<desc>EDC Encoding</desc>
			<v:textBlock v:margins="rect(4,4,4,4)" v:tabSpace="42.5197"/>
			<v:textRect cx="57.3407" cy="512.902" width="114.69" height="28.3465"/>
			<rect x="0" y="498.729" width="114.681" height="28.3465" class="st13"/>
			<text x="47.52" y="509.3" class="st8" v:langID="1031"><v:paragraph v:horizAlign="1"/><v:tabList/>EDC <v:newlineChar/><tspan
						x="35.05" dy="1.2em" class="st15">Encoding</tspan></text>		</g>
		<g id="shape769-280" v:mID="769" v:groupContext="shape" transform="translate(686.241,28.4821) rotate(90)">
			<title>Sheet.769</title>
			<desc>Aruser</desc>
			<v:textBlock v:margins="rect(4,4,4,4)" v:tabSpace="42.5197"/>
			<v:textRect cx="35.0683" cy="512.902" width="70.14" height="28.3465"/>
			<rect x="0" y="498.729" width="70.1367" height="28.3465" class="st7"/>
			<text x="21.62" y="515.9" class="st11" v:langID="2057"><v:paragraph v:horizAlign="1"/><v:tabList/>Aruser</text>		</g>
		<g id="shape770-283" v:mID="770" v:groupContext="shape" transform="translate(703.532,313.642) rotate(90)">
			<title>Sheet.770</title>
			<path d="M0 527.08 L192.9 527.08" class="st9"/>
		</g>
		<g id="shape771-288" v:mID="771" v:groupContext="shape" transform="translate(689.422,326.808) rotate(90)">
			<title>Sheet.771</title>
			<desc>Aruser</desc>
			<v:textBlock v:margins="rect(4,4,4,4)" v:tabSpace="42.5197"/>
			<v:textRect cx="37.7187" cy="516.083" width="75.44" height="21.9847"/>
			<rect x="0" y="505.091" width="75.4375" height="21.9847" class="st7"/>
			<text x="24.27" y="519.08" class="st11" v:langID="2057"><v:paragraph v:horizAlign="1"/><v:tabList/>Aruser</text>		</g>
		<g id="group729-291" transform="translate(71.3836,-108.755)" v:mID="729" v:groupContext="group">
			<title>Sheet.729</title>
			<g id="shape711-292" v:mID="711" v:groupContext="shape">
				<title>Sheet.711</title>
				<desc>EDC Decoding</desc>
				<v:textBlock v:margins="rect(4,4,4,4)" v:tabSpace="42.5197"/>
				<v:textRect cx="57.3407" cy="512.902" width="114.69" height="28.3465"/>
				<rect x="0" y="498.729" width="114.681" height="28.3465" class="st13"/>
				<text x="47.52" y="509.3" class="st8" v:langID="1031"><v:paragraph v:horizAlign="1"/><v:tabList/>EDC <v:newlineChar/><tspan
							x="34.46" dy="1.2em" class="st15">Decoding</tspan></text>			</g>
		</g>
		<g id="shape764-296" v:mID="764" v:groupContext="shape" transform="translate(71.0079,-0.375)">
			<title>Sheet.764</title>
			<desc>AR channel</desc>
			<v:textBlock v:margins="rect(4,4,4,4)" v:tabSpace="42.5197"/>
			<v:textRect cx="57.3407" cy="520.553" width="114.69" height="13.0458"/>
			<rect x="0" y="514.03" width="114.681" height="13.0458" class="st14"/>
			<text x="34.58" y="523.55" class="st11" v:langID="1031"><v:paragraph v:horizAlign="1"/><v:tabList/>AR channel</text>		</g>
	</g>
</svg>
