<?xml version="1.0" encoding="UTF-8" standalone="no"?>
<!DOCTYPE svg PUBLIC "-//W3C//DTD SVG 1.1//EN" "http://www.w3.org/Graphics/SVG/1.1/DTD/svg11.dtd">
<!-- Generated by Microsoft Visio, SVG Export xSPIextMem.svg Page-1 -->
<svg xmlns="http://www.w3.org/2000/svg" xmlns:xlink="http://www.w3.org/1999/xlink" xmlns:ev="http://www.w3.org/2001/xml-events"
		width="6.482in" height="3.2899in" viewBox="0 0 466.704 236.873" xml:space="preserve" color-interpolation-filters="sRGB"
		class="st21">
	<style type="text/css">
	<![CDATA[
		.st1 {fill:#ffc000;stroke:none;stroke-linecap:round;stroke-linejoin:round;stroke-width:0.75}
		.st2 {fill:#000000;font-family:Calibri;font-size:0.499992em}
		.st3 {fill:none;stroke:#000000;stroke-dasharray:5.25,3.75;stroke-linecap:round;stroke-linejoin:round;stroke-width:0.75}
		.st4 {baseline-shift:32.4949%;font-size:0.649897em}
		.st5 {font-size:1em}
		.st6 {fill:#9dc3e6;stroke:none;stroke-linecap:round;stroke-linejoin:round;stroke-width:0.75}
		.st7 {fill:#bfbfbf;stroke:none;stroke-linecap:round;stroke-linejoin:round;stroke-width:0.75}
		.st8 {marker-end:url(#mrkr1-38);marker-start:url(#mrkr1-36);stroke:#ff0000;stroke-linecap:round;stroke-linejoin:round;stroke-width:1}
		.st9 {fill:#ff0000;fill-opacity:1;stroke:#ff0000;stroke-opacity:1;stroke-width:0.28409090909091}
		.st10 {stroke:#000000;stroke-dasharray:0.75,1.5;stroke-linecap:round;stroke-linejoin:round;stroke-width:0.75}
		.st11 {marker-end:url(#mrkr1-89);marker-start:url(#mrkr1-87);stroke:#000000;stroke-linecap:round;stroke-linejoin:round;stroke-width:1}
		.st12 {fill:#000000;fill-opacity:1;stroke:#000000;stroke-opacity:1;stroke-width:0.28409090909091}
		.st13 {marker-end:url(#mrkr1-38);stroke:#ff0000;stroke-linecap:round;stroke-linejoin:round;stroke-width:1}
		.st14 {fill:#ffffff;stroke:none;stroke-linecap:round;stroke-linejoin:round;stroke-width:0.75}
		.st15 {fill:#ffffff;stroke:#000000;stroke-linecap:round;stroke-linejoin:round;stroke-width:0.75}
		.st16 {stroke:#000000;stroke-linecap:round;stroke-linejoin:round;stroke-width:0.5}
		.st17 {stroke:#ff0000;stroke-linecap:round;stroke-linejoin:round;stroke-width:0.5}
		.st18 {fill:#ffff00;stroke:none;stroke-linecap:round;stroke-linejoin:round;stroke-width:0.75}
		.st19 {fill:#000000;font-family:Calibri;font-size:0.499992em;font-weight:bold}
		.st20 {fill:none;stroke:none;stroke-linecap:round;stroke-linejoin:round;stroke-width:0.75}
		.st21 {fill:none;fill-rule:evenodd;font-size:12px;overflow:visible;stroke-linecap:square;stroke-miterlimit:3}
	]]>
	</style>

	<defs id="Markers">
		<g id="lend1">
			<path d="M 1 -1 L 0 0 L 1 1 " style="stroke-linecap:round;stroke-linejoin:round;fill:none"/>
		</g>
		<marker id="mrkr1-36" class="st9" orient="auto" markerUnits="strokeWidth" overflow="visible">
			<use xlink:href="#lend1" transform="scale(3.52) "/>
		</marker>
		<marker id="mrkr1-38" class="st9" orient="auto" markerUnits="strokeWidth" overflow="visible">
			<use xlink:href="#lend1" transform="scale(-3.52,-3.52) "/>
		</marker>
		<marker id="mrkr1-87" class="st12" orient="auto" markerUnits="strokeWidth" overflow="visible">
			<use xlink:href="#lend1" transform="scale(3.52) "/>
		</marker>
		<marker id="mrkr1-89" class="st12" orient="auto" markerUnits="strokeWidth" overflow="visible">
			<use xlink:href="#lend1" transform="scale(-3.52,-3.52) "/>
		</marker>
	</defs>
	<g>
		<title>Page-1</title>
		<g id="shape1-1" transform="translate(260.532,-114.125)">
			<title>Sheet.1</title>
			<desc>HSPHY</desc>
			<path d="M0 194.35 L0 236.87 L28.79 236.87 L28.79 194.35 L0 194.35 L0 194.35 Z" class="st1"/>
			<text x="4" y="203.75" class="st2">HSPHY</text>		</g>
		<g id="shape6-4" transform="translate(0.375,-0.375)">
			<title>Sheet.6</title>
			<desc>AURIXTM TC4xx MCU</desc>
			<path d="M0 236.87 L392.19 236.87 L392.19 0.75 L0 0.75 L0 236.87 Z" class="st3"/>
			<text x="4" y="10.15" class="st2">AURIX<tspan dy="-0.234em" class="st4">TM</tspan><tspan dy="0.152em" class="st5"> </tspan>TC4xx MCU</text>		</g>
		<g id="shape7-9" transform="translate(375.559,-61.6842)">
			<title>Sheet.7</title>
			<desc>Package</desc>
			<path d="M0 236.87 L0 136.24 L28.79 136.24 L28.79 236.87 L0 236.87 Z" class="st6"/>
			<text x="4.44" y="145.64" class="st2">Package</text>		</g>
		<g id="shape8-12" transform="translate(316.778,-71.6055)">
			<title>Sheet.8</title>
			<desc>PORTS</desc>
			<path d="M0 151.83 L0 236.87 L28.79 236.87 L28.79 151.83 L0 151.83 L0 151.83 Z" class="st1"/>
			<text x="4" y="161.23" class="st2">PORTS</text>		</g>
		<g id="shape9-15" transform="translate(175.493,-71.6055)">
			<title>Sheet.9</title>
			<desc>xSPI</desc>
			<path d="M0 151.83 L0 236.87 L56.25 236.87 L56.25 151.83 L0 151.83 L0 151.83 Z" class="st1"/>
			<text x="4" y="161.23" class="st2">xSPI</text>		</g>
		<g id="shape10-18" transform="translate(117.782,-179.322)">
			<title>Sheet.10</title>
			<desc>IR</desc>
			<rect x="0" y="210.308" width="28.7936" height="26.5648" class="st7"/>
			<text x="4" y="219.71" class="st2">IR</text>		</g>
		<g id="shape11-21" transform="translate(39.8998,-91.1079)">
			<title>Sheet.11</title>
			<desc>CPU</desc>
			<rect x="0" y="171.336" width="49.4334" height="65.537" class="st1"/>
			<text x="4" y="180.74" class="st2">CPU</text>		</g>
		<g id="shape12-24" transform="translate(39.9495,-39.3362)">
			<title>Sheet.12</title>
			<desc>LMU</desc>
			<rect x="0" y="200.681" width="49.4334" height="36.1921" class="st1"/>
			<text x="4" y="210.08" class="st2">LMU</text>		</g>
		<g id="shape13-27" transform="translate(117.782,-30.7866)">
			<title>Sheet.13</title>
			<desc>SRI</desc>
			<path d="M0 101.74 L0 236.87 L28.79 236.87 L28.79 101.74 L0 101.74 L0 101.74 Z" class="st7"/>
			<text x="4" y="111.14" class="st2">SRI</text>		</g>
		<g id="shape17-30" transform="translate(345.198,-114.125)">
			<title>Sheet.17</title>
			<path d="M0 236.87 L75.71 236.87" class="st8"/>
		</g>
		<g id="shape28-39" transform="translate(117.782,-51.763)">
			<title>Dynamic connector.61</title>
			<path d="M0 236.87 L14.17 236.87 L14.17 197.19 L28.79 197.19" class="st10"/>
		</g>
		<g id="shape29-42" transform="translate(146.576,-91.448)">
			<title>Dynamic connector.62</title>
			<path d="M0 236.87 L-14.62 236.87 L-14.62 219.95 L-28.79 219.95" class="st10"/>
		</g>
		<g id="shape37-45" transform="translate(231.738,-90.6275)">
			<title>Sheet.37</title>
			<path d="M0 236.87 L85.04 236.87" class="st8"/>
		</g>
		<g id="shape38-52" transform="translate(289.326,-135.385)">
			<title>Sheet.38</title>
			<path d="M0 236.87 L27.45 236.87" class="st8"/>
		</g>
		<g id="shape39-59" transform="translate(231.738,-135.385)">
			<title>Sheet.39</title>
			<path d="M0 236.87 L28.79 236.87" class="st8"/>
		</g>
		<g id="shape40-66" transform="translate(175.493,-83.4208)">
			<title>Sheet.40</title>
			<desc>M-SRI</desc>
			<path d="M0 236.87 L0 220.34 L28.79 220.34 L28.79 236.87 L0 236.87 Z" class="st6"/>
			<text x="7.15" y="230.41" class="st2">M-SRI</text>		</g>
		<g id="shape41-69" transform="translate(175.493,-127.165)">
			<title>Sheet.41</title>
			<desc>S-SRI</desc>
			<path d="M0 236.87 L0 220.34 L28.79 220.34 L28.79 236.87 L0 236.87 Z" class="st6"/>
			<text x="8.34" y="230.41" class="st2">S-SRI</text>		</g>
		<g id="shape42-72" transform="translate(60.5893,-99.952)">
			<title>Sheet.42</title>
			<desc>S-SRI</desc>
			<path d="M0 236.87 L0 220.34 L28.79 220.34 L28.79 236.87 L0 236.87 Z" class="st6"/>
			<text x="8.34" y="230.41" class="st2">S-SRI</text>		</g>
		<g id="shape43-75" transform="translate(60.5893,-43.259)">
			<title>Sheet.43</title>
			<desc>S-SRI</desc>
			<path d="M0 236.87 L0 220.34 L28.79 220.34 L28.79 236.87 L0 236.87 Z" class="st6"/>
			<text x="8.34" y="230.41" class="st2">S-SRI</text>		</g>
		<g id="shape44-78" transform="translate(60.5893,-128.298)">
			<title>Sheet.44</title>
			<desc>M-SRI</desc>
			<path d="M0 236.87 L0 220.34 L28.79 220.34 L28.79 236.87 L0 236.87 Z" class="st6"/>
			<text x="7.15" y="230.41" class="st2">M-SRI</text>		</g>
		<g id="shape47-81" transform="translate(89.3829,-135.102)">
			<title>Sheet.47</title>
			<path d="M0 236.87 L28.4 236.87" class="st11"/>
		</g>
		<g id="shape50-90" transform="translate(146.576,-135.102)">
			<title>Sheet.50</title>
			<path d="M0 236.87 L28.92 236.87" class="st11"/>
		</g>
		<g id="shape51-97" transform="translate(117.782,-135.102)">
			<title>Sheet.51</title>
			<path d="M0 236.87 L28.79 236.87" class="st10"/>
		</g>
		<g id="shape52-100" transform="translate(89.3829,-108.376)">
			<title>Sheet.52</title>
			<path d="M0 236.87 L28.4 236.87" class="st11"/>
		</g>
		<g id="shape53-107" transform="translate(146.576,-91.448)">
			<title>Sheet.53</title>
			<path d="M0 236.87 L29.83 236.87" class="st11"/>
		</g>
		<g id="shape54-114" transform="translate(89.3829,-51.763)">
			<title>Sheet.54</title>
			<path d="M0 236.87 L28.4 236.87" class="st11"/>
		</g>
		<g id="shape56-121" transform="translate(203.615,-156.645)">
			<title>Dynamic connector</title>
			<path d="M0 236.87 L0 200.91 L-57.04 200.91" class="st13"/>
		</g>
		<g id="shape57-126" transform="translate(117.782,-192.604)">
			<title>Dynamic connector.57</title>
			<path d="M0 236.87 L-53.17 236.87 L-53.17 272.83" class="st13"/>
		</g>
		<g id="shape58-131" transform="translate(113.934,-170.818)">
			<title>Sheet.58</title>
			<rect x="0" y="232.338" width="39.2286" height="4.53543" class="st14"/>
		</g>
		<g id="shape59-133" transform="translate(294.895,-179.322)">
			<title>Sheet.59</title>
			<desc>Data can be transferred either directly to PORTS or through H...</desc>
			<rect x="0" y="210.308" width="81.3543" height="26.5648" class="st15"/>
			<text x="11.76" y="218.19" class="st2">Data can be transferred <tspan x="8.32" dy="1.2em" class="st5">either directly to PORTS or </tspan><tspan
						x="4.5" dy="1.2em" class="st5">through HSPHY, but not both.</tspan></text>		</g>
		<g id="shape60-138" transform="translate(503.555,202.43) rotate(127.707)">
			<title>Sheet.60</title>
			<path d="M0 236.87 L50.98 236.87" class="st16"/>
		</g>
		<g id="shape61-141" transform="translate(545.704,115.999) rotate(104.285)">
			<title>Sheet.61</title>
			<path d="M0 236.87 L91.52 236.87" class="st16"/>
		</g>
		<g id="shape62-144" transform="translate(194.833,-106.913)">
			<title>Sheet.62</title>
			<desc>DMA</desc>
			<path d="M0 236.87 L0 228.61 L21.54 228.61 L21.54 236.87 L0 236.87 Z" class="st6"/>
			<text x="4.62" y="234.54" class="st2">DMA</text>		</g>
		<g id="shape63-147" transform="translate(192.473,-110.519)">
			<title>Dynamic connector.63</title>
			<path d="M7.09 240.48 L7.09 247.44" class="st17"/>
		</g>
		<g id="shape2-150" transform="translate(420.913,-88.6134)">
			<title>Sheet.2</title>
			<desc>External memory</desc>
			<rect x="0" y="183.015" width="45.4157" height="53.8583" class="st18"/>
			<text x="4" y="192.42" class="st19">External <tspan x="4" dy="1.2em" class="st5">memory</tspan></text>		</g>
		<g id="shape45-154" transform="translate(420.913,-94.2827)">
			<title>Sheet.45</title>
			<desc>For example: HYPERRAMTM HYPERFLASHTM</desc>
			<rect x="0" y="210.308" width="45.4157" height="26.5648" class="st20"/>
			<text x="4" y="218.19" class="st2">For example: <tspan x="4" dy="1.2em" class="st5">HYPERRAM</tspan><tspan
						dy="-0.234em" class="st4">TM </tspan><tspan x="4" dy="1.352em" class="st5">HYPERFLASH</tspan><tspan
						dy="-0.234em" class="st4">TM</tspan></text>		</g>
	</g>
</svg>
