<?xml version="1.0" encoding="UTF-8" standalone="no"?>
<!DOCTYPE svg PUBLIC "-//W3C//DTD SVG 1.1//EN" "http://www.w3.org/Graphics/SVG/1.1/DTD/svg11.dtd">
<!-- Generated by Microsoft Visio, SVG Export EEPROM_accs_FLASH.svg Page-1 -->
<svg xmlns="http://www.w3.org/2000/svg" xmlns:xlink="http://www.w3.org/1999/xlink" xmlns:ev="http://www.w3.org/2001/xml-events"
		width="3.83943in" height="3.10757in" viewBox="0 0 276.439 223.745" xml:space="preserve" color-interpolation-filters="sRGB"
		class="st18">
	<style type="text/css">
	<![CDATA[
		.st1 {fill:#ffc000;stroke:none;stroke-linecap:round;stroke-linejoin:round;stroke-width:0.75}
		.st2 {fill:#000000;font-family:Calibri;font-size:0.499992em}
		.st3 {fill:#bfbfbf;stroke:none;stroke-linecap:round;stroke-linejoin:round;stroke-width:0.75}
		.st4 {fill:#a5a5a5;stroke:none;stroke-linecap:round;stroke-linejoin:round;stroke-width:0.75}
		.st5 {fill:#9dc3e6;stroke:none;stroke-linecap:round;stroke-linejoin:round;stroke-width:0.75}
		.st6 {marker-start:url(#mrkr1-30);stroke:#ff0000;stroke-linecap:round;stroke-linejoin:round;stroke-width:1}
		.st7 {fill:#ff0000;fill-opacity:1;stroke:#ff0000;stroke-opacity:1;stroke-width:0.28409090909091}
		.st8 {marker-end:url(#mrkr1-39);marker-start:url(#mrkr1-37);stroke:#000000;stroke-linecap:round;stroke-linejoin:round;stroke-width:1}
		.st9 {fill:#000000;fill-opacity:1;stroke:#000000;stroke-opacity:1;stroke-width:0.28409090909091}
		.st10 {fill:#bfbfbf;stroke:#000000;stroke-linecap:round;stroke-linejoin:round;stroke-width:0.75}
		.st11 {fill:#a5a5a5;stroke:#000000;stroke-linecap:round;stroke-linejoin:round;stroke-width:0.75}
		.st12 {stroke:#000000;stroke-dasharray:5.25,3.75;stroke-linecap:round;stroke-linejoin:round;stroke-width:0.75}
		.st13 {marker-start:url(#mrkr1-64);stroke:#000000;stroke-linecap:round;stroke-linejoin:round;stroke-width:0.75}
		.st14 {fill:#000000;fill-opacity:1;stroke:#000000;stroke-opacity:1;stroke-width:0.22935779816514}
		.st15 {marker-end:url(#mrkr1-39);stroke:#000000;stroke-linecap:round;stroke-linejoin:round;stroke-width:1}
		.st16 {stroke:#000000;stroke-linecap:round;stroke-linejoin:round;stroke-width:1}
		.st17 {fill:none;stroke:none;stroke-linecap:round;stroke-linejoin:round;stroke-width:0.75}
		.st18 {fill:none;fill-rule:evenodd;font-size:12px;overflow:visible;stroke-linecap:square;stroke-miterlimit:3}
	]]>
	</style>

	<defs id="Markers">
		<g id="lend1">
			<path d="M 1 -1 L 0 0 L 1 1 " style="stroke-linecap:round;stroke-linejoin:round;fill:none"/>
		</g>
		<marker id="mrkr1-30" class="st7" orient="auto" markerUnits="strokeWidth" overflow="visible">
			<use xlink:href="#lend1" transform="scale(3.52) "/>
		</marker>
		<marker id="mrkr1-37" class="st9" orient="auto" markerUnits="strokeWidth" overflow="visible">
			<use xlink:href="#lend1" transform="scale(3.52) "/>
		</marker>
		<marker id="mrkr1-39" class="st9" orient="auto" markerUnits="strokeWidth" overflow="visible">
			<use xlink:href="#lend1" transform="scale(-3.52,-3.52) "/>
		</marker>
		<marker id="mrkr1-64" class="st14" orient="auto" markerUnits="strokeWidth" overflow="visible">
			<use xlink:href="#lend1" transform="scale(4.36) "/>
		</marker>
	</defs>
	<g>
		<title>Page-1</title>
		<g id="shape1-1" transform="translate(138.915,-0.375)">
			<title>Sheet.1</title>
			<desc>NVM</desc>
			<rect x="0" y="164.016" width="121.722" height="59.7292" class="st1"/>
			<text x="4" y="173.42" class="st2">NVM</text>		</g>
		<g id="shape2-4" transform="translate(40.1409,-126.801)">
			<title>Sheet.2</title>
			<desc>CPUx</desc>
			<path d="M0 126.8 L0 223.75 L194.17 223.75 L194.17 126.8 L0 126.8 L0 126.8 Z" class="st3"/>
			<text x="4" y="136.2" class="st2">CPUx</text>		</g>
		<g id="shape4-7" transform="translate(40.1409,-85.5064)">
			<title>Sheet.4</title>
			<desc>SRI</desc>
			<path d="M0 198.98 L0 223.75 L212.6 223.75 L212.6 198.98 L0 198.98 L0 198.98 Z" class="st3"/>
			<text x="4" y="208.38" class="st2">SRI</text>		</g>
		<g id="shape5-10" transform="translate(87.0765,-169.547)">
			<title>Sheet.5</title>
			<desc>CORE</desc>
			<path d="M0 223.75 L0 183.72 L102.84 183.72 L102.84 223.75 L0 223.75 Z" class="st4"/>
			<text x="44.74" y="205.53" class="st2">CORE</text>		</g>
		<g id="shape6-13" transform="translate(58.119,-126.801)">
			<title>Sheet.6</title>
			<desc>M-SRI</desc>
			<path d="M0 223.75 L0 207.21 L28.79 207.21 L28.79 223.75 L0 223.75 Z" class="st4"/>
			<text x="7.15" y="217.28" class="st2">M-SRI</text>		</g>
		<g id="shape7-16" transform="translate(213.502,-43.3714)">
			<title>Sheet.7</title>
			<desc>S-SRI</desc>
			<path d="M0 223.75 L0 207.21 L28.79 207.21 L28.79 223.75 L0 223.75 Z" class="st5"/>
			<text x="8.34" y="217.28" class="st2">S-SRI</text>		</g>
		<g id="shape8-19" transform="translate(211.208,-9.06538)">
			<title>Sheet.8</title>
			<desc>DFLASH</desc>
			<path d="M0 197.65 L0 223.75 L36.5 223.75 L36.5 197.65 L0 197.65 L0 197.65 Z" class="st5"/>
			<text x="8.78" y="212.5" class="st2">DFLASH</text>		</g>
		<g id="shape9-22" transform="translate(42.9098,-4.42531)">
			<title>Sheet.9</title>
			<desc>IR</desc>
			<rect x="0" y="164.016" width="64.7404" height="59.7292" class="st3"/>
			<text x="4" y="173.42" class="st2">IR</text>		</g>
		<g id="shape10-25" transform="translate(107.65,-34.2899)">
			<title>Sheet.10</title>
			<path d="M0 223.75 L31.27 223.75" class="st6"/>
		</g>
		<g id="shape11-31" transform="translate(-152.647,113.476) rotate(-90)">
			<title>Sheet.11</title>
			<path d="M0 223.75 L16.35 223.75" class="st8"/>
		</g>
		<g id="shape12-40" transform="translate(3.48222,163.641) rotate(-90)">
			<title>Sheet.12</title>
			<path d="M0 223.75 L25.4 223.75" class="st8"/>
		</g>
		<g id="shape13-47" transform="translate(87.0203,-26.0243)">
			<title>Sheet.13</title>
			<desc>SRNi</desc>
			<rect x="0" y="207.214" width="20.6299" height="16.5312" class="st10"/>
			<text x="4" y="216.61" class="st2">SRNi</text>		</g>
		<g id="shape14-50" transform="translate(92.9639,-169.717)">
			<title>Sheet.14</title>
			<desc>DMBI</desc>
			<path d="M0 223.75 L0 207.21 L28.79 207.21 L28.79 223.75 L0 223.75 Z" class="st11"/>
			<text x="7.6" y="217.28" class="st2">DMBI</text>		</g>
		<g id="shape15-53" transform="translate(71.0982,-110.269)">
			<title>Dynamic connector</title>
			<path d="M0 223.75 L0 235.84 L156.13 235.84 L156.13 248.51" class="st12"/>
		</g>
		<g id="shape16-56" transform="translate(42.9098,-26.0243)">
			<title>Sheet.16</title>
			<desc>ICUx</desc>
			<rect x="0" y="207.214" width="20.6299" height="16.5312" class="st10"/>
			<text x="4" y="216.61" class="st2">ICUx</text>		</g>
		<g id="shape17-59" transform="translate(34.4387,-184.06)">
			<title>Dynamic connector.63</title>
			<path d="M5.7 223.75 L-14.44 223.75 L-14.44 373.52 L8.47 373.52" class="st13"/>
		</g>
		<g id="shape35-65" transform="translate(271.461,271.651) rotate(180)">
			<title>Sheet.35</title>
			<path d="M0 223.75 L37.15 223.75" class="st15"/>
		</g>
		<g id="shape36-70" transform="translate(47.7153,196.725) rotate(-90)">
			<title>Sheet.36</title>
			<path d="M0 223.75 L148.82 223.75" class="st16"/>
		</g>
		<g id="shape37-73" transform="translate(260.637,-27.0208)">
			<title>Sheet.37</title>
			<path d="M0 223.75 L10.82 223.75" class="st16"/>
		</g>
		<g id="shape38-76" transform="translate(240.503,-174.514)">
			<title>Sheet.38</title>
			<desc>BUSY</desc>
			<rect x="0" y="212.011" width="28.7936" height="11.7344" class="st17"/>
			<text x="8" y="219.68" class="st2">BUSY</text>		</g>
	</g>
</svg>
