<?xml version="1.0" encoding="UTF-8" standalone="no"?>
<!DOCTYPE svg PUBLIC "-//W3C//DTD SVG 1.1//EN" "http://www.w3.org/Graphics/SVG/1.1/DTD/svg11.dtd">
<!-- Generated by Microsoft Visio, SVG Export DMA_Transaction.svg Page-1 -->
<svg xmlns="http://www.w3.org/2000/svg" xmlns:xlink="http://www.w3.org/1999/xlink" xmlns:ev="http://www.w3.org/2001/xml-events"
		width="6.88513in" height="3.12775in" viewBox="0 0 495.729 225.198" xml:space="preserve" color-interpolation-filters="sRGB"
		class="st11">
	<style type="text/css">
	<![CDATA[
		.st1 {fill:#ffc000;stroke:none;stroke-linecap:round;stroke-linejoin:round;stroke-width:0.75}
		.st2 {fill:#000000;font-family:Calibri;font-size:0.499992em}
		.st3 {fill:#bfbfbf;stroke:none;stroke-linecap:round;stroke-linejoin:round;stroke-width:0.75}
		.st4 {marker-start:url(#mrkr1-15);stroke:#ff0000;stroke-linecap:round;stroke-linejoin:round;stroke-width:1}
		.st5 {fill:#ff0000;fill-opacity:1;stroke:#ff0000;stroke-opacity:1;stroke-width:0.28409090909091}
		.st6 {fill:#bfbfbf;stroke:#000000;stroke-linecap:round;stroke-linejoin:round;stroke-width:0.75}
		.st7 {fill:#9dc3e6;stroke:none;stroke-linecap:round;stroke-linejoin:round;stroke-width:0.75}
		.st8 {font-size:1em}
		.st9 {stroke:#ff0000;stroke-dasharray:5.25,3.75;stroke-linecap:round;stroke-linejoin:round;stroke-width:0.75}
		.st10 {stroke:#ff0000;stroke-linecap:round;stroke-linejoin:round;stroke-width:1}
		.st11 {fill:none;fill-rule:evenodd;font-size:12px;overflow:visible;stroke-linecap:square;stroke-miterlimit:3}
	]]>
	</style>

	<defs id="Markers">
		<g id="lend1">
			<path d="M 1 -1 L 0 0 L 1 1 " style="stroke-linecap:round;stroke-linejoin:round;fill:none"/>
		</g>
		<marker id="mrkr1-15" class="st5" orient="auto" markerUnits="strokeWidth" overflow="visible">
			<use xlink:href="#lend1" transform="scale(3.52) "/>
		</marker>
	</defs>
	<g>
		<title>Page-1</title>
		<g id="shape220-1" transform="translate(8.17028,-86.7654)">
			<title>Sheet.220</title>
			<desc>LLI</desc>
			<path d="M0 200.44 L0 225.2 L103.46 225.2 L103.46 200.44 L0 200.44 L0 200.44 Z" class="st1"/>
			<text x="4" y="209.84" class="st2">LLI</text>		</g>
		<g id="shape178-4" transform="translate(208.013,-140.207)">
			<title>Sheet.178</title>
			<desc>SDMA</desc>
			<rect x="0" y="140.582" width="243.78" height="84.6164" class="st1"/>
			<text x="4" y="149.98" class="st2">SDMA</text>		</g>
		<g id="shape186-7" transform="translate(30.1059,-138.744)">
			<title>Sheet.186</title>
			<desc>IR</desc>
			<rect x="0" y="140.582" width="64.7404" height="84.6164" class="st3"/>
			<text x="4" y="149.98" class="st2">IR</text>		</g>
		<g id="shape187-10" transform="translate(94.8718,-161.099)">
			<title>Sheet.187</title>
			<path d="M0 225.2 L113.98 225.2" class="st4"/>
		</g>
		<g id="shape190-16" transform="translate(74.2164,-152.833)">
			<title>Sheet.190</title>
			<desc>SRNi</desc>
			<rect x="0" y="208.667" width="20.6299" height="16.5312" class="st6"/>
			<text x="4" y="218.07" class="st2">SRNi</text>		</g>
		<g id="shape202-19" transform="translate(331.32,-140.247)">
			<title>Sheet.202</title>
			<desc>FPI Master I/F</desc>
			<path d="M0 225.2 L0 208.67 L36.37 208.67 L36.37 225.2 L0 225.2 Z" class="st7"/>
			<text x="14.5" y="215.13" class="st2">FPI  <tspan x="5.49" dy="1.2em" class="st8">Master I/F</tspan></text>		</g>
		<g id="shape203-23" transform="translate(280.296,-86.7632)">
			<title>Sheet.203</title>
			<desc>FPI (SPB, CPB, etc.)</desc>
			<path d="M0 200.44 L0 225.2 L215.43 225.2 L215.43 200.44 L0 200.44 L0 200.44 Z" class="st1"/>
			<text x="4" y="209.84" class="st2">FPI (SPB, CPB, etc.)</text>		</g>
		<g id="shape204-26" transform="translate(291.635,-0.794869)">
			<title>Sheet.204</title>
			<desc>FPI Peripheral</desc>
			<rect x="0" y="165.469" width="64.7404" height="59.7292" class="st3"/>
			<text x="4" y="219.4" class="st2">FPI Peripheral</text>		</g>
		<g id="shape205-29" transform="translate(309.608,-43.9929)">
			<title>Sheet.205</title>
			<desc>FPI Slave I/F</desc>
			<path d="M0 225.2 L0 208.67 L28.79 208.67 L28.79 225.2 L0 225.2 Z" class="st7"/>
			<text x="10.71" y="215.13" class="st2">FPI <tspan x="4.07" dy="1.2em" class="st8">Slave I/F</tspan></text>		</g>
		<g id="shape206-33" transform="translate(99.035,164.674) rotate(-90)">
			<title>Sheet.206</title>
			<path d="M0 225.2 L26.24 225.2" class="st4"/>
		</g>
		<g id="shape207-38" transform="translate(125.011,116.877) rotate(-90.8154)">
			<title>Sheet.207</title>
			<path d="M0 225.2 L28.72 225.2" class="st4"/>
		</g>
		<g id="shape208-43" transform="translate(350.187,-111.526)">
			<title>Dynamic connector.50</title>
			<path d="M0 225.2 L0 238.09 L-25.95 238.09 L-25.95 249.96" class="st9"/>
		</g>
		<g id="shape209-46" transform="translate(125.099,-86.7654)">
			<title>Sheet.209</title>
			<desc>SRI</desc>
			<path d="M0 200.44 L0 225.2 L138.19 225.2 L138.19 200.44 L0 200.44 L0 200.44 Z" class="st1"/>
			<text x="4" y="209.84" class="st2">SRI</text>		</g>
		<g id="shape210-49" transform="translate(229.273,-140.249)">
			<title>Sheet.210</title>
			<desc>SRI-M</desc>
			<path d="M0 225.2 L0 208.67 L28.79 208.67 L28.79 225.2 L0 225.2 Z" class="st7"/>
			<text x="7.15" y="218.73" class="st2">SRI-M</text>		</g>
		<g id="shape211-52" transform="translate(22.7231,113.712) rotate(-90)">
			<title>Sheet.211</title>
			<path d="M0 225.2 L28.72 225.2" class="st4"/>
		</g>
		<g id="shape212-57" transform="translate(178.249,-0.794869)">
			<title>Sheet.212</title>
			<desc>SRI Peripheral</desc>
			<rect x="0" y="165.469" width="64.7404" height="59.7292" class="st3"/>
			<text x="4" y="219.4" class="st2">SRI Peripheral</text>		</g>
		<g id="shape213-60" transform="translate(196.222,-43.9929)">
			<title>Sheet.213</title>
			<desc>SRI-S</desc>
			<path d="M0 225.2 L0 208.67 L28.79 208.67 L28.79 225.2 L0 225.2 Z" class="st7"/>
			<text x="8.34" y="218.73" class="st2">SRI-S</text>		</g>
		<g id="shape214-63" transform="translate(-14.0472,164.674) rotate(-90)">
			<title>Sheet.214</title>
			<path d="M0 225.2 L26.24 225.2" class="st4"/>
		</g>
		<g id="shape215-68" transform="translate(92.501,-93.6421)">
			<title>Dynamic connector.215</title>
			<path d="M0 232.08 L0 215.95 L-59.22 215.95 L-59.22 232.49" class="st9"/>
		</g>
		<g id="shape216-71" transform="translate(0.375,-0.375)">
			<title>Sheet.216</title>
			<desc>LLI Peripheral</desc>
			<rect x="0" y="165.469" width="64.7404" height="59.7292" class="st3"/>
			<text x="4" y="219.4" class="st2">LLI Peripheral</text>		</g>
		<g id="shape217-74" transform="translate(18.3484,-43.5731)">
			<title>Sheet.217</title>
			<desc>AXI slave</desc>
			<path d="M0 225.2 L0 208.67 L28.79 208.67 L28.79 225.2 L0 225.2 Z" class="st7"/>
			<text x="10.35" y="215.13" class="st2">AXI <tspan x="8.25" dy="1.2em" class="st8">slave</tspan></text>		</g>
		<g id="shape218-78" transform="translate(-191.921,165.094) rotate(-90)">
			<title>Sheet.218</title>
			<path d="M0 225.2 L26.24 225.2" class="st4"/>
		</g>
		<g id="shape222-83" transform="translate(152.166,-86.7654)">
			<title>Sheet.222</title>
			<desc>S2L bridge</desc>
			<path d="M0 225.2 L0 208.67 L28.79 208.67 L28.79 225.2 L0 225.2 Z" class="st7"/>
			<text x="10.24" y="215.13" class="st2">S2L <tspan x="6.61" dy="1.2em" class="st8">bridge</tspan></text>		</g>
		<g id="shape223-87" transform="translate(317.699,138.433) rotate(90)">
			<title>Sheet.223</title>
			<path d="M0 225.2 L12.22 225.2" class="st4"/>
		</g>
		<g id="shape224-92" transform="translate(-53.0235,150.657) rotate(-90)">
			<title>Sheet.224</title>
			<path d="M0 225.2 L12.22 225.2" class="st10"/>
		</g>
		<g id="shape225-95" transform="translate(92.501,-74.5414)">
			<title>Sheet.225</title>
			<path d="M0 225.2 L79.67 225.2" class="st10"/>
		</g>
		<g id="shape226-98" transform="translate(247.921,-111.486)">
			<title>Dynamic connector.226</title>
			<path d="M0 225.2 L0 240.88 L-66.96 240.88" class="st9"/>
		</g>
		<g id="shape227-101" transform="translate(247.921,-111.486)">
			<title>Dynamic connector.227</title>
			<path d="M0 225.2 L0 240.88 L-36.77 240.88 L-36.77 249.92" class="st9"/>
		</g>
		<g id="shape229-104" transform="translate(74.2164,-180.841)">
			<title>Sheet.229</title>
			<desc>ICUx</desc>
			<rect x="0" y="208.667" width="20.6299" height="16.5312" class="st6"/>
			<text x="4" y="218.07" class="st2">ICUx</text>		</g>
		<g id="shape230-107" transform="translate(208.013,262.469) rotate(180)">
			<title>Sheet.230</title>
			<path d="M0 225.2 L113.17 225.2" class="st4"/>
		</g>
		<g id="shape231-112" transform="translate(399.128,-140.247)">
			<title>Sheet.231</title>
			<desc>FPI Slave I/F</desc>
			<path d="M0 225.2 L0 208.67 L28.79 208.67 L28.79 225.2 L0 225.2 Z" class="st7"/>
			<text x="10.71" y="215.13" class="st2">FPI <tspan x="4.07" dy="1.2em" class="st8">Slave I/F</tspan></text>		</g>
		<g id="shape232-116" transform="translate(428.154,-0.375)">
			<title>Sheet.232</title>
			<desc>CPU/PPU software</desc>
			<rect x="0" y="165.469" width="64.7404" height="59.7292" class="st3"/>
			<text x="4" y="219.4" class="st2">CPU/PPU software</text>		</g>
		<g id="shape234-119" transform="translate(441.222,-43.5731)">
			<title>Sheet.234</title>
			<desc>FPI Master I/F</desc>
			<path d="M0 225.2 L0 208.67 L36.37 208.67 L36.37 225.2 L0 225.2 Z" class="st7"/>
			<text x="14.5" y="215.13" class="st2">FPI  <tspan x="5.49" dy="1.2em" class="st8">Master I/F</tspan></text>		</g>
		<g id="shape235-123" transform="translate(684.077,138.636) rotate(90)">
			<title>Sheet.235</title>
			<path d="M0 225.2 L26.46 225.2" class="st4"/>
		</g>
		<g id="shape237-128" transform="translate(640.14,84.9512) rotate(90)">
			<title>Sheet.237</title>
			<path d="M0 225.2 L27.7 225.2" class="st4"/>
		</g>
		<g id="shape238-133" transform="translate(414.942,-112.549)">
			<title>Dynamic connector.238</title>
			<path d="M0 225.2 L0 238.16 L43.94 238.16 L43.94 251.18" class="st9"/>
		</g>
	</g>
</svg>
