<?xml version="1.0" encoding="UTF-8" standalone="no"?>
<!DOCTYPE svg PUBLIC "-//W3C//DTD SVG 1.1//EN" "http://www.w3.org/Graphics/SVG/1.1/DTD/svg11.dtd">
<!-- Generated by Microsoft Visio, SVG Export eGTM_Output.svg Page-1 -->
<svg xmlns="http://www.w3.org/2000/svg" xmlns:xlink="http://www.w3.org/1999/xlink" xmlns:ev="http://www.w3.org/2001/xml-events"
		width="6.97691in" height="3.75057in" viewBox="0 0 502.337 270.041" xml:space="preserve" color-interpolation-filters="sRGB"
		class="st20">
	<style type="text/css">
	<![CDATA[
		.st1 {fill:none;stroke:#000000;stroke-dasharray:5.25,3.75;stroke-linecap:round;stroke-linejoin:round;stroke-width:0.75}
		.st2 {fill:#000000;font-family:Calibri;font-size:0.499992em}
		.st3 {baseline-shift:32.4949%;font-size:0.649897em}
		.st4 {font-size:1em}
		.st5 {fill:#9dc3e6;stroke:none;stroke-linecap:round;stroke-linejoin:round;stroke-width:0.75}
		.st6 {fill:#ffc000;stroke:none;stroke-linecap:round;stroke-linejoin:round;stroke-width:0.75}
		.st7 {fill:#bfbfbf;stroke:none;stroke-linecap:round;stroke-linejoin:round;stroke-width:0.75}
		.st8 {fill:#000000;font-family:Calibri;font-size:0.499992em;font-weight:bold}
		.st9 {marker-end:url(#mrkr1-23);stroke:#ff0000;stroke-linecap:round;stroke-linejoin:round;stroke-width:1}
		.st10 {fill:#ff0000;fill-opacity:1;stroke:#ff0000;stroke-opacity:1;stroke-width:0.28409090909091}
		.st11 {fill:#d8d8d8;stroke:none;stroke-linecap:round;stroke-linejoin:round;stroke-width:0.75}
		.st12 {stroke:#000000;stroke-dasharray:5.25,3.75;stroke-linecap:round;stroke-linejoin:round;stroke-width:0.75}
		.st13 {marker-end:url(#mrkr1-74);marker-start:url(#mrkr1-72);stroke:#000000;stroke-linecap:round;stroke-linejoin:round;stroke-width:1}
		.st14 {fill:#000000;fill-opacity:1;stroke:#000000;stroke-opacity:1;stroke-width:0.28409090909091}
		.st15 {stroke:#ff0000;stroke-linecap:round;stroke-linejoin:round;stroke-width:1}
		.st16 {fill:none;stroke:none;stroke-linecap:round;stroke-linejoin:round;stroke-width:0.75}
		.st17 {marker-end:url(#mrkr1-74);stroke:#000000;stroke-linecap:round;stroke-linejoin:round;stroke-width:1}
		.st18 {stroke:#000000;stroke-linecap:round;stroke-linejoin:round;stroke-width:1}
		.st19 {fill:none;stroke:#000000;stroke-dasharray:0.75,1.5;stroke-linecap:round;stroke-linejoin:round;stroke-width:0.75}
		.st20 {fill:none;fill-rule:evenodd;font-size:12px;overflow:visible;stroke-linecap:square;stroke-miterlimit:3}
	]]>
	</style>

	<defs id="Markers">
		<g id="lend1">
			<path d="M 1 -1 L 0 0 L 1 1 " style="stroke-linecap:round;stroke-linejoin:round;fill:none"/>
		</g>
		<marker id="mrkr1-23" class="st10" orient="auto" markerUnits="strokeWidth" overflow="visible">
			<use xlink:href="#lend1" transform="scale(-3.52,-3.52) "/>
		</marker>
		<marker id="mrkr1-72" class="st14" orient="auto" markerUnits="strokeWidth" overflow="visible">
			<use xlink:href="#lend1" transform="scale(3.52) "/>
		</marker>
		<marker id="mrkr1-74" class="st14" orient="auto" markerUnits="strokeWidth" overflow="visible">
			<use xlink:href="#lend1" transform="scale(-3.52,-3.52) "/>
		</marker>
	</defs>
	<g>
		<title>Page-1</title>
		<g id="shape1-1" transform="translate(119.061,-0.375)">
			<title>Sheet.1</title>
			<desc>AURIXTM TC4xx MCU</desc>
			<path d="M0 270.04 L382.9 270.04 L382.9 0.75 L0 0.75 L0 270.04 Z" class="st1"/>
			<text x="4" y="10.15" class="st2">AURIX<tspan dy="-0.234em" class="st3">TM</tspan><tspan dy="0.152em" class="st4"> </tspan>TC4xx MCU</text>		</g>
		<g id="shape2-6" transform="translate(104.665,-106.554)">
			<title>Sheet.2</title>
			<desc>Package</desc>
			<path d="M0 270.04 L0 159.37 L28.79 159.37 L28.79 270.04 L0 270.04 Z" class="st5"/>
			<text x="4.44" y="168.77" class="st2">Package</text>		</g>
		<g id="shape3-9" transform="translate(240.451,-106.554)">
			<title>Sheet.3</title>
			<desc>eGTM</desc>
			<path d="M0 159.37 L0 270.04 L96.19 270.04 L96.19 159.37 L0 159.37 L0 159.37 Z" class="st6"/>
			<text x="4" y="168.77" class="st2">eGTM</text>		</g>
		<g id="shape4-12" transform="translate(354.505,-101.005)">
			<title>Sheet.4</title>
			<desc>LLI</desc>
			<rect x="0" y="153.254" width="22.7329" height="116.787" class="st7"/>
			<text x="4" y="162.65" class="st2">LLI</text>		</g>
		<g id="shape5-15" transform="translate(0.375,-97.0364)">
			<title>Sheet.5</title>
			<desc>External actuator</desc>
			<rect x="0" y="149.751" width="55.1305" height="120.291" class="st7"/>
			<text x="4" y="159.15" class="st8">External actuator</text>		</g>
		<g id="shape6-18" transform="translate(254.3,355.172) rotate(180)">
			<title>Sheet.6</title>
			<path d="M0 270.04 L35.8 270.04" class="st9"/>
		</g>
		<g id="shape7-24" transform="translate(163.367,-169.064)">
			<title>Sheet.7</title>
			<desc>PORT module Pab</desc>
			<path d="M0 238.17 L0 270.04 L55.13 270.04 L55.13 238.17 L0 238.17 L0 238.17 Z" class="st6"/>
			<text x="4" y="247.57" class="st2">PORT module Pab</text>		</g>
		<g id="shape8-27" transform="translate(254.3,-173.288)">
			<title>Sheet.8</title>
			<desc>(A)TOM</desc>
			<path d="M0 270.04 L0 246.62 L55.13 246.62 L55.13 270.04 L0 270.04 Z" class="st5"/>
			<text x="18" y="260.13" class="st2">(A)TOM</text>		</g>
		<g id="shape9-30" transform="translate(254.3,-122.94)">
			<title>Sheet.9</title>
			<desc>TIM</desc>
			<path d="M0 270.04 L0 246.62 L55.13 246.62 L55.13 270.04 L0 270.04 Z" class="st5"/>
			<text x="22.78" y="260.13" class="st2">TIM</text>		</g>
		<g id="shape10-33" transform="translate(397.064,-101.005)">
			<title>Sheet.10</title>
			<desc>SRI</desc>
			<path d="M0 180.59 L0 270.04 L27.74 270.04 L27.74 180.59 L0 180.59 L0 180.59 Z" class="st7"/>
			<text x="4" y="189.99" class="st2">SRI</text>		</g>
		<g id="shape11-36" transform="translate(397.064,-133.842)">
			<title>Sheet.11</title>
			<desc>S2L bridge</desc>
			<path d="M0 270.04 L0 253.51 L27.74 253.51 L27.74 270.04 L0 270.04 Z" class="st11"/>
			<text x="9.71" y="259.98" class="st2">S2L <tspan x="6.08" dy="1.2em" class="st4">bridge</tspan></text>		</g>
		<g id="shape12-40" transform="translate(370.151,-197.383)">
			<title>Dynamic connector.226</title>
			<path d="M7.09 270.04 L-4.25 270.04 L-4.25 325.32 L7.09 325.32" class="st12"/>
		</g>
		<g id="shape13-43" transform="translate(446.859,-32.9734)">
			<title>Sheet.13</title>
			<desc>CPU</desc>
			<rect x="0" y="162.325" width="49.4334" height="107.717" class="st7"/>
			<text x="4" y="171.72" class="st2">CPU</text>		</g>
		<g id="shape14-46" transform="translate(446.064,-154.863)">
			<title>Sheet.14</title>
			<desc>PPU</desc>
			<rect x="0" y="202.01" width="49.4334" height="68.0315" class="st7"/>
			<text x="4" y="211.41" class="st2">PPU</text>		</g>
		<g id="shape16-49" transform="translate(325.281,-225.124)">
			<title>Sheet.16</title>
			<desc>IR</desc>
			<rect x="0" y="242.507" width="49.4334" height="27.5347" class="st7"/>
			<text x="4" y="251.91" class="st2">IR</text>		</g>
		<g id="shape17-52" transform="translate(196.104,-217.702)">
			<title>Sheet.17</title>
			<desc>ADC</desc>
			<rect x="0" y="253.51" width="24.7167" height="16.5312" class="st7"/>
			<text x="4" y="262.91" class="st2">ADC</text>		</g>
		<g id="shape18-55" transform="translate(196.104,-241.32)">
			<title>Sheet.18</title>
			<desc>MCMCAN</desc>
			<rect x="0" y="246.622" width="36.5671" height="23.4189" class="st7"/>
			<text x="4" y="256.02" class="st2">MCMCAN</text>		</g>
		<g id="shape19-58" transform="translate(163.367,-118.013)">
			<title>Sheet.19</title>
			<desc>PORT module Pxy</desc>
			<path d="M0 238.17 L0 270.04 L55.13 270.04 L55.13 238.17 L0 238.17 L0 238.17 Z" class="st6"/>
			<text x="4" y="247.57" class="st2">PORT module Pxy</text>		</g>
		<g id="shape20-61" transform="translate(218.498,-134.424)">
			<title>Sheet.20</title>
			<path d="M0 270.04 L35.8 270.04" class="st9"/>
		</g>
		<g id="shape22-66" transform="translate(336.642,-157.758)">
			<title>Sheet.22</title>
			<path d="M0 270.04 L17.86 270.04" class="st13"/>
		</g>
		<g id="shape23-75" transform="translate(316.274,355.673) rotate(-178.733)">
			<title>Sheet.23</title>
			<path d="M0 270.04 L12.82 270.04" class="st9"/>
		</g>
		<g id="shape24-80" transform="translate(307.849,-150.85)">
			<title>Sheet.24</title>
			<desc>S-LLI</desc>
			<path d="M0 270.04 L0 253.51 L28.79 253.51 L28.79 270.04 L0 270.04 Z" class="st5"/>
			<text x="8.82" y="263.58" class="st2">S-LLI</text>		</g>
		<g id="shape25-83" transform="translate(52.2043,102.661) rotate(-90)">
			<title>Sheet.25</title>
			<path d="M0 270.04 L16.96 270.04" class="st15"/>
		</g>
		<g id="shape26-86" transform="translate(52.2043,135.916) rotate(-90)">
			<title>Sheet.26</title>
			<path d="M0 270.04 L16.72 270.04" class="st9"/>
		</g>
		<g id="shape27-91" transform="translate(322.246,405.957) rotate(180)">
			<title>Sheet.27</title>
			<path d="M0 270.04 L12.82 270.04" class="st15"/>
		</g>
		<g id="shape28-94" transform="translate(311.504,-0.375)">
			<title>Sheet.28</title>
			<desc>*direct PPU access through LLI not available in all AURIXTM T...</desc>
			<rect x="0" y="261.537" width="190.458" height="8.50394" class="st16"/>
			<text x="4" y="267.59" class="st2">*direct PPU access through LLI not available in all AURIX<tspan dy="-0.234em"
						class="st3">TM</tspan><tspan dy="0.152em" class="st4"> </tspan>TC4xx devices</text>		</g>
		<g id="shape30-99" transform="translate(446.064,368.45) rotate(180)">
			<title>Sheet.30</title>
			<path d="M0 270.04 L21.26 270.04" class="st13"/>
		</g>
		<g id="shape31-106" transform="translate(446.859,-109.986)">
			<title>Sheet.31</title>
			<desc>M-SRI</desc>
			<path d="M0 270.04 L0 253.51 L28.79 253.51 L28.79 270.04 L0 270.04 Z" class="st11"/>
			<text x="7.15" y="263.58" class="st2">M-SRI</text>		</g>
		<g id="shape34-109" transform="translate(446.064,342.7) rotate(180)">
			<title>Sheet.34</title>
			<path d="M0 270.04 L68.83 270.04" class="st13"/>
		</g>
		<g id="shape35-116" transform="translate(446.064,-189.356)">
			<title>Sheet.35</title>
			<desc>M-LLI*</desc>
			<path d="M0 270.04 L0 253.51 L28.79 253.51 L28.79 270.04 L0 270.04 Z" class="st11"/>
			<text x="6.14" y="263.58" class="st2">M-LLI*</text>		</g>
		<g id="shape36-119" transform="translate(354.505,-157.758)">
			<title>Sheet.36</title>
			<path d="M0 270.04 L11.39 270.04" class="st12"/>
		</g>
		<g id="shape37-122" transform="translate(446.859,-118.251)">
			<title>Dynamic connector.108</title>
			<path d="M0 270.04 L-35.61 270.04 L-35.61 254.45" class="st12"/>
		</g>
		<g id="shape40-125" transform="translate(300.391,-238.485)">
			<title>Sheet.40</title>
			<path d="M0 270.04 L24.89 270.04" class="st17"/>
		</g>
		<g id="shape41-130" transform="translate(570.433,31.5561) rotate(90)">
			<title>Sheet.41</title>
			<path d="M0 270.04 L21.26 270.04" class="st18"/>
		</g>
		<g id="shape42-133" transform="translate(548.066,10.2963) rotate(90)">
			<title>Sheet.42</title>
			<path d="M0 270.04 L42.52 270.04" class="st17"/>
		</g>
		<g id="shape43-138" transform="translate(278.025,280.338) rotate(180)">
			<title>Sheet.43</title>
			<path d="M0 270.04 L45.35 270.04" class="st18"/>
		</g>
		<g id="shape44-141" transform="translate(-3.35478,52.8159) rotate(-90)">
			<title>Sheet.44</title>
			<path d="M0 270.04 L28.35 270.04" class="st18"/>
		</g>
		<g id="shape45-144" transform="translate(266.687,294.511) rotate(180)">
			<title>Sheet.45</title>
			<path d="M0 270.04 L33.84 270.04" class="st17"/>
		</g>
		<g id="shape46-149" transform="translate(234.261,-245.572)">
			<title>Sheet.46</title>
			<desc>eGTM_Ni_TRIG</desc>
			<rect x="0" y="261.537" width="49.4334" height="8.50394" class="st16"/>
			<text x="4" y="267.59" class="st2">eGTM_Ni_TRIG</text>		</g>
		<g id="shape47-152" transform="translate(233.479,-259.745)">
			<title>Sheet.47</title>
			<desc>eGTM_SRC_CANINT</desc>
			<rect x="0" y="261.537" width="60.745" height="8.50394" class="st16"/>
			<text x="4" y="267.59" class="st2">eGTM_SRC_CANINT</text>		</g>
		<g id="shape51-155" transform="translate(525.389,42.8947) rotate(90)">
			<title>Sheet.51</title>
			<path d="M0 270.04 L9.92 270.04" class="st17"/>
		</g>
		<g id="shape52-160" transform="translate(220.82,-227.147) rotate(1.60233E-05)">
			<title>Sheet.52</title>
			<path d="M0 270.04 L34.53 270.04" class="st18"/>
		</g>
		<g id="shape53-163" transform="translate(221.474,-227.147)">
			<title>Sheet.53</title>
			<desc>BFL eGTM</desc>
			<rect x="0" y="261.537" width="36.5671" height="8.50394" class="st16"/>
			<text x="4" y="267.59" class="st2">BFL eGTM</text>		</g>
		<g id="shape54-166" transform="translate(163.367,354.605) rotate(180)">
			<title>Sheet.54</title>
			<path d="M0 270.04 L108.09 270.04" class="st9"/>
		</g>
		<g id="shape55-171" transform="translate(55.5055,-134.424)">
			<title>Sheet.55</title>
			<path d="M0 270.04 L107.86 270.04" class="st9"/>
		</g>
		<g id="shape56-176" transform="translate(66.1354,-184.627)">
			<title>Sheet.56</title>
			<desc>Mission ch.</desc>
			<rect x="0" y="261.537" width="49.6063" height="8.50394" class="st16"/>
			<text x="4" y="267.59" class="st2">Mission ch.</text>		</g>
		<g id="shape57-179" transform="translate(65.6266,-135.021)">
			<title>Sheet.57</title>
			<desc>Monitoring ch.</desc>
			<rect x="0" y="261.537" width="60.745" height="8.50394" class="st16"/>
			<text x="4" y="267.59" class="st2">Monitoring ch.</text>		</g>
		<g id="shape59-182" transform="translate(29.7701,-181.792)">
			<title>Sheet.59</title>
			<desc>Control</desc>
			<rect x="0" y="261.537" width="28.7936" height="8.50394" class="st16"/>
			<text x="4" y="267.59" class="st2">Control</text>		</g>
		<g id="shape60-185" transform="translate(25.7417,-130.769)">
			<title>Sheet.60</title>
			<desc>Feedback</desc>
			<rect x="0" y="261.537" width="31.7448" height="8.50394" class="st16"/>
			<text x="4" y="267.59" class="st2">Feedback</text>		</g>
		<g id="shape61-188" transform="translate(241.175,-62.4631)">
			<title>Sheet.61</title>
			<desc>GTM</desc>
			<path d="M0 240 L0 270.04 L66.61 270.04 L66.61 240 L0 240 L0 240 Z" class="st6"/>
			<text x="4" y="249.4" class="st2">GTM</text>		</g>
		<g id="shape62-191" transform="translate(262.435,-69.0821)">
			<title>Sheet.62</title>
			<desc>TIM</desc>
			<path d="M0 270.04 L0 254.99 L35.43 254.99 L35.43 270.04 L0 270.04 Z" class="st5"/>
			<text x="12.93" y="264.32" class="st2">TIM</text>		</g>
		<g id="shape64-194" transform="translate(241.175,-21.6348)">
			<title>Sheet.64</title>
			<desc>GPT12</desc>
			<path d="M0 240 L0 270.04 L66.61 270.04 L66.61 240 L0 240 L0 240 Z" class="st6"/>
			<text x="4" y="249.4" class="st2">GPT12</text>		</g>
		<g id="shape66-197" transform="translate(-44.4571,234.233) rotate(-90)">
			<title>Sheet.66</title>
			<path d="M0 270.04 L98.62 270.04" class="st15"/>
		</g>
		<g id="shape67-200" transform="translate(225.584,-35.8081)">
			<title>Sheet.67</title>
			<path d="M0 270.04 L15.59 270.04" class="st9"/>
		</g>
		<g id="shape68-205" transform="translate(225.584,-75.3439)">
			<title>Sheet.68</title>
			<path d="M0 270.04 L36.85 270.04" class="st9"/>
		</g>
		<g id="shape69-210" transform="translate(354.505,-21.6348)">
			<title>Sheet.69</title>
			<desc>FPI</desc>
			<rect x="0" y="194.743" width="22.7329" height="75.2982" class="st7"/>
			<text x="4" y="204.14" class="st2">FPI</text>		</g>
		<g id="shape70-213" transform="translate(297.868,-75.4931)">
			<title>Sheet.70</title>
			<path d="M0 270.04 L56.64 270.04" class="st13"/>
		</g>
		<g id="shape71-220" transform="translate(307.789,-35.8081)">
			<title>Sheet.71</title>
			<path d="M0 270.04 L46.72 270.04" class="st13"/>
		</g>
		<g id="shape73-227" transform="translate(347.418,-75.4931)">
			<title>Dynamic connector.73</title>
			<path d="M7.09 270.04 L17.72 270.04 L17.72 309.73 L7.09 309.73" class="st12"/>
		</g>
		<g id="shape74-230" transform="translate(365.843,-55.6506)">
			<title>Sheet.74</title>
			<path d="M0 270.04 L11.39 270.04" class="st12"/>
		</g>
		<g id="shape75-233" transform="translate(446.687,484.432) rotate(180)">
			<title>Sheet.75</title>
			<path d="M0 270.04 L69.45 270.04" class="st13"/>
		</g>
		<g id="shape76-240" transform="translate(446.064,-163.367)">
			<title>Sheet.76</title>
			<desc>M-SRI</desc>
			<path d="M0 270.04 L0 253.51 L28.79 253.51 L28.79 270.04 L0 270.04 Z" class="st11"/>
			<text x="7.15" y="263.58" class="st2">M-SRI</text>		</g>
		<g id="shape77-243" transform="translate(446.064,-171.633)">
			<title>Dynamic connector.77</title>
			<path d="M0 270.04 L-35.84 270.04 L-35.84 291.3" class="st12"/>
		</g>
		<g id="shape78-246" transform="translate(446.687,421.832) rotate(180)">
			<title>Sheet.78</title>
			<path d="M0 270.04 L21.88 270.04" class="st13"/>
		</g>
		<g id="shape79-253" transform="translate(397.064,397.975) rotate(180)">
			<title>Sheet.79</title>
			<path d="M0 270.04 L19.83 270.04" class="st13"/>
		</g>
		<g id="shape80-260" transform="translate(446.687,-47.1467)">
			<title>Sheet.80</title>
			<desc>FPI Master I/F</desc>
			<path d="M0 270.04 L0 253.51 L35.43 253.51 L35.43 270.04 L0 270.04 Z" class="st11"/>
			<text x="14.03" y="259.98" class="st2">FPI <tspan x="5.03" dy="1.2em" class="st4">Master I/F</tspan></text>		</g>
		<g id="shape81-264" transform="translate(232.671,-10.2963)">
			<title>Sheet.81</title>
			<path d="M0 270.04 L99.21 270.04 L99.21 176.34 L0 176.34 L0 270.04 Z" class="st19"/>
		</g>
		<g id="shape82-266" transform="translate(231.113,-95.3356)">
			<title>Sheet.82</title>
			<desc>Alternative for monitoring ch.</desc>
			<rect x="0" y="261.537" width="86.597" height="8.50394" class="st16"/>
			<text x="4" y="267.59" class="st2">Alternative for monitoring ch.</text>		</g>
	</g>
</svg>
