<?xml version="1.0" encoding="UTF-8" standalone="no"?>
<!DOCTYPE svg PUBLIC "-//W3C//DTD SVG 1.1//EN" "http://www.w3.org/Graphics/SVG/1.1/DTD/svg11.dtd">
<!-- Generated by Microsoft Visio, SVG Export SystemModeMgmt.svg Page-1 -->
<svg xmlns="http://www.w3.org/2000/svg" xmlns:xlink="http://www.w3.org/1999/xlink" xmlns:ev="http://www.w3.org/2001/xml-events"
		width="6.75574in" height="3.68112in" viewBox="0 0 486.413 265.041" xml:space="preserve" color-interpolation-filters="sRGB"
		class="st19">
	<style type="text/css">
	<![CDATA[
		.st1 {fill:#ffc000;stroke:none;stroke-linecap:round;stroke-linejoin:round;stroke-width:0.75}
		.st2 {fill:#000000;font-family:Calibri;font-size:0.499992em}
		.st3 {fill:#bfbfbf;stroke:none;stroke-linecap:round;stroke-linejoin:round;stroke-width:0.75}
		.st4 {marker-end:url(#mrkr1-18);marker-start:url(#mrkr1-16);stroke:#000000;stroke-linecap:round;stroke-linejoin:round;stroke-width:1}
		.st5 {fill:#000000;fill-opacity:1;stroke:#000000;stroke-opacity:1;stroke-width:0.28409090909091}
		.st6 {stroke:#000000;stroke-dasharray:0.75,1.5;stroke-linecap:round;stroke-linejoin:round;stroke-width:0.75}
		.st7 {fill:#d8d8d8;stroke:none;stroke-linecap:round;stroke-linejoin:round;stroke-width:0.75}
		.st8 {font-size:1em}
		.st9 {fill:none;stroke:none;stroke-linecap:round;stroke-linejoin:round;stroke-width:0.75}
		.st10 {marker-end:url(#mrkr1-18);stroke:#000000;stroke-linecap:round;stroke-linejoin:round;stroke-width:1}
		.st11 {fill:none;stroke:#000000;stroke-dasharray:5.25,3.75;stroke-linecap:round;stroke-linejoin:round;stroke-width:0.75}
		.st12 {baseline-shift:32.4949%;font-size:0.649897em}
		.st13 {marker-end:url(#mrkr1-58);stroke:#ff0000;stroke-linecap:round;stroke-linejoin:round;stroke-width:1}
		.st14 {fill:#ff0000;fill-opacity:1;stroke:#ff0000;stroke-opacity:1;stroke-width:0.28409090909091}
		.st15 {fill:#9dc3e6;stroke:none;stroke-linecap:round;stroke-linejoin:round;stroke-width:0.75}
		.st16 {stroke:#ff0000;stroke-linecap:round;stroke-linejoin:round;stroke-width:1}
		.st17 {stroke:#000000;stroke-linecap:round;stroke-linejoin:round;stroke-width:1}
		.st18 {stroke:#ff0000;stroke-dasharray:1,2;stroke-linecap:round;stroke-linejoin:round;stroke-width:1}
		.st19 {fill:none;fill-rule:evenodd;font-size:12px;overflow:visible;stroke-linecap:square;stroke-miterlimit:3}
	]]>
	</style>

	<defs id="Markers">
		<g id="lend1">
			<path d="M 1 -1 L 0 0 L 1 1 " style="stroke-linecap:round;stroke-linejoin:round;fill:none"/>
		</g>
		<marker id="mrkr1-16" class="st5" orient="auto" markerUnits="strokeWidth" overflow="visible">
			<use xlink:href="#lend1" transform="scale(3.52) "/>
		</marker>
		<marker id="mrkr1-18" class="st5" orient="auto" markerUnits="strokeWidth" overflow="visible">
			<use xlink:href="#lend1" transform="scale(-3.52,-3.52) "/>
		</marker>
		<marker id="mrkr1-58" class="st14" orient="auto" markerUnits="strokeWidth" overflow="visible">
			<use xlink:href="#lend1" transform="scale(-3.52,-3.52) "/>
		</marker>
	</defs>
	<g>
		<title>Page-1</title>
		<g id="shape2-1" transform="translate(234.377,-59.0937)">
			<title>Sheet.2</title>
			<desc>SMM</desc>
			<path d="M0 121.93 L0 265.04 L67.24 265.04 L67.24 121.93 L0 121.93 L0 121.93 Z" class="st1"/>
			<text x="4" y="131.33" class="st2">SMM</text>		</g>
		<g id="shape3-4" transform="translate(235.525,-6.04429)">
			<title>Sheet.3</title>
			<desc>FPI</desc>
			<rect x="0" y="238.476" width="62.6433" height="26.5648" class="st3"/>
			<text x="4" y="247.88" class="st2">FPI</text>		</g>
		<g id="shape4-7" transform="translate(126.088,-7.27981)">
			<title>Sheet.4</title>
			<desc>CPU</desc>
			<rect x="0" y="224.895" width="49.4334" height="40.1462" class="st3"/>
			<text x="4" y="234.29" class="st2">CPU</text>		</g>
		<g id="shape5-10" transform="translate(8.30458,232.432) rotate(-90)">
			<title>Sheet.5</title>
			<path d="M0 265.04 L26.48 265.04" class="st4"/>
		</g>
		<g id="shape8-19" transform="translate(235.525,-14.5482)">
			<title>Dynamic connector.37</title>
			<path d="M0 265.04 L37.82 265.04 L37.82 246.98" class="st6"/>
		</g>
		<g id="shape9-22" transform="translate(-3.59712E-14,-144.955)">
			<title>Sheet.9</title>
			<desc>External safety device</desc>
			<path d="M0 224.89 L0 265.04 L45.42 265.04 L45.42 224.89 L0 224.89 L0 224.89 Z" class="st7"/>
			<text x="4" y="234.29" class="st2">External safety <tspan x="4" dy="1.2em" class="st8">device</tspan></text>		</g>
		<g id="shape11-26" transform="translate(381.311,-69.5577)">
			<title>Sheet.11</title>
			<desc>Any FB</desc>
			<rect x="0" y="208.082" width="49.4334" height="56.959" class="st3"/>
			<text x="4" y="217.48" class="st2">Any FB</text>		</g>
		<g id="shape12-29" transform="translate(310.618,-93.5547)">
			<title>Sheet.12</title>
			<desc>Reset</desc>
			<rect x="0" y="256.076" width="49.4334" height="8.96507" class="st9"/>
			<text x="17.92" y="262.36" class="st2">Reset</text>		</g>
		<g id="shape13-32" transform="translate(381.311,-161.95)">
			<title>Sheet.13</title>
			<desc>IR</desc>
			<rect x="0" y="231.869" width="49.4334" height="33.1721" class="st3"/>
			<text x="4" y="241.27" class="st2">IR</text>		</g>
		<g id="shape14-35" transform="translate(301.613,-176.123)">
			<title>Sheet.14</title>
			<path d="M0 265.04 L79.7 265.04" class="st10"/>
		</g>
		<g id="shape16-40" transform="translate(126.088,-55.6606)">
			<title>Sheet.16</title>
			<desc>DEBUG, DFT</desc>
			<rect x="0" y="238.476" width="49.4334" height="26.5648" class="st3"/>
			<text x="4" y="247.88" class="st2">DEBUG, DFT</text>		</g>
		<g id="shape17-43" transform="translate(175.521,-76.4518)">
			<title>Sheet.17</title>
			<path d="M0 265.04 L58.86 265.04" class="st10"/>
		</g>
		<g id="shape19-48" transform="translate(101.226,-0.375)">
			<title>Sheet.19</title>
			<desc>AURIXTM TC4xx MCU</desc>
			<path d="M0 265.04 L384.81 265.04 L384.81 0.75 L0 0.75 L0 265.04 Z" class="st11"/>
			<text x="4" y="10.15" class="st2">AURIX<tspan dy="-0.234em" class="st12">TM</tspan><tspan dy="0.152em" class="st8"> </tspan>TC4xx MCU</text>		</g>
		<g id="shape20-53" transform="translate(301.613,-94.4405)">
			<title>Sheet.20</title>
			<path d="M0 265.04 L79.7 265.04" class="st13"/>
		</g>
		<g id="shape24-59" transform="translate(89.1875,-110.926)">
			<title>Sheet.24</title>
			<desc>Package</desc>
			<path d="M0 265.04 L0 145.42 L28.79 145.42 L28.79 265.04 L0 265.04 Z" class="st15"/>
			<text x="4.44" y="154.82" class="st2">Package</text>		</g>
		<g id="shape27-62" transform="translate(317.532,-164.007)">
			<title>Sheet.27</title>
			<desc>Interrupt request</desc>
			<rect x="0" y="240.809" width="49.4334" height="24.2316" class="st9"/>
			<text x="13.64" y="251.13" class="st2">Interrupt <tspan x="15.36" dy="1.2em" class="st8">request</tspan></text>		</g>
		<g id="shape29-66" transform="translate(178.406,-105.257)">
			<title>Sheet.29</title>
			<desc>RESETx_REQ</desc>
			<rect x="0" y="255.583" width="39.1181" height="9.45787" class="st9"/>
			<text x="4.25" y="262.11" class="st2">RESETx_REQ</text>		</g>
		<g id="shape30-69" transform="translate(44.51,-156.281)">
			<title>Sheet.30</title>
			<path d="M0 265.04 L99.2 265.04" class="st13"/>
		</g>
		<g id="shape31-74" transform="translate(194.052,-232.816)">
			<title>Sheet.31</title>
			<path d="M0 265.04 L53.24 265.04" class="st16"/>
		</g>
		<g id="shape35-77" transform="translate(512.328,32.2248) rotate(90)">
			<title>Sheet.35</title>
			<path d="M0 265.04 L30.61 265.04" class="st13"/>
		</g>
		<g id="shape37-82" transform="translate(185.098,-232.355)">
			<title>Sheet.37</title>
			<desc>Cold PORST</desc>
			<rect x="0" y="256.076" width="49.4334" height="8.96507" class="st9"/>
			<text x="10.59" y="262.36" class="st2">Cold PORST</text>		</g>
		<g id="shape40-85" transform="translate(126.298,-92.8653)">
			<title>Sheet.40</title>
			<desc>SMU</desc>
			<rect x="0" y="238.476" width="49.4334" height="26.5648" class="st3"/>
			<text x="4" y="247.88" class="st2">SMU</text>		</g>
		<g id="shape42-88" transform="translate(-43.2648,188.589) rotate(-90)">
			<title>Sheet.42</title>
			<path d="M0 265.04 L28.6 265.04" class="st16"/>
		</g>
		<g id="shape43-91" transform="translate(175.732,-105.054)">
			<title>Sheet.43</title>
			<path d="M0 265.04 L46.04 265.04" class="st16"/>
		</g>
		<g id="shape44-94" transform="translate(-43.2648,228.018) rotate(-90)">
			<title>Sheet.44</title>
			<path d="M0 265.04 L39.43 265.04" class="st17"/>
		</g>
		<g id="shape45-97" transform="translate(176.682,-37.2229) rotate(0.250939)">
			<title>Sheet.45</title>
			<path d="M0 265.04 L46.26 265.04" class="st17"/>
		</g>
		<g id="shape41-100" transform="translate(221.776,-76.4518)">
			<title>Sheet.41</title>
			<path d="M0 265.04 L12.6 265.04" class="st13"/>
		</g>
		<g id="shape46-105" transform="translate(144.618,-218.643)">
			<title>Sheet.46</title>
			<desc>PMS</desc>
			<rect x="0" y="238.476" width="49.4334" height="26.5648" class="st3"/>
			<text x="4" y="247.88" class="st2">PMS</text>		</g>
		<g id="shape47-108" transform="translate(-3.59712E-14,-96.753)">
			<title>Sheet.47</title>
			<desc>External reset monitor</desc>
			<path d="M0 224.89 L0 265.04 L45.42 265.04 L45.42 224.89 L0 224.89 L0 224.89 Z" class="st7"/>
			<text x="4" y="234.29" class="st2">External reset <tspan x="4" dy="1.2em" class="st8">monitor</tspan></text>		</g>
		<g id="shape48-112" transform="translate(143.713,-126.251)">
			<title>Sheet.48</title>
			<desc>PORTS</desc>
			<path d="M0 215.17 L0 265.04 L49.43 265.04 L49.43 215.17 L0 215.17 L0 215.17 Z" class="st1"/>
			<text x="4" y="224.57" class="st2">PORTS</text>		</g>
		<g id="shape49-115" transform="translate(175.521,-14.5482)">
			<title>Sheet.49</title>
			<path d="M0 265.04 L60 265.04" class="st4"/>
		</g>
		<g id="shape50-122" transform="translate(101.226,-139.273)">
			<title>Sheet.50</title>
			<path d="M0 265.04 L43.39 265.04" class="st16"/>
		</g>
		<g id="shape51-125" transform="translate(101.226,404.982) rotate(180)">
			<title>Sheet.51</title>
			<path d="M0 265.04 L55.81 265.04" class="st13"/>
		</g>
		<g id="shape52-130" transform="translate(366.266,125.768) rotate(90)">
			<title>Sheet.52</title>
			<path d="M0 265.04 L14.17 265.04" class="st16"/>
		</g>
		<g id="shape55-133" transform="translate(194.052,-156.281)">
			<title>Sheet.55</title>
			<path d="M0 265.04 L40.32 265.04" class="st13"/>
		</g>
		<g id="shape56-138" transform="translate(234.377,390.809) rotate(180)">
			<title>Sheet.56</title>
			<path d="M0 265.04 L40.32 265.04" class="st13"/>
		</g>
		<g id="shape57-143" transform="translate(146.21,-156.281)">
			<title>Sheet.57</title>
			<path d="M0 265.04 L47.84 265.04" class="st18"/>
		</g>
		<g id="shape58-146" transform="translate(146.21,-139.273)">
			<title>Sheet.58</title>
			<path d="M0 265.04 L47.84 265.04" class="st18"/>
		</g>
		<g id="shape59-149" transform="translate(230.563,-151.552)">
			<title>Sheet.59</title>
			<desc>ESRx input</desc>
			<rect x="0" y="255.583" width="39.1181" height="9.45787" class="st9"/>
			<text x="6.69" y="262.11" class="st2">ESRx input</text>		</g>
		<g id="shape60-152" transform="translate(232.264,-134.544)">
			<title>Sheet.60</title>
			<desc>ESR0/2 output</desc>
			<rect x="0" y="255.583" width="45.4157" height="9.45787" class="st9"/>
			<text x="5.04" y="262.11" class="st2">ESR0/2 output</text>		</g>
		<g id="shape61-155" transform="translate(50.2937,-149.774)">
			<title>Sheet.61</title>
			<desc>Reset request</desc>
			<rect x="0" y="252.027" width="34.0157" height="13.0135" class="st9"/>
			<text x="10.22" y="256.73" class="st2">Reset  <tspan x="7.65" dy="1.2em" class="st8">request</tspan></text>		</g>
		<g id="shape62-159" transform="translate(50.2799,-120.37)">
			<title>Sheet.62</title>
			<desc>Reset indication</desc>
			<rect x="0" y="255.583" width="34.0157" height="9.45787" class="st9"/>
			<text x="10.22" y="258.51" class="st2">Reset  <tspan x="4.92" dy="1.2em" class="st8">indication</tspan></text>		</g>
		<g id="shape63-163" transform="translate(177.839,-36.8384)">
			<title>Sheet.63</title>
			<desc>STMx</desc>
			<rect x="0" y="255.583" width="39.1181" height="9.45787" class="st9"/>
			<text x="12.85" y="262.11" class="st2">STMx</text>		</g>
		<g id="shape64-166" transform="translate(177.555,-70.1073)">
			<title>Sheet.64</title>
			<desc>LBIST, DEBUG</desc>
			<rect x="0" y="252.027" width="39.1181" height="13.0135" class="st9"/>
			<text x="12.32" y="256.73" class="st2">LBIST, <tspan x="10.8" dy="1.2em" class="st8">DEBUG</tspan></text>		</g>
		<g id="shape65-170" transform="translate(233.053,-72.1815)">
			<title>Sheet.65</title>
			<desc>Reset request</desc>
			<rect x="0" y="255.583" width="45.4157" height="9.45787" class="st9"/>
			<text x="5.88" y="262.11" class="st2">Reset request</text>		</g>
		<g id="shape66-173" transform="translate(-3.59712E-14,-193.156)">
			<title>Sheet.66</title>
			<desc>External reset system</desc>
			<path d="M0 224.89 L0 265.04 L45.42 265.04 L45.42 224.89 L0 224.89 L0 224.89 Z" class="st7"/>
			<text x="4" y="234.29" class="st2">External reset <tspan x="4" dy="1.2em" class="st8">system</tspan></text>		</g>
		<g id="shape67-177" transform="translate(81.461,-183.21)">
			<title>Sheet.67</title>
			<path d="M0 265.04 L152.92 265.04" class="st13"/>
		</g>
		<g id="shape68-182" transform="translate(346.502,49.2327) rotate(90)">
			<title>Sheet.68</title>
			<path d="M0 265.04 L32.6 265.04" class="st16"/>
		</g>
		<g id="shape69-185" transform="translate(81.461,314.273) rotate(180)">
			<title>Sheet.69</title>
			<path d="M0 265.04 L36.05 265.04" class="st13"/>
		</g>
		<g id="shape70-190" transform="translate(50.2937,-215.347)">
			<title>Sheet.70</title>
			<desc>PORST</desc>
			<rect x="0" y="256.076" width="28.7936" height="8.96507" class="st9"/>
			<text x="6.39" y="262.36" class="st2">PORST</text>		</g>
		<g id="shape71-193" transform="translate(226.028,-178.004)">
			<title>Sheet.71</title>
			<desc>PORST</desc>
			<rect x="0" y="255.583" width="39.1181" height="9.45787" class="st9"/>
			<text x="11.55" y="262.11" class="st2">PORST</text>		</g>
	</g>
</svg>
