<?xml version="1.0" encoding="UTF-8" standalone="no"?>
<!DOCTYPE svg PUBLIC "-//W3C//DTD SVG 1.1//EN" "http://www.w3.org/Graphics/SVG/1.1/DTD/svg11.dtd">
<!-- Generated by Microsoft Visio, SVG Export SinglePSI5ch.svg Page-1 -->
<svg xmlns="http://www.w3.org/2000/svg" xmlns:xlink="http://www.w3.org/1999/xlink" xmlns:ev="http://www.w3.org/2001/xml-events"
		width="6.8448in" height="2.33325in" viewBox="0 0 492.825 167.994" xml:space="preserve" color-interpolation-filters="sRGB"
		class="st15">
	<style type="text/css">
	<![CDATA[
		.st1 {fill:#ffffff;stroke:#000000;stroke-dasharray:5.25,3.75;stroke-linecap:round;stroke-linejoin:round;stroke-width:0.75}
		.st2 {fill:#000000;font-family:Calibri;font-size:0.499992em}
		.st3 {baseline-shift:32.4949%;font-size:0.649897em}
		.st4 {font-size:1em}
		.st5 {fill:#99ccff;stroke:none;stroke-linecap:round;stroke-linejoin:round;stroke-width:0.75}
		.st6 {stroke:none;stroke-linecap:round;stroke-linejoin:round;stroke-width:0.75}
		.st7 {fill:#ffc000;stroke:none;stroke-linecap:round;stroke-linejoin:round;stroke-width:0.75}
		.st8 {fill:#bfbfbf;stroke:none;stroke-linecap:round;stroke-linejoin:round;stroke-width:0.75}
		.st9 {marker-start:url(#mrkr1-39);stroke:#ff0000;stroke-linecap:round;stroke-linejoin:round;stroke-width:1}
		.st10 {fill:#ff0000;fill-opacity:1;stroke:#ff0000;stroke-opacity:1;stroke-width:0.28409090909091}
		.st11 {marker-end:url(#mrkr1-53);marker-start:url(#mrkr1-51);stroke:#000000;stroke-linecap:round;stroke-linejoin:round;stroke-width:1}
		.st12 {fill:#000000;fill-opacity:1;stroke:#000000;stroke-opacity:1;stroke-width:0.28409090909091}
		.st13 {marker-end:url(#mrkr1-71);stroke:#ff0000;stroke-linecap:round;stroke-linejoin:round;stroke-width:1}
		.st14 {stroke:#000000;stroke-dasharray:5.25,3.75;stroke-linecap:round;stroke-linejoin:round;stroke-width:0.75}
		.st15 {fill:none;fill-rule:evenodd;font-size:12px;overflow:visible;stroke-linecap:square;stroke-miterlimit:3}
	]]>
	</style>

	<defs id="Markers">
		<g id="lend1">
			<path d="M 1 -1 L 0 0 L 1 1 " style="stroke-linecap:round;stroke-linejoin:round;fill:none"/>
		</g>
		<marker id="mrkr1-39" class="st10" orient="auto" markerUnits="strokeWidth" overflow="visible">
			<use xlink:href="#lend1" transform="scale(3.52) "/>
		</marker>
		<marker id="mrkr1-51" class="st12" orient="auto" markerUnits="strokeWidth" overflow="visible">
			<use xlink:href="#lend1" transform="scale(3.52) "/>
		</marker>
		<marker id="mrkr1-53" class="st12" orient="auto" markerUnits="strokeWidth" overflow="visible">
			<use xlink:href="#lend1" transform="scale(-3.52,-3.52) "/>
		</marker>
		<marker id="mrkr1-71" class="st10" orient="auto" markerUnits="strokeWidth" overflow="visible">
			<use xlink:href="#lend1" transform="scale(-3.52,-3.52) "/>
		</marker>
	</defs>
	<g>
		<title>Page-1</title>
		<g id="shape47-1" transform="translate(83.978,-0.375)">
			<title>Sheet.47</title>
			<desc>AURIXTM TC4xx MCU</desc>
			<path d="M0 167.99 L408.47 167.99 L408.47 0.75 L0 0.75 L0 167.99 Z" class="st1"/>
			<text x="4" y="10.15" class="st2">AURIX<tspan dy="-0.234em" class="st3">TM</tspan><tspan dy="0.152em" class="st4"> </tspan>TC4xx MCU</text>		</g>
		<g id="shape50-6" transform="translate(69.3721,-27.3041)">
			<title>Sheet.50</title>
			<desc>Package</desc>
			<path d="M0 60.09 L0 167.99 L32 167.99 L32 60.09 L0 60.09 L0 60.09 Z" class="st5"/>
			<text x="4" y="69.49" class="st2">Package</text>		</g>
		<g id="shape51-9" transform="translate(196.598,-119.43)">
			<title>Sheet.51</title>
			<desc>Tx</desc>
			<path d="M32 155.6 L0 155.6 L0 167.99 L32 167.99 L32 155.6" class="st6"/>
			<text x="13.24" y="163.6" class="st2">Tx</text>		</g>
		<g id="shape54-13" transform="translate(136.058,-102.753)">
			<title>Sheet.54</title>
			<desc>PORTS Px.y</desc>
			<path d="M0 135.54 L0 167.99 L30.72 167.99 L30.72 135.54 L0 135.54 L0 135.54 Z" class="st7"/>
			<text x="7.36" y="149.97" class="st2">PORTS <tspan x="10.4" dy="1.2em" class="st4">Px.y</tspan></text>		</g>
		<g id="shape55-17" transform="translate(136.058,-62.7372)">
			<title>Sheet.55</title>
			<desc>PORTS Px.z</desc>
			<path d="M0 135.54 L0 167.99 L30.72 167.99 L30.72 135.54 L0 135.54 L0 135.54 Z" class="st7"/>
			<text x="7.36" y="149.97" class="st2">PORTS <tspan x="10.57" dy="1.2em" class="st4">Px.z</tspan></text>		</g>
		<g id="shape57-21" transform="translate(247.284,-64.1545)">
			<title>Sheet.57</title>
			<desc>PSI5</desc>
			<rect x="0" y="98.9955" width="48.189" height="68.9987" class="st7"/>
			<text x="4" y="108.4" class="st2">PSI5</text>		</g>
		<g id="shape58-24" transform="translate(196.047,-16.5599)">
			<title>Sheet.58</title>
			<desc>IR</desc>
			<rect x="0" y="139.648" width="30.7247" height="28.3465" class="st8"/>
			<text x="4" y="149.05" class="st2">IR</text>		</g>
		<g id="shape59-27" transform="translate(316.519,-20.2175)">
			<title>Sheet.59</title>
			<desc>GTM/eGTM</desc>
			<rect x="0" y="139.648" width="30.7247" height="28.3465" class="st8"/>
			<text x="4" y="149.05" class="st2">GTM/<tspan x="4" dy="1.2em" class="st4">eGTM</tspan></text>		</g>
		<g id="shape60-31" transform="translate(423.78,-21.6348)">
			<title>Sheet.60</title>
			<desc>CPU</desc>
			<path d="M0 123.46 L0 167.99 L50.24 167.99 L50.24 123.46 L0 123.46 L0 123.46 Z" class="st8"/>
			<text x="4" y="132.86" class="st2">CPU</text>		</g>
		<g id="shape61-34" transform="translate(34.686,-118.013)">
			<title>Sheet.61</title>
			<path d="M0 167.99 L101.37 167.99" class="st9"/>
		</g>
		<g id="shape62-40" transform="translate(166.783,-119.43)">
			<title>Sheet.62</title>
			<path d="M0 167.99 L80.5 167.99" class="st9"/>
		</g>
		<g id="shape63-45" transform="translate(295.473,-119.43)">
			<title>Sheet.63</title>
			<path d="M0 167.99 L71.32 167.99" class="st11"/>
		</g>
		<g id="shape64-54" transform="translate(389.764,-42.8947)">
			<title>Sheet.64</title>
			<path d="M0 167.99 L34.02 167.99" class="st11"/>
		</g>
		<g id="shape65-61" transform="translate(226.772,-30.7331)">
			<title>Dynamic connector.80</title>
			<path d="M0 167.99 L42.52 167.99 L42.52 134.57" class="st9"/>
		</g>
		<g id="shape68-66" transform="translate(166.783,-79.6536)">
			<title>Sheet.68</title>
			<path d="M0 167.99 L80.5 167.99" class="st13"/>
		</g>
		<g id="shape69-72" transform="translate(28.3465,-78.3278)">
			<title>Sheet.69</title>
			<path d="M0 167.99 L107.71 167.99" class="st13"/>
		</g>
		<g id="shape70-77" transform="translate(294.569,-48.564)">
			<title>Sheet.70</title>
			<path d="M0 136.26 L36.82 136.26 L36.82 167.99" class="st9"/>
		</g>
		<g id="shape72-82" transform="translate(296.979,-80.3031)">
			<title>Sheet.72</title>
			<desc>Trigger</desc>
			<path d="M32 155.6 L0 155.6 L0 167.99 L32 167.99 L32 155.6" class="st6"/>
			<text x="7.44" y="163.6" class="st2">Trigger</text>		</g>
		<g id="shape74-86" transform="translate(196.598,-78.6911)">
			<title>Sheet.74</title>
			<desc>Rx</desc>
			<path d="M32 155.6 L0 155.6 L0 167.99 L32 167.99 L32 155.6" class="st6"/>
			<text x="13.07" y="163.6" class="st2">Rx</text>		</g>
		<g id="shape75-90" transform="translate(-2.19824E-14,-27.4905)">
			<title>Rounded Rectangle</title>
			<desc>External PSI5 device</desc>
			<path d="M3.74 167.99 L30.95 167.99 A3.73666 3.73666 -180 0 0 34.69 164.26 L34.69 64.01 A3.73666 3.73666 -180 0 0 30.95
						 60.28 L3.74 60.28 A3.73666 3.73666 -180 0 0 -0 64.01 L0 164.26 A3.73666 3.73666 -180 0 0 3.74 167.99 Z"
					class="st8"/>
			<text x="7.33" y="108.74" class="st2">External <tspan x="12.14" dy="1.2em" class="st4">PSI5 </tspan><tspan x="9.47"
						dy="1.2em" class="st4">device</tspan></text>		</g>
		<g id="shape76-95" transform="translate(367.574,-11.7136)">
			<title>Sheet.76</title>
			<desc>FPI</desc>
			<path d="M0 34.77 L0 167.99 L22.19 167.99 L22.19 34.77 L0 34.77 L0 34.77 Z" class="st8"/>
			<text x="4" y="44.17" class="st2">FPI</text>		</g>
		<g id="shape77-98" transform="translate(367.574,-119.43)">
			<title>Dynamic connector</title>
			<path d="M0 167.99 L10.85 167.99 L10.85 244.53 L22.19 244.53" class="st14"/>
		</g>
	</g>
</svg>
