<?xml version="1.0" encoding="UTF-8" standalone="no"?>
<!DOCTYPE svg PUBLIC "-//W3C//DTD SVG 1.1//EN" "http://www.w3.org/Graphics/SVG/1.1/DTD/svg11.dtd">
<!-- Generated by Microsoft Visio, SVG Export TC4xx_TUC_ExtFailureRep.svg Page-32 -->
<svg xmlns="http://www.w3.org/2000/svg" xmlns:xlink="http://www.w3.org/1999/xlink" xmlns:ev="http://www.w3.org/2001/xml-events"
		width="7.71654in" height="4.33071in" viewBox="0 0 555.591 311.811" xml:space="preserve" color-interpolation-filters="sRGB"
		class="st16">
	<style type="text/css">
	<![CDATA[
		.st1 {fill:#5b9bd5;stroke:none;stroke-linecap:round;stroke-linejoin:round;stroke-width:0.75}
		.st2 {stroke:#41719c;stroke-linecap:round;stroke-linejoin:round;stroke-width:0.661444}
		.st3 {fill:#99ccff;stroke:none;stroke-linecap:round;stroke-linejoin:round;stroke-width:0.75}
		.st4 {stroke:#99ccff;stroke-linecap:round;stroke-linejoin:round;stroke-width:0.496083}
		.st5 {fill:#d9d9d9;stroke:none;stroke-linecap:round;stroke-linejoin:round;stroke-width:0.75}
		.st6 {fill:#ffcc99;stroke:none;stroke-linecap:round;stroke-linejoin:round;stroke-width:0.75}
		.st7 {stroke:none;stroke-linecap:round;stroke-linejoin:round;stroke-width:0.75}
		.st8 {fill:#000000;font-family:Verdana;font-size:0.805367em}
		.st9 {fill:#000000;font-family:Calibri;font-size:0.915504em}
		.st10 {fill:#5b9bd5;stroke:#5b9bd5;stroke-linecap:round;stroke-linejoin:round;stroke-width:0.0206701}
		.st11 {fill:#000000;font-family:Calibri;font-size:0.688362em}
		.st12 {stroke:#00b050;stroke-linecap:round;stroke-linejoin:round;stroke-width:0.661444}
		.st13 {fill:#00b050;font-family:Calibri;font-size:0.605759em}
		.st14 {fill:#00b050;stroke:#00b050;stroke-linecap:round;stroke-linejoin:round;stroke-width:0.0103351}
		.st15 {fill:#00b050;stroke:#00b050;stroke-linecap:round;stroke-linejoin:round;stroke-width:0.0206701}
		.st16 {fill:none;fill-rule:evenodd;font-size:12px;overflow:visible;stroke-linecap:square;stroke-miterlimit:3}
	]]>
	</style>

	<g>
		<title>ExtFailureRep</title>
		<g id="shape3-1" transform="translate(157.232,-44.0876)">
			<title>Sheet.3</title>
			<path d="M18.21 294.79 L18.21 311.81 L0 311.81 L0 294.79 L18.21 294.79 Z" class="st1"/>
		</g>
		<g id="shape4-3" transform="translate(157.232,-44.0876)">
			<title>Sheet.4</title>
			<path d="M18.21 294.79 L18.21 311.81 L0 311.81 L0 294.79 L18.21 294.79" class="st2"/>
		</g>
		<g id="shape5-6" transform="translate(157.232,-116.447)">
			<title>Sheet.5</title>
			<path d="M18.12 294.79 L18.12 311.81 L0 311.81 L0 294.79 L18.12 294.79 Z" class="st1"/>
		</g>
		<g id="shape6-8" transform="translate(157.232,-116.447)">
			<title>Sheet.6</title>
			<path d="M18.12 294.79 L18.12 311.81 L0 311.81 L0 294.79 L18.12 294.79" class="st2"/>
		</g>
		<g id="shape7-11" transform="translate(157.066,-92.3272)">
			<title>Sheet.7</title>
			<path d="M18.12 294.79 L18.12 311.81 L0 311.81 L0 294.79 L18.12 294.79 Z" class="st1"/>
		</g>
		<g id="shape8-13" transform="translate(157.066,-92.3272)">
			<title>Sheet.8</title>
			<path d="M18.12 294.79 L18.12 311.81 L0 311.81 L0 294.79 L18.12 294.79" class="st2"/>
		</g>
		<g id="shape9-16" transform="translate(157.232,-68.2074)">
			<title>Sheet.9</title>
			<path d="M18.12 294.79 L18.12 311.81 L0 311.81 L0 294.79 L18.12 294.79 Z" class="st1"/>
		</g>
		<g id="shape10-18" transform="translate(157.232,-68.2074)">
			<title>Sheet.10</title>
			<path d="M18.12 294.79 L18.12 311.81 L0 311.81 L0 294.79 L18.12 294.79" class="st2"/>
		</g>
		<g id="shape11-21" transform="translate(115.852,-37.3142)">
			<title>Sheet.11</title>
			<path d="M0 201.7 L0 311.81 L59.75 311.81 L59.75 201.7 L0 201.7 L0 201.7 Z" class="st3"/>
		</g>
		<g id="shape12-23" transform="translate(115.852,-37.3142)">
			<title>Sheet.12</title>
			<path d="M0 201.7 L59.75 201.7 L59.75 311.81 L0 311.81 L0 201.7" class="st4"/>
		</g>
		<g id="shape13-26" transform="translate(390.281,-44.2528)">
			<title>Sheet.13</title>
			<path d="M18.12 294.79 L18.12 311.81 L0 311.81 L0 294.79 L18.12 294.79 Z" class="st1"/>
		</g>
		<g id="shape14-28" transform="translate(390.281,-44.2528)">
			<title>Sheet.14</title>
			<path d="M18.12 294.79 L18.12 311.81 L0 311.81 L0 294.79 L18.12 294.79" class="st2"/>
		</g>
		<g id="shape15-31" transform="translate(390.529,-116.53)">
			<title>Sheet.15</title>
			<path d="M18.21 294.79 L18.21 311.81 L0 311.81 L0 294.79 L18.21 294.79 Z" class="st1"/>
		</g>
		<g id="shape16-33" transform="translate(390.529,-116.53)">
			<title>Sheet.16</title>
			<path d="M18.21 294.79 L18.21 311.81 L0 311.81 L0 294.79 L18.21 294.79" class="st2"/>
		</g>
		<g id="shape17-36" transform="translate(390.529,-92.4924)">
			<title>Sheet.17</title>
			<path d="M18.21 294.88 L18.21 311.81 L0 311.81 L0 294.88 L18.21 294.88 Z" class="st1"/>
		</g>
		<g id="shape18-38" transform="translate(390.529,-92.4924)">
			<title>Sheet.18</title>
			<path d="M18.21 294.88 L18.21 311.81 L0 311.81 L0 294.88 L18.21 294.88" class="st2"/>
		</g>
		<g id="shape19-41" transform="translate(390.529,-68.3726)">
			<title>Sheet.19</title>
			<path d="M18.21 294.88 L18.21 311.81 L0 311.81 L0 294.88 L18.21 294.88 Z" class="st1"/>
		</g>
		<g id="shape20-43" transform="translate(390.529,-68.3726)">
			<title>Sheet.20</title>
			<path d="M18.21 294.88 L18.21 311.81 L0 311.81 L0 294.88 L18.21 294.88" class="st2"/>
		</g>
		<g id="shape21-46" transform="translate(312.156,-200.123)">
			<title>Sheet.21</title>
			<path d="M0 303.22 L0 311.81 L17.05 311.81 L17.05 303.22 L0 303.22 L0 303.22 Z" class="st1"/>
		</g>
		<g id="shape22-48" transform="translate(312.156,-200.123)">
			<title>Sheet.22</title>
			<path d="M0 303.22 L17.05 303.22 L17.05 311.81 L0 311.81 L0 303.22" class="st2"/>
		</g>
		<g id="shape23-51" transform="translate(312.156,-175.342)">
			<title>Sheet.23</title>
			<path d="M0 303.22 L0 311.81 L17.05 311.81 L17.05 303.22 L0 303.22 L0 303.22 Z" class="st1"/>
		</g>
		<g id="shape24-53" transform="translate(312.156,-175.342)">
			<title>Sheet.24</title>
			<path d="M0 303.22 L17.05 303.22 L17.05 311.81 L0 311.81 L0 303.22" class="st2"/>
		</g>
		<g id="shape25-56" transform="translate(380.598,-37.7272)">
			<title>Sheet.25</title>
			<path d="M0 226.05 C-0 216.57 7.7 208.89 17.19 208.89 L98.44 208.89 C107.94 208.89 115.61 216.57 115.61 226.05 L115.61
						 294.67 C115.61 304.15 107.94 311.81 98.44 311.81 L17.19 311.81 C7.7 311.81 0 304.15 0 294.67 L0 226.05 Z"
					class="st5"/>
		</g>
		<g id="shape26-58" transform="translate(389.867,-43.9224)">
			<title>Sheet.26</title>
			<path d="M0 222.6 L0 311.81 L98.81 311.81 L98.81 222.6 L0 222.6 L0 222.6 Z" class="st6"/>
		</g>
		<g id="shape27-60" transform="translate(428.334,-80.9794)">
			<title>Sheet.27</title>
			<desc>SMU</desc>
			<path d="M29.01 300.21 L0 300.21 L0 311.81 L29.01 311.81 L29.01 300.21" class="st7"/>
			<text x="3.59" y="308.91" class="st8">SMU</text>		</g>
		<g id="shape28-64" transform="translate(426.628,-22.6636)">
			<title>Sheet.28</title>
			<desc>SMU</desc>
			<path d="M29.01 300.21 L0 300.21 L0 311.81 L29.01 311.81 L29.01 300.21" class="st7"/>
			<text x="3.59" y="308.91" class="st8">SMU</text>		</g>
		<g id="shape29-68" transform="translate(264.814,-22.0269)">
			<title>Sheet.29</title>
			<desc>PORTS</desc>
			<path d="M41.54 300.21 L0 300.21 L0 311.81 L41.54 311.81 L41.54 300.21" class="st7"/>
			<text x="4.41" y="308.91" class="st8">PORTS</text>		</g>
		<g id="shape30-72" transform="translate(222.694,-36.323)">
			<title>Sheet.30</title>
			<path d="M0 224.4 C0 214.74 7.85 206.91 17.52 206.91 L99.42 206.91 C109.1 206.91 116.94 214.74 116.94 224.4 L116.94 294.33
						 C116.94 303.98 109.1 311.81 99.42 311.81 L17.52 311.81 C7.85 311.81 0 303.98 0 294.33 L0 224.4 Z"
					class="st5"/>
		</g>
		<g id="shape31-74" transform="translate(232.377,-115.538)">
			<title>Sheet.31</title>
			<path d="M0 293.56 L0 311.81 L98.73 311.81 L98.73 293.56 L0 293.56 L0 293.56 Z" class="st6"/>
		</g>
		<g id="shape32-76" transform="translate(265.845,-116.636)">
			<title>Sheet.32</title>
			<desc>ERU Rx</desc>
			<path d="M39.18 298.62 L0 298.62 L0 311.81 L39.18 311.81 L39.18 298.62" class="st7"/>
			<text x="3.8" y="308.51" class="st9">ERU Rx</text>		</g>
		<g id="shape33-80" transform="translate(232.708,-91.5838)">
			<title>Sheet.33</title>
			<path d="M0 293.56 L0 311.81 L98.81 311.81 L98.81 293.56 L0 293.56 L0 293.56 Z" class="st6"/>
		</g>
		<g id="shape34-82" transform="translate(266.515,-92.6812)">
			<title>Sheet.34</title>
			<desc>EMS Rx</desc>
			<path d="M40.82 298.62 L0 298.62 L0 311.81 L40.82 311.81 L40.82 298.62" class="st7"/>
			<text x="3.91" y="308.51" class="st9">EMS Rx</text>		</g>
		<g id="shape35-86" transform="translate(233.039,-67.877)">
			<title>Sheet.35</title>
			<path d="M0 293.56 L0 311.81 L98.81 311.81 L98.81 293.56 L0 293.56 L0 293.56 Z" class="st6"/>
		</g>
		<g id="shape36-88" transform="translate(266.391,-68.9424)">
			<title>Sheet.36</title>
			<desc>EMS Tx</desc>
			<path d="M40.12 298.62 L0 298.62 L0 311.81 L40.12 311.81 L40.12 298.62" class="st7"/>
			<text x="3.86" y="308.51" class="st9">EMS Tx</text>		</g>
		<g id="shape37-92" transform="translate(233.37,-43.9224)">
			<title>Sheet.37</title>
			<path d="M0 293.56 L0 311.81 L98.81 311.81 L98.81 293.56 L0 293.56 L0 293.56 Z" class="st6"/>
		</g>
		<g id="shape38-94" transform="translate(269.872,-44.9876)">
			<title>Sheet.38</title>
			<desc>FSP Tx</desc>
			<path d="M35.48 298.62 L0 298.62 L0 311.81 L35.48 311.81 L35.48 298.62" class="st7"/>
			<text x="3.56" y="308.51" class="st9">FSP Tx</text>		</g>
		<g id="shape39-98" transform="translate(223.191,-166.752)">
			<title>Sheet.39</title>
			<path d="M0 271.2 C0 266.72 3.65 263.08 8.14 263.08 L107.48 263.08 C111.97 263.08 115.61 266.72 115.61 271.2 L115.61
						 303.7 C115.61 308.18 111.97 311.81 107.48 311.81 L8.14 311.81 C3.65 311.81 0 308.18 0 303.7 L0 271.2 Z"
					class="st5"/>
		</g>
		<g id="shape40-100" transform="translate(270.759,-152.648)">
			<title>Sheet.40</title>
			<desc>SCU</desc>
			<path d="M27.4 300.21 L0 300.21 L0 311.81 L27.4 311.81 L27.4 300.21" class="st7"/>
			<text x="3.49" y="308.91" class="st8">SCU</text>		</g>
		<g id="shape41-104" transform="translate(231.301,-175.012)">
			<title>Sheet.41</title>
			<path d="M0 277.94 L0 311.81 L98.48 311.81 L98.48 277.94 L0 277.94 L0 277.94 Z" class="st6"/>
		</g>
		<g id="shape42-106" transform="translate(270.284,-184.392)">
			<title>Sheet.42</title>
			<desc>SCU</desc>
			<path d="M27.4 300.21 L0 300.21 L0 311.81 L27.4 311.81 L27.4 300.21" class="st7"/>
			<text x="3.49" y="308.91" class="st8">SCU</text>		</g>
		<g id="shape43-110" transform="translate(224.432,-245.058)">
			<title>Sheet.43</title>
			<path d="M0 271.2 C0 266.72 3.65 263.08 8.14 263.08 L107.48 263.08 C111.97 263.08 115.61 266.72 115.61 271.2 L115.61
						 303.7 C115.61 308.18 111.97 311.81 107.48 311.81 L8.14 311.81 C3.65 311.81 0 308.18 0 303.7 L0 271.2 Z"
					class="st5"/>
		</g>
		<g id="shape44-112" transform="translate(232.625,-253.319)">
			<title>Sheet.44</title>
			<path d="M0 277.94 L0 311.81 L98.73 311.81 L98.73 277.94 L0 277.94 L0 277.94 Z" class="st6"/>
		</g>
		<g id="shape45-114" transform="translate(244.11,-274.233)">
			<title>Sheet.45</title>
			<desc>Hardware /</desc>
			<path d="M70.6 300.21 L0 300.21 L0 311.81 L70.6 311.81 L70.6 300.21" class="st7"/>
			<text x="8" y="308.91" class="st8">Hardware / </text>		</g>
		<g id="shape46-118" transform="translate(232.441,-262.668)">
			<title>Sheet.46</title>
			<desc>Software Safety</desc>
			<path d="M97.25 300.21 L0 300.21 L0 311.81 L97.25 311.81 L97.25 300.21" class="st7"/>
			<text x="9.74" y="308.91" class="st8">Software Safety </text>		</g>
		<g id="shape47-122" transform="translate(243.613,-251.104)">
			<title>Sheet.47</title>
			<desc>mechanism</desc>
			<path d="M67.52 300.21 L0 300.21 L0 311.81 L67.52 311.81 L67.52 300.21" class="st7"/>
			<text x="6.1" y="308.91" class="st8">mechanism</text>		</g>
		<g id="shape48-126" transform="translate(232.587,-230.857)">
			<title>Sheet.48</title>
			<desc>MCU</desc>
			<path d="M33.08 300.21 L0 300.21 L0 311.81 L33.08 311.81 L33.08 300.21" class="st7"/>
			<text x="5.56" y="308.91" class="st8">MCU </text>		</g>
		<g id="shape49-130" transform="translate(254.965,-230.857)">
			<title>Sheet.49</title>
			<desc>functional</desc>
			<path d="M62.52 300.21 L0 300.21 L0 311.81 L62.52 311.81 L62.52 300.21" class="st7"/>
			<text x="7.48" y="308.91" class="st8">functional </text>		</g>
		<g id="shape50-134" transform="translate(308.725,-230.857)">
			<title>Sheet.50</title>
			<desc>block</desc>
			<path d="M33 300.21 L0 300.21 L0 311.81 L33 311.81 L33 300.21" class="st7"/>
			<text x="3.85" y="308.91" class="st8">block</text>		</g>
		<g id="shape51-138" transform="translate(125.71,-131.677)">
			<title>Sheet.51</title>
			<desc>Package</desc>
			<path d="M49.88 300.21 L0 300.21 L0 311.81 L49.88 311.81 L49.88 300.21" class="st7"/>
			<text x="4.95" y="308.91" class="st8">Package</text>		</g>
		<g id="shape52-142" transform="translate(331.398,-133.133)">
			<title>Sheet.52</title>
			<path d="M0 174.2 L108.43 174.2 L108.43 310.76 L107.36 310.76 L107.36 174.73 L107.9 175.27 L0 175.27 L0 174.2 ZM110.77
						 306.9 L107.9 311.81 L105 306.9 C104.86 306.63 104.94 306.3 105.21 306.15 C105.46 306.01 105.79 306.09 105.93
						 306.34 L108.35 310.47 L107.42 310.47 L109.84 306.34 C109.99 306.09 110.32 306.01 110.57 306.15 C110.83 306.3
						 110.92 306.63 110.77 306.9 Z" class="st10"/>
		</g>
		<g id="shape53-144" transform="translate(442.181,-165.453)">
			<title>Sheet.53</title>
			<desc>Alarms</desc>
			<path d="M28.99 301.9 L0 301.9 L0 311.81 L28.99 311.81 L28.99 301.9" class="st7"/>
			<text x="2.83" y="309.33" class="st11">Alarms</text>		</g>
		<g id="shape54-148" transform="translate(59.9074,-116.53)">
			<title>Sheet.54</title>
			<path d="M0 303.63 C0 299.12 3.67 295.46 8.19 295.46 L39.31 295.46 C43.84 295.46 47.5 299.12 47.5 303.63 C47.5 308.16
						 43.84 311.81 39.31 311.81 L8.19 311.81 C3.67 311.81 0 308.16 0 303.63" class="st12"/>
		</g>
		<g id="shape55-151" transform="translate(64.7751,-119.376)">
			<title>Sheet.55</title>
			<desc>ERU Request</desc>
			<path d="M45.48 303.08 L0 303.08 L0 311.81 L45.48 311.81 L45.48 303.08" class="st7"/>
			<text x="3.79" y="309.63" class="st13">ERU Request</text>		</g>
		<g id="shape56-155" transform="translate(59.9074,-92.4924)">
			<title>Sheet.56</title>
			<path d="M0 303.63 C0 299.12 3.67 295.46 8.19 295.46 L39.31 295.46 C43.84 295.46 47.5 299.12 47.5 303.63 C47.5 308.16
						 43.84 311.81 39.31 311.81 L8.19 311.81 C3.67 311.81 0 308.16 0 303.63" class="st12"/>
		</g>
		<g id="shape57-158" transform="translate(64.2803,-95.349)">
			<title>Sheet.57</title>
			<desc>EMS Request</desc>
			<path d="M46.56 303.08 L0 303.08 L0 311.81 L46.56 311.81 L46.56 303.08" class="st7"/>
			<text x="3.86" y="309.63" class="st13">EMS Request</text>		</g>
		<g id="shape58-162" transform="translate(329.246,-133.091)">
			<title>Sheet.58</title>
			<path d="M0 239.99 L110.59 239.99 L110.59 310.74 L109.51 310.74 L109.51 240.53 L110.05 241.06 L0 241.06 L0 239.99 ZM112.92
						 306.88 L110.05 311.81 L107.17 306.88 C107.03 306.63 107.11 306.3 107.36 306.15 C107.63 305.99 107.96 306.09
						 108.1 306.34 L110.5 310.47 L109.59 310.47 L111.99 306.34 C112.14 306.09 112.47 305.99 112.74 306.15 C112.99
						 306.3 113.07 306.63 112.92 306.88 Z" class="st10"/>
		</g>
		<g id="shape59-164" transform="translate(344.055,-100.468)">
			<title>Sheet.59</title>
			<desc>EMS input</desc>
			<path d="M41.76 301.9 L0 301.9 L0 311.81 L41.76 311.81 L41.76 301.9" class="st7"/>
			<text x="3.66" y="309.33" class="st11">EMS input</text>		</g>
		<g id="shape60-168" transform="translate(347.28,-148.461)">
			<title>Sheet.60</title>
			<desc>ERU input</desc>
			<path d="M40.52 301.9 L0 301.9 L0 311.81 L40.52 311.81 L40.52 301.9" class="st7"/>
			<text x="3.58" y="309.33" class="st11">ERU input</text>		</g>
		<g id="shape61-172" transform="translate(59.7419,-68.4552)">
			<title>Sheet.61</title>
			<path d="M0 303.63 C0 299.12 3.67 295.46 8.19 295.46 L39.31 295.46 C43.84 295.46 47.5 299.12 47.5 303.63 C47.5 308.16
						 43.84 311.81 39.31 311.81 L8.19 311.81 C3.67 311.81 0 308.16 0 303.63" class="st12"/>
		</g>
		<g id="shape62-175" transform="translate(64.0268,-71.3291)">
			<title>Sheet.62</title>
			<desc>EMS Monitor</desc>
			<path d="M46.84 303.08 L0 303.08 L0 311.81 L46.84 311.81 L46.84 303.08" class="st7"/>
			<text x="3.88" y="309.63" class="st13">EMS Monitor</text>		</g>
		<g id="shape63-179" transform="translate(59.7419,-44.418)">
			<title>Sheet.63</title>
			<path d="M0 303.63 C0 299.12 3.67 295.46 8.19 295.46 L39.31 295.46 C43.84 295.46 47.5 299.12 47.5 303.63 C47.5 308.16
						 43.84 311.81 39.31 311.81 L8.19 311.81 C3.67 311.81 0 308.16 0 303.63" class="st12"/>
		</g>
		<g id="shape64-182" transform="translate(65.3526,-47.3018)">
			<title>Sheet.64</title>
			<desc>FSP Monitor</desc>
			<path d="M43.77 303.08 L0 303.08 L0 311.81 L43.77 311.81 L43.77 303.08" class="st7"/>
			<text x="3.68" y="309.63" class="st13">FSP Monitor</text>		</g>
		<g id="shape65-186" transform="translate(107.287,-73.6504)">
			<title>Sheet.65</title>
			<path d="M68.12 308.25 L1.07 308.33 L1.07 309.41 L68.12 309.32 L68.12 308.25 ZM4.93 306 L0 308.87 L4.94 311.74 C5.19
						 311.88 5.52 311.8 5.68 311.54 C5.82 311.29 5.74 310.97 5.48 310.81 L1.34 308.41 L1.34 309.33 L5.47 306.92
						 C5.73 306.77 5.82 306.44 5.67 306.19 C5.52 305.93 5.19 305.84 4.93 306 Z" class="st14"/>
		</g>
		<g id="shape66-188" transform="translate(332.225,-49.9845)">
			<title>Sheet.66</title>
			<path d="M58.08 309.67 L53.77 309.65 L53.77 308.58 L58.08 308.6 L58.08 309.67 ZM50.54 309.63 L46.24 309.61 L46.24 308.54
						 L50.54 308.56 L50.54 309.63 ZM43.01 309.59 L38.71 309.57 L38.71 308.5 L43.01 308.52 L43.01 309.59 ZM35.48
						 309.55 L31.18 309.53 L31.18 308.46 L35.48 308.48 L35.48 309.55 ZM27.95 309.53 L23.65 309.49 L23.65 308.42
						 L27.95 308.46 L27.95 309.53 ZM20.42 309.49 L16.12 309.47 L16.12 308.39 L20.42 308.42 L20.42 309.49 ZM12.89
						 309.45 L8.59 309.43 L8.59 308.35 L12.89 308.37 L12.89 309.45 ZM5.36 309.41 L1.08 309.39 L1.08 308.31 L5.36
						 308.33 L5.36 309.41 ZM4.92 311.74 L0 308.83 L4.97 306 L4.97 306 C5.21 305.83 5.54 305.94 5.69 306.18 C5.83
						 306.45 5.75 306.76 5.5 306.93 L1.34 309.3 L1.34 308.37 L5.48 310.81 L5.48 310.81 C5.73 310.96 5.81 311.29
						 5.67 311.55 C5.5 311.8 5.17 311.88 4.92 311.74 Z" class="st15"/>
		</g>
		<g id="shape67-190" transform="translate(332.556,-97.8944)">
			<title>Sheet.67</title>
			<path d="M57.02 308.31 L52.72 308.31 L52.72 309.39 L57.02 309.39 L57.02 308.31 ZM49.49 308.33 L45.19 308.35 L45.19 309.43
						 L49.49 309.41 L49.49 308.33 ZM41.96 308.35 L37.66 308.37 L37.66 309.45 L41.96 309.43 L41.96 308.35 ZM34.43
						 308.4 L30.12 308.42 L30.12 309.49 L34.43 309.47 L34.43 308.4 ZM26.9 308.42 L22.59 308.44 L22.59 309.51 L26.9
						 309.49 L26.9 308.42 ZM19.37 308.46 L15.06 308.48 L15.06 309.55 L19.37 309.53 L19.37 308.46 ZM11.83 308.48
						 L7.53 308.5 L7.53 309.57 L11.83 309.55 L11.83 308.48 ZM4.3 308.52 L0 308.52 L0 309.59 L4.3 309.59 L4.3 308.52
						 ZM53.15 311.74 L58.08 308.83 L53.13 305.98 C52.88 305.83 52.55 305.92 52.41 306.19 C52.26 306.43 52.34 306.76
						 52.59 306.91 L56.75 309.3 L56.75 308.37 L52.61 310.81 C52.37 310.96 52.28 311.29 52.43 311.53 C52.57 311.8
						 52.9 311.89 53.15 311.74 Z" class="st15"/>
		</g>
		<g id="shape68-192" transform="translate(331.894,-73.9597)">
			<title>Sheet.68</title>
			<path d="M58.72 309.53 L54.41 309.53 L54.41 308.46 L58.72 308.46 L58.72 309.53 ZM51.19 309.53 L46.88 309.51 L46.88 308.44
						 L51.19 308.46 L51.19 309.53 ZM43.66 309.51 L39.35 309.49 L39.35 308.42 L43.66 308.44 L43.66 309.51 ZM36.12
						 309.49 L31.82 309.47 L31.82 308.39 L36.12 308.42 L36.12 309.49 ZM28.59 309.47 L24.29 309.45 L24.29 308.37
						 L28.59 308.39 L28.59 309.47 ZM21.06 309.45 L16.76 309.43 L16.76 308.35 L21.06 308.37 L21.06 309.45 ZM13.53
						 309.43 L9.23 309.43 L9.23 308.35 L13.53 308.35 L13.53 309.43 ZM6 309.41 L1.7 309.41 L1.7 308.33 L6 308.33
						 L6 309.41 ZM4.94 311.74 L0 308.85 L4.94 306 C5.21 305.85 5.54 305.94 5.69 306.18 C5.83 306.45 5.75 306.78
						 5.48 306.93 L1.34 309.32 L1.34 308.39 L5.48 310.81 C5.73 310.98 5.81 311.31 5.67 311.55 C5.52 311.8 5.19
						 311.88 4.94 311.74 Z" class="st15"/>
		</g>
		<g id="shape69-194" transform="translate(107.287,-49.6028)">
			<title>Sheet.69</title>
			<path d="M1.07 308.32 L68.18 308.33 L68.18 309.41 L1.07 309.4 L1.07 308.32 ZM4.93 311.74 L0 308.86 L4.93 305.99 C5.19
						 305.84 5.52 305.93 5.67 306.19 C5.82 306.44 5.73 306.77 5.48 306.92 L1.34 309.32 L1.34 308.41 L5.48 310.81
						 C5.73 310.96 5.82 311.29 5.67 311.54 C5.52 311.8 5.19 311.88 4.93 311.74 Z" class="st14"/>
		</g>
		<g id="shape70-196" transform="translate(329.246,-124.088)">
			<title>Sheet.70</title>
			<path d="M1.91 310.74 L6.22 310.74 L6.22 311.81 L1.91 311.81 L1.91 310.74 ZM9.44 310.74 L13.75 310.74 L13.75 311.81 L9.44
						 311.81 L9.44 310.74 ZM13.79 308.63 L13.79 304.34 L14.87 304.34 L14.87 308.63 L13.79 308.63 ZM13.79 301.11
						 L13.79 296.82 L14.87 296.82 L14.87 301.11 L13.79 301.11 ZM13.79 293.6 L13.79 289.3 L14.87 289.3 L14.87 293.6
						 L13.79 293.6 ZM13.79 286.08 L13.79 281.79 L14.87 281.79 L14.87 286.08 L13.79 286.08 ZM13.79 278.56 L13.79
						 274.27 L14.87 274.27 L14.87 278.56 L13.79 278.56 ZM13.79 271.05 L13.79 266.75 L14.87 266.75 L14.87 271.05
						 L13.79 271.05 ZM13.79 263.53 L13.79 259.23 L14.87 259.23 L14.87 263.53 L13.79 263.53 ZM14.04 256.84 L9.73
						 256.84 L9.73 255.77 L14.04 255.77 L14.04 256.84 ZM6.51 256.84 L2.2 256.84 L2.2 255.77 L6.51 255.77 L6.51
						 256.84 ZM4.93 259.18 L0 256.3 L4.93 253.43 C5.19 253.29 5.52 253.37 5.67 253.63 C5.82 253.89 5.73 254.22
						 5.48 254.36 L1.34 256.77 L1.34 255.85 L5.48 258.25 C5.73 258.4 5.82 258.73 5.67 258.99 C5.52 259.25 5.19
						 259.33 4.93 259.18 Z" class="st14"/>
		</g>
		<g id="shape71-198" transform="translate(342.51,-52.0821)">
			<title>Sheet.71</title>
			<desc>FSP output</desc>
			<path d="M44.28 301.9 L0 301.9 L0 311.81 L44.28 311.81 L44.28 301.9" class="st7"/>
			<text x="3.82" y="309.33" class="st11">FSP output</text>		</g>
		<g id="shape72-202" transform="translate(340.455,-75.8936)">
			<title>Sheet.72</title>
			<desc>EMS output</desc>
			<path d="M47.77 301.9 L0 301.9 L0 311.81 L47.77 311.81 L47.77 301.9" class="st7"/>
			<text x="4.05" y="309.33" class="st11">EMS output</text>		</g>
		<g id="shape73-206" transform="translate(107.452,-97.8321)">
			<title>Sheet.73</title>
			<path d="M0.01 309.56 L66.71 309.4 L66.71 308.32 L0 308.49 L0.01 309.56 ZM62.86 311.74 L67.78 308.85 L62.83 305.99 C62.59
						 305.84 62.26 305.94 62.1 306.19 C61.96 306.44 62.04 306.77 62.3 306.92 L66.44 309.32 L66.44 308.39 L62.31
						 310.81 C62.05 310.97 61.97 311.3 62.12 311.54 C62.27 311.8 62.6 311.88 62.86 311.74 Z" class="st14"/>
		</g>
		<g id="shape74-208" transform="translate(107.452,-121.942)">
			<title>Sheet.74</title>
			<path d="M0.01 309.64 L66.89 309.39 L66.88 308.31 L0 308.57 L0.01 309.64 ZM63.03 311.74 L67.96 308.84 L63.01 305.99 L63.01
						 305.99 C62.75 305.84 62.42 305.93 62.28 306.19 C62.12 306.44 62.21 306.77 62.47 306.92 L66.62 309.31 L66.61
						 308.38 L62.48 310.81 L62.48 310.81 C62.22 310.96 62.14 311.29 62.3 311.54 C62.44 311.8 62.77 311.88 63.03
						 311.74 Z" class="st14"/>
		</g>
		<g id="shape75-210" transform="translate(175.397,-121.714)">
			<title>Sheet.75</title>
			<path d="M0.01 308.07 L4.31 308.1 L4.3 309.17 L0 309.15 L0.01 308.07 ZM7.54 308.12 L11.84 308.14 L11.83 309.21 L7.53
						 309.19 L7.54 308.12 ZM15.07 308.16 L19.38 308.18 L19.37 309.25 L15.06 309.23 L15.07 308.16 ZM22.6 308.19
						 L26.91 308.21 L26.9 309.28 L22.59 309.26 L22.6 308.19 ZM30.13 308.23 L34.44 308.25 L34.43 309.32 L30.12
						 309.3 L30.13 308.23 ZM37.67 308.26 L41.97 308.28 L41.96 309.36 L37.66 309.33 L37.67 308.26 ZM45.2 308.3
						 L49.5 308.32 L49.49 309.4 L45.19 309.38 L45.2 308.3 ZM52.73 308.33 L55.89 308.35 L55.89 309.43 L52.72 309.41
						 L52.73 308.33 ZM52.03 306 L56.96 308.89 L52.01 311.74 L52.01 311.74 C51.76 311.88 51.42 311.8 51.28 311.54
						 C51.12 311.29 51.22 310.96 51.48 310.81 L55.62 308.43 L55.61 309.34 L51.5 306.92 L51.5 306.92 C51.24 306.77
						 51.16 306.44 51.3 306.19 C51.46 305.93 51.79 305.84 52.03 306 Z" class="st14"/>
		</g>
		<g id="shape76-212" transform="translate(175.232,-97.7392)">
			<title>Sheet.76</title>
			<path d="M0.01 308.22 L4.31 308.23 L4.3 309.3 L0 309.29 L0.01 308.22 ZM7.54 308.24 L11.84 308.25 L11.83 309.32 L7.53
						 309.31 L7.54 308.24 ZM15.07 308.25 L19.38 308.26 L19.37 309.33 L15.06 309.32 L15.07 308.25 ZM22.6 308.27
						 L26.91 308.28 L26.9 309.36 L22.59 309.34 L22.6 308.27 ZM30.13 308.28 L34.44 308.29 L34.43 309.37 L30.12
						 309.36 L30.13 308.28 ZM37.67 308.3 L41.97 308.31 L41.96 309.39 L37.66 309.38 L37.67 308.3 ZM45.2 308.31
						 L49.5 308.32 L49.49 309.4 L45.19 309.39 L45.2 308.31 ZM52.73 308.33 L56.42 308.34 L56.42 309.42 L52.72 309.41
						 L52.73 308.33 ZM52.56 306 L57.49 308.88 L52.54 311.74 L52.54 311.74 C52.29 311.88 51.96 311.8 51.81 311.54
						 C51.66 311.29 51.74 310.97 52 310.81 L56.15 308.42 L56.15 309.33 L52.01 306.92 C51.76 306.77 51.67 306.44
						 51.82 306.19 C51.97 305.93 52.3 305.84 52.56 306 Z" class="st14"/>
		</g>
		<g id="shape77-214" transform="translate(175.397,-73.7387)">
			<title>Sheet.77</title>
			<path d="M57.66 308.09 L53.36 308.11 L53.37 309.19 L57.67 309.16 L57.66 308.09 ZM50.13 308.13 L45.83 308.15 L45.84 309.23
						 L50.14 309.21 L50.13 308.13 ZM42.6 308.16 L38.3 308.18 L38.31 309.26 L42.61 309.24 L42.6 308.16 ZM35.07
						 308.19 L30.77 308.21 L30.78 309.29 L35.08 309.27 L35.07 308.19 ZM27.54 308.23 L23.23 308.25 L23.24 309.32
						 L27.55 309.3 L27.54 308.23 ZM20.01 308.27 L15.7 308.29 L15.71 309.36 L20.02 309.34 L20.01 308.27 ZM12.48
						 308.3 L8.17 308.32 L8.18 309.39 L12.49 309.37 L12.48 308.3 ZM4.94 308.33 L1.07 308.35 L1.08 309.42 L4.96
						 309.4 L4.94 308.33 ZM4.92 305.99 L0 308.89 L4.94 311.74 C5.2 311.89 5.53 311.8 5.69 311.54 C5.83 311.29
						 5.74 310.96 5.48 310.81 L1.33 308.42 L1.34 309.35 L5.47 306.92 C5.73 306.77 5.81 306.44 5.66 306.18 C5.51
						 305.93 5.18 305.84 4.92 305.99 Z" class="st14"/>
		</g>
		<g id="shape78-216" transform="translate(175.48,-49.6365)">
			<title>Sheet.78</title>
			<path d="M57.96 307.94 L53.66 307.97 L53.66 309.05 L57.96 309.02 L57.96 307.94 ZM50.43 308.01 L46.13 308.04 L46.13 309.11
						 L50.43 309.08 L50.43 308.01 ZM42.9 308.06 L38.6 308.09 L38.6 309.16 L42.9 309.13 L42.9 308.06 ZM35.37 308.11
						 L31.07 308.14 L31.07 309.21 L35.37 309.18 L35.37 308.11 ZM27.84 308.16 L23.53 308.19 L23.53 309.26 L27.84
						 309.23 L27.84 308.16 ZM20.31 308.22 L16 308.25 L16 309.33 L20.31 309.3 L20.31 308.22 ZM12.78 308.27 L8.47
						 308.3 L8.47 309.38 L12.78 309.35 L12.78 308.27 ZM5.24 308.33 L1.07 308.36 L1.08 309.43 L5.24 309.4 L5.24
						 308.33 ZM4.91 305.99 L0 308.9 L4.96 311.74 C5.21 311.89 5.54 311.79 5.69 311.54 C5.83 311.28 5.75 310.96
						 5.49 310.8 L1.33 308.43 L1.34 309.36 L5.46 306.91 L5.46 306.91 C5.72 306.77 5.8 306.44 5.65 306.18 C5.5
						 305.93 5.17 305.84 4.91 305.99 Z" class="st14"/>
		</g>
	</g>
</svg>
