<?xml version="1.0" encoding="UTF-8" standalone="no"?>
<!DOCTYPE svg PUBLIC "-//W3C//DTD SVG 1.1//EN" "http://www.w3.org/Graphics/SVG/1.1/DTD/svg11.dtd">
<!-- Generated by Microsoft Visio, SVG Export Interrupts.svg Page-1 -->
<svg xmlns="http://www.w3.org/2000/svg" xmlns:xlink="http://www.w3.org/1999/xlink" xmlns:ev="http://www.w3.org/2001/xml-events"
		width="5.67971in" height="3.77289in" viewBox="0 0 408.939 271.648" xml:space="preserve" color-interpolation-filters="sRGB"
		class="st15">
	<style type="text/css">
	<![CDATA[
		.st1 {fill:#ffc000;stroke:none;stroke-linecap:round;stroke-linejoin:round;stroke-width:0.75}
		.st2 {fill:#000000;font-family:Calibri;font-size:0.499992em}
		.st3 {fill:#bfbfbf;stroke:none;stroke-linecap:round;stroke-linejoin:round;stroke-width:0.75}
		.st4 {marker-start:url(#mrkr1-12);stroke:#ff0000;stroke-linecap:round;stroke-linejoin:round;stroke-width:1}
		.st5 {fill:#ff0000;fill-opacity:1;stroke:#ff0000;stroke-opacity:1;stroke-width:0.28409090909091}
		.st6 {fill:#9dc3e6;stroke:#000000;stroke-linecap:round;stroke-linejoin:round;stroke-width:0.75}
		.st7 {stroke:#ff0000;stroke-linecap:round;stroke-linejoin:round;stroke-width:1}
		.st8 {fill:none;stroke:none;stroke-linecap:round;stroke-linejoin:round;stroke-width:0.75}
		.st9 {font-size:1em}
		.st10 {stroke:#000000;stroke-linecap:round;stroke-linejoin:round;stroke-width:0.75}
		.st11 {marker-end:url(#mrkr1-104);marker-start:url(#mrkr1-102);stroke:#000000;stroke-linecap:round;stroke-linejoin:round;stroke-width:1}
		.st12 {fill:#000000;fill-opacity:1;stroke:#000000;stroke-opacity:1;stroke-width:0.28409090909091}
		.st13 {marker-start:url(#mrkr1-102);stroke:#000000;stroke-linecap:round;stroke-linejoin:round;stroke-width:1}
		.st14 {stroke:#000000;stroke-dasharray:5.25,3.75;stroke-linecap:round;stroke-linejoin:round;stroke-width:0.75}
		.st15 {fill:none;fill-rule:evenodd;font-size:12px;overflow:visible;stroke-linecap:square;stroke-miterlimit:3}
	]]>
	</style>

	<defs id="Markers">
		<g id="lend1">
			<path d="M 1 -1 L 0 0 L 1 1 " style="stroke-linecap:round;stroke-linejoin:round;fill:none"/>
		</g>
		<marker id="mrkr1-12" class="st5" orient="auto" markerUnits="strokeWidth" overflow="visible">
			<use xlink:href="#lend1" transform="scale(3.52) "/>
		</marker>
		<marker id="mrkr1-102" class="st12" orient="auto" markerUnits="strokeWidth" overflow="visible">
			<use xlink:href="#lend1" transform="scale(3.52) "/>
		</marker>
		<marker id="mrkr1-104" class="st12" orient="auto" markerUnits="strokeWidth" overflow="visible">
			<use xlink:href="#lend1" transform="scale(-3.52,-3.52) "/>
		</marker>
	</defs>
	<g>
		<title>Page-1</title>
		<g id="shape1-1" transform="translate(159.115,-137.147)">
			<title>Sheet.1</title>
			<desc>IR</desc>
			<rect x="0" y="206.735" width="102.047" height="64.9135" class="st1"/>
			<text x="4" y="216.14" class="st2">IR</text>		</g>
		<g id="shape9-4" transform="translate(4.62695,-149.528)">
			<title>Sheet.9</title>
			<desc>&#60;FB Name&#62;</desc>
			<rect x="0" y="232.725" width="64.7404" height="38.9233" class="st3"/>
			<text x="4" y="242.13" class="st2">&#60;FB Name&#62;</text>		</g>
		<g id="shape10-7" transform="translate(337.698,319.143) rotate(180)">
			<title>Sheet.10</title>
			<path d="M0 271.65 L21.26 271.65" class="st4"/>
		</g>
		<g id="shape19-13" transform="translate(159.115,-161.629)">
			<title>Sheet.19</title>
			<desc>SRNi</desc>
			<path d="M0 271.65 L0 256.93 L21.26 256.93 L21.26 271.65 L0 271.65 Z" class="st6"/>
			<text x="5" y="266.09" class="st2">SRNi</text>		</g>
		<g id="shape25-16" transform="translate(337.698,-159.855)">
			<title>Sheet.25</title>
			<desc>DMAx</desc>
			<path d="M0 232.73 L0 271.65 L64.74 271.65 L64.74 232.73 L0 232.73 L0 232.73 Z" class="st3"/>
			<text x="4" y="242.13" class="st2">DMAx</text>		</g>
		<g id="shape28-19" transform="translate(337.698,-114.404)">
			<title>Sheet.28</title>
			<desc>RDMA</desc>
			<path d="M0 232.73 L0 271.65 L64.74 271.65 L64.74 232.73 L0 232.73 L0 232.73 Z" class="st3"/>
			<text x="4" y="242.13" class="st2">RDMA</text>		</g>
		<g id="shape29-22" transform="translate(337.698,-205.865)">
			<title>Sheet.29</title>
			<desc>CPUx</desc>
			<path d="M0 232.73 L0 271.65 L64.74 271.65 L64.74 232.73 L0 232.73 L0 232.73 Z" class="st3"/>
			<text x="4" y="242.13" class="st2">CPUx</text>		</g>
		<g id="shape30-25" transform="translate(337.698,-71.0744)">
			<title>Sheet.30</title>
			<desc>PPU</desc>
			<path d="M0 232.73 L0 271.65 L64.74 271.65 L64.74 232.73 L0 232.73 L0 232.73 Z" class="st3"/>
			<text x="4" y="242.13" class="st2">PPU</text>		</g>
		<g id="shape31-28" transform="translate(337.698,-28.7001)">
			<title>Sheet.31</title>
			<desc>GTM</desc>
			<path d="M0 232.73 L0 271.65 L64.74 271.65 L64.74 232.73 L0 232.73 L0 232.73 Z" class="st1"/>
			<text x="4" y="242.13" class="st2">GTM</text>		</g>
		<g id="shape32-31" transform="translate(239.903,-162.243)">
			<title>Sheet.32</title>
			<desc>ICUx</desc>
			<path d="M0 271.65 L0 256.93 L21.26 256.93 L21.26 271.65 L0 271.65 Z" class="st6"/>
			<text x="5.05" y="266.09" class="st2">ICUx</text>		</g>
		<g id="shape33-34" transform="translate(337.698,364.077) rotate(180)">
			<title>Sheet.33</title>
			<path d="M0 271.65 L21.26 271.65" class="st4"/>
		</g>
		<g id="shape34-39" transform="translate(337.698,411.132) rotate(180)">
			<title>Sheet.34</title>
			<path d="M0 271.65 L21.26 271.65" class="st4"/>
		</g>
		<g id="shape35-44" transform="translate(337.698,453.652) rotate(180)">
			<title>Sheet.35</title>
			<path d="M0 271.65 L21.26 271.65" class="st4"/>
		</g>
		<g id="shape36-49" transform="translate(337.698,496.172) rotate(180)">
			<title>Sheet.36</title>
			<path d="M0 271.65 L21.26 271.65" class="st4"/>
		</g>
		<g id="shape37-54" transform="translate(44.7896,224.523) rotate(-90)">
			<title>Sheet.37</title>
			<path d="M0 271.65 L177.03 271.65" class="st7"/>
		</g>
		<g id="shape38-57" transform="translate(316.438,375.253) rotate(180)">
			<title>Sheet.38</title>
			<path d="M0 271.65 L55.28 271.65" class="st7"/>
		</g>
		<g id="shape39-60" transform="translate(159.115,374.059) rotate(180)">
			<title>Sheet.39</title>
			<path d="M0 271.65 L89.75 271.65" class="st4"/>
		</g>
		<g id="shape40-65" transform="translate(65.5718,-169.06)">
			<title>Sheet.40</title>
			<desc>Interrupt request</desc>
			<rect x="0" y="264.358" width="55.4071" height="7.29041" class="st8"/>
			<text x="6.59" y="269.8" class="st2">Interrupt request</text>		</g>
		<g id="shape41-68" transform="translate(258.971,-164.399)">
			<title>Sheet.41</title>
			<desc>Interrupt service request</desc>
			<rect x="0" y="264.358" width="55.4071" height="7.29041" class="st8"/>
			<text x="7.43" y="266.2" class="st2">Interrupt service <tspan x="18.34" dy="1.2em" class="st9">request</tspan></text>		</g>
		<g id="shape42-72" transform="translate(-157.888,264.787) rotate(-90)">
			<title>Left Brace</title>
			<path d="M14.62 271.65 A14.8591 14.4002 0 0 1 7.31 269.43 L7.31 214.96 L0 214.96 L7.31 214.96 L7.31 160.48 A14.8591 14.4002
						 0 0 1 14.62 158.26" class="st10"/>
		</g>
		<g id="shape43-75" transform="translate(-3.39937,264.805) rotate(-90)">
			<title>Left Brace.43</title>
			<path d="M14.62 271.65 A14.8591 15.7289 0 0 1 7.31 269.23 L7.31 209.72 L0 209.72 L7.31 209.72 L7.31 150.22 A14.8591 15.7289
						 0 0 1 14.62 147.8" class="st10"/>
		</g>
		<g id="shape44-78" transform="translate(136.916,264.824) rotate(-90)">
			<title>Left Brace.44</title>
			<path d="M14.62 271.65 A14.8591 14.4002 0 0 1 7.31 269.43 L7.31 214.96 L0 214.96 L7.31 214.96 L7.31 160.48 A14.8591 14.4002
						 0 0 1 14.62 158.26" class="st10"/>
		</g>
		<g id="shape45-81" transform="translate(28.7473,-0.375)">
			<title>Sheet.45</title>
			<desc>Section 1</desc>
			<rect x="0" y="264.358" width="55.4071" height="7.29041" class="st8"/>
			<text x="16.51" y="269.8" class="st2">Section 1</text>		</g>
		<g id="shape46-84" transform="translate(178.004,-1.18556)">
			<title>Sheet.46</title>
			<desc>Section 2</desc>
			<rect x="0" y="264.358" width="55.4071" height="7.29041" class="st8"/>
			<text x="16.51" y="269.8" class="st2">Section 2</text>		</g>
		<g id="shape47-87" transform="translate(323.55,-0.375)">
			<title>Sheet.47</title>
			<desc>Section 3</desc>
			<rect x="0" y="264.358" width="55.4071" height="7.29041" class="st8"/>
			<text x="16.51" y="269.8" class="st2">Section 3</text>		</g>
		<g id="shape48-90" transform="translate(191.088,-187.339)">
			<title>Sheet.48</title>
			<desc>IR_Registers</desc>
			<path d="M0 271.65 L0 256.93 L38.98 256.93 L38.98 271.65 L0 271.65 Z" class="st6"/>
			<text x="4.5" y="266.09" class="st2">IR_Registers</text>		</g>
		<g id="shape49-93" transform="translate(135.687,-244.58)">
			<title>Sheet.49</title>
			<desc>SPB (FPI)</desc>
			<rect x="0" y="244.955" width="149.78" height="26.6937" class="st3"/>
			<text x="4" y="254.35" class="st2">SPB (FPI)</text>		</g>
		<g id="shape53-96" transform="translate(-58.1528,69.5884) rotate(-90)">
			<title>Sheet.53</title>
			<path d="M0 271.65 L42.52 271.65" class="st11"/>
		</g>
		<g id="shape54-105" transform="translate(285.467,-260.991)">
			<title>Sheet.54</title>
			<path d="M0 271.65 L87.66 271.65" class="st13"/>
		</g>
		<g id="shape55-110" transform="translate(101.482,26.8596) rotate(-90)">
			<title>Sheet.55</title>
			<path d="M0 271.65 L16.2 271.65" class="st13"/>
		</g>
		<g id="shape57-115" transform="translate(285.467,-260.991)">
			<title>Dynamic connector</title>
			<path d="M0 271.65 L-71.97 271.65 L-71.97 288.06" class="st14"/>
		</g>
	</g>
</svg>
