<?xml version="1.0" encoding="UTF-8" standalone="no"?>
<!DOCTYPE svg PUBLIC "-//W3C//DTD SVG 1.1//EN" "http://www.w3.org/Graphics/SVG/1.1/DTD/svg11.dtd">
<!-- Generated by Microsoft Visio, SVG Export PCIe_ASIL_B.svg Page-1 -->
<svg xmlns="http://www.w3.org/2000/svg" xmlns:xlink="http://www.w3.org/1999/xlink" xmlns:ev="http://www.w3.org/2001/xml-events"
		width="6.89384in" height="3.4553in" viewBox="0 0 496.357 248.781" xml:space="preserve" color-interpolation-filters="sRGB"
		class="st20">
	<style type="text/css">
	<![CDATA[
		.st1 {fill:#ffc000;stroke:none;stroke-linecap:round;stroke-linejoin:round;stroke-width:0.75}
		.st2 {fill:#000000;font-family:Calibri;font-size:0.499992em}
		.st3 {fill:#ffff00;stroke:none;stroke-linecap:round;stroke-linejoin:round;stroke-width:0.75}
		.st4 {fill:#000000;font-family:Calibri;font-size:0.499992em;font-weight:bold}
		.st5 {font-size:1em}
		.st6 {fill:none;stroke:none;stroke-linecap:round;stroke-linejoin:round;stroke-width:0.75}
		.st7 {fill:none;stroke:#000000;stroke-dasharray:5.25,3.75;stroke-linecap:round;stroke-linejoin:round;stroke-width:0.75}
		.st8 {baseline-shift:32.4949%;font-size:0.649897em}
		.st9 {fill:#9dc3e6;stroke:none;stroke-linecap:round;stroke-linejoin:round;stroke-width:0.75}
		.st10 {fill:#bfbfbf;stroke:none;stroke-linecap:round;stroke-linejoin:round;stroke-width:0.75}
		.st11 {marker-start:url(#mrkr1-52);stroke:#ff0000;stroke-linecap:round;stroke-linejoin:round;stroke-width:1}
		.st12 {fill:#ff0000;fill-opacity:1;stroke:#ff0000;stroke-opacity:1;stroke-width:0.28409090909091}
		.st13 {marker-end:url(#mrkr1-65);marker-start:url(#mrkr1-52);stroke:#ff0000;stroke-linecap:round;stroke-linejoin:round;stroke-width:1}
		.st14 {marker-end:url(#mrkr1-93);marker-start:url(#mrkr1-91);stroke:#000000;stroke-linecap:round;stroke-linejoin:round;stroke-width:1}
		.st15 {fill:#000000;fill-opacity:1;stroke:#000000;stroke-opacity:1;stroke-width:0.28409090909091}
		.st16 {marker-start:url(#mrkr1-91);stroke:#000000;stroke-linecap:round;stroke-linejoin:round;stroke-width:1}
		.st17 {stroke:#000000;stroke-dasharray:0.75,1.5;stroke-linecap:round;stroke-linejoin:round;stroke-width:0.75}
		.st18 {marker-end:url(#mrkr1-93);stroke:#000000;stroke-linecap:round;stroke-linejoin:round;stroke-width:1}
		.st19 {fill:#d8d8d8;stroke:none;stroke-linecap:round;stroke-linejoin:round;stroke-width:0.75}
		.st20 {fill:none;fill-rule:evenodd;font-size:12px;overflow:visible;stroke-linecap:square;stroke-miterlimit:3}
	]]>
	</style>

	<defs id="Markers">
		<g id="lend1">
			<path d="M 1 -1 L 0 0 L 1 1 " style="stroke-linecap:round;stroke-linejoin:round;fill:none"/>
		</g>
		<marker id="mrkr1-52" class="st12" orient="auto" markerUnits="strokeWidth" overflow="visible">
			<use xlink:href="#lend1" transform="scale(3.52) "/>
		</marker>
		<marker id="mrkr1-65" class="st12" orient="auto" markerUnits="strokeWidth" overflow="visible">
			<use xlink:href="#lend1" transform="scale(-3.52,-3.52) "/>
		</marker>
		<marker id="mrkr1-91" class="st15" orient="auto" markerUnits="strokeWidth" overflow="visible">
			<use xlink:href="#lend1" transform="scale(3.52) "/>
		</marker>
		<marker id="mrkr1-93" class="st15" orient="auto" markerUnits="strokeWidth" overflow="visible">
			<use xlink:href="#lend1" transform="scale(-3.52,-3.52) "/>
		</marker>
	</defs>
	<g>
		<title>Page-1</title>
		<g id="shape5-1" transform="translate(303.235,-108.092)">
			<title>Sheet.5</title>
			<desc>HSPHY</desc>
			<path d="M0 173.66 L0 248.78 L39.23 248.78 L39.23 173.66 L0 173.66 L0 173.66 Z" class="st1"/>
			<text x="4" y="183.06" class="st2">HSPHY</text>		</g>
		<g id="shape6-4" transform="translate(431.241,-53.0176)">
			<title>Sheet.6</title>
			<desc>External PCIe device Endpoint (EP) or RootComplex (RC)</desc>
			<rect x="0" y="112.719" width="64.7404" height="136.063" class="st3"/>
			<text x="4" y="122.12" class="st4">External PCIe device <tspan x="4" dy="1.2em" class="st5">Endpoint (EP) or </tspan><tspan
						x="4" dy="1.2em" class="st5">RootComplex (RC)</tspan></text>		</g>
		<g id="shape26-9" transform="translate(431.241,-138.563)">
			<title>Sheet.26</title>
			<desc>Tx</desc>
			<rect x="0" y="241.473" width="18.241" height="7.30867" class="st6"/>
			<text x="4" y="246.93" class="st2">Tx</text>		</g>
		<g id="shape31-12" transform="translate(431.241,-127.004)">
			<title>Sheet.31</title>
			<desc>Rx</desc>
			<rect x="0" y="239.838" width="20.6299" height="8.9437" class="st6"/>
			<text x="4" y="246.11" class="st2">Rx</text>		</g>
		<g id="shape32-15" transform="translate(431.241,-75.2732)">
			<title>Sheet.32</title>
			<desc>Ctrl</desc>
			<rect x="0" y="239.838" width="20.6299" height="8.9437" class="st6"/>
			<text x="4" y="246.11" class="st2">Ctrl</text>		</g>
		<g id="shape35-18" transform="translate(0.375,-0.375)">
			<title>Sheet.35</title>
			<desc>AURIXTM TC4xx MCU</desc>
			<path d="M0 248.78 L379.62 248.78 L379.62 0.75 L0 0.75 L0 248.78 Z" class="st7"/>
			<text x="4" y="10.15" class="st2">AURIX<tspan dy="-0.234em" class="st8">TM</tspan><tspan dy="0.152em" class="st5"> </tspan>TC4xx MCU</text>		</g>
		<g id="shape38-23" transform="translate(365.597,-47.1467)">
			<title>Sheet.38</title>
			<desc>Package</desc>
			<path d="M0 248.78 L0 112.72 L28.79 112.72 L28.79 248.78 L0 248.78 Z" class="st9"/>
			<text x="4.44" y="122.12" class="st2">Package</text>		</g>
		<g id="shape39-26" transform="translate(303.682,-47.1467)">
			<title>Sheet.39</title>
			<desc>PORTS</desc>
			<path d="M0 194.92 L0 248.78 L39.23 248.78 L39.23 194.92 L0 194.92 L0 194.92 Z" class="st1"/>
			<text x="4" y="204.32" class="st2">PORTS</text>		</g>
		<g id="shape40-29" transform="translate(194.548,-47.1467)">
			<title>Sheet.40</title>
			<desc>PCIe</desc>
			<path d="M0 78.7 L0 248.78 L46.32 248.78 L46.32 78.7 L0 78.7 L0 78.7 Z" class="st1"/>
			<text x="4" y="88.1" class="st2">PCIe</text>		</g>
		<g id="shape41-32" transform="translate(303.235,-191.714)">
			<title>Sheet.41</title>
			<desc>IR</desc>
			<rect x="0" y="222.217" width="39.2286" height="26.5648" class="st10"/>
			<text x="4" y="231.62" class="st2">IR</text>		</g>
		<g id="shape44-35" transform="translate(47.1373,-49.9813)">
			<title>Sheet.44</title>
			<desc>CPU</desc>
			<rect x="0" y="156.656" width="46.3246" height="92.126" class="st10"/>
			<text x="4" y="166.06" class="st2">CPU</text>		</g>
		<g id="shape45-38" transform="translate(47.1373,-147.584)">
			<title>Sheet.45</title>
			<desc>LMU</desc>
			<rect x="0" y="212.589" width="46.3246" height="36.1921" class="st10"/>
			<text x="4" y="221.99" class="st2">LMU</text>		</g>
		<g id="shape46-41" transform="translate(135.506,-72.6585)">
			<title>Sheet.46</title>
			<desc>SRI</desc>
			<path d="M0 98.55 L0 248.78 L28.79 248.78 L28.79 98.55 L0 98.55 L0 98.55 Z" class="st10"/>
			<text x="4" y="107.95" class="st2">SRI</text>		</g>
		<g id="shape47-44" transform="translate(101.005,-7.46161)">
			<title>Sheet.47</title>
			<desc>FPI</desc>
			<path d="M0 230.72 L0 248.78 L231.02 248.78 L231.02 230.72 L0 230.72 L0 230.72 Z" class="st10"/>
			<text x="4" y="240.12" class="st2">FPI</text>		</g>
		<g id="shape25-47" transform="translate(342.464,-142.815)">
			<title>Sheet.25</title>
			<path d="M0 248.78 L88.78 248.78" class="st11"/>
		</g>
		<g id="shape30-53" transform="translate(431.241,366.087) rotate(180)">
			<title>Sheet.30</title>
			<path d="M0 248.78 L88.78 248.78" class="st11"/>
		</g>
		<g id="shape37-58" transform="translate(342.911,-79.1782)">
			<title>Sheet.37</title>
			<path d="M0 248.78 L88.33 248.78" class="st13"/>
		</g>
		<g id="shape48-66" transform="translate(241.32,-143.525)">
			<title>Sheet.48</title>
			<path d="M0 248.78 L61.92 248.78" class="st11"/>
		</g>
		<g id="shape49-71" transform="translate(303.235,366.087) rotate(180)">
			<title>Sheet.49</title>
			<path d="M0 248.78 L61.92 248.78" class="st11"/>
		</g>
		<g id="shape50-76" transform="translate(224.312,-139.618)">
			<title>Sheet.50</title>
			<desc>Rx</desc>
			<rect x="0" y="241.473" width="18.241" height="7.30867" class="st6"/>
			<text x="8.38" y="246.93" class="st2">Rx</text>		</g>
		<g id="shape51-79" transform="translate(224.312,-127.712)">
			<title>Sheet.51</title>
			<desc>Tx</desc>
			<rect x="0" y="241.473" width="18.241" height="7.30867" class="st6"/>
			<text x="8.72" y="246.93" class="st2">Tx</text>		</g>
		<g id="shape53-82" transform="translate(223.525,-69.3841)">
			<title>Sheet.53</title>
			<desc>Ctrl</desc>
			<rect x="0" y="239.838" width="20.6299" height="8.9437" class="st6"/>
			<text x="7.95" y="246.11" class="st2">Ctrl</text>		</g>
		<g id="shape55-85" transform="translate(93.4619,-206.194)">
			<title>Sheet.55</title>
			<path d="M0 248.78 L42.04 248.78" class="st14"/>
		</g>
		<g id="shape56-94" transform="translate(93.4619,-120.634)">
			<title>Sheet.56</title>
			<path d="M0 248.78 L42.04 248.78" class="st14"/>
		</g>
		<g id="shape57-101" transform="translate(-119.206,223.259) rotate(-90)">
			<title>Sheet.57</title>
			<path d="M0 248.78 L38.63 248.78" class="st16"/>
		</g>
		<g id="shape62-106" transform="translate(128.419,-120.634)">
			<title>Dynamic connector.62</title>
			<path d="M7.09 248.78 L22.19 248.78 L22.19 163.22 L7.09 163.22" class="st17"/>
		</g>
		<g id="shape64-109" transform="translate(129.575,-18.4359)">
			<title>Dynamic connector.64</title>
			<path d="M0 241.69 L0 252.32 L154.26 252.32 L154.26 241.69" class="st17"/>
		</g>
		<g id="shape65-112" transform="translate(161.95,-69.8238)">
			<title>Sheet.65</title>
			<desc>Config</desc>
			<rect x="0" y="239.838" width="28.7936" height="8.9437" class="st6"/>
			<text x="9.25" y="246.11" class="st2">Config</text>		</g>
		<g id="shape66-115" transform="translate(160.085,-180.502)">
			<title>Sheet.66</title>
			<desc>Data</desc>
			<rect x="0" y="239.838" width="28.7936" height="8.9437" class="st6"/>
			<text x="13.34" y="246.11" class="st2">Data</text>		</g>
		<g id="shape67-118" transform="translate(20.8848,233.889) rotate(-90)">
			<title>Sheet.67</title>
			<path d="M0 248.78 L10.63 248.78" class="st17"/>
		</g>
		<g id="shape68-121" transform="translate(-74.0758,223.259) rotate(-90)">
			<title>Sheet.68</title>
			<path d="M0 248.78 L44.3 248.78" class="st16"/>
		</g>
		<g id="shape69-126" transform="translate(222.63,-195.746)">
			<title>Sheet.69</title>
			<desc>SR_x</desc>
			<rect x="0" y="239.838" width="20.6299" height="8.9437" class="st6"/>
			<text x="5.03" y="246.11" class="st2">SR_x</text>		</g>
		<g id="shape70-129" transform="translate(303.235,297.345) rotate(180)">
			<title>Sheet.70</title>
			<path d="M0 248.78 L61.92 248.78" class="st11"/>
		</g>
		<g id="shape71-134" transform="translate(303.682,438.937) rotate(180)">
			<title>Sheet.71</title>
			<path d="M0 248.78 L19.84 248.78" class="st16"/>
		</g>
		<g id="shape72-139" transform="translate(35.0581,223.259) rotate(-90)">
			<title>Sheet.72</title>
			<path d="M0 248.78 L33.1 248.78" class="st16"/>
		</g>
		<g id="shape73-144" transform="translate(129.575,433.408) rotate(180)">
			<title>Sheet.73</title>
			<path d="M0 248.78 L36.11 248.78" class="st18"/>
		</g>
		<g id="shape74-149" transform="translate(272.054,-58.0455)">
			<title>Sheet.74</title>
			<desc>Config</desc>
			<rect x="0" y="239.838" width="28.7936" height="8.9437" class="st6"/>
			<text x="9.25" y="246.11" class="st2">Config</text>		</g>
		<g id="shape75-152" transform="translate(269.666,-25.5225)">
			<title>Dynamic connector.75</title>
			<path d="M0 248.78 L0 202.59 A2.3622 2.3622 0 1 1 0 197.87 L0 159.13 L33.57 159.13" class="st14"/>
		</g>
		<g id="shape76-159" transform="translate(240.873,-66.9892)">
			<title>Dynamic connector.76</title>
			<path d="M0 241.69 L62.81 241.69" class="st13"/>
		</g>
		<g id="shape77-166" transform="translate(272.054,-114.738)">
			<title>Sheet.77</title>
			<desc>Config</desc>
			<rect x="0" y="239.838" width="28.7936" height="8.9437" class="st6"/>
			<text x="9.25" y="246.11" class="st2">Config</text>		</g>
		<g id="shape78-169" transform="translate(-74.0758,233.889) rotate(-90)">
			<title>Sheet.78</title>
			<path d="M0 248.78 L10.63 248.78" class="st17"/>
		</g>
		<g id="shape79-172" transform="translate(194.548,-172.915)">
			<title>Sheet.79</title>
			<desc>M-SRI</desc>
			<path d="M0 248.78 L0 232.25 L28.79 232.25 L28.79 248.78 L0 248.78 Z" class="st9"/>
			<text x="7.15" y="241.65" class="st2">M-SRI</text>		</g>
		<g id="shape80-175" transform="translate(194.548,-61.7966)">
			<title>Sheet.80</title>
			<desc>FPI Slave I/F</desc>
			<path d="M0 248.78 L0 232.25 L28.79 232.25 L28.79 248.78 L0 248.78 Z" class="st9"/>
			<text x="10.71" y="238.72" class="st2">FPI <tspan x="4.07" dy="1.2em" class="st5">Slave I/F</tspan></text>		</g>
		<g id="shape54-179" transform="translate(164.299,-180.942)">
			<title>Sheet.54</title>
			<path d="M0 248.78 L30.25 248.78" class="st14"/>
		</g>
		<g id="shape58-186" transform="translate(194.548,427.739) rotate(180)">
			<title>Sheet.58</title>
			<path d="M0 248.78 L19.84 248.78" class="st16"/>
		</g>
		<g id="shape81-191" transform="translate(303.235,-109.747)">
			<title>Sheet.81</title>
			<desc>FPI Slave I/F</desc>
			<path d="M0 248.78 L0 232.25 L28.79 232.25 L28.79 248.78 L0 248.78 Z" class="st9"/>
			<text x="10.71" y="238.72" class="st2">FPI <tspan x="4.07" dy="1.2em" class="st5">Slave I/F</tspan></text>		</g>
		<g id="shape82-195" transform="translate(303.682,-50.458)">
			<title>Sheet.82</title>
			<desc>FPI Slave I/F</desc>
			<path d="M0 248.78 L0 232.25 L28.79 232.25 L28.79 248.78 L0 248.78 Z" class="st9"/>
			<text x="10.71" y="238.72" class="st2">FPI <tspan x="4.07" dy="1.2em" class="st5">Slave I/F</tspan></text>		</g>
		<g id="shape83-199" transform="translate(54.2333,-55.4268)">
			<title>Sheet.83</title>
			<desc>FPI Master I/F</desc>
			<path d="M0 248.78 L0 232.25 L39.23 232.25 L39.23 248.78 L0 248.78 Z" class="st19"/>
			<text x="15.93" y="238.72" class="st2">FPI  <tspan x="6.92" dy="1.2em" class="st5">Master I/F</tspan></text>		</g>
		<g id="shape84-203" transform="translate(64.6684,-111.97)">
			<title>Sheet.84</title>
			<desc>S-SRI</desc>
			<path d="M0 248.78 L0 232.25 L28.79 232.25 L28.79 248.78 L0 248.78 Z" class="st19"/>
			<text x="8.34" y="241.65" class="st2">S-SRI</text>		</g>
		<g id="shape85-206" transform="translate(64.6684,-154.49)">
			<title>Sheet.85</title>
			<desc>S-SRI</desc>
			<path d="M0 248.78 L0 232.25 L28.79 232.25 L28.79 248.78 L0 248.78 Z" class="st19"/>
			<text x="8.34" y="241.65" class="st2">S-SRI</text>		</g>
		<g id="shape86-209" transform="translate(18.8002,-189.446)">
			<title>Sheet.86</title>
			<desc>Any address of the MCU’s system address map</desc>
			<rect x="0" y="203.994" width="74.6617" height="44.7874" class="st10"/>
			<text x="4" y="213.39" class="st2">Any address of the MCU’s <tspan x="4" dy="1.2em" class="st5">system address map</tspan></text>		</g>
		<g id="shape87-213" transform="translate(64.6684,-196.532)">
			<title>Sheet.87</title>
			<desc>S-SRI</desc>
			<path d="M0 248.78 L0 232.25 L28.79 232.25 L28.79 248.78 L0 248.78 Z" class="st19"/>
			<text x="8.34" y="241.65" class="st2">S-SRI</text>		</g>
		<g id="shape88-216" transform="translate(93.4619,-162.517)">
			<title>Sheet.88</title>
			<path d="M0 248.78 L42.04 248.78" class="st14"/>
		</g>
		<g id="shape89-223" transform="translate(135.506,-162.517)">
			<title>Sheet.89</title>
			<path d="M0 248.78 L15.11 248.78" class="st17"/>
		</g>
		<g id="shape90-226" transform="translate(150.611,-180.942)">
			<title>Sheet.90</title>
			<path d="M0 248.78 L13.69 248.78" class="st17"/>
		</g>
		<g id="shape91-229" transform="translate(194.548,-104.316)">
			<title>Sheet.91</title>
			<desc>S-SRI</desc>
			<path d="M0 248.78 L0 232.25 L28.79 232.25 L28.79 248.78 L0 248.78 Z" class="st9"/>
			<text x="8.34" y="241.65" class="st2">S-SRI</text>		</g>
		<g id="shape92-232" transform="translate(64.6684,-83.0564)">
			<title>Sheet.92</title>
			<desc>M-SRI</desc>
			<path d="M0 248.78 L0 232.25 L28.79 232.25 L28.79 248.78 L0 248.78 Z" class="st19"/>
			<text x="7.15" y="241.65" class="st2">M-SRI</text>		</g>
		<g id="shape93-235" transform="translate(164.299,-113.761)">
			<title>Sheet.93</title>
			<path d="M0 248.78 L30.25 248.78" class="st14"/>
		</g>
		<g id="shape94-242" transform="translate(93.4619,-92.501)">
			<title>Sheet.94</title>
			<path d="M0 248.78 L42.04 248.78" class="st14"/>
		</g>
		<g id="shape95-249" transform="translate(164.299,-113.761)">
			<title>Dynamic connector.95</title>
			<path d="M0 248.78 L-13.69 248.78 L-13.69 270.04 L-28.79 270.04" class="st17"/>
		</g>
		<g id="shape96-252" transform="translate(159.115,-113.541)">
			<title>Sheet.96</title>
			<desc>Data</desc>
			<rect x="0" y="239.838" width="28.7936" height="8.9437" class="st6"/>
			<text x="13.34" y="246.11" class="st2">Data</text>		</g>
	</g>
</svg>
