<?xml version="1.0" encoding="UTF-8" standalone="no"?>
<!DOCTYPE svg PUBLIC "-//W3C//DTD SVG 1.1//EN" "http://www.w3.org/Graphics/SVG/1.1/DTD/svg11.dtd">
<!-- Generated by Microsoft Visio, SVG Export ClockMgmt.svg Page-1 -->
<svg xmlns="http://www.w3.org/2000/svg" xmlns:xlink="http://www.w3.org/1999/xlink" xmlns:ev="http://www.w3.org/2001/xml-events"
		width="6.55449in" height="3.2899in" viewBox="0 0 471.923 236.873" xml:space="preserve" color-interpolation-filters="sRGB"
		class="st22">
	<style type="text/css">
	<![CDATA[
		.st1 {fill:none;stroke:#000000;stroke-dasharray:5.25,3.75;stroke-linecap:round;stroke-linejoin:round;stroke-width:0.75}
		.st2 {fill:#000000;font-family:Calibri;font-size:0.499992em}
		.st3 {baseline-shift:32.4949%;font-size:0.649897em}
		.st4 {font-size:1em}
		.st5 {fill:#9dc3e6;stroke:none;stroke-linecap:round;stroke-linejoin:round;stroke-width:0.75}
		.st6 {fill:#ffc000;stroke:none;stroke-linecap:round;stroke-linejoin:round;stroke-width:0.75}
		.st7 {fill:#bfbfbf;stroke:none;stroke-linecap:round;stroke-linejoin:round;stroke-width:0.75}
		.st8 {marker-end:url(#mrkr1-29);marker-start:url(#mrkr1-27);stroke:#000000;stroke-linecap:round;stroke-linejoin:round;stroke-width:1}
		.st9 {fill:#000000;fill-opacity:1;stroke:#000000;stroke-opacity:1;stroke-width:0.28409090909091}
		.st10 {marker-end:url(#mrkr1-35);stroke:#ff0000;stroke-linecap:round;stroke-linejoin:round;stroke-width:1}
		.st11 {fill:#ff0000;fill-opacity:1;stroke:#ff0000;stroke-opacity:1;stroke-width:0.28409090909091}
		.st12 {fill:#ffff00;stroke:none;stroke-linecap:round;stroke-linejoin:round;stroke-width:0.75}
		.st13 {fill:#000000;font-family:Calibri;font-size:0.499992em;font-weight:bold}
		.st14 {font-size:1em;font-weight:normal}
		.st15 {stroke:#000000;stroke-dasharray:0.75,1.5;stroke-linecap:round;stroke-linejoin:round;stroke-width:0.75}
		.st16 {fill:#cccc00;stroke:none;stroke-linecap:round;stroke-linejoin:round;stroke-width:0.75}
		.st17 {marker-end:url(#mrkr1-29);stroke:#000000;stroke-linecap:round;stroke-linejoin:round;stroke-width:1}
		.st18 {fill:none;stroke:none;stroke-linecap:round;stroke-linejoin:round;stroke-width:0.75}
		.st19 {fill:#000000;font-family:Calibri;font-size:0.666664em}
		.st20 {font-size:1em;font-style:italic}
		.st21 {baseline-shift:-32.4939%;font-size:0.649878em}
		.st22 {fill:none;fill-rule:evenodd;font-size:12px;overflow:visible;stroke-linecap:square;stroke-miterlimit:3}
	]]>
	</style>

	<defs id="Markers">
		<g id="lend1">
			<path d="M 1 -1 L 0 0 L 1 1 " style="stroke-linecap:round;stroke-linejoin:round;fill:none"/>
		</g>
		<marker id="mrkr1-27" class="st9" orient="auto" markerUnits="strokeWidth" overflow="visible">
			<use xlink:href="#lend1" transform="scale(3.52) "/>
		</marker>
		<marker id="mrkr1-29" class="st9" orient="auto" markerUnits="strokeWidth" overflow="visible">
			<use xlink:href="#lend1" transform="scale(-3.52,-3.52) "/>
		</marker>
		<marker id="mrkr1-35" class="st11" orient="auto" markerUnits="strokeWidth" overflow="visible">
			<use xlink:href="#lend1" transform="scale(-3.52,-3.52) "/>
		</marker>
	</defs>
	<g>
		<title>Page-1</title>
		<g id="shape37-1" transform="translate(0.375,-0.375)">
			<title>Sheet.37</title>
			<desc>AURIXTM TC4xx MCU</desc>
			<path d="M0 236.87 L392.19 236.87 L392.19 0.75 L0 0.75 L0 236.87 Z" class="st1"/>
			<text x="4" y="10.15" class="st2">AURIX<tspan dy="-0.234em" class="st3">TM</tspan><tspan dy="0.152em" class="st4"> </tspan>TC4xx MCU</text>		</g>
		<g id="shape38-6" transform="translate(375.559,-61.6842)">
			<title>Sheet.38</title>
			<desc>Package</desc>
			<path d="M0 236.87 L0 124.14 L28.79 124.14 L28.79 236.87 L0 236.87 Z" class="st5"/>
			<text x="4.44" y="133.54" class="st2">Package</text>		</g>
		<g id="shape39-9" transform="translate(319.273,-61.6842)">
			<title>Sheet.39</title>
			<desc>PORTS</desc>
			<path d="M0 194.35 L0 236.87 L28.79 236.87 L28.79 194.35 L0 194.35 L0 194.35 Z" class="st6"/>
			<text x="4" y="203.75" class="st2">PORTS</text>		</g>
		<g id="shape40-12" transform="translate(212.973,-61.6842)">
			<title>Sheet.40</title>
			<desc>CLOCK</desc>
			<path d="M0 109.95 L0 236.87 L67.24 236.87 L67.24 109.95 L0 109.95 L0 109.95 Z" class="st6"/>
			<text x="4" y="119.35" class="st2">CLOCK</text>		</g>
		<g id="shape41-15" transform="translate(127.934,-14.5482)">
			<title>Sheet.41</title>
			<desc>FPI</desc>
			<rect x="0" y="210.308" width="157.16" height="26.5648" class="st7"/>
			<text x="4" y="219.71" class="st2">FPI</text>		</g>
		<g id="shape42-18" transform="translate(29.0673,-14.1423)">
			<title>Sheet.42</title>
			<desc>CPU</desc>
			<rect x="0" y="179.774" width="49.4334" height="57.0988" class="st7"/>
			<text x="4" y="189.17" class="st2">CPU</text>		</g>
		<g id="shape45-21" transform="translate(18.62,195.76) rotate(-90)">
			<title>Sheet.45</title>
			<path d="M0 236.87 L20.57 236.87" class="st8"/>
		</g>
		<g id="shape59-30" transform="translate(319.273,-75.8575)">
			<title>Dynamic connector.57</title>
			<path d="M0 229.79 L-39.06 229.79" class="st10"/>
		</g>
		<g id="shape63-36" transform="translate(422.115,-42.0658)">
			<title>Sheet.63</title>
			<desc>External clock source example: crystal or oscilator</desc>
			<rect x="0" y="94.3119" width="49.4334" height="142.561" class="st12"/>
			<text x="4" y="103.71" class="st13">External clock <tspan x="4" dy="1.2em" class="st4">source               </tspan><tspan
						x="4" dy="18em" class="st14">example: crystal </tspan><tspan x="4" dy="1.2em" class="st14">or oscilator</tspan></text>		</g>
		<g id="shape65-42" transform="translate(156.281,-41.113)">
			<title>Dynamic connector.61</title>
			<path d="M0 236.87 L0 221.81 L-77.78 221.81" class="st8"/>
		</g>
		<g id="shape66-49" transform="translate(156.281,-34.0264)">
			<title>Dynamic connector.37</title>
			<path d="M0 229.79 L0 244.92 L99.21 244.92 L99.21 229.79" class="st15"/>
		</g>
		<g id="shape67-52" transform="translate(431.845,-110.597)">
			<title>Sheet.67</title>
			<desc>XTAL</desc>
			<path d="M0 194.35 L0 236.87 L28.79 236.87 L28.79 194.35 L0 194.35 L0 194.35 Z" class="st16"/>
			<text x="4" y="203.75" class="st2">XTAL</text>		</g>
		<g id="shape68-55" transform="translate(431.845,-77.1488)">
			<title>Sheet.68</title>
			<desc>OSC</desc>
			<path d="M0 220.34 L0 236.87 L28.79 236.87 L28.79 220.34 L0 220.34 L0 220.34 Z" class="st16"/>
			<text x="4" y="229.74" class="st2">OSC</text>		</g>
		<g id="shape47-58" transform="translate(280.21,-142.107)">
			<title>Sheet.47</title>
			<path d="M0 236.87 L151.64 236.87" class="st10"/>
		</g>
		<g id="shape69-63" transform="translate(431.845,349.013) rotate(180)">
			<title>Sheet.69</title>
			<path d="M0 236.87 L151.64 236.87" class="st10"/>
		</g>
		<g id="shape70-68" transform="translate(431.845,388.332) rotate(180)">
			<title>Sheet.70</title>
			<path d="M0 236.87 L83.78 236.87" class="st10"/>
		</g>
		<g id="shape71-73" transform="translate(47.1467,-109.623)">
			<title>Sheet.71</title>
			<desc>Any FB</desc>
			<rect x="0" y="143.558" width="80.7874" height="93.3148" class="st7"/>
			<text x="4" y="152.96" class="st2">Any FB</text>		</g>
		<g id="shape73-76" transform="translate(212.973,345.812) rotate(180)">
			<title>Sheet.73</title>
			<path d="M0 236.87 L85.04 236.87" class="st17"/>
		</g>
		<g id="shape74-81" transform="translate(142.75,-125.576)">
			<title>Sheet.74</title>
			<desc>Output clock: fxyz</desc>
			<rect x="0" y="220.342" width="69.5803" height="16.5312" class="st18"/>
			<text x="7.5" y="231.01" class="st19">Output clock: <tspan class="st20">f</tspan><tspan dy="-0.284em" class="st21">xyz</tspan></text>		</g>
		<g id="shape76-86" transform="translate(315.816,-166.339)">
			<title>Sheet.76</title>
			<desc>ERAY</desc>
			<rect x="0" y="179.774" width="49.4334" height="57.0988" class="st7"/>
			<text x="4" y="189.17" class="st2">ERAY</text>		</g>
		<g id="shape77-89" transform="translate(315.816,296.206) rotate(180)">
			<title>Sheet.77</title>
			<path d="M0 236.87 L35.61 236.87" class="st17"/>
		</g>
		<g id="shape78-94" transform="translate(309.29,-173.895)">
			<title>Sheet.78</title>
			<desc>Macrotick</desc>
			<rect x="0" y="229.583" width="45.4157" height="7.29041" class="st18"/>
			<text x="10.48" y="235.03" class="st2">Macrotick</text>		</g>
		<g id="shape79-97" transform="translate(368.879,-141.903)">
			<title>Sheet.79</title>
			<desc>XTAL2</desc>
			<rect x="0" y="229.583" width="45.4157" height="7.29041" class="st18"/>
			<text x="15.17" y="235.03" class="st2">XTAL2</text>		</g>
		<g id="shape80-100" transform="translate(368.879,-124.289)">
			<title>Sheet.80</title>
			<desc>XTAL1</desc>
			<rect x="0" y="229.583" width="45.4157" height="7.29041" class="st18"/>
			<text x="15.17" y="235.03" class="st2">XTAL1</text>		</g>
		<g id="shape81-103" transform="translate(368.879,-86.3895)">
			<title>Sheet.81</title>
			<desc>SYSCLK</desc>
			<rect x="0" y="229.583" width="45.4157" height="7.29041" class="st18"/>
			<text x="14.07" y="235.03" class="st2">SYSCLK</text>		</g>
	</g>
</svg>
