<?xml version="1.0" encoding="UTF-8" standalone="no"?>
<!DOCTYPE svg PUBLIC "-//W3C//DTD SVG 1.1//EN" "http://www.w3.org/Graphics/SVG/1.1/DTD/svg11.dtd">
<!-- Generated by Microsoft Visio, SVG Export PeripheralAccs.svg Page-1 -->
<svg xmlns="http://www.w3.org/2000/svg" xmlns:xlink="http://www.w3.org/1999/xlink" xmlns:ev="http://www.w3.org/2001/xml-events"
		width="5.86833in" height="3.57358in" viewBox="0 0 422.52 257.298" xml:space="preserve" color-interpolation-filters="sRGB"
		class="st16">
	<style type="text/css">
	<![CDATA[
		.st1 {fill:#ffc000;stroke:none;stroke-linecap:round;stroke-linejoin:round;stroke-width:0.75}
		.st2 {fill:#000000;font-family:Calibri;font-size:0.499992em}
		.st3 {fill:#bfbfbf;stroke:none;stroke-linecap:round;stroke-linejoin:round;stroke-width:0.75}
		.st4 {fill:#9dc3e6;stroke:none;stroke-linecap:round;stroke-linejoin:round;stroke-width:0.75}
		.st5 {font-size:1em}
		.st6 {marker-end:url(#mrkr1-25);marker-start:url(#mrkr1-23);stroke:#000000;stroke-linecap:round;stroke-linejoin:round;stroke-width:1}
		.st7 {fill:#000000;fill-opacity:1;stroke:#000000;stroke-opacity:1;stroke-width:0.28409090909091}
		.st8 {fill:#9dc3e6;stroke:#000000;stroke-linecap:round;stroke-linejoin:round;stroke-width:0.75}
		.st9 {fill:#d8d8d8;stroke:none;stroke-linecap:round;stroke-linejoin:round;stroke-width:0.75}
		.st10 {stroke:#000000;stroke-dasharray:5.25,3.75;stroke-linecap:round;stroke-linejoin:round;stroke-width:0.75}
		.st11 {marker-end:url(#mrkr1-25);stroke:#000000;stroke-linecap:round;stroke-linejoin:round;stroke-width:1}
		.st12 {stroke:#000000;stroke-linecap:round;stroke-linejoin:round;stroke-width:1}
		.st13 {marker-start:url(#mrkr1-23);stroke:#000000;stroke-linecap:round;stroke-linejoin:round;stroke-width:1}
		.st14 {fill:none;stroke:none;stroke-linecap:round;stroke-linejoin:round;stroke-width:0.75}
		.st15 {baseline-shift:32.4949%;font-size:0.649897em}
		.st16 {fill:none;fill-rule:evenodd;font-size:12px;overflow:visible;stroke-linecap:square;stroke-miterlimit:3}
	]]>
	</style>

	<defs id="Markers">
		<g id="lend1">
			<path d="M 1 -1 L 0 0 L 1 1 " style="stroke-linecap:round;stroke-linejoin:round;fill:none"/>
		</g>
		<marker id="mrkr1-23" class="st7" orient="auto" markerUnits="strokeWidth" overflow="visible">
			<use xlink:href="#lend1" transform="scale(3.52) "/>
		</marker>
		<marker id="mrkr1-25" class="st7" orient="auto" markerUnits="strokeWidth" overflow="visible">
			<use xlink:href="#lend1" transform="scale(-3.52,-3.52) "/>
		</marker>
	</defs>
	<g>
		<title>Page-1</title>
		<g id="shape2-1" transform="translate(139.622,-153.233)">
			<title>Sheet.2</title>
			<desc>CPUx</desc>
			<path d="M0 153.23 L0 257.3 L184.65 257.3 L184.65 153.23 L0 153.23 L0 153.23 Z" class="st1"/>
			<text x="4" y="162.63" class="st2">CPUx</text>		</g>
		<g id="shape5-4" transform="translate(8.66142,-99.7494)">
			<title>Sheet.5</title>
			<desc>SRI</desc>
			<path d="M0 232.53 L0 257.3 L194.17 257.3 L194.17 232.53 L0 232.53 L0 232.53 Z" class="st3"/>
			<text x="4" y="241.93" class="st2">SRI</text>		</g>
		<g id="shape12-7" transform="translate(177.619,-208.939)">
			<title>Sheet.12</title>
			<desc>CORE</desc>
			<path d="M0 257.3 L0 217.27 L102.84 217.27 L102.84 257.3 L0 257.3 Z" class="st4"/>
			<text x="44.74" y="239.09" class="st2">CORE</text>		</g>
		<g id="shape13-10" transform="translate(272.769,-153.233)">
			<title>Sheet.13</title>
			<desc>FPI Master I/F</desc>
			<path d="M0 257.3 L0 240.77 L36.37 240.77 L36.37 257.3 L0 257.3 Z" class="st4"/>
			<text x="14.5" y="247.23" class="st2">FPI  <tspan x="5.49" dy="1.2em" class="st5">Master I/F</tspan></text>		</g>
		<g id="shape14-14" transform="translate(157.257,-153.233)">
			<title>Sheet.14</title>
			<desc>M-SRI</desc>
			<path d="M0 257.3 L0 240.77 L28.79 240.77 L28.79 257.3 L0 257.3 Z" class="st4"/>
			<text x="7.15" y="250.83" class="st2">M-SRI</text>		</g>
		<g id="shape22-17" transform="translate(-87.1627,132.785) rotate(-90)">
			<title>Sheet.22</title>
			<path d="M0 257.3 L28.72 257.3" class="st6"/>
		</g>
		<g id="shape37-26" transform="translate(183.169,-208.939)">
			<title>Sheet.37</title>
			<desc>DMBI</desc>
			<path d="M0 257.3 L0 240.77 L28.79 240.77 L28.79 257.3 L0 257.3 Z" class="st8"/>
			<text x="7.6" y="250.83" class="st2">DMBI</text>		</g>
		<g id="shape39-29" transform="translate(228.346,-99.7494)">
			<title>Sheet.39</title>
			<desc>FPI (SPB, CPB, etc.)</desc>
			<path d="M0 232.53 L0 257.3 L194.17 257.3 L194.17 232.53 L0 232.53 L0 232.53 Z" class="st3"/>
			<text x="4" y="241.93" class="st2">FPI (SPB, CPB, etc.)</text>		</g>
		<g id="shape40-32" transform="translate(356.134,-13.781)">
			<title>Sheet.40</title>
			<desc>FPI Peripheral</desc>
			<rect x="0" y="197.568" width="64.7404" height="59.7292" class="st3"/>
			<text x="4" y="251.5" class="st2">FPI Peripheral</text>		</g>
		<g id="shape41-35" transform="translate(70.4014,-11.501)">
			<title>Sheet.41</title>
			<desc>LLI Peripheral</desc>
			<rect x="0" y="197.568" width="64.7404" height="59.7292" class="st3"/>
			<text x="4" y="206.97" class="st2">LLI Peripheral</text>		</g>
		<g id="shape42-38" transform="translate(70.4014,-21.8474)">
			<title>Sheet.42</title>
			<desc>LLI slave</desc>
			<path d="M0 257.3 L0 240.77 L28.79 240.77 L28.79 257.3 L0 257.3 Z" class="st9"/>
			<text x="11.12" y="247.23" class="st2">LLI <tspan x="8.25" dy="1.2em" class="st5">slave</tspan></text>		</g>
		<g id="shape43-42" transform="translate(374.107,-56.9791)">
			<title>Sheet.43</title>
			<desc>FPI Slave I/F</desc>
			<path d="M0 257.3 L0 240.77 L28.79 240.77 L28.79 257.3 L0 257.3 Z" class="st9"/>
			<text x="10.71" y="247.23" class="st2">FPI <tspan x="4.07" dy="1.2em" class="st5">Slave I/F</tspan></text>		</g>
		<g id="shape44-46" transform="translate(-74.3055,186.067) rotate(-90)">
			<title>Sheet.44</title>
			<path d="M0 257.3 L28.52 257.3" class="st6"/>
		</g>
		<g id="shape45-53" transform="translate(131.434,183.787) rotate(-90)">
			<title>Sheet.45</title>
			<path d="M0 257.3 L26.24 257.3" class="st6"/>
		</g>
		<g id="shape46-60" transform="translate(34.3638,136.447) rotate(-90.8154)">
			<title>Sheet.46</title>
			<path d="M0 257.3 L28.72 257.3" class="st6"/>
		</g>
		<g id="shape48-67" transform="translate(170.135,-124.512)">
			<title>Dynamic connector</title>
			<path d="M0 257.3 L0 271.1 L-114.4 271.1 L-114.4 282.06" class="st10"/>
		</g>
		<g id="shape50-70" transform="translate(291.635,-124.512)">
			<title>Dynamic connector.50</title>
			<path d="M0 257.3 L0 268.73 L97.1 268.73 L97.1 282.06" class="st10"/>
		</g>
		<g id="shape51-73" transform="translate(349.528,-199.36)">
			<title>Sheet.51</title>
			<desc>WTU</desc>
			<rect x="0" y="221.992" width="55.2756" height="35.3056" class="st1"/>
			<text x="4" y="231.39" class="st2">WTU</text>		</g>
		<g id="shape53-76" transform="translate(369.892,-199.36)">
			<title>Sheet.53</title>
			<desc>FPI Slave I/F</desc>
			<path d="M0 257.3 L0 240.77 L28.79 240.77 L28.79 257.3 L0 257.3 Z" class="st9"/>
			<text x="10.71" y="247.23" class="st2">FPI <tspan x="4.07" dy="1.2em" class="st5">Slave I/F</tspan></text>		</g>
		<g id="shape54-80" transform="translate(131.206,132.785) rotate(-90)">
			<title>Sheet.54</title>
			<path d="M0 257.3 L74.85 257.3" class="st6"/>
		</g>
		<g id="shape55-87" transform="translate(131.434,149.419) rotate(-90)">
			<title>Sheet.55</title>
			<path d="M0 257.3 L15.78 257.3" class="st10"/>
		</g>
		<g id="shape56-90" transform="translate(8.66142,-12.2972)">
			<title>Sheet.56</title>
			<desc>LLI*</desc>
			<path d="M0 180.98 L0 257.3 L24.76 257.3 L24.76 180.98 L0 180.98 L0 180.98 Z" class="st3"/>
			<text x="4" y="190.38" class="st2">LLI*</text>		</g>
		<g id="shape57-93" transform="translate(26.3379,-30.5038)">
			<title>Dynamic connector.215</title>
			<path d="M7.09 257.3 L-6.34 257.3 L-6.34 220.45 L7.09 220.45" class="st10"/>
		</g>
		<g id="shape60-96" transform="translate(43.6474,-99.7494)">
			<title>Sheet.60</title>
			<desc>S2L bridge</desc>
			<path d="M0 257.3 L0 240.77 L28.79 240.77 L28.79 257.3 L0 257.3 Z" class="st9"/>
			<text x="10.24" y="247.23" class="st2">S2L <tspan x="6.61" dy="1.2em" class="st5">bridge</tspan></text>		</g>
		<g id="shape61-100" transform="translate(33.4245,-30.5038)">
			<title>Sheet.61</title>
			<path d="M0 257.3 L36.78 257.3" class="st11"/>
		</g>
		<g id="shape62-105" transform="translate(-201.561,189.944) rotate(-90)">
			<title>Sheet.62</title>
			<path d="M0 257.3 L32.02 257.3" class="st12"/>
		</g>
		<g id="shape63-108" transform="translate(33.4245,-67.3542)">
			<title>Sheet.63</title>
			<path d="M0 257.3 L22.31 257.3" class="st13"/>
		</g>
		<g id="shape64-113" transform="translate(150.394,-11.501)">
			<title>Sheet.64</title>
			<desc>SRI Peripheral</desc>
			<rect x="0" y="197.568" width="64.7404" height="59.7292" class="st3"/>
			<text x="4" y="251.5" class="st2">SRI Peripheral</text>		</g>
		<g id="shape65-116" transform="translate(168.367,-54.699)">
			<title>Sheet.65</title>
			<desc>S-SRI</desc>
			<path d="M0 257.3 L0 240.77 L28.79 240.77 L28.79 257.3 L0 257.3 Z" class="st9"/>
			<text x="8.34" y="250.83" class="st2">S-SRI</text>		</g>
		<g id="shape66-119" transform="translate(169.477,-124.512)">
			<title>Dynamic connector.66</title>
			<path d="M0.66 257.3 L0.66 271.1 L13.52 271.1 L13.52 282.06" class="st10"/>
		</g>
		<g id="shape67-122" transform="translate(279.142,-0.375)">
			<title>Sheet.67</title>
			<desc>*LLI bus available only in some AURIXTM TC4xx devices</desc>
			<rect x="0" y="249.219" width="141.732" height="8.07874" class="st14"/>
			<text x="4" y="255.06" class="st2">*LLI bus available only in some AURIX<tspan dy="-0.234em" class="st15">TM</tspan><tspan
						dy="0.152em" class="st5"> </tspan>TC4xx devices</text>		</g>
	</g>
</svg>
